<svg width="17" height="16" viewBox="0 0 17 16" fill="none" xmlns="http://www.w3.org/2000/svg">
<path d="M11.143 13.4738C11.143 13.606 11.0904 13.7328 10.997 13.8263C10.9035 13.9198 10.7767 13.9723 10.6445 13.9723H1.67175C1.53954 13.9723 1.41275 13.9198 1.31926 13.8263C1.22578 13.7328 1.17326 13.606 1.17326 13.4738C1.17326 13.3416 1.22578 13.2148 1.31926 13.1213C1.41275 13.0278 1.53954 12.9753 1.67175 12.9753H10.6445C10.7767 12.9753 10.9035 13.0278 10.997 13.1213C11.0904 13.2148 11.143 13.3416 11.143 13.4738V13.4738ZM15.573 5.58944L14.4115 4.16995C14.074 3.75363 13.5979 3.47269 13.0703 3.37849C12.5427 3.28429 11.9988 3.38313 11.5381 3.65692L8.87105 5.22574L5.23994 4.01536C5.18204 3.99612 5.11909 3.99874 5.06299 4.02273L4.03486 4.46331C3.9195 4.51277 3.81844 4.59047 3.741 4.68926C3.66356 4.78804 3.61224 4.90473 3.59176 5.02856C3.57127 5.1524 3.58229 5.2794 3.6238 5.39786C3.6653 5.51632 3.73596 5.62242 3.82925 5.70639L5.4859 7.19738L4.14829 7.96171L2.51762 7.26288C2.48661 7.2496 2.45321 7.24275 2.41947 7.24275C2.38573 7.24275 2.35234 7.2496 2.32132 7.26288L1.27744 7.71025C1.16325 7.75918 1.06305 7.8358 0.985895 7.93317C0.908741 8.03054 0.857065 8.1456 0.835534 8.26796C0.814003 8.39031 0.823297 8.5161 0.862576 8.63396C0.901854 8.75182 0.969879 8.85804 1.06051 8.94301H1.06057L3.40939 11.145C3.76034 11.4771 4.20966 11.6861 4.6897 11.7407C5.16974 11.7953 5.65453 11.6925 6.0711 11.4478L15.5054 5.96275C15.5365 5.94461 15.5634 5.91993 15.5841 5.89039C15.6048 5.86086 15.6189 5.82719 15.6253 5.79169C15.6317 5.7562 15.6304 5.71974 15.6214 5.68482C15.6123 5.6499 15.5958 5.61736 15.573 5.58944L15.573 5.58944Z" fill="white"/>
</svg>
