<svg width="42" height="40" viewBox="0 0 42 40" fill="none" xmlns="http://www.w3.org/2000/svg">
<path d="M24.0625 0.96875C26.962 0.96875 29.3125 3.31926 29.3125 6.21875V8.40625C29.3125 8.8895 29.7043 9.28125 30.1875 9.28125H30.625C31.1082 9.28125 31.5 9.673 31.5 10.1562V38.1562C31.5 38.6395 31.1082 39.0312 30.625 39.0312H11.375C10.8918 39.0312 10.5 38.6395 10.5 38.1562V10.1562C10.5 9.673 10.8918 9.28125 11.375 9.28125H11.8125C12.2957 9.28125 12.6875 8.8895 12.6875 8.40625V6.21875C12.6875 3.31926 15.038 0.96875 17.9375 0.96875H24.0625ZM17.9375 4.46875C16.971 4.46875 16.1875 5.25225 16.1875 6.21875V8.40625C16.1875 8.8895 16.5793 9.28125 17.0625 9.28125H24.9375C25.4207 9.28125 25.8125 8.8895 25.8125 8.40625V6.21875C25.8125 5.25225 25.029 4.46875 24.0625 4.46875H17.9375Z" fill="white"/>
<path d="M7 10.1562C7 9.673 6.60825 9.28125 6.125 9.28125C2.74226 9.28125 0 12.0235 0 15.4062V32.9062C0 36.289 2.74226 39.0312 6.125 39.0312C6.60825 39.0312 7 38.6395 7 38.1562V10.1562Z" fill="white"/>
<path d="M35.875 9.28125C35.3918 9.28125 35 9.673 35 10.1562V38.1562C35 38.6395 35.3918 39.0312 35.875 39.0312C39.2577 39.0312 42 36.289 42 32.9062V15.4062C42 12.0235 39.2577 9.28125 35.875 9.28125Z" fill="white"/>
</svg>
