<svg width="20" height="20" viewBox="0 0 20 20" fill="none" xmlns="http://www.w3.org/2000/svg">
<path d="M11.458 0.9375C12.8387 0.9375 13.958 2.05679 13.958 3.4375V4.47949C13.9582 4.70946 14.145 4.89551 14.375 4.89551H14.583C14.8131 4.89551 15 5.08238 15 5.3125V18.6455C15 18.8756 14.8131 19.0625 14.583 19.0625H5.41699C5.18687 19.0625 5 18.8756 5 18.6455V5.3125C5 5.08238 5.18687 4.89551 5.41699 4.89551H5.625C5.85501 4.89551 6.04182 4.70946 6.04199 4.47949V3.4375C6.04199 2.05679 7.16128 0.9375 8.54199 0.9375H11.458ZM8.54199 2.60449C8.08175 2.60449 7.70801 2.97726 7.70801 3.4375V4.47949C7.70818 4.70946 7.89499 4.89551 8.125 4.89551H11.875C12.105 4.89551 12.2918 4.70946 12.292 4.47949V3.4375C12.292 2.97726 11.9182 2.60449 11.458 2.60449H8.54199Z" fill="#084983"/>
<path d="M3.33333 5.31217C3.33333 5.08206 3.14679 4.89551 2.91667 4.89551C1.30584 4.89551 0 6.20134 0 7.81217V16.1455C0 17.7563 1.30584 19.0622 2.91667 19.0622C3.14679 19.0622 3.33333 18.8756 3.33333 18.6455V5.31217Z" fill="#084983"/>
<path d="M17.0832 4.89551C16.8531 4.89551 16.6665 5.08206 16.6665 5.31217V18.6455C16.6665 18.8756 16.8531 19.0622 17.0832 19.0622C18.694 19.0622 19.9998 17.7563 19.9998 16.1455V7.81217C19.9998 6.20134 18.694 4.89551 17.0832 4.89551Z" fill="#084983"/>
</svg>
