<svg width="601" height="764" viewBox="0 0 601 764" fill="none" xmlns="http://www.w3.org/2000/svg">
<path d="M92 125.434C92 126.299 92.7013 127 93.5664 127H443.091C452.982 127 461 118.982 461 109.091C461 100.924 455.475 93.7916 447.567 91.7504L351.875 67.0497C351.747 67.0167 351.616 67 351.484 67H93.5664C92.7013 67 92 67.7013 92 68.5664V125.434Z" fill="#DDE5ED" stroke="#B3C5D6" stroke-width="2"/>
<path d="M92 125.434C92 126.299 92.7013 127 93.5664 127H443.091C452.982 127 461 118.982 461 109.091C461 100.924 455.475 93.7916 447.567 91.7504L351.875 67.0497C351.747 67.0167 351.616 67 351.484 67H93.5664C92.7013 67 92 67.7013 92 68.5664V125.434Z" fill="#DDE5ED" stroke="#B3C5D6" stroke-width="2"/>
<path d="M92 203.566C92 202.701 92.7013 202 93.5664 202H485.257C494.504 202 502 209.496 502 218.743C502 226.599 496.537 233.399 488.866 235.092L380.703 258.963C380.592 258.988 380.479 259 380.366 259H93.5664C92.7013 259 92 258.299 92 257.434V203.566Z" fill="#DDE5ED" stroke="#B3C5D6" stroke-width="2"/>
<path d="M92 203.566C92 202.701 92.7013 202 93.5664 202H485.257C494.504 202 502 209.496 502 218.743C502 226.599 496.537 233.399 488.866 235.092L380.703 258.963C380.592 258.988 380.479 259 380.366 259H93.5664C92.7013 259 92 258.299 92 257.434V203.566Z" fill="#DDE5ED" stroke="#B3C5D6" stroke-width="2"/>
<path d="M92 335.566C92 334.701 92.7013 334 93.5664 334H485.579C494.648 334 502 341.352 502 350.421C502 358.149 496.611 364.832 489.059 366.469L380.7 389.964C380.591 389.988 380.48 390 380.368 390H93.5664C92.7013 390 92 389.299 92 388.434V335.566Z" fill="#DDE5ED" stroke="#B3C5D6" stroke-width="2"/>
<path d="M92 335.566C92 334.701 92.7013 334 93.5664 334H485.579C494.648 334 502 341.352 502 350.421C502 358.149 496.611 364.832 489.059 366.469L380.7 389.964C380.591 389.988 380.48 390 380.368 390H93.5664C92.7013 390 92 389.299 92 388.434V335.566Z" fill="#DDE5ED" stroke="#B3C5D6" stroke-width="2"/>
<path d="M92 466.566C92 465.701 92.7013 465 93.5664 465H485.257C494.504 465 502 472.496 502 481.743C502 489.599 496.537 496.399 488.866 498.092L380.703 521.963C380.592 521.988 380.479 522 380.366 522H93.5664C92.7013 522 92 521.299 92 520.434V466.566Z" fill="#DDE5ED" stroke="#B3C5D6" stroke-width="2"/>
<path d="M92 466.566C92 465.701 92.7013 465 93.5664 465H485.257C494.504 465 502 472.496 502 481.743C502 489.599 496.537 496.399 488.866 498.092L380.703 521.963C380.592 521.988 380.479 522 380.366 522H93.5664C92.7013 522 92 521.299 92 520.434V466.566Z" fill="#DDE5ED" stroke="#B3C5D6" stroke-width="2"/>
<path d="M92 598.566C92 597.701 92.7013 597 93.5664 597H485.579C494.648 597 502 604.352 502 613.421C502 621.149 496.611 627.832 489.059 629.469L380.7 652.964C380.591 652.988 380.48 653 380.368 653H93.5664C92.7013 653 92 652.299 92 651.434V598.566Z" fill="#DDE5ED" stroke="#B3C5D6" stroke-width="2"/>
<path d="M92 598.566C92 597.701 92.7013 597 93.5664 597H485.579C494.648 597 502 604.352 502 613.421C502 621.149 496.611 627.832 489.059 629.469L380.7 652.964C380.591 652.988 380.48 653 380.368 653H93.5664C92.7013 653 92 652.299 92 651.434V598.566Z" fill="#DDE5ED" stroke="#B3C5D6" stroke-width="2"/>
</svg>
