<svg width="42" height="42" viewBox="0 0 42 42" fill="none" xmlns="http://www.w3.org/2000/svg">
<path d="M40.6875 34.125C40.6875 34.4731 40.5492 34.8069 40.3031 35.0531C40.0569 35.2992 39.7231 35.4375 39.375 35.4375H2.625C2.2769 35.4375 1.94306 35.2992 1.69692 35.0531C1.45078 34.8069 1.3125 34.4731 1.3125 34.125C1.3125 33.7769 1.45078 33.4431 1.69692 33.1969C1.94306 32.9508 2.2769 32.8125 2.625 32.8125H39.375C39.7231 32.8125 40.0569 32.9508 40.3031 33.1969C40.5492 33.4431 40.6875 33.7769 40.6875 34.125ZM2.67467 16.1074C2.5968 15.8325 2.61082 15.5396 2.71461 15.2733C2.81839 15.007 3.00627 14.7819 3.24969 14.6322L20.3122 4.13216C20.519 4.00489 20.7571 3.9375 21 3.9375C21.2429 3.9375 21.481 4.00489 21.6878 4.13216L38.7503 14.6322C38.9937 14.7819 39.1815 15.007 39.2853 15.2733C39.3891 15.5396 39.4032 15.8324 39.3253 16.1074C39.2475 16.3824 39.0821 16.6244 38.8542 16.7968C38.6262 16.9692 38.3483 17.0625 38.0625 17.0625H34.125V27.5625H36.75C37.0981 27.5625 37.4319 27.7008 37.6781 27.9469C37.9242 28.1931 38.0625 28.5269 38.0625 28.875C38.0625 29.2231 37.9242 29.5569 37.6781 29.8031C37.4319 30.0492 37.0981 30.1875 36.75 30.1875H5.25C4.9019 30.1875 4.56806 30.0492 4.32192 29.8031C4.07578 29.5569 3.9375 29.2231 3.9375 28.875C3.9375 28.5269 4.07578 28.1931 4.32192 27.9469C4.56806 27.7008 4.9019 27.5625 5.25 27.5625H7.875V17.0625H3.9375C3.65173 17.0625 3.37376 16.9692 3.14583 16.7969C2.9179 16.6245 2.75247 16.3824 2.67467 16.1074ZM23.625 26.25C23.625 26.5981 23.7633 26.9319 24.0094 27.1781C24.2556 27.4242 24.5894 27.5625 24.9375 27.5625C25.2856 27.5625 25.6194 27.4242 25.8656 27.1781C26.1117 26.9319 26.25 26.5981 26.25 26.25V18.375C26.25 18.0269 26.1117 17.6931 25.8656 17.4469C25.6194 17.2008 25.2856 17.0625 24.9375 17.0625C24.5894 17.0625 24.2556 17.2008 24.0094 17.4469C23.7633 17.6931 23.625 18.0269 23.625 18.375V26.25ZM15.75 26.25C15.75 26.5981 15.8883 26.9319 16.1344 27.1781C16.3806 27.4242 16.7144 27.5625 17.0625 27.5625C17.4106 27.5625 17.7444 27.4242 17.9906 27.1781C18.2367 26.9319 18.375 26.5981 18.375 26.25V18.375C18.375 18.0269 18.2367 17.6931 17.9906 17.4469C17.7444 17.2008 17.4106 17.0625 17.0625 17.0625C16.7144 17.0625 16.3806 17.2008 16.1344 17.4469C15.8883 17.6931 15.75 18.0269 15.75 18.375V26.25Z" fill="white"/>
</svg>
