<svg width="42" height="42" viewBox="0 0 42 42" fill="none" xmlns="http://www.w3.org/2000/svg">
<path d="M9.1875 35.373V37.998C9.1875 39.4478 10.3628 40.623 11.8125 40.623C13.2622 40.623 14.4375 39.4478 14.4375 37.998V35.373" stroke="white" stroke-width="2" stroke-linecap="round" stroke-linejoin="round"/>
<path d="M32.8125 35.373V37.998C32.8125 39.4478 31.6372 40.623 30.1875 40.623C28.7378 40.623 27.5625 39.4478 27.5625 37.998V35.373" stroke="white" stroke-width="2" stroke-linecap="round" stroke-linejoin="round"/>
<path fill-rule="evenodd" clip-rule="evenodd" d="M35.4375 32.748C35.4375 34.1978 34.2622 35.373 32.8125 35.373H9.1875C7.73775 35.373 6.5625 34.1978 6.5625 32.748V9.12305C6.5625 4.7738 10.0883 1.24805 14.4375 1.24805H27.5625C29.6511 1.24805 31.6541 2.07773 33.131 3.55458C34.6078 5.03143 35.4375 7.03447 35.4375 9.12305V32.748Z" stroke="white" stroke-width="2" stroke-linecap="round" stroke-linejoin="round"/>
<path d="M17.0625 6.49805H24.9375" stroke="white" stroke-width="1.5" stroke-linecap="round" stroke-linejoin="round"/>
<rect x="6.5625" y="11.748" width="28.875" height="13.125" stroke="white" stroke-width="2" stroke-linecap="round" stroke-linejoin="round"/>
<path d="M11.8125 30.123H17.0625" stroke="white" stroke-width="2" stroke-linecap="round" stroke-linejoin="round"/>
<path d="M24.9375 30.123H30.1875" stroke="white" stroke-width="2" stroke-linecap="round" stroke-linejoin="round"/>
<path d="M6.5625 14.373H3.9375C2.48775 14.373 1.3125 15.5483 1.3125 16.998V24.873" stroke="white" stroke-width="2" stroke-linecap="round" stroke-linejoin="round"/>
<path d="M35.4375 14.373H38.0625C39.5122 14.373 40.6875 15.5483 40.6875 16.998V24.873" stroke="white" stroke-width="2" stroke-linecap="round" stroke-linejoin="round"/>
</svg>
