<svg width="38" height="41" viewBox="0 0 38 41" fill="none" xmlns="http://www.w3.org/2000/svg">
<path d="M10.6865 37.627H5.43652C4.95327 37.627 4.56152 38.003 4.56152 38.467V39.307C4.56152 40.2348 5.34503 40.9869 6.31152 40.9869H9.81152C10.778 40.9869 11.5615 40.2348 11.5615 39.307V38.467C11.5615 38.003 11.1698 37.627 10.6865 37.627Z" fill="white"/>
<path d="M35.1953 37.627H29.9453C29.4621 37.627 29.0703 38.003 29.0703 38.467V39.307C29.0703 40.2348 29.8538 40.9869 30.8203 40.9869H34.3203C35.2868 40.9869 36.0703 40.2348 36.0703 39.307V38.467C36.0703 38.003 35.6786 37.627 35.1953 37.627Z" fill="white"/>
<path d="M28.6934 17.4668C29.9942 17.4687 31.1522 18.2576 31.584 19.4355L34.085 26.2939C34.1095 26.3624 34.1524 26.4238 34.209 26.4717L37.0674 28.8672C37.5417 29.267 37.8131 29.8442 37.8125 30.4502V33.8467C37.8125 35.0065 36.8331 35.9473 35.625 35.9473H5C3.79305 35.9453 2.81542 35.0054 2.81445 33.8467V30.4482C2.8154 29.8444 3.08662 29.2703 3.55859 28.8711L6.41113 26.4697C6.4682 26.423 6.51122 26.3622 6.53516 26.2939L9.03613 19.4355C9.46745 18.2573 10.6258 17.4682 11.9268 17.4668H28.6934ZM11.9336 19.9863C11.7477 19.987 11.5821 20.1002 11.5205 20.2686L9.68359 25.3086C9.63797 25.4372 9.65932 25.5796 9.74121 25.6904C9.82177 25.7995 9.95159 25.8655 10.0908 25.8672H30.5361C30.6754 25.8658 30.8053 25.7996 30.8857 25.6904C30.97 25.5807 30.9948 25.4383 30.9512 25.3086L29.1133 20.2686C29.0516 20.1003 28.8861 19.987 28.7002 19.9863H11.9336Z" fill="white"/>
<path d="M6.56351 0.731913C10.3042 0.0602761 14.0135 2.03712 15.3985 5.43992C15.4641 5.60097 15.6265 5.70663 15.8067 5.70652H34.3125C35.7623 5.70652 36.9375 6.83527 36.9375 8.22703C36.9373 9.61859 35.7621 10.7466 34.3125 10.7466H33.875C33.6336 10.7468 33.4376 10.9347 33.4375 11.1665V11.5864C33.4375 12.9782 32.2623 14.1069 30.8125 14.1069C29.363 14.1067 28.1875 12.978 28.1875 11.5864V11.1665C28.188 11.055 28.1427 10.9475 28.0606 10.8686C27.9784 10.7898 27.8662 10.7461 27.75 10.7466H26C25.7586 10.7468 25.5626 10.9347 25.5625 11.1665V11.5864C25.5625 12.9782 24.3873 14.1069 22.9375 14.1069C21.488 14.1067 20.3125 12.978 20.3125 11.5864V11.1665C20.313 11.055 20.2677 10.9475 20.1856 10.8686C20.1034 10.7898 19.9912 10.7461 19.875 10.7466H15.7891C15.6093 10.7467 15.4478 10.8532 15.3828 11.0141C13.9785 14.4093 10.2581 16.3662 6.52151 15.6753C2.78473 14.9842 0.0874715 11.8402 0.0976852 8.18699C0.108008 4.53367 2.82282 1.40357 6.56351 0.731913ZM8.06155 4.89402C6.12865 4.89402 4.5617 6.39784 4.56155 8.2534C4.56155 9.14441 4.92975 9.99928 5.58597 10.6294C6.24234 11.2595 7.13329 11.6137 8.06155 11.6137C9.99437 11.6135 11.5616 10.1089 11.5616 8.2534C11.5614 6.39797 9.99428 4.89423 8.06155 4.89402Z" fill="white"/>
</svg>
