<svg width="20" height="20" viewBox="0 0 20 20" fill="none" xmlns="http://www.w3.org/2000/svg">
<ellipse cx="10" cy="2.70801" rx="2.5" ry="2.5" fill="#084983"/>
<path d="M13.3332 8.12467C13.3332 7.2042 12.587 6.45801 11.6665 6.45801H11.3332C11.1938 6.45808 11.0637 6.52782 10.9865 6.64384L10.3457 7.60467C10.2684 7.72057 10.1383 7.79018 9.999 7.79018C9.8597 7.79018 9.72962 7.72057 9.65234 7.60467L9.0115 6.64384C8.93463 6.52831 8.80527 6.45864 8.6665 6.45801H8.33317C7.4127 6.45801 6.6665 7.2042 6.6665 8.12467V8.95801C6.6665 9.18813 6.85305 9.37467 7.08317 9.37467H12.9165C13.1466 9.37467 13.3332 9.18813 13.3332 8.95801V8.12467Z" fill="#084983"/>
<path d="M17.4995 10.208C18.65 10.208 19.5833 11.1406 19.5835 12.291V19.375C19.5833 19.605 19.3965 19.791 19.1665 19.791H0.833496C0.603486 19.791 0.41668 19.605 0.416504 19.375V12.291C0.41668 11.1407 1.34918 10.2082 2.49951 10.208H17.4995ZM9.03467 12.5254L8.30127 12.7451C8.22033 12.7679 8.15515 12.8279 8.12451 12.9062C8.09655 12.9791 8.11261 13.0618 8.1665 13.1182L9.17822 14.041C9.23206 14.0974 9.24853 14.1799 9.22119 14.2529C9.18996 14.3313 9.12461 14.391 9.04346 14.4141L8.09131 14.6992C8.00258 14.7286 7.90509 14.7079 7.83545 14.6455L7.31299 14.1504C7.22834 14.0771 7.10731 14.063 7.0083 14.1152L6.29932 14.4717C6.2313 14.5042 6.18077 14.5648 6.16162 14.6377C6.14371 14.7051 6.16262 14.7774 6.21143 14.8271L7.02881 15.8271L6.89795 17.1143C6.88558 17.1826 6.90924 17.2528 6.96045 17.2998C7.01698 17.3489 7.09227 17.3713 7.1665 17.3613L7.95459 17.2676C8.06619 17.2571 8.15972 17.1783 8.18994 17.0703L8.35205 16.3701C8.3763 16.2797 8.44728 16.2082 8.5376 16.1836L9.48877 15.8984C9.56893 15.8728 9.65708 15.8854 9.72607 15.9336C9.79015 15.9789 9.82223 16.0574 9.80908 16.1348L9.46631 17.4619C9.45244 17.5392 9.48471 17.6176 9.54932 17.6621C9.61829 17.7109 9.70614 17.7249 9.78662 17.6992L10.519 17.4785C10.5948 17.4572 10.6577 17.4043 10.6909 17.333L11.5522 15.3848C11.5935 15.306 11.6642 15.2459 11.7485 15.2178L13.1978 14.7842C13.6075 14.6606 13.8392 14.2283 13.7163 13.8184C13.5935 13.4087 13.1623 13.1754 12.7524 13.2979L11.3042 13.7334C11.2178 13.7568 11.1255 13.7449 11.0474 13.7012L9.2583 12.5527C9.19144 12.5116 9.1095 12.5016 9.03467 12.5254Z" fill="#084983"/>
</svg>
