<svg width="43" height="32" viewBox="0 0 43 32" fill="none" xmlns="http://www.w3.org/2000/svg">
<path d="M40.719 28.124H2.32227C1.35577 28.124 0.572266 28.9075 0.572266 29.874C0.572266 30.8405 1.35577 31.624 2.32227 31.624H40.719C41.6855 31.624 42.469 30.8405 42.469 29.874C42.469 28.9075 41.6855 28.124 40.719 28.124Z" fill="white"/>
<path d="M29.3662 0.1875C30.3327 0.1875 31.1162 0.971002 31.1162 1.9375V2.8125C31.1162 3.29571 31.508 3.68744 31.9912 3.6875H33.8447C38.6646 3.68758 42.5723 7.59516 42.5723 12.415C42.5721 17.2348 38.6645 21.1415 33.8447 21.1416H27.4971C27.2636 21.1422 27.0399 21.2361 26.876 21.4023C24.548 23.7982 21.4168 25.2493 18.084 25.4766C14.2267 25.7347 10.4349 24.3828 7.61133 21.7422C4.7877 19.1013 3.18466 15.4072 3.18457 11.541V1.9375C3.18457 0.971002 3.96807 0.1875 4.93457 0.1875H29.3662ZM31.9932 7.1748C31.5101 7.1748 31.1184 7.56676 31.1182 8.0498V11.0635C31.118 12.9101 30.771 14.7406 30.0947 16.459C29.9904 16.7275 30.0243 17.0304 30.1865 17.2686C30.3488 17.5067 30.6181 17.6492 30.9062 17.6504H33.8447C36.7363 17.6503 39.0809 15.3066 39.0811 12.415C39.0811 9.52333 36.7364 7.1788 33.8447 7.17871L31.9932 7.1748Z" fill="white"/>
</svg>
