<svg width="16" height="16" viewBox="0 0 16 16" fill="none" xmlns="http://www.w3.org/2000/svg">
<path d="M6.22852 12.0053C6.22851 12.074 6.28405 12.1298 6.3528 12.1302C6.53031 12.1368 6.69722 12.0458 6.78792 11.8931C6.87863 11.7404 6.87863 11.5503 6.78792 11.3976C6.69722 11.2449 6.53031 11.1539 6.3528 11.1605C6.28405 11.1609 6.22851 11.2167 6.22852 11.2854V12.0053Z" fill="white"/>
<path d="M3.62876 6.3931C3.58006 6.34874 3.50982 6.3372 3.44949 6.36363C3.38916 6.39007 3.35002 6.44952 3.34961 6.51539V8.4967C3.35002 8.56257 3.38916 8.62203 3.44949 8.64846C3.50982 8.67489 3.58006 8.66335 3.62876 8.619C3.84003 8.42555 3.96057 8.15241 3.96108 7.86595V7.14614C3.96057 6.85968 3.84003 6.58655 3.62876 6.3931Z" fill="white"/>
<path d="M7.97266 0.388672C9.80723 0.388672 11.3583 1.74849 11.5977 3.56738C11.6085 3.64997 11.6794 3.71129 11.7627 3.71094H14.6201C15.1656 3.70651 15.6117 4.145 15.6172 4.69043V15.0283C15.6117 15.5737 15.1655 16.0113 14.6201 16.0068H1.32715C0.781795 16.0112 0.335605 15.5737 0.330078 15.0283V4.69043C0.335558 4.14504 0.781769 3.70659 1.32715 3.71094H4.18555C4.26825 3.71049 4.33784 3.64938 4.34863 3.56738C4.58794 1.74863 6.13827 0.388883 7.97266 0.388672ZM5.81348 10.3301C5.5842 10.3302 5.39854 10.5158 5.39844 10.7451V14.3496C5.39844 14.579 5.58413 14.7646 5.81348 14.7646C6.0429 14.7646 6.22949 14.579 6.22949 14.3496V14.0488C6.22976 13.9745 6.27899 13.9096 6.35059 13.8896C6.42243 13.8697 6.49856 13.9 6.53711 13.9639L6.89746 14.5615C6.97304 14.6862 7.10911 14.7617 7.25488 14.7607C7.32978 14.761 7.40377 14.741 7.46777 14.7021C7.56211 14.6457 7.63038 14.5539 7.65723 14.4473C7.684 14.3406 7.66687 14.2272 7.61035 14.1328L6.94238 13.0195C6.9196 12.9812 6.91256 12.9347 6.92383 12.8916C6.9352 12.8484 6.96414 12.8113 7.00293 12.7891C7.52202 12.4943 7.77736 11.8868 7.625 11.3096C7.47257 10.7323 6.95054 10.3302 6.35352 10.3301H5.81348ZM3.6543 10.3301C3.02753 10.3312 2.51929 10.8391 2.51855 11.4658V14.3457C2.51856 14.575 2.70437 14.7605 2.93359 14.7607C3.16301 14.7607 3.3496 14.5751 3.34961 14.3457V13.4873C3.34961 13.3955 3.42386 13.3213 3.51562 13.3213H4.01367C4.24309 13.3213 4.42969 13.1347 4.42969 12.9053C4.42962 12.6759 4.24305 12.4902 4.01367 12.4902H3.51562C3.42398 12.4902 3.34981 12.4158 3.34961 12.3242V11.4658C3.34961 11.2976 3.48607 11.1615 3.6543 11.1611H4.37402C4.60326 11.1609 4.78906 10.9744 4.78906 10.7451C4.78896 10.5159 4.6032 10.3303 4.37402 10.3301H3.6543ZM9.41406 10.3301C8.78704 10.3308 8.27905 10.8388 8.27832 11.4658V13.626C8.27947 14.2527 8.78733 14.76 9.41406 14.7607H10.1338C10.3631 14.7606 10.5488 14.575 10.5488 14.3457C10.5488 14.1164 10.3631 13.9308 10.1338 13.9307H9.41406C9.24587 13.9307 9.10882 13.7942 9.1084 13.626V13.4873C9.1084 13.3957 9.18285 13.3215 9.27441 13.3213H10.1338C10.3631 13.3212 10.5488 13.1346 10.5488 12.9053C10.5488 12.676 10.3631 12.4903 10.1338 12.4902H9.27441C9.18297 12.49 9.1086 12.4157 9.1084 12.3242V11.4658C9.10876 11.2975 9.24573 11.1615 9.41406 11.1611H10.1338C10.3631 11.161 10.5488 10.9745 10.5488 10.7451C10.5487 10.5159 10.3631 10.3302 10.1338 10.3301H9.41406ZM12.2939 10.3301C11.6673 10.3313 11.1599 10.8391 11.1592 11.4658V13.626C11.1603 14.2523 11.6676 14.7595 12.2939 14.7607H13.0137C13.2431 14.7607 13.4297 14.5751 13.4297 14.3457C13.4297 14.1163 13.2431 13.9307 13.0137 13.9307H12.2939C12.126 13.9305 11.9903 13.794 11.9902 13.626V13.4873C11.9902 13.3955 12.0645 13.3213 12.1562 13.3213H13.0137C13.2431 13.3213 13.4297 13.1347 13.4297 12.9053C13.4296 12.6759 13.243 12.4902 13.0137 12.4902H12.1562C12.0646 12.4902 11.9904 12.4158 11.9902 12.3242V11.4658C11.9902 11.2977 12.1258 11.1616 12.2939 11.1611H13.0137C13.2431 11.1611 13.4297 10.9745 13.4297 10.7451C13.4296 10.5158 13.243 10.3301 13.0137 10.3301H12.2939ZM2.93359 5.29004C2.70452 5.29026 2.51882 5.47602 2.51855 5.70508V9.30566C2.51855 9.53495 2.70436 9.72146 2.93359 9.72168C3.95699 9.71839 4.78614 8.88863 4.78906 7.86523V7.14551C4.78814 6.12136 3.95779 5.29114 2.93359 5.29004ZM7.25391 5.29004C7.02466 5.29006 6.83913 5.47589 6.83887 5.70508V8.58594C6.84393 8.698 6.78669 8.8037 6.69043 8.86133C6.59398 8.91903 6.4734 8.91903 6.37695 8.86133C6.28077 8.80367 6.22442 8.69795 6.22949 8.58594V5.70508C6.22923 5.47588 6.04274 5.29004 5.81348 5.29004C5.5843 5.29013 5.3987 5.47594 5.39844 5.70508V8.58594C5.39942 9.21241 5.90671 9.72044 6.5332 9.72168C7.16007 9.72095 7.66796 9.21275 7.66895 8.58594V5.70508C7.66868 5.47588 7.48317 5.29004 7.25391 5.29004ZM8.69336 5.29004C8.4641 5.29004 8.27858 5.47588 8.27832 5.70508C8.27832 5.9345 8.46394 6.12109 8.69336 6.12109H8.83203C8.92379 6.12109 8.99804 6.19535 8.99805 6.28711V9.30566C8.99805 9.53509 9.18464 9.72168 9.41406 9.72168C9.64335 9.72152 9.8291 9.53499 9.8291 9.30566V6.28711C9.82911 6.19542 9.90345 6.12121 9.99512 6.12109H10.1338C10.3631 6.12098 10.5488 5.93443 10.5488 5.70508C10.5486 5.47595 10.363 5.29015 10.1338 5.29004H8.69336ZM13.0137 5.29004C12.7846 5.29024 12.5989 5.476 12.5986 5.70508V6.78516C12.5986 6.95328 12.4621 7.08984 12.2939 7.08984C12.126 7.08969 11.9902 6.95318 11.9902 6.78516V5.70508C11.99 5.47588 11.8035 5.29004 11.5742 5.29004C11.345 5.29014 11.1594 5.47594 11.1592 5.70508V6.78516C11.1593 7.21515 11.4023 7.60883 11.7871 7.80078C11.8433 7.829 11.879 7.88633 11.8789 7.94922V9.30469C11.8789 9.53399 12.0647 9.71958 12.2939 9.71973C12.5233 9.71973 12.7099 9.53408 12.71 9.30469V7.94824C12.7101 7.88533 12.7456 7.82729 12.8018 7.79883C13.1858 7.60701 13.4291 7.21449 13.4297 6.78516V5.70508C13.4294 5.47588 13.2429 5.29004 13.0137 5.29004ZM7.97363 1.71777C6.89634 1.71956 5.96059 2.4591 5.70996 3.50684C5.69817 3.55628 5.70973 3.60853 5.74121 3.64844C5.77264 3.6882 5.82042 3.71179 5.87109 3.71191H10.0732C10.1249 3.71271 10.174 3.689 10.2061 3.64844C10.2379 3.60865 10.2494 3.55632 10.2373 3.50684C9.98688 2.45896 9.05102 1.71931 7.97363 1.71777Z" fill="white"/>
</svg>
