<svg width="42" height="42" viewBox="0 0 42 42" fill="none" xmlns="http://www.w3.org/2000/svg">
<path d="M21.001 0L20.3223 2.10162H18.1279L19.9034 3.4003L19.2256 5.50192L21.001 4.20323L22.7765 5.50192L22.0987 3.4003L23.8741 2.10162H21.6798L21.001 0Z" fill="white"/>
<path d="M21.6798 38.6016L21.001 36.5L20.3223 38.6016H18.1279L19.9034 39.9003L19.2256 42.0019L21.001 40.7032L22.7765 42.0019L22.0987 39.9003L23.8741 38.6016H21.6798Z" fill="white"/>
<path d="M2.8731 22.4532L4.64852 23.7519L3.97078 21.6503L5.7462 20.3516H3.55185L2.8731 18.25L2.19435 20.3516H0L1.77542 21.6503L1.09768 23.7519L2.8731 22.4532Z" fill="white"/>
<path d="M11.9361 2.44531L11.2573 4.54591H9.06299L10.8384 5.84561L10.1607 7.94723L11.9361 6.64753L13.7115 7.94723L13.0338 5.84561L14.8092 4.54591H12.6148L11.9361 2.44531Z" fill="white"/>
<path d="M5.30282 9.125L4.62407 11.2266H2.42871L4.20514 12.5253L3.52639 14.6269L5.30282 13.3282L7.07824 14.6269L6.39949 12.5253L8.17592 11.2266H5.98056L5.30282 9.125Z" fill="white"/>
<path d="M5.98056 29.4766L5.30282 27.375L4.62407 29.4766H2.42871L4.20514 30.7753L3.52639 32.8769L5.30282 31.5782L7.07824 32.8769L6.39949 30.7753L8.17592 29.4766H5.98056Z" fill="white"/>
<path d="M12.6148 36.1563L11.9361 34.0547L11.2573 36.1563H9.06299L10.8384 37.456L10.1607 39.5576L11.9361 38.2579L13.7115 39.5576L13.0338 37.456L14.8092 36.1563H12.6148Z" fill="white"/>
<path d="M42.0001 20.3516H39.8058L39.127 18.25L38.4483 20.3516H36.2539L38.0293 21.6503L37.3516 23.7519L39.127 22.4532L40.9024 23.7519L40.2247 21.6503L42.0001 20.3516Z" fill="white"/>
<path d="M30.064 2.44531L29.3853 4.54591H27.1909L28.9663 5.84561L28.2886 7.94723L30.064 6.64753L31.8394 7.94723L31.1617 5.84561L32.9371 4.54591H30.7428L30.064 2.44531Z" fill="white"/>
<path d="M35.5997 12.5253L34.9209 14.6269L36.6963 13.3282L38.4728 14.6269L37.794 12.5253L39.5705 11.2266H37.3751L36.6963 9.125L36.0186 11.2266H33.8232L35.5997 12.5253Z" fill="white"/>
<path d="M37.3751 29.4766L36.6963 27.375L36.0186 29.4766H33.8232L35.5997 30.7753L34.9209 32.8769L36.6963 31.5782L38.4728 32.8769L37.794 30.7753L39.5705 29.4766H37.3751Z" fill="white"/>
<path d="M30.7428 36.1563L30.064 34.0547L29.3853 36.1563H27.1909L28.9663 37.456L28.2886 39.5576L30.064 38.2579L31.8394 39.5576L31.1617 37.456L32.9371 36.1563H30.7428Z" fill="white"/>
</svg>
