<svg width="42" height="42" viewBox="0 0 42 42" fill="none" xmlns="http://www.w3.org/2000/svg">
<path d="M37.4495 28.921C37.289 28.7602 37.0712 28.6699 36.844 28.6699C36.6169 28.6699 36.399 28.7602 36.2385 28.921L32.819 32.3597C32.5755 32.6053 32.5034 32.9732 32.6361 33.2925C32.7688 33.6119 33.0804 33.8203 33.4263 33.821H34.3905C34.5347 33.8196 34.6698 33.8914 34.7493 34.0117C34.8283 34.1319 34.8421 34.2835 34.786 34.416C33.5338 36.8144 30.9992 38.2635 28.297 38.126C27.3499 38.126 26.582 38.8938 26.582 39.841C26.582 40.7881 27.3499 41.556 28.297 41.556C32.993 41.7842 37.2094 38.6985 38.412 34.1535C38.4498 33.9511 38.6262 33.8042 38.832 33.8035H40.2793C40.6257 33.8021 40.9373 33.5924 41.069 33.2719C41.2007 32.9515 41.1266 32.5833 40.8813 32.3387L37.4495 28.921Z" fill="white"/>
<path d="M3.69236 13.057C3.85288 13.2177 4.07071 13.308 4.29786 13.308C4.52501 13.308 4.74285 13.2177 4.90336 13.057L8.32286 9.61475C8.56816 9.36977 8.64142 9.00099 8.50838 8.68085C8.37534 8.36071 8.06229 8.15247 7.71561 8.1535H6.75486C6.61085 8.15449 6.47604 8.08282 6.39631 7.96288C6.31659 7.84295 6.3027 7.6909 6.35936 7.5585C7.61119 5.16163 10.1443 3.71328 12.8449 3.85025C13.7702 3.82068 14.5051 3.06197 14.5051 2.13613C14.5051 1.21028 13.7702 0.451572 12.8449 0.422001C8.14763 0.194045 3.92923 3.27782 2.72111 7.82275C2.6833 8.02512 2.50699 8.17205 2.30111 8.17275H0.853862C0.506909 8.17313 0.194521 8.38296 0.0629589 8.70401C-0.0686032 9.02505 0.0067002 9.39376 0.253612 9.6375L3.69236 13.057Z" fill="white"/>
<path d="M13.5743 15.8672C13.7818 15.8661 13.9611 16.013 14.0001 16.2168C15.2054 22.3885 20.0306 27.2144 26.2022 28.4199C26.4059 28.458 26.5538 28.6366 26.5528 28.8438C26.485 35.9099 20.7257 41.5964 13.6593 41.5742C6.59267 41.552 0.869059 35.8293 0.845774 28.7627C0.822578 21.6962 6.50813 15.936 13.5743 15.8672ZM13.7091 24.0098C10.6826 23.7076 7.94075 25.8048 7.43952 28.8047C7.4016 29.0076 7.22409 29.1553 7.01765 29.1553H6.85163C6.14126 29.1553 5.56452 29.731 5.56452 30.4414C5.56464 31.1517 6.14133 31.7275 6.85163 31.7275H7.01765C7.22427 31.7268 7.40216 31.8739 7.43952 32.0772C7.94062 35.0773 10.6825 37.1743 13.7091 36.8721C14.4194 36.8721 14.9962 36.2963 14.9962 35.5859C14.996 34.8757 14.4193 34.2998 13.7091 34.2998C12.2139 34.5108 10.7632 33.6918 10.171 32.3027C10.1196 32.1712 10.1362 32.0228 10.2159 31.9063C10.2958 31.7896 10.429 31.7202 10.5704 31.7207H13.7022C14.4125 31.7207 14.9881 31.1448 14.9884 30.4346C14.9884 29.7242 14.4126 29.1475 13.7022 29.1475L10.5704 29.1533C10.429 29.1538 10.2958 29.0844 10.2159 28.9678C10.136 28.8511 10.1194 28.702 10.171 28.5703C10.7661 27.1848 12.2161 26.3697 13.7091 26.582C14.4194 26.582 14.9962 26.0063 14.9962 25.2959C14.996 24.5857 14.4193 24.0098 13.7091 24.0098Z" fill="white"/>
<path d="M29.1416 0.430664C36.2433 0.430867 42 6.18833 42 13.29C41.9911 20.388 36.2395 26.1396 29.1416 26.1484C22.0399 26.1484 16.2824 20.3917 16.2822 13.29C16.2822 6.18821 22.0398 0.430664 29.1416 0.430664ZM29.1416 3.50195C28.4313 3.50195 27.8545 4.07775 27.8545 4.78809V5.62988C27.8551 5.84275 27.6998 6.02336 27.4893 6.05469C25.7168 6.31435 24.3401 7.7325 24.1318 9.51172C23.9236 11.2909 24.936 12.9884 26.6006 13.6504L30.7246 15.3037C31.3443 15.5559 31.6991 16.2114 31.5713 16.8682C31.4434 17.5248 30.8691 17.9996 30.2002 18.001H26.1328C25.4414 18.0266 24.8945 18.5943 24.8945 19.2861C24.8946 19.978 25.4415 20.5457 26.1328 20.5713H27.4189C27.6557 20.5713 27.8476 20.7633 27.8477 21V21.7891C27.8477 22.4993 28.4236 23.075 29.1338 23.0752C29.8442 23.0752 30.4209 22.4994 30.4209 21.7891V20.9404C30.4197 20.7284 30.5744 20.5483 30.7842 20.5176C32.5579 20.2592 33.937 18.8408 34.1455 17.0605C34.3538 15.2802 33.3399 13.582 31.6738 12.9209L27.5488 11.2705C26.9292 11.0184 26.5744 10.3627 26.7021 9.70605C26.83 9.0495 27.4044 8.57475 28.0732 8.57324H32.1406C32.6112 8.59061 33.0535 8.34918 33.2939 7.94434C33.5342 7.53954 33.5343 7.03561 33.2939 6.63086C33.0535 6.22624 32.611 5.98557 32.1406 6.00293H30.8564C30.6198 6.00293 30.4279 5.81087 30.4277 5.57422V4.78809C30.4277 4.07787 29.8518 3.50216 29.1416 3.50195Z" fill="white"/>
</svg>
