<svg width="2475" height="1469" viewBox="0 0 2475 1469" fill="none" xmlns="http://www.w3.org/2000/svg">
<g clip-path="url(#clip0_1590_1084672)">
<mask id="path-1-inside-1_1590_1084672" fill="white">
<path d="M1686.51 -176.366L1823.05 -196.378L1922.19 480.021L1785.65 500.034L1686.51 -176.366Z"/>
</mask>
<path d="M1686.51 -176.366L1823.05 -196.378L1922.19 480.021L1785.65 500.034L1686.51 -176.366Z" fill="white"/>
<path d="M1823.05 -196.378L1819.1 -195.798L1918.23 480.601L1922.19 480.021L1926.15 479.441L1827.01 -196.959L1823.05 -196.378ZM1785.65 500.034L1789.61 499.454L1690.47 -176.946L1686.51 -176.366L1682.55 -175.786L1781.69 500.614L1785.65 500.034Z" fill="#CDCDCD" mask="url(#path-1-inside-1_1590_1084672)"/>
<rect x="1695.59" y="-169.61" width="26" height="548.242" transform="rotate(-8.33823 1695.59 -169.61)" fill="#EDEDED"/>
<rect x="1790.57" y="-183.533" width="26" height="624.31" transform="rotate(-8.33823 1790.57 -183.533)" fill="#EDEDED"/>
<rect x="420" y="258" width="1048" height="1069" fill="#F6F6F6"/>
<rect x="420.5" y="258.5" width="1047" height="1068" stroke="black" stroke-opacity="0.2"/>
<rect x="471" y="310" width="952" height="971" fill="#EDEDED"/>
<path d="M948.75 787.125H945.688C945.446 787.125 945.25 787.321 945.25 787.562V793.688C945.25 793.929 945.446 794.125 945.688 794.125H948.75C950.683 794.125 952.25 792.558 952.25 790.625C952.25 788.692 950.683 787.125 948.75 787.125Z" fill="white"/>
<path d="M947 774C958.593 774.013 967.987 783.407 968 795C968 806.598 958.598 816 947 816C935.402 816 926 806.598 926 795C926 783.402 935.402 774 947 774ZM943.5 783.625C942.534 783.625 941.75 784.409 941.75 785.375V806.375C941.75 807.341 942.534 808.125 943.5 808.125C944.466 808.125 945.25 807.341 945.25 806.375V798.062C945.25 797.821 945.446 797.625 945.688 797.625H948.75C952.616 797.625 955.75 794.491 955.75 790.625C955.75 786.759 952.616 783.625 948.75 783.625H943.5Z" fill="white"/>
<path d="M1659.51 260C1816 260 1942.44 387.396 1941.5 543.657L1941.48 545.497L1941.11 575.523C1941.04 581.272 1940.36 586.996 1939.1 592.601L1938.83 593.721L1762.94 1323.47L1762.58 1325H1467V260H1659.51Z" fill="white" stroke="#CDCDCD" stroke-width="4"/>
<mask id="mask0_1590_1084672" style="mask-type:alpha" maskUnits="userSpaceOnUse" x="1461" y="258" width="482" height="1072">
<path d="M1659 260C1814.74 260 1941 386.256 1941 542V611.957C1941 617.146 1940.51 622.322 1939.53 627.416L1939.33 628.434L1796.16 1326.4L1795.83 1328H1463V260H1659Z" fill="white" stroke="#CDCDCD" stroke-width="4"/>
</mask>
<g mask="url(#mask0_1590_1084672)">
<path d="M1465 259.502H1981V363.213H1723H1594H1506.5L1530.5 413.414H1465V259.502Z" fill="#D9D9D9"/>
<rect width="504.993" height="144.669" transform="matrix(0.536458 0.843927 -0.792785 0.609502 1720.71 105.945)" fill="#D9D9D9"/>
<rect width="402.964" height="141.051" transform="matrix(-0.201666 0.979454 -0.969997 -0.243116 1938.08 534.292)" fill="#D9D9D9"/>
<rect width="790.091" height="40.0251" transform="matrix(-0.235042 0.971985 -0.961116 -0.276145 1945.97 558.28)" fill="#D9D9D9"/>
<rect x="1556" y="322" width="62" height="62" rx="2" fill="#2D2D2D"/>
<path d="M1574.75 335.055C1577.83 335.055 1580.55 337.067 1581.44 340.012C1582.34 342.957 1581.21 346.143 1578.66 347.862C1578.43 348.012 1578.29 348.256 1578.27 348.524C1578.25 348.793 1578.36 349.055 1578.56 349.236C1579.29 349.904 1579.83 350.757 1580.13 351.705L1583.46 362.364C1583.54 362.63 1583.5 362.919 1583.33 363.144C1583.17 363.368 1582.9 363.5 1582.63 363.5H1580.25C1579.8 363.497 1579.43 363.826 1579.37 364.267L1578.25 373.235C1578.2 373.675 1577.82 374.003 1577.38 374H1572.13C1571.68 374.004 1571.31 373.675 1571.25 373.235L1570.14 364.267C1570.09 363.826 1569.71 363.497 1569.27 363.5H1566.88C1566.6 363.499 1566.34 363.367 1566.17 363.143C1566.01 362.918 1565.96 362.63 1566.04 362.364L1569.37 351.705C1569.66 350.757 1570.21 349.904 1570.94 349.236C1571.14 349.055 1571.25 348.793 1571.23 348.524C1571.21 348.256 1571.06 348.012 1570.84 347.862C1568.29 346.143 1567.16 342.957 1568.05 340.012C1568.95 337.067 1571.67 335.055 1574.75 335.055ZM1575.34 340.479C1575.01 340.174 1574.5 340.174 1574.16 340.479C1573.48 341.093 1572.71 341.591 1571.87 341.953C1571.47 342.127 1571.26 342.565 1571.38 342.983C1571.79 344.505 1573.17 345.562 1574.74 345.562C1576.32 345.561 1577.7 344.504 1578.11 342.983C1578.22 342.565 1578.01 342.127 1577.62 341.953C1576.78 341.59 1576.01 341.093 1575.34 340.479Z" fill="white"/>
<path d="M1587 332C1586.04 332 1585.25 332.784 1585.25 333.75V372.25C1585.25 373.216 1586.04 374 1587 374C1587.97 374 1588.75 373.216 1588.75 372.25V333.75C1588.75 332.784 1587.97 332 1587 332Z" fill="white"/>
<path d="M1599.25 335.022C1602.24 335.022 1604.89 336.916 1605.87 339.738C1606.84 342.56 1605.92 345.689 1603.57 347.531C1603.34 347.71 1603.22 347.99 1603.24 348.279C1603.26 348.568 1603.42 348.828 1603.67 348.975C1606.35 350.533 1608 353.399 1608 356.5V360.875C1608 361.358 1607.61 361.75 1607.13 361.75H1604.77C1604.32 361.747 1603.94 362.086 1603.9 362.532L1602.75 373.22C1602.7 373.666 1602.33 374.003 1601.88 374H1596.63C1596.18 374.003 1595.8 373.666 1595.75 373.22L1594.62 362.532C1594.57 362.086 1594.19 361.748 1593.74 361.75H1591.38C1590.89 361.75 1590.5 361.358 1590.5 360.875V356.5C1590.5 353.399 1592.15 350.533 1594.83 348.975C1595.08 348.828 1595.25 348.568 1595.27 348.279C1595.29 347.99 1595.16 347.71 1594.93 347.531C1592.58 345.689 1591.66 342.56 1592.64 339.738C1593.61 336.916 1596.27 335.022 1599.25 335.022ZM1597.07 340.697C1596.83 340.585 1596.55 340.586 1596.31 340.701C1596.08 340.816 1595.9 341.032 1595.84 341.289C1595.78 341.542 1595.75 341.802 1595.75 342.062C1595.75 343.995 1597.32 345.562 1599.25 345.562C1601.18 345.562 1602.75 343.995 1602.75 342.062C1602.75 341.925 1602.7 341.793 1602.6 341.698C1602.49 341.605 1602.36 341.56 1602.22 341.574C1601.91 341.607 1601.61 341.624 1601.3 341.625C1599.84 341.626 1598.4 341.309 1597.07 340.697Z" fill="white"/>
<rect x="1648" y="322" width="62" height="62" rx="2" fill="#2D2D2D"/>
<path d="M1666.75 335.055C1669.83 335.055 1672.55 337.067 1673.44 340.012C1674.34 342.957 1673.21 346.143 1670.66 347.862C1670.43 348.012 1670.29 348.256 1670.27 348.524C1670.25 348.793 1670.36 349.055 1670.56 349.236C1671.29 349.904 1671.83 350.757 1672.13 351.705L1675.46 362.364C1675.54 362.63 1675.5 362.919 1675.33 363.144C1675.17 363.368 1674.9 363.5 1674.63 363.5H1672.25C1671.8 363.497 1671.43 363.826 1671.37 364.267L1670.25 373.235C1670.2 373.675 1669.82 374.003 1669.38 374H1664.13C1663.68 374.004 1663.31 373.675 1663.25 373.235L1662.14 364.267C1662.09 363.826 1661.71 363.497 1661.27 363.5H1658.88C1658.6 363.499 1658.34 363.367 1658.17 363.143C1658.01 362.918 1657.96 362.63 1658.04 362.364L1661.37 351.705C1661.66 350.757 1662.21 349.904 1662.94 349.236C1663.14 349.055 1663.25 348.793 1663.23 348.524C1663.21 348.256 1663.06 348.012 1662.84 347.862C1660.29 346.143 1659.16 342.957 1660.05 340.012C1660.95 337.067 1663.67 335.055 1666.75 335.055ZM1667.34 340.479C1667.01 340.174 1666.5 340.174 1666.16 340.479C1665.48 341.093 1664.71 341.591 1663.87 341.953C1663.47 342.127 1663.26 342.565 1663.38 342.983C1663.79 344.505 1665.17 345.562 1666.74 345.562C1668.32 345.561 1669.7 344.504 1670.11 342.983C1670.22 342.565 1670.01 342.127 1669.62 341.953C1668.78 341.59 1668.01 341.093 1667.34 340.479Z" fill="white"/>
<path d="M1679 332C1678.04 332 1677.25 332.784 1677.25 333.75V372.25C1677.25 373.216 1678.04 374 1679 374C1679.97 374 1680.75 373.216 1680.75 372.25V333.75C1680.75 332.784 1679.97 332 1679 332Z" fill="white"/>
<path d="M1691.25 335.022C1694.24 335.022 1696.89 336.916 1697.87 339.738C1698.84 342.56 1697.92 345.689 1695.57 347.531C1695.34 347.71 1695.22 347.99 1695.24 348.279C1695.26 348.568 1695.42 348.828 1695.67 348.975C1698.35 350.533 1700 353.399 1700 356.5V360.875C1700 361.358 1699.61 361.75 1699.13 361.75H1696.77C1696.32 361.747 1695.94 362.086 1695.9 362.532L1694.75 373.22C1694.7 373.666 1694.33 374.003 1693.88 374H1688.63C1688.18 374.003 1687.8 373.666 1687.75 373.22L1686.62 362.532C1686.57 362.086 1686.19 361.748 1685.74 361.75H1683.38C1682.89 361.75 1682.5 361.358 1682.5 360.875V356.5C1682.5 353.399 1684.15 350.533 1686.83 348.975C1687.08 348.828 1687.25 348.568 1687.27 348.279C1687.29 347.99 1687.16 347.71 1686.93 347.531C1684.58 345.689 1683.66 342.56 1684.64 339.738C1685.61 336.916 1688.27 335.022 1691.25 335.022ZM1689.07 340.697C1688.83 340.585 1688.55 340.586 1688.31 340.701C1688.08 340.816 1687.9 341.032 1687.84 341.289C1687.78 341.542 1687.75 341.802 1687.75 342.062C1687.75 343.995 1689.32 345.562 1691.25 345.562C1693.18 345.562 1694.75 343.995 1694.75 342.062C1694.75 341.925 1694.7 341.793 1694.6 341.698C1694.49 341.605 1694.36 341.56 1694.22 341.574C1693.91 341.607 1693.61 341.624 1693.3 341.625C1691.84 341.626 1690.4 341.309 1689.07 340.697Z" fill="white"/>
<rect x="1773" y="601" width="62" height="62" rx="2" fill="#2D2D2D"/>
<path d="M1818.88 624.125H1809.67C1808.94 624.126 1808.25 624.426 1807.75 624.956L1795.66 637.849C1795.5 638.025 1795.27 638.125 1795.03 638.125H1789.12C1785.74 638.125 1783 640.867 1783 644.25C1783 647.633 1785.74 650.375 1789.12 650.375H1799.21C1799.93 650.374 1800.63 650.074 1801.12 649.544L1813.21 636.652C1813.38 636.475 1813.61 636.375 1813.85 636.375H1818.88C1822.26 636.375 1825 633.633 1825 630.25C1825 626.867 1822.26 624.125 1818.88 624.125V624.125Z" fill="white"/>
<path d="M1788.92 630.047L1797.31 621.659C1797.65 621.318 1798.2 621.318 1798.55 621.659L1800.76 623.87C1801.01 624.12 1801.38 624.196 1801.71 624.06C1802.04 623.924 1802.25 623.604 1802.25 623.25V614.5C1802.25 614.017 1801.86 613.625 1801.37 613.625H1792.62C1792.27 613.624 1791.95 613.838 1791.81 614.165C1791.68 614.492 1791.75 614.869 1792.01 615.12L1794.22 617.328C1794.56 617.67 1794.56 618.224 1794.22 618.565L1785.83 626.953C1785 627.811 1785.01 629.175 1785.86 630.019C1786.7 630.864 1788.06 630.876 1788.92 630.047Z" fill="white"/>
</g>
<g clip-path="url(#clip1_1590_1084672)">
<path d="M1469.99 264.576C1470.23 240.139 1480.17 217.076 1492.41 212.809C1504.64 208.541 1514.38 224.975 1514.13 249.906C1513.89 274.343 1503.77 297.403 1491.54 301.424C1479.31 305.198 1469.75 289.013 1469.99 264.576ZM1469.99 264.576C1472.95 323.128 1472.36 383.357 1468.05 445.013M1572.84 1385.13C1585.56 1385.07 1596.19 1364.73 1596.43 1339.8C1596.67 1315.12 1586.44 1295.22 1573.71 1295.53C1561.17 1295.84 1550.72 1316.18 1550.48 1340.62C1550.24 1365.06 1560.29 1385.2 1572.84 1385.13ZM1572.84 1385.13C1597.07 1400.79 1613.52 1435.09 1622.02 1488.05M1662.4 1514.3C1696.81 1464.93 1734.93 1451.65 1777.11 1474.97M1748.36 1325.7C1762.8 1384.17 1787.5 1406.25 1822.99 1391.45M1672.55 1198.7C1673.26 1253.27 1689.58 1283.13 1720.25 1290.73M1573.7 1152.59C1575.93 1122.5 1583.35 1104.59 1596.47 1100.83M1620.65 1067.6C1619.47 1116.22 1630.52 1142.55 1652.72 1149.29M1496.41 1358.11C1515.56 1333.21 1534.46 1333.97 1553.62 1362.88M1503.01 1334.26C1512.66 1268.73 1530.96 1222.58 1557.74 1194.08M1615.45 1020.87C1606.09 983.703 1605.78 943.458 1616.64 899.424M1617.26 835.246C1607.9 798.821 1607.59 758.329 1618.45 714.048M1619.08 649.13C1609.71 613.198 1609.58 572.956 1620.27 527.685M1605.8 452.674C1590.78 453.198 1582.43 439.994 1580.93 412.57M1566.26 376.315C1536.66 349.967 1519.22 308.241 1513.96 249.903M1202.19 1178.6C1203.53 1040.86 1204.89 902.63 1206.41 765.143C1207.75 627.407 1209.28 489.427 1210.63 351.198M1202.19 1178.6C1241.98 1175.71 1283 1172.6 1324.56 1169.49C1367.53 1166.41 1411.73 1163.34 1457 1160.29C1458.45 1011.7 1460.09 862.114 1461.54 713.27C1463 564.427 1464.46 415.089 1466.09 266.001C1420.7 281.148 1376.38 296.063 1333.48 310.258M1202.19 1178.6C1201.47 1233.88 1200.93 1288.93 1200.39 1344.22M1202.19 1178.6C1241.98 1175.71 1283 1172.85 1324.73 1169.74M1202.19 1178.6C1204.95 1185.55 1207.53 1192.25 1210.12 1198.95M1202.19 1178.6C1205.09 1170.98 1207.82 1163.12 1210.55 1155.26C1225.08 1133.01 1239.61 1110.26 1254.33 1087.26M1210.63 351.198C1250.51 337.947 1291.64 324.221 1333.48 310.258M1210.63 351.198C1213.41 356.175 1216 361.397 1218.79 366.127C1232.75 383.363 1247.07 400.85 1261.21 418.335M1333.48 310.258C1331.9 453.668 1330.5 597.328 1329.1 740.247M1333.48 310.258C1349.9 312.222 1366.49 314.189 1383.08 315.909M1200.39 1344.22C1240.16 1343.56 1281.16 1342.92 1323.05 1342.04C1365.99 1341.42 1410.18 1340.58 1455.42 1339.99C1456 1280.26 1456.59 1220.52 1457.17 1160.54C1411.9 1163.84 1367.7 1166.66 1324.73 1169.74M1200.39 1344.22C1203.28 1338.09 1206 1331.46 1208.71 1325.08C1218.29 1303.5 1228.04 1281.67 1237.97 1259.84C1228.63 1239.46 1219.29 1219.08 1210.12 1198.95M1324.73 1169.74C1326.13 1026.82 1327.71 883.167 1329.1 740.247M1324.73 1169.74C1324.17 1227.26 1323.61 1284.52 1323.05 1341.79C1339.55 1335.12 1356.4 1328.45 1373.08 1321.28M1324.73 1169.74C1341.6 1161.1 1358.83 1151.72 1375.89 1142.58M1324.73 1169.74C1341.28 1176.15 1357.83 1182.07 1374.56 1188.48C1387.78 1209.41 1401.18 1230.83 1414.58 1252.01M1262.04 334.163C1260.49 474.612 1259.12 614.816 1257.75 754.773C1256.39 894.484 1254.84 1034.93 1253.47 1174.89M1262.04 334.163C1247.44 345.062 1232.85 355.715 1218.61 366.372C1215.56 389.04 1212.69 411.711 1209.81 434.382M1262.04 334.163C1269.23 338.957 1276.61 343.754 1284.16 348.306C1300.26 364.338 1316.36 380.37 1332.64 396.651M1253.47 1174.89C1239.05 1168.02 1224.8 1161.64 1210.55 1155.02C1208.27 1134.49 1205.66 1113.22 1203.21 1092.2M1253.47 1174.89C1260.97 1166.6 1268.3 1158.32 1275.8 1150.03M1329.1 740.247C1345.85 707.901 1362.78 675.311 1379.89 642.476C1387.97 611.487 1396.05 580.25 1404.13 549.014M1406.7 285.884C1405.26 432.753 1403.83 579.128 1402.22 725.747C1400.8 871.876 1399.18 1018.74 1397.76 1164.87M1406.7 285.884C1398.83 295.892 1390.95 306.147 1383.08 315.909M1406.7 285.884C1423.3 286.616 1439.9 287.596 1456.68 288.578M1203.21 1092.2C1243.01 1088.33 1283.86 1084.48 1325.78 1080.39M1203.21 1092.2C1205.83 1059.16 1208.63 1026.12 1211.25 992.583M1325.78 1080.39C1368.58 1076.32 1412.8 1072.02 1458.08 1067.73M1325.78 1080.39C1342.37 1100.87 1359.13 1121.61 1375.89 1142.58M1325.78 1080.39C1342.86 1050.77 1360.11 1020.9 1377.37 990.531M1201.56 1261.54C1241.33 1259.89 1282.17 1258.01 1323.89 1256.14C1366.67 1254.28 1410.86 1252.45 1456.11 1250.63C1453.33 1228.38 1450.54 1206.36 1447.76 1183.86M1204.98 929.293C1244.79 923.448 1285.67 917.124 1327.44 910.813M1204.98 929.293C1207.07 950.555 1209.16 971.569 1211.25 992.583M1204.98 929.293C1207.48 907.852 1209.99 886.656 1212.5 864.721C1227.26 855.552 1242.01 846.63 1256.95 837.217M1327.44 910.813C1370.44 904.52 1414.5 897.995 1459.8 891.241M1327.44 910.813C1343.97 937.22 1360.67 963.875 1377.37 990.531M1459.8 891.241C1457.09 861.824 1454.37 832.407 1451.65 802.99C1434.95 776.581 1418.77 750.426 1402.41 724.516M1459.8 891.241C1456.5 921.559 1453.2 951.877 1449.91 981.701M1206.59 763.912C1246.61 755.847 1287.33 747.546 1329.29 739.263C1372.14 730.499 1416.4 721.508 1461.73 712.285M1206.59 763.912C1209.03 785.425 1211.47 806.938 1213.74 828.202C1228.02 831.37 1242.48 834.293 1256.94 837.464C1239.77 840.426 1222.6 843.388 1205.79 846.356C1208.03 852.56 1210.26 858.764 1212.5 864.968C1226.98 883.939 1241.46 902.663 1256.12 921.883M1206.59 763.912C1209.69 736.06 1212.62 707.958 1215.55 679.61C1230.16 648.714 1244.78 617.325 1259.58 585.445M1208.21 598.777C1248.24 588.491 1288.99 577.968 1330.97 567.216M1208.21 598.777C1210.59 625.967 1212.98 652.911 1215.37 679.854C1229.44 704.25 1243.51 729.14 1257.76 753.786M1208.21 598.777C1211.08 576.106 1214.13 553.684 1217 531.013C1231.67 493.947 1246.35 456.633 1261.21 418.582M1330.97 567.216C1373.84 556.231 1418.13 545.018 1463.47 533.574M1330.97 567.216C1314.21 600.303 1297.64 632.652 1281.07 664.753M1330.97 567.216C1347.16 592.384 1363.53 617.06 1379.89 642.229C1387.4 669.74 1394.9 697.498 1402.4 725.503M1465.21 355.851C1420.02 369.765 1375.71 383.199 1332.82 396.407C1290.81 409.38 1249.87 421.875 1209.99 434.138C1212.33 466.512 1214.66 498.639 1217 530.766C1230.96 548.989 1245.27 566.97 1259.41 585.442M1413.71 1340.38C1414.29 1281.63 1414.86 1222.64 1415.44 1163.4M1413.71 1340.38C1399.99 1334.01 1386.45 1327.89 1373.08 1321.28M1413.71 1340.38C1424.56 1333.62 1435.58 1326.62 1446.43 1319.62M1238.97 1175.92C1238.42 1231.95 1237.88 1287.49 1237.16 1343.27C1249.41 1336.78 1261.85 1330.29 1274.11 1323.31M1468.03 447.234C1471.01 503.811 1470.44 562.312 1466.32 622.243M1466.32 621.749C1469.29 680.054 1468.71 739.048 1464.41 799.47M1464.57 801.694C1467.53 860.246 1466.95 919.734 1462.82 980.405M1462.83 979.418C1465.79 1037.97 1465.21 1096.96 1460.92 1156.65M1460.92 1156.89C1463.88 1215.94 1462.8 1253.45 1460.45 1313.16M1236.98 1343.27C1227.5 1337.21 1218.02 1331.14 1208.71 1324.84C1206.27 1303.82 1203.82 1282.55 1201.2 1261.53C1204.23 1240.84 1207.09 1219.89 1210.12 1198.95M1210.12 1198.95C1219.56 1191.44 1229.17 1183.92 1238.79 1176.16M1254.33 1087.26C1239.97 1055.46 1225.44 1023.89 1211.25 992.583M1254.33 1087.26C1262.02 1059.23 1269.72 1030.95 1277.42 1002.67M1254.33 1087.26C1261.54 1108.35 1268.58 1129.19 1275.8 1150.03M1211.25 992.583C1225.97 969.095 1241.04 945.613 1256.12 921.636M1256.12 921.636C1263.28 948.648 1270.26 975.658 1277.42 1002.67M1256.12 921.636C1263.65 892.367 1271.36 862.853 1279.07 833.339C1295.63 802.224 1312.37 770.866 1329.12 739.013M1257.76 753.539C1243.03 778.755 1228.3 803.477 1213.57 827.952C1210.86 834.085 1208.32 840.22 1205.61 846.106M1257.76 753.539C1265.47 724.272 1273.18 694.511 1281.07 664.753M1257.76 753.539C1264.75 780.055 1271.91 806.573 1278.89 833.336C1294.9 858.748 1311.08 884.656 1327.26 910.81C1310.52 941.922 1293.97 972.543 1277.42 1002.67M1259.41 585.442C1266.57 611.961 1273.73 638.232 1281.07 664.753M1259.41 585.442C1267.12 555.435 1274.83 525.674 1282.73 495.175C1299.3 462.827 1315.88 429.738 1332.64 396.651M1261.21 418.582C1268.38 444.36 1275.55 469.891 1282.73 495.422C1298.75 519.353 1314.77 543.283 1330.97 567.463M1261.21 418.582C1268.86 395.239 1276.51 371.896 1284.34 348.309C1300.72 335.954 1317.1 323.106 1333.66 310.26M1332.64 396.651C1348.84 420.09 1365.04 443.777 1381.6 467.468M1332.64 396.651C1349.33 369.982 1366.2 343.069 1383.08 315.909M1281.07 664.753C1297.09 689.424 1313.1 714.342 1329.11 739.26C1345.65 764.433 1362.19 790.099 1379.08 816.017M1277.42 1002.67C1293.42 1028.33 1309.43 1054.23 1325.6 1080.39M1275.8 1150.03C1291.99 1156.68 1308.19 1163.09 1324.55 1169.74M1275.8 1150.03C1292.28 1127.06 1308.76 1103.85 1325.61 1080.14M1238.79 1175.91C1250.92 1182.26 1263.06 1188.36 1275.36 1194.71C1291.42 1214.94 1307.48 1235.41 1323.71 1255.89C1307.06 1278.61 1290.58 1301.33 1274.11 1323.31M1237.97 1260.08C1250.37 1238.54 1262.78 1216.99 1275.36 1194.95C1291.7 1186.8 1308.04 1178.39 1324.55 1169.99M1322.87 1342.03C1306.5 1335.87 1290.3 1329.47 1274.11 1323.31M1274.11 1323.31C1262.12 1301.91 1249.96 1280.5 1237.98 1259.59M1414.58 1252.01C1400.74 1275.27 1386.91 1298.27 1373.08 1321.28M1414.58 1252.01C1425.57 1229.7 1436.75 1206.91 1447.76 1183.86M1414.58 1252.01C1425.14 1274.38 1435.87 1297 1446.43 1319.62M1373.08 1321.28C1356.69 1299.32 1340.11 1277.36 1323.89 1255.89C1340.71 1233.91 1357.54 1211.44 1374.55 1188.73C1388.24 1180.29 1401.75 1172.09 1415.44 1163.64C1426.15 1170.46 1437.04 1177.29 1447.76 1183.86M1398.83 1073.3C1391.18 1096.39 1383.53 1119.73 1375.89 1142.58M1398.83 1073.3C1391.85 1045.55 1384.7 1018.04 1377.37 990.531M1398.83 1073.3C1415.91 1042.93 1433 1012.56 1449.91 981.701M1398.83 1073.3C1415.22 1095.5 1431.79 1118.21 1448.35 1140.91M1375.89 1142.58C1383.24 1150.1 1390.58 1157.61 1397.93 1164.87M1377.37 990.531C1385.26 960.773 1392.98 930.272 1400.7 900.018C1393.55 872.018 1386.23 843.769 1379.08 816.017M1379.08 816.017C1386.8 785.515 1394.69 755.017 1402.41 724.516M1379.08 816.017C1361.8 847.861 1344.53 879.706 1327.44 911.06M1402.41 724.516C1419.34 691.925 1436.27 659.088 1453.39 625.513M1405.84 374.252C1397.76 405.488 1389.67 436.725 1381.6 467.468M1405.84 374.252C1422.72 346.105 1439.61 317.464 1456.68 288.578M1405.84 374.252C1422.21 398.434 1438.59 422.37 1455.13 447.049M1381.6 467.468C1364.48 501.043 1347.55 534.374 1330.79 567.214M1381.6 467.468C1389.11 494.485 1396.62 521.502 1403.95 548.764M1383.08 315.909C1390.67 335.274 1398.25 354.64 1405.84 374.005M1456.68 288.578C1459.46 311.084 1462.07 333.834 1465.03 356.095C1461.73 386.66 1458.43 416.731 1455.13 447.049M1456.68 288.578C1459.76 281.217 1462.83 273.608 1465.91 266.246M1455.13 447.049C1438.01 481.117 1421.07 515.189 1404.13 548.767C1420.49 574.183 1436.85 599.847 1453.39 625.513M1455.13 447.049C1457.85 475.972 1460.57 504.895 1463.3 533.819M1461.37 712.28C1458.07 742.598 1454.77 772.916 1451.48 802.987C1434.37 835.822 1417.44 868.165 1400.52 900.015C1416.87 926.913 1433.39 954.307 1449.91 981.701M1453.39 625.513C1456.69 595.195 1459.99 564.383 1463.3 533.572M1453.39 625.513C1456.11 654.436 1458.65 683.604 1461.55 712.283M1397.94 1164.63C1414.62 1156.97 1431.49 1149.06 1448.35 1140.91M1448.35 1140.91C1451.59 1116.52 1454.66 1091.87 1457.9 1067.48M1448.35 1140.91C1451.29 1147.62 1454.05 1154.08 1457 1160.54M1449.91 981.701C1452.63 1010.38 1455.18 1039.05 1457.9 1067.73M1447.76 1183.86C1450.83 1176.25 1453.91 1168.64 1456.99 1160.79M1446.43 1319.62C1449.66 1296.71 1452.89 1273.55 1456.12 1250.39M1446.43 1319.62C1449.37 1326.57 1452.3 1333.28 1455.24 1339.99M1698.95 1336.83C1699.2 1311.16 1710.36 1290.34 1724.14 1289.8C1738.11 1289.5 1749.21 1310.15 1748.96 1336.07C1748.71 1362.24 1737.19 1383.3 1723.23 1383.35C1709.62 1383.4 1698.7 1362.5 1698.95 1336.83ZM1624.51 1196.77C1624.75 1171.84 1635.56 1150.77 1648.82 1149.72C1662.08 1148.93 1672.67 1168.58 1672.42 1194.01C1672.17 1219.43 1661.19 1240.75 1647.93 1241.3C1634.67 1242.1 1624.26 1221.95 1624.51 1196.77ZM1574.81 1057.07C1575.05 1032.14 1585.68 1010.81 1598.6 1009.27C1611.69 1007.73 1622.28 1027.14 1622.03 1052.56C1621.78 1077.99 1610.97 1099.56 1597.71 1100.6C1584.8 1101.65 1574.56 1082.24 1574.81 1057.07ZM1576.6 873.419C1576.84 848.489 1587.49 825.93 1600.41 823.894C1613.51 821.861 1624.1 840.775 1623.85 866.447C1623.6 891.871 1612.78 913.934 1599.51 915.718C1586.6 917.507 1576.36 898.35 1576.6 873.419ZM1578.57 689.527C1578.82 664.35 1589.47 641.791 1602.39 639.014C1615.5 636.241 1626.1 654.415 1625.85 680.086C1625.6 705.51 1614.78 728.067 1601.5 730.591C1588.4 733.118 1578.33 714.705 1578.57 689.527ZM1580.37 505.633C1580.61 480.702 1591.27 457.402 1604.2 453.885C1617.31 450.371 1627.92 468.052 1627.67 493.723C1627.42 518.901 1616.59 542.444 1603.31 545.463C1590.2 548.73 1580.13 530.81 1580.37 505.633ZM1527.57 1152.91C1527.82 1127.98 1538.09 1107.15 1550.83 1106.1C1563.56 1105.05 1573.8 1124.45 1573.55 1149.63C1573.3 1174.8 1562.67 1195.64 1549.94 1196.44C1537.22 1197 1527.33 1177.6 1527.57 1152.91ZM1529.34 971.735C1529.59 946.805 1539.87 925.228 1552.61 923.683C1565.35 921.891 1575.59 940.801 1575.34 965.979C1575.1 990.909 1564.46 1012.48 1551.73 1014.03C1538.99 1015.32 1529.1 996.419 1529.34 971.735ZM1531.12 789.815C1531.36 765.131 1541.65 743.308 1554.39 741.023C1567.14 738.737 1577.39 756.907 1577.14 781.837C1576.9 806.768 1566.26 828.586 1553.52 830.872C1540.78 832.663 1530.88 814.499 1531.12 789.815ZM1532.89 608.636C1533.13 583.952 1543.43 561.388 1556.18 558.362C1568.93 555.336 1579.18 573.012 1578.94 597.943C1578.69 623.12 1568.05 645.679 1555.3 648.458C1542.55 650.99 1532.65 633.32 1532.89 608.636ZM1534.67 426.963C1534.91 402.279 1545.38 379.224 1557.96 375.455C1570.72 371.688 1580.98 389.117 1580.74 414.048C1580.49 439.225 1569.84 462.278 1557.08 465.551C1544.33 469.317 1534.42 451.893 1534.67 426.963ZM1459.26 1326.96C1459.49 1302.77 1469.41 1282.67 1481.6 1282.35C1493.8 1282.04 1503.51 1301.43 1503.26 1326.12C1503.03 1350.55 1492.94 1370.4 1480.74 1370.48C1468.55 1370.55 1459.02 1351.15 1459.26 1326.96ZM1460.91 1157.39C1461.15 1132.95 1471.07 1112.6 1483.27 1111.54C1495.48 1110.48 1505.36 1129.64 1505.12 1154.32C1504.7 1179 1494.61 1199.35 1482.4 1200.4C1470.38 1201.22 1460.67 1181.82 1460.91 1157.39ZM1462.82 979.912C1463.06 955.722 1472.99 934.387 1485.2 932.834C1497.4 931.282 1507.12 949.69 1506.87 974.621C1506.64 999.058 1496.53 1020.14 1484.33 1021.7C1472.12 1022.75 1462.59 1004.1 1462.82 979.912ZM1464.57 801.447C1464.8 777.257 1474.73 755.922 1486.95 753.629C1499.16 751.336 1508.88 769.251 1508.64 793.688C1508.4 818.125 1498.3 839.705 1486.09 841.504C1473.88 843.55 1464.15 825.635 1464.57 801.447ZM1466.3 623.724C1466.54 599.534 1476.47 577.705 1488.69 574.671C1500.92 571.391 1510.64 589.306 1510.4 613.496C1510.16 638.18 1499.87 660.251 1487.83 662.793C1475.61 665.826 1466.07 648.161 1466.3 623.724ZM1468.04 446C1468.28 421.81 1478.22 398.994 1490.45 395.467C1502.67 391.94 1512.4 409.114 1512.16 433.551C1511.92 458.235 1501.8 480.802 1489.58 484.082C1477.53 487.118 1467.81 469.943 1468.04 446ZM1621.91 1480.64C1622.16 1455.46 1632.96 1435.37 1646.21 1435.56C1659.46 1435.76 1670.04 1456.4 1669.79 1481.82C1669.54 1507.49 1658.56 1527.58 1645.31 1527.14C1632.06 1526.7 1621.67 1505.82 1621.91 1480.64ZM1208.01 1324.83C1208.02 1323.59 1208.38 1322.86 1208.91 1322.62C1209.44 1322.63 1209.78 1323.62 1209.77 1324.61C1209.76 1325.59 1209.4 1326.58 1208.87 1326.82C1208.34 1327.05 1207.99 1326.06 1208.01 1324.83ZM1273.22 1323.54C1273.23 1322.31 1273.77 1321.33 1274.13 1321.34C1274.66 1321.34 1275.18 1322.34 1275.17 1323.33C1275.16 1324.56 1274.62 1325.54 1274.09 1325.53C1273.56 1325.52 1273.21 1324.53 1273.22 1323.54ZM1372.2 1321.27C1372.21 1320.03 1372.75 1319.05 1373.1 1319.06C1373.81 1319.07 1374.15 1320.06 1374.14 1321.29C1374.13 1322.53 1373.77 1323.51 1373.06 1323.5C1372.71 1323.5 1372.19 1322.5 1372.2 1321.27ZM1445.37 1319.6C1445.38 1318.37 1445.92 1317.39 1446.45 1317.4C1446.98 1317.41 1447.5 1318.4 1447.49 1319.64C1447.48 1320.87 1446.94 1321.85 1446.41 1321.84C1445.88 1321.83 1445.36 1320.84 1445.37 1319.6ZM1209.24 1198.94C1209.25 1197.71 1209.61 1196.72 1210.14 1196.73C1210.67 1196.74 1211.02 1197.48 1211 1198.72C1210.99 1199.95 1210.63 1200.94 1210.1 1200.93C1209.57 1200.92 1209.22 1200.17 1209.24 1198.94ZM1274.48 1194.94C1274.49 1193.71 1275.03 1192.73 1275.38 1192.73C1275.91 1192.74 1276.44 1193.49 1276.42 1194.72C1276.41 1195.96 1275.87 1196.94 1275.34 1196.93C1274.99 1196.92 1274.47 1195.93 1274.48 1194.94ZM1373.49 1188.71C1373.5 1187.48 1374.05 1186.25 1374.58 1186.26C1375.11 1186.27 1375.62 1187.51 1375.62 1188.5C1375.6 1189.73 1375.06 1190.71 1374.53 1190.7C1374 1190.7 1373.48 1189.95 1373.49 1188.71ZM1446.7 1183.84C1446.71 1182.61 1447.25 1181.63 1447.78 1181.64C1448.31 1181.64 1448.83 1182.64 1448.82 1183.87C1448.8 1185.11 1448.26 1186.09 1447.73 1186.08C1447.2 1186.07 1446.68 1185.08 1446.7 1183.84ZM1209.66 1155.25C1209.67 1154.02 1210.04 1153.03 1210.57 1153.04C1211.1 1153.05 1211.44 1153.79 1211.43 1155.03C1211.42 1156.26 1211.06 1157.24 1210.53 1157.24C1210 1157.23 1209.65 1156.48 1209.66 1155.25ZM1274.91 1150.26C1274.93 1149.03 1275.47 1148.05 1275.82 1148.06C1276.35 1148.06 1276.87 1148.81 1276.86 1150.05C1276.85 1151.28 1276.31 1152.26 1275.78 1152.25C1275.43 1152.25 1274.9 1151.5 1274.91 1150.26ZM1374.83 1142.57C1374.84 1141.33 1375.38 1140.35 1375.91 1140.36C1376.44 1140.37 1376.96 1141.36 1376.95 1142.35C1376.94 1143.59 1376.4 1144.57 1375.87 1144.56C1375.16 1144.8 1374.81 1143.8 1374.83 1142.57ZM1447.29 1141.14C1447.3 1139.91 1447.84 1138.93 1448.37 1138.94C1448.9 1138.94 1449.42 1139.94 1449.41 1141.17C1449.4 1142.41 1448.86 1143.39 1448.33 1143.38C1447.8 1143.37 1447.28 1142.38 1447.29 1141.14ZM1210.19 992.815C1210.2 991.827 1210.56 990.598 1211.09 990.606C1211.62 990.614 1211.97 991.359 1211.96 992.593C1211.95 993.581 1211.59 994.563 1211.06 994.555C1210.7 994.55 1210.18 993.802 1210.19 992.815ZM1276.53 1002.9C1276.54 1001.67 1276.9 1000.93 1277.43 1000.94C1277.96 1000.95 1278.31 1001.45 1278.3 1002.68C1278.29 1003.92 1277.92 1004.9 1277.39 1004.89C1276.86 1004.88 1276.52 1003.89 1276.53 1002.9ZM1376.31 990.516C1376.32 989.282 1376.86 988.549 1377.39 988.557C1377.92 988.564 1378.45 989.065 1378.44 990.3C1378.42 991.534 1377.88 992.514 1377.35 992.506C1376.64 992.743 1376.3 991.75 1376.31 990.516ZM1448.85 981.685C1448.86 980.451 1449.4 979.718 1449.93 979.479C1450.46 979.487 1450.98 979.988 1450.97 981.222C1450.96 982.457 1450.42 983.436 1449.89 983.675C1449.36 983.915 1448.84 982.92 1448.85 981.685ZM1211.61 864.955C1211.63 863.721 1211.99 862.739 1212.52 862.746C1213.05 862.754 1213.4 863.499 1213.38 864.734C1213.37 865.968 1213.01 866.95 1212.48 866.942C1211.95 866.935 1211.6 866.189 1211.61 864.955ZM1212.86 828.189C1212.87 827.201 1213.23 826.219 1213.76 826.227C1214.29 826.234 1214.64 826.98 1214.63 827.967C1214.61 829.202 1214.25 830.184 1213.72 830.176C1213.19 830.415 1212.85 829.423 1212.86 828.189ZM1278.01 833.571C1278.02 832.583 1278.56 831.604 1278.91 831.609C1279.44 831.616 1279.79 832.362 1279.78 833.349C1279.77 834.583 1279.4 835.566 1278.87 835.558C1278.52 835.553 1278 834.558 1278.01 833.571ZM1378.02 816.001C1378.03 815.014 1378.39 814.032 1379.1 813.795C1379.63 813.803 1379.98 814.548 1379.97 815.536C1379.96 816.523 1379.59 817.505 1378.88 817.742C1378.35 817.981 1378.01 816.989 1378.02 816.001ZM1450.59 803.221C1450.6 801.987 1451.14 801.254 1451.67 801.015C1452.38 801.025 1452.73 801.771 1452.72 802.758C1452.7 803.992 1452.34 804.975 1451.63 805.211C1450.92 805.201 1450.58 804.209 1450.59 803.221ZM1214.48 679.841C1214.5 678.607 1215.04 677.628 1215.39 677.633C1215.92 677.393 1216.44 678.388 1216.43 679.376C1216.42 680.61 1215.88 681.59 1215.35 681.582C1214.99 681.824 1214.47 681.076 1214.48 679.841ZM1280.01 664.985C1280.02 663.751 1280.38 662.769 1280.92 662.529C1281.45 662.29 1281.79 663.283 1281.78 664.517C1281.77 665.751 1281.41 666.733 1280.87 666.972C1280.52 666.967 1280 666.219 1280.01 664.985ZM1378.83 642.461C1378.84 641.227 1379.38 640.247 1379.91 640.008C1380.45 639.769 1380.97 640.764 1380.95 641.998C1380.94 643.232 1380.4 644.212 1379.87 644.451C1379.34 644.443 1378.82 643.695 1378.83 642.461ZM1452.32 625.744C1452.34 624.51 1452.88 623.284 1453.41 623.291C1453.94 623.052 1454.46 624.047 1454.45 625.281C1454.44 626.515 1453.9 627.742 1453.37 627.734C1452.66 627.971 1452.31 626.979 1452.32 625.744ZM1215.94 531.245C1215.95 530.01 1216.49 529.031 1216.84 529.036C1217.37 528.797 1217.72 529.789 1217.71 530.777C1217.7 532.011 1217.33 532.993 1216.8 533.232C1216.45 533.227 1215.93 532.232 1215.94 531.245ZM1281.67 495.407C1281.68 494.173 1282.22 493.193 1282.57 492.951C1283.11 492.712 1283.63 493.707 1283.62 494.694C1283.6 495.929 1283.06 496.908 1282.53 497.148C1282.17 497.636 1281.65 496.641 1281.67 495.407ZM1380.54 467.7C1380.55 466.465 1381.09 465.486 1381.62 465.246C1382.15 465.007 1382.67 466.002 1382.66 466.989C1382.65 468.224 1382.11 469.203 1381.58 469.443C1381.05 469.682 1380.52 468.934 1380.54 467.7ZM1454.07 447.28C1454.08 446.046 1454.62 444.819 1455.15 444.827C1455.69 444.588 1456.21 445.583 1456.19 446.817C1456.18 448.051 1455.64 449.278 1455.11 449.27C1454.58 449.263 1454.06 448.514 1454.07 447.28ZM1217.72 366.606C1217.73 365.619 1218.27 364.392 1218.63 364.15C1219.16 363.911 1219.51 364.657 1219.49 365.891C1219.49 366.878 1218.95 367.858 1218.59 368.1C1218.23 368.341 1217.71 367.593 1217.72 366.606ZM1283.28 348.541C1283.29 347.553 1283.65 346.571 1284.18 346.332C1284.72 346.093 1285.06 346.838 1285.05 347.826C1285.04 349.06 1284.68 350.042 1284.14 350.281C1283.61 350.52 1283.27 349.528 1283.28 348.541ZM1382.19 316.39C1382.2 315.403 1382.74 314.176 1383.1 314.181C1383.81 313.944 1384.15 314.69 1384.14 315.678C1384.13 316.912 1383.59 318.138 1383.06 318.131C1382.7 318.372 1382.18 317.377 1382.19 316.39ZM1455.62 288.81C1455.63 287.576 1456.17 286.349 1456.7 286.11C1457.24 285.871 1457.76 286.866 1457.74 288.1C1457.73 289.334 1457.19 290.314 1456.66 290.306C1456.13 290.792 1455.6 290.044 1455.62 288.81Z" stroke="#939393" stroke-width="0.355947" stroke-miterlimit="22.9256"/>
</g>
<rect x="1469" y="461" width="55" height="674" fill="#D9D9D9"/>
<rect x="1466" y="1326" width="45" height="291" transform="rotate(-90 1466 1326)" fill="#D9D9D9"/>
<rect x="1466" y="1326" width="111" height="58" transform="rotate(-90 1466 1326)" fill="#D9D9D9"/>
<path d="M1729.21 1280L1687 1280L1687 1216L1744.73 1216L1729.21 1280Z" fill="#DDE5ED" stroke="#8FA9C0" stroke-width="2"/>
<path d="M1579 1280L1525 1280L1525 1216L1579 1216L1579 1280Z" fill="#DDE5ED" stroke="#8FA9C0" stroke-width="2"/>
<path d="M1633 1280L1579 1280L1579 1216L1633 1216L1633 1280Z" fill="#DDE5ED" stroke="#8FA9C0" stroke-width="2"/>
<path d="M1687 1280L1633 1280L1633 1216L1687 1216L1687 1280Z" fill="#DDE5ED" stroke="#8FA9C0" stroke-width="2"/>
<path d="M1608 529L1525 529L1525 462L1608 462L1608 529Z" fill="#DDE5ED" stroke="#8FA9C0" stroke-width="2"/>
<path d="M1608 596L1525 596L1525 529L1608 529L1608 596Z" fill="#DDE5ED" stroke="#8FA9C0" stroke-width="2"/>
<path d="M1608 663L1525 663L1525 596L1608 596L1608 663Z" fill="#DDE5ED" stroke="#8FA9C0" stroke-width="2"/>
<path d="M1608 730L1525 730L1525 663L1608 663L1608 730Z" fill="#DDE5ED" stroke="#8FA9C0" stroke-width="2"/>
<path d="M1608 799L1525 799L1525 730L1608 730L1608 799Z" fill="#DDE5ED" stroke="#8FA9C0" stroke-width="2"/>
<path d="M1608 1000L1525 1000L1525 933L1608 933L1608 1000Z" fill="#DDE5ED" stroke="#8FA9C0" stroke-width="2"/>
<path d="M1608 1067L1525 1067L1525 1000L1608 1000L1608 1067Z" fill="#DDE5ED" stroke="#8FA9C0" stroke-width="2"/>
<path d="M1608 1134L1525 1134L1525 1067L1608 1067L1608 1134Z" fill="#DDE5ED" stroke="#8FA9C0" stroke-width="2"/>
<path d="M1557.69 667.627H1552.44C1551.95 667.627 1551.56 668.003 1551.56 668.467V669.307C1551.56 670.235 1552.34 670.987 1553.31 670.987H1556.81C1557.78 670.987 1558.56 670.235 1558.56 669.307V668.467C1558.56 668.003 1558.17 667.627 1557.69 667.627Z" fill="white"/>
<path d="M1582.2 667.627H1576.95C1576.46 667.627 1576.07 668.003 1576.07 668.467V669.307C1576.07 670.235 1576.85 670.987 1577.82 670.987H1581.32C1582.29 670.987 1583.07 670.235 1583.07 669.307V668.467C1583.07 668.003 1582.68 667.627 1582.2 667.627Z" fill="white"/>
<path d="M1575.69 647.467C1576.99 647.469 1578.15 648.258 1578.58 649.436L1581.08 656.294C1581.11 656.362 1581.15 656.424 1581.21 656.472L1584.07 658.867C1584.54 659.267 1584.81 659.844 1584.81 660.45V663.847C1584.81 665.006 1583.83 665.947 1582.62 665.947H1552C1550.79 665.945 1549.82 665.005 1549.81 663.847V660.448C1549.82 659.844 1550.09 659.27 1550.56 658.871L1553.41 656.47C1553.47 656.423 1553.51 656.362 1553.54 656.294L1556.04 649.436C1556.47 648.257 1557.63 647.468 1558.93 647.467H1575.69ZM1558.93 649.986C1558.75 649.987 1558.58 650.1 1558.52 650.269L1556.68 655.309C1556.64 655.437 1556.66 655.58 1556.74 655.69C1556.82 655.799 1556.95 655.865 1557.09 655.867H1577.54C1577.68 655.866 1577.81 655.8 1577.89 655.69C1577.97 655.581 1577.99 655.438 1577.95 655.309L1576.11 650.269C1576.05 650.1 1575.89 649.987 1575.7 649.986H1558.93Z" fill="white"/>
<path d="M1553.56 630.732C1557.3 630.06 1561.01 632.037 1562.4 635.44C1562.46 635.601 1562.63 635.707 1562.81 635.707H1581.31C1582.76 635.707 1583.94 636.835 1583.94 638.227C1583.94 639.619 1582.76 640.747 1581.31 640.747H1580.88C1580.63 640.747 1580.44 640.935 1580.44 641.166V641.586C1580.44 642.978 1579.26 644.107 1577.81 644.107C1576.36 644.107 1575.19 642.978 1575.19 641.586V641.166C1575.19 641.055 1575.14 640.947 1575.06 640.869C1574.98 640.79 1574.87 640.746 1574.75 640.747H1573C1572.76 640.747 1572.56 640.935 1572.56 641.166V641.586C1572.56 642.978 1571.39 644.107 1569.94 644.107C1568.49 644.107 1567.31 642.978 1567.31 641.586V641.166C1567.31 641.055 1567.27 640.947 1567.19 640.869C1567.1 640.79 1566.99 640.746 1566.88 640.747H1562.79C1562.61 640.747 1562.45 640.853 1562.38 641.014C1560.98 644.409 1557.26 646.366 1553.52 645.675C1549.78 644.984 1547.09 641.84 1547.1 638.187C1547.11 634.534 1549.82 631.404 1553.56 630.732ZM1555.06 634.894C1553.13 634.894 1551.56 636.398 1551.56 638.253C1551.56 639.144 1551.93 639.999 1552.59 640.629C1553.24 641.259 1554.13 641.614 1555.06 641.614C1556.99 641.614 1558.56 640.109 1558.56 638.253C1558.56 636.398 1556.99 634.894 1555.06 634.894Z" fill="white"/>
<path d="M1557.69 1040.63H1552.44C1551.95 1040.63 1551.56 1041 1551.56 1041.47V1042.31C1551.56 1043.23 1552.34 1043.99 1553.31 1043.99H1556.81C1557.78 1043.99 1558.56 1043.23 1558.56 1042.31V1041.47C1558.56 1041 1558.17 1040.63 1557.69 1040.63Z" fill="white"/>
<path d="M1582.2 1040.63H1576.95C1576.46 1040.63 1576.07 1041 1576.07 1041.47V1042.31C1576.07 1043.23 1576.85 1043.99 1577.82 1043.99H1581.32C1582.29 1043.99 1583.07 1043.23 1583.07 1042.31V1041.47C1583.07 1041 1582.68 1040.63 1582.2 1040.63Z" fill="white"/>
<path d="M1575.69 1020.47C1576.99 1020.47 1578.15 1021.26 1578.58 1022.44L1581.08 1029.29C1581.11 1029.36 1581.15 1029.42 1581.21 1029.47L1584.07 1031.87C1584.54 1032.27 1584.81 1032.84 1584.81 1033.45V1036.85C1584.81 1038.01 1583.83 1038.95 1582.62 1038.95H1552C1550.79 1038.95 1549.82 1038.01 1549.81 1036.85V1033.45C1549.82 1032.84 1550.09 1032.27 1550.56 1031.87L1553.41 1029.47C1553.47 1029.42 1553.51 1029.36 1553.54 1029.29L1556.04 1022.44C1556.47 1021.26 1557.63 1020.47 1558.93 1020.47H1575.69ZM1558.93 1022.99C1558.75 1022.99 1558.58 1023.1 1558.52 1023.27L1556.68 1028.31C1556.64 1028.44 1556.66 1028.58 1556.74 1028.69C1556.82 1028.8 1556.95 1028.87 1557.09 1028.87H1577.54C1577.68 1028.87 1577.81 1028.8 1577.89 1028.69C1577.97 1028.58 1577.99 1028.44 1577.95 1028.31L1576.11 1023.27C1576.05 1023.1 1575.89 1022.99 1575.7 1022.99H1558.93Z" fill="white"/>
<path d="M1553.56 1003.73C1557.3 1003.06 1561.01 1005.04 1562.4 1008.44C1562.46 1008.6 1562.63 1008.71 1562.81 1008.71H1581.31C1582.76 1008.71 1583.94 1009.84 1583.94 1011.23C1583.94 1012.62 1582.76 1013.75 1581.31 1013.75H1580.88C1580.63 1013.75 1580.44 1013.93 1580.44 1014.17V1014.59C1580.44 1015.98 1579.26 1017.11 1577.81 1017.11C1576.36 1017.11 1575.19 1015.98 1575.19 1014.59V1014.17C1575.19 1014.05 1575.14 1013.95 1575.06 1013.87C1574.98 1013.79 1574.87 1013.75 1574.75 1013.75H1573C1572.76 1013.75 1572.56 1013.93 1572.56 1014.17V1014.59C1572.56 1015.98 1571.39 1017.11 1569.94 1017.11C1568.49 1017.11 1567.31 1015.98 1567.31 1014.59V1014.17C1567.31 1014.05 1567.27 1013.95 1567.19 1013.87C1567.1 1013.79 1566.99 1013.75 1566.88 1013.75H1562.79C1562.61 1013.75 1562.45 1013.85 1562.38 1014.01C1560.98 1017.41 1557.26 1019.37 1553.52 1018.68C1549.78 1017.98 1547.09 1014.84 1547.1 1011.19C1547.11 1007.53 1549.82 1004.4 1553.56 1003.73ZM1555.06 1007.89C1553.13 1007.89 1551.56 1009.4 1551.56 1011.25C1551.56 1012.14 1551.93 1013 1552.59 1013.63C1553.24 1014.26 1554.13 1014.61 1555.06 1014.61C1556.99 1014.61 1558.56 1013.11 1558.56 1011.25C1558.56 1009.4 1556.99 1007.89 1555.06 1007.89Z" fill="white"/>
<path d="M1633.69 1243.63H1628.44C1627.95 1243.63 1627.56 1244 1627.56 1244.47V1245.31C1627.56 1246.23 1628.34 1246.99 1629.31 1246.99H1632.81C1633.78 1246.99 1634.56 1246.23 1634.56 1245.31V1244.47C1634.56 1244 1634.17 1243.63 1633.69 1243.63Z" fill="white"/>
<path d="M1658.2 1243.63H1652.95C1652.46 1243.63 1652.07 1244 1652.07 1244.47V1245.31C1652.07 1246.23 1652.85 1246.99 1653.82 1246.99H1657.32C1658.29 1246.99 1659.07 1246.23 1659.07 1245.31V1244.47C1659.07 1244 1658.68 1243.63 1658.2 1243.63Z" fill="white"/>
<path d="M1651.69 1223.47C1652.99 1223.47 1654.15 1224.26 1654.58 1225.44L1657.08 1232.29C1657.11 1232.36 1657.15 1232.42 1657.21 1232.47L1660.07 1234.87C1660.54 1235.27 1660.81 1235.84 1660.81 1236.45V1239.85C1660.81 1241.01 1659.83 1241.95 1658.62 1241.95H1628C1626.79 1241.95 1625.82 1241.01 1625.81 1239.85V1236.45C1625.82 1235.84 1626.09 1235.27 1626.56 1234.87L1629.41 1232.47C1629.47 1232.42 1629.51 1232.36 1629.54 1232.29L1632.04 1225.44C1632.47 1224.26 1633.63 1223.47 1634.93 1223.47H1651.69ZM1634.93 1225.99C1634.75 1225.99 1634.58 1226.1 1634.52 1226.27L1632.68 1231.31C1632.64 1231.44 1632.66 1231.58 1632.74 1231.69C1632.82 1231.8 1632.95 1231.87 1633.09 1231.87H1653.54C1653.68 1231.87 1653.81 1231.8 1653.89 1231.69C1653.97 1231.58 1653.99 1231.44 1653.95 1231.31L1652.11 1226.27C1652.05 1226.1 1651.89 1225.99 1651.7 1225.99H1634.93Z" fill="white"/>
<path d="M1629.56 1206.73C1633.3 1206.06 1637.01 1208.04 1638.4 1211.44C1638.46 1211.6 1638.63 1211.71 1638.81 1211.71H1657.31C1658.76 1211.71 1659.94 1212.84 1659.94 1214.23C1659.94 1215.62 1658.76 1216.75 1657.31 1216.75H1656.88C1656.63 1216.75 1656.44 1216.93 1656.44 1217.17V1217.59C1656.44 1218.98 1655.26 1220.11 1653.81 1220.11C1652.36 1220.11 1651.19 1218.98 1651.19 1217.59V1217.17C1651.19 1217.05 1651.14 1216.95 1651.06 1216.87C1650.98 1216.79 1650.87 1216.75 1650.75 1216.75H1649C1648.76 1216.75 1648.56 1216.93 1648.56 1217.17V1217.59C1648.56 1218.98 1647.39 1220.11 1645.94 1220.11C1644.49 1220.11 1643.31 1218.98 1643.31 1217.59V1217.17C1643.31 1217.05 1643.27 1216.95 1643.19 1216.87C1643.1 1216.79 1642.99 1216.75 1642.88 1216.75H1638.79C1638.61 1216.75 1638.45 1216.85 1638.38 1217.01C1636.98 1220.41 1633.26 1222.37 1629.52 1221.68C1625.78 1220.98 1623.09 1217.84 1623.1 1214.19C1623.11 1210.53 1625.82 1207.4 1629.56 1206.73ZM1631.06 1210.89C1629.13 1210.89 1627.56 1212.4 1627.56 1214.25C1627.56 1215.14 1627.93 1216 1628.59 1216.63C1629.24 1217.26 1630.13 1217.61 1631.06 1217.61C1632.99 1217.61 1634.56 1216.11 1634.56 1214.25C1634.56 1212.4 1632.99 1210.89 1631.06 1210.89Z" fill="white"/>
<path d="M1429.44 1160.56H1400.56C1399.87 1160.56 1399.2 1160.84 1398.71 1161.33C1398.22 1161.82 1397.94 1162.49 1397.94 1163.19V1188.13C1397.94 1188.35 1397.99 1188.57 1398.1 1188.76C1398.21 1188.96 1398.37 1189.12 1398.56 1189.24C1398.75 1189.36 1398.97 1189.43 1399.19 1189.44C1399.41 1189.45 1399.64 1189.4 1399.84 1189.3L1404.5 1186.97L1409.16 1189.3C1409.35 1189.39 1409.55 1189.44 1409.75 1189.44C1409.95 1189.44 1410.15 1189.39 1410.34 1189.3L1415 1186.97L1419.66 1189.3C1419.85 1189.39 1420.05 1189.44 1420.25 1189.44C1420.45 1189.44 1420.65 1189.39 1420.84 1189.3L1425.5 1186.97L1430.16 1189.3C1430.36 1189.4 1430.59 1189.45 1430.81 1189.44C1431.03 1189.43 1431.25 1189.36 1431.44 1189.24C1431.63 1189.12 1431.79 1188.96 1431.9 1188.76C1432.01 1188.57 1432.06 1188.35 1432.06 1188.13V1163.19C1432.06 1162.49 1431.78 1161.82 1431.29 1161.33C1430.8 1160.84 1430.13 1160.56 1429.44 1160.56ZM1423.53 1177.63H1406.47C1406.12 1177.63 1405.79 1177.49 1405.54 1177.24C1405.29 1176.99 1405.16 1176.66 1405.16 1176.31C1405.16 1175.96 1405.29 1175.63 1405.54 1175.38C1405.79 1175.14 1406.12 1175 1406.47 1175H1423.53C1423.88 1175 1424.21 1175.14 1424.46 1175.38C1424.71 1175.63 1424.84 1175.96 1424.84 1176.31C1424.84 1176.66 1424.71 1176.99 1424.46 1177.24C1424.21 1177.49 1423.88 1177.63 1423.53 1177.63ZM1423.53 1172.38H1406.47C1406.12 1172.38 1405.79 1172.24 1405.54 1171.99C1405.29 1171.74 1405.16 1171.41 1405.16 1171.06C1405.16 1170.71 1405.29 1170.38 1405.54 1170.13C1405.79 1169.89 1406.12 1169.75 1406.47 1169.75H1423.53C1423.88 1169.75 1424.21 1169.89 1424.46 1170.13C1424.71 1170.38 1424.84 1170.71 1424.84 1171.06C1424.84 1171.41 1424.71 1171.74 1424.46 1171.99C1424.21 1172.24 1423.88 1172.38 1423.53 1172.38Z" fill="white"/>
<path d="M1525.44 1160.56H1496.56C1495.87 1160.56 1495.2 1160.84 1494.71 1161.33C1494.22 1161.82 1493.94 1162.49 1493.94 1163.19V1188.13C1493.94 1188.35 1493.99 1188.57 1494.1 1188.76C1494.21 1188.96 1494.37 1189.12 1494.56 1189.24C1494.75 1189.36 1494.97 1189.43 1495.19 1189.44C1495.41 1189.45 1495.64 1189.4 1495.84 1189.3L1500.5 1186.97L1505.16 1189.3C1505.35 1189.39 1505.55 1189.44 1505.75 1189.44C1505.95 1189.44 1506.15 1189.39 1506.34 1189.3L1511 1186.97L1515.66 1189.3C1515.85 1189.39 1516.05 1189.44 1516.25 1189.44C1516.45 1189.44 1516.65 1189.39 1516.84 1189.3L1521.5 1186.97L1526.16 1189.3C1526.36 1189.4 1526.59 1189.45 1526.81 1189.44C1527.03 1189.43 1527.25 1189.36 1527.44 1189.24C1527.63 1189.12 1527.79 1188.96 1527.9 1188.76C1528.01 1188.57 1528.06 1188.35 1528.06 1188.13V1163.19C1528.06 1162.49 1527.78 1161.82 1527.29 1161.33C1526.8 1160.84 1526.13 1160.56 1525.44 1160.56ZM1519.53 1177.63H1502.47C1502.12 1177.63 1501.79 1177.49 1501.54 1177.24C1501.29 1176.99 1501.16 1176.66 1501.16 1176.31C1501.16 1175.96 1501.29 1175.63 1501.54 1175.38C1501.79 1175.14 1502.12 1175 1502.47 1175H1519.53C1519.88 1175 1520.21 1175.14 1520.46 1175.38C1520.71 1175.63 1520.84 1175.96 1520.84 1176.31C1520.84 1176.66 1520.71 1176.99 1520.46 1177.24C1520.21 1177.49 1519.88 1177.63 1519.53 1177.63ZM1519.53 1172.38H1502.47C1502.12 1172.38 1501.79 1172.24 1501.54 1171.99C1501.29 1171.74 1501.16 1171.41 1501.16 1171.06C1501.16 1170.71 1501.29 1170.38 1501.54 1170.13C1501.79 1169.89 1502.12 1169.75 1502.47 1169.75H1519.53C1519.88 1169.75 1520.21 1169.89 1520.46 1170.13C1520.71 1170.38 1520.84 1170.71 1520.84 1171.06C1520.84 1171.41 1520.71 1171.74 1520.46 1171.99C1520.21 1172.24 1519.88 1172.38 1519.53 1172.38Z" fill="white"/>
<rect x="1524" y="800" width="85" height="132" fill="#F3F8FC"/>
<path d="M1585.15 881.218H1546.75C1545.78 881.218 1545 882.001 1545 882.968C1545 883.934 1545.78 884.718 1546.75 884.718H1585.15C1586.11 884.718 1586.9 883.934 1586.9 882.968C1586.9 882.001 1586.11 881.218 1585.15 881.218Z" fill="white"/>
<path d="M1573.79 853.281C1574.76 853.281 1575.54 854.065 1575.54 855.031V855.906C1575.54 856.389 1575.94 856.781 1576.42 856.781H1578.27C1583.09 856.781 1587 860.689 1587 865.509C1587 870.329 1583.09 874.235 1578.27 874.235H1571.93C1571.69 874.236 1571.47 874.33 1571.3 874.496C1568.98 876.892 1565.85 878.343 1562.51 878.57C1558.66 878.828 1554.86 877.477 1552.04 874.836C1549.22 872.195 1547.61 868.501 1547.61 864.635V855.031C1547.61 854.065 1548.4 853.281 1549.36 853.281H1573.79ZM1576.42 860.269C1575.94 860.269 1575.55 860.661 1575.55 861.144V864.157C1575.55 866.004 1575.2 867.834 1574.52 869.553C1574.42 869.821 1574.45 870.124 1574.62 870.362C1574.78 870.6 1575.05 870.743 1575.33 870.744H1578.27C1581.17 870.744 1583.51 868.4 1583.51 865.509C1583.51 862.617 1581.17 860.273 1578.27 860.272L1576.42 860.269Z" fill="white"/>
<path d="M1896.19 1348.37V1351C1896.19 1352.45 1897.36 1353.62 1898.81 1353.62C1900.26 1353.62 1901.44 1352.45 1901.44 1351V1348.37" stroke="white" stroke-width="2" stroke-linecap="round" stroke-linejoin="round"/>
<path d="M1919.81 1348.37V1351C1919.81 1352.45 1918.64 1353.62 1917.19 1353.62C1915.74 1353.62 1914.56 1352.45 1914.56 1351V1348.37" stroke="white" stroke-width="2" stroke-linecap="round" stroke-linejoin="round"/>
<path fill-rule="evenodd" clip-rule="evenodd" d="M1922.44 1345.75C1922.44 1347.2 1921.26 1348.37 1919.81 1348.37H1896.19C1894.74 1348.37 1893.56 1347.2 1893.56 1345.75V1322.12C1893.56 1317.77 1897.09 1314.25 1901.44 1314.25H1914.56C1916.65 1314.25 1918.65 1315.08 1920.13 1316.55C1921.61 1318.03 1922.44 1320.03 1922.44 1322.12V1345.75Z" stroke="white" stroke-width="2" stroke-linecap="round" stroke-linejoin="round"/>
<path d="M1904.06 1319.5H1911.94" stroke="white" stroke-width="1.5" stroke-linecap="round" stroke-linejoin="round"/>
<rect x="1893.56" y="1324.75" width="28.875" height="13.125" stroke="white" stroke-width="2" stroke-linecap="round" stroke-linejoin="round"/>
<path d="M1898.81 1343.12H1904.06" stroke="white" stroke-width="2" stroke-linecap="round" stroke-linejoin="round"/>
<path d="M1911.94 1343.12H1917.19" stroke="white" stroke-width="2" stroke-linecap="round" stroke-linejoin="round"/>
<path d="M1893.56 1327.37H1890.94C1889.49 1327.37 1888.31 1328.55 1888.31 1330V1337.87" stroke="white" stroke-width="2" stroke-linecap="round" stroke-linejoin="round"/>
<path d="M1922.44 1327.37H1925.06C1926.51 1327.37 1927.69 1328.55 1927.69 1330V1337.87" stroke="white" stroke-width="2" stroke-linecap="round" stroke-linejoin="round"/>
</g>
<defs>
<clipPath id="clip0_1590_1084672">
<rect width="2475" height="1469" fill="white"/>
</clipPath>
<clipPath id="clip1_1590_1084672">
<rect width="1118" height="206" fill="white" transform="translate(1263 1326) rotate(-90)"/>
</clipPath>
</defs>
</svg>
