<svg version="1.2" xmlns="http://www.w3.org/2000/svg" viewBox="0 0 2650 1469" width="2650" height="1469"><style>.a{fill:#002bff}.b{fill: none;stroke: #002bff;stroke-linejoin: round;stroke-width: 6.3px;stroke-dasharray: 5.04, 10.08;}</style><path class="a" d="m801.9 644.1c-1.6 0-3 1.4-3 3 0 1.7 1.4 3 3 3zm0.1 6c1.6 0 2.9-1.3 2.9-3 0-1.6-1.3-3-2.9-3zm15.9-6c-1.6 0-3 1.4-3 3 0 1.7 1.4 3 3 3zm0.1 6c1.7 0 3-1.3 3-3 0-1.6-1.3-3-3-3zm16-6c-1.7 0-3 1.4-3 3 0 1.7 1.3 3 3 3zm0.1 6c1.6 0 3-1.3 3-3 0-1.6-1.4-3-3-3zm15.9-6c-1.6 0-2.9 1.4-2.9 3 0 1.7 1.3 3 2.9 3zm0.1 6c1.7 0 3-1.3 3-3 0-1.6-1.3-3-3-3zm16-6c-1.7 0-3 1.4-3 3 0 1.7 1.3 3 3 3zm0.1 6c1.7 0 3-1.3 3-3 0-1.6-1.3-3-3-3zm16-6c-1.7 0-3 1.4-3 3 0 1.7 1.3 3 3 3zm0.1 6c1.6 0 3-1.3 3-3 0-1.6-1.4-3-3-3zm15.9-6c-1.6 0-3 1.4-3 3 0 1.7 1.4 3 3 3zm0.1 6c1.7 0 3-1.3 3-3 0-1.6-1.3-3-3-3zm16-6c-1.7 0-3 1.4-3 3 0 1.7 1.3 3 3 3zm0.1 6c1.6 0 3-1.3 3-3 0-1.6-1.4-3-3-3zm15.9-6c-1.6 0-2.9 1.4-2.9 3 0 1.7 1.3 3 2.9 3zm0.1 6c1.7 0 3-1.3 3-3 0-1.6-1.3-3-3-3zm16-6c-1.6 0-3 1.4-3 3 0 1.7 1.4 3 3 3zm-144.5 3v3h0.1v-3-3h-0.1zm16 0v3h0.1v-3-3h-0.1zm16.1 0v3h0.1v-3-3h-0.1zm16 0v3h0.1v-3-2.9h-0.1zm16.1 0v2.9h0.1v-2.9-3h-0.1zm16.1 0v3h0.1v-3-3h-0.1zm16 0v3h0.1v-3-3h-0.1zm16.1 0v3h0.1v-3-3h-0.1zm16 0v3h0.1v-3-3h-0.1zm16.1 0v3h0.1v-3-3h-0.1z"/><path class="a" d="m942.5 653.4v-11.4c0-1.6 1.8-2.6 3.1-1.7l8.4 5.8c1.2 0.8 1.2 2.5 0 3.3l-8.4 5.6c-1.4 0.9-3.1 0-3.1-1.6z"/><path class="a" d="m358.3 213.9h3v-1.4l-1.1-0.9zm-66.9-59.5c-1.2-1.1-3.1-0.9-4.2 0.4-1 1.2-0.9 3.1 0.4 4.2zm-3.8 4.6c1.3 1.1 3.2 0.9 4.2-0.4 1.1-1.3 0.9-3.1-0.3-4.2zm15.2 4.9c-1.3-1.1-3.2-0.9-4.2 0.4-1.1 1.2-0.9 3.1 0.3 4.2zm-3.7 4.6c1.3 1.1 3.1 0.9 4.2-0.4 1.1-1.2 0.9-3.1-0.4-4.2zm15.2 4.9c-1.2-1-3.1-0.9-4.2 0.4-1 1.3-0.9 3.1 0.4 4.2zm-3.7 4.7c1.2 1 3.1 0.8 4.2-0.4 1-1.3 0.8-3.2-0.4-4.2zm15.2 4.8c-1.3-1-3.2-0.8-4.2 0.4-1.1 1.3-0.9 3.2 0.4 4.2zm-3.8 4.7c1.3 1.1 3.2 0.9 4.2-0.4 1.1-1.3 0.9-3.1-0.4-4.2zm15.3 4.9c-1.3-1.1-3.2-0.9-4.3 0.4-1 1.2-0.8 3.1 0.4 4.2zm-3.7 4.6c1.3 1.1 3.1 0.9 4.2-0.4 1.1-1.2 0.9-3.1-0.4-4.2zm15.2 4.9c-1.2-1.1-3.1-0.9-4.2 0.4-1 1.3-0.9 3.1 0.4 4.2zm-3.8 4.7c1.3 1 3.2 0.8 4.3-0.4 1-1.3 0.8-3.2-0.4-4.2zm15.2 4.8c-1.3-1-3.2-0.9-4.2 0.4-1.1 1.3-0.9 3.2 0.4 4.2zm-4.9 2.4c0 1.7 1.3 3 3 3 1.6 0 3-1.3 3-3zm6 15.5c0-1.6-1.4-3-3-3-1.7 0-3 1.4-3 3zm-6 0.1c0 1.7 1.3 3 3 3 1.6 0 3-1.3 3-3zm6 15.5c0-1.6-1.4-3-3-3-1.7 0-3 1.4-3 3zm-6 0.1c0 1.7 1.3 3 3 3 1.6 0 3-1.3 3-3zm6 15.6c0-1.7-1.4-3-3-3-1.7 0-3 1.3-3 3zm-6 0.1c0 1.6 1.3 2.9 3 2.9 1.6 0 3-1.3 3-2.9zm6 15.5c0-1.7-1.4-3-3-3-1.7 0-3 1.3-3 3zm-6 0.1c0 1.6 1.3 3 3 3 1.6 0 3-1.4 3-3zm6 15.5c0-1.7-1.4-3-3-3-1.7 0-3 1.3-3 3zm-6 0.1c0 1.6 1.3 3 3 3 1.6 0 3-1.4 3-3zm6 15.5c0-1.7-1.4-3-3-3-1.7 0-3 1.3-3 3zm-6 0.1c0 1.6 1.3 3 3 3 1.6 0 3-1.4 3-3zm6 15.5c0-1.6-1.4-3-3-3-1.7 0-3 1.4-3 3zm-6 0.1c0 1.7 1.3 3 3 3 1.6 0 3-1.3 3-3zm6 15.5c0-1.6-1.4-3-3-3-1.7 0-3 1.4-3 3zm-6 0.1c0 1.7 1.3 3 3 3 1.6 0 3-1.3 3-3zm6 15.5c0-1.6-1.4-3-3-3-1.7 0-3 1.4-3 3zm-6 0.1c0 1.7 1.3 3 3 3 1.6 0 3-1.3 3-3zm6 15.6c0-1.7-1.4-3-3-3-1.7 0-3 1.3-3 3zm-71.8-213.3l-1.9 2.3 1.9-2.3 2-2.3h-0.1zm11.4 9.5l-1.9 2.3h0.1l1.9-2.3 1.9-2.3zm11.4 9.5l-1.9 2.3 0.1 0.1 1.9-2.3 1.9-2.3-0.1-0.1zm11.5 9.5l-1.9 2.3 0.1 0.1 1.9-2.3 1.9-2.3-0.1-0.1zm11.5 9.6l-1.9 2.3 1.9-2.3 2-2.3h-0.1zm11.4 9.5l-1.9 2.3 0.1 0.1 1.9-2.3 1.9-2.3v-0.1zm11.4 9.5l-1.9 2.3v0.1l2-2.3 1.9-2.3-0.1-0.1zm0.1 0.1h-3 3 3zm0 15.5h-3v0.1h3 3v-0.1zm0 15.6h-3v0.1h3 2.9v-0.1zm0 15.7h-2.9v0.1h2.9 3v-0.1zm0 15.6h-3v0.1h3 3v-0.1zm0 15.6h-3v0.1h3 3v-0.1zm0 15.6h-3v0.1h3 3v-0.1zm0 15.6h-3v0.1h3 3v-0.1zm0 15.6h-3v0.1h3 3v-0.1zm0 15.6h-3v0.1h3 3v-0.1zm0 15.7h-3 3 3z"/><path class="a" d="m352.1 366h11.4c1.6 0 2.5 1.8 1.6 3.1l-5.8 8.5c-0.8 1.1-2.5 1.1-3.3-0.1l-5.6-8.4c-0.9-1.3 0.1-3.1 1.7-3.1z"/><path class="a" d="m1676.9 753.9l8.7-7.4c1.2-1.1 3.1-0.3 3.3 1.3l1 10.1c0.2 1.4-1.2 2.6-2.5 2.2l-9.7-2.8c-1.6-0.4-2-2.4-0.8-3.4z"/><path class="b" d="m1009.3 661.1h150l292.1 47.3 120.6-86.2 112.1 130.6"/><path class="a" d="m801.9 708.9c-1.6 0-3 1.4-3 3 0 1.7 1.4 3 3 3zm0.1 6c1.6 0 2.9-1.3 2.9-3 0-1.6-1.3-3-2.9-3zm15.9-6c-1.6 0-3 1.4-3 3 0 1.7 1.4 3 3 3zm0.1 6c1.7 0 3-1.3 3-3 0-1.6-1.3-3-3-3zm16-6c-1.7 0-3 1.4-3 3 0 1.7 1.3 3 3 3zm0.1 6c1.6 0 3-1.3 3-3 0-1.6-1.4-3-3-3zm15.9-6c-1.6 0-2.9 1.4-2.9 3 0 1.7 1.3 3 2.9 3zm0.1 6c1.7 0 3-1.3 3-3 0-1.6-1.3-3-3-3zm16-6c-1.7 0-3 1.4-3 3 0 1.7 1.3 3 3 3zm0.1 6c1.7 0 3-1.3 3-3 0-1.6-1.3-3-3-3zm16-6c-1.7 0-3 1.4-3 3 0 1.7 1.3 3 3 3zm0.1 6c1.6 0 3-1.3 3-3 0-1.6-1.4-3-3-3zm15.9-6c-1.6 0-3 1.4-3 3 0 1.7 1.4 3 3 3zm0.1 6c1.7 0 3-1.3 3-3 0-1.6-1.3-3-3-3zm16-6c-1.7 0-3 1.4-3 3 0 1.7 1.3 3 3 3zm0.1 6c1.6 0 3-1.3 3-3 0-1.6-1.4-3-3-3zm15.9-6c-1.6 0-2.9 1.4-2.9 3 0 1.7 1.3 3 2.9 3zm0.1 6c1.7 0 3-1.3 3-3 0-1.6-1.3-3-3-3zm16-6c-1.6 0-3 1.4-3 3 0 1.7 1.4 3 3 3zm-144.5 3v3h0.1v-3-3h-0.1zm16 0v3h0.1v-3-3h-0.1zm16.1 0v3h0.1v-3-3h-0.1zm16 0v3h0.1v-3-3h-0.1zm16.1 0v3h0.1v-3-2.9h-0.1zm16.1 0v2.9h0.1v-2.9-3h-0.1zm16 0v3h0.1v-3-3h-0.1zm16.1 0v3h0.1v-3-3h-0.1zm16 0v3h0.1v-3-3h-0.1zm16.1 0v3h0.1v-3-3h-0.1z"/><path class="a" d="m942.5 718.2v-11.4c0-1.7 1.8-2.6 3.1-1.7l8.4 5.8c1.2 0.8 1.2 2.5 0 3.3l-8.4 5.6c-1.4 0.9-3.1 0-3.1-1.6z"/><path class="a" d="m1105.9 711.9v3h0.1v-3-3h-0.1zm-94.6-2.9c-1.7 0-3 1.3-3 2.9 0 1.7 1.3 3 3 3zm136 3l2.2-2.1-0.9-0.9h-1.3zm359.9 364.4h3v-1.2l-0.9-0.9zm-495.9-361.4c1.7 0 3-1.3 3-3 0-1.6-1.3-3-3-3zm15.7-5.9c-1.6 0-3 1.3-3 3 0 1.6 1.4 2.9 3 2.9zm0.1 6c1.7 0 3-1.3 3-3 0-1.6-1.3-3-3-3zm15.7-5.9c-1.7 0-3 1.3-3 3 0 1.6 1.3 2.9 3 2.9zm0.1 6c1.6 0 3-1.3 3-3 0-1.6-1.4-3-3-3zm15.7-5.9c-1.7 0-3 1.3-3 3 0 1.6 1.3 2.9 3 2.9zm0.1 6c1.6 0 3-1.3 3-3 0-1.6-1.4-3-3-3zm15.7-5.9c-1.7 0-3 1.3-3 3 0 1.6 1.3 2.9 3 2.9zm0.1 6c1.6 0 3-1.3 3-3 0-1.6-1.4-3-3-3zm15.7-5.9c-1.7 0-3 1.3-3 3 0 1.6 1.3 2.9 3 2.9zm0 6c1.7 0 3-1.3 3-3 0-1.6-1.3-3-3-3zm15.7-5.9c-1.6 0-3 1.3-3 3 0 1.6 1.4 2.9 3 2.9zm0.1 6c1.7 0 3-1.3 3-3 0-1.6-1.3-3-3-3zm13.7-5.9c-1.6 0-3 1.3-3 3 0 1.6 1.4 2.9 3 2.9zm0.1 6c1.7 0 3-1.3 3-3 0-1.6-1.3-3-3-3zm13.7-5.9c-1.6 0-3 1.3-3 3 0 1.6 1.4 2.9 3 2.9zm0.1 6c1.7 0 3-1.3 3-3 0-1.6-1.3-3-3-3zm13.7-5.9c-1.6 0-3 1.3-3 3 0 1.6 1.4 2.9 3 2.9zm-2 5.2c1.1 1.1 3 1.2 4.2 0 1.2-1.2 1.2-3.1 0-4.2zm15.4 7.1c-1.1-1.2-3-1.2-4.2 0-1.2 1.1-1.2 3 0 4.2zm-4.2 4.3c1.2 1.1 3.1 1.1 4.2 0 1.2-1.2 1.2-3.1 0.1-4.2zm15.4 7.1c-1.2-1.2-3.1-1.2-4.2-0.1-1.2 1.2-1.2 3.1-0.1 4.3zm-4.1 4.2c1.1 1.2 3 1.2 4.2 0.1 1.2-1.2 1.2-3.1 0-4.3zm15.4 7.1c-1.1-1.1-3-1.1-4.2 0-1.2 1.2-1.2 3.1 0 4.3zm-4.2 4.2c1.2 1.2 3.1 1.2 4.2 0.1 1.2-1.2 1.2-3.1 0.1-4.3zm15.4 7.1c-1.2-1.1-3.1-1.2-4.2 0-1.2 1.2-1.2 3.1-0.1 4.2zm-4.2 4.3c1.2 1.2 3.1 1.2 4.3 0 1.2-1.1 1.2-3 0-4.2zm15.4 7.1c-1.1-1.2-3-1.2-4.2 0-1.2 1.2-1.2 3 0 4.2zm-4.2 4.3c1.2 1.2 3 1.2 4.2 0 1.2-1.1 1.2-3 0-4.2zm15.5 7.1c-1.2-1.2-3.1-1.2-4.3 0-1.1 1.1-1.1 3 0 4.2zm-4.2 4.3c1.2 1.2 3.1 1.2 4.3 0 1.1-1.2 1.2-3 0-4.2zm15.4 7.1c-1.1-1.2-3-1.2-4.2 0-1.2 1.1-1.2 3 0 4.2zm-4.2 4.3c1.1 1.1 3 1.2 4.2 0 1.2-1.2 1.2-3.1 0-4.2zm15.5 7.1c-1.2-1.2-3.1-1.2-4.3 0-1.1 1.1-1.1 3 0 4.2zm-4.2 4.3c1.2 1.1 3.1 1.1 4.3 0 1.1-1.2 1.1-3.1 0-4.2zm15.4 7.1c-1.1-1.2-3-1.2-4.2-0.1-1.2 1.2-1.2 3.1 0 4.3zm-4.2 4.2c1.1 1.2 3 1.2 4.2 0.1 1.2-1.2 1.2-3.1 0-4.3zm15.5 7.2c-1.2-1.2-3.1-1.2-4.3-0.1-1.1 1.2-1.2 3.1 0 4.3zm-4.2 4.2c1.2 1.2 3.1 1.2 4.3 0.1 1.1-1.2 1.1-3.1 0-4.3zm15.4 7.1c-1.2-1.1-3-1.1-4.2 0-1.2 1.2-1.2 3.1 0 4.2zm-4.2 4.3c1.1 1.2 3 1.2 4.2 0 1.2-1.1 1.2-3 0-4.2zm15.5 7.1c-1.2-1.2-3.1-1.2-4.3 0-1.1 1.2-1.2 3.1 0 4.2zm-4.2 4.3c1.2 1.2 3.1 1.2 4.2 0 1.2-1.1 1.2-3 0.1-4.2zm15.4 7.1c-1.2-1.2-3.1-1.2-4.2 0-1.2 1.1-1.2 3-0.1 4.2zm-4.1 4.3c1.1 1.2 3 1.2 4.2 0 1.2-1.1 1.2-3 0-4.2zm15.5 7.1c-1.2-1.2-3.1-1.2-4.3 0-1.2 1.1-1.2 3 0 4.2zm-4.2 4.3c1.2 1.1 3.1 1.2 4.2 0 1.2-1.2 1.2-3.1 0.1-4.2zm15.4 7.1c-1.2-1.2-3.1-1.2-4.2 0-1.2 1.1-1.2 3-0.1 4.2zm-4.1 4.3c1.1 1.1 3 1.1 4.2 0 1.2-1.2 1.2-3.1 0-4.2zm15.4 7.1c-1.1-1.2-3-1.2-4.2-0.1-1.2 1.2-1.2 3.1 0 4.3zm-4.2 4.2c1.2 1.2 3.1 1.2 4.2 0.1 1.2-1.2 1.2-3.1 0.1-4.3zm15.4 7.2c-1.2-1.2-3.1-1.2-4.2-0.1-1.2 1.2-1.2 3.1-0.1 4.3zm-4.2 4.2c1.2 1.2 3.1 1.2 4.3 0.1 1.2-1.2 1.2-3.1 0-4.3zm15.4 7.1c-1.1-1.1-3-1.1-4.2 0-1.2 1.2-1.2 3.1 0 4.2zm-4.2 4.3c1.2 1.2 3 1.2 4.2 0 1.2-1.1 1.2-3 0-4.2zm15.5 7.1c-1.2-1.1-3.1-1.2-4.2 0-1.2 1.2-1.2 3.1-0.1 4.2zm-4.2 4.3c1.2 1.2 3.1 1.2 4.3 0 1.1-1.1 1.2-3 0-4.2zm15.4 7.1c-1.1-1.2-3-1.2-4.2 0-1.2 1.1-1.2 3 0 4.2zm-4.2 4.3c1.1 1.2 3 1.2 4.2 0 1.2-1.1 1.2-3 0-4.2zm15.5 7.1c-1.2-1.2-3.1-1.2-4.3 0-1.1 1.1-1.1 3 0 4.2zm-4.2 4.3c1.2 1.2 3.1 1.2 4.3 0 1.1-1.2 1.1-3 0-4.2zm15.4 7.1c-1.1-1.2-3-1.2-4.2 0-1.2 1.1-1.2 3 0 4.2zm-4.2 4.3c1.1 1.1 3 1.1 4.2 0 1.2-1.2 1.2-3.1 0-4.2zm15.5 7.1c-1.2-1.2-3.1-1.2-4.3-0.1-1.1 1.2-1.2 3.1 0 4.3zm-4.2 4.2c1.2 1.2 3.1 1.2 4.2 0.1 1.2-1.2 1.2-3.1 0.1-4.3zm15.4 7.2c-1.2-1.2-3-1.2-4.2-0.1-1.2 1.2-1.2 3.1 0 4.3zm-4.2 4.2c1.1 1.2 3 1.2 4.2 0.1 1.2-1.2 1.2-3.1 0-4.3zm15.5 7.1c-1.2-1.1-3.1-1.1-4.3 0-1.2 1.2-1.2 3.1 0 4.2zm-4.2 4.3c1.2 1.2 3.1 1.2 4.2 0 1.2-1.1 1.2-3 0.1-4.2zm15.4 7.1c-1.2-1.1-3.1-1.2-4.2 0-1.2 1.2-1.2 3.1-0.1 4.2zm-4.1 4.3c1.1 1.2 3 1.2 4.2 0 1.2-1.1 1.2-3 0-4.2zm15.4 7.1c-1.1-1.2-3-1.2-4.2 0-1.2 1.2-1.2 3 0 4.2zm-4.2 4.3c1.2 1.2 3.1 1.2 4.2 0 1.2-1.1 1.2-3 0.1-4.2zm15.4 7.1c-1.2-1.2-3.1-1.2-4.2 0-1.2 1.1-1.2 3-0.1 4.2zm-4.2 4.3c1.2 1.2 3.1 1.2 4.3 0 1.2-1.2 1.2-3 0-4.2zm15.4 7.1c-1.1-1.2-3-1.2-4.2 0-1.2 1.1-1.2 3 0 4.2zm-4.2 4.3c1.2 1.1 3 1.2 4.2 0 1.2-1.2 1.2-3.1 0-4.2zm15.5 7.1c-1.2-1.2-3.1-1.2-4.2 0-1.2 1.1-1.2 3-0.1 4.2zm-4.2 4.3c1.2 1.1 3.1 1.1 4.3 0 1.1-1.2 1.2-3.1 0-4.3zm15.4 7.2c-1.1-1.2-3-1.2-4.2-0.1-1.2 1.2-1.2 3.1 0 4.3zm-4.2 4.2c1.1 1.2 3 1.2 4.2 0.1 1.2-1.2 1.2-3.1 0-4.3zm15.5 7.1c-1.2-1.1-3.1-1.1-4.3 0-1.1 1.2-1.1 3.1 0 4.3zm-5.1 2.1c0 1.7 1.4 3 3 3 1.7 0 3-1.3 3-3zm6 16c0-1.6-1.3-3-3-3-1.6 0-3 1.4-3 3zm-6 0.1c0 1.7 1.4 3 3 3 1.7 0 3-1.3 3-3zm6 16c0-1.7-1.3-3-3-3-1.6 0-3 1.3-3 3zm-6 0.1c0 1.6 1.4 3 3 3 1.7 0 3-1.4 3-3zm6 15.9c0-1.6-1.3-2.9-3-2.9-1.6 0-3 1.3-3 2.9zm-6 0.1c0 1.7 1.4 3 3 3 1.7 0 3-1.3 3-3zm6 16c0-1.6-1.3-3-3-3-1.6 0-3 1.4-3 3zm-6 0.1c0 1.7 1.4 3 3 3 1.7 0 3-1.3 3-3zm6 16c0-1.7-1.3-3-3-3-1.6 0-3 1.3-3 3zm-6 0.1c0 1.6 1.4 3 3 3 1.7 0 3-1.4 3-3zm6 16c0-1.7-1.3-3-3-3-1.6 0-3 1.3-3 3zm-6 0.1c0 1.6 1.4 2.9 3 2.9 1.7 0 3-1.3 3-2.9zm6 15.9c0-1.6-1.3-3-3-3-1.6 0-3 1.4-3 3zm-6 0.1c0 1.7 1.4 3 3 3 1.7 0 3-1.3 3-3zm6 16c0-1.7-1.3-3-3-3-1.6 0-3 1.3-3 3zm-6 0.1c0 1.6 1.4 3 3 3 1.7 0 3-1.4 3-3zm6 16c0-1.7-1.3-3-3-3-1.6 0-3 1.3-3 3zm-6 0.1c0 1.6 1.4 2.9 3 2.9 1.7 0 3-1.3 3-2.9zm6 15.9c0-1.6-1.3-3-3-3-1.6 0-3 1.4-3 3zm-6 0.1c0 1.7 1.4 3 3 3 1.7 0 3-1.3 3-3zm6 16c0-1.7-1.3-3-3-3-1.6 0-3 1.3-3 3zm-6 0.1c0 1.6 1.4 3 3 3 1.7 0 3-1.4 3-3zm6 16c0-1.7-1.3-3-3-3-1.6 0-3 1.3-3 3zm-6 0.1c0 1.6 1.4 3 3 3 1.7 0 3-1.4 3-3zm6 15.9c0-1.6-1.3-3-3-3-1.6 0-3 1.4-3 3zm-6 0.1c0 1.7 1.4 3 3 3 1.7 0 3-1.3 3-3zm6 16c0-1.7-1.3-3-3-3-1.6 0-3 1.3-3 3zm-6 0.1c0 1.7 1.4 3 3 3 1.7 0 3-1.3 3-3zm6 16c0-1.7-1.3-3-3-3-1.6 0-3 1.3-3 3zm-6 0.1c0 1.6 1.4 3 3 3 1.7 0 3-1.4 3-3zm6 15.9c0-1.6-1.3-3-3-3-1.6 0-3 1.4-3 3zm-6 0.1c0 1.7 1.4 3 3 3 1.7 0 3-1.3 3-3zm6 16c0-1.6-1.3-3-3-3-1.6 0-3 1.4-3 3zm-6 0.1c0 1.7 1.4 3 3 3 1.7 0 3-1.3 3-3zm6 16c0-1.7-1.3-3-3-3-1.6 0-3 1.3-3 3zm-6 0.1c0 1.6 1.4 3 3 3 1.7 0 3-1.4 3-3zm6 15.9c0-1.6-1.3-2.9-3-2.9-1.6 0-3 1.3-3 2.9zm-6 0.1c0 1.7 1.4 3 3 3 1.7 0 3-1.3 3-3zm6 16c0-1.6-1.3-3-3-3-1.6 0-3 1.4-3 3zm-6 0.1c0 1.7 1.4 3 3 3 1.7 0 3-1.3 3-3zm6 16c0-1.7-1.3-3-3-3-1.6 0-3 1.3-3 3zm-498.9-701.8v3-3-3zm15.7 0v3h0.1v-3-2.9h-0.1zm15.8 0v2.9h0.1v-2.9-3h-0.1zm15.8 0v3h0.1v-3-3h-0.1zm15.8 0v3h0.1v-3-3h-0.1zm15.7 0v3h0.1v-3-3h-0.1zm15.9 0v3-3-3zm0 0v3zm13.7 0v3h0.1v-3-3h-0.1zm13.8 0v3h0.1v-3-3h-0.1zm13.8 0v3h0.1v-3-3h-0.1zm0.1 0l-2.2 2.1 0.1 0.1 2.1-2.1 2.1-2.1v-0.1zm11.2 11.4l-2.1 2.1 2.2-2.1 2.1-2.1h-0.1zm11.3 11.4l-2.2 2.1h0.1l2.1-2.1 2.2-2.1h-0.1zm11.2 11.3l-2.1 2.1 0.1 0.1 2.1-2.1 2.1-2.1v-0.1zm11.2 11.4l-2.1 2.1 0.1 0.1 2.1-2.1 2.1-2.1-0.1-0.1zm11.3 11.4l-2.1 2.1v0.1l2.2-2.1 2.1-2.1-0.1-0.1zm11.3 11.4l-2.2 2.1 0.1 0.1 2.1-2.1 2.2-2.1-0.1-0.1zm11.2 11.4l-2.1 2.1h0.1l2.1-2.1 2.1-2.1zm11.2 11.4l-2.1 2.1 2.2-2.1 2.1-2.1h-0.1zm11.3 11.3l-2.1 2.1v0.1l2.2-2.1 2.1-2.1-0.1-0.1zm11.3 11.4l-2.2 2.1 0.1 0.1 2.1-2.1 2.2-2.1-0.1-0.1zm11.2 11.4l-2.1 2.1 0.1 0.1 2.1-2.1 2.1-2.1v-0.1zm11.2 11.4l-2.1 2.1v0.1l2.2-2.1 2.1-2.1-0.1-0.1zm11.3 11.4l-2.2 2.1h0.1l2.1-2.1 2.2-2.1h-0.1zm11.3 11.4l-2.2 2.1h0.1l2.1-2.1 2.1-2.1zm11.2 11.3l-2.1 2.1 0.1 0.1 2.1-2.1 2.1-2.1v-0.1zm11.2 11.4l-2.1 2.1v0.1l2.2-2.1 2.1-2.1-0.1-0.1zm11.3 11.4l-2.2 2.1 0.1 0.1 2.1-2.1 2.2-2.1-0.1-0.1zm11.2 11.4l-2.1 2.1 0.1 0.1 2.1-2.1 2.1-2.1v-0.1zm11.2 11.4l-2.1 2.1 0.1 0.1 2.1-2.1 2.1-2.2h-0.1zm11.3 11.4l-2.1 2.1 2.2-2.1 2.1-2.1h-0.1zm11.3 11.3l-2.2 2.1 0.1 0.1 2.1-2.1 2.2-2.1-0.1-0.1zm11.2 11.4l-2.1 2.1 0.1 0.1 2.1-2.1 2.1-2.1v-0.1zm11.2 11.4l-2.1 2.1 0.1 0.1 2.1-2.1 2.1-2.1-0.1-0.1zm11.3 11.4l-2.1 2.1v0.1l2.2-2.1 2.1-2.1-0.1-0.1zm11.3 11.4l-2.2 2.1 0.1 0.1 2.1-2.1 2.2-2.1-0.1-0.1zm11.2 11.4l-2.1 2.1h0.1l2.1-2.1 2.1-2.1zm11.2 11.4l-2.1 2.1h0.1l2.1-2.1 2.1-2.1-0.1-0.1zm11.3 11.4l-2.1 2.1v0.1l2.2-2.1 2.1-2.1-0.1-0.1zm11.3 11.4l-2.2 2.1 0.1 0.1 2.1-2.1 2.2-2.1-0.1-0.1zm11.2 11.4l-2.1 2.1 0.1 0.1 2.1-2.1 2.1-2.1v-0.1zm11.2 11.4l-2.1 2.1v0.1l2.2-2.1 2.1-2.1-0.1-0.1zm11.3 11.4l-2.1 2.1 2.1-2.1 2.1-2.1zm0 0h-2.9v0.1h2.9 3v-0.1zm0 16h-3v0.1h3 3v-0.1zm0 16.1h-3v0.1h3 3v-0.1zm0 16.1h-3v0.1h3 3v-0.1zm0 16h-3v0.1h3 3v-0.1zm0 16.1h-3v0.1h3 3v-0.1zm0 16.1h-3v0.1h3 3v-0.1zm0 16h-3v0.1h3 3v-0.1zm0 16.1h-3v0.1h3 2.9v-0.1zm0 16.1h-2.9v0.1h2.9 3v-0.1zm0 16h-3v0.1h3 3v-0.1zm0 16.1h-3v0.1h3 3v-0.1zm0 16.1h-3v0.1h3 3v-0.1zm0 16h-3v0.1h3 3v-0.1zm0 16.1h-3v0.1h3 3v-0.1zm0 16.1h-3v0.1h3 3v-0.1zm0 16.1h-3v0.1h3 3v-0.1zm0 16h-3v0.1h3 3v-0.1zm0 16.1h-3v0.1h3 2.9v-0.1zm0 16.1h-2.9v0.1h2.9 3v-0.1zm0 16h-3v0.1h3 3v-0.1zm0 16.1h-3 3 3z"/><path class="a" d="m654.4 272.3h3v-1.6l-1.4-0.9zm-245.5-166.9c-1.4-1-3.3-0.6-4.2 0.8-0.9 1.4-0.5 3.2 0.8 4.1zm-3.2 5c1.3 1 3.2 0.6 4.1-0.8 0.9-1.4 0.6-3.2-0.8-4.1zm16.2 3.6c-1.3-0.9-3.2-0.6-4.1 0.8-0.9 1.4-0.6 3.2 0.8 4.2zm-3.2 5c1.4 0.9 3.2 0.5 4.1-0.8 0.9-1.4 0.6-3.3-0.8-4.2zm16.2 3.6c-1.3-0.9-3.2-0.5-4.1 0.9-0.9 1.3-0.5 3.2 0.8 4.1zm-3.2 5.1c1.4 0.9 3.2 0.5 4.1-0.9 1-1.4 0.6-3.2-0.8-4.1zm16.3 3.6c-1.4-0.9-3.3-0.5-4.2 0.8-0.9 1.4-0.5 3.3 0.8 4.2zm-3.2 5c1.4 0.9 3.2 0.5 4.2-0.8 0.9-1.4 0.5-3.3-0.9-4.2zm16.3 3.7c-1.4-1-3.3-0.6-4.2 0.8-0.9 1.4-0.5 3.2 0.9 4.1zm-3.3 5.1c1.4 0.9 3.3 0.5 4.2-0.9 0.9-1.3 0.5-3.2-0.9-4.1zm16.3 3.6c-1.4-0.9-3.3-0.5-4.2 0.8-0.9 1.4-0.5 3.3 0.9 4.2zm-3.3 5c1.4 0.9 3.3 0.6 4.2-0.8 0.9-1.4 0.5-3.2-0.9-4.2zm16.3 3.7c-1.4-0.9-3.2-0.6-4.2 0.8-0.9 1.4-0.5 3.2 0.9 4.1zm-3.3 5.1c1.4 0.9 3.3 0.5 4.2-0.9 0.9-1.3 0.5-3.2-0.8-4.1zm16.2 3.6c-1.4-0.9-3.2-0.5-4.1 0.9-1 1.3-0.6 3.2 0.8 4.1zm-3.2 5c1.3 1 3.2 0.6 4.1-0.8 0.9-1.4 0.5-3.2-0.8-4.1zm16.2 3.6c-1.4-0.9-3.2-0.6-4.1 0.8-0.9 1.4-0.6 3.2 0.8 4.2zm-3.2 5c1.3 0.9 3.2 0.5 4.1-0.8 0.9-1.4 0.6-3.3-0.8-4.2zm16.2 3.6c-1.3-0.9-3.2-0.5-4.1 0.9-0.9 1.3-0.6 3.2 0.8 4.1zm-3.2 5.1c1.4 0.9 3.2 0.5 4.1-0.9 0.9-1.4 0.6-3.2-0.8-4.1zm16.2 3.6c-1.3-0.9-3.2-0.5-4.1 0.8-0.9 1.4-0.6 3.3 0.8 4.2zm-3.2 5c1.4 0.9 3.2 0.5 4.1-0.8 1-1.4 0.6-3.3-0.8-4.2zm16.3 3.7c-1.4-1-3.3-0.6-4.2 0.8-0.9 1.4-0.5 3.2 0.8 4.1zm-3.2 5.1c1.4 0.9 3.2 0.5 4.1-0.9 1-1.3 0.6-3.2-0.8-4.1zm16.3 3.6c-1.4-0.9-3.3-0.5-4.2 0.8-0.9 1.4-0.5 3.3 0.8 4.2zm-3.2 5c1.4 0.9 3.2 0.6 4.2-0.8 0.9-1.4 0.5-3.2-0.9-4.2zm16.3 3.7c-1.4-1-3.3-0.6-4.2 0.8-0.9 1.4-0.5 3.2 0.9 4.1zm-3.3 5.1c1.4 0.9 3.3 0.5 4.2-0.9 0.9-1.3 0.5-3.2-0.9-4.1zm16.3 3.6c-1.4-0.9-3.2-0.5-4.2 0.9-0.9 1.3-0.5 3.2 0.9 4.1zm-3.3 5c1.4 1 3.3 0.6 4.2-0.8 0.9-1.4 0.5-3.2-0.9-4.1zm16.3 3.6c-1.4-0.9-3.2-0.6-4.2 0.8-0.9 1.4-0.5 3.2 0.9 4.2zm-3.3 5c1.4 0.9 3.3 0.5 4.2-0.8 0.9-1.4 0.5-3.3-0.8-4.2zm16.2 3.6c-1.4-0.9-3.2-0.5-4.1 0.9-1 1.3-0.6 3.2 0.8 4.1zm-3.2 5c1.3 1 3.2 0.6 4.1-0.8 0.9-1.4 0.6-3.2-0.8-4.1zm16.2 3.6c-1.4-0.9-3.2-0.5-4.1 0.8-0.9 1.4-0.6 3.3 0.8 4.2zm-3.2 5c1.3 0.9 3.2 0.5 4.1-0.8 0.9-1.4 0.6-3.3-0.8-4.2zm16.2 3.6c-1.3-0.9-3.2-0.5-4.1 0.9-0.9 1.4-0.6 3.2 0.8 4.1zm-3.2 5.1c1.4 0.9 3.2 0.5 4.1-0.9 0.9-1.3 0.6-3.2-0.8-4.1zm16.2 3.6c-1.3-0.9-3.2-0.5-4.1 0.8-0.9 1.4-0.5 3.3 0.8 4.2zm-4.6 2.6c0 1.6 1.4 2.9 3 2.9 1.7 0 3-1.3 3-2.9zm6 16.1c0-1.6-1.4-3-3-3-1.7 0-3 1.4-3 3zm-6 0.1c0 1.7 1.4 3 3 3 1.7 0 3-1.3 3-3zm6 16.2c0-1.6-1.4-3-3-3-1.7 0-3 1.4-3 3zm-6 0.1c0 1.7 1.4 3 3 3 1.7 0 3-1.3 3-3zm6 16.2c0-1.6-1.4-3-3-3-1.7 0-3 1.4-3 3zm-6 0.1c0 1.7 1.4 3 3 3 1.7 0 3-1.3 3-3zm6 16.2c0-1.7-1.4-3-3-3-1.7 0-3 1.3-3 3zm-6 0.1c0 1.6 1.4 3 3 3 1.7 0 3-1.4 3-3zm6 16.2c0-1.7-1.4-3-3-3-1.7 0-3 1.3-3 3zm-6 0.1c0 1.6 1.4 3 3 3 1.7 0 3-1.4 3-3zm6 16.1c0-1.6-1.4-2.9-3-2.9-1.7 0-3 1.3-3 2.9zm-250.2-262.1l-1.7 2.5h0.1l1.6-2.5 1.7-2.4-0.1-0.1zm13 8.7l-1.6 2.5 1.7-2.5 1.7-2.5h-0.1zm13 8.6l-1.7 2.5 0.1 0.1 1.7-2.5 1.6-2.5-0.1-0.1zm13.1 8.7l-1.7 2.5h0.1l1.6-2.5 1.7-2.4-0.1-0.1zm13 8.7l-1.6 2.5 1.7-2.5 1.7-2.5h-0.1zm13 8.6l-1.7 2.5 0.1 0.1 1.7-2.5 1.6-2.5-0.1-0.1zm13.1 8.7l-1.7 2.5h0.1l1.6-2.4 1.7-2.5-0.1-0.1zm13 8.7l-1.6 2.5 1.7-2.5 1.7-2.5h-0.1zm13 8.6l-1.7 2.5 0.1 0.1 1.7-2.5 1.6-2.5v-0.1zm13 8.7l-1.7 2.5h0.1l1.6-2.4 1.7-2.5-0.1-0.1zm13 8.7l-1.6 2.5h0.1l1.6-2.5 1.7-2.5h-0.1zm13 8.6l-1.7 2.5 0.1 0.1 1.7-2.5 1.6-2.5v-0.1zm13 8.7l-1.7 2.5h0.1l1.7-2.4 1.6-2.5-0.1-0.1zm13 8.7l-1.6 2.5h0.1l1.6-2.5 1.7-2.5h-0.1zm13 8.6l-1.7 2.5 0.1 0.1 1.7-2.5 1.6-2.5v-0.1zm13 8.7l-1.7 2.5h0.1l1.7-2.4 1.6-2.5-0.1-0.1zm13 8.7l-1.6 2.5h0.1l1.6-2.5 1.7-2.5h-0.1zm13 8.6l-1.6 2.5v0.1l1.7-2.5 1.6-2.5v-0.1zm13 8.7l-1.7 2.5h0.1l1.7-2.4 1.6-2.5-0.1-0.1zm13 8.7l-1.6 2.5 1.7-2.5 1.6-2.5zm0 0h-2.9v0.1h2.9 3v-0.1zm0 16.2h-3v0.1h3 3v-0.1zm0 16.3h-3v0.1h3 3v-0.1zm0 16.3h-3v0.1h3 3v-0.1zm0 16.3h-3v0.1h3 3v-0.1zm0 16.3h-3v0.1h3 3v-0.1zm0 16.2h-3v0.1h3 3v-0.1z"/><path class="a" d="m648.1 366h11.4c1.7 0 2.6 1.8 1.7 3.1l-5.8 8.5c-0.8 1.1-2.5 1.1-3.3-0.1l-5.6-8.4c-0.9-1.3 0-3.1 1.6-3.1z"/><path class="a" d="m790.3 194.9l-1.1-2.8-0.2 0.1h-0.1zm121.2-49.7v-3h-0.6l-0.5 0.2zm686.4-0.4v3h3v-2.9zm3-77.7c0-1.6-1.3-3-3-3-1.6 0-3 1.3-3 3zm-6 0c0 1.7 1.4 3 3 3 1.7 0 3-1.3 3-3zm6 15.5c0-1.7-1.3-3-3-3-1.6 0-3 1.3-3 3zm-6 0.1c0 1.6 1.4 3 3 3 1.7 0 3-1.4 3-3zm6 15.4c0-1.6-1.4-3-3-3-1.7 0-3 1.4-3 3zm-6 0.1c0 1.7 1.4 3 3 3 1.7 0 3-1.3 3-3zm6 15.4c0-1.6-1.4-2.9-3-2.9-1.7 0-3 1.3-3 2.9zm-6 0.1c0 1.7 1.4 3 3 3 1.7 0 3-1.3 3-3zm6 15.5c0-1.7-1.4-3-3-3-1.7 0-3 1.3-3 3zm-6 0.1c0 1.6 1.3 3 3 3 1.6 0 3-1.4 3-3zm6 15.4c0-1.6-1.4-3-3-3-1.7 0-3 1.3-3 3zm-3.1-2.9c-1.6 0-3 1.3-2.9 2.9 0 1.7 1.3 3 2.9 3zm-15.8 6c1.6 0 3-1.3 3-3 0-1.6-1.4-3-3-3zm-0.1-5.9c-1.7 0-3 1.3-3 3 0 1.6 1.3 2.9 3 2.9zm-15.9 6c1.7 0 3-1.3 3-3 0-1.6-1.3-2.9-3-2.9zm-0.1-6c-1.6 0-3 1.3-3 3 0 1.6 1.4 3 3 3zm-15.8 5.9c1.6 0 2.9-1.3 2.9-2.9 0-1.7-1.3-3-2.9-3zm-0.2-6c-1.6 0-2.9 1.3-2.9 3 0 1.6 1.3 3 3 3zm-15.9 6c1.6 0 3-1.4 3-3 0-1.7-1.4-3-3-3zm-0.1-6c-1.7 0-3 1.3-3 3 0 1.6 1.3 3 3 3zm-15.9 6c1.7 0 3-1.4 3-3 0-1.7-1.3-3-3-3zm-0.1-6c-1.6 0-3 1.3-3 3 0 1.6 1.4 3 3 3zm-15.8 6c1.6 0 3-1.4 3-3 0-1.7-1.4-3-3-3zm-0.1-6c-1.7 0-3 1.3-3 3 0 1.7 1.3 3 3 3zm-15.9 6c1.7 0 3-1.4 3-3 0-1.7-1.3-3-3-3zm-0.1-6c-1.7 0-3 1.4-3 3 0 1.7 1.3 3 3 3zm-15.9 6c1.7 0 3-1.4 3-3 0-1.7-1.3-3-3-3zm-0.1-6c-1.6 0-3 1.4-3 3 0 1.7 1.4 3 3 3zm-15.8 6c1.6 0 3-1.3 3-3 0-1.6-1.4-3-3-3zm-0.1-6c-1.7 0-3 1.4-3 3 0 1.7 1.3 3 3 3zm-15.9 6c1.7 0 3-1.3 3-3 0-1.6-1.3-3-3-3zm-0.1-6c-1.6 0-3 1.4-3 3 0 1.7 1.4 3 3 3zm-15.8 6c1.6 0 2.9-1.3 2.9-3 0-1.6-1.3-3-3-3zm-0.1-6c-1.6 0.1-2.9 1.4-2.9 3 0 1.7 1.3 3 2.9 3zm-15.8 6c1.6 0 3-1.3 3-3 0-1.6-1.4-3-3-3zm-0.1-5.9c-1.7 0-3 1.3-3 3 0 1.6 1.3 2.9 3 2.9zm-15.9 6c1.7 0 3-1.3 3-3 0-1.6-1.3-3-3-3zm-0.1-5.9c-1.6 0-3 1.3-3 3 0 1.6 1.4 2.9 3 2.9zm-15.8 6c1.6 0 2.9-1.3 2.9-3 0-1.6-1.3-2.9-2.9-2.9zm-0.1-6c-1.7 0-3 1.3-3 3 0 1.6 1.3 3 3 3zm-15.9 5.9c1.7 0 3-1.3 3-2.9 0-1.7-1.4-3-3-3zm-0.1-6c-1.7 0-3 1.3-3 3 0 1.6 1.3 3 3 3zm-15.9 6c1.7 0 3-1.4 3-3 0-1.7-1.3-3-3-3zm-0.1-6c-1.6 0-3 1.3-3 3 0 1.6 1.4 3 3 3zm-15.8 6c1.6 0 3-1.4 3-3 0-1.7-1.4-3-3-3zm-0.1-6c-1.7 0-3 1.3-3 3 0 1.6 1.3 3 3 3zm-15.9 6c1.7 0 3-1.4 3-3 0-1.7-1.3-3-3-3zm-0.1-6c-1.6 0-3 1.3-3 3 0 1.7 1.4 3 3 3zm-15.9 6c1.7 0 3-1.4 3-3 0-1.7-1.3-3-3-3zm-0.1-6c-1.6 0-3 1.4-2.9 3 0 1.7 1.3 3 2.9 3zm-15.8 6c1.6 0 3-1.4 3-3 0-1.7-1.4-3-3-3zm-0.1-6c-1.7 0-3 1.4-3 3 0 1.7 1.3 3 3 3zm-15.9 6c1.7 0 3-1.3 3-3 0-1.6-1.3-3-3-3zm-0.1-6c-1.6 0-3 1.4-3 3 0 1.7 1.4 3 3 3zm-15.8 6c1.6 0 2.9-1.3 2.9-3 0-1.6-1.3-3-2.9-3zm-0.2-6c-1.6 0-2.9 1.4-2.9 3 0 1.7 1.3 3 3 3zm-15.9 6c1.6 0 3-1.3 3-3 0-1.6-1.4-3-3-3zm-0.1-5.9c-1.7 0-3 1.3-3 2.9 0 1.7 1.3 3 3 3zm-15.9 6c1.7 0 3-1.3 3-3 0-1.6-1.3-3-3-3zm-0.1-5.9c-1.6 0-3 1.3-3 3 0 1.6 1.4 2.9 3 2.9zm-15.8 6c1.6 0 3-1.3 3-3 0-1.6-1.4-3-3-3zm-0.1-5.9c-1.7 0-3 1.3-3 3 0 1.6 1.3 2.9 3 2.9zm-15.9 6c1.7 0 3-1.3 3-3 0-1.6-1.3-2.9-3-2.9zm-0.1-6c-1.7 0-3 1.3-3 3 0 1.6 1.3 3 3 3zm-15.9 5.9c1.7 0 3-1.3 3-2.9 0-1.7-1.3-3-3-3zm-0.1-6c-1.6 0-3 1.3-3 3 0 1.6 1.4 3 3 3zm-15.8 6c1.6 0 3-1.4 3-3 0-1.7-1.4-3-3-3zm-0.1-6c-1.7 0-3 1.3-3 3 0 1.6 1.3 3 3 3zm-15.9 6c1.7 0 3-1.4 3-3 0-1.7-1.3-3-3-3zm-0.1-6c-1.6 0-3 1.3-3 3 0 1.6 1.4 3 3 3zm-15.8 6c1.6 0 2.9-1.4 2.9-3 0-1.7-1.3-3-3-3zm-0.1-6c-1.6 0-2.9 1.4-2.9 3 0 1.7 1.3 3 2.9 3zm-15.8 6c1.6 0 3-1.4 3-3 0-1.7-1.4-3-3-3zm-0.1-6c-1.7 0-3 1.4-3 3 0 1.7 1.3 3 3 3zm-15.9 6c1.7 0 3-1.4 3-3 0-1.7-1.3-3-3-3zm-0.1-6c-1.6 0-3 1.4-3 3 0 1.7 1.4 3 3 3zm-15.8 6c1.6 0 2.9-1.3 2.9-3 0-1.6-1.3-3-2.9-3zm-0.1-6c-1.7 0-3 1.4-3 3 0 1.7 1.3 3 3 3zm-15.9 6c1.6 0 3-1.3 3-3 0-1.6-1.4-3-3-3zm-0.1-6c-1.7 0-3 1.4-3 3 0 1.7 1.3 3 3 3zm-15.9 6c1.7 0 3-1.3 3-3 0-1.6-1.3-3-3-3zm-0.1-5.9c-1.6 0-3 1.3-3 2.9 0 1.7 1.4 3 3 3zm-15.8 6c1.6 0 3-1.3 3-3 0-1.6-1.4-3-3-3zm-0.1-5.9c-1.7 0-3 1.3-3 3 0 1.6 1.3 2.9 3 2.9zm-15.9 6c1.7 0 3-1.3 3-3 0-1.6-1.3-3-3-3zm-0.1-5.9c-1.7 0-3 1.3-3 3 0 1.6 1.4 3 3 2.9zm-15.9 6c1.7 0 3-1.3 3-3 0-1.6-1.3-2.9-3-2.9zm-0.1-6c-1.6 0-3 1.3-3 3 0.1 1.6 1.4 3 3 3zm-15.8 5.9c1.6 0 3-1.3 3-2.9 0-1.7-1.4-3-3-3zm-0.1-6c-1.7 0-3 1.3-3 3 0 1.6 1.3 3 3 3zm-15.9 6c1.7 0 3-1.4 3-3 0-1.7-1.3-3-3-3zm-0.1-6c-1.6 0-3 1.3-3 3 0 1.6 1.4 3 3 3zm-15.8 6c1.6 0 2.9-1.4 2.9-3 0-1.7-1.3-3-2.9-3zm-0.2-6c-1.6 0-2.9 1.3-2.9 3 0 1.6 1.3 3 3 3zm-15.9 6c1.6 0 3-1.4 3-3 0-1.7-1.4-3-3-3zm-0.1-6c-1.7 0-3 1.4-3 3 0 1.7 1.3 3 3 3zm-15.9 6c1.7 0 3-1.4 3-3 0-1.7-1.3-3-3-3zm-1.2-5.7c-1.5 0.6-2.3 2.3-1.6 3.9 0.6 1.5 2.3 2.2 3.9 1.6zm-12.8 11.7c1.5-0.6 2.2-2.4 1.6-3.9-0.6-1.5-2.4-2.3-3.9-1.6zm-2.4-5.5c-1.5 0.6-2.2 2.4-1.6 3.9 0.6 1.5 2.4 2.2 3.9 1.6zm-12.8 11.7c1.6-0.6 2.3-2.3 1.7-3.9-0.7-1.5-2.4-2.2-3.9-1.6zm-2.4-5.5c-1.5 0.6-2.3 2.4-1.6 3.9 0.6 1.5 2.3 2.3 3.9 1.6zm-12.8 11.7c1.5-0.6 2.2-2.3 1.6-3.9-0.6-1.5-2.4-2.2-3.9-1.6zm-2.3-5.5c-1.6 0.6-2.3 2.4-1.7 3.9 0.6 1.5 2.4 2.3 3.9 1.6zm-12.8 11.8c1.6-0.7 2.3-2.4 1.7-3.9-0.7-1.6-2.4-2.3-3.9-1.7zm-2.4-5.5c-1.5 0.7-2.2 2.4-1.6 3.9 0.6 1.6 2.4 2.3 3.9 1.7zm-12.8 11.7c1.5-0.6 2.3-2.4 1.6-3.9-0.6-1.6-2.3-2.3-3.9-1.7zm-2.3-5.4c-1.6 0.6-2.3 2.3-1.7 3.9 0.7 1.5 2.4 2.2 3.9 1.6zm-12.7 11.7c1.5-0.6 2.2-2.4 1.6-3.9-0.6-1.5-2.4-2.3-3.9-1.6zm-2.4-5.5c-1.5 0.6-2.2 2.3-1.6 3.9 0.6 1.5 2.4 2.2 3.9 1.6zm-12.8 11.7c1.5-0.6 2.3-2.4 1.6-3.9-0.6-1.5-2.3-2.2-3.9-1.6zm-2.3-5.5c-1.6 0.6-2.3 2.4-1.7 3.9 0.7 1.5 2.4 2.2 3.9 1.6zm-12.7 11.7c1.5-0.6 2.2-2.3 1.6-3.9-0.6-1.5-2.4-2.2-3.9-1.6zm-2.6-5.4c-1.5 0.8-2 2.6-1.3 4 0.7 1.5 2.6 2.1 4 1.3zm-11.7 12.7c1.5-0.7 2.1-2.5 1.3-4-0.7-1.5-2.5-2.1-4-1.3zm-2.8-5.3c-1.5 0.8-2.1 2.6-1.3 4 0.7 1.5 2.5 2.1 4 1.3zm-11.7 12.7c1.5-0.7 2.1-2.5 1.3-4-0.7-1.5-2.5-2.1-4-1.3zm-2.8-5.3c-1.5 0.7-2.1 2.5-1.3 4 0.7 1.5 2.5 2.1 4 1.3zm-11.7 12.7c1.5-0.8 2.1-2.6 1.3-4-0.7-1.5-2.5-2.1-4-1.3zm-2.8-5.3c-1.5 0.7-2.1 2.5-1.3 4 0.7 1.5 2.5 2.1 4 1.3zm-11.7 12.7c1.5-0.8 2.1-2.6 1.3-4-0.7-1.5-2.5-2.1-4-1.4zm-2.8-5.2c-1.5 0.7-2.1 2.5-1.3 4 0.7 1.5 2.5 2 4 1.3zm-11.7 12.7c1.5-0.8 2.1-2.6 1.3-4.1-0.7-1.4-2.5-2-4-1.3zm-2.8-5.2c-1.5 0.7-2.1 2.5-1.3 4 0.7 1.5 2.5 2 4 1.3zm-11.7 12.7c1.5-0.8 2.1-2.6 1.3-4.1-0.7-1.4-2.5-2-4-1.3zm893.2-174.7h-3 3 3zm0 15.5h-3v0.1h3 3v-0.1zm0 15.5h-3v0.1h3 3v-0.1zm0 15.5h-3v0.1h3 3v-0.1zm0 15.6h-3v0.1h3 3v-0.1zm-0.1 15.5h-2.9v0.1h2.9 3v-0.1zm0 0.1v-3 3 2.9zm-15.9 0.1v-3h-0.1v3 2.9h0.1zm-15.9 0.1v-3h-0.1v3 2.9h0.1zm-16 0.1v-3h-0.1v3 2.9h0.1zm-16 0.1v-3h-0.1v3 2.9h0.1zm-15.9 0.1v-3h-0.1v3 2.9h0.1zm-16 0.1v-3h-0.1v3 2.9h0.1zm-15.9 0.1v-3h-0.1v3 2.9h0.1zm-16 0v-2.9h-0.1v2.9 3h0.1zm-16 0v-2.9h-0.1v2.9 3h0.1zm-15.9 0v-2.9h-0.1v2.9 3h0.1zm-16 0v-2.9h-0.1v2.9 3h0.1zm-15.9 0v-2.9h-0.1v2.9 3h0.1zm-16 0v-2.9h-0.1v2.9 3h0.1zm-16 0v-2.9h-0.1v2.9 3h0.1zm-15.9 0v-2.9h-0.1v2.9 3h0.1zm-16 0v-2.9h-0.1v2.9 3h0.1zm-16 0v-2.9h-0.1v2.9 3h0.1zm-15.9 0v-3h-0.1v3 3h0.1zm-16 0v-3h-0.1v3 3h0.1zm-15.9 0v-3h-0.1v3 3h0.1zm-16 0v-3h-0.1v3 3h0.1zm-16 0v-3h-0.1v3 3h0.1zm-15.9 0v-3h-0.1v3 3h0.1zm-16 0v-3h-0.1v3 3h0.1zm-16 0v-3h-0.1v3l0.1 3h0.1zm-16 0v-3h-0.1v3 3h0.1zm-16 0v-3h-0.1v3 3h0.1zm-15.9 0v-3h-0.1v3 3h0.1zm-16 0v-3h-0.1v3 3h0.1zm-16 0v-3h-0.1v3 3h0.1zm-15.9 0v-3h-0.1v3 3h0.1zm-16 0v-3h-0.1v3 3h0.1zm-15.9 0v-3h-0.1v3 3h0.1zm-16 0v-3h-0.1v3 3h0.1zm-16 0v-3h-0.1v3 3h0.1zm-15.9 0v-3h-0.1v3 3h0.1zm-16 0v-3h-0.1v3 3h0.1zm-15.9 0l-0.1-3h-0.1l0.1 3v3h0.1zm-16 0v-3h-0.1v3 3h0.1zm-16 0v-3h-0.1v3 3h0.1zm-15.9 0v-3h-0.1v3 3h0.1zm-16 0v-3h-0.1v3 3h0.1zm-16 0v-3 3 3zm0 0l-1.1-2.8-0.1 0.1 1.1 2.7 1.2 2.8zm-15.1 6.2l-1.1-2.8h-0.1l1.1 2.8 1.2 2.8 0.1-0.1zm-15.2 6.3l-1.1-2.8h-0.1l1.1 2.8 1.2 2.8 0.1-0.1zm-15.2 6.2l-1.1-2.7h-0.1l1.1 2.8 1.2 2.7zm-15.1 6.2l-1.1-2.7h-0.1l1.1 2.8 1.1 2.7h0.1zm-15.1 6.2l-1.1-2.8-0.1 0.1 1.1 2.7 1.1 2.8h0.1zm-15.1 6.2l-1.2-2.8v0.1l1.1 2.7 1.1 2.8h0.1zm-15.1 6.2l-1.2-2.8-0.1 0.1 1.2 2.7 1.1 2.8 0.1-0.1zm-15.1 6.3l-1.2-2.8 1.1 2.8 1.1 2.7h0.1zm-0.1 0l-1.3-2.6h-0.1l1.4 2.7 1.4 2.6zm-14.5 7.4l-1.3-2.7-0.1 0.1 1.4 2.6 1.3 2.7 0.1-0.1zm-14.5 7.4l-1.4-2.6 1.3 2.7 1.4 2.6h0.1zm-14.5 7.4l-1.4-2.7-0.1 0.1 1.4 2.6 1.3 2.7h0.1zm-14.5 7.3l-1.3-2.6h-0.1l1.3 2.7 1.4 2.7 0.1-0.1zm-14.5 7.4l-1.4-2.7-0.1 0.1 1.4 2.6 1.3 2.7h0.1zm-14.5 7.3l-1.3-2.6h-0.1l1.4 2.7 1.3 2.6h0.1z"/><path class="a" d="m703.5 231.4l5.2 10.2c0.7 1.4-0.4 3.1-2 2.9l-10.2-1.4c-1.4-0.2-2.1-1.7-1.4-2.9l4.9-8.8c0.8-1.4 2.8-1.4 3.5 0z"/></svg>
