<?xml version="1.0" encoding="UTF-8"?>
<svg width="1095" height="653" fill="none" version="1.1" viewBox="0 0 1095 653" xmlns="http://www.w3.org/2000/svg">
 <path d="m0 0h1095v653h-1095z" fill="#fff"/>
 <path d="m197.27 316.66h4.157l576.04 0.316v-31.978h53l134.75 1.972c46.137 0.675 91.657 12.504 131.83 35.218 100.28 56.702 94.42 65.314 94.42 177.93h-90c-10.5-129.62-111.5-121.12-271-121.12h-587.2l-100.8 110.31-39.467-34.588 94.266-89.048z" fill="#5b5b5b"/>
 <g opacity=".5">
  <path d="m-385.63 193.36 77.412-39.344h805.18v157.04h-306.07v49.732l-76.011 71.338-34.251 32.444 36.879 38.894-30.348 30.34-36.747-40.797-11.543 10.457v117.67h-339.38l-12.806-29h-72.315v-336.02z" fill="#fff"/>
  <g stroke="#cdcdcd">
   <path d="m-313.32 592.13h-72.315v-398.77l77.412-39.344h805.18v157.04h-306.07v49.732l-76.011 71.338-34.251 32.444m-393.95 127.56 12.806 29h31.284m-44.09-29h11.152m32.938 29h308.1v-117.67l11.543-10.457m-319.64 128.12v-29h-9.121m358.98-127.56 36.879 38.894-30.348 30.34-36.747-40.797m30.216-28.437-30.216 28.437" stroke-width="1.6135"/>
   <path d="m179.32 178.03v-23.379h317.41v76.77h-50.532l-9.475 12.637h-115.59v-18.956h-32.531v18.956h-35.373v-66.028z" fill="#c4d3e8" stroke-width=".80676"/>
   <rect transform="rotate(-90,472.73,310.68)" x="472.73" y="310.68" width="49.212" height="24.203" fill="#c4d3e8" stroke-width=".80676"/>
  </g>
  <g stroke="#fff" stroke-width="1.2101">
   <path d="m225.75 311.03h27.793"/>
   <path d="m301.55 311.03h42.953"/>
   <path d="m396.3 311.03h42.953"/>
  </g>
  <path d="m319.69 326.99-3.244-3.686c-0.157-0.162-0.37-0.258-0.595-0.269-0.225 0.011-0.437 0.107-0.594 0.269l-3.245 3.686c-0.115 0.127-0.153 0.306-0.099 0.469 0.054 0.162 0.191 0.283 0.36 0.316 0.168 0.033 0.341-0.027 0.452-0.158l2.504-2.845c0.024-0.027 0.06-0.036 0.093-0.023 0.033 0.012 0.054 0.044 0.054 0.078v5.801c0 0.262 0.213 0.475 0.475 0.475 0.263 0 0.475-0.213 0.475-0.475v-5.801c0-0.035 0.022-0.066 0.055-0.078 0.032-0.013 0.069-3e-3 0.092 0.023l2.504 2.845c0.112 0.131 0.285 0.191 0.453 0.158s0.306-0.154 0.36-0.316c0.054-0.163 0.016-0.342-0.1-0.469z" fill="#fff"/>
  <path d="m323.3 327.15 3.245 3.686c0.156 0.162 0.369 0.258 0.594 0.269 0.225-0.011 0.437-0.108 0.594-0.269l3.245-3.686c0.115-0.127 0.153-0.306 0.099-0.469s-0.191-0.284-0.359-0.317c-0.169-0.033-0.342 0.028-0.453 0.158l-2.504 2.846c-0.023 0.026-0.06 0.035-0.093 0.023-0.032-0.012-0.054-0.044-0.054-0.079v-5.8c0-0.262-0.213-0.475-0.475-0.475s-0.475 0.213-0.475 0.475v5.8c0 0.035-0.022 0.067-0.054 0.079-0.033 0.012-0.07 3e-3 -0.093-0.023l-2.504-2.846c-0.111-0.13-0.284-0.191-0.453-0.158-0.168 0.033-0.305 0.154-0.359 0.317s-0.016 0.342 0.099 0.469z" fill="#fff"/>
  <g stroke="#fff" stroke-linecap="round" stroke-width="1.2101">
   <path d="m300.11 337.56h42.759"/>
   <path d="m300.11 340.38h42.759"/>
   <path d="m300.11 343.21h42.759"/>
   <path d="m300.11 346.03h42.759"/>
   <path d="m300.11 348.86h42.759"/>
   <path d="m300.11 351.68h42.759"/>
   <path d="m300.11 354.5h42.759"/>
   <path d="m300.11 357.33h42.759"/>
   <path d="m300.11 360.15h42.759"/>
   <path d="m300.11 362.97h42.759"/>
   <path d="m300.11 365.8h42.759"/>
  </g>
  <path d="m418.52 326.99-3.245-3.686c-0.157-0.162-0.37-0.258-0.595-0.269-0.225 0.011-0.437 0.107-0.594 0.269l-3.245 3.686c-0.115 0.127-0.153 0.306-0.099 0.469 0.054 0.162 0.191 0.283 0.36 0.316 0.168 0.033 0.341-0.027 0.452-0.158l2.505-2.845c0.023-0.027 0.06-0.036 0.092-0.023 0.033 0.012 0.054 0.044 0.054 0.078v5.801c0 0.262 0.213 0.475 0.475 0.475 0.263 0 0.475-0.213 0.475-0.475v-5.801c0-0.035 0.022-0.066 0.055-0.078 0.033-0.013 0.07-3e-3 0.093 0.023l2.504 2.845c0.111 0.131 0.284 0.191 0.452 0.158s0.306-0.154 0.36-0.316c0.054-0.163 0.016-0.342-0.099-0.469z" fill="#fff"/>
  <path d="m422.13 327.15 3.245 3.686c0.157 0.162 0.369 0.258 0.594 0.269 0.225-0.011 0.438-0.108 0.594-0.269l3.245-3.686c0.116-0.127 0.154-0.306 0.1-0.469s-0.192-0.284-0.36-0.317-0.341 0.028-0.453 0.158l-2.504 2.846c-0.023 0.026-0.06 0.035-0.093 0.023-0.032-0.012-0.054-0.044-0.054-0.079v-5.8c0-0.262-0.213-0.475-0.475-0.475s-0.475 0.213-0.475 0.475v5.8c0 0.035-0.022 0.067-0.054 0.079-0.033 0.012-0.07 3e-3 -0.093-0.023l-2.504-2.846c-0.111-0.13-0.284-0.191-0.453-0.158-0.168 0.033-0.305 0.154-0.359 0.317s-0.016 0.342 0.099 0.469z" fill="#fff"/>
  <g stroke="#fff" stroke-linecap="round" stroke-width="1.2101">
   <path d="m398.94 337.56h42.759"/>
   <path d="m398.94 340.38h42.759"/>
   <path d="m398.94 343.21h42.759"/>
   <path d="m398.94 346.03h42.759"/>
   <path d="m398.94 348.86h42.759"/>
   <path d="m398.94 351.68h42.759"/>
   <path d="m398.94 354.5h42.759"/>
   <path d="m398.94 357.33h42.759"/>
   <path d="m398.94 360.15h42.759"/>
   <path d="m398.94 362.97h42.759"/>
   <path d="m398.94 365.8h42.759"/>
  </g>
  <path d="m234.39 324.72 3.245 3.686c0.156 0.162 0.369 0.258 0.594 0.269 0.225-0.011 0.437-0.108 0.594-0.269l3.245-3.686c0.115-0.127 0.153-0.306 0.099-0.469s-0.191-0.284-0.359-0.317c-0.169-0.033-0.342 0.028-0.453 0.158l-2.504 2.846c-0.023 0.026-0.06 0.035-0.093 0.023s-0.054-0.044-0.054-0.079v-5.8c0-0.262-0.213-0.475-0.475-0.475s-0.475 0.213-0.475 0.475v5.8c0 0.035-0.022 0.067-0.054 0.079-0.033 0.012-0.07 3e-3 -0.093-0.023l-2.504-2.846c-0.112-0.13-0.284-0.191-0.453-0.158-0.168 0.033-0.306 0.154-0.359 0.317-0.054 0.163-0.017 0.342 0.099 0.469z" fill="#fff"/>
  <mask id="mask0_2003_24171" x="126" y="312" width="64" height="83" maskUnits="userSpaceOnUse">
   <path d="m126.58 368.66 27.372 25.453 35.794-33.028v-48.481z" fill="#d9d9d9"/>
  </mask>
  <g mask="url(#mask0_2003_24171)" stroke="#e49d68" stroke-opacity=".2" stroke-width="1.0084">
   <line x1="126.58" x2="81.293" y1="188.01" y2="505.48"/>
   <line x1="128.98" x2="83.688" y1="188.35" y2="505.82"/>
   <line x1="131.38" x2="86.086" y1="188.69" y2="506.17"/>
   <line x1="133.77" x2="88.481" y1="189.03" y2="506.51"/>
   <line x1="136.17" x2="90.879" y1="189.38" y2="506.85"/>
   <line x1="138.57" x2="93.274" y1="189.72" y2="507.19"/>
   <line x1="140.96" x2="95.668" y1="190.06" y2="507.53"/>
   <line x1="143.36" x2="98.067" y1="190.4" y2="507.87"/>
   <line x1="145.75" x2="100.46" y1="190.74" y2="508.22"/>
   <line x1="148.15" x2="102.86" y1="191.09" y2="508.56"/>
   <line x1="150.55" x2="105.25" y1="191.43" y2="508.9"/>
   <line x1="152.94" x2="107.65" y1="191.77" y2="509.24"/>
   <line x1="155.34" x2="110.05" y1="192.11" y2="509.58"/>
   <line x1="157.73" x2="112.44" y1="192.45" y2="509.92"/>
   <line x1="160.13" x2="114.84" y1="192.8" y2="510.27"/>
   <line x1="162.53" x2="117.24" y1="193.14" y2="510.61"/>
   <line x1="164.92" x2="119.63" y1="193.48" y2="510.95"/>
   <line x1="167.32" x2="122.03" y1="193.82" y2="511.29"/>
   <line x1="169.71" x2="124.42" y1="194.16" y2="511.63"/>
   <line x1="172.11" x2="126.82" y1="194.5" y2="511.98"/>
   <line x1="174.51" x2="129.22" y1="194.84" y2="512.32"/>
   <line x1="176.9" x2="131.61" y1="195.19" y2="512.66"/>
   <line x1="179.3" x2="134.01" y1="195.53" y2="513"/>
   <line x1="181.69" x2="136.4" y1="195.87" y2="513.34"/>
   <line x1="184.09" x2="138.8" y1="196.21" y2="513.68"/>
   <line x1="186.49" x2="141.2" y1="196.55" y2="514.03"/>
   <line x1="188.88" x2="143.59" y1="196.9" y2="514.37"/>
   <line x1="191.28" x2="145.98" y1="197.24" y2="514.71"/>
   <line x1="193.68" x2="148.38" y1="197.58" y2="515.05"/>
   <line x1="196.07" x2="150.78" y1="197.92" y2="515.39"/>
   <line x1="198.47" x2="153.18" y1="198.26" y2="515.74"/>
   <line x1="200.86" x2="155.57" y1="198.61" y2="516.08"/>
   <line x1="203.26" x2="157.96" y1="198.95" y2="516.42"/>
   <line x1="205.66" x2="160.36" y1="199.29" y2="516.76"/>
   <line x1="208.05" x2="162.76" y1="199.63" y2="517.1"/>
   <line x1="210.45" x2="165.16" y1="199.97" y2="517.45"/>
   <line x1="212.84" x2="167.55" y1="200.32" y2="517.79"/>
   <line x1="215.24" x2="169.95" y1="200.66" y2="518.13"/>
   <line x1="217.64" x2="172.34" y1="201" y2="518.47"/>
   <line x1="220.03" x2="174.74" y1="201.34" y2="518.81"/>
   <line x1="222.42" x2="177.13" y1="201.68" y2="519.15"/>
   <line x1="224.82" x2="179.53" y1="202.02" y2="519.5"/>
   <line x1="227.22" x2="181.93" y1="202.37" y2="519.84"/>
   <line x1="229.62" x2="184.32" y1="202.71" y2="520.18"/>
   <line x1="232.01" x2="186.72" y1="203.05" y2="520.52"/>
   <line x1="234.4" x2="189.11" y1="203.39" y2="520.86"/>
  </g>
  <g stroke="#cdcdcd">
   <g stroke-width=".80676">
    <path d="m190.97 310.66-23.574 21.253"/>
    <path d="m162.56 336.34-12.102 10.891"/>
    <path d="m141.58 354.9-14.925 14.119"/>
    <path d="m154.49 394.43-27.833-25.816"/>
   </g>
   <path d="m128.48 403.35 4.467 4.467 6.7-6.701-4.467-4.467" stroke-width="1.2101"/>
  </g>
  <rect transform="matrix(.707 -.70721 .707 .70721 129.16 402.66)" width="7.5695" height="5.4468" fill="#dde5ed"/>
  <path d="m119.63 412.2 4.467 4.467 6.701-6.7-4.467-4.467" stroke="#cdcdcd" stroke-width="1.2101"/>
  <rect transform="matrix(.707 -.70721 .707 .70721 120.32 411.51)" width="7.5695" height="5.4468" fill="#dde5ed"/>
  <path d="m110.79 421.04 4.467 4.467 6.701-6.701-4.467-4.467" stroke="#cdcdcd" stroke-width="1.2101"/>
  <rect transform="matrix(.707 -.70721 .707 .70721 111.48 420.35)" width="7.5695" height="5.4468" fill="#dde5ed"/>
  <path d="m91.207 440 4.4672 4.467 6.7008-6.701-4.4672-4.467" stroke="#cdcdcd" stroke-width="1.2101"/>
  <rect transform="matrix(.707 -.70721 .707 .70721 91.898 439.31)" width="7.5695" height="5.4468" fill="#dde5ed"/>
  <path d="m81.102 449.48 4.4671 4.467 6.7008-6.701-4.4672-4.467" stroke="#cdcdcd" stroke-width="1.2101"/>
  <rect transform="matrix(.707 -.70721 .707 .70721 81.789 448.79)" width="7.5695" height="5.4468" fill="#dde5ed"/>
  <path d="m50.153 493.33 31.581-29.703" stroke="#e6e6e6" stroke-width="1.8955"/>
  <path d="m86.492 533.05 26.245-26.927c2.617-2.685 6.885-2.83 9.678-0.329l58.287 52.202c2.509 2.247 0.92 6.405-2.449 6.405h-28.615v84.162h-46.743v-84.162h-16.403z" fill="#fff"/>
  <path d="m86.492 533.05 26.245-26.927c2.617-2.685 6.885-2.83 9.678-0.329l58.287 52.202c2.509 2.247 0.92 6.405-2.449 6.405h-28.615m-63.146-31.351v31.351m0-31.351h-47.232m47.232 31.351-47.223 1e-3m110.37-1e-3h-63.146m16.403 0v84.162h46.743v-84.162" stroke="#cdcdcd" stroke-width=".80676"/>
  <rect x="281.97" y="219.73" width="49.27" height="24.642" fill="#fff" stroke="#cdcdcd" stroke-width="1.2637"/>
  <path d="m334.88 131.65-2.19-2.487c-0.106-0.109-0.249-0.174-0.401-0.182-0.152 8e-3 -0.295 0.073-0.401 0.182l-2.19 2.487c-0.077 0.086-0.103 0.207-0.067 0.316 0.037 0.11 0.13 0.192 0.243 0.214 0.114 0.022 0.23-0.018 0.306-0.106l1.689-1.921c0.016-0.017 0.041-0.024 0.063-0.015 0.022 8e-3 0.037 0.029 0.037 0.053v3.914c0 0.177 0.143 0.32 0.32 0.32s0.321-0.143 0.321-0.32v-3.914c0-0.024 0.014-0.045 0.036-0.053 0.022-9e-3 0.047-2e-3 0.063 0.015l1.69 1.921c0.075 0.088 0.191 0.128 0.305 0.106 0.113-0.022 0.206-0.104 0.243-0.214 0.036-0.109 0.01-0.23-0.067-0.316z" fill="#213859"/>
  <path d="m326.74 153.08v-17.152h3.216m34.306 17.152v-30.731h-26.444v13.579h-2.859" stroke="#e5e5e5" stroke-width="1.2101"/>
  <path d="m334.78 135.92h3.052v4.432c0 2.265-0.634 4.718-2.658 5.734-2.172 1.091-4.438 0.725-6.158-0.225-1.748-0.965-2.277-3.077-2.277-5.074v-4.867h3.35" stroke="#213859" stroke-width="1.2101"/>
  <g stroke="#e5e5e5" stroke-width="1.2101">
   <path d="m370.91 153.07v-30.732h37.521v30.732"/>
   <path d="m232.27 153.07v-30.732h37.521v30.732"/>
   <path d="m415.58 153.07v-30.732h37.521v30.732"/>
   <path d="m460.25 153.07v-30.732h37.521v30.732"/>
  </g>
  <g fill="#cdcdcd">
   <rect x="415.94" y="122.34" width="9.291" height="19.297"/>
   <rect x="460.25" y="122.34" width="9.291" height="19.297"/>
   <rect x="370.91" y="122.34" width="9.291" height="19.297"/>
  </g>
  <path d="m289.53 131.64-2.189-2.487c-0.106-0.109-0.25-0.174-0.401-0.181-0.152 7e-3 -0.296 0.072-0.401 0.181l-2.19 2.487c-0.078 0.086-0.103 0.207-0.067 0.317 0.036 0.109 0.129 0.191 0.243 0.213 0.113 0.022 0.23-0.018 0.305-0.106l1.69-1.921c0.016-0.017 0.041-0.023 0.063-0.015s0.036 0.029 0.036 0.053v3.914c0 0.177 0.144 0.32 0.321 0.32s0.32-0.143 0.32-0.32v-3.914c0-0.024 0.015-0.045 0.037-0.053s0.047-2e-3 0.062 0.016l1.69 1.92c0.075 0.088 0.192 0.128 0.305 0.106 0.114-0.022 0.207-0.104 0.243-0.213 0.037-0.11 0.011-0.231-0.067-0.317z" fill="#213859"/>
  <path d="m289.7 131.65-2.19-2.487c-0.105-0.109-0.249-0.174-0.401-0.182-0.151 8e-3 -0.295 0.073-0.401 0.182l-2.189 2.487c-0.078 0.086-0.104 0.207-0.067 0.316 0.036 0.11 0.129 0.192 0.243 0.214 0.113 0.022 0.23-0.018 0.305-0.106l1.69-1.921c0.015-0.017 0.04-0.024 0.062-0.015 0.022 8e-3 0.037 0.029 0.037 0.053v3.914c0 0.177 0.143 0.32 0.32 0.32s0.321-0.143 0.321-0.32v-3.914c0-0.024 0.015-0.045 0.037-0.053 0.022-9e-3 0.047-2e-3 0.062 0.015l1.69 1.921c0.075 0.088 0.192 0.128 0.305 0.106 0.114-0.022 0.207-0.104 0.243-0.214 0.036-0.109 0.011-0.23-0.067-0.316z" fill="#213859"/>
  <path d="m281.56 153.08v-17.152h3.216m34.305 17.152v-30.731h-26.444v13.579h-2.858" stroke="#e5e5e5" stroke-width="1.2101"/>
  <path d="m289.6 135.92h3.053v4.432c0 2.265-0.635 4.718-2.659 5.734-2.172 1.091-4.438 0.725-6.158-0.225-1.748-0.965-2.276-3.077-2.276-5.074v-4.867h3.35" stroke="#213859" stroke-width="1.2101"/>
  <path d="m189.67 131.65-2.19-2.487c-0.106-0.109-0.249-0.174-0.401-0.182-0.152 8e-3 -0.295 0.073-0.401 0.182l-2.189 2.487c-0.078 0.086-0.104 0.207-0.067 0.316 0.036 0.11 0.129 0.192 0.242 0.214 0.114 0.022 0.231-0.018 0.306-0.106l1.689-1.921c0.016-0.017 0.041-0.024 0.063-0.015 0.022 8e-3 0.037 0.029 0.037 0.053v3.914c0 0.177 0.143 0.32 0.32 0.32s0.321-0.143 0.321-0.32v-3.914c0-0.024 0.014-0.045 0.036-0.053 0.022-9e-3 0.047-2e-3 0.063 0.015l1.69 1.921c0.075 0.088 0.191 0.128 0.305 0.106s0.206-0.104 0.243-0.214c0.036-0.109 0.011-0.23-0.067-0.316z" fill="#213859"/>
  <path d="m181.52 153.08v-17.152h3.217m34.305 17.152v-30.731h-26.444v13.579h-2.859" stroke="#e5e5e5" stroke-width="1.2101"/>
  <path d="m189.56 135.92h3.052v4.432c0 2.265-0.634 4.718-2.658 5.734-2.172 1.091-4.438 0.725-6.158-0.225-1.748-0.965-2.277-3.077-2.277-5.074v-4.867h3.351" stroke="#213859" stroke-width="1.2101"/>
  <g fill="#213859">
   <path d="m376.09 116.76-2.19-2.488c-0.106-0.109-0.249-0.174-0.401-0.181-0.152 7e-3 -0.295 0.072-0.401 0.181l-2.19 2.488c-0.077 0.085-0.103 0.206-0.066 0.316 0.036 0.11 0.129 0.191 0.242 0.214 0.114 0.022 0.231-0.019 0.306-0.107l1.689-1.92c0.016-0.018 0.041-0.024 0.063-0.016 0.022 9e-3 0.037 0.03 0.037 0.053v3.914c0 0.177 0.143 0.321 0.32 0.321s0.321-0.144 0.321-0.321v-3.914c0-0.023 0.014-0.044 0.036-0.053 0.022-8e-3 0.047-2e-3 0.063 0.016l1.69 1.92c0.075 0.088 0.191 0.129 0.305 0.107 0.113-0.023 0.206-0.104 0.243-0.214 0.036-0.11 0.011-0.231-0.067-0.316z"/>
   <path d="m420.48 116.76-2.189-2.488c-0.106-0.109-0.25-0.174-0.401-0.181-0.152 7e-3 -0.296 0.072-0.401 0.181l-2.19 2.488c-0.078 0.085-0.103 0.206-0.067 0.316s0.129 0.191 0.243 0.214c0.113 0.022 0.23-0.019 0.305-0.107l1.69-1.92c0.016-0.018 0.041-0.024 0.063-0.016 0.022 9e-3 0.036 0.03 0.036 0.053v3.914c0 0.177 0.144 0.321 0.321 0.321s0.32-0.144 0.32-0.321v-3.914c0-0.023 0.015-0.044 0.037-0.053 0.022-8e-3 0.047-2e-3 0.062 0.016l1.69 1.92c0.075 0.088 0.192 0.129 0.305 0.107 0.114-0.023 0.207-0.104 0.243-0.214 0.037-0.11 0.011-0.231-0.067-0.316z"/>
   <path d="m464.87 116.76-2.19-2.488c-0.106-0.109-0.249-0.174-0.401-0.181-0.152 7e-3 -0.295 0.072-0.401 0.181l-2.189 2.488c-0.078 0.085-0.104 0.206-0.067 0.316 0.036 0.11 0.129 0.191 0.242 0.214 0.114 0.022 0.231-0.019 0.306-0.107l1.69-1.92c0.015-0.018 0.04-0.024 0.062-0.016 0.022 9e-3 0.037 0.03 0.037 0.053v3.914c0 0.177 0.143 0.321 0.32 0.321s0.321-0.144 0.321-0.321v-3.914c0-0.023 0.014-0.044 0.036-0.053 0.023-8e-3 0.048-2e-3 0.063 0.016l1.69 1.92c0.075 0.088 0.192 0.129 0.305 0.107 0.114-0.023 0.206-0.104 0.243-0.214 0.036-0.11 0.011-0.231-0.067-0.316z"/>
  </g>
  <path d="m-17.752 385.59c4.5928-14.173-14.088-19.055-24.951-28.117-18.269-15.241-49.138-54.945-25.517-89.409 23.621-34.463 69.839-45.517 89.995-46.735 29.054-1.287 109.86 7.247 114.26 41.047 11.07 84.978-45.349 129.02-83.77 162.28-7.5239 6.512-16.076 12.014-25.793 14.157-42.715 9.422-56.795-14.437-44.228-53.218z" fill="#f6f6f6"/>
  <g fill="#2d2d2d">
   <rect transform="rotate(220.42 -.34766 368.74)" x="-.34766" y="368.74" width="12.505" height="4.0338" opacity=".8"/>
   <rect transform="rotate(220.42 2.5273 365.36)" x="2.5273" y="365.36" width="12.505" height="4.0338" opacity=".7"/>
   <rect transform="rotate(220.42 5.4062 361.98)" x="5.4062" y="361.98" width="12.505" height="4.0338" opacity=".6"/>
   <rect transform="rotate(220.42 8.2812 358.6)" x="8.2812" y="358.61" width="12.505" height="4.0338" opacity=".5"/>
   <rect transform="rotate(220.42 11.16 355.23)" x="11.16" y="355.23" width="12.505" height="4.0338" opacity=".4"/>
   <rect transform="rotate(220.42 14.035 351.85)" x="14.035" y="351.85" width="12.505" height="4.0338" opacity=".3"/>
   <rect transform="rotate(220.42 16.914 348.47)" x="16.914" y="348.47" width="12.505" height="4.0338" opacity=".2"/>
   <rect transform="rotate(40.423 -1.043 327.88)" x="-1.043" y="327.88" width="12.505" height="4.0338"/>
   <rect transform="rotate(40.423 -3.9219 331.25)" x="-3.9219" y="331.25" width="12.505" height="4.0338" opacity=".8"/>
   <rect transform="rotate(40.423 -6.7969 334.63)" x="-6.7969" y="334.63" width="12.505" height="4.0338" opacity=".7"/>
  </g>
  <rect transform="rotate(62.497 132.55 275.45)" x="132.55" y="275.45" width="8.471" height="7.2608" rx="1.2101" stroke="#cdcdcd" stroke-width=".80676"/>
  <rect transform="rotate(152.5 134.83 282.45)" x="134.83" y="282.45" width="4.8405" height="6.0507" rx=".40338" fill="#dde5ed"/>
  <rect transform="rotate(51.916 137.06 283.97)" x="137.06" y="283.97" width="8.471" height="7.2608" rx="1.2101" stroke="#cdcdcd" stroke-width=".80676"/>
  <rect transform="rotate(141.92 140.58 290.43)" x="140.58" y="290.43" width="4.8405" height="6.0507" rx=".40338" fill="#dde5ed"/>
  <rect transform="rotate(41.334 143.05 291.52)" x="143.05" y="291.52" width="8.471" height="7.2608" rx="1.2101" stroke="#cdcdcd" stroke-width=".80676"/>
  <rect transform="rotate(131.33 147.7 297.23)" x="147.7" y="297.23" width="4.8405" height="6.0507" rx=".40338" fill="#dde5ed"/>
  <rect transform="rotate(30.752 150.32 297.85)" x="150.32" y="297.85" width="8.471" height="7.2608" rx="1.2101" stroke="#cdcdcd" stroke-width=".80676"/>
  <rect transform="rotate(120.75 155.94 302.6)" x="155.94" y="302.6" width="4.8406" height="6.0507" rx=".40338" fill="#dde5ed"/>
  <rect transform="rotate(20.171 158.64 302.72)" x="158.63" y="302.72" width="8.471" height="7.2608" rx="1.2101" stroke="#cdcdcd" stroke-width=".80676"/>
  <rect transform="rotate(110.17 165.04 306.36)" x="165.04" y="306.36" width="4.8406" height="6.0507" rx=".40338" fill="#dde5ed"/>
  <rect x="-94.539" y="181.85" width="344.08" height="30.254" fill="#c4d3e8" stroke="#cdcdcd" stroke-width=".80676"/>
  <g fill="#2d2d2d" stroke="#2d2d2d" stroke-width="1.2101">
   <path d="m241.22 296.81h-6.051l3.185 6.051z"/>
   <path d="m53.056 464.38-4.2785 4.278 6.5304 2.027z"/>
   <path d="m326.33 296.81h-6.051l3.185 6.051z"/>
   <path d="m418.71 296.81h-6.051l3.185 6.051z"/>
  </g>
  <path d="m39.266 533.46 46.854-0.057v30.657l-46.853 0.201z" fill="#fff"/>
  <path d="m195.28 374.51c0.015 6.603 5.559 12.058 12.358 12.113 6.731 0.054 12.16-5.314 12.078-11.917-0.082-6.512-5.627-11.875-12.292-11.928-6.664-0.054-12.158 5.13-12.144 11.732zc-4.275 12.622-13.634 21.259-28.077 25.82m-7.103 21.036c13.458 17.715 17.07 37.461 10.7 59.419m40.719-15.447c-15.95 7.667-21.977 20.549-17.95 38.923m52.534-78.631c-14.883 0.523-23.029 9.078-25.109 25.019m37.705-76.457c8.205 1.075 13.089 4.874 14.112 11.668m9.056 12.453c-13.259-0.473-20.441 5.339-22.284 16.879m-56.849-80.422c6.788 9.867 6.575 19.677-1.315 29.702m7.751-26.349c17.869 4.819 30.45 14.182 38.216 28m47.226 29.449c10.138-4.963 21.114-5.242 33.12 0.265m17.503 0.14c9.935-4.965 20.978-5.243 33.052 0.264m17.704 0.142c9.802-4.966 20.777-5.153 33.12 0.265m20.528-7.723c-0.14-7.796 3.463-12.169 10.943-13.026m9.89-7.716c7.192-15.441 18.576-24.612 34.487-27.511m-296.54 99.147c7.001 0.056 12.677 5.787 12.822 12.941 0.077 7.245-5.557 13.069-12.626 13.013-7.135-0.057-12.878-5.972-12.887-13.217-0.011-7.062 5.69-12.793 12.691-12.737zm38.214-39.037c6.799 0.055 12.544 5.603 12.826 12.483 0.214 6.88-5.149 12.431-12.082 12.376-6.934-0.056-12.746-5.696-12.893-12.576-0.147-6.879 5.35-12.337 12.149-12.283zm38.111-26.198c6.799 0.054 12.613 5.512 13.03 12.21 0.417 6.789-4.878 12.341-11.812 12.285-6.933-0.055-12.813-5.604-13.095-12.485-0.283-6.696 5.011-12.065 11.877-12.01zm50.084 0.401c6.799 0.054 12.949 5.514 13.501 12.213 0.552 6.791-4.609 12.343-11.61 12.287-6.934-0.055-12.948-5.606-13.432-12.487-0.417-6.698 4.743-12.159 11.541-12.013zm50.151 0.401c6.866 0.055 13.016 5.515 13.771 12.215 0.753 6.792-4.206 12.347-11.207 12.291-6.933-0.056-13.083-5.607-13.768-12.491-0.62-6.699 4.338-12.07 11.204-12.015zm50.151 0.401c6.799 0.054 13.151 5.516 14.107 12.218 0.956 6.794-3.869 12.349-10.87 12.293-6.866-0.055-13.284-5.608-14.104-12.493-0.889-6.701 4.001-12.073 10.867-12.018zm-176.45-25.53c6.799 0.054 12.479 5.327 12.763 11.932 0.283 6.605-5.011 11.974-11.877 11.919s-12.545-5.511-12.761-12.116c-0.217-6.604 5.076-11.789 11.875-11.735zm49.342 0.486c6.799 0.055 12.681 5.329 13.1 11.935 0.485 6.607-4.674 11.976-11.54 11.921-6.799-0.054-12.68-5.512-13.098-12.118-0.351-6.605 4.806-11.791 11.538-11.738zm49.613 0.397c6.731 0.054 12.681 5.329 13.301 11.937 0.62 6.607-4.337 11.978-11.136 11.924s-12.747-5.513-13.367-12.12c-0.486-6.607 4.537-11.794 11.202-11.741zm49.41 0.395c6.732 0.054 12.883 5.331 13.706 11.94 0.822 6.609-4.001 11.982-10.8 11.927-6.866-0.055-13.016-5.515-13.771-12.123-0.688-6.609 4.134-11.797 10.865-11.744zm49.545 0.397c6.732 0.053 13.017 5.423 14.042 11.942 1.025 6.611-3.731 11.984-10.53 11.929-6.866-0.055-13.151-5.516-14.04-12.126-0.957-6.61 3.797-11.799 10.528-11.745zm-245.36-36.536c6.597 0.053 12.076 5.14 12.16 11.469 0.085 6.328-5.207 11.421-11.939 11.368-6.664-0.054-12.076-5.233-12.093-11.56-0.084-6.329 5.207-11.33 11.872-11.277zm46.179 0.369c6.664 0.054 12.211 5.142 12.497 11.472s-4.939 11.515-11.67 11.461c-6.731-0.145-12.278-5.325-12.564-11.655-0.151-6.329 5.073-11.331 11.737-11.278zm48.468 0.388c6.597 0.053 12.414 5.143 12.834 11.474 0.421 6.331-4.602 11.427-11.401 11.372-6.664-0.053-12.412-5.235-12.833-11.566-0.353-6.33 4.736-11.333 11.4-11.28zm48.603 0.389c6.597 0.053 12.413 5.143 13.036 11.476 0.622 6.332-4.266 11.429-10.93 11.375-6.664-0.053-12.547-5.235-13.035-11.567-0.556-6.241 4.399-11.336 10.929-11.284zm48.467 0.479c6.597 0.053 12.548 5.144 13.373 11.479 0.892 6.334-3.996 11.431-10.593 11.378-6.732-0.054-12.749-5.329-13.439-11.571-0.758-6.333 4.062-11.339 10.659-11.286zm48.468 0.388c6.598 0.053 12.818 5.146 13.777 11.481 0.959 6.336-3.727 11.434-10.391 11.381-6.732-0.054-12.884-5.239-13.776-11.574-0.824-6.334 3.861-11.34 10.39-11.288zm49.478 0.396c6.665 0.053 12.952 5.147 14.113 11.484s-3.323 11.437-10.122 11.382c-6.664-0.053-12.951-5.239-14.044-11.575-1.027-6.336 3.389-11.345 10.053-11.291zm-331.68 82.358c6.866 0.055 12.342 5.601 12.287 12.479-0.055 6.877-5.687 12.426-12.621 12.371-7.001-0.056-12.476-5.694-12.354-12.571 0.123-6.877 5.821-12.334 12.688-12.279z" stroke="#939393" stroke-miterlimit="22.926" stroke-width=".43615"/>
  <rect x="692.5" y="285.5" width="84" height="31" fill="#d9d9d9" stroke="#cdcdcd"/>
 </g>
 <path d="m731.08 252.36h1.84v5.45c0 0.64 0.158 1.119 0.475 1.435 0.32 0.317 0.804 0.475 1.453 0.475 0.644 0 1.117-0.16 1.418-0.481 0.304-0.324 0.457-0.828 0.457-1.511v-5.368h1.775v5.321c0 1.164-0.307 2.031-0.92 2.601-0.609 0.571-1.539 0.856-2.789 0.856-1.262 0-2.195-0.281-2.801-0.844-0.605-0.566-0.908-1.437-0.908-2.613zm9.407 8.643v-8.643h2.666l3.252 6.95v-6.95h1.658v8.643h-2.56l-3.358-7.154v7.154zm9.594 0v-8.643h1.84v8.643zm5.716 0v-7.236h-2.543v-1.407h6.943v1.407h-2.543v7.236zm5.751 0v-8.643h5.736v1.43h-3.861v2.039h3.621v1.406h-3.621v2.327h3.996v1.441zm7.555 0v-8.643h2.701c0.723 0 1.303 0.057 1.74 0.17 0.438 0.114 0.842 0.297 1.213 0.551 0.531 0.371 0.934 0.863 1.207 1.477 0.274 0.609 0.41 1.322 0.41 2.138 0 1.414-0.386 2.487-1.16 3.217-0.769 0.727-1.906 1.09-3.41 1.09zm1.84-1.43h0.931c0.891 0 1.543-0.23 1.957-0.691 0.418-0.461 0.627-1.186 0.627-2.174 0-1.012-0.209-1.752-0.627-2.221-0.414-0.472-1.066-0.709-1.957-0.709h-0.931zm-44.928 14.84c-0.062 0.891-0.394 1.57-0.996 2.039-0.602 0.465-1.445 0.697-2.531 0.697-1.289 0-2.266-0.375-2.93-1.125s-0.996-1.851-0.996-3.304c0-1.449 0.342-2.561 1.025-3.334 0.684-0.778 1.662-1.166 2.936-1.166 1.039 0 1.861 0.234 2.467 0.703 0.609 0.465 0.935 1.109 0.978 1.934h-1.705c-0.019-0.415-0.18-0.745-0.48-0.991-0.301-0.25-0.698-0.375-1.19-0.375-0.719 0-1.262 0.27-1.629 0.809-0.363 0.535-0.545 1.33-0.545 2.385 0 1.086 0.18 1.892 0.539 2.42 0.36 0.523 0.909 0.785 1.647 0.785 0.476 0 0.865-0.135 1.166-0.405 0.305-0.269 0.473-0.627 0.504-1.072zm1.596 2.59v-8.643h1.864v3.457h3.263v-3.457h1.799v8.643h-1.799v-3.779h-3.263v3.779zm8.95 0v-8.643h5.737v1.43h-3.862v2.039h3.621v1.406h-3.621v2.327h3.996v1.441zm14.686-2.59c-0.062 0.891-0.394 1.57-0.996 2.039-0.601 0.465-1.445 0.697-2.531 0.697-1.289 0-2.266-0.375-2.93-1.125s-0.996-1.851-0.996-3.304c0-1.449 0.342-2.561 1.026-3.334 0.683-0.778 1.662-1.166 2.935-1.166 1.039 0 1.862 0.234 2.467 0.703 0.609 0.465 0.936 1.109 0.979 1.934h-1.706c-0.019-0.415-0.179-0.745-0.48-0.991-0.301-0.25-0.697-0.375-1.189-0.375-0.719 0-1.262 0.27-1.629 0.809-0.364 0.535-0.545 1.33-0.545 2.385 0 1.086 0.179 1.892 0.539 2.42 0.359 0.523 0.908 0.785 1.646 0.785 0.477 0 0.865-0.135 1.166-0.405 0.305-0.269 0.473-0.627 0.504-1.072zm1.608 2.59v-8.643h1.84v3.733l2.819-3.733h2.074l-3.035 3.868 3.334 4.775h-2.145l-3.047-4.477v4.477zm7.351-2.291v-1.588h3.099v1.588zm4.83 2.291v-8.643h1.84v8.643zm3.853 0v-8.643h2.666l3.252 6.95v-6.95h1.658v8.643h-2.561l-3.357-7.154v7.154z" fill="#5b5b5b"/>
 <rect x="892.5" y="12.5" width="191" height="73" fill="#f3f8fc"/>
 <rect x="892.5" y="12.5" width="191" height="73" stroke="#dde5ed"/>
 <path d="m938.3 35v-8.7273h1.845v7.206h3.742v1.5213zm14.729-4.3636c0 0.9517-0.181 1.7613-0.542 2.4289-0.358 0.6677-0.846 1.1776-1.466 1.5299-0.616 0.3494-1.309 0.5241-2.079 0.5241-0.776 0-1.472-0.1761-2.088-0.5284-0.617-0.3523-1.104-0.8622-1.462-1.5298s-0.537-1.4759-0.537-2.4247c0-0.9517 0.179-1.7614 0.537-2.429s0.845-1.1762 1.462-1.5256c0.616-0.3523 1.312-0.5284 2.088-0.5284 0.77 0 1.463 0.1761 2.079 0.5284 0.62 0.3494 1.108 0.858 1.466 1.5256 0.361 0.6676 0.542 1.4773 0.542 2.429zm-1.871 0c0-0.6165-0.093-1.1364-0.277-1.5597-0.182-0.4233-0.439-0.7443-0.772-0.9631-0.332-0.2187-0.721-0.3281-1.167-0.3281s-0.835 0.1094-1.168 0.3281c-0.332 0.2188-0.591 0.5398-0.775 0.9631-0.182 0.4233-0.273 0.9432-0.273 1.5597 0 0.6164 0.091 1.1363 0.273 1.5596 0.184 0.4233 0.443 0.7443 0.775 0.9631 0.333 0.2187 0.722 0.3281 1.168 0.3281s0.835-0.1094 1.167-0.3281c0.333-0.2188 0.59-0.5398 0.772-0.9631 0.184-0.4233 0.277-0.9432 0.277-1.5596zm11.178-1.3083h-1.867c-0.034-0.2415-0.104-0.4559-0.209-0.6434-0.105-0.1904-0.24-0.3523-0.404-0.4858-0.165-0.1336-0.356-0.2358-0.571-0.3069-0.214-0.071-0.445-0.1065-0.695-0.1065-0.452 0-0.845 0.1122-1.18 0.3367-0.336 0.2215-0.596 0.5454-0.78 0.9716-0.185 0.4232-0.277 0.9374-0.277 1.5426 0 0.6221 0.092 1.1448 0.277 1.5681 0.187 0.4233 0.449 0.7429 0.784 0.9589 0.335 0.2159 0.723 0.3238 1.163 0.3238 0.247 0 0.476-0.0327 0.686-0.098 0.213-0.0653 0.402-0.1605 0.567-0.2855 0.165-0.1278 0.301-0.2827 0.409-0.4645 0.111-0.1818 0.188-0.3892 0.23-0.6222l1.867 0.0086c-0.049 0.4005-0.169 0.7869-0.363 1.1591-0.19 0.3693-0.447 0.7002-0.771 0.9929-0.321 0.2897-0.704 0.5198-1.15 0.6903-0.444 0.1676-0.945 0.2514-1.505 0.2514-0.778 0-1.474-0.1761-2.088-0.5284-0.611-0.3523-1.094-0.8622-1.449-1.5298-0.352-0.6676-0.528-1.4759-0.528-2.4247 0-0.9517 0.179-1.7614 0.537-2.429s0.844-1.1762 1.457-1.5256c0.614-0.3523 1.304-0.5284 2.071-0.5284 0.506 0 0.975 0.071 1.407 0.2131 0.434 0.142 0.819 0.3494 1.154 0.6221 0.336 0.2699 0.608 0.6009 0.819 0.9929 0.213 0.3921 0.349 0.8409 0.409 1.3466zm2.903 5.6719h-1.977l3.013-8.7273h2.377l3.009 8.7273h-1.977l-2.186-6.733h-0.069zm-0.124-3.4304h4.671v1.4403h-4.671zm6.438-3.7756v-1.5213h7.167v1.5213h-2.672v7.206h-1.824v-7.206zm8.588 7.206v-8.7273h5.88v1.5213h-4.035v2.0796h3.733v1.5213h-3.733v2.0838h4.052v1.5213zm10.681 0h-3.094v-8.7273h3.119c0.878 0 1.634 0.1747 2.268 0.5242 0.633 0.3466 1.12 0.8451 1.461 1.4957 0.344 0.6506 0.516 1.429 0.516 2.3352 0 0.9091-0.172 1.6904-0.516 2.3438-0.341 0.6534-0.831 1.1548-1.47 1.5043-0.636 0.3494-1.398 0.5241-2.284 0.5241zm-1.249-1.581h1.172c0.546 0 1.004-0.0966 1.377-0.2897 0.375-0.1961 0.656-0.4986 0.843-0.9077 0.191-0.4119 0.286-0.9432 0.286-1.5938 0-0.6448-0.095-1.1718-0.286-1.5809-0.187-0.4091-0.467-0.7103-0.839-0.9034-0.372-0.1932-0.831-0.2898-1.377-0.2898h-1.176zm18.159-2.7826c0 0.9517-0.18 1.7613-0.54 2.4289-0.36 0.6677-0.84 1.1776-1.46 1.5299-0.62 0.3494-1.31 0.5241-2.08 0.5241-0.78 0-1.47-0.1761-2.09-0.5284s-1.1-0.8622-1.46-1.5298-0.539-1.4759-0.539-2.4247c0-0.9517 0.179-1.7614 0.539-2.429s0.84-1.1762 1.46-1.5256c0.62-0.3523 1.31-0.5284 2.09-0.5284 0.77 0 1.46 0.1761 2.08 0.5284 0.62 0.3494 1.1 0.858 1.46 1.5256s0.54 1.4773 0.54 2.429zm-1.87 0c0-0.6165-0.09-1.1364-0.27-1.5597-0.19-0.4233-0.44-0.7443-0.78-0.9631-0.33-0.2187-0.72-0.3281-1.16-0.3281-0.45 0-0.84 0.1094-1.17 0.3281-0.33 0.2188-0.59 0.5398-0.78 0.9631-0.18 0.4233-0.27 0.9432-0.27 1.5597 0 0.6164 0.09 1.1363 0.27 1.5596 0.19 0.4233 0.45 0.7443 0.78 0.9631 0.33 0.2187 0.72 0.3281 1.17 0.3281 0.44 0 0.83-0.1094 1.16-0.3281 0.34-0.2188 0.59-0.5398 0.78-0.9631 0.18-0.4233 0.27-0.9432 0.27-1.5596zm8.87-4.3637h1.85v5.6676c0 0.6364-0.16 1.1932-0.46 1.6705s-0.72 0.8494-1.27 1.1165c-0.54 0.2642-1.17 0.3963-1.89 0.3963-0.73 0-1.36-0.1321-1.9-0.3963-0.54-0.2671-0.97-0.6392-1.27-1.1165s-0.45-1.0341-0.45-1.6705v-5.6676h1.85v5.51c0 0.3324 0.07 0.6278 0.21 0.8863 0.15 0.2586 0.36 0.4617 0.63 0.6094 0.26 0.1477 0.57 0.2216 0.93 0.2216s0.67-0.0739 0.93-0.2216c0.27-0.1477 0.47-0.3508 0.62-0.6094 0.15-0.2585 0.22-0.5539 0.22-0.8863zm3.27 1.5213v-1.5213h7.17v1.5213h-2.67v7.206h-1.83v-7.206zm13.32 0.9887c-0.03-0.3438-0.18-0.6108-0.43-0.8012-0.26-0.1903-0.61-0.2855-1.06-0.2855-0.3 0-0.55 0.0426-0.76 0.1279-0.21 0.0823-0.37 0.1974-0.48 0.3451-0.1 0.1478-0.16 0.3154-0.16 0.5029 0 0.1562 0.03 0.2926 0.1 0.4091 0.07 0.1164 0.17 0.2173 0.3 0.3025 0.13 0.0824 0.28 0.1549 0.44 0.2174 0.17 0.0596 0.35 0.1107 0.54 0.1534l0.79 0.1875c0.38 0.0852 0.73 0.1988 1.04 0.3409 0.32 0.142 0.6 0.3167 0.83 0.5241s0.41 0.4517 0.54 0.733c0.13 0.2812 0.2 0.6037 0.2 0.9673 0 0.5341-0.14 0.9972-0.41 1.3892-0.26 0.3892-0.65 0.6918-1.16 0.9077-0.5 0.213-1.11 0.3196-1.82 0.3196-0.7 0-1.31-0.108-1.84-0.3239-0.52-0.2159-0.92-0.5355-1.22-0.9588-0.28-0.4261-0.44-0.9531-0.45-1.581h1.78c0.02 0.2927 0.11 0.537 0.26 0.733 0.15 0.1932 0.35 0.3395 0.6 0.4389 0.25 0.0966 0.54 0.1449 0.85 0.1449 0.32 0 0.59-0.0455 0.82-0.1364s0.41-0.2173 0.54-0.3792c0.13-0.162 0.19-0.348 0.19-0.5583 0-0.196-0.06-0.3608-0.17-0.4943-0.12-0.1335-0.29-0.2471-0.51-0.3409-0.22-0.0937-0.48-0.179-0.8-0.2557l-0.95-0.2386c-0.74-0.179-1.32-0.4588-1.75-0.8395-0.42-0.3807-0.63-0.8935-0.63-1.5383 0-0.5285 0.14-0.9901 0.42-1.385 0.29-0.3949 0.68-0.7031 1.18-0.9247s1.07-0.3324 1.71-0.3324 1.21 0.1108 1.69 0.3324c0.49 0.2216 0.87 0.5298 1.14 0.9247s0.4 0.8523 0.41 1.3722zm5.22-2.51v8.7273h-1.85v-8.7273zm4.85 8.7273h-3.09v-8.7273h3.12c0.87 0 1.63 0.1747 2.26 0.5242 0.64 0.3466 1.12 0.8451 1.46 1.4957 0.35 0.6506 0.52 1.429 0.52 2.3352 0 0.9091-0.17 1.6904-0.52 2.3438-0.34 0.6534-0.83 1.1548-1.47 1.5043-0.63 0.3494-1.39 0.5241-2.28 0.5241zm-1.25-1.581h1.17c0.55 0 1.01-0.0966 1.38-0.2897 0.38-0.1961 0.66-0.4986 0.84-0.9077 0.19-0.4119 0.29-0.9432 0.29-1.5938 0-0.6448-0.1-1.1718-0.29-1.5809-0.18-0.4091-0.46-0.7103-0.84-0.9034-0.37-0.1932-0.83-0.2898-1.37-0.2898h-1.18zm7.13 1.581v-8.7273h5.88v1.5213h-4.04v2.0796h3.74v1.5213h-3.74v2.0838h4.05v1.5213zm18.62-4.3636c0 0.9517-0.18 1.7613-0.54 2.4289-0.36 0.6677-0.85 1.1776-1.46 1.5299-0.62 0.3494-1.31 0.5241-2.08 0.5241-0.78 0-1.48-0.1761-2.09-0.5284-0.62-0.3523-1.11-0.8622-1.46-1.5298-0.36-0.6676-0.54-1.4759-0.54-2.4247 0-0.9517 0.18-1.7614 0.54-2.429 0.35-0.6676 0.84-1.1762 1.46-1.5256 0.61-0.3523 1.31-0.5284 2.09-0.5284 0.77 0 1.46 0.1761 2.08 0.5284 0.61 0.3494 1.1 0.858 1.46 1.5256s0.54 1.4773 0.54 2.429zm-1.87 0c0-0.6165-0.09-1.1364-0.28-1.5597-0.18-0.4233-0.43-0.7443-0.77-0.9631-0.33-0.2187-0.72-0.3281-1.16-0.3281-0.45 0-0.84 0.1094-1.17 0.3281-0.33 0.2188-0.59 0.5398-0.78 0.9631-0.18 0.4233-0.27 0.9432-0.27 1.5597 0 0.6164 0.09 1.1363 0.27 1.5596 0.19 0.4233 0.45 0.7443 0.78 0.9631 0.33 0.2187 0.72 0.3281 1.17 0.3281 0.44 0 0.83-0.1094 1.16-0.3281 0.34-0.2188 0.59-0.5398 0.77-0.9631 0.19-0.4233 0.28-0.9432 0.28-1.5596zm3.48 4.3636v-8.7273h5.78v1.5213h-3.94v2.0796h3.55v1.5213h-3.55v3.6051zm-155.96 9.2727h2.276l2.403 5.8637h0.103l2.403-5.8637h2.276v8.7273h-1.79v-5.6804h-0.073l-2.258 5.6378h-1.219l-2.258-5.6591h-0.073v5.7017h-1.79zm12.725 8.7273h-1.977l3.013-8.7273h2.377l3.009 8.7273h-1.977l-2.186-6.733h-0.069zm-0.124-3.4304h4.671v1.4403h-4.671zm9.682-5.2969v8.7273h-1.846v-8.7273zm9.057 0v8.7273h-1.593l-3.797-5.4929h-0.064v5.4929h-1.845v-8.7273h1.619l3.767 5.4887h0.077v-5.4887zm4.782 8.7273v-8.7273h3.494c0.643 0 1.178 0.0952 1.607 0.2855 0.429 0.1904 0.751 0.4546 0.967 0.7927 0.216 0.3352 0.324 0.7215 0.324 1.159 0 0.341-0.068 0.6407-0.204 0.8992-0.137 0.2557-0.324 0.4659-0.563 0.6307-0.236 0.1619-0.506 0.277-0.809 0.3451v0.0853c0.332 0.0142 0.643 0.1079 0.933 0.2812 0.292 0.1733 0.53 0.4162 0.711 0.7287 0.182 0.3097 0.273 0.679 0.273 1.108 0 0.463-0.115 0.8764-0.345 1.24-0.227 0.3608-0.564 0.6463-1.01 0.8566-0.446 0.2102-0.996 0.3153-1.649 0.3153zm1.845-1.5085h1.505c0.514 0 0.889-0.098 1.125-0.2941 0.235-0.1988 0.353-0.463 0.353-0.7926 0-0.2414-0.058-0.4545-0.174-0.6392-0.117-0.1846-0.283-0.3295-0.499-0.4346-0.213-0.1051-0.467-0.1577-0.763-0.1577h-1.547zm0-3.5668h1.368c0.253 0 0.478-0.044 0.674-0.1321 0.198-0.0909 0.355-0.2187 0.468-0.3835 0.117-0.1648 0.175-0.3622 0.175-0.5923 0-0.3154-0.112-0.5696-0.337-0.7628-0.221-0.1932-0.537-0.2898-0.946-0.2898h-1.402zm11.719-3.652h1.846v5.6676c0 0.6364-0.152 1.1932-0.456 1.6705-0.302 0.4773-0.723 0.8494-1.266 1.1165-0.543 0.2642-1.175 0.3963-1.896 0.3963-0.725 0-1.358-0.1321-1.901-0.3963-0.543-0.2671-0.964-0.6392-1.266-1.1165-0.301-0.4773-0.451-1.0341-0.451-1.6705v-5.6676h1.845v5.51c0 0.3324 0.072 0.6278 0.217 0.8863 0.148 0.2586 0.355 0.4617 0.622 0.6094s0.579 0.2216 0.934 0.2216c0.358 0 0.669-0.0739 0.933-0.2216 0.267-0.1477 0.473-0.3508 0.618-0.6094 0.148-0.2585 0.221-0.5539 0.221-0.8863zm5.449 0v8.7273h-1.845v-8.7273zm1.758 8.7273v-8.7273h1.845v7.206h3.742v1.5213zm10.142 0h-3.093v-8.7273h3.119c0.878 0 1.633 0.1747 2.267 0.5242 0.633 0.3466 1.121 0.8451 1.462 1.4957 0.343 0.6506 0.515 1.429 0.515 2.3352 0 0.9091-0.172 1.6904-0.515 2.3438-0.341 0.6534-0.831 1.1548-1.471 1.5043-0.636 0.3494-1.397 0.5241-2.284 0.5241zm-1.248-1.581h1.172c0.545 0 1.004-0.0966 1.376-0.2897 0.375-0.1961 0.656-0.4986 0.844-0.9077 0.19-0.4119 0.285-0.9432 0.285-1.5938 0-0.6448-0.095-1.1718-0.285-1.5809-0.188-0.4091-0.468-0.7103-0.84-0.9034-0.372-0.1932-0.831-0.2898-1.376-0.2898h-1.176zm8.97-7.1463v8.7273h-1.845v-8.7273zm9.058 0v8.7273h-1.594l-3.797-5.4929h-0.064v5.4929h-1.845v-8.7273h1.62l3.767 5.4887h0.076v-5.4887zm7.556 2.8211c-0.06-0.2074-0.15-0.3907-0.26-0.5498-0.1-0.1619-0.24-0.2983-0.39-0.4091-0.16-0.1136-0.33-0.2002-0.53-0.2599s-0.41-0.0895-0.65-0.0895c-0.45 0-0.84 0.1108-1.179 0.3324-0.335 0.2216-0.596 0.544-0.784 0.9673-0.187 0.4205-0.281 0.9347-0.281 1.5426 0 0.608 0.092 1.125 0.277 1.5512 0.184 0.4261 0.446 0.7514 0.784 0.9758 0.333 0.2216 0.733 0.3324 1.193 0.3324 0.42 0 0.78-0.0738 1.07-0.2216 0.3-0.1505 0.53-0.3622 0.69-0.6349 0.15-0.2727 0.23-0.5952 0.23-0.9673l0.38 0.0554h-2.25v-1.3893h3.65v1.0995c0 0.767-0.16 1.4261-0.48 1.9772-0.33 0.5483-0.77 0.9716-1.34 1.2699-0.57 0.2955-1.22 0.4432-1.95 0.4432-0.82 0-1.541-0.1804-2.16-0.5412-0.62-0.3636-1.103-0.8792-1.449-1.5469-0.344-0.6704-0.516-1.4659-0.516-2.3863 0-0.7074 0.102-1.3381 0.307-1.8921 0.207-0.5568 0.497-1.0284 0.869-1.4147 0.372-0.3864 0.806-0.6804 1.3-0.8821s1.029-0.3026 1.609-0.3026c0.49 0 0.95 0.0725 1.38 0.2173 0.42 0.1421 0.8 0.3438 1.13 0.6052 0.33 0.2613 0.61 0.5724 0.82 0.9332 0.21 0.3579 0.34 0.7528 0.4 1.1847zm5.52 4.713-0.05 0.4688c-0.04 0.375-0.11 0.7485-0.21 1.1207-0.11 0.375-0.21 0.7145-0.33 1.0185-0.11 0.304-0.2 0.5426-0.27 0.7159h-1.17c0.04-0.1676 0.1-0.402 0.17-0.7031 0.08-0.2983 0.15-0.6336 0.21-1.0057 0.07-0.3722 0.11-0.7514 0.13-1.1378l0.02-0.4773zm12.24-4.4787h-1.87c-0.03-0.2415-0.1-0.4559-0.21-0.6434-0.1-0.1904-0.24-0.3523-0.4-0.4858-0.17-0.1336-0.36-0.2358-0.57-0.3069-0.22-0.071-0.45-0.1065-0.7-0.1065-0.45 0-0.84 0.1122-1.18 0.3367-0.33 0.2215-0.59 0.5454-0.78 0.9716-0.18 0.4232-0.28 0.9374-0.28 1.5426 0 0.6221 0.1 1.1448 0.28 1.5681 0.19 0.4233 0.45 0.7429 0.79 0.9589 0.33 0.2159 0.72 0.3238 1.16 0.3238 0.25 0 0.48-0.0327 0.69-0.098s0.4-0.1605 0.56-0.2855c0.17-0.1278 0.3-0.2827 0.41-0.4645s0.19-0.3892 0.23-0.6222l1.87 0.0086c-0.05 0.4005-0.17 0.7869-0.36 1.1591-0.19 0.3693-0.45 0.7002-0.78 0.9929-0.32 0.2897-0.7 0.5198-1.15 0.6903-0.44 0.1676-0.94 0.2514-1.5 0.2514-0.78 0-1.48-0.1761-2.09-0.5284s-1.09-0.8622-1.45-1.5298c-0.35-0.6676-0.53-1.4759-0.53-2.4247 0-0.9517 0.18-1.7614 0.54-2.429s0.84-1.1762 1.46-1.5256c0.61-0.3523 1.3-0.5284 2.07-0.5284 0.51 0 0.97 0.071 1.41 0.2131 0.43 0.142 0.82 0.3494 1.15 0.6221 0.34 0.2699 0.61 0.6009 0.82 0.9929 0.21 0.3921 0.35 0.8409 0.41 1.3466zm1.56 5.6719v-8.7273h1.85v7.206h3.74v1.5213zm14.73-4.3636c0 0.9517-0.18 1.7613-0.54 2.4289-0.36 0.6677-0.85 1.1776-1.47 1.5299-0.61 0.3494-1.31 0.5241-2.08 0.5241s-1.47-0.1761-2.09-0.5284c-0.61-0.3523-1.1-0.8622-1.46-1.5298-0.35-0.6676-0.53-1.4759-0.53-2.4247 0-0.9517 0.18-1.7614 0.53-2.429 0.36-0.6676 0.85-1.1762 1.46-1.5256 0.62-0.3523 1.32-0.5284 2.09-0.5284s1.47 0.1761 2.08 0.5284c0.62 0.3494 1.11 0.858 1.47 1.5256s0.54 1.4773 0.54 2.429zm-1.87 0c0-0.6165-0.09-1.1364-0.28-1.5597-0.18-0.4233-0.44-0.7443-0.77-0.9631-0.33-0.2187-0.72-0.3281-1.17-0.3281-0.44 0-0.83 0.1094-1.16 0.3281-0.34 0.2188-0.6 0.5398-0.78 0.9631s-0.27 0.9432-0.27 1.5597c0 0.6164 0.09 1.1363 0.27 1.5596s0.44 0.7443 0.78 0.9631c0.33 0.2187 0.72 0.3281 1.16 0.3281 0.45 0 0.84-0.1094 1.17-0.3281 0.33-0.2188 0.59-0.5398 0.77-0.9631 0.19-0.4233 0.28-0.9432 0.28-1.5596zm8.21-1.8537c-0.03-0.3438-0.18-0.6108-0.44-0.8012-0.26-0.1903-0.61-0.2855-1.05-0.2855-0.3 0-0.56 0.0426-0.76 0.1279-0.21 0.0823-0.37 0.1974-0.48 0.3451-0.11 0.1478-0.16 0.3154-0.16 0.5029-0.01 0.1562 0.02 0.2926 0.1 0.4091 0.07 0.1164 0.17 0.2173 0.3 0.3025 0.13 0.0824 0.27 0.1549 0.44 0.2174 0.17 0.0596 0.35 0.1107 0.54 0.1534l0.78 0.1875c0.38 0.0852 0.73 0.1988 1.05 0.3409 0.32 0.142 0.59 0.3167 0.83 0.5241 0.23 0.2074 0.41 0.4517 0.54 0.733 0.13 0.2812 0.2 0.6037 0.2 0.9673 0 0.5341-0.14 0.9972-0.41 1.3892-0.27 0.3892-0.65 0.6918-1.16 0.9077-0.5 0.213-1.11 0.3196-1.82 0.3196-0.7 0-1.32-0.108-1.84-0.3239s-0.93-0.5355-1.22-0.9588c-0.29-0.4261-0.44-0.9531-0.45-1.581h1.78c0.02 0.2927 0.1 0.537 0.25 0.733 0.15 0.1932 0.35 0.3395 0.6 0.4389 0.26 0.0966 0.54 0.1449 0.86 0.1449 0.31 0 0.58-0.0455 0.81-0.1364 0.24-0.0909 0.42-0.2173 0.54-0.3792 0.13-0.162 0.2-0.348 0.2-0.5583 0-0.196-0.06-0.3608-0.18-0.4943-0.11-0.1335-0.28-0.2471-0.5-0.3409-0.22-0.0937-0.49-0.179-0.81-0.2557l-0.95-0.2386c-0.73-0.179-1.31-0.4588-1.74-0.8395s-0.64-0.8935-0.63-1.5383c-0.01-0.5285 0.13-0.9901 0.42-1.385 0.28-0.3949 0.68-0.7031 1.18-0.9247s1.07-0.3324 1.7-0.3324c0.65 0 1.22 0.1108 1.7 0.3324s0.86 0.5298 1.13 0.9247 0.41 0.8523 0.42 1.3722zm3.37 6.2173v-8.7273h5.88v1.5213h-4.04v2.0796h3.74v1.5213h-3.74v2.0838h4.06v1.5213zm10.27-7.206v-1.5213h7.17v1.5213h-2.67v7.206h-1.83v-7.206zm16.21 2.8424c0 0.9517-0.18 1.7613-0.54 2.4289-0.36 0.6677-0.85 1.1776-1.47 1.5299-0.61 0.3494-1.31 0.5241-2.07 0.5241-0.78 0-1.48-0.1761-2.09-0.5284-0.62-0.3523-1.11-0.8622-1.46-1.5298-0.36-0.6676-0.54-1.4759-0.54-2.4247 0-0.9517 0.18-1.7614 0.54-2.429 0.35-0.6676 0.84-1.1762 1.46-1.5256 0.61-0.3523 1.31-0.5284 2.09-0.5284 0.76 0 1.46 0.1761 2.07 0.5284 0.62 0.3494 1.11 0.858 1.47 1.5256s0.54 1.4773 0.54 2.429zm-1.87 0c0-0.6165-0.09-1.1364-0.28-1.5597-0.18-0.4233-0.43-0.7443-0.77-0.9631-0.33-0.2187-0.72-0.3281-1.16-0.3281-0.45 0-0.84 0.1094-1.17 0.3281-0.33 0.2188-0.59 0.5398-0.78 0.9631-0.18 0.4233-0.27 0.9432-0.27 1.5597 0 0.6164 0.09 1.1363 0.27 1.5596 0.19 0.4233 0.45 0.7443 0.78 0.9631 0.33 0.2187 0.72 0.3281 1.17 0.3281 0.44 0 0.83-0.1094 1.16-0.3281 0.34-0.2188 0.59-0.5398 0.77-0.9631 0.19-0.4233 0.28-0.9432 0.28-1.5596zm-73.945 22.364v-8.7273h3.445c0.66 0 1.22 0.1264 1.69 0.3793 0.47 0.25 0.82 0.598 1.07 1.044 0.24 0.4432 0.37 0.9546 0.37 1.5341 0 0.5796-0.13 1.0909-0.38 1.5341s-0.61 0.7884-1.09 1.0355c-0.47 0.2472-1.04 0.3708-1.71 0.3708h-2.193v-1.4787h1.893c0.36 0 0.65-0.0611 0.88-0.1833 0.23-0.125 0.41-0.2969 0.52-0.5156 0.12-0.2216 0.18-0.4759 0.18-0.7628 0-0.2898-0.06-0.5426-0.18-0.7585-0.11-0.2188-0.29-0.3878-0.52-0.5071-0.23-0.1222-0.53-0.1833-0.89-0.1833h-1.24v7.2188zm8.505 0h-1.98l3.02-8.7273h2.37l3.01 8.7273h-1.97l-2.19-6.733h-0.07zm-0.12-3.4304h4.67v1.4403h-4.67zm7.83 3.4304v-8.7273h3.45c0.66 0 1.22 0.1179 1.68 0.3537 0.47 0.233 0.83 0.5639 1.07 0.9929 0.25 0.4262 0.37 0.9276 0.37 1.5043 0 0.5795-0.12 1.0781-0.37 1.4957-0.25 0.4148-0.61 0.733-1.09 0.9546-0.47 0.2216-1.04 0.3323-1.71 0.3323h-2.31v-1.4829h2.01c0.35 0 0.65-0.0483 0.88-0.1449s0.41-0.2415 0.52-0.4346c0.12-0.1932 0.17-0.4333 0.17-0.7202 0-0.2898-0.05-0.5341-0.17-0.733-0.11-0.1988-0.29-0.3494-0.53-0.4517-0.23-0.1051-0.52-0.1577-0.88-0.1577h-1.24v7.2188zm4.72-3.9716 2.17 3.9716h-2.04l-2.12-3.9716zm3.4 3.9716v-8.7273h1.84v3.848h0.12l3.14-3.848h2.21l-3.24 3.9077 3.28 4.8196h-2.21l-2.39-3.5881-0.91 1.108v2.4801zm10.36-8.7273v8.7273h-1.85v-8.7273zm9.05 0v8.7273h-1.59l-3.8-5.4929h-0.06v5.4929h-1.84v-8.7273h1.61l3.77 5.4887h0.08v-5.4887zm7.56 2.8211c-0.06-0.2074-0.15-0.3907-0.26-0.5498-0.1-0.1619-0.24-0.2983-0.39-0.4091-0.15-0.1136-0.33-0.2002-0.53-0.2599s-0.41-0.0895-0.65-0.0895c-0.45 0-0.84 0.1108-1.18 0.3324-0.33 0.2216-0.59 0.544-0.78 0.9673-0.19 0.4205-0.28 0.9347-0.28 1.5426 0 0.608 0.09 1.125 0.27 1.5512 0.19 0.4261 0.45 0.7514 0.79 0.9758 0.34 0.2216 0.73 0.3324 1.2 0.3324 0.41 0 0.77-0.0738 1.06-0.2216 0.3-0.1505 0.53-0.3622 0.69-0.6349s0.24-0.5952 0.24-0.9673l0.37 0.0554h-2.25v-1.3893h3.65v1.0995c0 0.767-0.16 1.4261-0.48 1.9772-0.33 0.5483-0.77 0.9716-1.34 1.2699-0.57 0.2955-1.22 0.4432-1.95 0.4432-0.82 0-1.54-0.1804-2.16-0.5412-0.62-0.3636-1.1-0.8792-1.45-1.5469-0.34-0.6704-0.51-1.4659-0.51-2.3863 0-0.7074 0.1-1.3381 0.3-1.8921 0.21-0.5568 0.5-1.0284 0.87-1.4147 0.37-0.3864 0.81-0.6804 1.3-0.8821 0.5-0.2017 1.03-0.3026 1.61-0.3026 0.49 0 0.95 0.0725 1.38 0.2173 0.43 0.1421 0.8 0.3438 1.13 0.6052 0.33 0.2613 0.61 0.5724 0.82 0.9332 0.21 0.3579 0.34 0.7528 0.4 1.1847zm6.6 5.9062v-8.7273h3.44c0.66 0 1.22 0.1264 1.69 0.3793 0.47 0.25 0.82 0.598 1.07 1.044 0.24 0.4432 0.37 0.9546 0.37 1.5341 0 0.5796-0.13 1.0909-0.38 1.5341s-0.61 0.7884-1.09 1.0355c-0.47 0.2472-1.04 0.3708-1.71 0.3708h-2.19v-1.4787h1.89c0.36 0 0.65-0.0611 0.88-0.1833 0.23-0.125 0.41-0.2969 0.52-0.5156 0.12-0.2216 0.18-0.4759 0.18-0.7628 0-0.2898-0.06-0.5426-0.18-0.7585-0.11-0.2188-0.29-0.3878-0.52-0.5071-0.23-0.1222-0.53-0.1833-0.88-0.1833h-1.25v7.2188zm11.83-5.0838v1.4403h-3.98v-1.4403zm5.56-3.6435v8.7273h-1.84v-6.9759h-0.05l-2 1.2529v-1.6364l2.16-1.3679z" fill="#5b5b5b"/>
 <g fill="#d9d9d9" stroke="#cdcdcd">
  <rect x="498.5" y="178.5" width="52" height="107"/>
  <rect x="551.5" y="195.5" width="22" height="66"/>
  <rect x="574.5" y="142.5" width="106" height="119"/>
 </g>
</svg>
