<svg version="1.2" xmlns="http://www.w3.org/2000/svg" viewBox="0 0 2475 1462" width="2475" height="1462"><style>.a{fill:#00a930}.b{fill:none;stroke:#00a930;stroke-width:6}</style><path class="a" d="m195.6 931.8v11.5c0 1.6-1.8 2.6-3.1 1.7l-8.5-5.9c-1.2-0.8-1.2-2.5 0-3.3l8.5-5.6c1.3-0.9 3.1 0 3.1 1.6z"/><path class="a" d="m196.6 400.4v11.5c0 1.6-1.8 2.6-3.1 1.7l-8.5-5.9c-1.2-0.8-1.1-2.5 0-3.3l8.5-5.6c1.3-0.9 3.1 0 3.1 1.6z"/><path class="a" d="m195.6 1214.6v11.5c0 1.6-1.8 2.5-3.1 1.6l-8.5-5.8c-1.2-0.8-1.2-2.5 0-3.3l8.5-5.7c1.3-0.9 3.1 0.1 3.1 1.7z"/><path class="a" d="m195.6 658.1v11.5c0 1.6-1.8 2.6-3.1 1.6l-8.5-5.8c-1.2-0.8-1.2-2.5 0-3.3l8.5-5.7c1.3-0.8 3.1 0.1 3.1 1.7z"/><path class="a" d="m1012.1 744.9l-2.1-2.1-0.9 0.8v1.3zm0 153.9v3h3v-3zm-509.3-0.1h-3v3h3zm0-57.1h3v-3h-3zm-230.7-0.1h-3v95.6h3.1 3l-0.1-95.6zm0.1 95.6h-3v65.9h3 3v-65.9zm-77.1-2.9c-1.6 0-3 1.4-3 3 0 1.7 1.4 3 3 3zm77.1 68.8h-3v216.9h3 3v-216.9zm83-721.1v-3h-1.6l-0.9 1.3zm861.2 0v3h5.5v-3-3h-5.5zm5.5 0v3h3v-3zm3-44.6c0-1.7-1.4-3-3-3-1.7 0-3 1.3-3 3zm-439.1 44.6v3h430.5v-3-3h-430.5zm-215.3 0v3h215.3v-3-3h-215.3zm-55.5-44.6c0-1.7-1.4-3-3-3-1.7 0-3 1.3-3 3zm-242.9 604.3h3.1v-177.7h-3-3l-0.1 177.7zm-74.5-438.9c-1.6 0-3 1.4-3 3 0 1.7 1.4 3 3 3zm-2.5 258.3c-1.6 0.1-3 1.4-3 3.1 0 1.6 1.4 3 3 3zm77.1 558.8v3h3v-3zm-77.1-3c-1.6 0-3 1.4-3 3 0 1.7 1.4 3 3 3zm868.8-523.4l-2.1-2.1-51.8 51.4 2.1 2.2 2.1 2.1 51.9-51.4zm-51.9 51.4h-3l0.1 153.9h3 3v-153.9zm0 153.9v-3l-509.4-0.1v3 3l509.4 0.1zm-509.4-0.1h3v-57.1h-3-3v57.1zm0-57.1v-3l-230.6-0.1v3 3.1h230.6zm-230.6 95.5v-3l-77.1 0.1v3.1l0.1 3 77-0.2zm0-95.5h-3zm0 95.5h3zm0-531.4l2.5 1.7 83.1-123.8-2.5-1.7-2.5-1.7-83.1 123.9zm944.2-123.9v-3zm5.5 0h3v-44.6h-3-3v44.6zm-436.1 0v-3zm-273.8 0v3h58.5v-3-3h-58.5zm-156.7 0v3h156.7v-3-3h-156.7zm215.2 0v3zm-58.5 0h3v-44.6h-3-3v44.6zm-239.8 382h3v-258.2h-3-3v258.2zm0 0h3zm0-258.2v-3h-74.6v3 3h74.6zm0 258.2v-3l-77.1 0.2 0.1 3v3l77-0.2zm0 339.1h3zm0 216.9v-3h-77.1v3 3h77.1z"/><path class="a" d="m1227.6 237.3h-11.5c-1.6 0-2.5-1.9-1.6-3.2l5.8-8.4c0.8-1.2 2.6-1.2 3.3 0l5.7 8.4c0.9 1.4-0.1 3.2-1.7 3.2z"/><path class="a" d="m517.7 237.3h-11.5c-1.6 0-2.5-1.9-1.6-3.2l5.8-8.4c0.8-1.2 2.6-1.2 3.4 0l5.6 8.4c0.9 1.4-0.1 3.2-1.7 3.2z"/><path class="a" d="m849.3 1020.1v11.5c0 1.6-1.8 2.5-3.1 1.6l-8.5-5.8c-1.1-0.8-1.1-2.6 0.1-3.4l8.4-5.6c1.4-0.9 3.1 0.1 3.1 1.7z"/><path class="b" d="m1304.6 1164.7h-214.6v-139.4h-243.7"/></svg>