<svg version="1.2" xmlns="http://www.w3.org/2000/svg" viewBox="0 0 2650 1469" width="2650" height="1469">
<rect x="941" y="650" width="66" height="66" rx="2" fill="#e49d68"/>
<path d="M994.688 696.438C994.687 696.786 994.549 697.12 994.303 697.366C994.057 697.612 993.723 697.75 993.375 697.75H969.75C969.402 697.75 969.068 697.612 968.822 697.366C968.576 697.12 968.438 696.786 968.438 696.438C968.438 696.09 968.576 695.756 968.822 695.51C969.068 695.264 969.402 695.125 969.75 695.125H993.375C993.723 695.125 994.057 695.264 994.303 695.51C994.549 695.756 994.687 696.09 994.688 696.438ZM990.75 691.844C990.924 691.844 991.091 691.775 991.214 691.652C991.337 691.529 991.406 691.362 991.406 691.188V685.335C991.403 684.044 990.979 682.79 990.199 681.763C989.418 680.736 988.323 679.992 987.081 679.644L979.373 677.503L974.257 668.55C974.177 668.41 974.048 668.304 973.895 668.253L971.685 667.516C971.389 667.417 971.074 667.391 970.766 667.438C970.457 667.485 970.164 667.604 969.911 667.787C969.658 667.969 969.452 668.209 969.31 668.487C969.168 668.764 969.094 669.072 969.094 669.384V674.545L964.952 673.251L962.454 668.567C962.375 668.418 962.242 668.306 962.082 668.253L959.873 667.516C959.577 667.417 959.261 667.391 958.953 667.438C958.645 667.485 958.352 667.604 958.099 667.787C957.846 667.969 957.64 668.209 957.498 668.487C957.355 668.764 957.281 669.072 957.281 669.384V678.018C957.285 679.306 957.707 680.558 958.486 681.585C959.264 682.611 960.356 683.356 961.595 683.706L990.573 691.82C990.631 691.836 990.69 691.844 990.75 691.844Z" fill="white"/>
</svg>
