<svg width="2475" height="1469" viewBox="0 0 2475 1469" fill="none" xmlns="http://www.w3.org/2000/svg">
<g clip-path="url(#clip0_821_37464)">
<path d="M1570.82 738.812C1570.86 757.938 1587.03 773.74 1606.86 773.899C1626.49 774.056 1642.33 758.51 1642.09 739.382C1641.84 720.52 1625.67 704.983 1606.24 704.828C1586.8 704.672 1570.78 719.686 1570.82 738.812ZM1570.82 738.812C1558.35 775.37 1531.06 800.388 1488.94 813.598M1468.23 874.529C1507.48 925.846 1475.77 1045.31 1415.57 1067.28M1618.19 1001.91C1571.68 1024.11 1477.14 1086.69 1488.89 1139.91M1719.05 886.895C1675.64 888.408 1651.89 913.187 1645.82 959.36M1755.78 737.9C1779.7 741.014 1793.95 752.019 1796.93 771.7M1823.35 807.772C1784.68 806.401 1763.73 823.234 1758.36 856.661M1592.55 623.699C1612.35 652.28 1611.73 680.699 1588.72 709.735M1611.32 633.412C1663.44 647.376 1700.13 674.499 1722.78 714.526M1860.52 799.835C1890.08 785.461 1922.09 784.655 1957.11 800.607M2008.15 801.016C2037.13 786.637 2069.33 785.832 2104.55 801.787M2156.18 802.2C2184.76 787.818 2216.77 787.277 2252.77 802.972M2312.63 780.606C2312.23 758.024 2322.73 745.357 2344.55 742.875M2373.39 720.527C2394.36 675.802 2427.56 649.238 2473.96 640.843M1609.16 927.987C1629.58 928.151 1646.14 944.752 1646.56 965.476C1646.78 986.463 1630.35 1003.33 1609.74 1003.17C1588.93 1003 1572.18 985.866 1572.15 964.881C1572.12 944.426 1588.75 927.824 1609.16 927.987ZM1720.6 814.92C1740.43 815.078 1757.19 831.151 1758.01 851.08C1758.64 871.008 1743 887.087 1722.78 886.925C1702.56 886.763 1685.61 870.424 1685.18 850.498C1684.75 830.571 1700.78 814.761 1720.6 814.92ZM1831.75 739.039C1851.58 739.198 1868.53 755.006 1869.75 774.407C1870.97 794.074 1855.53 810.155 1835.3 809.993C1815.08 809.831 1797.93 793.756 1797.11 773.827C1796.28 754.428 1811.72 738.879 1831.75 739.039ZM1977.81 740.208C1997.64 740.366 2015.58 756.182 2017.19 775.587C2018.8 795.257 2003.75 811.34 1983.33 811.177C1963.11 811.015 1945.57 794.937 1944.16 775.003C1942.94 755.601 1957.99 739.783 1977.81 740.208ZM2124.07 741.377C2144.1 741.538 2162.03 757.354 2164.24 776.763C2166.43 796.438 2151.97 812.526 2131.56 812.363C2111.33 812.201 2093.4 796.119 2091.4 776.18C2089.59 756.774 2104.05 741.217 2124.07 741.377ZM2270.33 742.547C2290.16 742.706 2308.69 758.527 2311.48 777.94C2314.27 797.62 2300.2 813.711 2279.78 813.548C2259.75 813.388 2241.03 797.3 2238.64 777.358C2236.05 757.946 2250.31 742.387 2270.33 742.547ZM1755.74 668.569C1775.57 668.727 1792.14 684.001 1792.96 703.134C1793.79 722.266 1778.35 737.815 1758.33 737.655C1738.3 737.495 1721.74 721.69 1721.11 702.559C1720.48 683.428 1735.91 668.41 1755.74 668.569ZM1899.64 669.985C1919.47 670.144 1936.63 685.422 1937.85 704.558C1939.27 723.695 1924.22 739.248 1904.2 739.088C1884.37 738.929 1867.22 723.119 1865.99 703.983C1864.97 684.849 1880.01 669.828 1899.64 669.985ZM2044.33 671.142C2063.97 671.299 2081.32 686.58 2083.13 705.72C2084.94 724.86 2070.48 740.417 2050.65 740.259C2030.82 740.1 2013.48 724.289 2011.67 705.148C2010.25 686.011 2024.9 670.987 2044.33 671.142ZM2188.44 672.295C2208.07 672.452 2226.01 687.737 2228.41 706.882C2230.81 726.027 2216.74 741.587 2196.91 741.429C2176.89 741.269 2158.95 725.452 2156.75 706.309C2154.74 687.167 2168.8 672.138 2188.44 672.295ZM2332.93 673.451C2352.56 673.608 2370.89 689.161 2373.88 708.046C2376.87 727.195 2363 742.757 2343.17 742.599C2323.15 742.438 2304.82 726.619 2302.22 707.472C2299.43 688.324 2313.3 673.294 2332.93 673.451ZM1617.35 567.582C1636.59 567.736 1652.57 582.474 1652.81 600.805C1653.06 619.136 1637.63 633.888 1618 633.731C1598.56 633.575 1582.78 618.573 1582.73 600.244C1582.48 581.913 1597.91 567.426 1617.35 567.582ZM1752.02 568.659C1771.46 568.814 1787.64 583.554 1788.47 601.89C1789.31 620.225 1774.07 635.245 1754.44 635.088C1734.81 634.665 1718.63 619.66 1717.8 601.324C1717.35 582.992 1732.59 568.503 1752.02 568.659ZM1893.38 569.789C1912.62 569.943 1929.58 584.689 1930.81 603.028C1932.04 621.367 1917.39 636.125 1897.56 635.967C1878.12 635.811 1861.36 620.802 1860.13 602.463C1859.1 584.125 1873.94 569.634 1893.38 569.789ZM2035.12 570.923C2054.36 571.077 2071.33 585.823 2073.14 604.166C2074.96 622.51 2060.7 637.272 2041.27 637.116C2021.83 636.961 2004.67 621.948 2003.25 603.607C2001.63 585.531 2016.08 570.771 2035.12 570.923ZM2176.47 572.319C2195.71 572.473 2213.07 587.222 2215.47 605.57C2218.08 623.92 2203.82 638.682 2184.58 638.528C2164.95 638.371 2147.4 623.089 2145.39 605.01C2143.18 586.663 2157.23 572.165 2176.47 572.319ZM2317.83 573.45C2337.07 573.604 2355.21 588.359 2358 606.71C2360.8 625.062 2347.14 639.828 2327.7 639.673C2308.07 639.516 2290.13 624.497 2287.52 606.147C2285.12 587.798 2298.78 573.298 2317.83 573.45ZM2462.12 574.604C2481.56 574.759 2499.9 589.516 2503.28 607.872C2506.67 626.228 2493.59 641 2473.77 640.841C2454.33 640.686 2435.99 625.663 2432.8 607.309C2429.81 588.956 2442.69 574.449 2462.12 574.604ZM1494.83 813.114C1514.86 813.274 1530.83 829.34 1530.67 849.262C1530.51 869.183 1514.09 885.256 1493.86 885.094C1473.45 884.931 1457.48 868.599 1457.83 848.679C1458.19 828.759 1474.81 812.954 1494.83 813.114Z" stroke="#939393" stroke-width="0.4998" stroke-miterlimit="22.9256"/>
<path d="M1554.23 275.5V328.5H1220V493.5H903.996V704V851.449H792.496V1102H1177.37V1320H294V993H273V630H294V275.5H1554.23Z" fill="white"/>
<path d="M1177.37 1102V1320H294V993H273V630H294V275.5H1554.23V328.5H1220V493.5H903.996V704V851.449H792.496V1102H1177.37ZM1177.37 1102V1041V1033L1506.37 704V572.5H1554.23V333V329M293.5 1320H125V162H1554.23V246.5V275" stroke="#CDCDCD" stroke-width="4"/>
<path d="M404 841H502" stroke="#CDCDCD" stroke-width="3"/>
<path d="M531 841H629" stroke="#CDCDCD" stroke-width="3"/>
<path d="M453 842L453 741L477 741" stroke="#CDCDCD" stroke-width="3"/>
<rect x="629" y="670" width="161" height="532" fill="#F3F8FC"/>
<rect x="628" y="842" width="113" height="149" fill="#DDE5ED"/>
<rect x="778" y="670" width="125" height="179" fill="#F3F8FC"/>
<path fill-rule="evenodd" clip-rule="evenodd" d="M1028.73 659.964C1028.73 660.231 1028.99 660.231 1029.26 660.231C1029.26 660.498 1029.26 660.498 1029.53 660.498C1045.25 667.71 1061.5 677.059 1070.83 689.079C1077.76 697.894 1079.89 706.709 1080.16 716.592C1080.16 721.668 1079.62 726.743 1079.09 731.818C1078.29 746.509 1077.22 760.934 1076.43 775.358C1076.43 775.625 1076.43 775.625 1076.43 775.892C1076.43 776.159 1076.43 776.159 1076.43 776.159C1074.29 811.151 1111.87 840 1160.63 840C1193.67 840 1224.31 826.377 1240.03 805.542C1240.3 805.008 1240.83 804.474 1241.37 803.939C1299.46 730.215 1356.21 658.361 1411.37 588.644C1432.69 561.131 1443.61 531.214 1443.35 500.495C1442.81 402.197 1327.7 325 1185.94 325C1057.24 325 944.526 388.841 918.146 474.585C913.35 506 912.353 504 913.35 526.94C919.212 580.63 960.78 630.047 1028.73 659.964Z" fill="#F6F6F6"/>
<path d="M913.35 526.94C912.353 504 913.35 506 918.146 474.585C944.526 388.841 1057.24 325 1185.94 325C1205.37 325 1234.3 326.244 1252.5 329" stroke="#CDCDCD" stroke-width="4"/>
<path d="M1297.5 1102.06L1203.42 1004.29L1262.06 948.416L1353.61 1044.49L1297.5 1102.06Z" stroke="#939393" stroke-width="2"/>
<path d="M1331.74 1186.39L1303.01 1186.39C1296.42 1186.39 1291.07 1181.04 1291.07 1174.45L1291.07 1112.6C1291.07 1110.08 1292.06 1107.66 1293.82 1105.85L1356.13 1041.92C1362.62 1035.26 1373.2 1034.9 1380.13 1041.1L1524.62 1170.51C1530.84 1176.08 1526.9 1186.39 1518.55 1186.39L1447.61 1186.39M1331.74 1186.39L1331.74 1395.03L1447.61 1395.03L1447.61 1186.39M1331.74 1186.39L1447.61 1186.39" stroke="#939393" stroke-width="2"/>
<path d="M485.5 568.5V504.5" stroke="white" stroke-width="3"/>
<path d="M1211 135V161H1254.5V135L1287.38 93.4032C1297.75 80.2897 1288.41 61 1271.69 61H1192.68C1175.82 61 1166.52 80.5992 1177.2 93.6591L1211 135Z" fill="white" stroke="#CDCDCD" stroke-width="3"/>
<path d="M544.5 136V162H588V136L620.884 94.4032C631.251 81.2897 621.911 62 605.194 62H526.185C509.316 62 500.024 81.5992 510.701 94.6591L544.5 136Z" fill="white" stroke="#CDCDCD" stroke-width="3"/>
<path d="M531.5 936.5H629.5" stroke="#CDCDCD" stroke-width="3"/>
<rect x="275" y="842" width="182" height="149" fill="#F3F8FC"/>
<rect x="328" y="886" width="62" height="62" rx="2" fill="#084983"/>
<path fill-rule="evenodd" clip-rule="evenodd" d="M378.688 920.938H347.188V917C347.187 914.825 345.425 913.062 343.25 913.062C341.075 913.062 339.313 914.825 339.312 917V926.188C339.312 927.637 340.488 928.812 341.938 928.812H376.062C377.512 928.812 378.688 927.637 378.688 926.188V920.938Z" stroke="white" stroke-width="2" stroke-linecap="round" stroke-linejoin="round"/>
<path d="M344.562 928.812V931.438" stroke="white" stroke-width="1.5" stroke-linecap="round" stroke-linejoin="round"/>
<path d="M373.438 928.812V931.438" stroke="white" stroke-width="1.5" stroke-linecap="round" stroke-linejoin="round"/>
<path d="M378.688 920.937C378.688 906.073 359.007 914.564 357.439 908.469C356.45 904.626 352.757 902.119 348.82 902.619C344.884 903.119 341.934 906.469 341.938 910.437V913.288" stroke="white" stroke-width="2" stroke-linecap="round" stroke-linejoin="round"/>
<rect x="275" y="632" width="182" height="208" fill="#F3F8FC"/>
<rect x="328" y="701" width="62" height="62" rx="2" fill="#084983"/>
<path fill-rule="evenodd" clip-rule="evenodd" d="M378.688 735.938H347.188V732C347.187 729.825 345.425 728.062 343.25 728.062C341.075 728.062 339.313 729.825 339.312 732V741.188C339.312 742.637 340.488 743.812 341.938 743.812H376.062C377.512 743.812 378.688 742.637 378.688 741.188V735.938Z" stroke="white" stroke-width="2" stroke-linecap="round" stroke-linejoin="round"/>
<path d="M344.562 743.812V746.438" stroke="white" stroke-width="1.5" stroke-linecap="round" stroke-linejoin="round"/>
<path d="M373.438 743.812V746.438" stroke="white" stroke-width="1.5" stroke-linecap="round" stroke-linejoin="round"/>
<path d="M378.688 735.937C378.688 721.073 359.007 729.564 357.439 723.469C356.45 719.626 352.757 717.119 348.82 717.619C344.884 718.119 341.934 721.469 341.938 725.437V728.288" stroke="white" stroke-width="2" stroke-linecap="round" stroke-linejoin="round"/>
<rect x="429" y="730" width="62" height="62" rx="2" fill="#2D2D2D"/>
<path d="M447.749 743.055C450.828 743.055 453.545 745.067 454.444 748.012C455.343 750.957 454.211 754.143 451.656 755.862C451.433 756.012 451.291 756.256 451.271 756.524C451.251 756.793 451.356 757.055 451.555 757.236C452.291 757.904 452.834 758.757 453.13 759.705L456.46 770.364C456.543 770.63 456.495 770.919 456.33 771.144C456.165 771.368 455.904 771.5 455.626 771.5H453.247C452.803 771.497 452.427 771.826 452.372 772.267L451.251 781.235C451.195 781.675 450.819 782.003 450.376 782H445.126C444.682 782.004 444.306 781.675 444.251 781.235L443.142 772.267C443.087 771.826 442.711 771.497 442.267 771.5H439.876C439.598 771.499 439.337 771.367 439.173 771.143C439.008 770.918 438.96 770.63 439.043 770.364L442.368 759.705C442.664 758.757 443.207 757.904 443.942 757.236C444.141 757.055 444.246 756.793 444.226 756.524C444.206 756.256 444.064 756.012 443.84 755.862C441.286 754.143 440.155 750.957 441.053 748.012C441.952 745.067 444.67 743.055 447.749 743.055ZM448.341 748.479C448.007 748.174 447.495 748.174 447.161 748.479C446.484 749.093 445.709 749.591 444.87 749.953C444.473 750.127 444.263 750.565 444.377 750.983C444.788 752.505 446.168 753.562 447.744 753.562C449.319 753.561 450.699 752.504 451.11 750.983C451.224 750.565 451.014 750.127 450.617 749.953C449.783 749.59 449.014 749.093 448.341 748.479Z" fill="white"/>
<path d="M460 740C459.034 740 458.25 740.784 458.25 741.75V780.25C458.25 781.216 459.034 782 460 782C460.966 782 461.75 781.216 461.75 780.25V741.75C461.75 740.784 460.966 740 460 740Z" fill="white"/>
<path d="M472.25 743.022C475.235 743.022 477.892 744.916 478.866 747.738C479.84 750.56 478.919 753.689 476.569 755.531C476.341 755.71 476.217 755.99 476.236 756.279C476.256 756.568 476.417 756.828 476.667 756.975C479.347 758.533 480.997 761.399 481 764.5V768.875C481 769.358 480.608 769.75 480.125 769.75H477.77C477.32 769.747 476.942 770.086 476.895 770.532L475.75 781.22C475.701 781.666 475.324 782.003 474.875 782H469.625C469.176 782.003 468.799 781.666 468.75 781.22L467.616 770.532C467.569 770.086 467.19 769.748 466.741 769.75H464.375C463.892 769.75 463.5 769.358 463.5 768.875V764.5C463.503 761.399 465.153 758.533 467.833 756.975C468.083 756.828 468.244 756.568 468.264 756.279C468.283 755.99 468.159 755.71 467.931 755.531C465.581 753.689 464.66 750.56 465.634 747.738C466.608 744.916 469.265 743.022 472.25 743.022ZM470.066 748.697C469.828 748.585 469.55 748.586 469.312 748.701C469.075 748.816 468.901 749.032 468.841 749.289C468.78 749.542 468.75 749.802 468.75 750.062C468.75 751.995 470.317 753.562 472.25 753.562C474.183 753.562 475.75 751.995 475.75 750.062C475.752 749.925 475.696 749.793 475.596 749.698C475.492 749.605 475.354 749.56 475.216 749.574C474.911 749.607 474.605 749.624 474.299 749.625C472.837 749.626 471.393 749.309 470.066 748.697Z" fill="white"/>
<rect x="759" y="710" width="62" height="62" rx="2" fill="#2D2D2D"/>
<path d="M777.749 723.055C780.828 723.055 783.545 725.067 784.444 728.012C785.343 730.957 784.211 734.143 781.656 735.862C781.433 736.012 781.291 736.256 781.271 736.524C781.251 736.793 781.356 737.055 781.555 737.236C782.291 737.904 782.834 738.757 783.13 739.705L786.46 750.364C786.543 750.63 786.495 750.919 786.33 751.144C786.165 751.368 785.904 751.5 785.626 751.5H783.247C782.803 751.497 782.427 751.826 782.372 752.267L781.251 761.235C781.195 761.675 780.819 762.003 780.376 762H775.126C774.682 762.004 774.306 761.675 774.251 761.235L773.142 752.267C773.087 751.826 772.711 751.497 772.267 751.5H769.876C769.598 751.499 769.337 751.367 769.173 751.143C769.008 750.918 768.96 750.63 769.043 750.364L772.368 739.705C772.664 738.757 773.207 737.904 773.942 737.236C774.141 737.055 774.246 736.793 774.226 736.524C774.206 736.256 774.064 736.012 773.84 735.862C771.286 734.143 770.155 730.957 771.053 728.012C771.952 725.067 774.67 723.055 777.749 723.055ZM778.341 728.479C778.007 728.174 777.495 728.174 777.161 728.479C776.484 729.093 775.709 729.591 774.87 729.953C774.473 730.127 774.263 730.565 774.377 730.983C774.788 732.505 776.168 733.562 777.744 733.562C779.319 733.561 780.699 732.504 781.11 730.983C781.224 730.565 781.014 730.127 780.617 729.953C779.783 729.59 779.014 729.093 778.341 728.479Z" fill="white"/>
<path d="M790 720C789.034 720 788.25 720.784 788.25 721.75V760.25C788.25 761.216 789.034 762 790 762C790.966 762 791.75 761.216 791.75 760.25V721.75C791.75 720.784 790.966 720 790 720Z" fill="white"/>
<path d="M802.25 723.022C805.235 723.022 807.892 724.916 808.866 727.738C809.84 730.56 808.919 733.689 806.569 735.531C806.341 735.71 806.217 735.99 806.236 736.279C806.256 736.568 806.417 736.828 806.667 736.975C809.347 738.533 810.997 741.399 811 744.5V748.875C811 749.358 810.608 749.75 810.125 749.75H807.77C807.32 749.747 806.942 750.086 806.895 750.532L805.75 761.22C805.701 761.666 805.324 762.003 804.875 762H799.625C799.176 762.003 798.799 761.666 798.75 761.22L797.616 750.532C797.569 750.086 797.19 749.748 796.741 749.75H794.375C793.892 749.75 793.5 749.358 793.5 748.875V744.5C793.503 741.399 795.153 738.533 797.833 736.975C798.083 736.828 798.244 736.568 798.264 736.279C798.283 735.99 798.159 735.71 797.931 735.531C795.581 733.689 794.66 730.56 795.634 727.738C796.608 724.916 799.265 723.022 802.25 723.022ZM800.066 728.697C799.828 728.585 799.55 728.586 799.312 728.701C799.075 728.816 798.901 729.032 798.841 729.289C798.78 729.542 798.75 729.802 798.75 730.062C798.75 731.995 800.317 733.562 802.25 733.562C804.183 733.562 805.75 731.995 805.75 730.062C805.752 729.925 805.696 729.793 805.596 729.698C805.492 729.605 805.354 729.56 805.216 729.574C804.911 729.607 804.605 729.624 804.299 729.625C802.837 729.626 801.393 729.309 800.066 728.697Z" fill="white"/>
<rect x="296" y="277" width="161" height="215" fill="#F3F8FC"/>
<rect x="345" y="349" width="62" height="62" rx="2" fill="#084983"/>
<path d="M395.147 392.218H356.75C355.784 392.218 355 393.001 355 393.968C355 394.934 355.784 395.718 356.75 395.718H395.147C396.113 395.718 396.897 394.934 396.897 393.968C396.897 393.001 396.113 392.218 395.147 392.218Z" fill="white"/>
<path d="M383.794 364.281C384.76 364.281 385.544 365.065 385.544 366.031V366.906C385.544 367.389 385.936 367.781 386.419 367.781H388.272C393.092 367.781 397 371.689 397 376.509C397 381.329 393.092 385.235 388.272 385.235H381.925C381.691 385.236 381.468 385.33 381.304 385.496C378.976 387.892 375.845 389.343 372.512 389.57C368.654 389.828 364.863 388.477 362.039 385.836C359.215 383.195 357.612 379.501 357.612 375.635V366.031C357.612 365.065 358.396 364.281 359.362 364.281H383.794ZM386.421 371.269C385.938 371.269 385.546 371.661 385.546 372.144V375.157C385.546 377.004 385.199 378.834 384.522 380.553C384.418 380.821 384.452 381.124 384.614 381.362C384.776 381.6 385.046 381.743 385.334 381.744H388.272C391.164 381.744 393.509 379.4 393.509 376.509C393.509 373.617 391.164 371.273 388.272 371.272L386.421 371.269Z" fill="white"/>
<rect x="457" y="277" width="182" height="215" fill="#F3F8FC"/>
<rect x="517" y="349" width="62" height="62" rx="2" fill="#084983"/>
<path d="M554.125 359C553.4 359 552.812 359.588 552.812 360.312V399.25C552.812 400.216 553.596 401 554.562 401C555.529 401 556.312 400.216 556.312 399.25V385.25C556.312 384.767 556.704 384.375 557.187 384.375H560.25C560.831 384.378 561.389 384.149 561.8 383.738C562.211 383.327 562.441 382.769 562.437 382.188V382.175C562.325 369.596 558.206 359 554.125 359Z" fill="white"/>
<path d="M545.812 359C544.846 359 544.062 359.784 544.062 360.75V369.5C544.064 370.416 543.705 371.296 543.063 371.95C542.938 372.076 542.75 372.114 542.586 372.047C542.422 371.98 542.314 371.821 542.312 371.644V360.75C542.312 359.784 541.529 359 540.562 359C539.596 359 538.812 359.784 538.812 360.75V371.64C538.811 371.818 538.703 371.977 538.539 372.044C538.375 372.11 538.187 372.072 538.062 371.946C537.421 371.294 537.062 370.415 537.062 369.5V360.75C537.062 359.784 536.279 359 535.312 359C534.346 359 533.562 359.784 533.562 360.75V369.5C533.567 372.466 535.435 375.108 538.23 376.101C538.579 376.225 538.812 376.555 538.812 376.925V399.25C538.812 400.216 539.596 401 540.562 401C541.529 401 542.312 400.216 542.312 399.25V376.925C542.313 376.555 542.546 376.225 542.895 376.101C545.69 375.108 547.558 372.466 547.562 369.5V360.75C547.562 359.784 546.779 359 545.812 359Z" fill="white"/>
<rect x="861" y="482" width="62" height="62" rx="2" fill="#2D2D2D"/>
<path d="M879.75 498.72H880.625C881.108 498.72 881.5 499.096 881.5 499.56V500.4C881.5 501.328 882.283 502.08 883.25 502.08C884.216 502.08 885 501.328 885 500.4V499.56C885 499.096 885.391 498.72 885.875 498.72H886.75C887.104 498.721 887.424 498.516 887.56 498.202C887.695 497.888 887.62 497.526 887.369 497.285L883.869 493.925C883.705 493.768 883.482 493.679 883.25 493.679C883.017 493.679 882.794 493.768 882.63 493.925L879.13 497.285C878.879 497.526 878.804 497.888 878.94 498.202C879.075 498.516 879.395 498.721 879.75 498.72Z" fill="white"/>
<path d="M900.13 501.835C900.294 501.993 900.517 502.082 900.75 502.082C900.982 502.082 901.205 501.993 901.369 501.835L904.869 498.475C905.12 498.235 905.195 497.873 905.06 497.559C904.924 497.245 904.604 497.04 904.25 497.041H903.375C902.891 497.041 902.5 496.665 902.5 496.201V495.361C902.5 494.433 901.716 493.681 900.75 493.681C899.783 493.681 899 494.433 899 495.361V496.201C899 496.665 898.608 497.041 898.125 497.041H897.25C896.895 497.04 896.575 497.245 896.44 497.559C896.304 497.873 896.379 498.235 896.63 498.475L900.13 501.835Z" fill="white"/>
<path d="M906 503.76C907.45 503.76 908.625 504.888 908.625 506.279V531.479C908.625 532.871 907.45 534 906 534H878C876.55 534 875.375 532.871 875.375 531.479V506.279C875.375 504.888 876.55 503.76 878 503.76H906ZM884.125 515.52C881.226 515.52 878.875 517.776 878.875 520.56V523.08C878.875 523.544 879.267 523.92 879.75 523.92H880.378C880.822 523.917 881.198 524.233 881.253 524.655L881.938 529.905C881.993 530.327 882.369 530.643 882.812 530.64H885.424C885.867 530.643 886.243 530.327 886.299 529.905L886.982 524.655C887.038 524.233 887.414 523.917 887.857 523.92H888.5C888.983 523.92 889.375 523.544 889.375 523.08V520.56C889.375 517.776 887.024 515.52 884.125 515.52ZM899.875 515.52C896.976 515.52 894.625 517.776 894.625 520.56V523.08C894.625 523.544 895.017 523.92 895.5 523.92H896.114C896.558 523.917 896.934 524.233 896.989 524.655L897.674 529.905C897.73 530.327 898.106 530.643 898.549 530.64H901.174C901.617 530.643 901.993 530.327 902.049 529.905L902.732 524.655C902.788 524.233 903.164 523.917 903.607 523.92H904.25C904.733 523.92 905.125 523.544 905.125 523.08V520.56C905.125 517.776 902.774 515.52 899.875 515.52ZM884.125 506.279C881.952 506.282 880.191 507.973 880.188 510.06C880.188 512.147 881.95 513.84 884.125 513.84C886.3 513.84 888.062 512.147 888.062 510.06C888.062 507.972 886.3 506.279 884.125 506.279ZM899.875 506.279C897.702 506.282 895.941 507.973 895.938 510.06C895.938 512.147 897.7 513.84 899.875 513.84C902.05 513.84 903.812 512.147 903.812 510.06C903.812 507.972 902.05 506.279 899.875 506.279Z" fill="white"/>
<g clip-path="url(#clip1_821_37464)">
<path d="M2487.73 545.916C2508.66 546.164 2528.38 560.05 2531.98 577.22C2535.59 594.389 2521.47 608.122 2500.11 607.868C2479.17 607.62 2459.46 593.486 2456.07 576.319C2452.89 559.154 2466.79 545.668 2487.73 545.916ZM2487.73 545.916C2437.55 550.285 2385.95 549.673 2333.15 543.834M1527.25 694.375C1527.25 712.247 1544.63 727.097 1565.98 727.351C1587.13 727.602 1604.22 713.16 1604.01 695.285C1603.8 677.66 1586.42 663.057 1565.48 662.809C1544.55 662.56 1527.25 676.752 1527.25 694.375ZM1527.25 694.375C1513.73 728.469 1484.27 751.7 1438.86 763.82M1416.19 820.641C1458.35 868.798 1469.56 922.298 1449.39 981.63M1577.41 940.704C1527.26 961.207 1508.23 995.98 1520.75 1045.77M1686.54 833.776C1639.79 834.959 1614.14 857.987 1607.49 901.098M1726.47 694.752C1752.24 697.788 1767.56 708.147 1770.72 726.552M1799.09 760.398C1757.44 758.911 1734.83 774.529 1728.97 805.734M1550.73 586.928C1571.98 613.739 1571.25 640.289 1546.39 667.298M1571.14 596.106C1627.24 609.43 1666.7 634.968 1691 672.488M1839.15 752.93C1871.03 739.656 1905.51 739.072 1943.19 754.164M1998.17 754.816C2029.42 741.535 2064.11 740.954 2102 756.048M2157.62 756.707C2188.44 743.421 2222.92 743.085 2261.66 757.941M2325.99 737.358C2325.61 716.255 2336.95 704.475 2360.46 702.272M2391.58 681.542C2414.28 639.863 2450.11 615.218 2500.11 607.62M1705.8 173.006C1823.8 174.405 1942.22 175.81 2060.01 177.455C2178.01 178.855 2296.22 180.505 2414.64 181.909M1705.8 173.006C1708.1 228.882 1710.59 286.497 1713.07 344.857C1715.53 405.203 1717.96 467.286 1720.38 530.858C1847.69 532.367 1975.83 534.136 2103.35 535.648C2230.86 537.16 2358.8 538.678 2486.53 540.441C2473.74 476.746 2461.16 414.543 2449.18 354.333M1705.8 173.006C1658.44 172.196 1611.28 171.636 1563.91 171.075M1705.8 173.006C1708.1 228.882 1710.38 286.495 1712.86 345.103M1705.8 173.006C1699.83 176.906 1694.08 180.561 1688.33 184.216M1705.8 173.006C1712.31 177.054 1719.03 180.857 1725.76 184.66C1744.76 204.991 1764.19 225.327 1783.83 245.914M2414.64 181.909C2425.82 237.89 2437.4 295.614 2449.18 354.333M2414.64 181.909C2410.36 185.83 2405.88 189.5 2401.81 193.423C2386.99 213.105 2371.94 233.28 2356.9 253.207M2449.18 354.333C2326.32 352.627 2203.25 351.167 2080.81 349.715M2449.18 354.333C2447.43 377.396 2445.67 400.707 2444.13 424.021M1563.91 171.075C1564.31 226.928 1564.68 284.518 1565.25 343.352C1565.59 403.673 1566.13 465.733 1566.43 529.28C1617.61 529.887 1668.78 530.494 1720.17 531.103C1717.54 467.529 1715.31 405.448 1712.86 345.103M1563.91 171.075C1569.15 175.108 1574.82 178.899 1580.27 182.687C1598.72 196.061 1617.38 209.686 1636.04 223.559C1653.54 210.363 1671.04 197.167 1688.33 184.216M1712.86 345.103C1835.3 346.555 1958.37 348.263 2080.81 349.715M1712.86 345.103C1663.58 344.519 1614.52 343.937 1565.46 343.355C1571.11 366.506 1576.75 390.153 1582.82 413.557M1712.86 345.103C1720.19 368.77 1728.15 392.942 1735.9 416.862M1712.86 345.103C1707.29 368.369 1702.15 391.641 1696.59 415.155C1678.6 433.806 1660.19 452.7 1641.98 471.597M2429.01 254.062C2308.69 252.387 2188.57 250.962 2068.67 249.54C1948.98 248.121 1828.66 246.445 1708.76 245.023M2429.01 254.062C2419.74 233.599 2410.67 213.137 2401.6 193.173C2382.2 188.971 2362.78 185.018 2343.37 181.064M2429.01 254.062C2424.87 264.19 2420.73 274.566 2416.8 285.193C2402.99 307.865 2389.19 330.537 2375.17 353.455M1708.76 245.023C1714.71 224.74 1720.23 204.7 1725.97 184.663C1743.56 181.396 1761.79 177.641 1779.81 174.132M1708.76 245.023C1715.82 255.532 1722.89 265.793 1729.96 276.302M2080.81 349.715C2108.45 373.127 2136.3 396.79 2164.35 420.703C2190.87 431.939 2217.6 443.177 2244.32 454.416M2469.75 457.09C2343.92 455.597 2218.52 454.11 2092.91 452.372C1967.73 450.887 1841.9 449.147 1716.72 447.662M2469.75 457.09C2461.21 446.067 2452.46 435.041 2444.13 424.021M2469.75 457.09C2469.05 480.414 2468.14 503.735 2467.22 527.305M1779.81 174.132C1782.96 230.018 1786.08 287.393 1789.4 346.259M1779.81 174.132C1808.11 177.694 1836.41 181.505 1865.13 185.072M1789.4 346.259C1792.71 406.366 1796.2 468.462 1799.68 532.046M1789.4 346.259C1771.78 369.631 1753.95 393.248 1735.9 416.862M1789.4 346.259C1814.71 370.14 1840.23 394.271 1866.17 418.407M1634.75 172.411C1635.99 228.274 1637.42 285.629 1638.84 344.225C1640.24 404.31 1641.62 466.38 1642.98 529.94C1662.07 525.946 1680.94 521.95 1700.23 517.96M1919.38 176.035C1924.22 231.941 1929.46 289.341 1934.68 347.982M1919.38 176.035C1901.16 179.046 1883.14 182.059 1865.13 185.072M1919.38 176.035C1937.74 179.48 1955.89 182.922 1974.67 186.371C1982.46 207.066 1990.04 227.758 1998.04 248.703M1934.68 347.982C1939.89 408.36 1945.29 470.23 1950.88 533.84M1934.68 347.982C1911.99 371.293 1889.08 394.85 1866.17 418.407M1950.88 533.84C1976.09 529.919 2001.31 525.998 2026.52 522.078C2049.22 498.518 2071.7 475.701 2093.97 452.633M1950.88 533.84C1924.92 529.312 1898.96 524.784 1873.42 520.262M2061.06 177.716C2067.8 233.892 2074.74 291.064 2081.65 349.973C2088.97 410.128 2096.49 472.271 2104.19 535.906M2061.06 177.716C2042.62 181.22 2024.18 184.725 2005.95 187.984C2003.18 208.056 2000.61 228.379 1997.83 248.7C1995.37 224.594 1992.9 200.488 1990.43 176.878C1985.11 180.042 1979.78 183.205 1974.46 186.369C1958.14 206.777 1942.04 227.188 1925.51 247.842M2061.06 177.716C2084.91 181.97 2108.98 185.979 2133.25 189.99C2159.66 210.408 2186.49 230.832 2213.74 251.509M2202.54 179.394C2211.18 235.593 2220.01 292.787 2229.04 351.722M2202.54 179.394C2179.23 182.84 2156.14 186.29 2133.04 189.739C2112.08 209.596 2090.69 229.448 2069.52 249.55M2202.54 179.394C2221.95 183.347 2241.14 187.546 2260.55 191.5C2292.25 211.981 2324.15 232.465 2356.69 253.205M2229.04 351.722C2238.27 411.899 2247.69 474.065 2257.29 537.722M2229.04 351.722C2200.77 328.302 2173.13 305.138 2145.7 281.977M2229.04 351.722C2207.41 374.549 2186.2 397.63 2164.57 420.705C2140.96 431.347 2117.15 441.986 2093.12 452.623M2409.55 539.528C2397.82 476.094 2386.51 413.906 2375.38 353.705C2364.44 294.749 2353.92 237.286 2343.58 181.315C2315.84 184.709 2288.3 188.106 2260.77 191.502C2245.09 211.174 2229.63 231.344 2213.74 251.261M1566.28 470.699C1616.61 471.296 1667.15 471.895 1717.9 472.497M1566.28 470.699C1571.8 451.404 1577.1 432.354 1582.82 413.557M1566.28 470.699C1572.02 485.908 1577.97 501.368 1583.92 516.58M1707.94 224.66C1659.94 224.091 1612.36 223.526 1564.57 222.711C1570.07 239.903 1575.58 257.344 1581.51 274.541M2331.25 543.812C2282.76 548.201 2232.64 547.607 2181.31 542.033M2181.74 542.038C2131.77 546.41 2081.23 545.811 2029.48 539.984M2027.58 540.21C1977.4 544.579 1926.44 543.975 1874.47 538.394M1875.32 538.404C1825.14 542.773 1774.6 542.174 1723.49 536.355M1723.28 536.353C1672.68 540.717 1640.55 539.343 1589.4 536.254M1564.57 222.463C1569.8 209.122 1575.04 195.78 1580.48 182.689C1598.5 179.18 1616.73 175.673 1634.75 171.915C1652.47 176.096 1670.4 180.032 1688.33 184.216M1688.33 184.216C1694.73 197.448 1701.12 210.927 1707.73 224.409M1783.83 245.914C1811.14 225.636 1838.24 205.107 1865.13 185.072M1783.83 245.914C1807.81 256.623 1832.01 267.335 1856.2 278.047M1783.83 245.914C1765.73 256.124 1747.84 266.089 1729.96 276.302M1865.13 185.072C1885.19 205.664 1905.24 226.752 1925.72 247.845M1925.72 247.845C1902.55 257.995 1879.37 267.897 1856.2 278.047M1925.72 247.845C1950.76 258.319 1976.02 269.043 2001.27 279.768C2027.85 302.919 2054.65 326.321 2081.87 349.728M2069.73 249.553C2048.19 228.944 2027.07 208.34 2006.17 187.738C2000.92 183.952 1995.68 180.415 1990.65 176.632M2069.73 249.553C2094.77 260.275 2120.23 271.002 2145.7 281.977M2069.73 249.553C2046.98 259.46 2024.23 269.615 2001.27 279.52C1979.43 302.096 1957.16 324.916 1934.69 347.734C1908.1 324.335 1881.94 301.188 1856.2 278.047M2213.74 251.261C2190.99 261.416 2168.45 271.574 2145.7 281.977M2213.74 251.261C2239.41 261.99 2264.88 272.718 2290.97 283.7C2318.62 306.864 2346.89 330.035 2375.17 353.455M2356.69 253.205C2334.57 263.367 2312.67 273.533 2290.76 283.698C2270.19 306.29 2249.62 328.882 2228.83 351.719M2356.69 253.205C2376.65 263.866 2396.62 274.528 2416.79 285.441C2427.31 308.401 2438.25 331.367 2449.18 354.581M2375.17 353.455C2355.02 376.3 2334.65 399.142 2314.28 422.481M2375.17 353.455C2397.94 376.809 2420.93 400.414 2444.13 424.021M2145.7 281.977C2124.49 304.562 2103.07 327.143 2081.65 349.725C2060.02 373.049 2037.95 396.368 2015.68 420.181M1856.2 278.047C1834.15 300.622 1811.89 323.193 1789.41 346.011M1729.96 276.302C1724.19 299.069 1718.63 321.839 1712.86 344.855M1729.96 276.302C1749.56 299.37 1769.38 322.441 1789.62 346.013M1707.94 224.412C1702.45 241.474 1697.17 258.538 1691.68 275.848C1674.28 298.477 1656.67 321.104 1639.06 343.979C1619.66 320.665 1600.27 297.599 1581.51 274.541M1635.83 223.556C1654.24 240.902 1672.64 258.247 1691.47 275.845C1698.39 298.763 1705.52 321.684 1712.65 344.852M1565.25 343.104C1570.6 320.083 1576.16 297.313 1581.51 274.541M1581.51 274.541C1599.9 257.632 1618.29 240.475 1636.25 223.562M1641.98 471.597C1622.12 452.249 1602.47 432.903 1582.82 413.557M1641.98 471.597C1661.05 486.964 1680.53 502.585 1700.23 517.96M1641.98 471.597C1622.77 486.51 1603.35 501.669 1583.92 516.58M1582.82 413.557C1601.7 390.449 1620.59 367.093 1639.05 344.228C1657.81 367.782 1676.99 391.342 1696.37 415.152C1703.55 434.35 1710.52 453.297 1717.69 472.495C1711.8 487.566 1705.91 502.886 1700.23 517.96M1795.17 448.84C1775.41 438.181 1755.45 427.519 1735.9 416.862M1795.17 448.84C1818.97 438.946 1842.57 428.801 1866.17 418.407M1795.17 448.84C1821.11 472.729 1847.05 496.617 1873.42 520.262M1795.17 448.84C1776.07 471.946 1756.55 495.295 1737.02 518.644M1735.9 416.862C1729.44 427.211 1722.97 437.559 1716.71 447.91M1866.17 418.407C1891.63 429.383 1917.73 440.117 1943.62 450.849C1967.63 440.709 1991.87 430.323 2015.68 420.181M2015.68 420.181C2041.78 430.915 2067.87 441.898 2093.97 452.633M2015.68 420.181C1988.47 396.029 1961.26 371.878 1934.47 347.98M2093.97 452.633C2121.82 476.295 2149.88 499.96 2178.57 523.881M2394.04 456.192C2367.32 444.953 2340.59 433.715 2314.28 422.481M2394.04 456.192C2418.08 479.809 2442.55 503.432 2467.22 527.305M2394.04 456.192C2373.25 479.277 2352.68 502.366 2331.46 525.694M2314.28 422.481C2285.59 398.56 2257.11 374.89 2229.05 351.473M2314.28 422.481C2291.1 433.128 2267.93 443.774 2244.54 454.17M2444.13 424.021C2427.5 434.746 2410.88 445.47 2394.25 456.194M2467.22 527.305C2447.93 531.296 2428.43 535.036 2409.34 539.277C2383.17 534.747 2357.42 530.222 2331.46 525.694M2467.22 527.305C2473.52 531.599 2480.02 535.896 2486.32 540.19M2331.46 525.694C2302.35 501.769 2273.23 478.091 2244.53 454.418C2222.69 477.492 2200.63 500.562 2178.57 523.881M2331.46 525.694C2306.67 529.62 2281.88 533.546 2257.09 537.471M2104.2 535.41C2078.24 530.882 2052.28 526.355 2026.53 521.83C1998.47 497.916 1970.83 474.256 1943.62 450.601C1920.5 473.659 1896.96 496.961 1873.42 520.262M2178.57 523.881C2204.53 528.409 2230.91 532.941 2257.3 537.474M2178.57 523.881C2153.78 527.807 2128.78 531.482 2104.19 535.658M1716.92 447.912C1723.41 471.322 1730.11 494.982 1737.02 518.644M1737.02 518.644C1757.91 523.112 1779.01 527.333 1799.89 531.801M1737.02 518.644C1731.26 522.796 1725.72 526.701 1720.17 530.855M1873.42 520.262C1848.84 524.19 1824.26 527.87 1799.68 531.798M1700.23 517.96C1706.74 522.256 1713.24 526.553 1719.96 530.853M1583.92 516.58C1603.54 521.032 1623.37 525.487 1643.2 529.942M1583.92 516.58C1577.95 520.729 1572.19 524.88 1566.43 529.032M1568.08 871.341C1590.08 871.602 1607.87 887.202 1608.27 906.568C1608.46 926.179 1590.72 941.854 1568.52 941.591C1546.1 941.325 1528.11 925.226 1528.13 905.617C1528.14 886.505 1546.09 871.08 1568.08 871.341ZM1688.4 766.283C1709.76 766.537 1727.77 781.643 1728.61 800.269C1729.23 818.893 1712.35 833.834 1690.57 833.575C1668.78 833.317 1650.57 817.96 1650.15 799.339C1649.53 780.715 1666.83 766.027 1688.4 766.283ZM1808.31 695.971C1829.67 696.224 1847.89 711.085 1849.16 729.22C1850.42 747.603 1833.75 762.546 1811.97 762.288C1790.18 762.03 1771.75 746.918 1770.91 728.292C1770.07 710.162 1786.74 695.715 1808.31 695.971ZM1965.64 697.837C1987 698.09 2006.28 712.964 2007.97 731.104C2009.66 749.492 1993.4 764.44 1971.41 764.179C1949.63 763.921 1930.78 748.804 1929.3 730.171C1927.83 712.033 1944.28 697.584 1965.64 697.837ZM2123.18 699.954C2144.75 700.21 2164.03 715.083 2166.36 733.23C2168.68 751.626 2153.06 766.582 2131.07 766.321C2109.29 766.063 2090.01 750.941 2087.9 732.3C2085.79 713.907 2101.61 699.698 2123.18 699.954ZM2280.73 701.822C2302.09 702.076 2322 716.957 2324.96 735.111C2327.91 753.514 2312.72 768.475 2290.73 768.215C2269.16 767.959 2249.03 752.827 2246.5 734.181C2243.76 715.78 2259.16 701.567 2280.73 701.822ZM1726.4 629.967C1747.76 630.22 1765.56 644.58 1766.41 662.461C1767.25 680.343 1750.59 694.79 1729.02 694.534C1707.45 694.278 1689.64 679.422 1689.01 661.543C1688.59 643.667 1705.25 629.716 1726.4 629.967ZM1881.61 631.808C1902.97 632.061 1921.41 646.428 1922.68 664.315C1924.16 682.204 1907.92 696.656 1886.35 696.4C1864.99 696.147 1846.55 681.283 1845.29 663.397C1844.23 645.513 1860.47 631.557 1881.61 631.808ZM2037.47 633.656C2058.61 633.907 2077.27 648.277 2079.17 666.171C2081.07 684.065 2065.46 698.525 2044.1 698.271C2022.74 698.018 2004.1 683.152 2002.2 665.258C2000.72 647.369 2016.32 633.406 2037.47 633.656ZM2192.68 635.497C2213.83 635.748 2233.12 650.125 2235.66 668.027C2238.19 685.929 2223.01 700.393 2201.65 700.14C2180.08 699.884 2160.8 685.011 2158.47 667.111C2156.36 649.215 2171.54 635.247 2192.68 635.497ZM2348.33 637.343C2369.47 637.594 2389.18 652.224 2392.35 669.885C2395.53 687.795 2380.55 702.262 2359.19 702.008C2337.62 701.753 2317.92 686.874 2315.17 668.97C2312 651.061 2326.97 637.09 2348.33 637.343ZM1577.58 534.625C1598.3 534.87 1615.48 548.726 1615.7 565.855C1615.92 582.985 1599.26 596.687 1578.11 596.437C1557.18 596.188 1540.21 582.087 1540.2 564.96C1540.2 547.833 1556.85 534.379 1577.58 534.625ZM1722.85 536.348C1743.79 536.596 1761.18 550.454 1762.03 567.591C1762.89 584.728 1746.44 598.681 1725.29 598.43C1704.15 597.931 1686.76 583.825 1685.91 566.688C1685.26 549.802 1701.92 536.099 1722.85 536.348ZM1874.9 538.399C1895.62 538.645 1913.86 552.513 1915.13 569.655C1916.41 586.797 1900.6 600.51 1879.24 600.256C1858.3 600.008 1840.28 585.894 1839.01 568.752C1838.15 551.615 1854.17 538.153 1874.9 538.399ZM2027.79 540.213C2048.51 540.458 2066.75 554.326 2068.66 571.476C2070.57 588.626 2055.18 602.343 2034.25 602.095C2013.31 601.847 1994.87 587.728 1993.38 570.583C1991.68 553.436 2007.07 539.719 2027.79 540.213ZM2180.05 542.018C2200.77 542.264 2219.43 556.137 2221.97 573.294C2224.73 590.454 2209.34 604.172 2188.62 603.926C2167.47 603.675 2148.61 589.303 2146.48 572.399C2143.93 555.242 2159.11 541.77 2180.05 542.018ZM2332.3 543.824C2353.03 544.07 2372.53 557.953 2375.5 575.115C2378.47 592.277 2363.71 606.002 2342.78 605.754C2321.63 605.503 2302.34 591.374 2299.58 574.215C2297.03 557.306 2311.79 543.581 2332.3 543.824ZM1445.21 763.647C1466.78 763.903 1483.95 778.999 1483.72 797.613C1483.5 816.227 1465.77 831.157 1443.99 830.899C1422 830.638 1404.84 815.294 1405.27 796.682C1405.7 778.071 1423.64 763.391 1445.21 763.647ZM1580.49 181.696C1581.55 181.709 1582.18 182.213 1582.38 182.96C1582.37 183.704 1581.52 184.191 1580.68 184.181C1579.83 184.171 1578.99 183.664 1578.79 182.917C1578.58 182.17 1579.44 181.684 1580.49 181.696ZM1581.31 273.298C1582.37 273.31 1583.2 274.065 1583.2 274.561C1583.19 275.306 1582.34 276.04 1581.49 276.03C1580.43 276.018 1579.59 275.263 1579.6 274.518C1579.61 273.774 1580.46 273.288 1581.31 273.298ZM1582.83 412.317C1583.89 412.329 1584.73 413.084 1584.72 413.58C1584.71 414.573 1583.86 415.059 1582.8 415.047C1581.74 415.034 1580.9 414.528 1580.92 413.535C1580.92 413.039 1581.78 412.304 1582.83 412.317ZM1583.94 515.091C1585 515.104 1585.84 515.858 1585.83 516.603C1585.82 517.347 1584.96 518.082 1583.91 518.069C1582.85 518.057 1582.01 517.302 1582.02 516.558C1582.03 515.813 1582.88 515.078 1583.94 515.091ZM1688.34 182.975C1689.4 182.988 1690.24 183.494 1690.23 184.239C1690.22 184.983 1689.58 185.472 1688.52 185.46C1687.47 185.447 1686.63 184.941 1686.64 184.196C1686.64 183.452 1687.28 182.963 1688.34 182.975ZM1691.49 274.604C1692.54 274.617 1693.38 275.371 1693.37 275.868C1693.36 276.612 1692.72 277.349 1691.66 277.337C1690.61 277.324 1689.77 276.57 1689.78 275.825C1689.78 275.329 1690.64 274.594 1691.49 274.604ZM1696.39 413.663C1697.45 413.676 1698.5 414.433 1698.49 415.178C1698.48 415.922 1697.41 416.654 1696.57 416.644C1695.51 416.632 1694.67 415.877 1694.68 415.132C1694.69 414.388 1695.33 413.651 1696.39 413.663ZM1700.25 516.47C1701.31 516.483 1702.14 517.238 1702.13 517.982C1702.13 518.727 1701.27 519.461 1700.21 519.449C1699.16 519.436 1698.32 518.682 1698.33 517.937C1698.34 517.192 1699.19 516.458 1700.25 516.47ZM1725.77 183.419C1726.83 183.432 1727.67 183.938 1727.66 184.683C1727.65 185.427 1727.01 185.916 1725.95 185.904C1724.9 185.891 1724.06 185.385 1724.07 184.64C1724.07 183.896 1724.71 183.407 1725.77 183.419ZM1729.76 275.058C1730.82 275.071 1731.66 275.825 1731.65 276.322C1731.64 277.066 1731 277.803 1729.94 277.791C1728.88 277.778 1728.05 277.024 1728.05 276.279C1728.06 275.783 1728.7 275.046 1729.76 275.058ZM1735.92 415.373C1736.98 415.386 1737.82 416.14 1737.81 416.885C1737.8 417.63 1736.94 418.364 1736.1 418.354C1735.04 418.341 1734.2 417.587 1734.21 416.842C1734.01 415.847 1734.86 415.361 1735.92 415.373ZM1736.83 517.153C1737.89 517.165 1738.72 517.92 1738.72 518.664C1738.71 519.409 1737.85 520.143 1736.79 520.131C1735.74 520.118 1734.9 519.364 1734.91 518.619C1734.92 517.875 1735.77 517.14 1736.83 517.153ZM1864.94 183.581C1865.78 183.591 1866.83 184.1 1866.82 184.844C1866.82 185.589 1866.17 186.078 1865.12 186.065C1864.27 186.055 1863.43 185.549 1863.44 184.804C1863.45 184.308 1864.09 183.571 1864.94 183.581ZM1856 276.804C1857.06 276.816 1857.69 277.32 1857.68 278.065C1857.67 278.809 1857.24 279.301 1856.19 279.288C1855.13 279.276 1854.29 278.769 1854.3 278.025C1854.31 277.28 1855.16 276.794 1856 276.804ZM1866.19 416.918C1867.24 416.931 1867.87 417.683 1867.86 418.427C1867.85 419.172 1867.42 419.912 1866.36 419.899C1865.31 419.886 1864.47 419.132 1864.48 418.387C1864.28 417.392 1865.13 416.906 1866.19 416.918ZM1873.44 518.773C1874.5 518.785 1875.12 519.537 1875.32 520.284C1875.31 521.029 1874.88 521.769 1873.83 521.756C1872.77 521.743 1871.93 520.989 1871.73 520.242C1871.53 519.495 1872.38 518.76 1873.44 518.773ZM1974.47 185.128C1975.53 185.141 1976.37 185.647 1976.36 186.392C1976.35 187.136 1975.71 187.625 1974.65 187.612C1973.6 187.6 1972.76 187.093 1972.77 186.349C1972.78 185.604 1973.42 185.116 1974.47 185.128ZM2005.97 186.743C2006.81 186.753 2007.65 187.259 2007.64 188.004C2007.64 188.748 2006.99 189.237 2006.15 189.227C2005.09 189.214 2004.25 188.708 2004.26 187.963C2004.06 187.216 2004.91 186.73 2005.97 186.743ZM2001.07 278.276C2001.92 278.286 2002.76 279.041 2002.75 279.537C2002.74 280.282 2002.1 280.771 2001.26 280.761C2000.2 280.748 1999.36 280.242 1999.37 279.497C1999.37 279.001 2000.23 278.266 2001.07 278.276ZM2015.69 418.692C2016.54 418.702 2017.38 419.208 2017.58 420.203C2017.57 420.948 2016.93 421.437 2016.08 421.427C2015.24 421.417 2014.4 420.91 2014.2 419.915C2014 419.168 2014.85 418.682 2015.69 418.692ZM2026.33 520.586C2027.39 520.599 2028.01 521.351 2028.22 522.098C2028.2 523.091 2027.56 523.579 2026.72 523.569C2025.66 523.557 2024.82 523.05 2024.62 522.055C2024.63 521.062 2025.48 520.576 2026.33 520.586ZM2133.06 188.498C2134.11 188.511 2134.95 189.265 2134.94 189.762C2135.15 190.509 2134.29 191.243 2133.45 191.233C2132.39 191.221 2131.55 190.466 2131.56 189.722C2131.36 189.223 2132 188.486 2133.06 188.498ZM2145.5 280.486C2146.56 280.498 2147.4 281.005 2147.6 281.752C2147.8 282.499 2146.95 282.985 2145.89 282.972C2144.84 282.96 2144 282.454 2143.79 281.706C2143.8 281.21 2144.44 280.473 2145.5 280.486ZM2164.37 419.214C2165.43 419.226 2166.27 419.981 2166.47 420.728C2166.67 421.475 2165.82 422.21 2164.76 422.197C2163.7 422.184 2162.86 421.43 2162.66 420.683C2162.67 419.938 2163.31 419.201 2164.37 419.214ZM2178.38 522.39C2179.43 522.402 2180.48 523.159 2180.47 523.904C2180.67 524.651 2179.82 525.385 2178.76 525.373C2177.71 525.36 2176.66 524.603 2176.67 523.859C2176.47 522.863 2177.32 522.377 2178.38 522.39ZM2260.36 190.008C2261.42 190.021 2262.25 190.775 2262.25 191.272C2262.45 192.019 2261.6 192.505 2260.75 192.495C2259.7 192.482 2258.86 191.976 2258.65 191.229C2258.66 190.733 2259.51 189.998 2260.36 190.008ZM2290.78 282.209C2291.84 282.221 2292.67 282.976 2292.88 283.475C2293.08 284.222 2292.23 284.956 2291.38 284.946C2290.32 284.934 2289.49 284.179 2289.28 283.432C2288.87 282.931 2289.72 282.196 2290.78 282.209ZM2314.09 420.99C2315.15 421.002 2315.99 421.757 2316.19 422.504C2316.39 423.251 2315.54 423.985 2314.69 423.975C2313.63 423.963 2312.8 423.208 2312.59 422.461C2312.39 421.714 2313.03 420.977 2314.09 420.99ZM2331.27 524.203C2332.32 524.215 2333.37 524.973 2333.36 525.717C2333.57 526.464 2332.71 527.199 2331.65 527.186C2330.6 527.173 2329.55 526.416 2329.56 525.672C2329.57 524.927 2330.21 524.19 2331.27 524.203ZM2401.41 191.929C2402.25 191.939 2403.3 192.696 2403.51 193.195C2403.71 193.942 2403.07 194.431 2402.01 194.419C2401.17 194.408 2400.33 193.654 2400.12 193.155C2399.92 192.656 2400.56 191.919 2401.41 191.929ZM2416.6 283.949C2417.45 283.959 2418.29 284.466 2418.49 285.213C2418.69 285.96 2418.05 286.449 2417.21 286.439C2416.15 286.426 2415.31 285.92 2415.11 285.173C2414.9 284.426 2415.75 283.939 2416.6 283.949ZM2443.72 422.775C2444.56 422.785 2445.61 423.542 2445.61 424.039C2445.81 425.034 2445.17 425.523 2444.32 425.513C2443.26 425.5 2442.21 424.743 2442.22 423.999C2442.02 423.5 2442.87 422.765 2443.72 422.775ZM2467.03 525.813C2468.09 525.826 2469.14 526.583 2469.34 527.33C2469.54 528.077 2468.69 528.811 2467.63 528.799C2466.57 528.786 2465.73 528.032 2465.74 527.287C2465.33 526.538 2465.97 525.801 2467.03 525.813Z" stroke="#939393" stroke-width="0.5" stroke-miterlimit="22.9256"/>
</g>
<mask id="path-51-inside-1_821_37464" fill="white">
<path d="M394 264H329V277H312V264H123V160H394V264Z"/>
</mask>
<path d="M394 264H329V277H312V264H123V160H394V264Z" fill="white"/>
<path d="M394 264V268H398V264H394ZM329 264V260H325V264H329ZM329 277V281H333V277H329ZM312 277H308V281H312V277ZM312 264H316V260H312V264ZM123 264H119V268H123V264ZM123 160V156H119V160H123ZM394 160H398V156H394V160ZM394 264V260H329V264V268H394V264ZM329 264H325V277H329H333V264H329ZM329 277V273H312V277V281H329V277ZM312 277H316V264H312H308V277H312ZM312 264V260H123V264V268H312V264ZM123 264H127V160H123H119V264H123ZM123 160V164H394V160V156H123V160ZM394 160H390V264H394H398V160H394Z" fill="#CDCDCD" mask="url(#path-51-inside-1_821_37464)"/>
<mask id="path-53-inside-2_821_37464" fill="white">
<path d="M741 1115.61H693V1318H296V991H741V1115.61Z"/>
</mask>
<path d="M741 1115.61H693V1318H296V991H741V1115.61Z" fill="#DDE5ED"/>
<path d="M741 1115.61V1117.61H743V1115.61H741ZM693 1115.61V1113.61H691V1115.61H693ZM693 1318V1320H695V1318H693ZM296 1318H294V1320H296V1318ZM296 991V989H294V991H296ZM741 991H743V989H741V991ZM741 1115.61V1113.61H693V1115.61V1117.61H741V1115.61ZM693 1115.61H691V1318H693H695V1115.61H693ZM693 1318V1316H296V1318V1320H693V1318ZM296 1318H298V991H296H294V1318H296ZM296 991V993H741V991V989H296V991ZM741 991H739V1115.61H741H743V991H741Z" fill="#8FA9C0" mask="url(#path-53-inside-2_821_37464)"/>
<rect x="629" y="782" width="111" height="59" fill="#DDE5ED" stroke="#8FA9C0" stroke-width="2"/>
<mask id="path-56-inside-3_821_37464" fill="white">
<path d="M711 720.703H741V751.997H628V619H711V720.703Z"/>
</mask>
<path d="M711 720.703H741V751.997H628V619H711V720.703Z" fill="#DDE5ED"/>
<path d="M711 720.703H709V722.703H711V720.703ZM741 720.703H743V718.703H741V720.703ZM741 751.997V753.997H743V751.997H741ZM628 751.997H626V753.997H628V751.997ZM628 619V617H626V619H628ZM711 619H713V617H711V619ZM711 720.703V722.703H741V720.703V718.703H711V720.703ZM741 720.703H739V751.997H741H743V720.703H741ZM741 751.997V749.997H628V751.997V753.997H741V751.997ZM628 751.997H630V619H628H626V751.997H628ZM628 619V621H711V619V617H628V619ZM711 619H709V720.703H711H713V619H711Z" fill="#8FA9C0" mask="url(#path-56-inside-3_821_37464)"/>
<mask id="path-58-inside-4_821_37464" fill="white">
<path d="M865 703L790 703L790 670L903 670L903 803L865 803L865 703Z"/>
</mask>
<path d="M865 703L790 703L790 670L903 670L903 803L865 803L865 703Z" fill="#DDE5ED"/>
<path d="M865 703L867 703L867 701L865 701L865 703ZM790 703L788 703L788 705L790 705L790 703ZM790 670L790 668L788 668L788 670L790 670ZM903 670L905 670L905 668L903 668L903 670ZM903 803L903 805L905 805L905 803L903 803ZM865 803L863 803L863 805L865 805L865 803ZM865 703L865 701L790 701L790 703L790 705L865 705L865 703ZM790 703L792 703L792 670L790 670L788 670L788 703L790 703ZM790 670L790 672L903 672L903 670L903 668L790 668L790 670ZM903 670L901 670L901 803L903 803L905 803L905 670L903 670ZM903 803L903 801L865 801L865 803L865 805L903 805L903 803ZM865 803L867 803L867 703L865 703L863 703L863 803L865 803Z" fill="#8FA9C0" mask="url(#path-58-inside-4_821_37464)"/>
<mask id="path-60-inside-5_821_37464" fill="white">
<path d="M1176 1318H891V1318H691V1194.58H788.998V1104H1176V1318Z"/>
</mask>
<path d="M1176 1318H891V1318H691V1194.58H788.998V1104H1176V1318Z" fill="#DDE5ED"/>
<path d="M1176 1318V1320H1178V1318H1176ZM891 1318V1316H889V1318H891ZM891 1318V1320H893V1318H891ZM691 1318H689V1320H691V1318ZM691 1194.58V1192.58H689V1194.58H691ZM788.998 1194.58V1196.58H790.998V1194.58H788.998ZM788.998 1104V1102H786.998V1104H788.998ZM1176 1104H1178V1102H1176V1104ZM1176 1318V1316H891V1318V1320H1176V1318ZM891 1318H889V1318H891H893V1318H891ZM891 1318V1316H691V1318V1320H891V1318ZM691 1318H693V1194.58H691H689V1318H691ZM691 1194.58V1196.58H788.998V1194.58V1192.58H691V1194.58ZM788.998 1194.58H790.998V1104H788.998H786.998V1194.58H788.998ZM788.998 1104V1106H1176V1104V1102H788.998V1104ZM1176 1104H1174V1318H1176H1178V1104H1176Z" fill="#8FA9C0" mask="url(#path-60-inside-5_821_37464)"/>
<path d="M460 992V936.5H502" stroke="#CDCDCD" stroke-width="3"/>
<path d="M273.5 841H371.5" stroke="#CDCDCD" stroke-width="3"/>
<path d="M296 630H531V741" stroke="#CDCDCD" stroke-width="4"/>
<path d="M506 741L628 741" stroke="#CDCDCD" stroke-width="3"/>
<path d="M485 529L531 529" stroke="#CDCDCD" stroke-width="3"/>
<path d="M296 529L444 529" stroke="#CDCDCD" stroke-width="3"/>
<path d="M818.251 528L855.061 579.714H739.288V620H530V528H818.251Z" fill="#DDE5ED" stroke="#8FA9C0" stroke-width="2"/>
<rect x="127" y="164" width="263" height="96" fill="#F3F8FC"/>
<rect x="234" y="178" width="62" height="62" rx="2" fill="#2D2D2D"/>
<path d="M265 196.05C272.7 195.942 280.377 201.324 285.006 206.417C286.321 207.883 286.323 210.104 285.012 211.574C280.432 216.614 272.865 221.95 265.258 221.95H264.719C257.138 221.95 249.568 216.614 244.994 211.576C243.68 210.107 243.68 207.885 244.994 206.417C249.623 201.326 257.3 195.94 265 196.05ZM265 200.95C260.554 200.95 256.95 204.554 256.95 209C256.95 213.446 260.554 217.05 265 217.05C269.446 217.05 273.05 213.446 273.05 209C273.049 204.554 269.446 200.95 265 200.95Z" fill="white"/>
<circle cx="265" cy="209" r="3.5" fill="white"/>
<path d="M113.043 355.441C124.187 362.611 124.361 378.76 113.565 386.21L113.044 386.559L65.0098 417.46L65.0088 417.46C52.6972 425.38 36.5002 416.541 36.5 401.902L36.5 340.098C36.5003 325.687 52.1957 316.897 64.4297 324.181L65.0088 324.54L113.043 355.441Z" fill="white" stroke="#CDCDCD" stroke-width="3"/>
<path d="M113.043 627.441C124.187 634.611 124.361 650.76 113.565 658.21L113.044 658.559L65.0098 689.46L65.0088 689.46C52.6972 697.38 36.5002 688.541 36.5 673.902L36.5 612.098C36.5003 597.687 52.1957 588.897 64.4297 596.181L65.0088 596.54L113.043 627.441Z" fill="white" stroke="#CDCDCD" stroke-width="3"/>
<path d="M113.043 899.441C124.187 906.611 124.361 922.76 113.565 930.21L113.044 930.559L65.0098 961.46L65.0088 961.46C52.6972 969.38 36.5002 960.541 36.5 945.902L36.5 884.098C36.5003 869.687 52.1957 860.897 64.4297 868.181L65.0088 868.54L113.043 899.441Z" fill="white" stroke="#CDCDCD" stroke-width="3"/>
<path d="M113.043 1171.44C124.187 1178.61 124.361 1194.76 113.565 1202.21L113.044 1202.56L65.0098 1233.46L65.0088 1233.46C52.6972 1241.38 36.5002 1232.54 36.5 1217.9L36.5 1156.1C36.5003 1141.69 52.1957 1132.9 64.4297 1140.18L65.0088 1140.54L113.043 1171.44Z" fill="white" stroke="#CDCDCD" stroke-width="3"/>
</g>
<defs>
<clipPath id="clip0_821_37464">
<rect width="2475" height="1469" fill="white"/>
</clipPath>
<clipPath id="clip1_821_37464">
<rect width="1366.24" height="362.436" fill="white" transform="translate(1389.26 169) rotate(0.679525)"/>
</clipPath>
</defs>
</svg>
