<?xml version="1.0" encoding="UTF-8"?>
<svg width="2475" height="1469" fill="none" version="1.1" viewBox="0 0 2475 1469" xmlns="http://www.w3.org/2000/svg">
 <path d="M740 661H904V850H740V661Z" fill="#F3F8FC"/>
 <g clip-path="url(#clip0_821_37464)">
  <rect x="429" y="730" width="62" height="62" rx="2" fill="#2D2D2D"/>
  <g fill="#fff">
   <path d="m447.75 743.06c3.079 0 5.796 2.012 6.695 4.957s-0.233 6.131-2.788 7.85c-0.223 0.15-0.365 0.394-0.385 0.662-0.02 0.269 0.085 0.531 0.284 0.712 0.736 0.668 1.279 1.521 1.575 2.469l3.33 10.659c0.083 0.266 0.035 0.555-0.13 0.78-0.165 0.224-0.426 0.356-0.704 0.356h-2.379c-0.444-3e-3 -0.82 0.326-0.875 0.767l-1.121 8.968c-0.056 0.44-0.432 0.768-0.875 0.765h-5.25c-0.444 4e-3 -0.82-0.325-0.875-0.765l-1.109-8.968c-0.055-0.441-0.431-0.77-0.875-0.767h-2.391c-0.278-1e-3 -0.539-0.133-0.703-0.357-0.165-0.225-0.213-0.513-0.13-0.779l3.325-10.659c0.296-0.948 0.839-1.801 1.574-2.469 0.199-0.181 0.304-0.443 0.284-0.712-0.02-0.268-0.162-0.512-0.386-0.662-2.554-1.719-3.685-4.905-2.787-7.85 0.899-2.945 3.617-4.957 6.696-4.957zm0.592 5.424c-0.334-0.305-0.846-0.305-1.18 0-0.677 0.614-1.452 1.112-2.291 1.474-0.397 0.174-0.607 0.612-0.493 1.03 0.411 1.522 1.791 2.579 3.367 2.579 1.575-1e-3 2.955-1.058 3.366-2.579 0.114-0.418-0.096-0.856-0.493-1.03-0.834-0.363-1.603-0.86-2.276-1.474z"/>
   <path d="m460 740c-0.966 0-1.75 0.784-1.75 1.75v38.5c0 0.966 0.784 1.75 1.75 1.75s1.75-0.784 1.75-1.75v-38.5c0-0.966-0.784-1.75-1.75-1.75z"/>
   <path d="m472.25 743.02c2.985 0 5.642 1.894 6.616 4.716s0.053 5.951-2.297 7.793c-0.228 0.179-0.352 0.459-0.333 0.748 0.02 0.289 0.181 0.549 0.431 0.696 2.68 1.558 4.33 4.424 4.333 7.525v4.375c0 0.483-0.392 0.875-0.875 0.875h-2.355c-0.45-3e-3 -0.828 0.336-0.875 0.782l-1.145 10.688c-0.049 0.446-0.426 0.783-0.875 0.78h-5.25c-0.449 3e-3 -0.826-0.334-0.875-0.78l-1.134-10.688c-0.047-0.446-0.426-0.784-0.875-0.782h-2.366c-0.483 0-0.875-0.392-0.875-0.875v-4.375c3e-3 -3.101 1.653-5.967 4.333-7.525 0.25-0.147 0.411-0.407 0.431-0.696 0.019-0.289-0.105-0.569-0.333-0.748-2.35-1.842-3.271-4.971-2.297-7.793s3.631-4.716 6.616-4.716zm-2.184 5.675c-0.238-0.112-0.516-0.111-0.754 4e-3 -0.237 0.115-0.411 0.331-0.471 0.588-0.061 0.253-0.091 0.513-0.091 0.773 0 1.933 1.567 3.5 3.5 3.5s3.5-1.567 3.5-3.5c2e-3 -0.137-0.054-0.269-0.154-0.364-0.104-0.093-0.242-0.138-0.38-0.124-0.305 0.033-0.611 0.05-0.917 0.051-1.462 1e-3 -2.906-0.316-4.233-0.928z"/>
  </g>
 </g>
 <path d="m485 529h46" stroke="#CDCDCD" stroke-width="3"/>
 <path d="m296 529h148" stroke="#CDCDCD" stroke-width="3"/>
 <path d="M739.288 528V620H530V528H739.288Z" fill="#DDE5ED" stroke="#8FA9C0" stroke-width="2"/>
 <mask id="path-42-inside-1_821_37464" fill="white">
  <path d="M740 661H904V850H740V661Z"/>
 </mask>
 <path d="m740 661v-2h-2v2zm164 0h2v-2h-2zm-164 0v2h164v-4h-164zm164 0h-2v189h4v-189zm-164 181h2v-181h-4v189z" fill="#8fa9c0" mask="url(#path-42-inside-1_821_37464)"/>
 <mask id="path-53-inside-4_821_37464" fill="white">
  <path d="m711 720.7h30v31.294h-113v-133h83v101.7z"/>
 </mask>
 <path d="m1028.7 659.96c0 0.267 0.26 0.267 0.53 0.267 0 0.267 0 0.267 0.27 0.267 15.72 7.212 31.97 16.561 41.3 28.581 6.93 8.815 9.06 17.63 9.33 27.513 0 5.076-0.54 10.151-1.07 15.226-0.8 14.691-1.87 29.116-2.66 43.54v0.801c-2.14 34.992 35.44 63.841 84.2 63.841 33.04 0 63.68-13.623 79.4-34.458 0.27-0.534 0.8-1.068 1.34-1.603 58.09-73.724 114.84-145.58 170-215.3 21.32-27.513 32.24-57.43 31.98-88.149-0.54-98.298-115.65-175.5-257.41-175.5-128.7 0-241.41 63.841-267.79 149.58-4.796 31.415-5.793 29.415-4.796 52.355 5.862 53.69 47.43 103.11 115.38 133.02z" clip-rule="evenodd" fill="#F6F6F6" fill-rule="evenodd"/>
 <path d="m1185.9 322.5c71.31 0 136.03 19.411 183.07 51.316 47.02 31.9 76.56 76.456 76.84 126.66v1.469c-0.08 30.841-11.23 60.778-32.5 88.232l-0.02 0.02c-55.16 69.716-111.91 141.57-170 215.29l-0.09 0.116-0.1 0.103c-0.28 0.28-0.49 0.487-0.66 0.68-0.16 0.183-0.21 0.268-0.21 0.273l-0.1 0.206-0.14 0.184c-16.3 21.603-47.77 35.452-81.4 35.452-24.85 0-46.99-7.348-62.7-19.309-15.71-11.953-25.11-28.629-24-47.118v-0.853c0.4-7.226 0.87-14.45 1.33-21.693 0.47-7.246 0.93-14.514 1.33-21.845l0.01-0.063v-0.062c0.54-5.079 1.05-10.006 1.06-14.911-0.26-9.493-2.29-17.74-8.8-26.022l-0.01-0.012c-8.85-11.417-24.44-20.505-40-27.672-0.27-0.056-0.71-0.191-1.12-0.53-0.2-0.101-0.42-0.24-0.63-0.434-68.109-30.177-110.26-80.075-116.24-134.76l-9e-3 -0.081-3e-3 -0.081c-0.5-11.493-0.508-16.893 0.24-23.394 0.73-6.344 2.207-13.884 4.583-29.447l0.027-0.183 0.055-0.175 0.318-1.022c13.667-43.231 48.811-80.691 96.375-107.37 47.96-26.902 108.74-42.958 173.49-42.958z" fill="#F6F6F6" stroke="#CDCDCD" stroke-width="5"/>
 <rect x="861" y="482" width="62" height="62" rx="2" fill="#2D2D2D"/>
 <g fill="#fff">
  <path d="m879.75 498.72h0.875c0.483 0 0.875 0.376 0.875 0.84v0.84c0 0.928 0.783 1.68 1.75 1.68 0.966 0 1.75-0.752 1.75-1.68v-0.84c0-0.464 0.391-0.84 0.875-0.84h0.875c0.354 1e-3 0.674-0.204 0.81-0.518 0.135-0.314 0.06-0.676-0.191-0.917l-3.5-3.36c-0.164-0.157-0.387-0.246-0.619-0.246-0.233 0-0.456 0.089-0.62 0.246l-3.5 3.36c-0.251 0.241-0.326 0.603-0.19 0.917 0.135 0.314 0.455 0.519 0.81 0.518z"/>
  <path d="m900.13 501.84c0.164 0.158 0.387 0.247 0.62 0.247 0.232 0 0.455-0.089 0.619-0.247l3.5-3.36c0.251-0.24 0.326-0.602 0.191-0.916-0.136-0.314-0.456-0.519-0.81-0.518h-0.875c-0.484 0-0.875-0.376-0.875-0.84v-0.84c0-0.928-0.784-1.68-1.75-1.68-0.967 0-1.75 0.752-1.75 1.68v0.84c0 0.464-0.392 0.84-0.875 0.84h-0.875c-0.355-1e-3 -0.675 0.204-0.81 0.518-0.136 0.314-0.061 0.676 0.19 0.916l3.5 3.36z"/>
  <path d="m906 503.76c1.45 0 2.625 1.128 2.625 2.519v25.2c0 1.392-1.175 2.521-2.625 2.521h-28c-1.45 0-2.625-1.129-2.625-2.521v-25.2c0-1.391 1.175-2.519 2.625-2.519h28zm-21.875 11.76c-2.899 0-5.25 2.256-5.25 5.04v2.52c0 0.464 0.392 0.84 0.875 0.84h0.628c0.444-3e-3 0.82 0.313 0.875 0.735l0.685 5.25c0.055 0.422 0.431 0.738 0.874 0.735h2.612c0.443 3e-3 0.819-0.313 0.875-0.735l0.683-5.25c0.056-0.422 0.432-0.738 0.875-0.735h0.643c0.483 0 0.875-0.376 0.875-0.84v-2.52c0-2.784-2.351-5.04-5.25-5.04zm15.75 0c-2.899 0-5.25 2.256-5.25 5.04v2.52c0 0.464 0.392 0.84 0.875 0.84h0.614c0.444-3e-3 0.82 0.313 0.875 0.735l0.685 5.25c0.056 0.422 0.432 0.738 0.875 0.735h2.625c0.443 3e-3 0.819-0.313 0.875-0.735l0.683-5.25c0.056-0.422 0.432-0.738 0.875-0.735h0.643c0.483 0 0.875-0.376 0.875-0.84v-2.52c0-2.784-2.351-5.04-5.25-5.04zm-15.75-9.241c-2.173 3e-3 -3.934 1.694-3.937 3.781 0 2.087 1.762 3.78 3.937 3.78s3.937-1.693 3.937-3.78c0-2.088-1.762-3.781-3.937-3.781zm15.75 0c-2.173 3e-3 -3.934 1.694-3.937 3.781 0 2.087 1.762 3.78 3.937 3.78s3.937-1.693 3.937-3.78c0-2.088-1.762-3.781-3.937-3.781z"/>
 </g>
 <rect x="861" y="557" width="61.291" height="61.969" rx="2" fill="#2D2D2D"/>
 <path d="m901.46 581.08c0.342 0.342 0.342 0.896 0 1.237l-2.21 2.209c-0.251 0.25-0.326 0.627-0.19 0.954 0.136 0.328 0.455 0.541 0.81 0.54h8.75c0.483 0 0.875-0.392 0.875-0.875v-8.75c0-0.354-0.214-0.673-0.541-0.808-0.327-0.133-0.702-0.058-0.954 0.189l-2.208 2.21c-0.342 0.342-0.896 0.342-1.238 0l-8.387-8.388c-0.55-0.568-1.363-0.796-2.128-0.596-0.765 0.201-1.362 0.798-1.562 1.563s0.029 1.578 0.597 2.127l8.386 8.388z" fill="#fff"/>
 <path d="m913 600.89c0-3.383-2.742-6.125-6.125-6.125h-5.901c-0.241-1e-3 -0.472-0.101-0.637-0.277l-12.087-12.892c-0.497-0.53-1.19-0.831-1.917-0.831h-9.208c-3.383 0-6.125 2.742-6.125 6.125 0 3.382 2.742 6.125 6.125 6.125h5.026c0.241 0 0.472 0.1 0.637 0.276l12.089 12.892c0.496 0.53 1.189 0.831 1.915 0.832h10.083c3.383 0 6.125-2.743 6.125-6.125z" fill="#fff"/>
 <rect x="721" y="639" width="62" height="62" rx="2" fill="#2D2D2D"/>
 <g fill="#fff">
  <path d="m739.75 652.06c3.079 0 5.796 2.012 6.695 4.957s-0.233 6.131-2.788 7.85c-0.223 0.15-0.365 0.394-0.385 0.662-0.02 0.269 0.085 0.531 0.284 0.712 0.736 0.668 1.279 1.521 1.575 2.469l3.33 10.659c0.083 0.266 0.035 0.555-0.13 0.78-0.165 0.224-0.426 0.356-0.704 0.356h-2.379c-0.444-3e-3 -0.82 0.326-0.875 0.767l-1.121 8.968c-0.056 0.44-0.432 0.768-0.875 0.765h-5.25c-0.444 4e-3 -0.82-0.325-0.875-0.765l-1.109-8.968c-0.055-0.441-0.431-0.77-0.875-0.767h-2.391c-0.278-1e-3 -0.539-0.133-0.703-0.357-0.165-0.225-0.213-0.513-0.13-0.779l3.325-10.659c0.296-0.948 0.839-1.801 1.574-2.469 0.199-0.181 0.304-0.443 0.284-0.712-0.02-0.268-0.162-0.512-0.386-0.662-2.554-1.719-3.685-4.905-2.787-7.85 0.899-2.945 3.617-4.957 6.696-4.957zm0.592 5.424c-0.334-0.305-0.846-0.305-1.18 0-0.677 0.614-1.452 1.112-2.291 1.474-0.397 0.174-0.607 0.612-0.493 1.03 0.411 1.522 1.791 2.579 3.367 2.579 1.575-1e-3 2.955-1.058 3.366-2.579 0.114-0.418-0.096-0.856-0.493-1.03-0.834-0.363-1.603-0.86-2.276-1.474z"/>
  <path d="m752 649c-0.966 0-1.75 0.784-1.75 1.75v38.5c0 0.966 0.784 1.75 1.75 1.75s1.75-0.784 1.75-1.75v-38.5c0-0.966-0.784-1.75-1.75-1.75z"/>
  <path d="m764.25 652.02c2.985 0 5.642 1.894 6.616 4.716s0.053 5.951-2.297 7.793c-0.228 0.179-0.352 0.459-0.333 0.748 0.02 0.289 0.181 0.549 0.431 0.696 2.68 1.558 4.33 4.424 4.333 7.525v4.375c0 0.483-0.392 0.875-0.875 0.875h-2.355c-0.45-3e-3 -0.828 0.336-0.875 0.782l-1.145 10.688c-0.049 0.446-0.426 0.783-0.875 0.78h-5.25c-0.449 3e-3 -0.826-0.334-0.875-0.78l-1.134-10.688c-0.047-0.446-0.426-0.784-0.875-0.782h-2.366c-0.483 0-0.875-0.392-0.875-0.875v-4.375c3e-3 -3.101 1.653-5.967 4.333-7.525 0.25-0.147 0.411-0.407 0.431-0.696 0.019-0.289-0.105-0.569-0.333-0.748-2.35-1.842-3.271-4.971-2.297-7.793s3.631-4.716 6.616-4.716zm-2.184 5.675c-0.238-0.112-0.516-0.111-0.754 4e-3 -0.237 0.115-0.411 0.331-0.471 0.588-0.061 0.253-0.091 0.513-0.091 0.773 0 1.933 1.567 3.5 3.5 3.5s3.5-1.567 3.5-3.5c2e-3 -0.137-0.054-0.269-0.154-0.364-0.104-0.093-0.242-0.138-0.38-0.124-0.305 0.033-0.611 0.05-0.917 0.051-1.462 1e-3 -2.906-0.316-4.233-0.928z"/>
 </g>
 <path d="m711 720.7h30v31.294h-113v-133h83z" fill="#dde5ed"/>
 <path d="m711 720.7h-2v2h2v-2zm30 0h2v-2h-2v2zm0 31.294v2h2v-2h-2zm-113 0h-2v2h2v-2zm0-133v-2h-2v2h2zm83 0h2v-2h-2v2zm0 101.7v2h30v-4h-30v2zm30 0h-2v31.294h4v-31.294h-2zm0 31.294v-2h-113v4h113v-2zm-113 0h2v-133h-4v133h2zm0-133v2h83v-4h-83v2zm83 0h-2v101.7h4v-101.7h-2z" fill="#8FA9C0" mask="url(#path-53-inside-4_821_37464)"/>
 <rect x="630" y="746.15" width="109" height="8.3729" fill="#dde5ed" stroke-width="2.2972"/>
</svg>
