<svg width="2650" height="1469" viewBox="0 0 2650 1469" fill="none" xmlns="http://www.w3.org/2000/svg">
<path d="M379 570.434C379 571.299 379.701 572 380.566 572H730.091C739.982 572 748 563.982 748 554.091C748 545.924 742.475 538.792 734.567 536.75L638.875 512.05C638.747 512.017 638.616 512 638.484 512H380.566C379.701 512 379 512.701 379 513.566V570.434Z" fill="#efe2d8" stroke="#e49d68" stroke-width="2"/>
<path d="M379 570.434C379 571.299 379.701 572 380.566 572H730.091C739.982 572 748 563.982 748 554.091C748 545.924 742.475 538.792 734.567 536.75L638.875 512.05C638.747 512.017 638.616 512 638.484 512H380.566C379.701 512 379 512.701 379 513.566V570.434Z" fill="#efe2d8" stroke="#e49d68" stroke-width="2"/>
<path d="M379 648.566C379 647.701 379.701 647 380.566 647H772.257C781.504 647 789 654.496 789 663.743C789 671.599 783.537 678.399 775.866 680.092L667.703 703.963C667.592 703.988 667.479 704 667.366 704H380.566C379.701 704 379 703.299 379 702.434V648.566Z" fill="#efe2d8" stroke="#e49d68" stroke-width="2"/>
<path d="M379 648.566C379 647.701 379.701 647 380.566 647H772.257C781.504 647 789 654.496 789 663.743C789 671.599 783.537 678.399 775.866 680.092L667.703 703.963C667.592 703.988 667.479 704 667.366 704H380.566C379.701 704 379 703.299 379 702.434V648.566Z" fill="#efe2d8" stroke="#e49d68" stroke-width="2"/>
<path d="M379 780.566C379 779.701 379.701 779 380.566 779H772.579C781.648 779 789 786.352 789 795.421C789 803.149 783.611 809.832 776.059 811.469L667.7 834.964C667.591 834.988 667.48 835 667.368 835H380.566C379.701 835 379 834.299 379 833.434V780.566Z" fill="#efe2d8" stroke="#e49d68" stroke-width="2"/>
<path d="M379 780.566C379 779.701 379.701 779 380.566 779H772.579C781.648 779 789 786.352 789 795.421C789 803.149 783.611 809.832 776.059 811.469L667.7 834.964C667.591 834.988 667.48 835 667.368 835H380.566C379.701 835 379 834.299 379 833.434V780.566Z" fill="#efe2d8" stroke="#e49d68" stroke-width="2"/>
<path d="M379 911.566C379 910.701 379.701 910 380.566 910H772.257C781.504 910 789 917.496 789 926.743C789 934.599 783.537 941.399 775.866 943.092L667.703 966.963C667.592 966.988 667.479 967 667.366 967H380.566C379.701 967 379 966.299 379 965.434V911.566Z" fill="#efe2d8" stroke="#e49d68" stroke-width="2"/>
<path d="M379 911.566C379 910.701 379.701 910 380.566 910H772.257C781.504 910 789 917.496 789 926.743C789 934.599 783.537 941.399 775.866 943.092L667.703 966.963C667.592 966.988 667.479 967 667.366 967H380.566C379.701 967 379 966.299 379 965.434V911.566Z" fill="#efe2d8" stroke="#e49d68" stroke-width="2"/>
<path d="M379 1043.57C379 1042.7 379.701 1042 380.566 1042H772.579C781.648 1042 789 1049.35 789 1058.42C789 1066.15 783.611 1072.83 776.059 1074.47L667.7 1097.96C667.591 1097.99 667.48 1098 667.368 1098H380.566C379.701 1098 379 1097.3 379 1096.43V1043.57Z" fill="#efe2d8" stroke="#e49d68" stroke-width="2"/>
<path d="M379 1043.57C379 1042.7 379.701 1042 380.566 1042H772.579C781.648 1042 789 1049.35 789 1058.42C789 1066.15 783.611 1072.83 776.059 1074.47L667.7 1097.96C667.591 1097.99 667.48 1098 667.368 1098H380.566C379.701 1098 379 1097.3 379 1096.43V1043.57Z" fill="#efe2d8" stroke="#e49d68" stroke-width="2"/>
</svg>
