<?xml version="1.0" encoding="UTF-8"?>
<svg width="1095" height="653" fill="none" version="1.1" viewBox="0 0 1095 653" xmlns="http://www.w3.org/2000/svg">
 <path d="m0 0h1095v653h-1095z" fill="#fff"/>
 <path d="m197.27 316.66h4.157l576.04 0.316v-31.978h53l134.75 1.972c46.137 0.675 91.657 12.504 131.83 35.218 100.28 56.702 94.42 65.314 94.42 177.93h-90c-10.5-129.62-111.5-121.12-271-121.12h-587.2l-100.8 110.31-39.467-34.588 94.266-89.048z" fill="#5b5b5b"/>
 <g opacity=".5">
  <path d="m-385.63 193.36 77.412-39.344h805.18v157.04h-306.07v49.732l-76.011 71.338-34.251 32.444 36.879 38.894-30.348 30.34-36.747-40.797-11.543 10.457v117.67h-339.38l-12.806-29h-72.315v-336.02z" fill="#fff"/>
  <g stroke="#cdcdcd">
   <path d="m-313.32 592.13h-72.315v-398.77l77.412-39.344h805.18v157.04h-306.07v49.732l-76.011 71.338-34.251 32.444m-393.95 127.56 12.806 29h31.284m-44.09-29h11.152m32.938 29h308.1v-117.67l11.543-10.457m-319.64 128.12v-29h-9.121m358.98-127.56 36.879 38.894-30.348 30.34-36.747-40.797m30.216-28.437-30.216 28.437" stroke-width="1.6135"/>
   <path d="m179.32 178.03v-23.379h317.41v76.77h-50.532l-9.475 12.637h-115.59v-18.956h-32.531v18.956h-35.373v-66.028z" fill="#c4d3e8" stroke-width=".80676"/>
   <rect transform="rotate(-90,472.73,310.68)" x="472.73" y="310.68" width="49.212" height="24.203" fill="#c4d3e8" stroke-width=".80676"/>
  </g>
  <g stroke="#fff" stroke-width="1.2101">
   <path d="m225.75 311.03h27.793"/>
   <path d="m301.55 311.03h42.953"/>
   <path d="m396.3 311.03h42.953"/>
  </g>
  <path d="m319.69 326.99-3.244-3.686c-0.157-0.162-0.37-0.258-0.595-0.269-0.225 0.011-0.437 0.107-0.594 0.269l-3.245 3.686c-0.115 0.127-0.153 0.306-0.099 0.469 0.054 0.162 0.191 0.283 0.36 0.316 0.168 0.033 0.341-0.027 0.452-0.158l2.504-2.845c0.024-0.027 0.06-0.036 0.093-0.023 0.033 0.012 0.054 0.044 0.054 0.078v5.801c0 0.262 0.213 0.475 0.475 0.475 0.263 0 0.475-0.213 0.475-0.475v-5.801c0-0.035 0.022-0.066 0.055-0.078 0.032-0.013 0.069-3e-3 0.092 0.023l2.504 2.845c0.112 0.131 0.285 0.191 0.453 0.158s0.306-0.154 0.36-0.316c0.054-0.163 0.016-0.342-0.1-0.469z" fill="#fff"/>
  <path d="m323.3 327.15 3.245 3.686c0.156 0.162 0.369 0.258 0.594 0.269 0.225-0.011 0.437-0.108 0.594-0.269l3.245-3.686c0.115-0.127 0.153-0.306 0.099-0.469s-0.191-0.284-0.359-0.317c-0.169-0.033-0.342 0.028-0.453 0.158l-2.504 2.846c-0.023 0.026-0.06 0.035-0.093 0.023-0.032-0.012-0.054-0.044-0.054-0.079v-5.8c0-0.262-0.213-0.475-0.475-0.475s-0.475 0.213-0.475 0.475v5.8c0 0.035-0.022 0.067-0.054 0.079-0.033 0.012-0.07 3e-3 -0.093-0.023l-2.504-2.846c-0.111-0.13-0.284-0.191-0.453-0.158-0.168 0.033-0.305 0.154-0.359 0.317s-0.016 0.342 0.099 0.469z" fill="#fff"/>
  <g stroke="#fff" stroke-linecap="round" stroke-width="1.2101">
   <path d="m300.11 337.56h42.759"/>
   <path d="m300.11 340.38h42.759"/>
   <path d="m300.11 343.21h42.759"/>
   <path d="m300.11 346.03h42.759"/>
   <path d="m300.11 348.86h42.759"/>
   <path d="m300.11 351.68h42.759"/>
   <path d="m300.11 354.5h42.759"/>
   <path d="m300.11 357.33h42.759"/>
   <path d="m300.11 360.15h42.759"/>
   <path d="m300.11 362.97h42.759"/>
   <path d="m300.11 365.8h42.759"/>
  </g>
  <path d="m418.52 326.99-3.245-3.686c-0.157-0.162-0.37-0.258-0.595-0.269-0.225 0.011-0.437 0.107-0.594 0.269l-3.245 3.686c-0.115 0.127-0.153 0.306-0.099 0.469 0.054 0.162 0.191 0.283 0.36 0.316 0.168 0.033 0.341-0.027 0.452-0.158l2.505-2.845c0.023-0.027 0.06-0.036 0.092-0.023 0.033 0.012 0.054 0.044 0.054 0.078v5.801c0 0.262 0.213 0.475 0.475 0.475 0.263 0 0.475-0.213 0.475-0.475v-5.801c0-0.035 0.022-0.066 0.055-0.078 0.033-0.013 0.07-3e-3 0.093 0.023l2.504 2.845c0.111 0.131 0.284 0.191 0.452 0.158s0.306-0.154 0.36-0.316c0.054-0.163 0.016-0.342-0.099-0.469z" fill="#fff"/>
  <path d="m422.13 327.15 3.245 3.686c0.157 0.162 0.369 0.258 0.594 0.269 0.225-0.011 0.438-0.108 0.594-0.269l3.245-3.686c0.116-0.127 0.154-0.306 0.1-0.469s-0.192-0.284-0.36-0.317-0.341 0.028-0.453 0.158l-2.504 2.846c-0.023 0.026-0.06 0.035-0.093 0.023-0.032-0.012-0.054-0.044-0.054-0.079v-5.8c0-0.262-0.213-0.475-0.475-0.475s-0.475 0.213-0.475 0.475v5.8c0 0.035-0.022 0.067-0.054 0.079-0.033 0.012-0.07 3e-3 -0.093-0.023l-2.504-2.846c-0.111-0.13-0.284-0.191-0.453-0.158-0.168 0.033-0.305 0.154-0.359 0.317s-0.016 0.342 0.099 0.469z" fill="#fff"/>
  <g stroke="#fff" stroke-linecap="round" stroke-width="1.2101">
   <path d="m398.94 337.56h42.759"/>
   <path d="m398.94 340.38h42.759"/>
   <path d="m398.94 343.21h42.759"/>
   <path d="m398.94 346.03h42.759"/>
   <path d="m398.94 348.86h42.759"/>
   <path d="m398.94 351.68h42.759"/>
   <path d="m398.94 354.5h42.759"/>
   <path d="m398.94 357.33h42.759"/>
   <path d="m398.94 360.15h42.759"/>
   <path d="m398.94 362.97h42.759"/>
   <path d="m398.94 365.8h42.759"/>
  </g>
  <path d="m234.39 324.72 3.245 3.686c0.156 0.162 0.369 0.258 0.594 0.269 0.225-0.011 0.437-0.108 0.594-0.269l3.245-3.686c0.115-0.127 0.153-0.306 0.099-0.469s-0.191-0.284-0.359-0.317c-0.169-0.033-0.342 0.028-0.453 0.158l-2.504 2.846c-0.023 0.026-0.06 0.035-0.093 0.023s-0.054-0.044-0.054-0.079v-5.8c0-0.262-0.213-0.475-0.475-0.475s-0.475 0.213-0.475 0.475v5.8c0 0.035-0.022 0.067-0.054 0.079-0.033 0.012-0.07 3e-3 -0.093-0.023l-2.504-2.846c-0.112-0.13-0.284-0.191-0.453-0.158-0.168 0.033-0.306 0.154-0.359 0.317-0.054 0.163-0.017 0.342 0.099 0.469z" fill="#fff"/>
  <mask id="mask0_2003_24171" x="126" y="312" width="64" height="83" maskUnits="userSpaceOnUse">
   <path d="m126.58 368.66 27.372 25.453 35.794-33.028v-48.481z" fill="#d9d9d9"/>
  </mask>
  <g mask="url(#mask0_2003_24171)" stroke="#e49d68" stroke-opacity=".2" stroke-width="1.0084">
   <line x1="126.58" x2="81.293" y1="188.01" y2="505.48"/>
   <line x1="128.98" x2="83.688" y1="188.35" y2="505.82"/>
   <line x1="131.38" x2="86.086" y1="188.69" y2="506.17"/>
   <line x1="133.77" x2="88.481" y1="189.03" y2="506.51"/>
   <line x1="136.17" x2="90.879" y1="189.38" y2="506.85"/>
   <line x1="138.57" x2="93.274" y1="189.72" y2="507.19"/>
   <line x1="140.96" x2="95.668" y1="190.06" y2="507.53"/>
   <line x1="143.36" x2="98.067" y1="190.4" y2="507.87"/>
   <line x1="145.75" x2="100.46" y1="190.74" y2="508.22"/>
   <line x1="148.15" x2="102.86" y1="191.09" y2="508.56"/>
   <line x1="150.55" x2="105.25" y1="191.43" y2="508.9"/>
   <line x1="152.94" x2="107.65" y1="191.77" y2="509.24"/>
   <line x1="155.34" x2="110.05" y1="192.11" y2="509.58"/>
   <line x1="157.73" x2="112.44" y1="192.45" y2="509.92"/>
   <line x1="160.13" x2="114.84" y1="192.8" y2="510.27"/>
   <line x1="162.53" x2="117.24" y1="193.14" y2="510.61"/>
   <line x1="164.92" x2="119.63" y1="193.48" y2="510.95"/>
   <line x1="167.32" x2="122.03" y1="193.82" y2="511.29"/>
   <line x1="169.71" x2="124.42" y1="194.16" y2="511.63"/>
   <line x1="172.11" x2="126.82" y1="194.5" y2="511.98"/>
   <line x1="174.51" x2="129.22" y1="194.84" y2="512.32"/>
   <line x1="176.9" x2="131.61" y1="195.19" y2="512.66"/>
   <line x1="179.3" x2="134.01" y1="195.53" y2="513"/>
   <line x1="181.69" x2="136.4" y1="195.87" y2="513.34"/>
   <line x1="184.09" x2="138.8" y1="196.21" y2="513.68"/>
   <line x1="186.49" x2="141.2" y1="196.55" y2="514.03"/>
   <line x1="188.88" x2="143.59" y1="196.9" y2="514.37"/>
   <line x1="191.28" x2="145.98" y1="197.24" y2="514.71"/>
   <line x1="193.68" x2="148.38" y1="197.58" y2="515.05"/>
   <line x1="196.07" x2="150.78" y1="197.92" y2="515.39"/>
   <line x1="198.47" x2="153.18" y1="198.26" y2="515.74"/>
   <line x1="200.86" x2="155.57" y1="198.61" y2="516.08"/>
   <line x1="203.26" x2="157.96" y1="198.95" y2="516.42"/>
   <line x1="205.66" x2="160.36" y1="199.29" y2="516.76"/>
   <line x1="208.05" x2="162.76" y1="199.63" y2="517.1"/>
   <line x1="210.45" x2="165.16" y1="199.97" y2="517.45"/>
   <line x1="212.84" x2="167.55" y1="200.32" y2="517.79"/>
   <line x1="215.24" x2="169.95" y1="200.66" y2="518.13"/>
   <line x1="217.64" x2="172.34" y1="201" y2="518.47"/>
   <line x1="220.03" x2="174.74" y1="201.34" y2="518.81"/>
   <line x1="222.42" x2="177.13" y1="201.68" y2="519.15"/>
   <line x1="224.82" x2="179.53" y1="202.02" y2="519.5"/>
   <line x1="227.22" x2="181.93" y1="202.37" y2="519.84"/>
   <line x1="229.62" x2="184.32" y1="202.71" y2="520.18"/>
   <line x1="232.01" x2="186.72" y1="203.05" y2="520.52"/>
   <line x1="234.4" x2="189.11" y1="203.39" y2="520.86"/>
  </g>
  <g stroke="#cdcdcd">
   <g stroke-width=".80676">
    <path d="m190.97 310.66-23.574 21.253"/>
    <path d="m162.56 336.34-12.102 10.891"/>
    <path d="m141.58 354.9-14.925 14.119"/>
    <path d="m154.49 394.43-27.833-25.816"/>
   </g>
   <path d="m128.48 403.35 4.467 4.467 6.7-6.701-4.467-4.467" stroke-width="1.2101"/>
  </g>
  <rect transform="matrix(.707 -.70721 .707 .70721 129.16 402.66)" width="7.5695" height="5.4468" fill="#dde5ed"/>
  <path d="m119.63 412.2 4.467 4.467 6.701-6.7-4.467-4.467" stroke="#cdcdcd" stroke-width="1.2101"/>
  <rect transform="matrix(.707 -.70721 .707 .70721 120.32 411.51)" width="7.5695" height="5.4468" fill="#dde5ed"/>
  <path d="m110.79 421.04 4.467 4.467 6.701-6.701-4.467-4.467" stroke="#cdcdcd" stroke-width="1.2101"/>
  <rect transform="matrix(.707 -.70721 .707 .70721 111.48 420.35)" width="7.5695" height="5.4468" fill="#dde5ed"/>
  <path d="m91.207 440 4.4672 4.467 6.7008-6.701-4.4672-4.467" stroke="#cdcdcd" stroke-width="1.2101"/>
  <rect transform="matrix(.707 -.70721 .707 .70721 91.898 439.31)" width="7.5695" height="5.4468" fill="#dde5ed"/>
  <path d="m81.102 449.48 4.4671 4.467 6.7008-6.701-4.4672-4.467" stroke="#cdcdcd" stroke-width="1.2101"/>
  <rect transform="matrix(.707 -.70721 .707 .70721 81.789 448.79)" width="7.5695" height="5.4468" fill="#dde5ed"/>
  <path d="m50.153 493.33 31.581-29.703" stroke="#e6e6e6" stroke-width="1.8955"/>
  <path d="m86.492 533.05 26.245-26.927c2.617-2.685 6.885-2.83 9.678-0.329l58.287 52.202c2.509 2.247 0.92 6.405-2.449 6.405h-28.615v84.162h-46.743v-84.162h-16.403z" fill="#fff"/>
  <path d="m86.492 533.05 26.245-26.927c2.617-2.685 6.885-2.83 9.678-0.329l58.287 52.202c2.509 2.247 0.92 6.405-2.449 6.405h-28.615m-63.146-31.351v31.351m0-31.351h-47.232m47.232 31.351-47.223 1e-3m110.37-1e-3h-63.146m16.403 0v84.162h46.743v-84.162" stroke="#cdcdcd" stroke-width=".80676"/>
  <rect x="281.97" y="219.73" width="49.27" height="24.642" fill="#fff" stroke="#cdcdcd" stroke-width="1.2637"/>
  <path d="m334.88 131.65-2.19-2.487c-0.106-0.109-0.249-0.174-0.401-0.182-0.152 8e-3 -0.295 0.073-0.401 0.182l-2.19 2.487c-0.077 0.086-0.103 0.207-0.067 0.316 0.037 0.11 0.13 0.192 0.243 0.214 0.114 0.022 0.23-0.018 0.306-0.106l1.689-1.921c0.016-0.017 0.041-0.024 0.063-0.015 0.022 8e-3 0.037 0.029 0.037 0.053v3.914c0 0.177 0.143 0.32 0.32 0.32s0.321-0.143 0.321-0.32v-3.914c0-0.024 0.014-0.045 0.036-0.053 0.022-9e-3 0.047-2e-3 0.063 0.015l1.69 1.921c0.075 0.088 0.191 0.128 0.305 0.106 0.113-0.022 0.206-0.104 0.243-0.214 0.036-0.109 0.01-0.23-0.067-0.316z" fill="#213859"/>
  <g stroke-width="1.2101">
   <path d="m326.74 153.08v-17.152h3.216m34.306 17.152v-30.731h-26.444v13.579h-2.859" stroke="#e5e5e5"/>
   <path d="m334.78 135.92h3.052v4.432c0 2.265-0.634 4.718-2.658 5.734-2.172 1.091-4.438 0.725-6.158-0.225-1.748-0.965-2.277-3.077-2.277-5.074v-4.867h3.35" stroke="#213859"/>
   <g stroke="#e5e5e5">
    <path d="m370.91 153.07v-30.732h37.521v30.732"/>
    <path d="m232.27 153.07v-30.732h37.521v30.732"/>
    <path d="m415.58 153.07v-30.732h37.521v30.732"/>
    <path d="m460.25 153.07v-30.732h37.521v30.732"/>
   </g>
  </g>
  <g fill="#cdcdcd">
   <rect x="415.94" y="122.34" width="9.291" height="19.297"/>
   <rect x="460.25" y="122.34" width="9.291" height="19.297"/>
   <rect x="370.91" y="122.34" width="9.291" height="19.297"/>
  </g>
  <path d="m289.53 131.64-2.189-2.487c-0.106-0.109-0.25-0.174-0.401-0.181-0.152 7e-3 -0.296 0.072-0.401 0.181l-2.19 2.487c-0.078 0.086-0.103 0.207-0.067 0.317 0.036 0.109 0.129 0.191 0.243 0.213 0.113 0.022 0.23-0.018 0.305-0.106l1.69-1.921c0.016-0.017 0.041-0.023 0.063-0.015s0.036 0.029 0.036 0.053v3.914c0 0.177 0.144 0.32 0.321 0.32s0.32-0.143 0.32-0.32v-3.914c0-0.024 0.015-0.045 0.037-0.053s0.047-2e-3 0.062 0.016l1.69 1.92c0.075 0.088 0.192 0.128 0.305 0.106 0.114-0.022 0.207-0.104 0.243-0.213 0.037-0.11 0.011-0.231-0.067-0.317z" fill="#213859"/>
  <path d="m289.7 131.65-2.19-2.487c-0.105-0.109-0.249-0.174-0.401-0.182-0.151 8e-3 -0.295 0.073-0.401 0.182l-2.189 2.487c-0.078 0.086-0.104 0.207-0.067 0.316 0.036 0.11 0.129 0.192 0.243 0.214 0.113 0.022 0.23-0.018 0.305-0.106l1.69-1.921c0.015-0.017 0.04-0.024 0.062-0.015 0.022 8e-3 0.037 0.029 0.037 0.053v3.914c0 0.177 0.143 0.32 0.32 0.32s0.321-0.143 0.321-0.32v-3.914c0-0.024 0.015-0.045 0.037-0.053 0.022-9e-3 0.047-2e-3 0.062 0.015l1.69 1.921c0.075 0.088 0.192 0.128 0.305 0.106 0.114-0.022 0.207-0.104 0.243-0.214 0.036-0.109 0.011-0.23-0.067-0.316z" fill="#213859"/>
  <path d="m281.56 153.08v-17.152h3.216m34.305 17.152v-30.731h-26.444v13.579h-2.858" stroke="#e5e5e5" stroke-width="1.2101"/>
  <path d="m289.6 135.92h3.053v4.432c0 2.265-0.635 4.718-2.659 5.734-2.172 1.091-4.438 0.725-6.158-0.225-1.748-0.965-2.276-3.077-2.276-5.074v-4.867h3.35" stroke="#213859" stroke-width="1.2101"/>
  <path d="m189.67 131.65-2.19-2.487c-0.106-0.109-0.249-0.174-0.401-0.182-0.152 8e-3 -0.295 0.073-0.401 0.182l-2.189 2.487c-0.078 0.086-0.104 0.207-0.067 0.316 0.036 0.11 0.129 0.192 0.242 0.214 0.114 0.022 0.231-0.018 0.306-0.106l1.689-1.921c0.016-0.017 0.041-0.024 0.063-0.015 0.022 8e-3 0.037 0.029 0.037 0.053v3.914c0 0.177 0.143 0.32 0.32 0.32s0.321-0.143 0.321-0.32v-3.914c0-0.024 0.014-0.045 0.036-0.053 0.022-9e-3 0.047-2e-3 0.063 0.015l1.69 1.921c0.075 0.088 0.191 0.128 0.305 0.106s0.206-0.104 0.243-0.214c0.036-0.109 0.011-0.23-0.067-0.316z" fill="#213859"/>
  <path d="m181.52 153.08v-17.152h3.217m34.305 17.152v-30.731h-26.444v13.579h-2.859" stroke="#e5e5e5" stroke-width="1.2101"/>
  <path d="m189.56 135.92h3.052v4.432c0 2.265-0.634 4.718-2.658 5.734-2.172 1.091-4.438 0.725-6.158-0.225-1.748-0.965-2.277-3.077-2.277-5.074v-4.867h3.351" stroke="#213859" stroke-width="1.2101"/>
  <g fill="#213859">
   <path d="m376.09 116.76-2.19-2.488c-0.106-0.109-0.249-0.174-0.401-0.181-0.152 7e-3 -0.295 0.072-0.401 0.181l-2.19 2.488c-0.077 0.085-0.103 0.206-0.066 0.316 0.036 0.11 0.129 0.191 0.242 0.214 0.114 0.022 0.231-0.019 0.306-0.107l1.689-1.92c0.016-0.018 0.041-0.024 0.063-0.016 0.022 9e-3 0.037 0.03 0.037 0.053v3.914c0 0.177 0.143 0.321 0.32 0.321s0.321-0.144 0.321-0.321v-3.914c0-0.023 0.014-0.044 0.036-0.053 0.022-8e-3 0.047-2e-3 0.063 0.016l1.69 1.92c0.075 0.088 0.191 0.129 0.305 0.107 0.113-0.023 0.206-0.104 0.243-0.214 0.036-0.11 0.011-0.231-0.067-0.316z"/>
   <path d="m420.48 116.76-2.189-2.488c-0.106-0.109-0.25-0.174-0.401-0.181-0.152 7e-3 -0.296 0.072-0.401 0.181l-2.19 2.488c-0.078 0.085-0.103 0.206-0.067 0.316s0.129 0.191 0.243 0.214c0.113 0.022 0.23-0.019 0.305-0.107l1.69-1.92c0.016-0.018 0.041-0.024 0.063-0.016 0.022 9e-3 0.036 0.03 0.036 0.053v3.914c0 0.177 0.144 0.321 0.321 0.321s0.32-0.144 0.32-0.321v-3.914c0-0.023 0.015-0.044 0.037-0.053 0.022-8e-3 0.047-2e-3 0.062 0.016l1.69 1.92c0.075 0.088 0.192 0.129 0.305 0.107 0.114-0.023 0.207-0.104 0.243-0.214 0.037-0.11 0.011-0.231-0.067-0.316z"/>
   <path d="m464.87 116.76-2.19-2.488c-0.106-0.109-0.249-0.174-0.401-0.181-0.152 7e-3 -0.295 0.072-0.401 0.181l-2.189 2.488c-0.078 0.085-0.104 0.206-0.067 0.316 0.036 0.11 0.129 0.191 0.242 0.214 0.114 0.022 0.231-0.019 0.306-0.107l1.69-1.92c0.015-0.018 0.04-0.024 0.062-0.016 0.022 9e-3 0.037 0.03 0.037 0.053v3.914c0 0.177 0.143 0.321 0.32 0.321s0.321-0.144 0.321-0.321v-3.914c0-0.023 0.014-0.044 0.036-0.053 0.023-8e-3 0.048-2e-3 0.063 0.016l1.69 1.92c0.075 0.088 0.192 0.129 0.305 0.107 0.114-0.023 0.206-0.104 0.243-0.214 0.036-0.11 0.011-0.231-0.067-0.316z"/>
  </g>
  <path d="m-17.752 385.59c4.5928-14.173-14.088-19.055-24.951-28.117-18.269-15.241-49.138-54.945-25.517-89.409 23.621-34.463 69.839-45.517 89.995-46.735 29.054-1.287 109.86 7.247 114.26 41.047 11.07 84.978-45.349 129.02-83.77 162.28-7.5239 6.512-16.076 12.014-25.793 14.157-42.715 9.422-56.795-14.437-44.228-53.218z" fill="#f6f6f6"/>
  <g fill="#2d2d2d">
   <rect transform="rotate(220.42 -.34766 368.74)" x="-.34766" y="368.74" width="12.505" height="4.0338" opacity=".8"/>
   <rect transform="rotate(220.42 2.5273 365.36)" x="2.5273" y="365.36" width="12.505" height="4.0338" opacity=".7"/>
   <rect transform="rotate(220.42 5.4062 361.98)" x="5.4062" y="361.98" width="12.505" height="4.0338" opacity=".6"/>
   <rect transform="rotate(220.42 8.2812 358.6)" x="8.2812" y="358.61" width="12.505" height="4.0338" opacity=".5"/>
   <rect transform="rotate(220.42 11.16 355.23)" x="11.16" y="355.23" width="12.505" height="4.0338" opacity=".4"/>
   <rect transform="rotate(220.42 14.035 351.85)" x="14.035" y="351.85" width="12.505" height="4.0338" opacity=".3"/>
   <rect transform="rotate(220.42 16.914 348.47)" x="16.914" y="348.47" width="12.505" height="4.0338" opacity=".2"/>
   <rect transform="rotate(40.423 -1.043 327.88)" x="-1.043" y="327.88" width="12.505" height="4.0338"/>
   <rect transform="rotate(40.423 -3.9219 331.25)" x="-3.9219" y="331.25" width="12.505" height="4.0338" opacity=".8"/>
   <rect transform="rotate(40.423 -6.7969 334.63)" x="-6.7969" y="334.63" width="12.505" height="4.0338" opacity=".7"/>
  </g>
  <rect transform="rotate(62.497 132.55 275.45)" x="132.55" y="275.45" width="8.471" height="7.2608" rx="1.2101" stroke="#cdcdcd" stroke-width=".80676"/>
  <rect transform="rotate(152.5 134.83 282.45)" x="134.83" y="282.45" width="4.8405" height="6.0507" rx=".40338" fill="#dde5ed"/>
  <rect transform="rotate(51.916 137.06 283.97)" x="137.06" y="283.97" width="8.471" height="7.2608" rx="1.2101" stroke="#cdcdcd" stroke-width=".80676"/>
  <rect transform="rotate(141.92 140.58 290.43)" x="140.58" y="290.43" width="4.8405" height="6.0507" rx=".40338" fill="#dde5ed"/>
  <rect transform="rotate(41.334 143.05 291.52)" x="143.05" y="291.52" width="8.471" height="7.2608" rx="1.2101" stroke="#cdcdcd" stroke-width=".80676"/>
  <rect transform="rotate(131.33 147.7 297.23)" x="147.7" y="297.23" width="4.8405" height="6.0507" rx=".40338" fill="#dde5ed"/>
  <rect transform="rotate(30.752 150.32 297.85)" x="150.32" y="297.85" width="8.471" height="7.2608" rx="1.2101" stroke="#cdcdcd" stroke-width=".80676"/>
  <rect transform="rotate(120.75 155.94 302.6)" x="155.94" y="302.6" width="4.8406" height="6.0507" rx=".40338" fill="#dde5ed"/>
  <rect transform="rotate(20.171 158.64 302.72)" x="158.63" y="302.72" width="8.471" height="7.2608" rx="1.2101" stroke="#cdcdcd" stroke-width=".80676"/>
  <rect transform="rotate(110.17 165.04 306.36)" x="165.04" y="306.36" width="4.8406" height="6.0507" rx=".40338" fill="#dde5ed"/>
  <rect x="-94.539" y="181.85" width="344.08" height="30.254" fill="#c4d3e8" stroke="#cdcdcd" stroke-width=".80676"/>
  <g fill="#2d2d2d" stroke="#2d2d2d" stroke-width="1.2101">
   <path d="m241.22 296.81h-6.051l3.185 6.051z"/>
   <path d="m53.056 464.38-4.2785 4.278 6.5304 2.027z"/>
   <path d="m326.33 296.81h-6.051l3.185 6.051z"/>
   <path d="m418.71 296.81h-6.051l3.185 6.051z"/>
  </g>
  <path d="m39.266 533.46 46.854-0.057v30.657l-46.853 0.201z" fill="#fff"/>
  <path d="m195.28 374.51c0.015 6.603 5.559 12.058 12.358 12.113 6.731 0.054 12.16-5.314 12.078-11.917-0.082-6.512-5.627-11.875-12.292-11.928-6.664-0.054-12.158 5.13-12.144 11.732zc-4.275 12.622-13.634 21.259-28.077 25.82m-7.103 21.036c13.458 17.715 17.07 37.461 10.7 59.419m40.719-15.447c-15.95 7.667-21.977 20.549-17.95 38.923m52.534-78.631c-14.883 0.523-23.029 9.078-25.109 25.019m37.705-76.457c8.205 1.075 13.089 4.874 14.112 11.668m9.056 12.453c-13.259-0.473-20.441 5.339-22.284 16.879m-56.849-80.422c6.788 9.867 6.575 19.677-1.315 29.702m7.751-26.349c17.869 4.819 30.45 14.182 38.216 28m47.226 29.449c10.138-4.963 21.114-5.242 33.12 0.265m17.503 0.14c9.935-4.965 20.978-5.243 33.052 0.264m17.704 0.142c9.802-4.966 20.777-5.153 33.12 0.265m20.528-7.723c-0.14-7.796 3.463-12.169 10.943-13.026m9.89-7.716c7.192-15.441 18.576-24.612 34.487-27.511m-296.54 99.147c7.001 0.056 12.677 5.787 12.822 12.941 0.077 7.245-5.557 13.069-12.626 13.013-7.135-0.057-12.878-5.972-12.887-13.217-0.011-7.062 5.69-12.793 12.691-12.737zm38.214-39.037c6.799 0.055 12.544 5.603 12.826 12.483 0.214 6.88-5.149 12.431-12.082 12.376-6.934-0.056-12.746-5.696-12.893-12.576-0.147-6.879 5.35-12.337 12.149-12.283zm38.111-26.198c6.799 0.054 12.613 5.512 13.03 12.21 0.417 6.789-4.878 12.341-11.812 12.285-6.933-0.055-12.813-5.604-13.095-12.485-0.283-6.696 5.011-12.065 11.877-12.01zm50.084 0.401c6.799 0.054 12.949 5.514 13.501 12.213 0.552 6.791-4.609 12.343-11.61 12.287-6.934-0.055-12.948-5.606-13.432-12.487-0.417-6.698 4.743-12.159 11.541-12.013zm50.151 0.401c6.866 0.055 13.016 5.515 13.771 12.215 0.753 6.792-4.206 12.347-11.207 12.291-6.933-0.056-13.083-5.607-13.768-12.491-0.62-6.699 4.338-12.07 11.204-12.015zm50.151 0.401c6.799 0.054 13.151 5.516 14.107 12.218 0.956 6.794-3.869 12.349-10.87 12.293-6.866-0.055-13.284-5.608-14.104-12.493-0.889-6.701 4.001-12.073 10.867-12.018zm-176.45-25.53c6.799 0.054 12.479 5.327 12.763 11.932 0.283 6.605-5.011 11.974-11.877 11.919s-12.545-5.511-12.761-12.116c-0.217-6.604 5.076-11.789 11.875-11.735zm49.342 0.486c6.799 0.055 12.681 5.329 13.1 11.935 0.485 6.607-4.674 11.976-11.54 11.921-6.799-0.054-12.68-5.512-13.098-12.118-0.351-6.605 4.806-11.791 11.538-11.738zm49.613 0.397c6.731 0.054 12.681 5.329 13.301 11.937 0.62 6.607-4.337 11.978-11.136 11.924s-12.747-5.513-13.367-12.12c-0.486-6.607 4.537-11.794 11.202-11.741zm49.41 0.395c6.732 0.054 12.883 5.331 13.706 11.94 0.822 6.609-4.001 11.982-10.8 11.927-6.866-0.055-13.016-5.515-13.771-12.123-0.688-6.609 4.134-11.797 10.865-11.744zm49.545 0.397c6.732 0.053 13.017 5.423 14.042 11.942 1.025 6.611-3.731 11.984-10.53 11.929-6.866-0.055-13.151-5.516-14.04-12.126-0.957-6.61 3.797-11.799 10.528-11.745zm-245.36-36.536c6.597 0.053 12.076 5.14 12.16 11.469 0.085 6.328-5.207 11.421-11.939 11.368-6.664-0.054-12.076-5.233-12.093-11.56-0.084-6.329 5.207-11.33 11.872-11.277zm46.179 0.369c6.664 0.054 12.211 5.142 12.497 11.472s-4.939 11.515-11.67 11.461c-6.731-0.145-12.278-5.325-12.564-11.655-0.151-6.329 5.073-11.331 11.737-11.278zm48.468 0.388c6.597 0.053 12.414 5.143 12.834 11.474 0.421 6.331-4.602 11.427-11.401 11.372-6.664-0.053-12.412-5.235-12.833-11.566-0.353-6.33 4.736-11.333 11.4-11.28zm48.603 0.389c6.597 0.053 12.413 5.143 13.036 11.476 0.622 6.332-4.266 11.429-10.93 11.375-6.664-0.053-12.547-5.235-13.035-11.567-0.556-6.241 4.399-11.336 10.929-11.284zm48.467 0.479c6.597 0.053 12.548 5.144 13.373 11.479 0.892 6.334-3.996 11.431-10.593 11.378-6.732-0.054-12.749-5.329-13.439-11.571-0.758-6.333 4.062-11.339 10.659-11.286zm48.468 0.388c6.598 0.053 12.818 5.146 13.777 11.481 0.959 6.336-3.727 11.434-10.391 11.381-6.732-0.054-12.884-5.239-13.776-11.574-0.824-6.334 3.861-11.34 10.39-11.288zm49.478 0.396c6.665 0.053 12.952 5.147 14.113 11.484s-3.323 11.437-10.122 11.382c-6.664-0.053-12.951-5.239-14.044-11.575-1.027-6.336 3.389-11.345 10.053-11.291zm-331.68 82.358c6.866 0.055 12.342 5.601 12.287 12.479-0.055 6.877-5.687 12.426-12.621 12.371-7.001-0.056-12.476-5.694-12.354-12.571 0.123-6.877 5.821-12.334 12.688-12.279z" stroke="#939393" stroke-miterlimit="22.926" stroke-width=".43615"/>
  <rect x="692.5" y="285.5" width="84" height="31" fill="#d9d9d9" stroke="#cdcdcd"/>
 </g>
 <g fill="#d9d9d9" stroke="#cdcdcd">
  <rect x="498.5" y="178.5" width="52" height="107"/>
  <rect x="551.5" y="195.5" width="22" height="66"/>
  <rect x="574.5" y="142.5" width="106" height="119"/>
 </g>
 <path d="m95.066 379v-8.643h2.9179l1.8106 6.241 1.7986-6.241h2.977v8.643h-1.711v-7.307l-2.262 7.307h-1.6171l-2.2558-7.307v7.307zm10.749 0 3.134-8.643h2.18l3.012 8.643h-1.881l-0.615-1.857h-3.416l-0.674 1.857zm2.882-3.275h2.496l-1.189-3.663zm6.683 3.275v-8.643h1.839v8.643zm3.852 0v-8.643h2.666l3.252 6.95v-6.95h1.658v8.643h-2.561l-3.357-7.154v7.154zm-55.492 16v-8.643h5.7363v1.43h-3.8613v2.039h3.6211v1.406h-3.6211v2.327h3.9961v1.441zm7.5553 0v-8.643h2.666l3.252 6.95v-6.95h1.6582v8.643h-2.5606l-3.3574-7.154v7.154zm11.458 0v-7.236h-2.5429v-1.407h6.9433v1.407h-2.5429v7.236zm5.7507 0v-8.643h5.7363v1.43h-3.8613v2.039h3.6211v1.406h-3.6211v2.327h3.9961v1.441zm9.3717-4.887h1.0898c0.6836 0 1.1521-0.088 1.4061-0.263 0.254-0.176 0.381-0.483 0.381-0.92 0-0.465-0.121-0.787-0.363-0.967-0.239-0.18-0.7131-0.27-1.4241-0.27h-1.0898zm-1.8164 4.887v-8.643h3.5918c1.0035 0 1.7425 0.176 2.2145 0.528 0.473 0.351 0.709 0.9 0.709 1.646 0 0.614-0.133 1.088-0.398 1.424-0.266 0.336-0.692 0.574-1.277 0.715 0.472 0.051 0.816 0.195 1.031 0.434 0.219 0.234 0.363 0.632 0.433 1.195l0.153 1.248c0.047 0.348 0.105 0.639 0.175 0.873 0.071 0.234 0.161 0.428 0.27 0.58h-2.004c-0.062-0.121-0.113-0.26-0.152-0.416-0.035-0.156-0.065-0.369-0.088-0.639l-0.123-1.306c-0.047-0.528-0.131-0.846-0.252-0.955-0.117-0.11-0.4083-0.164-0.8732-0.164h-1.5937v3.48zm7.4793 0 3.135-8.643h2.179l3.012 8.643h-1.881l-0.615-1.857h-3.416l-0.674 1.857zm2.883-3.275h2.496l-1.19-3.663zm13.602 0.685c-0.063 0.891-0.395 1.57-0.996 2.039-0.602 0.465-1.446 0.697-2.532 0.697-1.289 0-2.265-0.375-2.929-1.125s-0.996-1.851-0.996-3.304c0-1.449 0.341-2.561 1.025-3.334 0.684-0.778 1.662-1.166 2.936-1.166 1.039 0 1.861 0.234 2.466 0.703 0.61 0.465 0.936 1.109 0.979 1.934h-1.705c-0.02-0.415-0.18-0.745-0.481-0.991-0.3-0.25-0.697-0.375-1.189-0.375-0.719 0-1.262 0.27-1.629 0.809-0.363 0.535-0.545 1.33-0.545 2.385 0 1.086 0.18 1.892 0.539 2.42 0.36 0.523 0.908 0.785 1.647 0.785 0.476 0 0.865-0.135 1.166-0.405 0.304-0.269 0.472-0.627 0.504-1.072zm1.608 2.59v-8.643h5.736v1.43h-3.861v2.039h3.621v1.406h-3.621v2.327h3.996v1.441z" fill="#5b5b5b"/>
 <rect x="197" y="227" width="25" height="25" fill="#2d2d2d"/>
 <path d="m219 235.25c0-0.414-0.336-0.75-0.75-0.75h-4.875c-0.621 0-1.125 0.504-1.125 1.125v1.5c0 0.207-0.168 0.375-0.375 0.375h-1.5c-0.621 0-1.125 0.504-1.125 1.125v1.5c0 0.207-0.168 0.375-0.375 0.375h-1.5c-0.621 0-1.125 0.504-1.125 1.125v1.5c0 0.207-0.168 0.375-0.375 0.375h-1.5c-0.621 0-1.125 0.504-1.125 1.125v2.625c0 0.414 0.336 0.75 0.75 0.75h14.25c0.414 0 0.75-0.336 0.75-0.75z" fill="#fff"/>
 <path d="m209.92 234.39c0.108 0.105 0.268 0.136 0.407 0.078s0.23-0.193 0.231-0.344v-3.75c0-0.207-0.168-0.375-0.375-0.375h-3.75c-0.151 1e-3 -0.287 0.093-0.345 0.233-0.057 0.14-0.025 0.301 0.082 0.407l0.812 0.814c0.07 0.071 0.11 0.166 0.11 0.266 0 0.099-0.04 0.195-0.11 0.265l-5.657 5.657c-0.44 0.439-0.44 1.152 0 1.591 0.439 0.44 1.152 0.44 1.591 0l5.654-5.657c0.071-0.071 0.166-0.11 0.266-0.11 0.099 0 0.195 0.039 0.265 0.11z" fill="#fff"/>
 <rect x="197" y="255" width="25" height="25" fill="#2d2d2d"/>
 <g fill="#fff">
  <path d="m204.16 260.2h0.416c0.23 0 0.417 0.179 0.417 0.4v0.4c0 0.442 0.373 0.8 0.833 0.8s0.834-0.358 0.834-0.8v-0.4c0-0.221 0.186-0.4 0.416-0.4h0.417c0.169 0 0.321-0.097 0.386-0.247 0.064-0.149 0.028-0.322-0.091-0.436l-1.667-1.6c-0.078-0.075-0.184-0.118-0.295-0.118s-0.217 0.043-0.295 0.118l-1.666 1.6c-0.12 0.114-0.156 0.287-0.091 0.436 0.064 0.15 0.217 0.247 0.386 0.247z"/>
  <path d="m213.87 261.68c0.078 0.075 0.184 0.118 0.295 0.118s0.217-0.043 0.295-0.118l1.667-1.6c0.119-0.114 0.155-0.286 0.09-0.436-0.064-0.15-0.216-0.247-0.385-0.247h-0.417c-0.23 0-0.417-0.179-0.417-0.4v-0.4c0-0.442-0.373-0.8-0.833-0.8s-0.833 0.358-0.833 0.8v0.4c0 0.221-0.187 0.4-0.417 0.4h-0.417c-0.168 0-0.321 0.097-0.385 0.247-0.065 0.15-0.029 0.322 0.09 0.436z"/>
  <path d="m216.66 262.6c0.69 0 1.25 0.538 1.25 1.2v12c0 0.663-0.56 1.2-1.25 1.2h-13.333c-0.69 0-1.25-0.537-1.25-1.2v-12c0-0.662 0.56-1.2 1.25-1.2zm-10.416 5.6c-1.381 0-2.5 1.075-2.5 2.4v1.2c0 0.221 0.186 0.4 0.416 0.4h0.3c0.211-2e-3 0.39 0.149 0.416 0.35l0.326 2.5c0.027 0.201 0.206 0.352 0.417 0.35h1.243c0.211 1e-3 0.391-0.149 0.417-0.35l0.325-2.5c0.027-0.201 0.206-0.352 0.417-0.35h0.306c0.23 0 0.417-0.179 0.417-0.4v-1.2c0-1.325-1.119-2.4-2.5-2.4zm7.5 0c-1.381 0-2.5 1.075-2.5 2.4v1.2c0 0.221 0.186 0.4 0.416 0.4h0.293c0.211-2e-3 0.391 0.149 0.417 0.35l0.325 2.5c0.027 0.201 0.206 0.352 0.417 0.35h1.25c0.211 1e-3 0.391-0.149 0.417-0.35l0.325-2.5c0.027-0.201 0.206-0.352 0.417-0.35h0.306c0.23 0 0.417-0.179 0.417-0.4v-1.2c0-1.325-1.119-2.4-2.5-2.4zm-7.5-4.4c-1.035 2e-3 -1.874 0.807-1.875 1.8 0 0.994 0.839 1.8 1.875 1.8 1.035 0 1.875-0.806 1.875-1.8s-0.84-1.8-1.875-1.8zm7.5 0c-1.035 2e-3 -1.874 0.807-1.875 1.8 0 0.994 0.839 1.8 1.875 1.8 1.035 0 1.875-0.806 1.875-1.8s-0.84-1.8-1.875-1.8z"/>
 </g>
 <rect x="294" y="209" width="25" height="25" fill="#2d2d2d"/>
 <g fill="#fff">
  <path d="m301.75 213.31c1.32 0 2.485 0.863 2.87 2.125s-0.1 2.628-1.195 3.364c-0.095 0.064-0.156 0.169-0.165 0.284-8e-3 0.114 0.037 0.228 0.122 0.305 0.315 0.286 0.548 0.651 0.675 1.058l1.427 4.568c0.035 0.114 0.015 0.238-0.056 0.334s-0.182 0.153-0.302 0.153h-1.019c-0.19-1e-3 -0.352 0.14-0.375 0.329l-0.481 3.843c-0.024 0.189-0.185 0.33-0.375 0.328h-2.25c-0.19 2e-3 -0.351-0.139-0.375-0.328l-0.474-3.843c-0.024-0.189-0.185-0.33-0.375-0.329h-1.026c-0.119 0-0.231-0.057-0.301-0.153-0.071-0.096-0.092-0.22-0.056-0.334l1.426-4.568c0.126-0.407 0.359-0.772 0.675-1.058 0.085-0.077 0.129-0.191 0.121-0.305-9e-3 -0.115-0.07-0.22-0.165-0.284-1.095-0.736-1.58-2.102-1.195-3.364s1.55-2.125 2.869-2.125zm0.255 2.325c-0.143-0.131-0.363-0.131-0.507 0-0.29 0.263-0.621 0.476-0.981 0.631-0.17 0.075-0.261 0.263-0.212 0.443 0.176 0.651 0.768 1.104 1.443 1.104 0.676 0 1.268-0.453 1.444-1.104 0.048-0.18-0.042-0.368-0.212-0.443-0.357-0.155-0.687-0.368-0.975-0.631z"/>
  <path d="m307 212c-0.414 0-0.75 0.336-0.75 0.75v16.5c0 0.414 0.336 0.75 0.75 0.75s0.75-0.336 0.75-0.75v-16.5c0-0.414-0.336-0.75-0.75-0.75z"/>
  <path d="m312.25 213.3c1.279 0 2.418 0.812 2.836 2.021 0.417 1.209 0.021 2.551-0.986 3.341-0.097 0.076-0.15 0.196-0.142 0.32s0.078 0.235 0.184 0.298c1.149 0.668 1.857 1.897 1.858 3.225v1.875c0 0.207-0.168 0.375-0.375 0.375h-1.01c-0.192 0-0.354 0.144-0.375 0.335l-0.49 4.581c-0.021 0.191-0.183 0.336-0.375 0.334h-2.25c-0.192 2e-3 -0.354-0.143-0.375-0.334l-0.486-4.581c-0.021-0.191-0.183-0.336-0.375-0.335h-1.014c-0.207 0-0.375-0.168-0.375-0.375v-1.875c1e-3 -1.328 0.709-2.557 1.857-3.225 0.107-0.063 0.176-0.174 0.185-0.298 8e-3 -0.124-0.045-0.244-0.143-0.32-1.007-0.79-1.403-2.132-0.985-3.341s1.557-2.021 2.836-2.021zm-0.936 2.433c-0.102-0.048-0.221-0.048-0.323 1e-3s-0.176 0.142-0.202 0.252c-0.026 0.109-0.039 0.22-0.039 0.332 0 0.828 0.672 1.5 1.5 1.5s1.5-0.672 1.5-1.5c1e-3 -0.059-0.024-0.116-0.066-0.156-0.045-0.04-0.103-0.06-0.163-0.054-0.13 0.014-0.262 0.022-0.393 0.022-0.626 1e-3 -1.245-0.135-1.814-0.397z"/>
 </g>
 <path d="m723.81 232.36h1.84v5.45c0 0.64 0.158 1.119 0.475 1.435 0.32 0.317 0.805 0.475 1.453 0.475 0.645 0 1.117-0.16 1.418-0.481 0.305-0.324 0.457-0.828 0.457-1.511v-5.368h1.775v5.321c0 1.164-0.306 2.031-0.92 2.601-0.609 0.571-1.539 0.856-2.789 0.856-1.261 0-2.195-0.281-2.8-0.844-0.606-0.566-0.909-1.437-0.909-2.613zm9.407 8.643v-8.643h2.666l3.252 6.95v-6.95h1.658v8.643h-2.56l-3.357-7.154v7.154zm9.595 0v-8.643h1.84v8.643zm5.715 0v-7.236h-2.543v-1.407h6.944v1.407h-2.543v7.236zm5.751 0v-8.643h5.736v1.43h-3.861v2.039h3.621v1.406h-3.621v2.327h3.996v1.441zm7.555 0v-8.643h2.701c0.723 0 1.303 0.057 1.741 0.17 0.437 0.114 0.841 0.297 1.212 0.551 0.532 0.371 0.934 0.863 1.207 1.477 0.274 0.609 0.411 1.322 0.411 2.138 0 1.414-0.387 2.487-1.161 3.217-0.769 0.727-1.906 1.09-3.41 1.09zm1.84-1.43h0.932c0.89 0 1.543-0.23 1.957-0.691 0.418-0.461 0.627-1.186 0.627-2.174 0-1.012-0.209-1.752-0.627-2.221-0.414-0.472-1.067-0.709-1.957-0.709h-0.932zm-40.642 17.43 3.135-8.643h2.18l3.011 8.643h-1.881l-0.615-1.857h-3.416l-0.674 1.857zm2.883-3.275h2.496l-1.189-3.663zm6.682 3.275v-8.643h1.84v8.643zm5.669-4.887h1.09c0.683 0 1.152-0.088 1.406-0.263 0.254-0.176 0.381-0.483 0.381-0.92 0-0.465-0.121-0.787-0.363-0.967-0.239-0.18-0.713-0.27-1.424-0.27h-1.09zm-1.817 4.887v-8.643h3.592c1.004 0 1.742 0.176 2.215 0.528 0.473 0.351 0.709 0.9 0.709 1.646 0 0.614-0.133 1.088-0.398 1.424-0.266 0.336-0.692 0.574-1.278 0.715 0.473 0.051 0.817 0.195 1.032 0.434 0.218 0.234 0.363 0.632 0.433 1.195l0.152 1.248c0.047 0.348 0.106 0.639 0.176 0.873 0.071 0.234 0.16 0.428 0.27 0.58h-2.004c-0.063-0.121-0.113-0.26-0.152-0.416-0.036-0.156-0.065-0.369-0.088-0.639l-0.123-1.306c-0.047-0.528-0.131-0.846-0.252-0.955-0.118-0.11-0.409-0.164-0.873-0.164h-1.594v3.48zm8.282 0v-8.643h1.84v7.178h3.897v1.465zm7.181 0v-8.643h1.839v8.643zm3.852 0v-8.643h2.666l3.252 6.95v-6.95h1.658v8.643h-2.561l-3.357-7.154v7.154zm9.606 0v-8.643h5.736v1.43h-3.861v2.039h3.621v1.406h-3.621v2.327h3.996v1.441zm7.221-2.807h1.811c0 0.575 0.14 1.006 0.422 1.295 0.285 0.289 0.713 0.434 1.283 0.434 0.457 0 0.828-0.111 1.113-0.334 0.289-0.227 0.434-0.512 0.434-0.856 0-0.543-0.678-1.044-2.033-1.505l-0.194-0.065c-0.043-0.016-0.101-0.035-0.176-0.058-0.757-0.25-1.304-0.5-1.64-0.75-0.242-0.18-0.43-0.409-0.563-0.686-0.129-0.281-0.193-0.592-0.193-0.932 0-0.777 0.293-1.392 0.879-1.845 0.59-0.457 1.392-0.686 2.408-0.686 0.949 0 1.684 0.221 2.203 0.662 0.524 0.442 0.785 1.061 0.785 1.858v0.046h-1.605c-0.039-0.449-0.188-0.791-0.445-1.025-0.254-0.234-0.606-0.351-1.055-0.351-0.434 0-0.779 0.099-1.037 0.298-0.254 0.2-0.381 0.467-0.381 0.803 0 0.524 0.711 1.016 2.133 1.477l0.111 0.035c1.086 0.359 1.799 0.719 2.139 1.078 0.343 0.359 0.515 0.855 0.515 1.488 0 0.805-0.308 1.436-0.925 1.893-0.614 0.453-1.469 0.679-2.567 0.679-1.141 0-1.996-0.236-2.566-0.708-0.571-0.473-0.856-1.182-0.856-2.127zm-41.637 16.217c-0.062 0.891-0.395 1.57-0.996 2.039-0.602 0.465-1.445 0.697-2.531 0.697-1.289 0-2.266-0.375-2.93-1.125s-0.996-1.851-0.996-3.304c0-1.449 0.342-2.561 1.025-3.334 0.684-0.778 1.662-1.166 2.936-1.166 1.039 0 1.861 0.234 2.467 0.703 0.609 0.465 0.935 1.109 0.978 1.934h-1.705c-0.019-0.415-0.18-0.745-0.48-0.991-0.301-0.25-0.698-0.375-1.19-0.375-0.719 0-1.262 0.27-1.629 0.809-0.363 0.535-0.545 1.33-0.545 2.385 0 1.086 0.18 1.892 0.539 2.42 0.36 0.523 0.909 0.785 1.647 0.785 0.476 0 0.865-0.135 1.166-0.405 0.305-0.269 0.473-0.627 0.504-1.072zm1.596 2.59v-8.643h1.864v3.457h3.263v-3.457h1.799v8.643h-1.799v-3.779h-3.263v3.779zm8.95 0v-8.643h5.737v1.43h-3.862v2.039h3.621v1.406h-3.621v2.327h3.996v1.441zm14.686-2.59c-0.062 0.891-0.394 1.57-0.996 2.039-0.601 0.465-1.445 0.697-2.531 0.697-1.289 0-2.266-0.375-2.93-1.125s-0.996-1.851-0.996-3.304c0-1.449 0.342-2.561 1.026-3.334 0.683-0.778 1.662-1.166 2.935-1.166 1.039 0 1.862 0.234 2.467 0.703 0.609 0.465 0.936 1.109 0.978 1.934h-1.705c-0.019-0.415-0.179-0.745-0.48-0.991-0.301-0.25-0.697-0.375-1.19-0.375-0.718 0-1.261 0.27-1.628 0.809-0.364 0.535-0.545 1.33-0.545 2.385 0 1.086 0.179 1.892 0.539 2.42 0.359 0.523 0.908 0.785 1.646 0.785 0.477 0 0.865-0.135 1.166-0.405 0.305-0.269 0.473-0.627 0.504-1.072zm1.608 2.59v-8.643h1.84v3.733l2.819-3.733h2.074l-3.035 3.868 3.334 4.775h-2.145l-3.047-4.477v4.477zm7.351-2.291v-1.588h3.099v1.588zm4.83 2.291v-8.643h1.84v8.643zm3.853 0v-8.643h2.666l3.252 6.95v-6.95h1.658v8.643h-2.561l-3.357-7.154v7.154z" fill="#5b5b5b"/>
</svg>
