<svg width="2650" height="1469" viewBox="0 0 2650 1469" fill="none" xmlns="http://www.w3.org/2000/svg">
<rect x="546" y="519" width="42" height="42" rx="21" fill="#2D2D2D"/>
<path d="M564.151 540.065C564.151 538.637 564.015 537.561 563.744 536.836C563.478 536.111 563.08 535.749 562.548 535.749C562.017 535.749 561.619 536.108 561.353 536.828C561.088 537.542 560.955 538.621 560.955 540.065C560.955 541.526 561.085 542.613 561.345 543.327C561.61 544.041 562.012 544.398 562.548 544.398C563.08 544.398 563.478 544.035 563.744 543.311C564.015 542.586 564.151 541.504 564.151 540.065ZM562.548 533.964C563.91 533.964 564.939 534.481 565.636 535.516C566.334 536.545 566.682 538.062 566.682 540.065C566.682 542.068 566.331 543.59 565.628 544.63C564.931 545.671 563.904 546.191 562.548 546.191C561.193 546.191 560.166 545.674 559.469 544.639C558.772 543.598 558.423 542.074 558.423 540.065C558.423 538.051 558.769 536.532 559.461 535.508C560.158 534.479 561.187 533.964 562.548 533.964ZM571.144 546V536.819C570.602 537.196 570.112 537.503 569.675 537.741C569.238 537.979 568.828 538.164 568.447 538.297V535.923C569.028 535.674 569.559 535.405 570.04 535.118C570.522 534.824 570.965 534.503 571.369 534.155H573.668V546H571.144Z" fill="white"/>
<rect x="546" y="652" width="42" height="42" rx="21" fill="#2D2D2D"/>
<path d="M564.151 673.065C564.151 671.637 564.015 670.561 563.744 669.836C563.478 669.111 563.08 668.749 562.548 668.749C562.017 668.749 561.619 669.108 561.353 669.828C561.088 670.542 560.955 671.621 560.955 673.065C560.955 674.526 561.085 675.613 561.345 676.327C561.61 677.041 562.012 677.398 562.548 677.398C563.08 677.398 563.478 677.035 563.744 676.311C564.015 675.586 564.151 674.504 564.151 673.065ZM562.548 666.964C563.91 666.964 564.939 667.481 565.636 668.516C566.334 669.545 566.682 671.062 566.682 673.065C566.682 675.068 566.331 676.59 565.628 677.63C564.931 678.671 563.904 679.191 562.548 679.191C561.193 679.191 560.166 678.674 559.469 677.639C558.772 676.598 558.423 675.074 558.423 673.065C558.423 671.051 558.769 669.532 559.461 668.508C560.158 667.479 561.187 666.964 562.548 666.964ZM567.359 679V676.518L568.057 675.887C571.399 672.899 573.07 670.957 573.07 670.06C573.07 669.656 572.937 669.324 572.672 669.064C572.412 668.798 572.08 668.666 571.676 668.666C571.167 668.666 570.776 668.818 570.505 669.122C570.24 669.421 570.096 669.869 570.074 670.467H567.816V670.334C567.816 669.299 568.159 668.48 568.845 667.877C569.531 667.268 570.464 666.964 571.642 666.964C572.81 666.964 573.743 667.252 574.44 667.827C575.137 668.397 575.486 669.158 575.486 670.11C575.486 671.006 575.112 671.944 574.365 672.924C573.624 673.898 572.193 675.254 570.074 676.991H575.552V679H567.359Z" fill="white"/>
<rect x="546" y="785" width="42" height="42" rx="21" fill="#2D2D2D"/>
<path d="M564.151 806.065C564.151 804.637 564.015 803.561 563.744 802.836C563.478 802.111 563.08 801.749 562.548 801.749C562.017 801.749 561.619 802.108 561.353 802.828C561.088 803.542 560.955 804.621 560.955 806.065C560.955 807.526 561.085 808.613 561.345 809.327C561.61 810.041 562.012 810.398 562.548 810.398C563.08 810.398 563.478 810.035 563.744 809.311C564.015 808.586 564.151 807.504 564.151 806.065ZM562.548 799.964C563.91 799.964 564.939 800.481 565.636 801.516C566.334 802.545 566.682 804.062 566.682 806.065C566.682 808.068 566.331 809.59 565.628 810.63C564.931 811.671 563.904 812.191 562.548 812.191C561.193 812.191 560.166 811.674 559.469 810.639C558.772 809.598 558.423 808.074 558.423 806.065C558.423 804.051 558.769 802.532 559.461 801.508C560.158 800.479 561.187 799.964 562.548 799.964ZM567.442 803.309C567.453 802.241 567.794 801.417 568.463 800.835C569.133 800.254 570.079 799.964 571.302 799.964C572.492 799.964 573.435 800.274 574.133 800.894C574.83 801.508 575.179 802.338 575.179 803.384C575.179 804.076 575.01 804.637 574.672 805.069C574.34 805.5 573.834 805.81 573.153 805.999C573.845 806.17 574.368 806.483 574.722 806.937C575.082 807.385 575.262 807.958 575.262 808.655C575.262 809.695 574.88 810.547 574.116 811.211C573.352 811.875 572.362 812.208 571.144 812.208C570.016 812.208 569.125 811.928 568.472 811.369C567.819 810.81 567.492 810.052 567.492 809.095V808.854H569.717C569.728 809.347 569.869 809.737 570.14 810.024C570.417 810.312 570.787 810.456 571.252 810.456C571.761 810.456 572.163 810.298 572.456 809.983C572.749 809.662 572.896 809.23 572.896 808.688C572.896 808.096 572.73 807.675 572.398 807.426C572.066 807.177 571.468 807.053 570.605 807.053H569.717V805.077H570.638C571.479 805.077 572.066 804.955 572.398 804.712C572.73 804.463 572.896 804.042 572.896 803.45C572.896 802.908 572.749 802.482 572.456 802.172C572.168 801.856 571.773 801.699 571.269 801.699C570.799 801.699 570.422 801.845 570.14 802.139C569.858 802.432 569.711 802.822 569.7 803.309H567.442Z" fill="white"/>
<rect x="546" y="916" width="42" height="42" rx="21" fill="#2D2D2D"/>
<path d="M564.151 937.065C564.151 935.637 564.015 934.561 563.744 933.836C563.478 933.111 563.08 932.749 562.548 932.749C562.017 932.749 561.619 933.108 561.353 933.828C561.088 934.542 560.955 935.621 560.955 937.065C560.955 938.526 561.085 939.613 561.345 940.327C561.61 941.041 562.012 941.398 562.548 941.398C563.08 941.398 563.478 941.035 563.744 940.311C564.015 939.586 564.151 938.504 564.151 937.065ZM562.548 930.964C563.91 930.964 564.939 931.481 565.636 932.516C566.334 933.545 566.682 935.062 566.682 937.065C566.682 939.068 566.331 940.59 565.628 941.63C564.931 942.671 563.904 943.191 562.548 943.191C561.193 943.191 560.166 942.674 559.469 941.639C558.772 940.598 558.423 939.074 558.423 937.065C558.423 935.051 558.769 933.532 559.461 932.508C560.158 931.479 561.187 930.964 562.548 930.964ZM568.936 938.476H571.933V933.919L568.936 938.476ZM571.933 943V940.435H567.102V938.053L571.742 931.155H574.307V938.476H575.793V940.435H574.307V943H571.933Z" fill="white"/>
<rect x="546" y="1049" width="42" height="42" rx="21" fill="#2D2D2D"/>
<path d="M564.151 1070.06C564.151 1068.64 564.015 1067.56 563.744 1066.84C563.478 1066.11 563.08 1065.75 562.548 1065.75C562.017 1065.75 561.619 1066.11 561.353 1066.83C561.088 1067.54 560.955 1068.62 560.955 1070.06C560.955 1071.53 561.085 1072.61 561.345 1073.33C561.61 1074.04 562.012 1074.4 562.548 1074.4C563.08 1074.4 563.478 1074.04 563.744 1073.31C564.015 1072.59 564.151 1071.5 564.151 1070.06ZM562.548 1063.96C563.91 1063.96 564.939 1064.48 565.636 1065.52C566.334 1066.55 566.682 1068.06 566.682 1070.06C566.682 1072.07 566.331 1073.59 565.628 1074.63C564.931 1075.67 563.904 1076.19 562.548 1076.19C561.193 1076.19 560.166 1075.67 559.469 1074.64C558.772 1073.6 558.423 1072.07 558.423 1070.06C558.423 1068.05 558.769 1066.53 559.461 1065.51C560.158 1064.48 561.187 1063.96 562.548 1063.96ZM567.392 1073.03H569.957C569.968 1073.43 570.087 1073.74 570.314 1073.97C570.547 1074.19 570.859 1074.3 571.252 1074.3C571.789 1074.3 572.215 1074.09 572.531 1073.68C572.846 1073.26 573.004 1072.69 573.004 1071.97C573.004 1071.35 572.86 1070.85 572.572 1070.47C572.284 1070.09 571.911 1069.9 571.452 1069.9C571.092 1069.9 570.779 1070 570.514 1070.21C570.253 1070.42 570.057 1070.73 569.924 1071.12H567.426L567.7 1064.15H574.788V1066.07H569.941L569.775 1068.96C570.096 1068.68 570.431 1068.47 570.779 1068.35C571.133 1068.21 571.523 1068.15 571.95 1068.15C573.001 1068.15 573.859 1068.49 574.523 1069.19C575.187 1069.88 575.519 1070.77 575.519 1071.87C575.519 1073.16 575.109 1074.2 574.29 1075C573.477 1075.81 572.412 1076.21 571.095 1076.21C569.971 1076.21 569.072 1075.92 568.397 1075.35C567.727 1074.78 567.392 1074.01 567.392 1073.06V1073.03Z" fill="white"/>
</svg>
