<svg width="2650" height="1469" viewBox="0 0 2650 1469" fill="none" xmlns="http://www.w3.org/2000/svg">
<path d="M656.533 42.8955C664.072 31.0102 681.261 30.8248 689.101 42.3389L689.467 42.8955L720.647 92.0557C728.882 105.039 719.555 122 704.181 122H641.819C626.685 122 617.411 105.564 624.979 92.667L625.353 92.0557L656.533 42.8955Z" fill="white" stroke="#CDCDCD"/>
<path d="M286 221.537L477.909 124H2474V513.308H2336.32H2243.52H2151.09H2112.71H2024.38H1995.97H1855.6H1785.42H1715.23V636.598L1526.8 813.449L1441.89 893.878L1366.98 964.375L1338.37 990.3V1282H574.575H497.019L490.686 1268.5L214.5 1317L206 1268.5L470 1221.5L465.272 1210.11H286V377.097V221.537Z" fill="white"/>
<path d="M465.272 1210.11H286V377.097V221.537L477.909 124H2474V513.308H2336.32H2243.52H2151.09H2112.71H2024.38H1995.97H1855.6H1785.42H1715.23V636.598L1526.8 813.449L1441.89 893.878L1366.98 964.375L1338.37 990.3V1282H574.575M465.272 1210.11H492.92M465.272 1210.11L470 1221.5M574.575 1282H497.019L490.686 1268.5M574.575 1282V1210.11H551.963M470 1221.5L206 1268.5L214.5 1317L490.686 1268.5M470 1221.5L490.686 1268.5" stroke="#CDCDCD" stroke-width="4"/>
<path fill-rule="evenodd" clip-rule="evenodd" d="M1187.87 621.964C1187.87 622.231 1188.14 622.231 1188.4 622.231C1188.4 622.498 1188.4 622.498 1188.67 622.498C1204.41 629.71 1220.69 639.059 1230.02 651.079C1236.96 659.894 1239.09 668.709 1239.36 678.592C1239.36 683.668 1238.83 688.743 1238.29 693.818C1237.49 708.509 1236.43 722.934 1235.63 737.358C1235.63 737.625 1235.63 737.625 1235.63 737.892C1235.63 738.159 1235.63 738.159 1235.63 738.159C1233.49 773.151 1271.11 802 1319.93 802C1353.01 802 1383.69 788.377 1399.43 767.542C1399.7 767.008 1400.23 766.474 1400.77 765.939C1458.93 692.215 1515.75 620.361 1570.98 550.644C1592.32 523.131 1603.26 493.214 1603 462.495C1602.46 364.197 1487.21 287 1345.28 287C1216.42 287 1103.56 350.841 1077.15 436.585C1072.35 468 1071.35 466 1072.35 488.94C1078.22 542.63 1119.84 592.047 1187.87 621.964Z" fill="#F6F6F6"/>
<path d="M2229.5 513.5H2335.5" stroke="white" stroke-width="4"/>
<path d="M1686 183.049V125H2473V315.622H2347.71L2324.21 347H2037.6V299.933H1956.95V347H1869.24V183.049H1686Z" fill="#B3C5D6" stroke="#8FA9C0" stroke-width="2"/>
<path d="M311.499 208.5L361.474 183.032" stroke="white" stroke-width="3"/>
<path d="M423.499 151.5L473.474 126.032" stroke="white" stroke-width="3"/>
<rect x="2413.93" y="512.375" width="122" height="60" transform="rotate(-90 2413.93 512.375)" fill="#B3C5D6" stroke="#8FA9C0" stroke-width="2"/>
<path d="M1785.65 513.242H1891.65" stroke="white" stroke-width="4"/>
<path d="M1636 711L1671.17 678.207" stroke="white" stroke-width="4"/>
<path d="M1986.56 513.242L2092.56 513.242" stroke="white" stroke-width="4"/>
<path d="M1734.19 521L2482 522.566V701H1838L1587.92 949L1490 863.254L1723.87 642.5V521H1734.19Z" fill="#939393"/>
<path d="M2034.52 552.804L2026.47 543.667C2026.08 543.266 2025.56 543.027 2025 543C2024.44 543.028 2023.92 543.266 2023.53 543.667L2015.48 552.804C2015.2 553.119 2015.1 553.563 2015.24 553.967C2015.37 554.37 2015.71 554.67 2016.13 554.752C2016.55 554.833 2016.97 554.683 2017.25 554.36L2023.46 547.305C2023.52 547.24 2023.61 547.218 2023.69 547.249C2023.77 547.279 2023.82 547.357 2023.82 547.443V561.823C2023.82 562.473 2024.35 563 2025 563C2025.65 563 2026.18 562.473 2026.18 561.823V547.443C2026.18 547.357 2026.23 547.279 2026.31 547.248C2026.39 547.218 2026.49 547.241 2026.54 547.306L2032.75 554.36C2033.03 554.683 2033.45 554.833 2033.87 554.752C2034.29 554.67 2034.63 554.37 2034.76 553.967C2034.9 553.563 2034.8 553.119 2034.52 552.804Z" fill="white"/>
<path d="M2043.48 553.196L2051.53 562.333C2051.92 562.734 2052.44 562.973 2053 563C2053.56 562.972 2054.08 562.734 2054.47 562.333L2062.52 553.196C2062.8 552.881 2062.9 552.437 2062.76 552.033C2062.63 551.63 2062.29 551.33 2061.87 551.248C2061.45 551.167 2061.03 551.317 2060.75 551.64L2054.54 558.695C2054.48 558.76 2054.39 558.782 2054.31 558.751C2054.23 558.721 2054.18 558.643 2054.18 558.557L2054.18 544.178C2054.18 543.527 2053.65 543 2053 543C2052.35 543 2051.82 543.527 2051.82 544.178L2051.82 558.557C2051.82 558.643 2051.77 558.721 2051.69 558.752C2051.61 558.782 2051.51 558.759 2051.46 558.694L2045.25 551.64C2044.97 551.317 2044.55 551.167 2044.13 551.248C2043.71 551.33 2043.37 551.63 2043.24 552.033C2043.1 552.437 2043.2 552.881 2043.48 553.196Z" fill="white"/>
<path d="M1986 579H2092" stroke="white" stroke-width="3" stroke-linecap="round"/>
<path d="M1986 586H2092" stroke="white" stroke-width="3" stroke-linecap="round"/>
<path d="M1986 593H2092" stroke="white" stroke-width="3" stroke-linecap="round"/>
<path d="M1986 600H2092" stroke="white" stroke-width="3" stroke-linecap="round"/>
<path d="M1986 607H2092" stroke="white" stroke-width="3" stroke-linecap="round"/>
<path d="M1986 614H2092" stroke="white" stroke-width="3" stroke-linecap="round"/>
<path d="M1986 621H2092" stroke="white" stroke-width="3" stroke-linecap="round"/>
<path d="M1986 628H2092" stroke="white" stroke-width="3" stroke-linecap="round"/>
<path d="M1986 635H2092" stroke="white" stroke-width="3" stroke-linecap="round"/>
<path d="M1986 642H2092" stroke="white" stroke-width="3" stroke-linecap="round"/>
<path d="M1986 649H2092" stroke="white" stroke-width="3" stroke-linecap="round"/>
<path d="M2279.52 552.804L2271.47 543.667C2271.08 543.266 2270.56 543.027 2270 543C2269.44 543.028 2268.92 543.266 2268.53 543.667L2260.48 552.804C2260.2 553.119 2260.1 553.563 2260.24 553.967C2260.37 554.37 2260.71 554.67 2261.13 554.752C2261.55 554.833 2261.97 554.683 2262.25 554.36L2268.46 547.305C2268.52 547.24 2268.61 547.218 2268.69 547.249C2268.77 547.279 2268.82 547.357 2268.82 547.443V561.823C2268.82 562.473 2269.35 563 2270 563C2270.65 563 2271.18 562.473 2271.18 561.823V547.443C2271.18 547.357 2271.23 547.279 2271.31 547.248C2271.39 547.218 2271.49 547.241 2271.54 547.306L2277.75 554.36C2278.03 554.683 2278.45 554.833 2278.87 554.752C2279.29 554.67 2279.63 554.37 2279.76 553.967C2279.9 553.563 2279.8 553.119 2279.52 552.804Z" fill="white"/>
<path d="M2288.48 553.196L2296.53 562.333C2296.92 562.734 2297.44 562.973 2298 563C2298.56 562.972 2299.08 562.734 2299.47 562.333L2307.52 553.196C2307.8 552.881 2307.9 552.437 2307.76 552.033C2307.63 551.63 2307.29 551.33 2306.87 551.248C2306.45 551.167 2306.03 551.317 2305.75 551.64L2299.54 558.695C2299.48 558.76 2299.39 558.782 2299.31 558.751C2299.23 558.721 2299.18 558.643 2299.18 558.557L2299.18 544.178C2299.18 543.527 2298.65 543 2298 543C2297.35 543 2296.82 543.527 2296.82 544.178L2296.82 558.557C2296.82 558.643 2296.77 558.721 2296.69 558.752C2296.61 558.782 2296.51 558.759 2296.46 558.694L2290.25 551.64C2289.97 551.317 2289.55 551.167 2289.13 551.248C2288.71 551.33 2288.37 551.63 2288.24 552.033C2288.1 552.437 2288.2 552.881 2288.48 553.196Z" fill="white"/>
<path d="M2231 579H2337" stroke="white" stroke-width="3" stroke-linecap="round"/>
<path d="M2231 586H2337" stroke="white" stroke-width="3" stroke-linecap="round"/>
<path d="M2231 593H2337" stroke="white" stroke-width="3" stroke-linecap="round"/>
<path d="M2231 600H2337" stroke="white" stroke-width="3" stroke-linecap="round"/>
<path d="M2231 607H2337" stroke="white" stroke-width="3" stroke-linecap="round"/>
<path d="M2231 614H2337" stroke="white" stroke-width="3" stroke-linecap="round"/>
<path d="M2231 621H2337" stroke="white" stroke-width="3" stroke-linecap="round"/>
<path d="M2231 628H2337" stroke="white" stroke-width="3" stroke-linecap="round"/>
<path d="M2231 635H2337" stroke="white" stroke-width="3" stroke-linecap="round"/>
<path d="M2231 642H2337" stroke="white" stroke-width="3" stroke-linecap="round"/>
<path d="M2231 649H2337" stroke="white" stroke-width="3" stroke-linecap="round"/>
<path d="M1823.06 547.196L1831.1 556.333C1831.49 556.734 1832.02 556.973 1832.58 557C1833.13 556.972 1833.66 556.734 1834.05 556.333L1842.09 547.196C1842.38 546.881 1842.47 546.437 1842.34 546.033C1842.2 545.63 1841.86 545.33 1841.45 545.248C1841.03 545.167 1840.6 545.317 1840.33 545.64L1834.12 552.695C1834.06 552.76 1833.97 552.782 1833.89 552.751C1833.81 552.721 1833.75 552.643 1833.75 552.557L1833.75 538.178C1833.75 537.527 1833.23 537 1832.58 537C1831.92 537 1831.4 537.527 1831.4 538.178L1831.4 552.557C1831.4 552.643 1831.34 552.721 1831.26 552.752C1831.18 552.782 1831.09 552.759 1831.03 552.694L1824.83 545.64C1824.55 545.317 1824.12 545.167 1823.7 545.248C1823.29 545.33 1822.95 545.63 1822.81 546.033C1822.68 546.437 1822.77 546.881 1823.06 547.196Z" fill="white"/>
<path d="M1028.09 601.75V645.609" stroke="#CDCDCD" stroke-width="2"/>
<rect x="909" y="602" width="84" height="25" fill="#C4D3E8" stroke="#B3C5D6" stroke-width="2"/>
<path d="M906 648V693" stroke="#CDCDCD" stroke-width="2"/>
<path d="M1028 675V740" stroke="#CDCDCD" stroke-width="2"/>
<path d="M1715.06 513.07L1654.68 565.555" stroke="#CDCDCD" stroke-width="4"/>
<path d="M1642.46 576.508L1611.42 603.285" stroke="#CDCDCD" stroke-width="4"/>
<path d="M1588 622L1549.82 657.309" stroke="#CDCDCD" stroke-width="4"/>
<path d="M1620 726L1550 655.996" stroke="#CDCDCD" stroke-width="4"/>
<path d="M966 689V734H904" stroke="#CDCDCD" stroke-width="2"/>
<path d="M1561 739.203L1571.8 750.003L1588 733.803L1577.2 723.003" stroke="#CDCDCD" stroke-width="3"/>
<rect width="18.3004" height="13.1683" transform="matrix(0.707003 -0.707211 0.707003 0.707211 1562.67 737.547)" fill="#DDE5ED"/>
<path d="M1538.58 762.622L1549.38 773.422L1565.58 757.222L1554.78 746.422" stroke="#CDCDCD" stroke-width="3"/>
<rect width="18.3004" height="13.1683" transform="matrix(0.707003 -0.707211 0.707003 0.707211 1540.25 760.966)" fill="#DDE5ED"/>
<path d="M904 764L945 764L945 794.196M945 824L945 794.196M945 794.196L906.86 794.196L906.86 823.608" stroke="#CDCDCD" stroke-width="2"/>
<rect x="944" y="764" width="84" height="60" fill="#B3C5D6" stroke="#8FA9C0" stroke-width="2"/>
<path d="M1515.66 785.552L1526.46 796.352L1542.66 780.152L1531.86 769.352" stroke="#CDCDCD" stroke-width="3"/>
<rect width="18.3004" height="13.1683" transform="matrix(0.707003 -0.707211 0.707003 0.707211 1517.32 783.896)" fill="#DDE5ED"/>
<rect x="34" y="220" width="134" height="992" fill="#939393"/>
<path d="M1468.11 830.544L1478.91 841.344L1495.11 825.144L1484.31 814.344" stroke="#CDCDCD" stroke-width="3"/>
<rect width="18.3004" height="13.1683" transform="matrix(0.707003 -0.707211 0.707003 0.707211 1469.78 828.888)" fill="#DDE5ED"/>
<path d="M1443 855.203L1453.8 866.003L1470 849.803L1459.2 839.003" stroke="#CDCDCD" stroke-width="3"/>
<rect width="18.3004" height="13.1683" transform="matrix(0.707003 -0.707211 0.707003 0.707211 1444.67 853.547)" fill="#DDE5ED"/>
<path d="M906 846H1028V903.952H906V846Z" fill="#B3C5D6"/>
<path d="M1028 903.952V846H906V903.952M1028 903.952H906M1028 903.952V959.554V976H906V959.554V903.952" stroke="#8FA9C0" stroke-width="2"/>
<path d="M1366.13 965.357L1444.63 891.527" stroke="#E6E6E6" stroke-width="4.69914"/>
<rect x="906" y="976.109" width="122" height="62" fill="#B3C5D6" stroke="#8FA9C0" stroke-width="2"/>
<rect x="906" y="1037" width="122" height="62" fill="#B3C5D6" stroke="#8FA9C0" stroke-width="2"/>
<rect x="913" y="389" width="62" height="62" rx="2" fill="#2D2D2D"/>
<path d="M965 411.25C965 410.284 964.216 409.5 963.25 409.5H951.875C950.425 409.5 949.25 410.675 949.25 412.125V415.625C949.25 416.108 948.858 416.5 948.375 416.5H944.875C943.425 416.5 942.25 417.675 942.25 419.125V422.625C942.25 423.108 941.858 423.5 941.375 423.5H937.875C936.425 423.5 935.25 424.675 935.25 426.125V429.625C935.25 430.108 934.858 430.5 934.375 430.5H930.875C929.425 430.5 928.25 431.675 928.25 433.125V439.25C928.25 440.216 929.034 441 930 441H963.25C964.216 441 965 440.216 965 439.25V411.25Z" fill="white"/>
<path d="M943.825 409.245C944.076 409.49 944.449 409.562 944.774 409.427C945.098 409.292 945.31 408.976 945.312 408.625V399.875C945.312 399.392 944.921 399 944.437 399H935.687C935.334 399.002 935.017 399.216 934.883 399.543C934.749 399.87 934.825 400.245 935.075 400.494L936.968 402.393C937.133 402.557 937.225 402.78 937.225 403.013C937.225 403.245 937.133 403.468 936.968 403.632L923.768 416.831C922.743 417.856 922.743 419.519 923.768 420.544C924.794 421.57 926.456 421.57 927.482 420.544L940.675 407.344C940.839 407.179 941.062 407.087 941.294 407.087C941.527 407.087 941.75 407.179 941.914 407.344L943.825 409.245Z" fill="white"/>
<rect x="1871" y="330" width="62" height="62" rx="2" fill="#2D2D2D"/>
<path d="M1923 352.25C1923 351.284 1922.22 350.5 1921.25 350.5H1909.88C1908.43 350.5 1907.25 351.675 1907.25 353.125V356.625C1907.25 357.108 1906.86 357.5 1906.38 357.5H1902.88C1901.43 357.5 1900.25 358.675 1900.25 360.125V363.625C1900.25 364.108 1899.86 364.5 1899.38 364.5H1895.88C1894.43 364.5 1893.25 365.675 1893.25 367.125V370.625C1893.25 371.108 1892.86 371.5 1892.38 371.5H1888.88C1887.43 371.5 1886.25 372.675 1886.25 374.125V380.25C1886.25 381.216 1887.03 382 1888 382H1921.25C1922.22 382 1923 381.216 1923 380.25V352.25Z" fill="white"/>
<path d="M1901.82 350.245C1902.08 350.49 1902.45 350.562 1902.77 350.427C1903.1 350.292 1903.31 349.976 1903.31 349.625V340.875C1903.31 340.392 1902.92 340 1902.44 340H1893.69C1893.33 340.002 1893.02 340.216 1892.88 340.543C1892.75 340.87 1892.82 341.245 1893.07 341.494L1894.97 343.393C1895.13 343.557 1895.23 343.78 1895.23 344.013C1895.23 344.245 1895.13 344.468 1894.97 344.632L1881.77 357.831C1880.74 358.856 1880.74 360.519 1881.77 361.544C1882.79 362.57 1884.46 362.57 1885.48 361.544L1898.67 348.344C1898.84 348.179 1899.06 348.087 1899.29 348.087C1899.53 348.087 1899.75 348.179 1899.91 348.344L1901.82 350.245Z" fill="white"/>
<line x1="331" y1="376" x2="288" y2="376" stroke="#CDCDCD" stroke-width="2"/>
<path d="M809.786 215.19L726.778 263.574C726.296 263.855 726 264.37 726 264.928V291.858L726 342.434C726 343.299 726.701 344 727.566 344H894.27C895.135 344 895.836 343.299 895.836 342.434V275.664C895.836 274.798 896.538 274.097 897.403 274.097H944.434C945.299 274.097 946 273.396 946 272.531V152.486C946 151.334 944.797 150.576 943.758 151.073L809.786 215.19ZM809.786 215.19L858.784 274.097" stroke="#8FA9C0" stroke-width="2"/>
<rect x="853" y="174" width="62" height="62" rx="2" fill="#2D2D2D"/>
<path d="M871.749 187.055C874.828 187.055 877.545 189.067 878.444 192.012C879.343 194.957 878.211 198.143 875.656 199.862C875.433 200.012 875.291 200.256 875.271 200.524C875.251 200.793 875.356 201.055 875.555 201.236C876.291 201.904 876.834 202.757 877.13 203.705L880.46 214.364C880.543 214.63 880.495 214.919 880.33 215.144C880.165 215.368 879.904 215.5 879.626 215.5H877.247C876.803 215.497 876.427 215.826 876.372 216.267L875.251 225.235C875.195 225.675 874.819 226.003 874.376 226H869.126C868.682 226.004 868.306 225.675 868.251 225.235L867.142 216.267C867.087 215.826 866.711 215.497 866.267 215.5H863.876C863.598 215.499 863.337 215.367 863.173 215.143C863.008 214.918 862.96 214.63 863.043 214.364L866.368 203.705C866.664 202.757 867.207 201.904 867.942 201.236C868.141 201.055 868.246 200.793 868.226 200.524C868.206 200.256 868.064 200.012 867.84 199.862C865.286 198.143 864.155 194.957 865.053 192.012C865.952 189.067 868.67 187.055 871.749 187.055ZM872.341 192.479C872.007 192.174 871.495 192.174 871.161 192.479C870.484 193.093 869.709 193.591 868.87 193.953C868.473 194.127 868.263 194.565 868.377 194.983C868.788 196.505 870.168 197.562 871.744 197.562C873.319 197.561 874.699 196.504 875.11 194.983C875.224 194.565 875.014 194.127 874.617 193.953C873.783 193.59 873.014 193.093 872.341 192.479Z" fill="white"/>
<path d="M884 184C883.034 184 882.25 184.784 882.25 185.75V224.25C882.25 225.216 883.034 226 884 226C884.966 226 885.75 225.216 885.75 224.25V185.75C885.75 184.784 884.966 184 884 184Z" fill="white"/>
<path d="M896.25 187.022C899.235 187.022 901.892 188.916 902.866 191.738C903.84 194.56 902.919 197.689 900.569 199.531C900.341 199.71 900.217 199.99 900.236 200.279C900.256 200.568 900.417 200.828 900.667 200.975C903.347 202.533 904.997 205.399 905 208.5V212.875C905 213.358 904.608 213.75 904.125 213.75H901.77C901.32 213.747 900.942 214.086 900.895 214.532L899.75 225.22C899.701 225.666 899.324 226.003 898.875 226H893.625C893.176 226.003 892.799 225.666 892.75 225.22L891.616 214.532C891.569 214.086 891.19 213.748 890.741 213.75H888.375C887.892 213.75 887.5 213.358 887.5 212.875V208.5C887.503 205.399 889.153 202.533 891.833 200.975C892.083 200.828 892.244 200.568 892.264 200.279C892.283 199.99 892.159 199.71 891.931 199.531C889.581 197.689 888.66 194.56 889.634 191.738C890.608 188.916 893.265 187.022 896.25 187.022ZM894.066 192.697C893.828 192.585 893.55 192.586 893.312 192.701C893.075 192.816 892.901 193.032 892.841 193.289C892.78 193.542 892.75 193.802 892.75 194.062C892.75 195.995 894.317 197.562 896.25 197.562C898.183 197.562 899.75 195.995 899.75 194.062C899.752 193.925 899.696 193.793 899.596 193.698C899.492 193.605 899.354 193.56 899.216 193.574C898.911 193.607 898.605 193.624 898.299 193.625C896.837 193.626 895.393 193.309 894.066 192.697Z" fill="white"/>
<rect x="1967" y="267" width="62" height="62" rx="2" fill="#2D2D2D"/>
<path d="M1985.75 280.055C1988.83 280.055 1991.55 282.067 1992.44 285.012C1993.34 287.957 1992.21 291.143 1989.66 292.862C1989.43 293.012 1989.29 293.256 1989.27 293.524C1989.25 293.793 1989.36 294.055 1989.56 294.236C1990.29 294.904 1990.83 295.757 1991.13 296.705L1994.46 307.364C1994.54 307.63 1994.49 307.919 1994.33 308.144C1994.17 308.368 1993.9 308.5 1993.63 308.5H1991.25C1990.8 308.497 1990.43 308.826 1990.37 309.267L1989.25 318.235C1989.19 318.675 1988.82 319.003 1988.38 319H1983.13C1982.68 319.004 1982.31 318.675 1982.25 318.235L1981.14 309.267C1981.09 308.826 1980.71 308.497 1980.27 308.5H1977.88C1977.6 308.499 1977.34 308.367 1977.17 308.143C1977.01 307.918 1976.96 307.63 1977.04 307.364L1980.37 296.705C1980.66 295.757 1981.21 294.904 1981.94 294.236C1982.14 294.055 1982.25 293.793 1982.23 293.524C1982.21 293.256 1982.06 293.012 1981.84 292.862C1979.29 291.143 1978.15 287.957 1979.05 285.012C1979.95 282.067 1982.67 280.055 1985.75 280.055ZM1986.34 285.479C1986.01 285.174 1985.5 285.174 1985.16 285.479C1984.48 286.093 1983.71 286.591 1982.87 286.953C1982.47 287.127 1982.26 287.565 1982.38 287.983C1982.79 289.505 1984.17 290.562 1985.74 290.562C1987.32 290.561 1988.7 289.504 1989.11 287.983C1989.22 287.565 1989.01 287.127 1988.62 286.953C1987.78 286.59 1987.01 286.093 1986.34 285.479Z" fill="white"/>
<path d="M1998 277C1997.03 277 1996.25 277.784 1996.25 278.75V317.25C1996.25 318.216 1997.03 319 1998 319C1998.97 319 1999.75 318.216 1999.75 317.25V278.75C1999.75 277.784 1998.97 277 1998 277Z" fill="white"/>
<path d="M2010.25 280.022C2013.24 280.022 2015.89 281.916 2016.87 284.738C2017.84 287.56 2016.92 290.689 2014.57 292.531C2014.34 292.71 2014.22 292.99 2014.24 293.279C2014.26 293.568 2014.42 293.828 2014.67 293.975C2017.35 295.533 2019 298.399 2019 301.5V305.875C2019 306.358 2018.61 306.75 2018.12 306.75H2015.77C2015.32 306.747 2014.94 307.086 2014.89 307.532L2013.75 318.22C2013.7 318.666 2013.32 319.003 2012.88 319H2007.62C2007.18 319.003 2006.8 318.666 2006.75 318.22L2005.62 307.532C2005.57 307.086 2005.19 306.748 2004.74 306.75H2002.38C2001.89 306.75 2001.5 306.358 2001.5 305.875V301.5C2001.5 298.399 2003.15 295.533 2005.83 293.975C2006.08 293.828 2006.24 293.568 2006.26 293.279C2006.28 292.99 2006.16 292.71 2005.93 292.531C2003.58 290.689 2002.66 287.56 2003.63 284.738C2004.61 281.916 2007.26 280.022 2010.25 280.022ZM2008.07 285.697C2007.83 285.585 2007.55 285.586 2007.31 285.701C2007.07 285.816 2006.9 286.032 2006.84 286.289C2006.78 286.542 2006.75 286.802 2006.75 287.062C2006.75 288.995 2008.32 290.562 2010.25 290.562C2012.18 290.562 2013.75 288.995 2013.75 287.062C2013.75 286.925 2013.7 286.793 2013.6 286.698C2013.49 286.605 2013.35 286.56 2013.22 286.574C2012.91 286.607 2012.61 286.624 2012.3 286.625C2010.84 286.626 2009.39 286.309 2008.07 285.697Z" fill="white"/>
<rect x="938" y="1040" width="62" height="62" rx="2" fill="#2D2D2D"/>
<path d="M956.749 1053.05C959.828 1053.05 962.545 1055.07 963.444 1058.01C964.343 1060.96 963.211 1064.14 960.656 1065.86C960.433 1066.01 960.291 1066.26 960.271 1066.52C960.251 1066.79 960.356 1067.06 960.555 1067.24C961.291 1067.9 961.834 1068.76 962.13 1069.71L965.46 1080.36C965.543 1080.63 965.495 1080.92 965.33 1081.14C965.165 1081.37 964.904 1081.5 964.626 1081.5H962.247C961.803 1081.5 961.427 1081.83 961.372 1082.27L960.251 1091.24C960.195 1091.68 959.819 1092 959.376 1092H954.126C953.682 1092 953.306 1091.68 953.251 1091.24L952.142 1082.27C952.087 1081.83 951.711 1081.5 951.267 1081.5H948.876C948.598 1081.5 948.337 1081.37 948.173 1081.14C948.008 1080.92 947.96 1080.63 948.043 1080.36L951.368 1069.71C951.664 1068.76 952.207 1067.9 952.942 1067.24C953.141 1067.06 953.246 1066.79 953.226 1066.52C953.206 1066.26 953.064 1066.01 952.84 1065.86C950.286 1064.14 949.155 1060.96 950.053 1058.01C950.952 1055.07 953.67 1053.05 956.749 1053.05ZM957.341 1058.48C957.007 1058.17 956.495 1058.17 956.161 1058.48C955.484 1059.09 954.709 1059.59 953.87 1059.95C953.473 1060.13 953.263 1060.57 953.377 1060.98C953.788 1062.5 955.168 1063.56 956.744 1063.56C958.319 1063.56 959.699 1062.5 960.11 1060.98C960.224 1060.57 960.014 1060.13 959.617 1059.95C958.783 1059.59 958.014 1059.09 957.341 1058.48Z" fill="white"/>
<path d="M969 1050C968.034 1050 967.25 1050.78 967.25 1051.75V1090.25C967.25 1091.22 968.034 1092 969 1092C969.966 1092 970.75 1091.22 970.75 1090.25V1051.75C970.75 1050.78 969.966 1050 969 1050Z" fill="white"/>
<path d="M981.25 1053.02C984.235 1053.02 986.892 1054.92 987.866 1057.74C988.84 1060.56 987.919 1063.69 985.569 1065.53C985.341 1065.71 985.217 1065.99 985.236 1066.28C985.256 1066.57 985.417 1066.83 985.667 1066.97C988.347 1068.53 989.997 1071.4 990 1074.5V1078.88C990 1079.36 989.608 1079.75 989.125 1079.75H986.77C986.32 1079.75 985.942 1080.09 985.895 1080.53L984.75 1091.22C984.701 1091.67 984.324 1092 983.875 1092H978.625C978.176 1092 977.799 1091.67 977.75 1091.22L976.616 1080.53C976.569 1080.09 976.19 1079.75 975.741 1079.75H973.375C972.892 1079.75 972.5 1079.36 972.5 1078.88V1074.5C972.503 1071.4 974.153 1068.53 976.833 1066.97C977.083 1066.83 977.244 1066.57 977.264 1066.28C977.283 1065.99 977.159 1065.71 976.931 1065.53C974.581 1063.69 973.66 1060.56 974.634 1057.74C975.608 1054.92 978.265 1053.02 981.25 1053.02ZM979.066 1058.7C978.828 1058.58 978.55 1058.59 978.312 1058.7C978.075 1058.82 977.901 1059.03 977.841 1059.29C977.78 1059.54 977.75 1059.8 977.75 1060.06C977.75 1062 979.317 1063.56 981.25 1063.56C983.183 1063.56 984.75 1062 984.75 1060.06C984.752 1059.92 984.696 1059.79 984.596 1059.7C984.492 1059.61 984.354 1059.56 984.216 1059.57C983.911 1059.61 983.605 1059.62 983.299 1059.62C981.837 1059.63 980.393 1059.31 979.066 1058.7Z" fill="white"/>
<rect x="938" y="973" width="62" height="62" rx="2" fill="#2D2D2D"/>
<path d="M956.749 986.055C959.828 986.055 962.545 988.067 963.444 991.012C964.343 993.957 963.211 997.143 960.656 998.862C960.433 999.012 960.291 999.256 960.271 999.524C960.251 999.793 960.356 1000.06 960.555 1000.24C961.291 1000.9 961.834 1001.76 962.13 1002.71L965.46 1013.36C965.543 1013.63 965.495 1013.92 965.33 1014.14C965.165 1014.37 964.904 1014.5 964.626 1014.5H962.247C961.803 1014.5 961.427 1014.83 961.372 1015.27L960.251 1024.24C960.195 1024.68 959.819 1025 959.376 1025H954.126C953.682 1025 953.306 1024.68 953.251 1024.24L952.142 1015.27C952.087 1014.83 951.711 1014.5 951.267 1014.5H948.876C948.598 1014.5 948.337 1014.37 948.173 1014.14C948.008 1013.92 947.96 1013.63 948.043 1013.36L951.368 1002.71C951.664 1001.76 952.207 1000.9 952.942 1000.24C953.141 1000.06 953.246 999.793 953.226 999.524C953.206 999.256 953.064 999.012 952.84 998.862C950.286 997.143 949.155 993.957 950.053 991.012C950.952 988.067 953.67 986.055 956.749 986.055ZM957.341 991.479C957.007 991.174 956.495 991.174 956.161 991.479C955.484 992.093 954.709 992.591 953.87 992.953C953.473 993.127 953.263 993.565 953.377 993.983C953.788 995.505 955.168 996.562 956.744 996.562C958.319 996.561 959.699 995.504 960.11 993.983C960.224 993.565 960.014 993.127 959.617 992.953C958.783 992.59 958.014 992.093 957.341 991.479Z" fill="white"/>
<path d="M969 983C968.034 983 967.25 983.784 967.25 984.75V1023.25C967.25 1024.22 968.034 1025 969 1025C969.966 1025 970.75 1024.22 970.75 1023.25V984.75C970.75 983.784 969.966 983 969 983Z" fill="white"/>
<path d="M981.25 986.022C984.235 986.022 986.892 987.916 987.866 990.738C988.84 993.56 987.919 996.689 985.569 998.531C985.341 998.71 985.217 998.99 985.236 999.279C985.256 999.568 985.417 999.828 985.667 999.975C988.347 1001.53 989.997 1004.4 990 1007.5V1011.88C990 1012.36 989.608 1012.75 989.125 1012.75H986.77C986.32 1012.75 985.942 1013.09 985.895 1013.53L984.75 1024.22C984.701 1024.67 984.324 1025 983.875 1025H978.625C978.176 1025 977.799 1024.67 977.75 1024.22L976.616 1013.53C976.569 1013.09 976.19 1012.75 975.741 1012.75H973.375C972.892 1012.75 972.5 1012.36 972.5 1011.88V1007.5C972.503 1004.4 974.153 1001.53 976.833 999.975C977.083 999.828 977.244 999.568 977.264 999.279C977.283 998.99 977.159 998.71 976.931 998.531C974.581 996.689 973.66 993.56 974.634 990.738C975.608 987.916 978.265 986.022 981.25 986.022ZM979.066 991.697C978.828 991.585 978.55 991.586 978.312 991.701C978.075 991.816 977.901 992.032 977.841 992.289C977.78 992.542 977.75 992.802 977.75 993.062C977.75 994.995 979.317 996.562 981.25 996.562C983.183 996.562 984.75 994.995 984.75 993.062C984.752 992.925 984.696 992.793 984.596 992.698C984.492 992.605 984.354 992.56 984.216 992.574C983.911 992.607 983.605 992.624 983.299 992.625C981.837 992.626 980.393 992.309 979.066 991.697Z" fill="white"/>
<path d="M887 446H288V1208H887V1189.54V446Z" fill="#F3F8FC" stroke="#DDE5ED"/>
<path d="M379 570.434C379 571.299 379.701 572 380.566 572H730.091C739.982 572 748 563.982 748 554.091C748 545.924 742.475 538.792 734.567 536.75L638.875 512.05C638.747 512.017 638.616 512 638.484 512H380.566C379.701 512 379 512.701 379 513.566V570.434Z" fill="#DDE5ED" stroke="#B3C5D6" stroke-width="2"/>
<path d="M379 570.434C379 571.299 379.701 572 380.566 572H730.091C739.982 572 748 563.982 748 554.091C748 545.924 742.475 538.792 734.567 536.75L638.875 512.05C638.747 512.017 638.616 512 638.484 512H380.566C379.701 512 379 512.701 379 513.566V570.434Z" fill="#DDE5ED" stroke="#B3C5D6" stroke-width="2"/>
<path d="M379 648.566C379 647.701 379.701 647 380.566 647H772.257C781.504 647 789 654.496 789 663.743C789 671.599 783.537 678.399 775.866 680.092L667.703 703.963C667.592 703.988 667.479 704 667.366 704H380.566C379.701 704 379 703.299 379 702.434V648.566Z" fill="#DDE5ED" stroke="#B3C5D6" stroke-width="2"/>
<path d="M379 648.566C379 647.701 379.701 647 380.566 647H772.257C781.504 647 789 654.496 789 663.743C789 671.599 783.537 678.399 775.866 680.092L667.703 703.963C667.592 703.988 667.479 704 667.366 704H380.566C379.701 704 379 703.299 379 702.434V648.566Z" fill="#DDE5ED" stroke="#B3C5D6" stroke-width="2"/>
<path d="M379 780.566C379 779.701 379.701 779 380.566 779H772.579C781.648 779 789 786.352 789 795.421C789 803.149 783.611 809.832 776.059 811.469L667.7 834.964C667.591 834.988 667.48 835 667.368 835H380.566C379.701 835 379 834.299 379 833.434V780.566Z" fill="#DDE5ED" stroke="#B3C5D6" stroke-width="2"/>
<path d="M379 780.566C379 779.701 379.701 779 380.566 779H772.579C781.648 779 789 786.352 789 795.421C789 803.149 783.611 809.832 776.059 811.469L667.7 834.964C667.591 834.988 667.48 835 667.368 835H380.566C379.701 835 379 834.299 379 833.434V780.566Z" fill="#DDE5ED" stroke="#B3C5D6" stroke-width="2"/>
<path d="M379 911.566C379 910.701 379.701 910 380.566 910H772.257C781.504 910 789 917.496 789 926.743C789 934.599 783.537 941.399 775.866 943.092L667.703 966.963C667.592 966.988 667.479 967 667.366 967H380.566C379.701 967 379 966.299 379 965.434V911.566Z" fill="#DDE5ED" stroke="#B3C5D6" stroke-width="2"/>
<path d="M379 911.566C379 910.701 379.701 910 380.566 910H772.257C781.504 910 789 917.496 789 926.743C789 934.599 783.537 941.399 775.866 943.092L667.703 966.963C667.592 966.988 667.479 967 667.366 967H380.566C379.701 967 379 966.299 379 965.434V911.566Z" fill="#DDE5ED" stroke="#B3C5D6" stroke-width="2"/>
<path d="M379 1043.57C379 1042.7 379.701 1042 380.566 1042H772.579C781.648 1042 789 1049.35 789 1058.42C789 1066.15 783.611 1072.83 776.059 1074.47L667.7 1097.96C667.591 1097.99 667.48 1098 667.368 1098H380.566C379.701 1098 379 1097.3 379 1096.43V1043.57Z" fill="#DDE5ED" stroke="#B3C5D6" stroke-width="2"/>
<path d="M379 1043.57C379 1042.7 379.701 1042 380.566 1042H772.579C781.648 1042 789 1049.35 789 1058.42C789 1066.15 783.611 1072.83 776.059 1074.47L667.7 1097.96C667.591 1097.99 667.48 1098 667.368 1098H380.566C379.701 1098 379 1097.3 379 1096.43V1043.57Z" fill="#DDE5ED" stroke="#B3C5D6" stroke-width="2"/>
<rect x="302" y="776" width="62" height="62" rx="2" fill="#084983"/>
<path d="M336.062 787.969C338.962 787.969 341.312 790.319 341.312 793.219V795.406C341.312 795.889 341.704 796.281 342.188 796.281H342.625C343.108 796.281 343.5 796.673 343.5 797.156V825.156C343.5 825.639 343.108 826.031 342.625 826.031H323.375C322.892 826.031 322.5 825.639 322.5 825.156V797.156C322.5 796.673 322.892 796.281 323.375 796.281H323.812C324.296 796.281 324.688 795.889 324.688 795.406V793.219C324.688 790.319 327.038 787.969 329.938 787.969H336.062ZM329.938 791.469C328.971 791.469 328.188 792.252 328.188 793.219V795.406C328.188 795.889 328.579 796.281 329.062 796.281H336.938C337.421 796.281 337.812 795.889 337.812 795.406V793.219C337.812 792.252 337.029 791.469 336.062 791.469H329.938Z" fill="white"/>
<path d="M319 797.156C319 796.673 318.608 796.281 318.125 796.281C314.742 796.281 312 799.024 312 802.406V819.906C312 823.289 314.742 826.031 318.125 826.031C318.608 826.031 319 825.639 319 825.156V797.156Z" fill="white"/>
<path d="M347.875 796.281C347.392 796.281 347 796.673 347 797.156V825.156C347 825.639 347.392 826.031 347.875 826.031C351.258 826.031 354 823.289 354 819.906V802.406C354 799.024 351.258 796.281 347.875 796.281Z" fill="white"/>
<path d="M1082.69 1227.12C1082.69 1227.47 1082.55 1227.81 1082.3 1228.05C1082.06 1228.3 1081.72 1228.44 1081.38 1228.44H1044.62C1044.28 1228.44 1043.94 1228.3 1043.7 1228.05C1043.45 1227.81 1043.31 1227.47 1043.31 1227.12C1043.31 1226.78 1043.45 1226.44 1043.7 1226.2C1043.94 1225.95 1044.28 1225.81 1044.62 1225.81H1081.38C1081.72 1225.81 1082.06 1225.95 1082.3 1226.2C1082.55 1226.44 1082.69 1226.78 1082.69 1227.12ZM1044.67 1209.11C1044.6 1208.83 1044.61 1208.54 1044.71 1208.27C1044.82 1208.01 1045.01 1207.78 1045.25 1207.63L1062.31 1197.13C1062.52 1197 1062.76 1196.94 1063 1196.94C1063.24 1196.94 1063.48 1197 1063.69 1197.13L1080.75 1207.63C1080.99 1207.78 1081.18 1208.01 1081.29 1208.27C1081.39 1208.54 1081.4 1208.83 1081.33 1209.11C1081.25 1209.38 1081.08 1209.62 1080.85 1209.8C1080.63 1209.97 1080.35 1210.06 1080.06 1210.06H1076.12V1220.56H1078.75C1079.1 1220.56 1079.43 1220.7 1079.68 1220.95C1079.92 1221.19 1080.06 1221.53 1080.06 1221.88C1080.06 1222.22 1079.92 1222.56 1079.68 1222.8C1079.43 1223.05 1079.1 1223.19 1078.75 1223.19H1047.25C1046.9 1223.19 1046.57 1223.05 1046.32 1222.8C1046.08 1222.56 1045.94 1222.22 1045.94 1221.88C1045.94 1221.53 1046.08 1221.19 1046.32 1220.95C1046.57 1220.7 1046.9 1220.56 1047.25 1220.56H1049.88V1210.06H1045.94C1045.65 1210.06 1045.37 1209.97 1045.15 1209.8C1044.92 1209.62 1044.75 1209.38 1044.67 1209.11ZM1065.62 1219.25C1065.62 1219.6 1065.76 1219.93 1066.01 1220.18C1066.26 1220.42 1066.59 1220.56 1066.94 1220.56C1067.29 1220.56 1067.62 1220.42 1067.87 1220.18C1068.11 1219.93 1068.25 1219.6 1068.25 1219.25V1211.38C1068.25 1211.03 1068.11 1210.69 1067.87 1210.45C1067.62 1210.2 1067.29 1210.06 1066.94 1210.06C1066.59 1210.06 1066.26 1210.2 1066.01 1210.45C1065.76 1210.69 1065.62 1211.03 1065.62 1211.38V1219.25ZM1057.75 1219.25C1057.75 1219.6 1057.89 1219.93 1058.13 1220.18C1058.38 1220.42 1058.71 1220.56 1059.06 1220.56C1059.41 1220.56 1059.74 1220.42 1059.99 1220.18C1060.24 1219.93 1060.38 1219.6 1060.38 1219.25V1211.38C1060.38 1211.03 1060.24 1210.69 1059.99 1210.45C1059.74 1210.2 1059.41 1210.06 1059.06 1210.06C1058.71 1210.06 1058.38 1210.2 1058.13 1210.45C1057.89 1210.69 1057.75 1211.03 1057.75 1211.38V1219.25Z" fill="white"/>
<path d="M2072.66 64.8629L2067.03 58.4667C2066.76 58.1859 2066.39 58.019 2066 58C2065.61 58.0193 2065.24 58.1861 2064.97 58.4667L2059.34 64.8629C2059.14 65.0832 2059.07 65.3941 2059.16 65.6766C2059.26 65.959 2059.5 66.169 2059.79 66.2261C2060.08 66.2831 2060.38 66.1784 2060.57 65.952L2064.92 61.0135C2064.96 60.9682 2065.02 60.9524 2065.08 60.974C2065.14 60.9955 2065.18 61.0498 2065.18 61.1103V71.1757C2065.18 71.631 2065.54 72 2066 72C2066.45 72 2066.82 71.631 2066.82 71.1757V61.1103C2066.82 61.0496 2066.86 60.9952 2066.92 60.9737C2066.97 60.9523 2067.04 60.9684 2067.08 61.0141L2071.42 65.952C2071.62 66.1784 2071.92 66.2831 2072.21 66.2261C2072.5 66.169 2072.74 65.959 2072.83 65.6766C2072.93 65.3941 2072.86 65.0832 2072.66 64.8629Z" fill="#213859"/>
<path d="M2052 122V80H2059.97M2145 122V46H2098.5H2079.46V80H2072.37" stroke="#CDCDCD" stroke-width="4"/>
<path d="M2071.93 80H2080C2080 81.5253 2080 85.3811 2080 91.126C2080 96.7192 2078.44 102.768 2073.44 105.289C2067.9 108.087 2062.03 107.137 2057.63 104.712C2053.31 102.334 2052 97.1326 2052 92.2039V80H2060.3" stroke="#213859" stroke-width="4"/>
<path d="M1818 121V45H1911V121" stroke="#CDCDCD" stroke-width="4"/>
<path d="M1959.75 68.5141L1954.33 62.3483C1954.06 62.0776 1953.71 61.9168 1953.33 61.8984C1952.96 61.917 1952.6 62.0778 1952.34 62.3483L1946.91 68.5141C1946.72 68.7265 1946.65 69.0262 1946.74 69.2985C1946.83 69.5707 1947.06 69.7732 1947.35 69.8282C1947.63 69.8832 1947.92 69.7822 1948.1 69.564L1952.29 64.8034C1952.33 64.7597 1952.39 64.7445 1952.45 64.7653C1952.5 64.786 1952.54 64.8383 1952.54 64.8967V74.5996C1952.54 75.0384 1952.89 75.3941 1953.33 75.3941C1953.77 75.3941 1954.13 75.0384 1954.13 74.5996V64.8967C1954.13 64.8382 1954.16 64.7857 1954.22 64.7651C1954.27 64.7444 1954.33 64.7599 1954.37 64.804L1958.56 69.564C1958.75 69.7822 1959.04 69.8832 1959.32 69.8282C1959.6 69.7732 1959.83 69.5707 1959.92 69.2985C1960.01 69.0262 1959.95 68.7265 1959.75 68.5141Z" fill="#213859"/>
<path d="M1940 122V80H1947.97M2033 122V46H1986.5H1967.46V80H1960.37" stroke="#CDCDCD" stroke-width="4"/>
<path d="M1959.93 80H1968C1968 81.5253 1968 85.3811 1968 91.126C1968 96.7192 1966.44 102.768 1961.44 105.289C1955.9 108.087 1950.03 107.137 1945.63 104.712C1941.31 102.334 1940 97.1326 1940 92.2039V80H1948.3" stroke="#213859" stroke-width="4"/>
<path d="M2161 122V46H2254V122" stroke="#CDCDCD" stroke-width="4"/>
<rect x="2160" y="45" width="24" height="47.9961" fill="#CDCDCD"/>
<path d="M2173.84 31.8624L2168.21 25.4666C2167.94 25.1859 2167.57 25.019 2167.18 25C2166.79 25.0193 2166.42 25.186 2166.15 25.4666L2160.52 31.8624C2160.32 32.0826 2160.25 32.3935 2160.34 32.6759C2160.44 32.9583 2160.68 33.1683 2160.97 33.2254C2161.26 33.2825 2161.56 33.1777 2161.75 32.9514L2166.1 28.0133C2166.14 27.9679 2166.2 27.9522 2166.26 27.9737C2166.32 27.9952 2166.35 28.0495 2166.35 28.1101V38.1747C2166.35 38.6299 2166.72 38.9989 2167.18 38.9989C2167.63 38.9989 2168 38.6299 2168 38.1747V28.1101C2168 28.0493 2168.04 27.9949 2168.1 27.9735C2168.15 27.9521 2168.22 27.9682 2168.26 28.0138L2172.6 32.9514C2172.8 33.1777 2173.1 33.2825 2173.39 33.2254C2173.68 33.1683 2173.92 32.9583 2174.01 32.6759C2174.11 32.3935 2174.04 32.0826 2173.84 31.8624Z" fill="#213859"/>
<path d="M2271 122V46H2364V122" stroke="#CDCDCD" stroke-width="4"/>
<rect x="2270" y="45" width="24" height="47.9961" fill="#CDCDCD"/>
<path d="M2283.84 31.8624L2278.21 25.4666C2277.94 25.1859 2277.57 25.019 2277.18 25C2276.79 25.0193 2276.42 25.186 2276.15 25.4666L2270.52 31.8624C2270.32 32.0826 2270.25 32.3935 2270.34 32.6759C2270.44 32.9583 2270.68 33.1683 2270.97 33.2254C2271.26 33.2825 2271.56 33.1777 2271.75 32.9514L2276.1 28.0133C2276.14 27.9679 2276.2 27.9522 2276.26 27.9737C2276.32 27.9952 2276.35 28.0495 2276.35 28.1101V38.1747C2276.35 38.6299 2276.72 38.9989 2277.18 38.9989C2277.63 38.9989 2278 38.6299 2278 38.1747V28.1101C2278 28.0493 2278.04 27.9949 2278.1 27.9735C2278.15 27.9521 2278.22 27.9682 2278.26 28.0138L2282.6 32.9514C2282.8 33.1777 2283.1 33.2825 2283.39 33.2254C2283.68 33.1683 2283.92 32.9583 2284.01 32.6759C2284.11 32.3935 2284.04 32.0826 2283.84 31.8624Z" fill="#213859"/>
<path d="M2381 122V46H2474V122" stroke="#CDCDCD" stroke-width="4"/>
<rect x="2380" y="45" width="24" height="47.9961" fill="#CDCDCD"/>
<path d="M2393.84 31.8624L2388.21 25.4666C2387.94 25.1859 2387.57 25.019 2387.18 25C2386.79 25.0193 2386.42 25.186 2386.15 25.4666L2380.52 31.8624C2380.32 32.0826 2380.25 32.3935 2380.34 32.6759C2380.44 32.9583 2380.68 33.1683 2380.97 33.2254C2381.26 33.2825 2381.56 33.1777 2381.75 32.9514L2386.1 28.0133C2386.14 27.9679 2386.2 27.9522 2386.26 27.9737C2386.32 27.9952 2386.35 28.0495 2386.35 28.1101V38.1747C2386.35 38.6299 2386.72 38.9989 2387.18 38.9989C2387.63 38.9989 2388 38.6299 2388 38.1747V28.1101C2388 28.0493 2388.04 27.9949 2388.1 27.9735C2388.15 27.9521 2388.22 27.9682 2388.26 28.0138L2392.6 32.9514C2392.8 33.1777 2393.1 33.2825 2393.39 33.2254C2393.68 33.1683 2393.92 32.9583 2394.01 32.6759C2394.11 32.3935 2394.04 32.0826 2393.84 31.8624Z" fill="#213859"/>
<rect width="31" height="10.0025" transform="matrix(-0.766223 -0.642575 0.643 -0.765866 1234.03 665)" fill="#5B5B5B"/>
<rect opacity="0.7" width="31" height="10.0025" transform="matrix(-0.766223 -0.642575 0.643 -0.765866 1241.1 656.573)" fill="#2D2D2D"/>
<rect opacity="0.6" width="31" height="10.0025" transform="matrix(-0.766223 -0.642575 0.643 -0.765866 1248.18 648.147)" fill="#2D2D2D"/>
<rect opacity="0.5" width="31" height="10.0025" transform="matrix(-0.766223 -0.642575 0.643 -0.765866 1255.25 639.721)" fill="#2D2D2D"/>
<rect opacity="0.4" width="31" height="10.0025" transform="matrix(-0.766223 -0.642575 0.643 -0.765866 1262.33 631.294)" fill="#2D2D2D"/>
<rect opacity="0.3" width="31" height="10.0025" transform="matrix(-0.766223 -0.642575 0.643 -0.765866 1269.4 622.867)" fill="#2D2D2D"/>
<rect opacity="0.2" width="31" height="10.0025" transform="matrix(-0.766223 -0.642575 0.643 -0.765866 1276.48 614.441)" fill="#2D2D2D"/>
<rect opacity="0.1" width="31" height="10.0025" transform="matrix(-0.766223 -0.642575 0.643 -0.765866 1283.55 606.015)" fill="#2D2D2D"/>
<rect width="31" height="10.0025" transform="matrix(0.766223 0.642575 -0.643 0.765866 1239.03 555)" fill="#5B5B5B"/>
<rect opacity="0.7" width="31" height="10.0025" transform="matrix(0.766223 0.642575 -0.643 0.765866 1231.96 563.427)" fill="#2D2D2D"/>
<rect opacity="0.6" width="31" height="10.0025" transform="matrix(0.766223 0.642575 -0.643 0.765866 1224.88 571.853)" fill="#2D2D2D"/>
<rect opacity="0.5" width="31" height="10.0025" transform="matrix(0.766223 0.642575 -0.643 0.765866 1217.81 580.279)" fill="#2D2D2D"/>
<rect opacity="0.4" width="31" height="10.0025" transform="matrix(0.766223 0.642575 -0.643 0.765866 1210.73 588.706)" fill="#2D2D2D"/>
<rect opacity="0.3" width="31" height="10.0025" transform="matrix(0.766223 0.642575 -0.643 0.765866 1203.66 597.133)" fill="#2D2D2D"/>
<rect opacity="0.2" width="31" height="10.0025" transform="matrix(0.766223 0.642575 -0.643 0.765866 1196.58 605.559)" fill="#2D2D2D"/>
<rect opacity="0.1" width="31" height="10.0025" transform="matrix(0.766223 0.642575 -0.643 0.765866 1189.51 613.985)" fill="#2D2D2D"/>
<rect x="1259.04" y="601" width="62.0349" height="62" rx="2" fill="#2D2D2D"/>
<path d="M1304.92 624.125H1295.71C1294.98 624.126 1294.29 624.426 1293.79 624.956L1281.7 637.849C1281.54 638.025 1281.31 638.125 1281.07 638.125H1275.17C1271.78 638.125 1269.04 640.867 1269.04 644.25C1269.04 647.633 1271.78 650.375 1275.17 650.375H1285.25C1285.98 650.374 1286.67 650.074 1287.16 649.544L1299.25 636.651C1299.42 636.475 1299.65 636.375 1299.89 636.375H1304.92C1308.3 636.375 1311.04 633.633 1311.04 630.25C1311.04 626.867 1308.3 624.125 1304.92 624.125V624.125Z" fill="white"/>
<path d="M1274.96 630.047L1283.35 621.659C1283.69 621.318 1284.25 621.318 1284.59 621.659L1286.8 623.87C1287.05 624.12 1287.42 624.196 1287.75 624.06C1288.08 623.924 1288.29 623.604 1288.29 623.25V614.5C1288.29 614.017 1287.9 613.625 1287.42 613.625H1278.67C1278.31 613.624 1277.99 613.838 1277.86 614.165C1277.72 614.492 1277.8 614.869 1278.05 615.12L1280.26 617.328C1280.6 617.67 1280.6 618.224 1280.26 618.565L1271.87 626.953C1271.04 627.811 1271.05 629.175 1271.9 630.019C1272.74 630.864 1274.11 630.876 1274.96 630.047Z" fill="white"/>
<rect x="1639" y="1157" width="62" height="62" rx="2" fill="#084983"/>
<path d="M1671.75 1180.12H1668.69C1668.45 1180.12 1668.25 1180.32 1668.25 1180.56V1186.69C1668.25 1186.93 1668.45 1187.12 1668.69 1187.12H1671.75C1673.68 1187.12 1675.25 1185.56 1675.25 1183.62C1675.25 1181.69 1673.68 1180.12 1671.75 1180.12Z" fill="white"/>
<path d="M1670 1167C1681.59 1167.01 1690.99 1176.41 1691 1188C1691 1199.6 1681.6 1209 1670 1209C1658.4 1209 1649 1199.6 1649 1188C1649 1176.4 1658.4 1167 1670 1167ZM1666.5 1176.62C1665.53 1176.62 1664.75 1177.41 1664.75 1178.38V1199.38C1664.75 1200.34 1665.53 1201.12 1666.5 1201.12C1667.47 1201.12 1668.25 1200.34 1668.25 1199.38V1191.06C1668.25 1190.82 1668.45 1190.62 1668.69 1190.62H1671.75C1675.62 1190.62 1678.75 1187.49 1678.75 1183.62C1678.75 1179.76 1675.62 1176.62 1671.75 1176.62H1666.5Z" fill="white"/>
<rect x="1639" y="1227" width="62" height="62" rx="2" fill="#084983"/>
<path d="M1661.69 1275.63H1656.44C1655.95 1275.63 1655.56 1276 1655.56 1276.47V1277.31C1655.56 1278.23 1656.35 1278.99 1657.31 1278.99H1660.81C1661.78 1278.99 1662.56 1278.23 1662.56 1277.31V1276.47C1662.56 1276 1662.17 1275.63 1661.69 1275.63Z" fill="white"/>
<path d="M1686.2 1275.63H1680.95C1680.46 1275.63 1680.07 1276 1680.07 1276.47V1277.31C1680.07 1278.23 1680.85 1278.99 1681.82 1278.99H1685.32C1686.29 1278.99 1687.07 1278.23 1687.07 1277.31V1276.47C1687.07 1276 1686.68 1275.63 1686.2 1275.63Z" fill="white"/>
<path d="M1679.69 1255.47C1680.99 1255.47 1682.15 1256.26 1682.58 1257.44L1685.08 1264.29C1685.11 1264.36 1685.15 1264.42 1685.21 1264.47L1688.07 1266.87C1688.54 1267.27 1688.81 1267.84 1688.81 1268.45V1271.85C1688.81 1273.01 1687.83 1273.95 1686.62 1273.95H1656C1654.79 1273.95 1653.82 1273.01 1653.81 1271.85V1268.45C1653.82 1267.84 1654.09 1267.27 1654.56 1266.87L1657.41 1264.47C1657.47 1264.42 1657.51 1264.36 1657.54 1264.29L1660.04 1257.44C1660.47 1256.26 1661.63 1255.47 1662.93 1255.47H1679.69ZM1662.93 1257.99C1662.75 1257.99 1662.58 1258.1 1662.52 1258.27L1660.68 1263.31C1660.64 1263.44 1660.66 1263.58 1660.74 1263.69C1660.82 1263.8 1660.95 1263.87 1661.09 1263.87H1681.54C1681.68 1263.87 1681.81 1263.8 1681.89 1263.69C1681.97 1263.58 1681.99 1263.44 1681.95 1263.31L1680.11 1258.27C1680.05 1258.1 1679.89 1257.99 1679.7 1257.99H1662.93Z" fill="white"/>
<path d="M1657.56 1238.73C1661.3 1238.06 1665.01 1240.04 1666.4 1243.44C1666.46 1243.6 1666.63 1243.71 1666.81 1243.71H1685.31C1686.76 1243.71 1687.94 1244.84 1687.94 1246.23C1687.94 1247.62 1686.76 1248.75 1685.31 1248.75H1684.88C1684.63 1248.75 1684.44 1248.93 1684.44 1249.17V1249.59C1684.44 1250.98 1683.26 1252.11 1681.81 1252.11C1680.36 1252.11 1679.19 1250.98 1679.19 1249.59V1249.17C1679.19 1249.05 1679.14 1248.95 1679.06 1248.87C1678.98 1248.79 1678.87 1248.75 1678.75 1248.75H1677C1676.76 1248.75 1676.56 1248.93 1676.56 1249.17V1249.59C1676.56 1250.98 1675.39 1252.11 1673.94 1252.11C1672.49 1252.11 1671.31 1250.98 1671.31 1249.59V1249.17C1671.31 1249.05 1671.27 1248.95 1671.19 1248.87C1671.1 1248.79 1670.99 1248.75 1670.88 1248.75H1666.79C1666.61 1248.75 1666.45 1248.85 1666.38 1249.01C1664.98 1252.41 1661.26 1254.37 1657.52 1253.68C1653.78 1252.98 1651.09 1249.84 1651.1 1246.19C1651.11 1242.53 1653.82 1239.4 1657.56 1238.73ZM1659.06 1242.89C1657.13 1242.89 1655.56 1244.4 1655.56 1246.25C1655.56 1247.14 1655.93 1248 1656.59 1248.63C1657.24 1249.26 1658.13 1249.61 1659.06 1249.61C1660.99 1249.61 1662.56 1248.11 1662.56 1246.25C1662.56 1244.4 1660.99 1242.89 1659.06 1242.89Z" fill="white"/>
<rect x="1639" y="1297" width="62" height="62" rx="2" fill="#084983"/>
<path d="M1658.19 1342.37V1345C1658.19 1346.45 1659.36 1347.62 1660.81 1347.62C1662.26 1347.62 1663.44 1346.45 1663.44 1345V1342.37" stroke="white" stroke-width="2" stroke-linecap="round" stroke-linejoin="round"/>
<path d="M1681.81 1342.37V1345C1681.81 1346.45 1680.64 1347.62 1679.19 1347.62C1677.74 1347.62 1676.56 1346.45 1676.56 1345V1342.37" stroke="white" stroke-width="2" stroke-linecap="round" stroke-linejoin="round"/>
<path fill-rule="evenodd" clip-rule="evenodd" d="M1684.44 1339.75C1684.44 1341.2 1683.26 1342.37 1681.81 1342.37H1658.19C1656.74 1342.37 1655.56 1341.2 1655.56 1339.75V1316.12C1655.56 1311.77 1659.09 1308.25 1663.44 1308.25H1676.56C1678.65 1308.25 1680.65 1309.08 1682.13 1310.55C1683.61 1312.03 1684.44 1314.03 1684.44 1316.12V1339.75Z" stroke="white" stroke-width="2" stroke-linecap="round" stroke-linejoin="round"/>
<path d="M1666.06 1313.5H1673.94" stroke="white" stroke-width="1.5" stroke-linecap="round" stroke-linejoin="round"/>
<rect x="1655.56" y="1318.75" width="28.875" height="13.125" stroke="white" stroke-width="2" stroke-linecap="round" stroke-linejoin="round"/>
<path d="M1660.81 1337.12H1666.06" stroke="white" stroke-width="2" stroke-linecap="round" stroke-linejoin="round"/>
<path d="M1673.94 1337.12H1679.19" stroke="white" stroke-width="2" stroke-linecap="round" stroke-linejoin="round"/>
<path d="M1655.56 1321.37H1652.94C1651.49 1321.37 1650.31 1322.55 1650.31 1324V1331.87" stroke="white" stroke-width="2" stroke-linecap="round" stroke-linejoin="round"/>
<path d="M1684.44 1321.37H1687.06C1688.51 1321.37 1689.69 1322.55 1689.69 1324V1331.87" stroke="white" stroke-width="2" stroke-linecap="round" stroke-linejoin="round"/>
<path d="M1628.5 38.5V124.5H1576.5V38.5H1628.5Z" fill="white" stroke="#CDCDCD" stroke-width="3"/>
<path d="M907 568L907 457.276L957.516 457.276L957.516 498.278L1029 536.881L1029 568L907 568Z" fill="#B3C5D6"/>
<path d="M957.516 384L907 384L907 457.276M907 457.276L907 568L1029 568L1029 536.881L957.516 498.278L957.516 457.276L907 457.276Z" stroke="#8FA9C0" stroke-width="2"/>
<rect x="828" y="502.828" width="62" height="62" rx="2" fill="#084983"/>
<path d="M864.57 522.803C864.329 522.803 864.133 522.999 864.133 523.241V524.553C864.127 526.97 866.081 528.933 868.497 528.939C870.914 528.945 872.877 526.991 872.883 524.574V523.237C872.883 522.996 872.687 522.8 872.445 522.8L864.57 522.803Z" fill="white"/>
<path d="M861.586 521.053H872.73C873.107 521.054 873.442 520.813 873.562 520.455L874.139 518.726C874.293 518.263 874.247 517.758 874.012 517.33C873.777 516.903 873.375 516.593 872.902 516.475L864.092 514.269C863.629 514.155 863.141 514.299 862.815 514.647C862.485 514.997 862.374 515.501 862.528 515.957L863.053 517.55H861.581C860.956 517.55 860.378 517.883 860.066 518.425C859.753 518.966 859.753 519.633 860.066 520.175C860.378 520.716 860.956 521.05 861.581 521.05L861.586 521.053Z" fill="white"/>
<path d="M872.965 532.429H870.935C870.575 532.423 870.249 532.639 870.112 532.971L868.992 535.789C868.924 535.952 868.767 536.061 868.59 536.069C868.411 536.066 868.252 535.955 868.187 535.789L867.05 532.971C866.92 532.641 866.6 532.425 866.245 532.429H863.2C862.271 532.429 861.38 532.799 860.724 533.456L852.684 541.506C852.108 542.051 851.873 542.866 852.071 543.634C852.269 544.401 852.869 545.001 853.637 545.199C854.404 545.397 855.219 545.162 855.764 544.586L862.589 537.775C862.714 537.65 862.903 537.612 863.066 537.68C863.23 537.748 863.337 537.908 863.336 538.085V552.554C863.336 553.037 863.728 553.429 864.211 553.429H872.961C873.445 553.429 873.836 553.037 873.836 552.554V538.991C873.836 538.508 874.228 538.116 874.711 538.116C875.195 538.116 875.586 538.508 875.586 538.991V549.054C875.586 550.262 876.566 551.241 877.774 551.241C878.982 551.241 879.961 550.262 879.961 549.054V539.429C879.957 535.566 876.827 532.436 872.965 532.429Z" fill="white"/>
<path d="M859.035 547.304H845.035C844.552 547.304 844.16 546.912 844.16 546.429V530.679C844.16 529.712 843.377 528.929 842.41 528.929C839.994 528.929 838.035 530.887 838.035 533.304V543.804C838.035 545.883 839.498 547.675 841.535 548.091C841.535 548.145 841.535 548.047 841.535 549.054C841.535 551.47 843.494 553.429 845.91 553.429H856.41C858.826 553.429 860.785 551.47 860.785 549.054C860.785 548.087 860.002 547.304 859.035 547.304Z" fill="white"/>
<path d="M1410.92 1321V1302.27H1417.24L1421.17 1315.79L1425.07 1302.27H1431.51V1321H1427.81V1305.17L1422.91 1321H1419.4L1414.52 1305.17V1321H1410.92ZM1432.39 1321L1439.18 1302.27H1443.91L1450.43 1321H1446.36L1445.02 1316.98H1437.62L1436.16 1321H1432.39ZM1438.64 1313.9H1444.05L1441.47 1305.97L1438.64 1313.9ZM1451.3 1321V1302.27H1455.28V1321H1451.3ZM1457.82 1321V1302.27H1463.6L1470.64 1317.33V1302.27H1474.24V1321H1468.69L1461.42 1305.5V1321H1457.82ZM1343.66 1351V1332.27H1356.09V1335.37H1347.72V1339.79H1355.57V1342.84H1347.72V1347.88H1356.38V1351H1343.66ZM1358.21 1351V1332.27H1363.99L1371.03 1347.33V1332.27H1374.62V1351H1369.08L1361.8 1335.5V1351H1358.21ZM1381.21 1351V1335.32H1375.7V1332.27H1390.75V1335.32H1385.24V1351H1381.21ZM1395.76 1340.41H1398.13C1399.61 1340.41 1400.62 1340.22 1401.17 1339.84C1401.72 1339.46 1402 1338.8 1402 1337.85C1402 1336.84 1401.74 1336.14 1401.21 1335.75C1400.69 1335.36 1399.67 1335.17 1398.13 1335.17H1395.76V1340.41ZM1391.83 1351V1332.27H1399.61C1401.79 1332.27 1403.39 1332.66 1404.41 1333.42C1405.43 1334.18 1405.95 1335.37 1405.95 1336.98C1405.95 1338.31 1405.66 1339.34 1405.08 1340.07C1404.51 1340.8 1403.58 1341.31 1402.32 1341.62C1403.34 1341.73 1404.08 1342.04 1404.55 1342.56C1405.02 1343.07 1405.34 1343.93 1405.49 1345.15L1405.82 1347.85C1405.92 1348.6 1406.05 1349.24 1406.2 1349.74C1406.35 1350.25 1406.55 1350.67 1406.78 1351H1402.44C1402.31 1350.74 1402.2 1350.44 1402.11 1350.1C1402.04 1349.76 1401.97 1349.3 1401.92 1348.71L1401.66 1345.88C1401.55 1344.74 1401.37 1344.05 1401.11 1343.81C1400.86 1343.58 1400.22 1343.46 1399.22 1343.46H1395.76V1351H1391.83ZM1406.21 1351L1413.01 1332.27H1417.73L1424.25 1351H1420.18L1418.85 1346.98H1411.44L1409.98 1351H1406.21ZM1412.46 1343.9H1417.87L1415.29 1335.97L1412.46 1343.9ZM1425.12 1351V1332.27H1430.89L1437.94 1347.33V1332.27H1441.53V1351H1435.99L1428.71 1335.5V1351H1425.12ZM1459.54 1345.39C1459.4 1347.32 1458.68 1348.79 1457.38 1349.81C1456.07 1350.81 1454.25 1351.32 1451.89 1351.32C1449.1 1351.32 1446.98 1350.5 1445.55 1348.88C1444.11 1347.25 1443.39 1344.87 1443.39 1341.72C1443.39 1338.58 1444.13 1336.17 1445.61 1334.5C1447.09 1332.81 1449.21 1331.97 1451.97 1331.97C1454.22 1331.97 1456 1332.48 1457.31 1333.49C1458.63 1334.5 1459.34 1335.9 1459.43 1337.68H1455.74C1455.7 1336.79 1455.35 1336.07 1454.7 1335.54C1454.05 1335 1453.19 1334.72 1452.12 1334.72C1450.56 1334.72 1449.39 1335.31 1448.59 1336.48C1447.81 1337.64 1447.41 1339.36 1447.41 1341.64C1447.41 1344 1447.8 1345.74 1448.58 1346.89C1449.36 1348.02 1450.55 1348.59 1452.15 1348.59C1453.18 1348.59 1454.02 1348.3 1454.67 1347.71C1455.33 1347.13 1455.7 1346.35 1455.77 1345.39H1459.54ZM1461.2 1351V1332.27H1473.63V1335.37H1465.26V1339.79H1473.11V1342.84H1465.26V1347.88H1473.92V1351H1461.2Z" fill="#5B5B5B"/>
<path d="M1717.16 699.711C1717.2 718.826 1733.36 734.618 1753.18 734.777C1772.8 734.934 1788.62 719.397 1788.38 700.28C1788.14 681.429 1771.98 665.902 1752.55 665.746C1733.13 665.591 1717.11 680.596 1717.16 699.711ZM1717.16 699.711C1704.7 736.248 1677.42 761.25 1635.32 774.453M1614.62 835.348C1653.85 886.635 1622.16 1006.03 1561.99 1027.99M1764.5 962.651C1718.02 984.845 1623.53 1047.38 1635.27 1100.57M1865.3 847.707C1821.93 849.219 1798.18 873.984 1792.12 920.13M1902.01 698.8C1925.93 701.911 1940.17 712.91 1943.15 732.58M1969.55 768.631C1930.9 767.26 1909.97 784.083 1904.6 817.491M1738.88 584.665C1758.66 613.23 1758.04 641.631 1735.05 670.651M1757.64 594.372C1809.72 608.329 1846.4 635.436 1869.04 675.439M2006.7 760.698C2036.25 746.333 2068.24 745.527 2103.24 761.47M2154.25 761.878C2183.21 747.508 2215.4 746.704 2250.6 762.649M2302.2 763.061C2330.77 748.688 2362.76 748.148 2398.74 763.834M2458.57 741.481C2458.16 718.911 2468.67 706.252 2490.47 703.772M2519.3 681.436C2540.26 636.738 2573.44 610.189 2619.81 601.799M1755.48 888.775C1775.89 888.938 1792.43 905.531 1792.86 926.242C1793.08 947.216 1776.66 964.076 1756.06 963.911C1735.26 963.745 1718.52 946.62 1718.49 925.647C1718.46 905.204 1735.07 888.612 1755.48 888.775ZM1866.86 775.774C1886.68 775.933 1903.43 791.995 1904.25 811.913C1904.87 831.829 1889.24 847.899 1869.03 847.737C1848.82 847.575 1831.88 831.246 1831.45 811.331C1831.02 791.416 1847.04 775.616 1866.86 775.774ZM1977.94 699.938C1997.76 700.097 2014.71 715.896 2015.93 735.285C2017.14 754.941 2001.71 771.012 1981.5 770.85C1961.29 770.689 1944.15 754.623 1943.33 734.705C1942.5 715.318 1957.93 699.778 1977.94 699.938ZM2123.93 701.106C2143.75 701.264 2161.68 717.071 2163.29 736.464C2164.9 756.123 2149.85 772.197 2129.45 772.034C2109.24 771.872 2091.7 755.803 2090.29 735.88C2089.08 716.49 2104.12 700.682 2123.93 701.106ZM2270.11 702.275C2290.13 702.435 2308.05 718.242 2310.25 737.64C2312.45 757.303 2298 773.382 2277.59 773.218C2257.38 773.057 2239.46 756.984 2237.46 737.057C2235.65 717.663 2250.1 702.115 2270.11 702.275ZM2416.3 703.444C2436.11 703.603 2454.63 719.414 2457.42 738.817C2460.2 758.485 2446.14 774.567 2425.74 774.403C2405.72 774.243 2387.01 758.165 2384.62 738.234C2382.03 718.833 2396.28 703.284 2416.3 703.444ZM1901.98 629.509C1921.8 629.667 1938.35 644.932 1939.18 664.053C1940.01 683.175 1924.58 698.715 1904.57 698.555C1884.55 698.395 1868 682.599 1867.37 663.479C1866.73 644.359 1882.16 629.35 1901.98 629.509ZM2045.8 630.924C2065.62 631.083 2082.77 646.353 2083.99 665.477C2085.41 684.603 2070.37 700.146 2050.35 699.986C2030.54 699.828 2013.39 684.027 2012.17 664.903C2011.15 645.78 2026.18 630.767 2045.8 630.924ZM2190.42 632.081C2210.04 632.238 2227.38 647.509 2229.19 666.638C2231 685.768 2216.55 701.315 2196.73 701.157C2176.91 700.998 2159.58 685.196 2157.77 666.067C2156.35 646.941 2170.99 631.926 2190.42 632.081ZM2334.44 633.233C2354.06 633.39 2371.99 648.666 2374.39 667.8C2376.79 686.934 2362.73 702.485 2342.91 702.326C2322.9 702.166 2304.97 686.359 2302.77 667.227C2300.77 648.096 2314.82 633.076 2334.44 633.233ZM2478.86 634.388C2498.48 634.545 2516.8 650.089 2519.79 668.963C2522.77 688.101 2508.91 703.654 2489.1 703.495C2469.08 703.335 2450.76 687.525 2448.17 668.39C2445.38 649.253 2459.23 634.231 2478.86 634.388ZM1763.66 528.581C1782.89 528.735 1798.86 543.464 1799.11 561.784C1799.35 580.105 1783.93 594.848 1764.31 594.691C1744.88 594.536 1729.11 579.543 1729.06 561.224C1728.81 542.904 1744.23 528.426 1763.66 528.581ZM1898.26 529.657C1917.69 529.813 1933.86 544.544 1934.69 562.869C1935.53 581.194 1920.3 596.204 1900.68 596.047C1881.06 595.625 1864.89 580.629 1864.05 562.304C1863.61 543.982 1878.84 529.502 1898.26 529.657ZM2039.54 530.787C2058.77 530.941 2075.72 545.678 2076.95 564.006C2078.18 582.335 2063.54 597.085 2043.72 596.926C2024.3 596.771 2007.54 581.77 2006.31 563.442C2005.28 545.115 2020.11 530.632 2039.54 530.787ZM2181.21 531.921C2200.44 532.074 2217.39 546.811 2219.21 565.144C2221.02 583.477 2206.78 598.23 2187.35 598.075C2167.93 597.919 2150.78 582.915 2149.36 564.586C2147.73 546.52 2162.18 531.768 2181.21 531.921ZM2322.48 533.316C2341.71 533.47 2359.06 548.21 2361.46 566.548C2364.07 584.887 2349.82 599.64 2330.59 599.486C2310.97 599.329 2293.43 584.056 2291.41 565.987C2289.21 547.651 2303.26 533.162 2322.48 533.316ZM2463.76 534.446C2482.99 534.6 2501.12 549.346 2503.92 567.687C2506.72 586.028 2493.06 600.785 2473.63 600.63C2454.01 600.473 2436.08 585.463 2433.48 567.123C2431.07 548.786 2444.73 534.294 2463.76 534.446ZM2607.98 535.599C2627.41 535.755 2645.73 550.503 2649.12 568.848C2652.51 587.194 2639.44 601.956 2619.62 601.798C2600.19 601.642 2581.87 586.629 2578.68 568.285C2575.68 549.943 2588.56 535.444 2607.98 535.599ZM1641.21 773.969C1661.22 774.129 1677.19 790.186 1677.03 810.096C1676.87 830.006 1660.45 846.069 1640.24 845.907C1619.84 845.744 1603.88 829.422 1604.23 809.514C1604.59 789.605 1621.2 773.809 1641.21 773.969Z" stroke="#CDCDCD" stroke-width="0.4998" stroke-miterlimit="22.9256"/>
<rect x="1712" y="934" width="62" height="62" rx="2" fill="#084983"/>
<path d="M1758.75 971.125V958" stroke="white" stroke-width="1.5" stroke-linecap="round" stroke-linejoin="round"/>
<path d="M1729.88 971.125V958" stroke="white" stroke-width="1.5" stroke-linecap="round" stroke-linejoin="round"/>
<path d="M1727.25 958H1732.5" stroke="white" stroke-width="1.5" stroke-linecap="round" stroke-linejoin="round"/>
<path d="M1737.75 971.125V960.625C1737.75 959.175 1738.93 958 1740.38 958C1741.82 958 1743 959.175 1743 960.625V971.125" stroke="white" stroke-width="1.5" stroke-linecap="round" stroke-linejoin="round"/>
<path d="M1737.75 965.875H1743" stroke="white" stroke-width="1.5" stroke-linecap="round" stroke-linejoin="round"/>
<path d="M1748.25 958L1753.5 971.125" stroke="white" stroke-width="1.5" stroke-linecap="round" stroke-linejoin="round"/>
<path d="M1753.5 958L1748.25 971.125" stroke="white" stroke-width="1.5" stroke-linecap="round" stroke-linejoin="round"/>
<path d="M1723.31 951.438H1762.69" stroke="white" stroke-width="1.5" stroke-linecap="round" stroke-linejoin="round"/>
<path d="M1723.31 977.688H1762.69" stroke="white" stroke-width="1.5" stroke-linecap="round" stroke-linejoin="round"/>
<mask id="path-275-inside-1_821_36253" fill="white">
<path d="M1490 1149H1628V1353H1490V1149Z"/>
</mask>
<path d="M1490 1149H1628V1353H1490V1149Z" fill="white"/>
<path d="M1628 1149H1624V1353H1628H1632V1149H1628ZM1490 1353H1494V1149H1490H1486V1353H1490Z" fill="#CDCDCD" mask="url(#path-275-inside-1_821_36253)"/>
<path d="M1516.59 1017.97L1458.33 1074.24L1359.68 972.095L1417.95 915.828L1516.59 1017.97Z" fill="white" stroke="#CDCDCD" stroke-width="4"/>
<path d="M1476 1066V1147H1339V1066H1476Z" fill="white" stroke="#CDCDCD" stroke-width="4"/>
<path d="M1507.77 1020.36C1518.15 1010.08 1534.66 1009.53 1545.69 1018.99L1546.21 1019.45L1668.44 1129.57C1675.24 1135.7 1670.91 1147 1661.74 1147H1470.99C1461.05 1147 1452.99 1138.94 1452.99 1129L1452.99 1086.27C1453 1079.03 1455.8 1072.08 1460.8 1066.87L1461.3 1066.37L1507.77 1020.36Z" fill="white" stroke="#CDCDCD" stroke-width="4"/>
<rect x="1498" y="1157" width="26" height="188" fill="#EDEDED"/>
<rect x="1594" y="1157" width="26" height="188" fill="#EDEDED"/>
<rect x="1528" y="1214" width="62" height="62" rx="2" fill="#2D2D2D"/>
<ellipse cx="1567.59" cy="1228.74" rx="4.27875" ry="4.27875" fill="white"/>
<path d="M1578.29 1245.86C1578.9 1245.86 1579.46 1245.53 1579.77 1245C1580.08 1244.47 1580.08 1243.82 1579.77 1243.29C1579.46 1242.76 1578.9 1242.43 1578.29 1242.43H1574.44C1573.49 1242.43 1572.73 1243.2 1572.73 1244.14C1572.73 1245.09 1573.49 1245.86 1574.44 1245.86H1578.29Z" fill="white"/>
<path d="M1553.09 1244.35V1244.31C1553.14 1243.83 1552.99 1243.35 1552.67 1242.99C1552.35 1242.63 1551.89 1242.43 1551.41 1242.43H1539.71C1538.77 1242.43 1538 1243.2 1538 1244.14C1538 1245.09 1538.77 1245.86 1539.71 1245.86H1551.41C1552.27 1245.85 1552.99 1245.2 1553.09 1244.35Z" fill="white"/>
<path d="M1553.83 1254.42H1553.4C1553.16 1254.42 1552.97 1254.61 1552.97 1254.84V1265.11C1552.97 1265.35 1553.16 1265.54 1553.4 1265.54H1553.83C1554.77 1265.54 1555.54 1264.77 1555.54 1263.83V1256.13C1555.54 1255.18 1554.78 1254.42 1553.83 1254.42V1254.42Z" fill="white"/>
<path d="M1540.14 1254.42C1539.19 1254.42 1538.43 1255.18 1538.43 1256.13V1263.83C1538.43 1264.77 1539.19 1265.54 1540.14 1265.54H1540.57C1540.8 1265.54 1540.99 1265.35 1541 1265.11V1254.84C1540.99 1254.61 1540.8 1254.42 1540.57 1254.42H1540.14Z" fill="white"/>
<path d="M1546.99 1249.42C1549.35 1249.42 1551.26 1251.34 1551.26 1253.7L1551.26 1265.11C1551.26 1265.35 1551.07 1265.54 1550.83 1265.54H1543.13C1542.9 1265.54 1542.71 1265.35 1542.71 1265.11V1253.7C1542.71 1251.34 1544.62 1249.42 1546.99 1249.42ZM1547.84 1252.22C1547.31 1251.91 1546.66 1251.91 1546.13 1252.22C1545.6 1252.52 1545.27 1253.09 1545.27 1253.7V1253.99C1545.27 1254.22 1545.46 1254.41 1545.7 1254.42H1548.27C1548.51 1254.41 1548.7 1254.22 1548.7 1253.99L1548.7 1253.7C1548.7 1253.09 1548.37 1252.52 1547.84 1252.22Z" fill="white"/>
<path d="M1570.16 1238.15C1570.16 1237.19 1569.62 1236.3 1568.76 1235.87C1567.9 1235.43 1566.86 1235.51 1566.08 1236.07L1556.67 1242.92C1555.9 1243.45 1555.49 1244.36 1555.58 1245.28C1555.68 1246.2 1556.26 1247.01 1557.11 1247.38C1557.96 1247.75 1558.95 1247.63 1559.69 1247.07L1564.34 1243.69C1564.47 1243.59 1564.65 1243.58 1564.79 1243.65C1564.93 1243.73 1565.02 1243.88 1565.02 1244.04V1261.69C1565.02 1261.93 1564.83 1262.12 1564.59 1262.12H1558.97C1558.02 1262.12 1557.26 1262.88 1557.26 1263.83C1557.26 1264.77 1558.02 1265.54 1558.97 1265.54H1578.29C1579.23 1265.54 1580 1264.77 1580 1263.83C1580 1262.88 1579.23 1262.12 1578.29 1262.12H1570.59C1570.35 1262.12 1570.16 1261.93 1570.16 1261.69L1570.16 1238.15Z" fill="white"/>
<path d="M101 333L101 293" stroke="#CDCDCD" stroke-width="4"/>
<path d="M101 425L101 385" stroke="#CDCDCD" stroke-width="4"/>
<path d="M101 517L101 477" stroke="#CDCDCD" stroke-width="4"/>
<path d="M101 609L101 569" stroke="#CDCDCD" stroke-width="4"/>
<path d="M101 701L101 661" stroke="#CDCDCD" stroke-width="4"/>
<path d="M101 793L101 753" stroke="#CDCDCD" stroke-width="4"/>
<path d="M101 885L101 845" stroke="#CDCDCD" stroke-width="4"/>
<path d="M101 977L101 937" stroke="#CDCDCD" stroke-width="4"/>
<path d="M101 1069L101 1029" stroke="#CDCDCD" stroke-width="4"/>
<path d="M101 1161L101 1121" stroke="#CDCDCD" stroke-width="4"/>
<rect x="1639" y="934" width="62" height="62" rx="2" fill="#084983"/>
<path d="M1658.19 979.373V981.998C1658.19 983.448 1659.36 984.623 1660.81 984.623C1662.26 984.623 1663.44 983.448 1663.44 981.998V979.373" stroke="white" stroke-width="2" stroke-linecap="round" stroke-linejoin="round"/>
<path d="M1681.81 979.373V981.998C1681.81 983.448 1680.64 984.623 1679.19 984.623C1677.74 984.623 1676.56 983.448 1676.56 981.998V979.373" stroke="white" stroke-width="2" stroke-linecap="round" stroke-linejoin="round"/>
<path fill-rule="evenodd" clip-rule="evenodd" d="M1684.44 976.748C1684.44 978.198 1683.26 979.373 1681.81 979.373H1658.19C1656.74 979.373 1655.56 978.198 1655.56 976.748V953.123C1655.56 948.774 1659.09 945.248 1663.44 945.248H1676.56C1678.65 945.248 1680.65 946.078 1682.13 947.555C1683.61 949.031 1684.44 951.034 1684.44 953.123V976.748Z" stroke="white" stroke-width="2" stroke-linecap="round" stroke-linejoin="round"/>
<path d="M1666.06 950.498H1673.94" stroke="white" stroke-width="1.5" stroke-linecap="round" stroke-linejoin="round"/>
<rect x="1655.56" y="955.748" width="28.875" height="13.125" stroke="white" stroke-width="2" stroke-linecap="round" stroke-linejoin="round"/>
<path d="M1660.81 974.123H1666.06" stroke="white" stroke-width="2" stroke-linecap="round" stroke-linejoin="round"/>
<path d="M1673.94 974.123H1679.19" stroke="white" stroke-width="2" stroke-linecap="round" stroke-linejoin="round"/>
<path d="M1655.56 958.373H1652.94C1651.49 958.373 1650.31 959.548 1650.31 960.998V968.873" stroke="white" stroke-width="2" stroke-linecap="round" stroke-linejoin="round"/>
<path d="M1684.44 958.373H1687.06C1688.51 958.373 1689.69 959.548 1689.69 960.998V968.873" stroke="white" stroke-width="2" stroke-linecap="round" stroke-linejoin="round"/>
<rect x="70" y="797" width="62" height="62" rx="2" fill="#084983"/>
<path d="M89.1875 842.373V844.998C89.1875 846.448 90.3628 847.623 91.8125 847.623C93.2622 847.623 94.4375 846.448 94.4375 844.998V842.373" stroke="white" stroke-width="2" stroke-linecap="round" stroke-linejoin="round"/>
<path d="M112.812 842.373V844.998C112.812 846.448 111.637 847.623 110.188 847.623C108.738 847.623 107.562 846.448 107.562 844.998V842.373" stroke="white" stroke-width="2" stroke-linecap="round" stroke-linejoin="round"/>
<path fill-rule="evenodd" clip-rule="evenodd" d="M115.438 839.748C115.438 841.198 114.262 842.373 112.812 842.373H89.1875C87.7378 842.373 86.5625 841.198 86.5625 839.748V816.123C86.5625 811.774 90.0883 808.248 94.4375 808.248H107.562C109.651 808.248 111.654 809.078 113.131 810.555C114.608 812.031 115.438 814.034 115.438 816.123V839.748Z" stroke="white" stroke-width="2" stroke-linecap="round" stroke-linejoin="round"/>
<path d="M97.0625 813.498H104.938" stroke="white" stroke-width="1.5" stroke-linecap="round" stroke-linejoin="round"/>
<rect x="86.5625" y="818.748" width="28.875" height="13.125" stroke="white" stroke-width="2" stroke-linecap="round" stroke-linejoin="round"/>
<path d="M91.8125 837.123H97.0625" stroke="white" stroke-width="2" stroke-linecap="round" stroke-linejoin="round"/>
<path d="M104.938 837.123H110.188" stroke="white" stroke-width="2" stroke-linecap="round" stroke-linejoin="round"/>
<path d="M86.5625 821.373H83.9375C82.4878 821.373 81.3125 822.548 81.3125 823.998V831.873" stroke="white" stroke-width="2" stroke-linecap="round" stroke-linejoin="round"/>
<path d="M115.438 821.373H118.062C119.512 821.373 120.688 822.548 120.688 823.998V831.873" stroke="white" stroke-width="2" stroke-linecap="round" stroke-linejoin="round"/>
<path d="M470.5 1223L489.5 1266" stroke="white" stroke-width="5"/>
<path d="M1429.53 46.8955C1437.07 35.0102 1454.26 34.8248 1462.1 46.3389L1462.47 46.8955L1493.65 96.0557C1501.88 109.039 1492.55 126 1477.18 126H1414.82C1399.69 126 1390.41 109.564 1397.98 96.667L1398.35 96.0557L1429.53 46.8955Z" fill="white" stroke="#CDCDCD"/>
<rect x="913" y="459" width="62" height="62" rx="2" fill="#2D2D2D"/>
<path d="M931.75 475.72H932.625C933.108 475.72 933.5 476.096 933.5 476.56V477.4C933.5 478.328 934.283 479.08 935.25 479.08C936.216 479.08 937 478.328 937 477.4V476.56C937 476.096 937.391 475.72 937.875 475.72H938.75C939.104 475.721 939.424 475.516 939.56 475.202C939.695 474.888 939.62 474.526 939.369 474.285L935.869 470.925C935.705 470.768 935.482 470.679 935.25 470.679C935.017 470.679 934.794 470.768 934.63 470.925L931.13 474.285C930.879 474.526 930.804 474.888 930.94 475.202C931.075 475.516 931.395 475.721 931.75 475.72Z" fill="white"/>
<path d="M952.13 478.835C952.294 478.993 952.517 479.082 952.75 479.082C952.982 479.082 953.205 478.993 953.369 478.835L956.869 475.475C957.12 475.235 957.195 474.873 957.06 474.559C956.924 474.245 956.604 474.04 956.25 474.041H955.375C954.891 474.041 954.5 473.665 954.5 473.201V472.361C954.5 471.433 953.716 470.681 952.75 470.681C951.783 470.681 951 471.433 951 472.361V473.201C951 473.665 950.608 474.041 950.125 474.041H949.25C948.895 474.04 948.575 474.245 948.44 474.559C948.304 474.873 948.379 475.235 948.63 475.475L952.13 478.835Z" fill="white"/>
<path d="M958 480.76C959.45 480.76 960.625 481.888 960.625 483.279V508.479C960.625 509.871 959.45 511 958 511H930C928.55 511 927.375 509.871 927.375 508.479V483.279C927.375 481.888 928.55 480.76 930 480.76H958ZM936.125 492.52C933.226 492.52 930.875 494.776 930.875 497.56V500.08C930.875 500.544 931.267 500.92 931.75 500.92H932.378C932.822 500.917 933.198 501.233 933.253 501.655L933.938 506.905C933.993 507.327 934.369 507.643 934.812 507.64H937.424C937.867 507.643 938.243 507.327 938.299 506.905L938.982 501.655C939.038 501.233 939.414 500.917 939.857 500.92H940.5C940.983 500.92 941.375 500.544 941.375 500.08V497.56C941.375 494.776 939.024 492.52 936.125 492.52ZM951.875 492.52C948.976 492.52 946.625 494.776 946.625 497.56V500.08C946.625 500.544 947.017 500.92 947.5 500.92H948.114C948.558 500.917 948.934 501.233 948.989 501.655L949.674 506.905C949.73 507.327 950.106 507.643 950.549 507.64H953.174C953.617 507.643 953.993 507.327 954.049 506.905L954.732 501.655C954.788 501.233 955.164 500.917 955.607 500.92H956.25C956.733 500.92 957.125 500.544 957.125 500.08V497.56C957.125 494.776 954.774 492.52 951.875 492.52ZM936.125 483.279C933.952 483.282 932.191 484.973 932.188 487.06C932.188 489.147 933.95 490.84 936.125 490.84C938.3 490.84 940.062 489.147 940.062 487.06C940.062 484.972 938.3 483.279 936.125 483.279ZM951.875 483.279C949.702 483.282 947.941 484.973 947.938 487.06C947.938 489.147 949.7 490.84 951.875 490.84C954.05 490.84 955.812 489.147 955.812 487.06C955.812 484.972 954.05 483.279 951.875 483.279Z" fill="white"/>
<rect x="1722" y="397" width="62" height="62" rx="2" fill="#2D2D2D"/>
<path d="M1740.75 413.72H1741.62C1742.11 413.72 1742.5 414.096 1742.5 414.56V415.4C1742.5 416.328 1743.28 417.08 1744.25 417.08C1745.22 417.08 1746 416.328 1746 415.4V414.56C1746 414.096 1746.39 413.72 1746.87 413.72H1747.75C1748.1 413.721 1748.42 413.516 1748.56 413.202C1748.7 412.888 1748.62 412.526 1748.37 412.285L1744.87 408.925C1744.7 408.768 1744.48 408.679 1744.25 408.679C1744.02 408.679 1743.79 408.768 1743.63 408.925L1740.13 412.285C1739.88 412.526 1739.8 412.888 1739.94 413.202C1740.08 413.516 1740.4 413.721 1740.75 413.72Z" fill="white"/>
<path d="M1761.13 416.835C1761.29 416.993 1761.52 417.082 1761.75 417.082C1761.98 417.082 1762.2 416.993 1762.37 416.835L1765.87 413.475C1766.12 413.235 1766.2 412.873 1766.06 412.559C1765.92 412.245 1765.6 412.04 1765.25 412.041H1764.37C1763.89 412.041 1763.5 411.665 1763.5 411.201V410.361C1763.5 409.433 1762.72 408.681 1761.75 408.681C1760.78 408.681 1760 409.433 1760 410.361V411.201C1760 411.665 1759.61 412.041 1759.12 412.041H1758.25C1757.9 412.04 1757.58 412.245 1757.44 412.559C1757.3 412.873 1757.38 413.235 1757.63 413.475L1761.13 416.835Z" fill="white"/>
<path d="M1767 418.76C1768.45 418.76 1769.62 419.888 1769.62 421.279V446.479C1769.62 447.871 1768.45 449 1767 449H1739C1737.55 449 1736.38 447.871 1736.38 446.479V421.279C1736.38 419.888 1737.55 418.76 1739 418.76H1767ZM1745.12 430.52C1742.23 430.52 1739.88 432.776 1739.88 435.56V438.08C1739.88 438.544 1740.27 438.92 1740.75 438.92H1741.38C1741.82 438.917 1742.2 439.233 1742.25 439.655L1742.94 444.905C1742.99 445.327 1743.37 445.643 1743.81 445.64H1746.42C1746.87 445.643 1747.24 445.327 1747.3 444.905L1747.98 439.655C1748.04 439.233 1748.41 438.917 1748.86 438.92H1749.5C1749.98 438.92 1750.37 438.544 1750.38 438.08V435.56C1750.37 432.776 1748.02 430.52 1745.12 430.52ZM1760.88 430.52C1757.98 430.52 1755.63 432.776 1755.62 435.56V438.08C1755.63 438.544 1756.02 438.92 1756.5 438.92H1757.11C1757.56 438.917 1757.93 439.233 1757.99 439.655L1758.67 444.905C1758.73 445.327 1759.11 445.643 1759.55 445.64H1762.17C1762.62 445.643 1762.99 445.327 1763.05 444.905L1763.73 439.655C1763.79 439.233 1764.16 438.917 1764.61 438.92H1765.25C1765.73 438.92 1766.12 438.544 1766.12 438.08V435.56C1766.12 432.776 1763.77 430.52 1760.88 430.52ZM1745.12 421.279C1742.95 421.282 1741.19 422.973 1741.19 425.06C1741.19 427.147 1742.95 428.84 1745.12 428.84C1747.3 428.84 1749.06 427.147 1749.06 425.06C1749.06 422.972 1747.3 421.279 1745.12 421.279ZM1760.88 421.279C1758.7 421.282 1756.94 422.973 1756.94 425.06C1756.94 427.147 1758.7 428.84 1760.88 428.84C1763.05 428.84 1764.81 427.147 1764.81 425.06C1764.81 422.972 1763.05 421.279 1760.88 421.279Z" fill="white"/>
<path d="M726 374H288.5L288 222.71L478.199 126H725.001L726 374Z" fill="#F3F8FC" stroke="#DDE5ED"/>
<rect x="331" y="263" width="62" height="62" rx="2" fill="#084983"/>
<path d="M361.475 282.753C361.233 282.753 361.038 282.949 361.038 283.19V284.503C361.034 286.919 362.989 288.881 365.406 288.885C367.822 288.889 369.784 286.933 369.788 284.517V283.19C369.788 282.949 369.592 282.753 369.35 282.753H361.475Z" fill="white"/>
<path d="M356.75 279.253C356.75 280.22 357.534 281.003 358.5 281.003H369.644C370.021 281.004 370.356 280.762 370.475 280.405L371.053 278.676C371.207 278.213 371.161 277.707 370.926 277.28C370.691 276.853 370.289 276.543 369.816 276.425L361.003 274.225C360.54 274.112 360.052 274.257 359.725 274.603C359.395 274.954 359.285 275.458 359.438 275.914L359.963 277.507H358.5C357.535 277.507 356.752 278.288 356.75 279.253Z" fill="white"/>
<path d="M383 312.066C383 311.099 382.216 310.316 381.25 310.316H371.625C371.142 310.316 370.75 309.924 370.75 309.441V298.941C370.75 298.457 371.142 298.066 371.625 298.066C372.108 298.066 372.5 298.457 372.5 298.941V306.378C372.5 307.586 373.479 308.566 374.688 308.566C375.896 308.566 376.875 307.586 376.875 306.378V299.378C376.87 295.514 373.739 292.383 369.875 292.378H367.845C367.485 292.373 367.159 292.588 367.022 292.921L365.903 295.738C365.834 295.901 365.677 296.01 365.5 296.018C365.321 296.015 365.162 295.905 365.097 295.738L363.96 292.921C363.83 292.59 363.51 292.374 363.155 292.378H360.108C359.177 292.376 358.283 292.746 357.625 293.405L347.835 303.205C347.025 304.062 347.044 305.409 347.878 306.243C348.712 307.077 350.058 307.095 350.915 306.285L359.49 297.724C359.616 297.599 359.804 297.561 359.968 297.629C360.131 297.697 360.238 297.857 360.238 298.034V309.435C360.238 309.919 359.846 310.31 359.363 310.31H342.75C341.784 310.31 341 311.094 341 312.06C341 313.027 341.784 313.81 342.75 313.81H381.25C382.214 313.81 382.997 313.03 383 312.066Z" fill="white"/>
<rect x="552" y="183" width="62" height="62" rx="2" fill="#084983"/>
<path d="M582.475 202.753C582.233 202.753 582.038 202.949 582.038 203.19V204.503C582.034 206.919 583.989 208.881 586.406 208.885C588.822 208.889 590.784 206.933 590.788 204.517V203.19C590.788 202.949 590.592 202.753 590.35 202.753H582.475Z" fill="white"/>
<path d="M577.75 199.253C577.75 200.22 578.534 201.003 579.5 201.003H590.644C591.021 201.004 591.356 200.762 591.475 200.405L592.053 198.676C592.207 198.213 592.161 197.707 591.926 197.28C591.691 196.853 591.289 196.543 590.816 196.425L582.003 194.225C581.54 194.112 581.052 194.257 580.725 194.603C580.395 194.954 580.285 195.458 580.438 195.914L580.963 197.507H579.5C578.535 197.507 577.752 198.288 577.75 199.253Z" fill="white"/>
<path d="M604 232.066C604 231.099 603.216 230.316 602.25 230.316H592.625C592.142 230.316 591.75 229.924 591.75 229.441V218.941C591.75 218.457 592.142 218.066 592.625 218.066C593.108 218.066 593.5 218.457 593.5 218.941V226.378C593.5 227.586 594.479 228.566 595.688 228.566C596.896 228.566 597.875 227.586 597.875 226.378V219.378C597.87 215.514 594.739 212.383 590.875 212.378H588.845C588.485 212.373 588.159 212.588 588.022 212.921L586.903 215.738C586.834 215.901 586.677 216.01 586.5 216.018C586.321 216.015 586.162 215.905 586.097 215.738L584.96 212.921C584.83 212.59 584.51 212.374 584.155 212.378H581.108C580.177 212.376 579.283 212.746 578.625 213.405L568.835 223.205C568.025 224.062 568.044 225.409 568.878 226.243C569.712 227.077 571.058 227.095 571.915 226.285L580.49 217.724C580.616 217.599 580.804 217.561 580.968 217.629C581.131 217.697 581.238 217.857 581.238 218.034V229.435C581.238 229.919 580.846 230.31 580.363 230.31H563.75C562.784 230.31 562 231.094 562 232.06C562 233.027 562.784 233.81 563.75 233.81H602.25C603.214 233.81 603.997 233.03 604 232.066Z" fill="white"/>
<path d="M388 169L436 207.384V376H419.219" stroke="#CDCDCD" stroke-width="2"/>
<path d="M466 287H498V311C498 311.552 497.552 312 497 312H467C466.448 312 466 311.552 466 311V287Z" fill="#B3C5D6"/>
<path d="M470 287H494V307C494 307.552 493.552 308 493 308H471C470.448 308 470 307.552 470 307V287Z" fill="white"/>
<path d="M508 287H540V311C540 311.552 539.552 312 539 312H509C508.448 312 508 311.552 508 311V287Z" fill="#B3C5D6"/>
<path d="M512 287H536V307C536 307.552 535.552 308 535 308H513C512.448 308 512 307.552 512 307V287Z" fill="white"/>
<path d="M549 287H581V311C581 311.552 580.552 312 580 312H550C549.448 312 549 311.552 549 311V287Z" fill="#B3C5D6"/>
<path d="M553 287H577V307C577 307.552 576.552 308 576 308H554C553.448 308 553 307.552 553 307V287Z" fill="white"/>
<path d="M591 287H623V311C623 311.552 622.552 312 622 312H592C591.448 312 591 311.552 591 311V287Z" fill="#B3C5D6"/>
<path d="M595 287H619V307C619 307.552 618.552 308 618 308H596C595.448 308 595 307.552 595 307V287Z" fill="white"/>
<path d="M633 287H665V311C665 311.552 664.552 312 664 312H634C633.448 312 633 311.552 633 311V287Z" fill="#B3C5D6"/>
<path d="M637 287H661V307C661 307.552 660.552 308 660 308H638C637.448 308 637 307.552 637 307V287Z" fill="white"/>
<path d="M438 333H562V403H438C437.448 403 437 402.552 437 402V334C437 333.448 437.448 333 438 333Z" fill="#B3C5D6" stroke="#8FA9C0" stroke-width="2"/>
<rect x="549" y="353" width="62" height="62" rx="2" fill="#2D2D2D"/>
<path d="M601 375.25C601 374.284 600.216 373.5 599.25 373.5H587.875C586.425 373.5 585.25 374.675 585.25 376.125V379.625C585.25 380.108 584.858 380.5 584.375 380.5H580.875C579.425 380.5 578.25 381.675 578.25 383.125V386.625C578.25 387.108 577.858 387.5 577.375 387.5H573.875C572.425 387.5 571.25 388.675 571.25 390.125V393.625C571.25 394.108 570.858 394.5 570.375 394.5H566.875C565.425 394.5 564.25 395.675 564.25 397.125V403.25C564.25 404.216 565.034 405 566 405H599.25C600.216 405 601 404.216 601 403.25V375.25Z" fill="white"/>
<path d="M579.825 373.245C580.076 373.49 580.449 373.562 580.774 373.427C581.098 373.292 581.31 372.976 581.312 372.625V363.875C581.312 363.392 580.921 363 580.437 363H571.687C571.334 363.002 571.017 363.216 570.883 363.543C570.749 363.87 570.825 364.245 571.075 364.494L572.968 366.393C573.133 366.557 573.225 366.78 573.225 367.013C573.225 367.245 573.133 367.468 572.968 367.632L559.768 380.831C558.743 381.856 558.743 383.519 559.768 384.544C560.794 385.57 562.456 385.57 563.482 384.544L576.675 371.344C576.839 371.179 577.062 371.087 577.294 371.087C577.527 371.087 577.75 371.179 577.914 371.344L579.825 373.245Z" fill="white"/>
<rect x="332" y="352" width="60" height="50" rx="1" fill="#B3C5D6" stroke="#8FA9C0" stroke-width="2"/>
<rect x="623" y="352" width="60" height="50" rx="1" fill="#B3C5D6" stroke="#8FA9C0" stroke-width="2"/>
<rect x="476" y="183" width="62" height="62.0019" rx="2" fill="#084983"/>
<path d="M507.001 193L506.322 195.102H504.128L505.903 196.4L505.226 198.502L507.001 197.203L508.776 198.502L508.099 196.4L509.874 195.102H507.68L507.001 193Z" fill="white"/>
<path d="M507.68 231.602L507.001 229.5L506.322 231.602H504.128L505.903 232.9L505.226 235.002L507.001 233.703L508.776 235.002L508.099 232.9L509.874 231.602H507.68Z" fill="white"/>
<path d="M488.873 215.453L490.649 216.752L489.971 214.65L491.746 213.352H489.552L488.873 211.25L488.194 213.352H486L487.775 214.65L487.098 216.752L488.873 215.453Z" fill="white"/>
<path d="M497.936 195.445L497.257 197.546H495.063L496.838 198.846L496.161 200.947L497.936 199.648L499.712 200.947L499.034 198.846L500.809 197.546H498.615L497.936 195.445Z" fill="white"/>
<path d="M491.303 202.125L490.624 204.227H488.429L490.205 205.525L489.526 207.627L491.303 206.328L493.078 207.627L492.399 205.525L494.176 204.227H491.981L491.303 202.125Z" fill="white"/>
<path d="M491.981 222.477L491.303 220.375L490.624 222.477H488.429L490.205 223.775L489.526 225.877L491.303 224.578L493.078 225.877L492.399 223.775L494.176 222.477H491.981Z" fill="white"/>
<path d="M498.615 229.156L497.936 227.055L497.257 229.156H495.063L496.838 230.456L496.161 232.558L497.936 231.258L499.712 232.558L499.034 230.456L500.809 229.156H498.615Z" fill="white"/>
<path d="M528 213.352H525.806L525.127 211.25L524.448 213.352H522.254L524.029 214.65L523.352 216.752L525.127 215.453L526.902 216.752L526.225 214.65L528 213.352Z" fill="white"/>
<path d="M516.064 195.445L515.385 197.546H513.191L514.966 198.846L514.289 200.947L516.064 199.648L517.839 200.947L517.162 198.846L518.937 197.546H516.743L516.064 195.445Z" fill="white"/>
<path d="M521.6 205.525L520.921 207.627L522.696 206.328L524.473 207.627L523.794 205.525L525.57 204.227H523.375L522.696 202.125L522.019 204.227H519.823L521.6 205.525Z" fill="white"/>
<path d="M523.375 222.477L522.696 220.375L522.019 222.477H519.823L521.6 223.775L520.921 225.877L522.696 224.578L524.473 225.877L523.794 223.775L525.57 222.477H523.375Z" fill="white"/>
<path d="M516.743 229.156L516.064 227.055L515.385 229.156H513.191L514.966 230.456L514.289 232.558L516.064 231.258L517.839 232.558L517.162 230.456L518.937 229.156H516.743Z" fill="white"/>
<path d="M726 279.98V402.434C726 403.299 726.701 404 727.566 404H894.293C895.158 404 895.859 403.299 895.859 402.434V275.186C895.859 274.321 896.56 273.62 897.425 273.62H944.434C945.299 273.62 946 272.919 946 272.054V246.566C946 245.701 945.299 245 944.434 245H895.852C895.502 245 895.161 245.118 894.885 245.335L815.398 307.766C814.788 308.245 813.919 308.205 813.355 307.672L784.526 280.408C784.235 280.133 783.85 279.98 783.449 279.98H726Z" fill="#B3C5D6" stroke="#8FA9C0" stroke-width="2"/>
</svg>
