<svg width="2650" height="1469" viewBox="0 0 2650 1469" fill="none" xmlns="http://www.w3.org/2000/svg">
<path d="M913 1147V1194H987V1147" stroke="#8fa9c0" stroke-width="4"/>
<path d="M915 1147H985.849L986 1192H915V1147Z" fill="#C4D3E8"/>
<rect x="913" y="459" width="62" height="62" rx="2" fill="#2D2D2D"/>
<path d="M931.75 475.72H932.625C933.108 475.72 933.5 476.096 933.5 476.56V477.4C933.5 478.328 934.283 479.08 935.25 479.08C936.216 479.08 937 478.328 937 477.4V476.56C937 476.096 937.391 475.72 937.875 475.72H938.75C939.104 475.721 939.424 475.516 939.56 475.202C939.695 474.888 939.62 474.526 939.369 474.285L935.869 470.925C935.705 470.768 935.482 470.679 935.25 470.679C935.017 470.679 934.794 470.768 934.63 470.925L931.13 474.285C930.879 474.526 930.804 474.888 930.94 475.202C931.075 475.516 931.395 475.721 931.75 475.72Z" fill="white"/>
<path d="M952.13 478.835C952.294 478.993 952.517 479.082 952.75 479.082C952.982 479.082 953.205 478.993 953.369 478.835L956.869 475.475C957.12 475.235 957.195 474.873 957.06 474.559C956.924 474.245 956.604 474.04 956.25 474.041H955.375C954.891 474.041 954.5 473.665 954.5 473.201V472.361C954.5 471.433 953.716 470.681 952.75 470.681C951.783 470.681 951 471.433 951 472.361V473.201C951 473.665 950.608 474.041 950.125 474.041H949.25C948.895 474.04 948.575 474.245 948.44 474.559C948.304 474.873 948.379 475.235 948.63 475.475L952.13 478.835Z" fill="white"/>
<path d="M958 480.76C959.45 480.76 960.625 481.888 960.625 483.279V508.479C960.625 509.871 959.45 511 958 511H930C928.55 511 927.375 509.871 927.375 508.479V483.279C927.375 481.888 928.55 480.76 930 480.76H958ZM936.125 492.52C933.226 492.52 930.875 494.776 930.875 497.56V500.08C930.875 500.544 931.267 500.92 931.75 500.92H932.378C932.822 500.917 933.198 501.233 933.253 501.655L933.938 506.905C933.993 507.327 934.369 507.643 934.812 507.64H937.424C937.867 507.643 938.243 507.327 938.299 506.905L938.982 501.655C939.038 501.233 939.414 500.917 939.857 500.92H940.5C940.983 500.92 941.375 500.544 941.375 500.08V497.56C941.375 494.776 939.024 492.52 936.125 492.52ZM951.875 492.52C948.976 492.52 946.625 494.776 946.625 497.56V500.08C946.625 500.544 947.017 500.92 947.5 500.92H948.114C948.558 500.917 948.934 501.233 948.989 501.655L949.674 506.905C949.73 507.327 950.106 507.643 950.549 507.64H953.174C953.617 507.643 953.993 507.327 954.049 506.905L954.732 501.655C954.788 501.233 955.164 500.917 955.607 500.92H956.25C956.733 500.92 957.125 500.544 957.125 500.08V497.56C957.125 494.776 954.774 492.52 951.875 492.52ZM936.125 483.279C933.952 483.282 932.191 484.973 932.188 487.06C932.188 489.147 933.95 490.84 936.125 490.84C938.3 490.84 940.062 489.147 940.062 487.06C940.062 484.972 938.3 483.279 936.125 483.279ZM951.875 483.279C949.702 483.282 947.941 484.973 947.938 487.06C947.938 489.147 949.7 490.84 951.875 490.84C954.05 490.84 955.812 489.147 955.812 487.06C955.812 484.972 954.05 483.279 951.875 483.279Z" fill="white"/>
<path d="M388 169L436 207.384V376H419.219" stroke="#CDCDCD" stroke-width="2"/>
<path d="M466 287H498V311C498 311.552 497.552 312 497 312H467C466.448 312 466 311.552 466 311V287Z" fill="#B3C5D6"/>
<path d="M470 287H494V307C494 307.552 493.552 308 493 308H471C470.448 308 470 307.552 470 307V287Z" fill="white"/>
<path d="M508 287H540V311C540 311.552 539.552 312 539 312H509C508.448 312 508 311.552 508 311V287Z" fill="#B3C5D6"/>
<path d="M512 287H536V307C536 307.552 535.552 308 535 308H513C512.448 308 512 307.552 512 307V287Z" fill="white"/>
<path d="M549 287H581V311C581 311.552 580.552 312 580 312H550C549.448 312 549 311.552 549 311V287Z" fill="#B3C5D6"/>
<path d="M553 287H577V307C577 307.552 576.552 308 576 308H554C553.448 308 553 307.552 553 307V287Z" fill="white"/>
<path d="M591 287H623V311C623 311.552 622.552 312 622 312H592C591.448 312 591 311.552 591 311V287Z" fill="#B3C5D6"/>
<path d="M595 287H619V307C619 307.552 618.552 308 618 308H596C595.448 308 595 307.552 595 307V287Z" fill="white"/>
<path d="M633 287H665V311C665 311.552 664.552 312 664 312H634C633.448 312 633 311.552 633 311V287Z" fill="#B3C5D6"/>
<path d="M637 287H661V307C661 307.552 660.552 308 660 308H638C637.448 308 637 307.552 637 307V287Z" fill="white"/>
<path d="M438 333H562V403H438C437.448 403 437 402.552 437 402V334C437 333.448 437.448 333 438 333Z" fill="#B3C5D6" stroke="#8FA9C0" stroke-width="2"/>
<rect x="549" y="353" width="62" height="62" rx="2" fill="#2D2D2D"/>
<path d="M601 375.25C601 374.284 600.216 373.5 599.25 373.5H587.875C586.425 373.5 585.25 374.675 585.25 376.125V379.625C585.25 380.108 584.858 380.5 584.375 380.5H580.875C579.425 380.5 578.25 381.675 578.25 383.125V386.625C578.25 387.108 577.858 387.5 577.375 387.5H573.875C572.425 387.5 571.25 388.675 571.25 390.125V393.625C571.25 394.108 570.858 394.5 570.375 394.5H566.875C565.425 394.5 564.25 395.675 564.25 397.125V403.25C564.25 404.216 565.034 405 566 405H599.25C600.216 405 601 404.216 601 403.25V375.25Z" fill="white"/>
<path d="M579.825 373.245C580.076 373.49 580.449 373.562 580.774 373.427C581.098 373.292 581.31 372.976 581.312 372.625V363.875C581.312 363.392 580.921 363 580.437 363H571.687C571.334 363.002 571.017 363.216 570.883 363.543C570.749 363.87 570.825 364.245 571.075 364.494L572.968 366.393C573.133 366.557 573.225 366.78 573.225 367.013C573.225 367.245 573.133 367.468 572.968 367.632L559.768 380.831C558.743 381.856 558.743 383.519 559.768 384.544C560.794 385.57 562.456 385.57 563.482 384.544L576.675 371.344C576.839 371.179 577.062 371.087 577.294 371.087C577.527 371.087 577.75 371.179 577.914 371.344L579.825 373.245Z" fill="white"/>
<rect x="332" y="352" width="60" height="50" rx="1" fill="#B3C5D6" stroke="#8FA9C0" stroke-width="2"/>
<rect x="623" y="352" width="60" height="50" rx="1" fill="#B3C5D6" stroke="#8FA9C0" stroke-width="2"/>
<path d="M655.731 1131.04H658.661C660.588 1131.04 661.955 1130.73 662.762 1130.11C663.57 1129.48 663.973 1128.45 663.973 1127C663.973 1125.57 663.563 1124.55 662.743 1123.93C661.936 1123.31 660.575 1123 658.661 1123H655.731V1131.04ZM649.891 1147V1118.19H658.427C662.515 1118.19 665.477 1118.89 667.313 1120.28C669.149 1121.66 670.067 1123.89 670.067 1126.96C670.067 1129.9 669.221 1132.13 667.528 1133.64C665.835 1135.14 663.329 1135.89 660.009 1135.89H655.731V1147H649.891ZM667.061 1147L677.51 1118.19H684.776L694.815 1147H688.545L686.495 1140.81H675.108L672.862 1147H667.061ZM676.67 1136.08H684.991L681.026 1123.88L676.67 1136.08ZM695.031 1137.64H701.066C701.066 1139.56 701.535 1141 702.473 1141.96C703.423 1142.92 704.849 1143.41 706.75 1143.41C708.273 1143.41 709.51 1143.04 710.461 1142.29C711.424 1141.54 711.906 1140.59 711.906 1139.44C711.906 1137.63 709.647 1135.96 705.129 1134.42C704.829 1134.32 704.615 1134.25 704.484 1134.21C704.341 1134.15 704.146 1134.09 703.898 1134.01C701.372 1133.18 699.549 1132.35 698.43 1131.51C697.622 1130.91 696.997 1130.15 696.555 1129.23C696.125 1128.29 695.91 1127.25 695.91 1126.12C695.91 1123.53 696.887 1121.48 698.84 1119.97C700.806 1118.45 703.482 1117.68 706.867 1117.68C710.031 1117.68 712.479 1118.42 714.211 1119.89C715.956 1121.36 716.828 1123.43 716.828 1126.08V1126.24H711.477C711.346 1124.74 710.852 1123.6 709.992 1122.82C709.146 1122.04 707.974 1121.65 706.477 1121.65C705.031 1121.65 703.879 1121.98 703.02 1122.64C702.173 1123.31 701.75 1124.2 701.75 1125.32C701.75 1127.07 704.12 1128.71 708.859 1130.24C709.029 1130.29 709.152 1130.33 709.23 1130.36C712.85 1131.56 715.227 1132.76 716.359 1133.95C717.505 1135.15 718.078 1136.8 718.078 1138.91C718.078 1141.6 717.049 1143.7 714.992 1145.22C712.948 1146.73 710.096 1147.49 706.437 1147.49C702.635 1147.49 699.784 1146.7 697.883 1145.12C695.982 1143.55 695.031 1141.19 695.031 1138.04V1137.64ZM719.759 1137.64H725.795C725.795 1139.56 726.263 1141 727.201 1141.96C728.151 1142.92 729.577 1143.41 731.478 1143.41C733.002 1143.41 734.239 1143.04 735.189 1142.29C736.153 1141.54 736.634 1140.59 736.634 1139.44C736.634 1137.63 734.375 1135.96 729.857 1134.42C729.558 1134.32 729.343 1134.25 729.212 1134.21C729.069 1134.15 728.874 1134.09 728.627 1134.01C726.101 1133.18 724.278 1132.35 723.158 1131.51C722.351 1130.91 721.726 1130.15 721.283 1129.23C720.853 1128.29 720.638 1127.25 720.638 1126.12C720.638 1123.53 721.615 1121.48 723.568 1119.97C725.534 1118.45 728.21 1117.68 731.595 1117.68C734.759 1117.68 737.207 1118.42 738.939 1119.89C740.684 1121.36 741.556 1123.43 741.556 1126.08V1126.24H736.205C736.074 1124.74 735.58 1123.6 734.72 1122.82C733.874 1122.04 732.702 1121.65 731.205 1121.65C729.759 1121.65 728.607 1121.98 727.748 1122.64C726.901 1123.31 726.478 1124.2 726.478 1125.32C726.478 1127.07 728.848 1128.71 733.587 1130.24C733.757 1130.29 733.88 1130.33 733.959 1130.36C737.578 1131.56 739.955 1132.76 741.087 1133.95C742.233 1135.15 742.806 1136.8 742.806 1138.91C742.806 1141.6 741.778 1143.7 739.72 1145.22C737.676 1146.73 734.824 1147.49 731.166 1147.49C727.364 1147.49 724.512 1146.7 722.611 1145.12C720.71 1143.55 719.759 1141.19 719.759 1138.04V1137.64ZM745.64 1147V1118.19H764.761V1122.96H751.89V1129.75H763.96V1134.44H751.89V1142.2H765.21V1147H745.64ZM768.024 1147V1118.19H776.911L787.751 1141.36V1118.19H793.278V1147H784.743L773.552 1123.15V1147H768.024ZM822.694 1131.65V1145.12C821.105 1145.92 819.399 1146.51 817.577 1146.9C815.754 1147.29 813.735 1147.49 811.522 1147.49C806.652 1147.49 802.889 1146.23 800.233 1143.72C797.577 1141.19 796.248 1137.62 796.248 1133C796.248 1128.22 797.583 1124.48 800.252 1121.79C802.922 1119.08 806.626 1117.72 811.366 1117.72C814.868 1117.72 817.642 1118.52 819.686 1120.12C821.743 1121.73 822.772 1123.87 822.772 1126.55V1127.08H816.971C816.893 1125.31 816.346 1123.96 815.33 1123.04C814.315 1122.11 812.876 1121.65 811.014 1121.65C808.397 1121.65 806.327 1122.64 804.803 1124.64C803.293 1126.63 802.537 1129.35 802.537 1132.8C802.537 1136.19 803.332 1138.75 804.92 1140.5C806.522 1142.24 808.872 1143.11 811.971 1143.11C812.778 1143.11 813.573 1143.07 814.354 1142.98C815.148 1142.87 815.923 1142.72 816.678 1142.53L816.698 1136.24H811.209V1131.65H822.694ZM826.465 1147V1118.19H845.586V1122.96H832.715V1129.75H844.785V1134.44H832.715V1142.2H846.035V1147H826.465ZM854.904 1130.71H858.537C860.815 1130.71 862.378 1130.42 863.224 1129.83C864.071 1129.25 864.494 1128.22 864.494 1126.77C864.494 1125.22 864.09 1124.14 863.283 1123.54C862.489 1122.94 860.907 1122.64 858.537 1122.64H854.904V1130.71ZM848.849 1147V1118.19H860.822C864.168 1118.19 866.629 1118.78 868.205 1119.95C869.78 1121.12 870.568 1122.95 870.568 1125.44C870.568 1127.48 870.125 1129.06 869.24 1130.18C868.354 1131.3 866.935 1132.1 864.982 1132.57C866.558 1132.74 867.703 1133.22 868.42 1134.01C869.149 1134.79 869.63 1136.12 869.865 1138L870.373 1142.16C870.529 1143.32 870.724 1144.29 870.959 1145.07C871.193 1145.85 871.492 1146.49 871.857 1147H865.177C864.969 1146.6 864.8 1146.13 864.67 1145.61C864.552 1145.09 864.455 1144.38 864.377 1143.48L863.966 1139.13C863.81 1137.37 863.53 1136.31 863.127 1135.95C862.736 1135.58 861.766 1135.4 860.216 1135.4H854.904V1147H848.849ZM708.275 1187L718.724 1158.19H725.99L736.029 1187H729.759L727.709 1180.81H716.322L714.076 1187H708.275ZM717.884 1176.08H726.205L722.24 1163.88L717.884 1176.08ZM743.413 1170.71H747.046C749.325 1170.71 750.887 1170.42 751.734 1169.83C752.58 1169.25 753.003 1168.22 753.003 1166.77C753.003 1165.22 752.599 1164.14 751.792 1163.54C750.998 1162.94 749.416 1162.64 747.046 1162.64H743.413V1170.71ZM737.359 1187V1158.19H749.331C752.678 1158.19 755.139 1158.78 756.714 1159.95C758.29 1161.12 759.077 1162.95 759.077 1165.44C759.077 1167.48 758.635 1169.06 757.749 1170.18C756.864 1171.3 755.445 1172.1 753.491 1172.57C755.067 1172.74 756.213 1173.22 756.929 1174.01C757.658 1174.79 758.14 1176.12 758.374 1178L758.882 1182.16C759.038 1183.32 759.234 1184.29 759.468 1185.07C759.702 1185.85 760.002 1186.49 760.366 1187H753.687C753.478 1186.6 753.309 1186.13 753.179 1185.61C753.062 1185.09 752.964 1184.38 752.886 1183.48L752.476 1179.13C752.32 1177.37 752.04 1176.31 751.636 1175.95C751.245 1175.58 750.275 1175.4 748.726 1175.4H743.413V1187H737.359ZM762.165 1187V1158.19H781.286V1162.96H768.415V1169.75H780.485V1174.44H768.415V1182.2H781.735V1187H762.165ZM781.913 1187L792.362 1158.19H799.627L809.666 1187H803.397L801.346 1180.81H789.959L787.713 1187H781.913ZM791.522 1176.08H799.842L795.877 1163.88L791.522 1176.08Z" fill="#DDE5ED"/>
</svg>
