<svg version="1.2" xmlns="http://www.w3.org/2000/svg" viewBox="0 0 2475 1462" width="2475" height="1462"><style>.a{fill:#002bff;stroke:#002bff;stroke-width:.4}.b{fill:#002bff}</style><path class="a" d="m1782.3 212h-11.5c-1.6 0-2.6-1.9-1.6-3.2l5.8-8.4c0.8-1.2 2.5-1.2 3.3 0l5.7 8.4c0.9 1.4-0.1 3.2-1.7 3.2z"/><path class="a" d="m1936.7 212h-11.5c-1.6 0-2.5-1.9-1.6-3.2l5.8-8.4c0.8-1.2 2.6-1.2 3.3 0l5.7 8.4c0.9 1.4-0.1 3.2-1.7 3.2z"/><path class="a" d="m2066.1 212h-11.5c-1.6 0-2.6-1.9-1.7-3.2l5.9-8.4c0.8-1.2 2.5-1.2 3.3 0l5.6 8.4c0.9 1.4 0 3.2-1.6 3.2z"/><path class="a" d="m2161.3 212h-11.5c-1.6 0-2.5-1.9-1.6-3.2l5.8-8.4c0.8-1.2 2.6-1.2 3.3 0l5.7 8.4c0.9 1.4-0.1 3.2-1.7 3.2z"/><path class="a" d="m2258.6 212h-11.5c-1.6 0-2.6-1.9-1.7-3.2l5.9-8.4c0.8-1.2 2.5-1.2 3.3 0l5.6 8.4c0.9 1.4 0 3.2-1.6 3.2z"/><path class="b" d="m1009.3 744.7l-2.1-2.2-0.9 0.9v1.3zm0 153.9v3h3v-3zm-509.3-0.1h-3v3h3zm0-57.1h3v-3.1h-3zm-230.7 0h-3v3h3zm0 0h3.1v-187.7h-3.1-3v187.7zm0-187.7h3v-227.6h-3-3v227.6zm0-247.6l-2.5-1.7-0.5 0.8v0.9zm83.4-126.3v-3.1h-1.6l-0.9 1.4zm0 0v3h117.8v-3-3h-117.8zm862.3 0v3h0.1 0.2zm224.6-21.1v-3h-0.2-0.1zm0 0v3h336.9v-3-3h-336.9zm339.9-47.6c0-1.7-1.4-3-3-3-1.7 0-3 1.3-3 3zm154.9 0c0-1.7-1.4-3-3-3-1.7 0-3 1.3-3 3zm128.8 0c0-1.7-1.3-3-3-3-1.7 0-3 1.3-3 3zm94.9 0c0-1.7-1.3-3-3-3-1.6 0-3 1.3-3 3zm95.1 47.6v3h3v-3zm3-47.6c0-1.7-1.3-3-3-3-1.7 0-3 1.3-3 3zm-1193.7 480.8l-2.1-2.2-53.3 53 2.1 2.1 2.1 2.1 53.3-52.9zm-53.3 52.9h-3v153.9h3 3.1l-0.1-153.9zm0.1 153.9v-3h-509.4v3 3l509.4 0.1zm-509.4-0.1h3v-57.2h-3-3v57.2zm0-57.2v-3h-230.6v3 3h230.6zm-230.6-187.7h-3zm0-227.6h3v-20h-3-3.1v20zm0-20l2.6 1.6 83.3-126.3-2.5-1.7-2.5-1.6-83.4 126.3zm201.2-126.3v3h744.5v-3-3h-744.5zm0 0v3zm744.5 0l0.3 3 224.6-21.1-0.3-3-0.3-3-224.6 21.1zm561.5-21.1h3v-47.6h-3-3v47.6zm0 0v3h154.9v-3-3h-154.9zm0 0v3zm154.9 0h3v-47.6h-3-3v47.6zm128.9 0h3v-47.6h-3-3v47.6zm-128.9 0v3h128.9v-3-3h-128.9zm223.8 0h3v-47.6h-3-3v47.6zm-95 0v3h95v-3-3h-95zm95 0v3h98.1v-3-3h-98.1zm98.1 0h3v-47.6h-3-3v47.6zm-1984 167.4h3z"/></svg>