<svg width="2475" height="1462" viewBox="0 0 2475 1462" fill="none" xmlns="http://www.w3.org/2000/svg">
<path d="M113.043 372.441C124.187 379.611 124.361 395.76 113.565 403.21L113.044 403.559L65.0098 434.46L65.0088 434.46C52.6972 442.38 36.5002 433.541 36.5 418.902L36.5 357.098C36.5003 342.687 52.1957 333.897 64.4297 341.181L65.0088 341.54L113.043 372.441Z" fill="#F6F6F6" stroke="#CDCDCD" stroke-width="3"/>
<path d="M70.9677 388.021V396.781C69.9352 397.298 68.8265 397.683 67.6416 397.937C66.4567 398.19 65.1448 398.317 63.706 398.317C60.5407 398.317 58.0947 397.501 56.3681 395.867C54.6416 394.225 53.7783 391.902 53.7783 388.897C53.7783 385.791 54.6458 383.362 56.3808 381.61C58.1158 379.85 60.5237 378.97 63.6045 378.97C65.8811 378.97 67.6839 379.49 69.0127 380.531C70.3499 381.572 71.0185 382.965 71.0185 384.708V385.051H67.248C67.1972 383.9 66.8418 383.024 66.1816 382.423C65.5214 381.822 64.5862 381.521 63.3759 381.521C61.6748 381.521 60.3291 382.169 59.3388 383.464C58.3571 384.759 57.8662 386.528 57.8662 388.771C57.8662 390.971 58.3824 392.638 59.415 393.772C60.456 394.907 61.9837 395.474 63.998 395.474C64.5227 395.474 65.039 395.444 65.5468 395.385C66.0631 395.317 66.5667 395.22 67.0576 395.093L67.0703 391.005H63.5029V388.021H70.9677ZM74.9551 391.081H79.5381V384.111L74.9551 391.081ZM79.5381 398V394.077H72.1494V390.434L79.2461 379.884H83.1689V391.081H85.4414V394.077H83.1689V398H79.5381Z" fill="#5B5B5B"/>
<path d="M113.043 644.441C124.187 651.611 124.361 667.76 113.565 675.21L113.044 675.559L65.0098 706.46L65.0088 706.46C52.6972 714.38 36.5002 705.541 36.5 690.902L36.5 629.098C36.5003 614.687 52.1957 605.897 64.4297 613.181L65.0088 613.54L113.043 644.441Z" fill="#F6F6F6" stroke="#CDCDCD" stroke-width="3"/>
<path d="M70.9677 659.021V667.781C69.9352 668.298 68.8265 668.683 67.6416 668.937C66.4567 669.19 65.1448 669.317 63.706 669.317C60.5407 669.317 58.0947 668.501 56.3681 666.867C54.6416 665.225 53.7783 662.902 53.7783 659.897C53.7783 656.791 54.6458 654.362 56.3808 652.61C58.1158 650.85 60.5237 649.97 63.6045 649.97C65.8811 649.97 67.6839 650.49 69.0127 651.531C70.3499 652.572 71.0185 653.965 71.0185 655.708V656.051H67.248C67.1972 654.9 66.8418 654.024 66.1816 653.423C65.5214 652.822 64.5862 652.521 63.3759 652.521C61.6748 652.521 60.3291 653.169 59.3388 654.464C58.3571 655.759 57.8662 657.528 57.8662 659.771C57.8662 661.971 58.3824 663.638 59.415 664.772C60.456 665.907 61.9837 666.474 63.998 666.474C64.5227 666.474 65.039 666.444 65.5468 666.385C66.0631 666.317 66.5667 666.22 67.0576 666.093L67.0703 662.005H63.5029V659.021H70.9677ZM72.6699 655.708C72.6868 654.075 73.2074 652.813 74.2314 651.925C75.2555 651.036 76.7028 650.592 78.5732 650.592C80.3929 650.592 81.8359 651.066 82.9023 652.014C83.9688 652.953 84.502 654.223 84.502 655.822C84.502 656.88 84.2438 657.739 83.7275 658.399C83.2197 659.06 82.4453 659.534 81.4043 659.821C82.4622 660.084 83.262 660.562 83.8037 661.256C84.3538 661.941 84.6289 662.817 84.6289 663.884C84.6289 665.475 84.0449 666.778 82.877 667.794C81.709 668.81 80.194 669.317 78.332 669.317C76.6055 669.317 75.2428 668.89 74.2441 668.035C73.2454 667.18 72.7461 666.021 72.7461 664.557V664.188H76.1484C76.1654 664.942 76.3812 665.538 76.7959 665.979C77.2191 666.419 77.7861 666.639 78.4971 666.639C79.2757 666.639 79.8893 666.397 80.3379 665.915C80.7865 665.424 81.0107 664.764 81.0107 663.935C81.0107 663.029 80.7568 662.386 80.249 662.005C79.7412 661.624 78.8271 661.434 77.5068 661.434H76.1484V658.412H77.5576C78.8441 658.412 79.7412 658.226 80.249 657.854C80.7568 657.473 81.0107 656.829 81.0107 655.924C81.0107 655.094 80.7865 654.443 80.3379 653.969C79.8978 653.486 79.2926 653.245 78.5225 653.245C77.8031 653.245 77.2275 653.469 76.7959 653.918C76.3643 654.367 76.14 654.963 76.123 655.708H72.6699Z" fill="#5B5B5B"/>
<path d="M113.043 916.441C124.187 923.611 124.361 939.76 113.565 947.21L113.044 947.559L65.0098 978.46L65.0088 978.46C52.6972 986.38 36.5002 977.541 36.5 962.902L36.5 901.098C36.5003 886.687 52.1957 877.897 64.4297 885.181L65.0088 885.54L113.043 916.441Z" fill="#F6F6F6" stroke="#CDCDCD" stroke-width="3"/>
<path d="M70.9677 931.021V939.781C69.9352 940.298 68.8265 940.683 67.6416 940.937C66.4567 941.19 65.1448 941.317 63.706 941.317C60.5407 941.317 58.0947 940.501 56.3681 938.867C54.6416 937.225 53.7783 934.902 53.7783 931.897C53.7783 928.791 54.6458 926.362 56.3808 924.61C58.1158 922.85 60.5237 921.97 63.6045 921.97C65.8811 921.97 67.6839 922.49 69.0127 923.531C70.3499 924.572 71.0185 925.965 71.0185 927.708V928.051H67.248C67.1972 926.9 66.8418 926.024 66.1816 925.423C65.5214 924.822 64.5862 924.521 63.3759 924.521C61.6748 924.521 60.3291 925.169 59.3388 926.464C58.3571 927.759 57.8662 929.528 57.8662 931.771C57.8662 933.971 58.3824 935.638 59.415 936.772C60.456 937.907 61.9837 938.474 63.998 938.474C64.5227 938.474 65.039 938.444 65.5468 938.385C66.0631 938.317 66.5667 938.22 67.0576 938.093L67.0703 934.005H63.5029V931.021H70.9677ZM72.543 941V937.204L73.6094 936.239C78.7214 931.669 81.2773 928.698 81.2773 927.327C81.2773 926.709 81.0742 926.201 80.668 925.804C80.2702 925.397 79.7624 925.194 79.1445 925.194C78.3659 925.194 77.7692 925.427 77.3545 925.893C76.9482 926.35 76.7282 927.035 76.6943 927.949H73.2412V927.746C73.2412 926.163 73.766 924.911 74.8154 923.988C75.8649 923.057 77.291 922.592 79.0938 922.592C80.8796 922.592 82.3057 923.032 83.3721 923.912C84.4385 924.784 84.9717 925.948 84.9717 927.403C84.9717 928.774 84.4004 930.209 83.2578 931.707C82.1237 933.197 79.9359 935.27 76.6943 937.928H85.0732V941H72.543Z" fill="#5B5B5B"/>
<path d="M113.043 1188.44C124.187 1195.61 124.361 1211.76 113.565 1219.21L113.044 1219.56L65.0098 1250.46L65.0088 1250.46C52.6972 1258.38 36.5002 1249.54 36.5 1234.9L36.5 1173.1C36.5003 1158.69 52.1957 1149.9 64.4297 1157.18L65.0088 1157.54L113.043 1188.44Z" fill="#F6F6F6" stroke="#CDCDCD" stroke-width="3"/>
<path d="M70.9677 1203.02V1211.78C69.9352 1212.3 68.8265 1212.68 67.6416 1212.94C66.4567 1213.19 65.1448 1213.32 63.706 1213.32C60.5407 1213.32 58.0947 1212.5 56.3681 1210.87C54.6416 1209.23 53.7783 1206.9 53.7783 1203.9C53.7783 1200.79 54.6458 1198.36 56.3808 1196.61C58.1158 1194.85 60.5237 1193.97 63.6045 1193.97C65.8811 1193.97 67.6839 1194.49 69.0127 1195.53C70.3499 1196.57 71.0185 1197.96 71.0185 1199.71V1200.05H67.248C67.1972 1198.9 66.8418 1198.02 66.1816 1197.42C65.5214 1196.82 64.5862 1196.52 63.3759 1196.52C61.6748 1196.52 60.3291 1197.17 59.3388 1198.46C58.3571 1199.76 57.8662 1201.53 57.8662 1203.77C57.8662 1205.97 58.3824 1207.64 59.415 1208.77C60.456 1209.91 61.9837 1210.47 63.998 1210.47C64.5227 1210.47 65.039 1210.44 65.5468 1210.38C66.0631 1210.32 66.5667 1210.22 67.0576 1210.09L67.0703 1206H63.5029V1203.02H70.9677ZM78.332 1213V1198.96C77.5026 1199.53 76.7536 1200 76.085 1200.37C75.4163 1200.73 74.79 1201.02 74.2061 1201.22V1197.59C75.0947 1197.21 75.9072 1196.8 76.6436 1196.36C77.3799 1195.91 78.057 1195.42 78.6748 1194.88H82.1914V1213H78.332Z" fill="#5B5B5B"/>
<path d="M123.572 276.423L313.288 178.934H2286.56V568.05H2150.45H2058.71H1967.34H1929.4H1842.08H1813.99H1675.23H1605.85H1536.47V691.279L1350.19 868.043L1266.25 948.432L1192.2 1018.89L1163.91 1044.81V1336.36H123.572V431.906V276.423Z" fill="white" stroke="#CDCDCD" stroke-width="4"/>
<path d="M669.26 767.643H892.677V665.796H767.129V597.813H870.063L857.583 578.207L882.544 562.93L872.411 547.653V479.924H841.766V418.815C834.846 424.587 819.622 443.463 814.086 472.795C807.166 509.46 755.025 539.729 712.263 570.568C697.702 581.069 682.108 600 669.05 619.826C646.012 654.805 640.592 697.242 640.592 739.126H669.26V767.643Z" fill="#B3C5D6"/>
<path d="M841.765 418.815C834.846 424.587 819.622 443.463 814.086 472.795C807.166 509.46 755.025 539.729 712.263 570.568C697.702 581.069 682.108 600 669.05 619.826C646.012 654.805 640.592 697.242 640.592 739.126V739.126H669.26V767.643H892.677V665.796M841.765 418.815V479.924H872.411V547.653L882.544 562.93M841.765 418.815H890.205M892.677 578.207L882.544 562.93M882.544 562.93L857.583 578.207L870.063 597.813M882.544 617.418L870.063 597.813M870.063 597.813H767.129V665.796H892.677M892.677 665.796V652.556" stroke="#8FA9C0" stroke-width="2"/>
<path d="M1297.5 325.868C1261.31 315.578 1221.01 309.869 1178.53 309.869C1104.39 309.869 1035.08 327.315 981.65 356.214M841.273 419.317H905.036C923.255 395.022 949.591 373.556 981.65 356.214M981.65 356.214V327.361" stroke="#8FA9C0" stroke-width="3"/>
<path fill-rule="evenodd" clip-rule="evenodd" d="M1016.34 674.313C1016.34 674.58 1016.61 674.58 1016.87 674.58C1016.87 674.846 1016.87 674.846 1017.13 674.846C1032.67 682.045 1048.73 691.376 1057.94 703.372C1064.78 712.17 1066.89 720.968 1067.15 730.832C1067.15 735.897 1066.63 740.963 1066.1 746.028C1065.31 760.691 1064.26 775.087 1063.47 789.483C1063.47 789.75 1063.47 789.75 1063.47 790.017C1063.47 790.283 1063.47 790.283 1063.47 790.283C1061.36 825.207 1098.48 854 1146.66 854C1179.31 854 1209.58 840.404 1225.12 819.609C1225.38 819.076 1225.91 818.543 1226.43 818.009C1283.83 744.428 1339.9 672.714 1394.4 603.132C1415.46 575.672 1426.26 545.813 1426 515.155C1425.47 417.047 1311.73 340 1171.67 340C1044.51 340 933.148 403.717 907.084 489.295C902.345 520.649 901.36 518.652 902.345 541.548C908.137 595.134 949.208 644.454 1016.34 674.313Z" fill="#F6F6F6"/>
<rect x="1800" y="240" width="62" height="62" rx="2" fill="#2D2D2D"/>
<path d="M1818.75 253.055C1821.83 253.055 1824.54 255.067 1825.44 258.012C1826.34 260.957 1825.21 264.143 1822.65 265.862C1822.43 266.012 1822.29 266.256 1822.27 266.524C1822.25 266.793 1822.36 267.055 1822.55 267.236C1823.29 267.904 1823.83 268.757 1824.13 269.705L1827.46 280.364C1827.54 280.63 1827.49 280.919 1827.33 281.144C1827.16 281.368 1826.9 281.5 1826.62 281.5H1824.25C1823.8 281.497 1823.43 281.826 1823.37 282.267L1822.25 291.235C1822.19 291.675 1821.82 292.003 1821.37 292H1816.12C1815.68 292.004 1815.31 291.675 1815.25 291.235L1814.14 282.267C1814.09 281.826 1813.71 281.497 1813.27 281.5H1810.87C1810.6 281.499 1810.34 281.367 1810.17 281.143C1810.01 280.918 1809.96 280.63 1810.04 280.364L1813.37 269.705C1813.66 268.757 1814.21 267.904 1814.94 267.236C1815.14 267.055 1815.25 266.793 1815.23 266.524C1815.21 266.256 1815.06 266.012 1814.84 265.862C1812.29 264.143 1811.15 260.957 1812.05 258.012C1812.95 255.067 1815.67 253.055 1818.75 253.055ZM1819.34 258.479C1819.01 258.174 1818.49 258.174 1818.16 258.479C1817.48 259.093 1816.71 259.591 1815.87 259.953C1815.47 260.127 1815.26 260.565 1815.38 260.983C1815.79 262.505 1817.17 263.562 1818.74 263.562C1820.32 263.561 1821.7 262.504 1822.11 260.983C1822.22 260.565 1822.01 260.127 1821.62 259.953C1820.78 259.59 1820.01 259.093 1819.34 258.479Z" fill="white"/>
<path d="M1831 250C1830.03 250 1829.25 250.784 1829.25 251.75V290.25C1829.25 291.216 1830.03 292 1831 292C1831.97 292 1832.75 291.216 1832.75 290.25V251.75C1832.75 250.784 1831.97 250 1831 250Z" fill="white"/>
<path d="M1843.25 253.022C1846.23 253.022 1848.89 254.916 1849.87 257.738C1850.84 260.56 1849.92 263.689 1847.57 265.531C1847.34 265.71 1847.22 265.99 1847.24 266.279C1847.26 266.568 1847.42 266.828 1847.67 266.975C1850.35 268.533 1852 271.399 1852 274.5V278.875C1852 279.358 1851.61 279.75 1851.12 279.75H1848.77C1848.32 279.747 1847.94 280.086 1847.89 280.532L1846.75 291.22C1846.7 291.666 1846.32 292.003 1845.87 292H1840.62C1840.18 292.003 1839.8 291.666 1839.75 291.22L1838.62 280.532C1838.57 280.086 1838.19 279.748 1837.74 279.75H1835.37C1834.89 279.75 1834.5 279.358 1834.5 278.875V274.5C1834.5 271.399 1836.15 268.533 1838.83 266.975C1839.08 266.828 1839.24 266.568 1839.26 266.279C1839.28 265.99 1839.16 265.71 1838.93 265.531C1836.58 263.689 1835.66 260.56 1836.63 257.738C1837.61 254.916 1840.26 253.022 1843.25 253.022ZM1841.07 258.697C1840.83 258.585 1840.55 258.586 1840.31 258.701C1840.07 258.816 1839.9 259.032 1839.84 259.289C1839.78 259.542 1839.75 259.802 1839.75 260.062C1839.75 261.995 1841.32 263.562 1843.25 263.562C1845.18 263.562 1846.75 261.995 1846.75 260.062C1846.75 259.925 1846.69 259.793 1846.59 259.698C1846.49 259.605 1846.35 259.56 1846.21 259.574C1845.91 259.607 1845.6 259.624 1845.3 259.625C1843.84 259.626 1842.39 259.309 1841.07 258.697Z" fill="white"/>
<path d="M1986.04 381.334H2028.54V392.329H2066.11V410.82V356.347" stroke="#CDCDCD" stroke-width="3"/>
<path d="M1953.41 411.819V381.334H1973.68" stroke="#CDCDCD" stroke-width="3"/>
<path d="M1552.8 225.911V234.262H1597.4L1611.12 250.367V262.893" stroke="#CDCDCD" stroke-width="3"/>
<path d="M1552.8 309.869V301.518H1597.4L1611.12 285.413V272.887" stroke="#CDCDCD" stroke-width="3"/>
<path d="M1297 325.861L1336.55 325.861" stroke="#CDCDCD" stroke-width="3"/>
<path d="M480.443 702.676H712.757" stroke="#CDCDCD" stroke-width="3"/>
<path d="M822.49 766.644L533.828 766.644L533.828 757.648" stroke="#CDCDCD" stroke-width="3"/>
<path d="M1552.36 754.462C1552.4 773.579 1568.39 789.373 1587.99 789.532C1607.4 789.688 1623.05 774.15 1622.81 755.032C1622.57 736.179 1606.58 720.65 1587.37 720.495C1568.16 720.339 1552.32 735.345 1552.36 754.462ZM1552.36 754.462C1540.04 791.002 1513.05 816.007 1471.41 829.211M1450.94 890.112C1489.74 941.404 1458.39 1060.81 1398.89 1082.77M1599.19 1017.43C1553.21 1039.62 1459.75 1102.17 1471.36 1155.36M1698.89 902.472C1655.99 903.984 1632.5 928.752 1626.5 974.901M1735.2 753.551C1758.85 756.663 1772.94 767.663 1775.89 787.334M1802 823.389C1763.77 822.017 1743.07 838.842 1737.75 872.253M1573.84 639.406C1593.41 667.973 1592.8 696.377 1570.06 725.399M1592.4 649.114C1643.92 663.071 1680.19 690.181 1702.58 730.188M1838.74 815.455C1867.97 801.088 1899.61 800.282 1934.23 816.227M1984.69 816.635C2013.34 802.264 2045.17 801.459 2079.98 817.406M2131.03 817.819C2159.28 803.444 2190.92 802.903 2226.51 818.591M2285.69 796.236C2285.29 773.664 2295.68 761.004 2317.24 758.523M2345.75 736.186C2366.49 691.483 2399.3 664.932 2445.18 656.541M1590.26 943.544C1610.45 943.707 1626.81 960.301 1627.23 981.014C1627.45 1001.99 1611.21 1018.85 1590.83 1018.69C1570.26 1018.52 1553.7 1001.39 1553.68 980.419C1553.64 959.975 1570.08 943.381 1590.26 943.544ZM1700.43 830.532C1720.03 830.691 1736.6 846.755 1737.41 866.675C1738.03 886.593 1722.57 902.664 1702.58 902.502C1682.59 902.34 1665.83 886.009 1665.41 866.093C1664.98 846.176 1680.83 830.374 1700.43 830.532ZM1810.3 754.689C1829.91 754.848 1846.67 770.648 1847.87 790.04C1849.08 809.697 1833.81 825.77 1813.82 825.608C1793.83 825.446 1776.88 809.379 1776.06 789.459C1775.25 770.071 1790.51 754.529 1810.3 754.689ZM1954.7 755.857C1974.3 756.015 1992.03 771.824 1993.63 791.219C1995.22 810.879 1980.34 826.955 1960.15 826.792C1940.16 826.63 1922.82 810.559 1921.43 790.635C1920.22 771.243 1935.1 755.433 1954.7 755.857ZM2099.29 757.026C2119.08 757.186 2136.82 772.995 2138.99 792.394C2141.16 812.059 2126.87 828.14 2106.68 827.976C2086.69 827.815 2068.96 811.741 2066.99 791.812C2065.2 772.415 2079.49 756.866 2099.29 757.026ZM2243.88 758.195C2263.48 758.354 2281.79 774.167 2284.55 793.571C2287.31 813.241 2273.4 829.325 2253.21 829.161C2233.42 829.001 2214.91 812.921 2212.55 792.989C2209.98 773.586 2224.08 758.035 2243.88 758.195ZM1735.17 684.253C1754.77 684.412 1771.14 699.678 1771.96 718.801C1772.78 737.924 1757.52 753.466 1737.73 753.306C1717.93 753.146 1701.56 737.348 1700.93 718.227C1700.31 699.105 1715.56 684.095 1735.17 684.253ZM1877.42 685.669C1897.03 685.828 1913.98 701.099 1915.19 720.225C1916.59 739.353 1901.72 754.898 1881.92 754.737C1862.32 754.579 1845.37 738.777 1844.16 719.651C1843.15 700.526 1858.02 685.512 1877.42 685.669ZM2020.46 686.826C2039.87 686.983 2057.02 702.255 2058.81 721.386C2060.6 740.517 2046.31 756.067 2026.71 755.908C2007.1 755.75 1989.96 739.946 1988.17 720.815C1986.76 701.687 2001.25 686.671 2020.46 686.826ZM2162.91 687.978C2182.32 688.135 2200.06 703.412 2202.43 722.548C2204.8 741.684 2190.9 757.236 2171.3 757.078C2151.5 756.917 2133.77 741.109 2131.59 721.975C2129.61 702.842 2143.51 687.821 2162.91 687.978ZM2305.76 689.133C2325.16 689.29 2343.29 704.836 2346.24 723.711C2349.2 742.851 2335.49 758.405 2315.88 758.247C2296.09 758.087 2277.97 742.275 2275.4 723.138C2272.64 703.999 2286.35 688.976 2305.76 689.133ZM1598.35 583.316C1617.37 583.47 1633.17 598.201 1633.42 616.523C1633.66 634.845 1618.4 649.59 1599 649.433C1579.78 649.277 1564.18 634.283 1564.13 615.962C1563.89 597.641 1579.14 583.161 1598.35 583.316ZM1731.49 584.393C1750.71 584.548 1766.7 599.281 1767.52 617.607C1768.35 635.934 1753.29 650.946 1733.88 650.789C1714.47 650.367 1698.48 635.369 1697.66 617.042C1697.22 598.719 1712.28 584.238 1731.49 584.393ZM1871.23 585.523C1890.25 585.677 1907.02 600.415 1908.23 618.745C1909.44 637.075 1894.97 651.826 1875.36 651.668C1856.15 651.512 1839.58 636.51 1838.36 618.18C1837.34 599.852 1852.01 585.368 1871.23 585.523ZM2011.35 586.656C2030.37 586.81 2047.14 601.548 2048.94 619.883C2050.73 638.217 2036.64 652.972 2017.43 652.817C1998.22 652.661 1981.25 637.656 1979.85 619.324C1978.24 601.257 1992.53 586.504 2011.35 586.656ZM2151.09 588.052C2170.11 588.205 2187.27 602.947 2189.64 621.286C2192.22 639.627 2178.12 654.381 2159.1 654.228C2139.7 654.071 2122.35 638.797 2120.36 620.726C2118.17 602.388 2132.07 587.898 2151.09 588.052ZM2290.82 589.182C2309.84 589.335 2327.78 604.083 2330.54 622.426C2333.31 640.768 2319.8 655.527 2300.59 655.372C2281.18 655.215 2263.44 640.203 2260.87 621.862C2258.49 603.523 2272 589.029 2290.82 589.182ZM2433.47 590.335C2452.69 590.491 2470.81 605.24 2474.16 623.587C2477.51 641.934 2464.58 656.698 2444.98 656.539C2425.77 656.384 2407.64 641.369 2404.49 623.024C2401.53 604.68 2414.26 590.18 2433.47 590.335ZM1477.24 828.728C1497.04 828.888 1512.82 844.946 1512.67 864.857C1512.51 884.769 1496.27 900.834 1476.28 900.672C1456.1 900.509 1440.31 884.185 1440.66 864.275C1441.02 844.365 1457.44 828.567 1477.24 828.728Z" stroke="#939393" stroke-width="0.4998" stroke-miterlimit="22.9256"/>
<rect x="525.92" y="1150.46" width="62" height="62" rx="2" fill="#2D2D2D"/>
<path d="M544.669 1163.51C547.748 1163.51 550.465 1165.52 551.364 1168.47C552.263 1171.41 551.131 1174.6 548.576 1176.32C548.353 1176.47 548.211 1176.71 548.191 1176.98C548.171 1177.25 548.276 1177.51 548.475 1177.69C549.211 1178.36 549.754 1179.21 550.049 1180.16L553.38 1190.82C553.462 1191.08 553.414 1191.37 553.25 1191.6C553.085 1191.82 552.824 1191.95 552.546 1191.96H550.167C549.723 1191.95 549.347 1192.28 549.292 1192.72L548.171 1201.69C548.115 1202.13 547.739 1202.46 547.296 1202.46H542.046C541.602 1202.46 541.226 1202.13 541.171 1201.69L540.062 1192.72C540.007 1192.28 539.631 1191.95 539.187 1191.96H536.796C536.518 1191.95 536.257 1191.82 536.092 1191.6C535.928 1191.37 535.88 1191.08 535.963 1190.82L539.288 1180.16C539.583 1179.21 540.127 1178.36 540.862 1177.69C541.061 1177.51 541.166 1177.25 541.146 1176.98C541.126 1176.71 540.984 1176.47 540.76 1176.32C538.206 1174.6 537.075 1171.41 537.973 1168.47C538.872 1165.52 541.59 1163.51 544.669 1163.51ZM545.261 1168.93C544.927 1168.63 544.415 1168.63 544.081 1168.93C543.404 1169.55 542.629 1170.05 541.79 1170.41C541.393 1170.58 541.183 1171.02 541.297 1171.44C541.708 1172.96 543.088 1174.02 544.664 1174.02C546.239 1174.02 547.619 1172.96 548.03 1171.44C548.143 1171.02 547.934 1170.58 547.537 1170.41C546.703 1170.05 545.933 1169.55 545.261 1168.93Z" fill="white"/>
<path d="M556.92 1160.46C555.953 1160.46 555.17 1161.24 555.17 1162.21V1200.71C555.17 1201.67 555.953 1202.46 556.92 1202.46C557.886 1202.46 558.67 1201.67 558.67 1200.71V1162.21C558.67 1161.24 557.886 1160.46 556.92 1160.46Z" fill="white"/>
<path d="M569.17 1163.48C572.155 1163.48 574.812 1165.37 575.786 1168.19C576.76 1171.02 575.838 1174.14 573.489 1175.99C573.261 1176.17 573.137 1176.45 573.156 1176.73C573.176 1177.02 573.337 1177.28 573.587 1177.43C576.267 1178.99 577.917 1181.85 577.92 1184.96V1189.33C577.92 1189.81 577.528 1190.21 577.045 1190.21H574.689C574.24 1190.2 573.862 1190.54 573.814 1190.99L572.67 1201.67C572.621 1202.12 572.243 1202.46 571.795 1202.46H566.545C566.096 1202.46 565.718 1202.12 565.67 1201.67L564.536 1190.99C564.489 1190.54 564.11 1190.2 563.661 1190.21H561.295C560.812 1190.21 560.42 1189.81 560.42 1189.33V1184.96C560.422 1181.85 562.073 1178.99 564.753 1177.43C565.003 1177.28 565.164 1177.02 565.184 1176.73C565.203 1176.45 565.079 1176.17 564.851 1175.99C562.501 1174.14 561.58 1171.02 562.554 1168.19C563.528 1165.37 566.184 1163.48 569.17 1163.48ZM566.986 1169.15C566.747 1169.04 566.47 1169.04 566.232 1169.16C565.995 1169.27 565.821 1169.49 565.761 1169.74C565.7 1170 565.67 1170.26 565.67 1170.52C565.67 1172.45 567.237 1174.02 569.17 1174.02C571.103 1174.02 572.67 1172.45 572.67 1170.52C572.672 1170.38 572.616 1170.25 572.516 1170.15C572.412 1170.06 572.274 1170.02 572.136 1170.03C571.831 1170.06 571.525 1170.08 571.219 1170.08C569.757 1170.08 568.313 1169.76 566.986 1169.15Z" fill="white"/>
<rect x="505.16" y="525.763" width="62" height="62" rx="2" fill="#2D2D2D"/>
<path d="M523.909 538.817C526.988 538.817 529.706 540.829 530.604 543.774C531.503 546.72 530.371 549.906 527.816 551.625C527.593 551.775 527.451 552.019 527.431 552.287C527.411 552.555 527.517 552.818 527.715 552.999C528.451 553.667 528.994 554.519 529.29 555.468L532.62 566.127C532.703 566.393 532.655 566.682 532.49 566.906C532.325 567.13 532.064 567.262 531.786 567.263H529.407C528.963 567.259 528.587 567.589 528.532 568.029L527.411 576.998C527.355 577.438 526.979 577.766 526.536 577.763H521.286C520.843 577.766 520.467 577.438 520.411 576.998L519.302 568.029C519.247 567.589 518.871 567.259 518.427 567.263H516.036C515.758 567.262 515.497 567.129 515.333 566.905C515.168 566.681 515.12 566.392 515.203 566.127L518.528 555.468C518.824 554.519 519.367 553.667 520.102 552.999C520.301 552.818 520.406 552.555 520.386 552.287C520.367 552.019 520.224 551.775 520.001 551.625C517.446 549.906 516.315 546.719 517.214 543.774C518.112 540.829 520.83 538.817 523.909 538.817ZM524.502 544.242C524.167 543.936 523.655 543.936 523.321 544.242C522.644 544.856 521.869 545.354 521.03 545.716C520.633 545.89 520.423 546.328 520.537 546.746C520.948 548.267 522.328 549.324 523.904 549.324C525.48 549.324 526.859 548.267 527.27 546.746C527.384 546.328 527.174 545.89 526.777 545.716C525.943 545.353 525.174 544.855 524.502 544.242Z" fill="white"/>
<path d="M536.16 535.763C535.194 535.763 534.41 536.546 534.41 537.513V576.013C534.41 576.979 535.194 577.763 536.16 577.763C537.127 577.763 537.91 576.979 537.91 576.013V537.513C537.91 536.546 537.127 535.763 536.16 535.763Z" fill="white"/>
<path d="M548.41 538.785C551.396 538.785 554.052 540.679 555.026 543.501C556.001 546.323 555.079 549.452 552.729 551.294C552.502 551.473 552.377 551.753 552.396 552.042C552.416 552.331 552.577 552.591 552.827 552.737C555.507 554.296 557.158 557.162 557.16 560.263V564.638C557.16 565.121 556.768 565.513 556.285 565.513H553.93C553.48 565.51 553.102 565.848 553.055 566.295L551.91 576.982C551.862 577.428 551.484 577.765 551.035 577.763H545.785C545.337 577.765 544.959 577.428 544.91 576.982L543.776 566.295C543.729 565.848 543.351 565.51 542.901 565.513H540.535C540.052 565.513 539.66 565.121 539.66 564.638V560.263C539.663 557.162 541.313 554.296 543.993 552.737C544.243 552.591 544.404 552.331 544.424 552.042C544.443 551.753 544.319 551.473 544.091 551.294C541.742 549.452 540.82 546.323 541.794 543.501C542.768 540.679 545.425 538.785 548.41 538.785ZM546.227 544.46C545.988 544.347 545.71 544.349 545.473 544.464C545.235 544.579 545.061 544.795 545.001 545.052C544.94 545.305 544.91 545.565 544.91 545.825C544.91 547.758 546.477 549.325 548.41 549.325C550.343 549.325 551.91 547.758 551.91 545.825C551.912 545.688 551.856 545.555 551.756 545.461C551.652 545.368 551.514 545.323 551.376 545.337C551.072 545.37 550.765 545.387 550.459 545.388C548.998 545.389 547.554 545.072 546.227 544.46Z" fill="white"/>
<mask id="path-52-inside-1_821_37031" fill="white">
<path d="M734.472 1150H815.534V1223.86H734.472V1248.76H1061.69V1150H1163.51V1336.36H1061.69V1336.36H651.431V1248.76H651.432V1150H734.472V1150Z"/>
</mask>
<path d="M734.472 1150H815.534V1223.86H734.472V1248.76H1061.69V1150H1163.51V1336.36H1061.69V1336.36H651.431V1248.76H651.432V1150H734.472V1150Z" fill="#DDE5ED"/>
<path d="M734.472 1150H732.472V1152H734.472V1150ZM815.534 1150H817.534V1148H815.534V1150ZM815.534 1223.86V1225.86H817.534V1223.86H815.534ZM734.472 1223.86V1221.86H732.472V1223.86H734.472ZM734.472 1248.76H732.472V1250.76H734.472V1248.76ZM1061.69 1248.76V1250.76H1063.69V1248.76H1061.69ZM1061.69 1150V1148H1059.69V1150H1061.69ZM1163.51 1150H1165.51V1148H1163.51V1150ZM1163.51 1336.36V1338.36H1165.51V1336.36H1163.51ZM1061.69 1336.36V1334.36H1059.69V1336.36H1061.69ZM1061.69 1336.36V1338.36H1063.69V1336.36H1061.69ZM651.431 1336.36H649.431V1338.36H651.431V1336.36ZM651.431 1248.76V1246.76H649.431V1248.76H651.431ZM651.432 1248.76V1250.76H653.432V1248.76H651.432ZM651.432 1150V1148H649.432V1150H651.432ZM734.472 1150H736.472V1148H734.472V1150ZM734.472 1150V1152H815.534V1150V1148H734.472V1150ZM815.534 1150H813.534V1223.86H815.534H817.534V1150H815.534ZM815.534 1223.86V1221.86H734.472V1223.86V1225.86H815.534V1223.86ZM734.472 1223.86H732.472V1248.76H734.472H736.472V1223.86H734.472ZM734.472 1248.76V1250.76H1061.69V1248.76V1246.76H734.472V1248.76ZM1061.69 1248.76H1063.69V1150H1061.69H1059.69V1248.76H1061.69ZM1061.69 1150V1152H1163.51V1150V1148H1061.69V1150ZM1163.51 1150H1161.51V1336.36H1163.51H1165.51V1150H1163.51ZM1163.51 1336.36V1334.36H1061.69V1336.36V1338.36H1163.51V1336.36ZM1061.69 1336.36H1059.69V1336.36H1061.69H1063.69V1336.36H1061.69ZM1061.69 1336.36V1334.36H651.431V1336.36V1338.36H1061.69V1336.36ZM651.431 1336.36H653.431V1248.76H651.431H649.431V1336.36H651.431ZM651.431 1248.76V1250.76H651.432V1248.76V1246.76H651.431V1248.76ZM651.432 1248.76H653.432V1150H651.432H649.432V1248.76H651.432ZM651.432 1150V1152H734.472V1150V1148H651.432V1150ZM734.472 1150H732.472V1150H734.472H736.472V1150H734.472Z" fill="#B3C5D6" mask="url(#path-52-inside-1_821_37031)"/>
<mask id="path-54-inside-2_821_37031" fill="white">
<path d="M653.409 1291.7H515.009V1255.63H620.786V1150H653.409V1291.7Z"/>
</mask>
<path d="M653.409 1291.7H515.009V1255.63H620.786V1150H653.409V1291.7Z" fill="#DDE5ED"/>
<path d="M653.409 1291.7V1293.7H655.409V1291.7H653.409ZM515.009 1291.7H513.009V1293.7H515.009V1291.7ZM515.009 1255.63V1253.63H513.009V1255.63H515.009ZM620.786 1255.63V1257.63H622.786V1255.63H620.786ZM620.786 1150V1148H618.786V1150H620.786ZM653.409 1150H655.409V1148H653.409V1150ZM653.409 1291.7V1289.7H515.009V1291.7V1293.7H653.409V1291.7ZM515.009 1291.7H517.009V1255.63H515.009H513.009V1291.7H515.009ZM515.009 1255.63V1257.63H620.786V1255.63V1253.63H515.009V1255.63ZM620.786 1255.63H622.786V1150H620.786H618.786V1255.63H620.786ZM620.786 1150V1152H653.409V1150V1148H620.786V1150ZM653.409 1150H651.409V1291.7H653.409H655.409V1150H653.409Z" fill="#B3C5D6" mask="url(#path-54-inside-2_821_37031)"/>
<rect x="492.964" y="1256" width="35" height="91" transform="rotate(-180 492.964 1256)" fill="#DDE5ED" stroke="#B3C5D6" stroke-width="2"/>
<mask id="path-57-inside-3_821_37031" fill="white">
<path d="M1002.38 1204.1H972.719V1223.86H879.793V1204.1H850.14V1150H1002.38V1204.1Z"/>
</mask>
<path d="M1002.38 1204.1H972.719V1223.86H879.793V1204.1H850.14V1150H1002.38V1204.1Z" fill="#DDE5ED"/>
<path d="M1002.38 1204.1V1206.1H1004.38V1204.1H1002.38ZM972.719 1204.1V1202.1H970.719V1204.1H972.719ZM972.719 1223.86V1225.86H974.719V1223.86H972.719ZM879.793 1223.86H877.793V1225.86H879.793V1223.86ZM879.793 1204.1H881.793V1202.1H879.793V1204.1ZM850.14 1204.1H848.14V1206.1H850.14V1204.1ZM850.14 1150V1148H848.14V1150H850.14ZM1002.38 1150H1004.38V1148H1002.38V1150ZM1002.38 1204.1V1202.1H972.719V1204.1V1206.1H1002.38V1204.1ZM972.719 1204.1H970.719V1223.86H972.719H974.719V1204.1H972.719ZM972.719 1223.86V1221.86H879.793V1223.86V1225.86H972.719V1223.86ZM879.793 1223.86H881.793V1204.1H879.793H877.793V1223.86H879.793ZM879.793 1204.1V1202.1H850.14V1204.1V1206.1H879.793V1204.1ZM850.14 1204.1H852.14V1150H850.14H848.14V1204.1H850.14ZM850.14 1150V1152H1002.38V1150V1148H850.14V1150ZM1002.38 1150H1000.38V1204.1H1002.38H1004.38V1150H1002.38Z" fill="#B3C5D6" mask="url(#path-57-inside-3_821_37031)"/>
<path d="M1062.67 326H548.692L480.492 385.597L480 1150H1162" stroke="#CDCDCD" stroke-width="3"/>
<line x1="621.964" y1="1257.5" x2="456.964" y2="1257.5" stroke="#CDCDCD" stroke-width="3"/>
<line x1="493.964" y1="1165.5" x2="438.964" y2="1165.5" stroke="#CDCDCD" stroke-width="3"/>
<mask id="path-97-inside-4_821_37031" fill="white">
<path d="M1247.66 963.547L1349.27 1071.36L1289.87 1128.59L1188.26 1020.78L1247.66 963.547Z"/>
</mask>
<path d="M1247.66 963.547L1349.27 1071.36L1289.87 1128.59L1188.26 1020.78L1247.66 963.547Z" fill="white"/>
<path d="M1349.27 1071.36L1350.65 1072.82L1352.09 1071.43L1350.71 1069.98L1349.27 1071.36ZM1289.87 1128.59L1288.43 1129.98L1289.8 1131.44L1291.24 1130.05L1289.87 1128.59ZM1247.66 963.547L1246.22 964.934L1347.83 1072.75L1349.27 1071.36L1350.71 1069.98L1249.1 962.159L1247.66 963.547ZM1349.27 1071.36L1347.9 1069.91L1288.5 1127.14L1289.87 1128.59L1291.24 1130.05L1350.65 1072.82L1349.27 1071.36ZM1289.87 1128.59L1291.31 1127.2L1189.7 1019.39L1188.26 1020.78L1186.82 1022.16L1288.43 1129.98L1289.87 1128.59Z" fill="#CDCDCD" mask="url(#path-97-inside-4_821_37031)"/>
<path d="M1311.01 1122L1311.89 1202H1164.9L1164.91 1122H1311.01Z" fill="white" stroke="#CDCDCD" stroke-width="2"/>
<path d="M1279.03 1122.32L1340.43 1058.63C1346.94 1051.88 1357.61 1051.5 1364.55 1057.78L1507.21 1186.96C1513.38 1192.55 1509.41 1202.82 1501.08 1202.82L1431.06 1202.82L1431.06 1411.36L1316.51 1411.36L1316.51 1202.82L1288.22 1202.82C1281.64 1202.82 1276.31 1197.49 1276.31 1190.9L1276.31 1129.04C1276.31 1126.54 1277.29 1124.13 1279.03 1122.32Z" fill="white"/>
<path d="M1316.51 1202.82L1288.22 1202.82C1281.64 1202.82 1276.31 1197.49 1276.31 1190.9L1276.31 1129.04C1276.31 1126.54 1277.29 1124.13 1279.03 1122.32L1340.43 1058.63C1346.94 1051.88 1357.61 1051.5 1364.55 1057.78L1507.21 1186.96C1513.38 1192.55 1509.41 1202.82 1501.08 1202.82L1431.06 1202.82M1316.51 1202.82L1316.51 1411.36L1431.06 1411.36L1431.06 1202.82M1316.51 1202.82L1431.06 1202.82" stroke="#CDCDCD" stroke-width="2"/>
<mask id="path-103-inside-5_821_37031" fill="white">
<path d="M893.668 668.689V750.649H805.686V703.522H766.143V668.689H893.668Z"/>
</mask>
<path d="M893.668 668.689V750.649H805.686V703.522H766.143V668.689H893.668Z" fill="#DDE5ED"/>
<path d="M893.668 668.689H895.668V666.689H893.668V668.689ZM893.668 750.649V752.649H895.668V750.649H893.668ZM805.686 750.649H803.686V752.649H805.686V750.649ZM805.686 703.522H807.686V701.522H805.686V703.522ZM766.143 703.522H764.143V705.522H766.143V703.522ZM766.143 668.689V666.689H764.143V668.689H766.143ZM893.668 668.689H891.668V750.649H893.668H895.668V668.689H893.668ZM893.668 750.649V748.649H805.686V750.649V752.649H893.668V750.649ZM805.686 750.649H807.686V703.522H805.686H803.686V750.649H805.686ZM805.686 703.522V701.522H766.143V703.522V705.522H805.686V703.522ZM766.143 703.522H768.143V668.689H766.143H764.143V703.522H766.143ZM766.143 668.689V670.689H893.668V668.689V666.689H766.143V668.689Z" fill="#B3C5D6" mask="url(#path-103-inside-5_821_37031)"/>
<rect x="851.158" y="503.773" width="62" height="62" rx="2" fill="#2D2D2D"/>
<path d="M869.908 520.494H870.783C871.266 520.494 871.658 520.87 871.658 521.334V522.174C871.658 523.101 872.441 523.854 873.408 523.854C874.374 523.854 875.158 523.101 875.158 522.174V521.334C875.158 520.87 875.55 520.494 876.033 520.494H876.908C877.262 520.494 877.582 520.29 877.718 519.975C877.853 519.661 877.778 519.299 877.527 519.059L874.027 515.699C873.863 515.541 873.64 515.452 873.408 515.452C873.175 515.452 872.952 515.541 872.788 515.699L869.288 519.059C869.037 519.299 868.962 519.661 869.098 519.975C869.234 520.29 869.553 520.494 869.908 520.494Z" fill="white"/>
<path d="M890.288 523.609C890.452 523.767 890.675 523.856 890.908 523.856C891.14 523.856 891.363 523.767 891.527 523.609L895.027 520.249C895.278 520.009 895.353 519.647 895.218 519.332C895.082 519.018 894.762 518.813 894.408 518.814H893.533C893.05 518.814 892.658 518.438 892.658 517.974V517.134C892.658 516.206 891.874 515.454 890.908 515.454C889.941 515.454 889.158 516.206 889.158 517.134V517.974C889.158 518.438 888.766 518.814 888.283 518.814H887.408C887.053 518.813 886.734 519.018 886.598 519.332C886.462 519.647 886.537 520.009 886.788 520.249L890.288 523.609Z" fill="white"/>
<path d="M896.158 525.533C897.608 525.533 898.783 526.661 898.783 528.053V553.253C898.783 554.645 897.608 555.773 896.158 555.773H868.158C866.708 555.773 865.533 554.645 865.533 553.253V528.053C865.533 526.661 866.709 525.533 868.158 525.533H896.158ZM874.283 537.293C871.384 537.293 869.033 539.55 869.033 542.333V544.854C869.033 545.317 869.425 545.693 869.908 545.693H870.536C870.98 545.69 871.356 546.006 871.411 546.429L872.096 551.679C872.152 552.101 872.527 552.416 872.971 552.413H875.582C876.025 552.416 876.401 552.101 876.457 551.679L877.141 546.429C877.196 546.006 877.572 545.69 878.016 545.693H878.658C879.141 545.693 879.533 545.317 879.533 544.854V542.333C879.533 539.55 877.183 537.293 874.283 537.293ZM890.033 537.293C887.134 537.293 884.783 539.55 884.783 542.333V544.854C884.783 545.317 885.175 545.693 885.658 545.693H886.272C886.716 545.69 887.092 546.006 887.147 546.429L887.832 551.679C887.888 552.101 888.264 552.416 888.707 552.413H891.332C891.775 552.416 892.151 552.101 892.207 551.679L892.891 546.429C892.946 546.006 893.322 545.69 893.766 545.693H894.408C894.891 545.693 895.283 545.317 895.283 544.854V542.333C895.283 539.55 892.933 537.293 890.033 537.293ZM874.283 528.053C872.11 528.056 870.349 529.747 870.346 531.833C870.346 533.921 872.109 535.613 874.283 535.613C876.458 535.613 878.221 533.921 878.221 531.833C878.221 529.745 876.458 528.053 874.283 528.053ZM890.033 528.053C887.86 528.056 886.099 529.747 886.096 531.833C886.096 533.921 887.859 535.613 890.033 535.613C892.208 535.613 893.971 533.921 893.971 531.833C893.971 529.745 892.208 528.053 890.033 528.053Z" fill="white"/>
<path d="M479.951 585.233V521.265" stroke="white" stroke-width="3"/>
<mask id="path-110-inside-6_821_37031" fill="white">
<path d="M478.469 503.773H598.086V604.724H478.469V503.773Z"/>
</mask>
<path d="M598.086 503.773H601.086V500.773H598.086V503.773ZM598.086 604.724V607.724H601.086V604.724H598.086ZM478.469 503.773V506.773H598.086V503.773V500.773H478.469V503.773ZM598.086 503.773H595.086V604.724H598.086H601.086V503.773H598.086ZM598.086 604.724V601.724H478.469V604.724V607.724H598.086V604.724Z" fill="#CDCDCD" mask="url(#path-110-inside-6_821_37031)"/>
<rect x="481.436" y="463.793" width="30.6456" height="39.9803" fill="#8FA9C0"/>
<mask id="path-113-inside-7_821_37031" fill="white">
<path d="M1754.71 304.873H1860.49V355.848H1928.7V392.829H1954.4V410.82H2192.65V312.869H2236.15V373.839H2286.56V410.82H2286.56V447.803H1954.4V429.811H1860.49V355.848H1826.88V441.806H1796.23V474.788H1745.81V441.806H1650.91V355.848H1455.18V327.861H1333.58V311.869H1376.09V299.875H1754.71V304.873ZM2068.09 356.848H1950.45V324.863H2068.09V356.848ZM2286.56 345.853H2243.06V312.869H2286.56V345.853ZM2068.09 324.862H2013.72V295.877H2068.09V324.862Z"/>
</mask>
<path d="M1754.71 304.873H1860.49V355.848H1928.7V392.829H1954.4V410.82H2192.65V312.869H2236.15V373.839H2286.56V410.82H2286.56V447.803H1954.4V429.811H1860.49V355.848H1826.88V441.806H1796.23V474.788H1745.81V441.806H1650.91V355.848H1455.18V327.861H1333.58V311.869H1376.09V299.875H1754.71V304.873ZM2068.09 356.848H1950.45V324.863H2068.09V356.848ZM2286.56 345.853H2243.06V312.869H2286.56V345.853ZM2068.09 324.862H2013.72V295.877H2068.09V324.862Z" fill="#DDE5ED"/>
<path d="M1754.71 304.873H1752.71V306.873H1754.71V304.873ZM1860.49 304.873H1862.49V302.873H1860.49V304.873ZM1860.49 355.848H1858.49V357.848H1860.49V355.848ZM1928.7 355.848H1930.7V353.848H1928.7V355.848ZM1928.7 392.829H1926.7V394.829H1928.7V392.829ZM1954.4 392.829H1956.4V390.829H1954.4V392.829ZM1954.4 410.82H1952.4V412.82H1954.4V410.82ZM2192.65 410.82V412.82H2194.65V410.82H2192.65ZM2192.65 312.869V310.869H2190.65V312.869H2192.65ZM2236.15 312.869H2238.15V310.869H2236.15V312.869ZM2236.15 373.839H2234.15V375.839H2236.15V373.839ZM2286.56 373.839H2288.56V371.839H2286.56V373.839ZM2286.56 410.82V412.82H2288.56V410.82H2286.56ZM2286.56 410.82V408.82H2284.56V410.82H2286.56ZM2286.56 447.803V449.803H2288.56V447.803H2286.56ZM1954.4 447.803H1952.4V449.803H1954.4V447.803ZM1954.4 429.811H1956.4V427.811H1954.4V429.811ZM1860.49 429.811H1858.49V431.811H1860.49V429.811ZM1860.49 355.848H1862.49V353.848H1860.49V355.848ZM1826.88 355.848V353.848H1824.88V355.848H1826.88ZM1826.88 441.806V443.806H1828.88V441.806H1826.88ZM1796.23 441.806V439.806H1794.23V441.806H1796.23ZM1796.23 474.788V476.788H1798.23V474.788H1796.23ZM1745.81 474.788H1743.81V476.788H1745.81V474.788ZM1745.81 441.806H1747.81V439.806H1745.81V441.806ZM1650.91 441.806H1648.91V443.806H1650.91V441.806ZM1650.91 355.848H1652.91V353.848H1650.91V355.848ZM1455.18 355.848H1453.18V357.848H1455.18V355.848ZM1455.18 327.861H1457.18V325.861H1455.18V327.861ZM1333.58 327.861H1331.58V329.861H1333.58V327.861ZM1333.58 311.869V309.869H1331.58V311.869H1333.58ZM1376.09 311.869V313.869H1378.09V311.869H1376.09ZM1376.09 299.875V297.875H1374.09V299.875H1376.09ZM1754.71 299.875H1756.71V297.875H1754.71V299.875ZM2068.09 356.848V358.848H2070.09V356.848H2068.09ZM1950.45 356.848H1948.45V358.848H1950.45V356.848ZM1950.45 324.863V322.863H1948.45V324.863H1950.45ZM2068.09 324.863H2070.09V322.863H2068.09V324.863ZM2286.56 345.853V347.853H2288.56V345.853H2286.56ZM2243.06 345.853H2241.06V347.853H2243.06V345.853ZM2243.06 312.869V310.869H2241.06V312.869H2243.06ZM2286.56 312.869H2288.56V310.869H2286.56V312.869ZM2068.09 324.862V326.862H2070.09V324.862H2068.09ZM2013.72 324.862H2011.72V326.862H2013.72V324.862ZM2013.72 295.877V293.877H2011.72V295.877H2013.72ZM2068.09 295.877H2070.09V293.877H2068.09V295.877ZM1754.71 304.873V306.873H1860.49V304.873V302.873H1754.71V304.873ZM1860.49 304.873H1858.49V355.848H1860.49H1862.49V304.873H1860.49ZM1860.49 355.848V357.848H1928.7V355.848V353.848H1860.49V355.848ZM1928.7 355.848H1926.7V392.829H1928.7H1930.7V355.848H1928.7ZM1928.7 392.829V394.829H1954.4V392.829V390.829H1928.7V392.829ZM1954.4 392.829H1952.4V410.82H1954.4H1956.4V392.829H1954.4ZM1954.4 410.82V412.82H2192.65V410.82V408.82H1954.4V410.82ZM2192.65 410.82H2194.65V312.869H2192.65H2190.65V410.82H2192.65ZM2192.65 312.869V314.869H2236.15V312.869V310.869H2192.65V312.869ZM2236.15 312.869H2234.15V373.839H2236.15H2238.15V312.869H2236.15ZM2236.15 373.839V375.839H2286.56V373.839V371.839H2236.15V373.839ZM2286.56 373.839H2284.56V410.82H2286.56H2288.56V373.839H2286.56ZM2286.56 410.82V408.82H2286.56V410.82V412.82H2286.56V410.82ZM2286.56 410.82H2284.56V447.803H2286.56H2288.56V410.82H2286.56ZM2286.56 447.803V445.803H1954.4V447.803V449.803H2286.56V447.803ZM1954.4 447.803H1956.4V429.811H1954.4H1952.4V447.803H1954.4ZM1954.4 429.811V427.811H1860.49V429.811V431.811H1954.4V429.811ZM1860.49 429.811H1862.49V355.848H1860.49H1858.49V429.811H1860.49ZM1860.49 355.848V353.848H1826.88V355.848V357.848H1860.49V355.848ZM1826.88 355.848H1824.88V441.806H1826.88H1828.88V355.848H1826.88ZM1826.88 441.806V439.806H1796.23V441.806V443.806H1826.88V441.806ZM1796.23 441.806H1794.23V474.788H1796.23H1798.23V441.806H1796.23ZM1796.23 474.788V472.788H1745.81V474.788V476.788H1796.23V474.788ZM1745.81 474.788H1747.81V441.806H1745.81H1743.81V474.788H1745.81ZM1745.81 441.806V439.806H1650.91V441.806V443.806H1745.81V441.806ZM1650.91 441.806H1652.91V355.848H1650.91H1648.91V441.806H1650.91ZM1650.91 355.848V353.848H1455.18V355.848V357.848H1650.91V355.848ZM1455.18 355.848H1457.18V327.861H1455.18H1453.18V355.848H1455.18ZM1455.18 327.861V325.861H1333.58V327.861V329.861H1455.18V327.861ZM1333.58 327.861H1335.58V311.869H1333.58H1331.58V327.861H1333.58ZM1333.58 311.869V313.869H1376.09V311.869V309.869H1333.58V311.869ZM1376.09 311.869H1378.09V299.875H1376.09H1374.09V311.869H1376.09ZM1376.09 299.875V301.875H1754.71V299.875V297.875H1376.09V299.875ZM1754.71 299.875H1752.71V304.873H1754.71H1756.71V299.875H1754.71ZM2068.09 356.848V354.848H1950.45V356.848V358.848H2068.09V356.848ZM1950.45 356.848H1952.45V324.863H1950.45H1948.45V356.848H1950.45ZM1950.45 324.863V326.863H2068.09V324.863V322.863H1950.45V324.863ZM2068.09 324.863H2066.09V356.848H2068.09H2070.09V324.863H2068.09ZM2286.56 345.853V343.853H2243.06V345.853V347.853H2286.56V345.853ZM2243.06 345.853H2245.06V312.869H2243.06H2241.06V345.853H2243.06ZM2243.06 312.869V314.869H2286.56V312.869V310.869H2243.06V312.869ZM2286.56 312.869H2284.56V345.853H2286.56H2288.56V312.869H2286.56ZM2068.09 324.862V322.862H2013.72V324.862V326.862H2068.09V324.862ZM2013.72 324.862H2015.72V295.877H2013.72H2011.72V324.862H2013.72ZM2013.72 295.877V297.877H2068.09V295.877V293.877H2013.72V295.877ZM2068.09 295.877H2066.09V324.862H2068.09H2070.09V295.877H2068.09Z" fill="#B3C5D6" mask="url(#path-113-inside-7_821_37031)"/>
<rect x="2236.14" y="460.795" width="50.417" height="104.948" fill="#D9D9D9"/>
<path d="M1833.3 503.274V566.243L2228.24 566.742V481.784H2022.12V531.76H1965.77V497.277L1948.47 481.784H1852.09L1833.3 503.274Z" fill="#F6F6F6" stroke="#F6F6F6" stroke-width="3"/>
<path d="M1379.8 246.901V222.271H1490.22V199.924H1552.8V212.607" stroke="#CDCDCD" stroke-width="3"/>
<path d="M1650.91 376.836H1627.19V437.306" stroke="#E49D68" stroke-width="3"/>
<rect x="1963.3" y="481.784" width="62" height="62" rx="2" fill="#2D2D2D"/>
<path d="M2015.3 504.034C2015.3 503.068 2014.52 502.284 2013.55 502.284H2002.17C2000.72 502.284 1999.55 503.459 1999.55 504.909V508.409C1999.55 508.892 1999.16 509.284 1998.67 509.284H1995.17C1993.72 509.284 1992.55 510.459 1992.55 511.909V515.409C1992.55 515.892 1992.16 516.284 1991.67 516.284H1988.17C1986.72 516.284 1985.55 517.459 1985.55 518.909V522.409C1985.55 522.892 1985.16 523.284 1984.67 523.284H1981.17C1979.72 523.284 1978.55 524.459 1978.55 525.909V532.034C1978.55 533.001 1979.33 533.784 1980.3 533.784H2013.55C2014.52 533.784 2015.3 533.001 2015.3 532.034V504.034Z" fill="white"/>
<path d="M1994.12 502.029C1994.37 502.275 1994.75 502.347 1995.07 502.212C1995.4 502.076 1995.61 501.761 1995.61 501.409V492.659C1995.61 492.176 1995.22 491.784 1994.74 491.784H1985.99C1985.63 491.786 1985.32 492.001 1985.18 492.327C1985.05 492.654 1985.12 493.029 1985.37 493.279L1987.27 495.177C1987.43 495.342 1987.52 495.564 1987.52 495.797C1987.52 496.029 1987.43 496.252 1987.27 496.416L1974.07 509.615C1973.04 510.64 1973.04 512.303 1974.07 513.328C1975.09 514.354 1976.75 514.354 1977.78 513.328L1990.97 500.128C1991.14 499.964 1991.36 499.871 1991.59 499.871C1991.83 499.871 1992.05 499.964 1992.21 500.128L1994.12 502.029Z" fill="white"/>
<path d="M1395.86 89.4785V178.435H1450.73V89.4785H1395.86Z" fill="white" stroke="#CDCDCD" stroke-width="3"/>
<path d="M2038 89V178H2090V89H2038Z" fill="#F6F6F6" stroke="#CDCDCD" stroke-width="3"/>
<path d="M2134 89V178H2186V89H2134Z" fill="#F6F6F6" stroke="#CDCDCD" stroke-width="3"/>
<path d="M2154.61 134.021V142.781C2153.58 143.298 2152.47 143.683 2151.29 143.937C2150.1 144.19 2148.79 144.317 2147.35 144.317C2144.18 144.317 2141.74 143.501 2140.01 141.867C2138.29 140.225 2137.42 137.902 2137.42 134.897C2137.42 131.791 2138.29 129.362 2140.02 127.61C2141.76 125.85 2144.17 124.97 2147.25 124.97C2149.52 124.97 2151.33 125.49 2152.66 126.531C2153.99 127.572 2154.66 128.965 2154.66 130.708V131.051H2150.89C2150.84 129.9 2150.49 129.024 2149.83 128.423C2149.16 127.822 2148.23 127.521 2147.02 127.521C2145.32 127.521 2143.97 128.169 2142.98 129.464C2142 130.759 2141.51 132.528 2141.51 134.771C2141.51 136.971 2142.03 138.638 2143.06 139.772C2144.1 140.907 2145.63 141.474 2147.64 141.474C2148.17 141.474 2148.68 141.444 2149.19 141.385C2149.71 141.317 2150.21 141.22 2150.7 141.093L2150.71 137.005H2147.15V134.021H2154.61ZM2161.98 144V129.959C2161.15 130.535 2160.4 131.004 2159.73 131.368C2159.06 131.732 2158.43 132.016 2157.85 132.219V128.588C2158.74 128.207 2159.55 127.797 2160.29 127.356C2161.02 126.908 2161.7 126.417 2162.32 125.884H2165.83V144H2161.98ZM2178.25 134.923C2178.25 132.739 2178.04 131.093 2177.63 129.984C2177.22 128.876 2176.61 128.321 2175.8 128.321C2174.99 128.321 2174.38 128.871 2173.97 129.972C2173.57 131.063 2173.36 132.714 2173.36 134.923C2173.36 137.157 2173.56 138.82 2173.96 139.912C2174.37 141.004 2174.98 141.55 2175.8 141.55C2176.61 141.55 2177.22 140.995 2177.63 139.887C2178.04 138.778 2178.25 137.123 2178.25 134.923ZM2175.8 125.592C2177.88 125.592 2179.46 126.383 2180.52 127.966C2181.59 129.54 2182.12 131.859 2182.12 134.923C2182.12 137.987 2181.59 140.314 2180.51 141.905C2179.45 143.496 2177.88 144.292 2175.8 144.292C2173.73 144.292 2172.16 143.501 2171.09 141.918C2170.03 140.327 2169.49 137.995 2169.49 134.923C2169.49 131.842 2170.02 129.519 2171.08 127.953C2172.15 126.379 2173.72 125.592 2175.8 125.592Z" fill="#5B5B5B"/>
<path d="M2230 89V178H2282V89H2230Z" fill="#F6F6F6" stroke="#CDCDCD" stroke-width="3"/>
<path d="M2251.61 134.021V142.781C2250.58 143.298 2249.47 143.683 2248.29 143.937C2247.1 144.19 2245.79 144.317 2244.35 144.317C2241.18 144.317 2238.74 143.501 2237.01 141.867C2235.29 140.225 2234.42 137.902 2234.42 134.897C2234.42 131.791 2235.29 129.362 2237.02 127.61C2238.76 125.85 2241.17 124.97 2244.25 124.97C2246.52 124.97 2248.33 125.49 2249.66 126.531C2250.99 127.572 2251.66 128.965 2251.66 130.708V131.051H2247.89C2247.84 129.9 2247.49 129.024 2246.83 128.423C2246.16 127.822 2245.23 127.521 2244.02 127.521C2242.32 127.521 2240.97 128.169 2239.98 129.464C2239 130.759 2238.51 132.528 2238.51 134.771C2238.51 136.971 2239.03 138.638 2240.06 139.772C2241.1 140.907 2242.63 141.474 2244.64 141.474C2245.17 141.474 2245.68 141.444 2246.19 141.385C2246.71 141.317 2247.21 141.22 2247.7 141.093L2247.71 137.005H2244.15V134.021H2251.61ZM2258.98 144V129.959C2258.15 130.535 2257.4 131.004 2256.73 131.368C2256.06 131.732 2255.43 132.016 2254.85 132.219V128.588C2255.74 128.207 2256.55 127.797 2257.29 127.356C2258.02 126.908 2258.7 126.417 2259.32 125.884H2262.83V144H2258.98ZM2272.33 144V129.959C2271.5 130.535 2270.75 131.004 2270.08 131.368C2269.42 131.732 2268.79 132.016 2268.21 132.219V128.588C2269.09 128.207 2269.91 127.797 2270.64 127.356C2271.38 126.908 2272.06 126.417 2272.67 125.884H2276.19V144H2272.33Z" fill="#5B5B5B"/>
<path d="M1762.62 161.76V178.751H1796.23V161.76L1800.71 156.421C1806.76 149.217 1810.07 140.12 1810.07 130.715V79.0856C1810.07 65.483 1805.02 50.8797 1792.03 46.8517C1782.69 43.9551 1773.43 44.758 1765.5 47.1916C1752.04 51.3188 1746.4 65.836 1746.56 79.9142L1747.12 129.815C1747.23 139.759 1751.05 149.304 1757.82 156.589L1762.62 161.76Z" fill="#F6F6F6" stroke="#CDCDCD" stroke-width="3"/>
<path d="M1914.36 161.76V178.751H1947.98V161.76L1952.46 156.421C1958.5 149.217 1961.82 140.12 1961.82 130.715V79.0856C1961.82 65.483 1956.77 50.8797 1943.77 46.8517C1934.43 43.9551 1925.18 44.758 1917.24 47.1916C1903.78 51.3188 1898.14 65.836 1898.3 79.9142L1898.87 129.815C1898.98 139.759 1902.79 149.304 1909.56 156.589L1914.36 161.76Z" fill="#F6F6F6" stroke="#CDCDCD" stroke-width="3"/>
<path d="M1197.16 151.947V177.934H1240.16V151.947L1272.72 110.303C1282.99 97.1729 1273.63 77.9834 1256.97 77.9834H1179.24C1162.42 77.9834 1153.12 97.4807 1163.69 110.559L1197.16 151.947Z" fill="#F6F6F6" stroke="#CDCDCD" stroke-width="3"/>
<path d="M1218.97 113.021V121.781C1217.94 122.298 1216.83 122.683 1215.64 122.937C1214.46 123.19 1213.14 123.317 1211.71 123.317C1208.54 123.317 1206.09 122.501 1204.37 120.867C1202.64 119.225 1201.78 116.902 1201.78 113.897C1201.78 110.791 1202.65 108.362 1204.38 106.61C1206.12 104.85 1208.52 103.97 1211.6 103.97C1213.88 103.97 1215.68 104.49 1217.01 105.531C1218.35 106.572 1219.02 107.965 1219.02 109.708V110.051H1215.25C1215.2 108.9 1214.84 108.024 1214.18 107.423C1213.52 106.822 1212.59 106.521 1211.38 106.521C1209.67 106.521 1208.33 107.169 1207.34 108.464C1206.36 109.759 1205.87 111.528 1205.87 113.771C1205.87 115.971 1206.38 117.638 1207.42 118.772C1208.46 119.907 1209.98 120.474 1212 120.474C1212.52 120.474 1213.04 120.444 1213.55 120.385C1214.06 120.317 1214.57 120.22 1215.06 120.093L1215.07 116.005H1211.5V113.021H1218.97ZM1229.3 117.198C1229.3 116.242 1229.09 115.484 1228.66 114.926C1228.23 114.367 1227.66 114.088 1226.94 114.088C1226.21 114.088 1225.64 114.367 1225.21 114.926C1224.8 115.476 1224.59 116.233 1224.59 117.198C1224.59 118.146 1224.8 118.908 1225.23 119.483C1225.66 120.059 1226.22 120.347 1226.9 120.347C1227.64 120.347 1228.22 120.067 1228.66 119.509C1229.09 118.942 1229.3 118.172 1229.3 117.198ZM1224.64 112.501C1225.17 112.052 1225.7 111.718 1226.23 111.498C1226.76 111.278 1227.31 111.168 1227.87 111.168C1229.48 111.168 1230.77 111.688 1231.74 112.729C1232.71 113.771 1233.2 115.159 1233.2 116.894C1233.2 118.823 1232.62 120.376 1231.47 121.553C1230.33 122.729 1228.82 123.317 1226.94 123.317C1224.81 123.317 1223.2 122.628 1222.13 121.248C1221.06 119.86 1220.52 117.799 1220.52 115.065C1220.52 111.621 1221.1 109.018 1222.26 107.258C1223.42 105.497 1225.13 104.617 1227.4 104.617C1229.01 104.617 1230.26 105.023 1231.16 105.836C1232.05 106.648 1232.51 107.783 1232.53 109.238H1229.2C1229.12 108.637 1228.91 108.163 1228.55 107.816C1228.21 107.469 1227.76 107.296 1227.22 107.296C1226.36 107.296 1225.71 107.715 1225.28 108.553C1224.86 109.391 1224.64 110.652 1224.64 112.336V112.501Z" fill="#5B5B5B"/>
<path d="M490.826 152.947V178.934H533.829V152.947L566.39 111.303C576.656 98.1729 567.301 78.9834 550.634 78.9834H472.911C456.092 78.9834 446.784 98.4807 457.359 111.559L490.826 152.947Z" fill="#F6F6F6" stroke="#CDCDCD" stroke-width="3"/>
<path d="M512.968 113.021V121.781C511.935 122.298 510.826 122.683 509.642 122.937C508.457 123.19 507.145 123.317 505.706 123.317C502.541 123.317 500.095 122.501 498.368 120.867C496.642 119.225 495.778 116.902 495.778 113.897C495.778 110.791 496.646 108.362 498.381 106.61C500.116 104.85 502.524 103.97 505.604 103.97C507.881 103.97 509.684 104.49 511.013 105.531C512.35 106.572 513.019 107.965 513.019 109.708V110.051H509.248C509.197 108.9 508.842 108.024 508.182 107.423C507.521 106.822 506.586 106.521 505.376 106.521C503.675 106.521 502.329 107.169 501.339 108.464C500.357 109.759 499.866 111.528 499.866 113.771C499.866 115.971 500.382 117.638 501.415 118.772C502.456 119.907 503.984 120.474 505.998 120.474C506.523 120.474 507.039 120.444 507.547 120.385C508.063 120.317 508.567 120.22 509.058 120.093L509.07 116.005H505.503V113.021H512.968ZM514.594 118.455H518.517C518.534 119.064 518.715 119.543 519.062 119.89C519.418 120.228 519.896 120.397 520.497 120.397C521.318 120.397 521.97 120.08 522.452 119.445C522.935 118.811 523.176 117.943 523.176 116.843C523.176 115.895 522.956 115.129 522.516 114.545C522.076 113.961 521.504 113.669 520.802 113.669C520.252 113.669 519.773 113.83 519.367 114.151C518.969 114.473 518.669 114.934 518.466 115.535H514.645L515.063 104.884H525.905V107.816H518.491L518.237 112.234C518.728 111.803 519.24 111.49 519.773 111.295C520.315 111.092 520.912 110.99 521.563 110.99C523.172 110.99 524.483 111.519 525.499 112.577C526.515 113.635 527.022 115.002 527.022 116.678C527.022 118.65 526.396 120.249 525.144 121.477C523.899 122.704 522.27 123.317 520.256 123.317C518.538 123.317 517.162 122.882 516.13 122.01C515.106 121.13 514.594 119.962 514.594 118.506V118.455Z" fill="#5B5B5B"/>
<rect x="465.553" y="191.003" width="25.8326" height="25.8326" rx="1" fill="#DDE5ED" stroke="#B3C5D6" stroke-width="2"/>
<rect x="141.303" y="629.787" width="25.8326" height="25.8326" rx="1" fill="#DDE5ED" stroke="#B3C5D6" stroke-width="2"/>
<rect x="141.301" y="408.896" width="25.8326" height="25.8326" rx="1" fill="#DDE5ED" stroke="#B3C5D6" stroke-width="2"/>
<rect x="141.303" y="887.659" width="25.8326" height="25.8326" rx="1" fill="#DDE5ED" stroke="#B3C5D6" stroke-width="2"/>
<rect x="1236.64" y="187.005" width="25.8326" height="25.8326" rx="1" fill="#DDE5ED" stroke="#B3C5D6" stroke-width="2"/>
<rect x="1732.9" y="191.003" width="25.8326" height="25.8326" rx="1" fill="#DDE5ED" stroke="#B3C5D6" stroke-width="2"/>
<rect x="1885.14" y="191.003" width="25.8326" height="25.8326" rx="1" fill="#DDE5ED" stroke="#B3C5D6" stroke-width="2"/>
<rect x="2011.67" y="191.003" width="25.8326" height="25.8326" rx="1" fill="#DDE5ED" stroke="#B3C5D6" stroke-width="2"/>
<rect x="2107.57" y="191.003" width="25.8326" height="25.8326" rx="1" fill="#DDE5ED" stroke="#B3C5D6" stroke-width="2"/>
<rect x="2203.46" y="191.003" width="25.8326" height="25.8326" rx="1" fill="#DDE5ED" stroke="#B3C5D6" stroke-width="2"/>
<rect x="1974.17" y="366.841" width="62" height="62" rx="2" fill="#2D2D2D"/>
<path d="M1992.92 379.896C1996 379.896 1998.72 381.908 1999.62 384.853C2000.51 387.798 1999.38 390.984 1996.83 392.703C1996.6 392.853 1996.46 393.097 1996.44 393.365C1996.42 393.633 1996.53 393.896 1996.73 394.077C1997.46 394.745 1998.01 395.598 1998.3 396.546L2001.63 407.205C2001.71 407.471 2001.67 407.76 2001.5 407.984C2001.34 408.208 2001.08 408.341 2000.8 408.341H1998.42C1997.97 408.338 1997.6 408.667 1997.54 409.107L1996.42 418.076C1996.37 418.516 1995.99 418.844 1995.55 418.841H1990.3C1989.85 418.844 1989.48 418.516 1989.42 418.076L1988.31 409.107C1988.26 408.667 1987.88 408.337 1987.44 408.341H1985.05C1984.77 408.34 1984.51 408.207 1984.34 407.983C1984.18 407.759 1984.13 407.47 1984.21 407.205L1987.54 396.546C1987.84 395.598 1988.38 394.745 1989.11 394.077C1989.31 393.896 1989.42 393.633 1989.4 393.365C1989.38 393.097 1989.24 392.853 1989.01 392.703C1986.46 390.984 1985.33 387.798 1986.23 384.853C1987.12 381.908 1989.84 379.896 1992.92 379.896ZM1993.51 385.32C1993.18 385.014 1992.67 385.014 1992.33 385.32C1991.66 385.934 1990.88 386.432 1990.04 386.794C1989.64 386.968 1989.43 387.406 1989.55 387.824C1989.96 389.345 1991.34 390.402 1992.92 390.402C1994.49 390.402 1995.87 389.345 1996.28 387.824C1996.4 387.406 1996.19 386.968 1995.79 386.794C1994.95 386.431 1994.19 385.933 1993.51 385.32Z" fill="white"/>
<path d="M2005.17 376.841C2004.21 376.841 2003.42 377.624 2003.42 378.591V417.091C2003.42 418.057 2004.21 418.841 2005.17 418.841C2006.14 418.841 2006.92 418.057 2006.92 417.091V378.591C2006.92 377.624 2006.14 376.841 2005.17 376.841Z" fill="white"/>
<path d="M2017.42 379.863C2020.41 379.863 2023.06 381.757 2024.04 384.579C2025.01 387.401 2024.09 390.53 2021.74 392.372C2021.51 392.551 2021.39 392.831 2021.41 393.12C2021.43 393.409 2021.59 393.669 2021.84 393.815C2024.52 395.374 2026.17 398.24 2026.17 401.341V405.716C2026.17 406.199 2025.78 406.591 2025.3 406.591H2022.94C2022.49 406.588 2022.11 406.926 2022.07 407.373L2020.92 418.061C2020.87 418.506 2020.5 418.843 2020.05 418.841H2014.8C2014.35 418.843 2013.97 418.506 2013.92 418.061L2012.79 407.373C2012.74 406.926 2012.36 406.588 2011.91 406.591H2009.55C2009.06 406.591 2008.67 406.199 2008.67 405.716V401.341C2008.67 398.24 2010.32 395.374 2013 393.815C2013.25 393.669 2013.42 393.409 2013.44 393.12C2013.46 392.831 2013.33 392.551 2013.1 392.372C2010.75 390.53 2009.83 387.401 2010.81 384.579C2011.78 381.757 2014.44 379.863 2017.42 379.863ZM2015.24 385.538C2015 385.425 2014.72 385.427 2014.48 385.542C2014.25 385.657 2014.07 385.873 2014.01 386.13C2013.95 386.383 2013.92 386.643 2013.92 386.903C2013.92 388.836 2015.49 390.403 2017.42 390.403C2019.35 390.403 2020.92 388.836 2020.92 386.903C2020.92 386.766 2020.87 386.633 2020.77 386.539C2020.66 386.446 2020.53 386.401 2020.39 386.415C2020.08 386.448 2019.78 386.465 2019.47 386.466C2018.01 386.467 2016.57 386.15 2015.24 385.538Z" fill="white"/>
<rect x="1810.07" y="410.819" width="62" height="62" rx="2" fill="#2D2D2D"/>
<path d="M1828.82 423.874C1831.9 423.874 1834.61 425.886 1835.51 428.831C1836.41 431.776 1835.28 434.963 1832.72 436.682C1832.5 436.831 1832.36 437.076 1832.34 437.344C1832.32 437.612 1832.42 437.875 1832.62 438.056C1833.36 438.724 1833.9 439.576 1834.2 440.524L1837.53 451.184C1837.61 451.449 1837.56 451.739 1837.4 451.963C1837.23 452.187 1836.97 452.319 1836.69 452.319H1834.32C1833.87 452.316 1833.5 452.646 1833.44 453.086L1832.32 462.055C1832.26 462.494 1831.89 462.823 1831.44 462.819H1826.19C1825.75 462.823 1825.37 462.494 1825.32 462.055L1824.21 453.086C1824.16 452.646 1823.78 452.316 1823.34 452.319H1820.94C1820.67 452.319 1820.41 452.186 1820.24 451.962C1820.08 451.738 1820.03 451.449 1820.11 451.184L1823.44 440.524C1823.73 439.576 1824.28 438.724 1825.01 438.056C1825.21 437.875 1825.31 437.612 1825.29 437.344C1825.27 437.076 1825.13 436.831 1824.91 436.682C1822.35 434.963 1821.22 431.776 1822.12 428.831C1823.02 425.886 1825.74 423.874 1828.82 423.874ZM1829.41 429.299C1829.08 428.993 1828.56 428.993 1828.23 429.299C1827.55 429.913 1826.78 430.411 1825.94 430.772C1825.54 430.946 1825.33 431.384 1825.44 431.803C1825.86 433.324 1827.24 434.381 1828.81 434.381C1830.39 434.381 1831.77 433.324 1832.18 431.803C1832.29 431.384 1832.08 430.946 1831.69 430.772C1830.85 430.41 1830.08 429.912 1829.41 429.299Z" fill="white"/>
<path d="M1841.07 420.819C1840.1 420.819 1839.32 421.603 1839.32 422.569V461.069C1839.32 462.036 1840.1 462.819 1841.07 462.819C1842.03 462.819 1842.82 462.036 1842.82 461.069V422.569C1842.82 421.603 1842.03 420.819 1841.07 420.819Z" fill="white"/>
<path d="M1853.32 423.842C1856.3 423.842 1858.96 425.736 1859.93 428.558C1860.91 431.379 1859.99 434.509 1857.64 436.351C1857.41 436.529 1857.29 436.81 1857.3 437.099C1857.32 437.387 1857.49 437.648 1857.74 437.794C1860.42 439.353 1862.07 442.219 1862.07 445.319V449.694C1862.07 450.178 1861.68 450.569 1861.19 450.569H1858.84C1858.39 450.567 1858.01 450.905 1857.96 451.352L1856.82 462.039C1856.77 462.485 1856.39 462.822 1855.94 462.819H1850.69C1850.24 462.822 1849.87 462.485 1849.82 462.039L1848.68 451.352C1848.64 450.905 1848.26 450.567 1847.81 450.569H1845.44C1844.96 450.569 1844.57 450.178 1844.57 449.694V445.319C1844.57 442.219 1846.22 439.353 1848.9 437.794C1849.15 437.648 1849.31 437.387 1849.33 437.099C1849.35 436.81 1849.23 436.529 1849 436.351C1846.65 434.509 1845.73 431.379 1846.7 428.558C1847.68 425.736 1850.33 423.842 1853.32 423.842ZM1851.13 429.517C1850.9 429.404 1850.62 429.406 1850.38 429.521C1850.14 429.635 1849.97 429.851 1849.91 430.108C1849.85 430.362 1849.82 430.621 1849.82 430.882C1849.82 432.815 1851.39 434.382 1853.32 434.382C1855.25 434.382 1856.82 432.815 1856.82 430.882C1856.82 430.744 1856.76 430.612 1856.66 430.518C1856.56 430.425 1856.42 430.38 1856.28 430.394C1855.98 430.426 1855.67 430.443 1855.37 430.444C1853.91 430.445 1852.46 430.129 1851.13 429.517Z" fill="white"/>
<rect x="1593" y="310" width="62" height="62" rx="2" fill="#2D2D2D"/>
<path d="M1611.75 323.055C1614.83 323.055 1617.54 325.067 1618.44 328.012C1619.34 330.957 1618.21 334.143 1615.65 335.862C1615.43 336.012 1615.29 336.256 1615.27 336.524C1615.25 336.793 1615.36 337.055 1615.55 337.236C1616.29 337.904 1616.83 338.757 1617.13 339.705L1620.46 350.364C1620.54 350.63 1620.49 350.919 1620.33 351.144C1620.16 351.368 1619.9 351.5 1619.62 351.5H1617.25C1616.8 351.497 1616.43 351.826 1616.37 352.267L1615.25 361.235C1615.19 361.675 1614.82 362.003 1614.37 362H1609.12C1608.68 362.004 1608.31 361.675 1608.25 361.235L1607.14 352.267C1607.09 351.826 1606.71 351.497 1606.27 351.5H1603.87C1603.6 351.499 1603.34 351.367 1603.17 351.143C1603.01 350.918 1602.96 350.63 1603.04 350.364L1606.37 339.705C1606.66 338.757 1607.21 337.904 1607.94 337.236C1608.14 337.055 1608.25 336.793 1608.23 336.524C1608.21 336.256 1608.06 336.012 1607.84 335.862C1605.29 334.143 1604.15 330.957 1605.05 328.012C1605.95 325.067 1608.67 323.055 1611.75 323.055ZM1612.34 328.479C1612.01 328.174 1611.49 328.174 1611.16 328.479C1610.48 329.093 1609.71 329.591 1608.87 329.953C1608.47 330.127 1608.26 330.565 1608.38 330.983C1608.79 332.505 1610.17 333.562 1611.74 333.562C1613.32 333.561 1614.7 332.504 1615.11 330.983C1615.22 330.565 1615.01 330.127 1614.62 329.953C1613.78 329.59 1613.01 329.093 1612.34 328.479Z" fill="white"/>
<path d="M1624 320C1623.03 320 1622.25 320.784 1622.25 321.75V360.25C1622.25 361.216 1623.03 362 1624 362C1624.97 362 1625.75 361.216 1625.75 360.25V321.75C1625.75 320.784 1624.97 320 1624 320Z" fill="white"/>
<path d="M1636.25 323.022C1639.23 323.022 1641.89 324.916 1642.87 327.738C1643.84 330.56 1642.92 333.689 1640.57 335.531C1640.34 335.71 1640.22 335.99 1640.24 336.279C1640.26 336.568 1640.42 336.828 1640.67 336.975C1643.35 338.533 1645 341.399 1645 344.5V348.875C1645 349.358 1644.61 349.75 1644.12 349.75H1641.77C1641.32 349.747 1640.94 350.086 1640.89 350.532L1639.75 361.22C1639.7 361.666 1639.32 362.003 1638.87 362H1633.62C1633.18 362.003 1632.8 361.666 1632.75 361.22L1631.62 350.532C1631.57 350.086 1631.19 349.748 1630.74 349.75H1628.37C1627.89 349.75 1627.5 349.358 1627.5 348.875V344.5C1627.5 341.399 1629.15 338.533 1631.83 336.975C1632.08 336.828 1632.24 336.568 1632.26 336.279C1632.28 335.99 1632.16 335.71 1631.93 335.531C1629.58 333.689 1628.66 330.56 1629.63 327.738C1630.61 324.916 1633.26 323.022 1636.25 323.022ZM1634.07 328.697C1633.83 328.585 1633.55 328.586 1633.31 328.701C1633.07 328.816 1632.9 329.032 1632.84 329.289C1632.78 329.542 1632.75 329.802 1632.75 330.062C1632.75 331.995 1634.32 333.562 1636.25 333.562C1638.18 333.562 1639.75 331.995 1639.75 330.062C1639.75 329.925 1639.69 329.793 1639.59 329.698C1639.49 329.605 1639.35 329.56 1639.21 329.574C1638.91 329.607 1638.6 329.624 1638.3 329.625C1636.84 329.626 1635.39 329.309 1634.07 328.697Z" fill="white"/>
<path d="M745.381 702.676H878.838M783.298 324.862H861.79" stroke="#CDCDCD" stroke-width="3"/>
<rect x="800.742" y="699.677" width="62" height="62" rx="2" fill="#2D2D2D"/>
<path d="M852.742 721.927C852.742 720.96 851.959 720.177 850.992 720.177H839.617C838.167 720.177 836.992 721.352 836.992 722.802V726.302C836.992 726.785 836.6 727.177 836.117 727.177H832.617C831.167 727.177 829.992 728.352 829.992 729.802V733.302C829.992 733.785 829.6 734.177 829.117 734.177H825.617C824.167 734.177 822.992 735.352 822.992 736.802V740.302C822.992 740.785 822.6 741.177 822.117 741.177H818.617C817.167 741.177 815.992 742.352 815.992 743.802V749.927C815.992 750.893 816.776 751.677 817.742 751.677H850.992C851.959 751.677 852.742 750.893 852.742 749.927V721.927Z" fill="white"/>
<path d="M831.567 719.921C831.818 720.167 832.192 720.239 832.516 720.104C832.84 719.969 833.052 719.653 833.055 719.302V710.552C833.055 710.069 832.663 709.677 832.18 709.677H823.43C823.076 709.679 822.759 709.893 822.625 710.22C822.491 710.547 822.567 710.922 822.817 711.171L824.711 713.07C824.875 713.234 824.968 713.457 824.968 713.69C824.968 713.922 824.875 714.145 824.711 714.309L811.51 727.508C810.485 728.533 810.485 730.196 811.51 731.221C812.536 732.246 814.198 732.246 815.224 731.221L828.417 718.021C828.581 717.856 828.804 717.764 829.037 717.764C829.269 717.764 829.492 717.856 829.656 718.021L831.567 719.921Z" fill="white"/>
<rect x="141.301" y="987.61" width="25.8326" height="25.8326" rx="1" fill="#DDE5ED" stroke="#B3C5D6" stroke-width="2"/>
<rect x="918" y="504" width="61.2912" height="61.9694" rx="2" fill="#2D2D2D"/>
<path d="M958.465 528.075C958.807 528.417 958.807 528.971 958.465 529.312L956.255 531.521C956.004 531.771 955.929 532.148 956.065 532.475C956.201 532.803 956.52 533.016 956.875 533.015H965.625C966.108 533.015 966.5 532.623 966.5 532.14V523.39C966.5 523.036 966.286 522.717 965.959 522.582C965.632 522.449 965.257 522.524 965.005 522.771L962.797 524.981C962.455 525.323 961.901 525.323 961.559 524.981L953.172 516.593C952.622 516.025 951.809 515.797 951.044 515.997C950.279 516.198 949.682 516.795 949.482 517.56C949.282 518.325 949.511 519.138 950.079 519.687L958.465 528.075Z" fill="white"/>
<path d="M970 547.891C970 544.508 967.258 541.766 963.875 541.766H957.974C957.733 541.765 957.502 541.665 957.337 541.489L945.25 528.597C944.753 528.067 944.06 527.766 943.333 527.766H934.125C930.742 527.766 928 530.508 928 533.891C928 537.273 930.742 540.016 934.125 540.016H939.151C939.392 540.016 939.623 540.116 939.788 540.292L951.877 553.184C952.373 553.714 953.066 554.015 953.792 554.016H963.875C967.258 554.016 970 551.273 970 547.891Z" fill="white"/>
<rect x="1099" y="1085" width="61.2912" height="61.9694" rx="2" fill="#2D2D2D"/>
<path d="M1139.47 1109.07C1139.81 1109.42 1139.81 1109.97 1139.47 1110.31L1137.26 1112.52C1137 1112.77 1136.93 1113.15 1137.06 1113.48C1137.2 1113.8 1137.52 1114.02 1137.87 1114.02H1146.62C1147.11 1114.02 1147.5 1113.62 1147.5 1113.14V1104.39C1147.5 1104.04 1147.29 1103.72 1146.96 1103.58C1146.63 1103.45 1146.26 1103.52 1146.01 1103.77L1143.8 1105.98C1143.46 1106.32 1142.9 1106.32 1142.56 1105.98L1134.17 1097.59C1133.62 1097.02 1132.81 1096.8 1132.04 1097C1131.28 1097.2 1130.68 1097.8 1130.48 1098.56C1130.28 1099.32 1130.51 1100.14 1131.08 1100.69L1139.47 1109.07Z" fill="white"/>
<path d="M1151 1128.89C1151 1125.51 1148.26 1122.77 1144.88 1122.77H1138.97C1138.73 1122.77 1138.5 1122.67 1138.34 1122.49L1126.25 1109.6C1125.75 1109.07 1125.06 1108.77 1124.33 1108.77H1115.12C1111.74 1108.77 1109 1111.51 1109 1114.89C1109 1118.27 1111.74 1121.02 1115.12 1121.02H1120.15C1120.39 1121.02 1120.62 1121.12 1120.79 1121.29L1132.88 1134.18C1133.37 1134.71 1134.07 1135.02 1134.79 1135.02H1144.88C1148.26 1135.02 1151 1132.27 1151 1128.89Z" fill="white"/>
<rect x="1439" y="490" width="62" height="62" rx="2" fill="#2D2D2D"/>
<path d="M1457.75 506.72H1458.62C1459.11 506.72 1459.5 507.096 1459.5 507.56V508.4C1459.5 509.328 1460.28 510.08 1461.25 510.08C1462.22 510.08 1463 509.328 1463 508.4V507.56C1463 507.096 1463.39 506.72 1463.87 506.72H1464.75C1465.1 506.721 1465.42 506.516 1465.56 506.202C1465.7 505.888 1465.62 505.526 1465.37 505.285L1461.87 501.925C1461.7 501.768 1461.48 501.679 1461.25 501.679C1461.02 501.679 1460.79 501.768 1460.63 501.925L1457.13 505.285C1456.88 505.526 1456.8 505.888 1456.94 506.202C1457.08 506.516 1457.4 506.721 1457.75 506.72Z" fill="white"/>
<path d="M1478.13 509.835C1478.29 509.993 1478.52 510.082 1478.75 510.082C1478.98 510.082 1479.2 509.993 1479.37 509.835L1482.87 506.475C1483.12 506.235 1483.2 505.873 1483.06 505.559C1482.92 505.245 1482.6 505.04 1482.25 505.041H1481.37C1480.89 505.041 1480.5 504.665 1480.5 504.201V503.361C1480.5 502.433 1479.72 501.681 1478.75 501.681C1477.78 501.681 1477 502.433 1477 503.361V504.201C1477 504.665 1476.61 505.041 1476.12 505.041H1475.25C1474.9 505.04 1474.58 505.245 1474.44 505.559C1474.3 505.873 1474.38 506.235 1474.63 506.475L1478.13 509.835Z" fill="white"/>
<path d="M1484 511.76C1485.45 511.76 1486.62 512.888 1486.62 514.279V539.479C1486.62 540.871 1485.45 542 1484 542H1456C1454.55 542 1453.38 540.871 1453.38 539.479V514.279C1453.38 512.888 1454.55 511.76 1456 511.76H1484ZM1462.12 523.52C1459.23 523.52 1456.88 525.776 1456.88 528.56V531.08C1456.88 531.544 1457.27 531.92 1457.75 531.92H1458.38C1458.82 531.917 1459.2 532.233 1459.25 532.655L1459.94 537.905C1459.99 538.327 1460.37 538.643 1460.81 538.64H1463.42C1463.87 538.643 1464.24 538.327 1464.3 537.905L1464.98 532.655C1465.04 532.233 1465.41 531.917 1465.86 531.92H1466.5C1466.98 531.92 1467.37 531.544 1467.38 531.08V528.56C1467.37 525.776 1465.02 523.52 1462.12 523.52ZM1477.88 523.52C1474.98 523.52 1472.63 525.776 1472.62 528.56V531.08C1472.63 531.544 1473.02 531.92 1473.5 531.92H1474.11C1474.56 531.917 1474.93 532.233 1474.99 532.655L1475.67 537.905C1475.73 538.327 1476.11 538.643 1476.55 538.64H1479.17C1479.62 538.643 1479.99 538.327 1480.05 537.905L1480.73 532.655C1480.79 532.233 1481.16 531.917 1481.61 531.92H1482.25C1482.73 531.92 1483.12 531.544 1483.12 531.08V528.56C1483.12 525.776 1480.77 523.52 1477.88 523.52ZM1462.12 514.279C1459.95 514.282 1458.19 515.973 1458.19 518.06C1458.19 520.147 1459.95 521.84 1462.12 521.84C1464.3 521.84 1466.06 520.147 1466.06 518.06C1466.06 515.972 1464.3 514.279 1462.12 514.279ZM1477.88 514.279C1475.7 514.282 1473.94 515.973 1473.94 518.06C1473.94 520.147 1475.7 521.84 1477.88 521.84C1480.05 521.84 1481.81 520.147 1481.81 518.06C1481.81 515.972 1480.05 514.279 1477.88 514.279Z" fill="white"/>
<line x1="1551.5" y1="300" x2="1551.5" y2="180" stroke="#CDCDCD" stroke-width="7"/>
<path d="M1779.97 104.021V112.781C1778.94 113.298 1777.83 113.683 1776.64 113.937C1775.46 114.19 1774.14 114.317 1772.71 114.317C1769.54 114.317 1767.09 113.501 1765.37 111.867C1763.64 110.225 1762.78 107.902 1762.78 104.897C1762.78 101.791 1763.65 99.3623 1765.38 97.6104C1767.12 95.8499 1769.52 94.9697 1772.6 94.9697C1774.88 94.9697 1776.68 95.4902 1778.01 96.5312C1779.35 97.5723 1780.02 98.9645 1780.02 100.708V101.051H1776.25C1776.2 99.8997 1775.84 99.0238 1775.18 98.4229C1774.52 97.8219 1773.59 97.5215 1772.38 97.5215C1770.67 97.5215 1769.33 98.1689 1768.34 99.4639C1767.36 100.759 1766.87 102.528 1766.87 104.771C1766.87 106.971 1767.38 108.638 1768.42 109.772C1769.46 110.907 1770.98 111.474 1773 111.474C1773.52 111.474 1774.04 111.444 1774.55 111.385C1775.06 111.317 1775.57 111.22 1776.06 111.093L1776.07 107.005H1772.5V104.021H1779.97ZM1783.13 114L1789.78 98.9688H1781.4V95.8838H1793.5V99.3369L1787.45 114H1783.13Z" fill="#5B5B5B"/>
<defs>
<filter id="filter0_d_821_37031" x="1579" y="387" width="256" height="76" filterUnits="userSpaceOnUse" color-interpolation-filters="sRGB">
<feFlood flood-opacity="0" result="BackgroundImageFix"/>
<feColorMatrix in="SourceAlpha" type="matrix" values="0 0 0 0 0 0 0 0 0 0 0 0 0 0 0 0 0 0 127 0" result="hardAlpha"/>
<feMorphology radius="2" operator="erode" in="SourceAlpha" result="effect1_dropShadow_821_37031"/>
<feOffset dy="8"/>
<feGaussianBlur stdDeviation="8"/>
<feColorMatrix type="matrix" values="0 0 0 0 0.105882 0 0 0 0 0.129412 0 0 0 0 0.172549 0 0 0 0.15 0"/>
<feBlend mode="normal" in2="BackgroundImageFix" result="effect1_dropShadow_821_37031"/>
<feBlend mode="normal" in="SourceGraphic" in2="effect1_dropShadow_821_37031" result="shape"/>
</filter>
<filter id="filter1_d_821_37031" x="367" y="1205" width="207" height="76" filterUnits="userSpaceOnUse" color-interpolation-filters="sRGB">
<feFlood flood-opacity="0" result="BackgroundImageFix"/>
<feColorMatrix in="SourceAlpha" type="matrix" values="0 0 0 0 0 0 0 0 0 0 0 0 0 0 0 0 0 0 127 0" result="hardAlpha"/>
<feMorphology radius="2" operator="erode" in="SourceAlpha" result="effect1_dropShadow_821_37031"/>
<feOffset dy="8"/>
<feGaussianBlur stdDeviation="8"/>
<feColorMatrix type="matrix" values="0 0 0 0 0.105882 0 0 0 0 0.129412 0 0 0 0 0.172549 0 0 0 0.15 0"/>
<feBlend mode="normal" in2="BackgroundImageFix" result="effect1_dropShadow_821_37031"/>
<feBlend mode="normal" in="SourceGraphic" in2="effect1_dropShadow_821_37031" result="shape"/>
</filter>
</defs>
</svg>
