<svg version="1.2" xmlns="http://www.w3.org/2000/svg" viewBox="0 0 2475 1462" width="2475" height="1462"><defs><clipPath clipPathUnits="userSpaceOnUse" id="cp1"><path d="m893.67 668.69v81.96h-87.98v-47.13h-39.55v-34.83z"/></clipPath></defs><style>.a{fill:#b3c5d6}.b{fill:none;stroke:#8fa9c0;stroke-width:2}.c{fill:#dde5ed}.d{fill:#2d2d2d}.e{fill:#fff}.f{fill:none;stroke:#fff;stroke-width:3}.g{fill:none;stroke:#cdcdcd;stroke-width:3}.h{fill:#dde5ed;stroke:#b3c5d6;stroke-width:2}</style><path class="a" d="m669.3 767.6h223.4v-101.8h-125.6v-68h103l-12.5-19.6 24.9-15.3-10.1-15.2v-67.8h-30.6v-61.1c-7 5.8-22.2 24.7-27.7 54-6.9 36.7-59.1 66.9-101.8 97.8-14.6 10.5-30.2 29.4-43.3 49.2-23 35-28.4 77.4-28.4 119.3h28.7z"/><path class="b" d="m841.8 418.8c-7 5.8-22.2 24.7-27.7 54-6.9 36.7-59.1 66.9-101.8 97.8-14.6 10.5-30.2 29.4-43.3 49.2-23 35-28.4 77.4-28.4 119.3h28.7v28.5h223.4v-101.8m-50.9-247v61.1h30.6v67.8l10.1 15.2m-40.7-144.1h48.4m2.5 159.4l-10.2-15.3m0 0l-24.9 15.3 12.5 19.6m0 0h-103v68h125.6m-10.2-48.4l-12.4-19.6m22.6 68v-13.2"/><path class="c" d="m893.7 668.7v81.9h-88v-47.1h-39.6v-34.8z"/><g clip-path="url(#cp1)"><path class="a" d="m893.7 668.7h2v-2h-2zm0 81.9v2h2v-2zm-88 0h-2v2h2zm0-47.1h2v-2h-2zm-39.6 0h-2v2h2zm0-34.8v-2h-2v2zm127.6 0h-2v81.9h2 2v-81.9zm0 81.9v-2h-88v2 2h88zm-88 0h2v-47.1h-2-2v47.1zm0-47.1v-2h-39.6v2 2h39.6zm-39.6 0h2v-34.8h-2-2v34.8zm0-34.8v2h127.6v-2-2h-127.6z"/></g><path fill-rule="evenodd" class="d" d="m853.2 503.8h58c1.1 0 2 0.9 2 2v58c0 1.1-0.9 2-2 2h-58c-1.1 0-2-0.9-2-2v-58c0-1.1 0.9-2 2-2z"/><path class="e" d="m869.9 520.5h0.9c0.5 0 0.9 0.4 0.9 0.8v0.9c0 0.9 0.7 1.7 1.7 1.7 1 0 1.8-0.8 1.8-1.7v-0.9c0-0.4 0.3-0.8 0.8-0.8h0.9c0.4 0 0.7-0.2 0.8-0.5 0.2-0.3 0.1-0.7-0.2-0.9l-3.5-3.4q-0.2-0.2-0.6-0.2-0.4 0-0.6 0.2l-3.5 3.4c-0.3 0.2-0.3 0.6-0.2 0.9 0.1 0.3 0.5 0.5 0.8 0.5z"/><path class="e" d="m890.3 523.6q0.2 0.3 0.6 0.3 0.4 0 0.6-0.3l3.5-3.4c0.3-0.2 0.4-0.6 0.2-0.9-0.1-0.3-0.4-0.5-0.8-0.5h-0.9c-0.4 0-0.8-0.4-0.8-0.8v-0.9c0-0.9-0.8-1.6-1.8-1.6-1 0-1.7 0.7-1.7 1.6v0.9c0 0.4-0.4 0.8-0.9 0.8h-0.9c-0.3 0-0.7 0.2-0.8 0.5-0.1 0.3-0.1 0.7 0.2 0.9z"/><path class="e" d="m896.2 525.5c1.4 0 2.6 1.2 2.6 2.6v25.2c0 1.3-1.2 2.5-2.6 2.5h-28c-1.5 0-2.7-1.2-2.7-2.5v-25.2c0-1.4 1.2-2.6 2.7-2.6zm-21.9 11.8c-2.9 0-5.3 2.2-5.3 5v2.6c0 0.4 0.4 0.8 0.9 0.8h0.6c0.5 0 0.9 0.3 0.9 0.7l0.7 5.3c0.1 0.4 0.4 0.7 0.9 0.7h2.6c0.4 0 0.8-0.3 0.9-0.7l0.6-5.3c0.1-0.4 0.5-0.7 0.9-0.7h0.7c0.4 0 0.8-0.4 0.8-0.8v-2.6c0-2.8-2.3-5-5.2-5zm15.7 0c-2.9 0-5.2 2.2-5.2 5v2.6c0 0.4 0.4 0.8 0.9 0.8h0.6c0.4 0 0.8 0.3 0.8 0.7l0.7 5.3c0.1 0.4 0.5 0.7 0.9 0.7h2.6c0.5 0 0.9-0.3 0.9-0.7l0.7-5.3c0-0.4 0.4-0.7 0.9-0.7h0.6c0.5 0 0.9-0.4 0.9-0.8v-2.6c0-2.8-2.4-5-5.3-5zm-15.7-9.2c-2.2 0-4 1.6-4 3.7 0 2.1 1.8 3.8 4 3.8 2.2 0 3.9-1.7 3.9-3.8 0-2.1-1.7-3.7-3.9-3.7zm15.7 0c-2.1 0-3.9 1.6-3.9 3.7 0 2.1 1.8 3.8 3.9 3.8 2.2 0 4-1.7 4-3.8 0-2.1-1.8-3.7-4-3.7z"/><path class="f" d="m480 585.2v-63.9"/><path fill-rule="evenodd" class="d" d="m802.7 699.7h58c1.1 0 2 0.9 2 2v58c0 1.1-0.9 2-2 2h-58c-1.1 0-2-0.9-2-2v-58c0-1.1 0.9-2 2-2z"/><path class="e" d="m852.7 721.9c0-0.9-0.7-1.7-1.7-1.7h-11.4c-1.4 0-2.6 1.2-2.6 2.6v3.5c0 0.5-0.4 0.9-0.9 0.9h-3.5c-1.4 0-2.6 1.2-2.6 2.6v3.5c0 0.5-0.4 0.9-0.9 0.9h-3.5c-1.4 0-2.6 1.2-2.6 2.6v3.5c0 0.5-0.4 0.9-0.9 0.9h-3.5c-1.4 0-2.6 1.2-2.6 2.6v6.1c0 1 0.8 1.8 1.7 1.8h33.3c1 0 1.7-0.8 1.7-1.8z"/><path class="e" d="m831.6 719.9c0.2 0.3 0.6 0.3 0.9 0.2 0.3-0.1 0.6-0.4 0.6-0.8v-8.7c0-0.5-0.4-0.9-0.9-0.9h-8.8c-0.3 0-0.6 0.2-0.8 0.5-0.1 0.3 0 0.7 0.2 1l1.9 1.9q0.3 0.2 0.3 0.6 0 0.4-0.3 0.6l-13.2 13.2c-1 1-1 2.7 0 3.7 1 1 2.7 1 3.7 0l13.2-13.2q0.3-0.2 0.6-0.2 0.4 0 0.7 0.2z"/><path class="g" d="m480.4 702.7h232.4"/><path fill-rule="evenodd" class="h" d="m733.5 739.7h43.5c0.5 0 1 0.4 1 1v23.9c0 0.6-0.5 1-1 1h-43.5c-0.5 0-1-0.4-1-1v-23.9c0-0.6 0.5-1 1-1z"/><path class="g" d="m745.4 702.7h133.4m-95.5-377.8h78.5"/><path fill-rule="evenodd" class="h" d="m670.3 739.7h43.4c0.6 0 1 0.4 1 1v23.9c0 0.6-0.4 1-1 1h-43.4c-0.6 0-1-0.4-1-1v-23.9c0-0.6 0.4-1 1-1z"/><path class="g" d="m542.7 740.2h137.4"/><path class="g" d="m822.5 766.6h-288.7v-9"/>
<rect x="525.92" y="1011.53" width="9.88568" height="28.9857" fill="#8FA9C0"/>
<rect x="525.92" y="930.564" width="9.88568" height="28.9857" fill="#8FA9C0"/>
<rect x="525.92" y="845.604" width="9.88568" height="28.9857" fill="#8FA9C0"/>
<path d="M785.914 1075.49V1085.49H576.339V1104.48H566.453V1075.49H785.914Z" fill="#8FA9C0"/>
<path d="M785.914 1059.5V1049.51H576.339V1030.52H566.453V1059.5H785.914Z" fill="#8FA9C0"/>
<path d="M785.914 993.533V1003.53H576.339V1022.52H566.453V993.533H785.914Z" fill="#8FA9C0"/>
<path d="M785.914 977.541V967.546H576.339V948.556H566.453V977.541H785.914Z" fill="#8FA9C0"/>
<path d="M785.914 911.58V921.575H576.339V940.565H566.453V911.58H785.914Z" fill="#8FA9C0"/>
<path d="M785.914 809.619V799.624H576.339V780.633H566.453V809.619H785.914Z" fill="#8FA9C0"/>
<path d="M785.914 893.588V883.593H576.339V864.603H566.453V893.588H785.914Z" fill="#8FA9C0"/>
<path d="M785.914 827.611V837.606H576.339V856.597H566.453V827.611H785.914Z" fill="#8FA9C0"/>
<rect x="720.68" y="1072.49" width="28.6456" height="15.9911" rx="1" fill="#DDE5ED" stroke="#B3C5D6" stroke-width="2"/>
<rect x="720.68" y="1046.51" width="28.6456" height="15.9911" rx="1" fill="#DDE5ED" stroke="#B3C5D6" stroke-width="2"/>
<rect x="720.68" y="990.533" width="28.6456" height="15.9911" rx="1" fill="#DDE5ED" stroke="#B3C5D6" stroke-width="2"/>
<rect x="720.68" y="964.549" width="28.6456" height="15.9911" rx="1" fill="#DDE5ED" stroke="#B3C5D6" stroke-width="2"/>
<rect x="720.68" y="908.58" width="28.6456" height="15.9911" rx="1" fill="#DDE5ED" stroke="#B3C5D6" stroke-width="2"/>
<rect x="720.68" y="880.588" width="28.6456" height="15.9911" rx="1" fill="#DDE5ED" stroke="#B3C5D6" stroke-width="2"/>
<rect x="720.68" y="824.619" width="28.6456" height="15.9911" rx="1" fill="#DDE5ED" stroke="#B3C5D6" stroke-width="2"/>
<rect x="720.68" y="796.63" width="28.6456" height="15.9911" rx="1" fill="#DDE5ED" stroke="#B3C5D6" stroke-width="2"/>
</svg>