<svg width="2650" height="1469" viewBox="0 0 2650 1469" fill="none" xmlns="http://www.w3.org/2000/svg">
<rect x="1007" y="193" width="853" height="75" fill="#fcf5f0" stroke="#e49d68" stroke-width="2"/>
<rect x="1.34974" y="-0.422138" width="21" height="18" rx="3" transform="matrix(-0.885939 -0.463801 -0.463801 0.885939 1647.31 503.25)" stroke="#e49d68" stroke-width="2"/>
<rect width="11.9982" height="15.0022" rx="1" transform="matrix(-0.463869 0.88607 0.885809 0.463733 1628.97 496.56)" fill="#fcf5f0"/>
<rect x="1.40431" y="-0.167098" width="21" height="18" rx="3" transform="matrix(-0.785703 -0.618604 -0.618604 0.785703 1626.2 492.044)" stroke="#e49d68" stroke-width="2"/>
<rect width="11.9982" height="15.0022" rx="1" transform="matrix(-0.618696 0.785818 0.785587 0.618513 1609.2 482.266)" fill="#fcf5f0"/>
<rect x="1.41111" y="0.0936253" width="21" height="18" rx="3" transform="matrix(-0.658743 -0.752368 -0.752368 0.658743 1607.51 477.156)" stroke="#e49d68" stroke-width="2"/>
<rect width="11.9982" height="15.0022" rx="1" transform="matrix(-0.752479 0.65884 0.658646 0.752257 1592.4 464.59)" fill="#fcf5f0"/>
<rect x="1.36992" y="0.351164" width="21" height="18" rx="3" transform="matrix(-0.509378 -0.860543 -0.860543 0.509378 1591.88 459.086)" stroke="#e49d68" stroke-width="2"/>
<rect width="11.9982" height="15.0022" rx="1" transform="matrix(-0.860669 0.509453 0.509303 0.860416 1579.12 444.124)" fill="#fcf5f0"/>
<rect x="1.28214" y="0.59676" width="21" height="18" rx="3" transform="matrix(-0.342689 -0.939449 -0.939449 0.342689 1579.82 438.448)" stroke="#e49d68" stroke-width="2"/>
<rect width="11.9982" height="15.0022" rx="1" transform="matrix(-0.939587 0.34274 0.342639 0.93931 1569.84 421.566)" fill="#fcf5f0"/>
<rect width="66" height="66" rx="2" transform="matrix(-1 0 0 1 1665.96 398)" fill="#e49d68"/>
<path d="M1616.46 408H1651.46C1653.39 408 1654.96 409.567 1654.96 411.5V427.25C1654.96 429.183 1653.39 430.75 1651.46 430.75H1649.71C1648.74 430.75 1647.96 429.966 1647.96 429C1647.96 428.034 1648.74 427.25 1649.71 427.25H1650.58C1651.07 427.25 1651.46 426.858 1651.46 426.375V412.375C1651.46 411.892 1651.07 411.5 1650.58 411.5H1617.33C1616.85 411.5 1616.46 411.892 1616.46 412.375V426.375C1616.46 426.858 1616.85 427.25 1617.33 427.25H1632.21C1633.17 427.25 1633.96 428.034 1633.96 429C1633.96 429.966 1633.17 430.75 1632.21 430.75H1616.46C1614.52 430.75 1612.96 429.183 1612.96 427.25V411.5C1612.96 409.567 1614.52 408 1616.46 408Z" fill="white"/>
<path d="M1626.96 424.625H1626.9C1626.41 424.609 1625.96 424.393 1625.64 424.028L1619.51 417.028C1618.88 416.3 1618.95 415.194 1619.68 414.558C1620.41 413.921 1621.51 413.995 1622.15 414.723L1627.05 420.323L1629.22 418.139C1629.66 417.684 1630.31 417.502 1630.92 417.662C1631.53 417.822 1632.01 418.3 1632.17 418.912C1632.33 419.524 1632.15 420.174 1631.69 420.614L1628.19 424.114C1627.87 424.441 1627.42 424.625 1626.96 424.625Z" fill="white"/>
<path d="M1631.53 437.75H1636.58V426.375C1636.58 423.959 1638.54 422 1640.96 422C1643.37 422 1645.33 423.959 1645.33 426.375V441.836L1647.24 439.164C1648.21 437.439 1650.36 436.771 1652.14 437.641C1653.89 438.592 1654.57 440.766 1653.66 442.542L1649.98 449.529C1649.83 449.817 1649.54 449.998 1649.21 450H1624.33C1623.85 450 1623.46 449.608 1623.46 449.125V446.234C1623.41 441.688 1626.98 437.929 1631.53 437.75Z" fill="white"/>
<rect x="1389" y="291" width="66" height="66" rx="2" fill="#e49d68"/>
<circle cx="1423" cy="309.688" r="5.25" fill="white"/>
<path d="M1430 321.062C1430 319.13 1428.43 317.562 1426.5 317.562H1425.8C1425.51 317.563 1425.23 317.709 1425.07 317.953L1423.73 319.97C1423.56 320.214 1423.29 320.36 1423 320.36C1422.71 320.36 1422.43 320.214 1422.27 319.97L1420.92 317.953C1420.76 317.71 1420.49 317.564 1420.2 317.562H1419.5C1417.57 317.562 1416 319.13 1416 321.062V322.812C1416 323.296 1416.39 323.688 1416.88 323.688H1429.12C1429.61 323.688 1430 323.296 1430 322.812V321.062Z" fill="white"/>
<path d="M1438.75 325.438C1441.17 325.438 1443.12 327.396 1443.12 329.812V344.688C1443.12 345.171 1442.73 345.562 1442.25 345.562H1403.75C1403.27 345.562 1402.88 345.171 1402.88 344.688V329.812C1402.88 327.396 1404.83 325.438 1407.25 325.438H1438.75ZM1420.97 330.305L1419.43 330.767C1419.26 330.814 1419.12 330.939 1419.06 331.104C1419 331.256 1419.04 331.43 1419.15 331.549L1421.27 333.487C1421.39 333.606 1421.42 333.778 1421.37 333.932C1421.3 334.096 1421.16 334.221 1420.99 334.27L1418.99 334.868C1418.81 334.93 1418.6 334.887 1418.45 334.756L1417.36 333.717C1417.18 333.562 1416.93 333.534 1416.72 333.644L1415.23 334.391C1415.09 334.459 1414.98 334.587 1414.94 334.74C1414.9 334.882 1414.94 335.033 1415.04 335.138L1416.76 337.237L1416.49 339.939C1416.46 340.083 1416.51 340.231 1416.62 340.33C1416.74 340.433 1416.89 340.481 1417.05 340.46L1418.7 340.262C1418.94 340.24 1419.14 340.076 1419.2 339.849L1419.54 338.377C1419.59 338.187 1419.74 338.038 1419.93 337.986L1421.93 337.387C1422.1 337.333 1422.28 337.361 1422.42 337.462C1422.56 337.557 1422.63 337.721 1422.6 337.884L1421.88 340.671C1421.85 340.833 1421.92 340.997 1422.05 341.091C1422.2 341.193 1422.38 341.222 1422.55 341.168L1424.09 340.706C1424.25 340.661 1424.38 340.55 1424.45 340.4L1426.26 336.309C1426.35 336.143 1426.49 336.018 1426.67 335.959L1429.71 335.047C1430.58 334.787 1431.06 333.88 1430.8 333.019C1430.55 332.158 1429.64 331.67 1428.78 331.927L1425.74 332.84C1425.56 332.889 1425.36 332.865 1425.2 332.773L1421.44 330.362C1421.3 330.276 1421.13 330.255 1420.97 330.305Z" fill="white"/>
</svg>
