<svg width="2475" height="1462" viewBox="0 0 2475 1462" fill="none" xmlns="http://www.w3.org/2000/svg">
<path d="M113.043 372.441C124.187 379.611 124.361 395.76 113.565 403.21L113.044 403.559L65.0098 434.46L65.0088 434.46C52.6972 442.38 36.5002 433.541 36.5 418.902L36.5 357.098C36.5003 342.687 52.1957 333.897 64.4297 341.181L65.0088 341.54L113.043 372.441Z" fill="#F6F6F6" stroke="#CDCDCD" stroke-width="3"/>
<path d="M70.9677 388.021V396.781C69.9352 397.298 68.8265 397.683 67.6416 397.937C66.4567 398.19 65.1448 398.317 63.706 398.317C60.5407 398.317 58.0947 397.501 56.3681 395.867C54.6416 394.225 53.7783 391.902 53.7783 388.897C53.7783 385.791 54.6458 383.362 56.3808 381.61C58.1158 379.85 60.5237 378.97 63.6045 378.97C65.8811 378.97 67.6839 379.49 69.0127 380.531C70.3499 381.572 71.0185 382.965 71.0185 384.708V385.051H67.248C67.1972 383.9 66.8418 383.024 66.1816 382.423C65.5214 381.822 64.5862 381.521 63.3759 381.521C61.6748 381.521 60.3291 382.169 59.3388 383.464C58.3571 384.759 57.8662 386.528 57.8662 388.771C57.8662 390.971 58.3824 392.638 59.415 393.772C60.456 394.907 61.9837 395.474 63.998 395.474C64.5227 395.474 65.039 395.444 65.5468 395.385C66.0631 395.317 66.5667 395.22 67.0576 395.093L67.0703 391.005H63.5029V388.021H70.9677ZM74.9551 391.081H79.5381V384.111L74.9551 391.081ZM79.5381 398V394.077H72.1494V390.434L79.2461 379.884H83.1689V391.081H85.4414V394.077H83.1689V398H79.5381Z" fill="#5B5B5B"/>
<path d="M113.043 644.441C124.187 651.611 124.361 667.76 113.565 675.21L113.044 675.559L65.0098 706.46L65.0088 706.46C52.6972 714.38 36.5002 705.541 36.5 690.902L36.5 629.098C36.5003 614.687 52.1957 605.897 64.4297 613.181L65.0088 613.54L113.043 644.441Z" fill="#F6F6F6" stroke="#CDCDCD" stroke-width="3"/>
<path d="M70.9677 659.021V667.781C69.9352 668.298 68.8265 668.683 67.6416 668.937C66.4567 669.19 65.1448 669.317 63.706 669.317C60.5407 669.317 58.0947 668.501 56.3681 666.867C54.6416 665.225 53.7783 662.902 53.7783 659.897C53.7783 656.791 54.6458 654.362 56.3808 652.61C58.1158 650.85 60.5237 649.97 63.6045 649.97C65.8811 649.97 67.6839 650.49 69.0127 651.531C70.3499 652.572 71.0185 653.965 71.0185 655.708V656.051H67.248C67.1972 654.9 66.8418 654.024 66.1816 653.423C65.5214 652.822 64.5862 652.521 63.3759 652.521C61.6748 652.521 60.3291 653.169 59.3388 654.464C58.3571 655.759 57.8662 657.528 57.8662 659.771C57.8662 661.971 58.3824 663.638 59.415 664.772C60.456 665.907 61.9837 666.474 63.998 666.474C64.5227 666.474 65.039 666.444 65.5468 666.385C66.0631 666.317 66.5667 666.22 67.0576 666.093L67.0703 662.005H63.5029V659.021H70.9677ZM72.6699 655.708C72.6868 654.075 73.2074 652.813 74.2314 651.925C75.2555 651.036 76.7028 650.592 78.5732 650.592C80.3929 650.592 81.8359 651.066 82.9023 652.014C83.9688 652.953 84.502 654.223 84.502 655.822C84.502 656.88 84.2438 657.739 83.7275 658.399C83.2197 659.06 82.4453 659.534 81.4043 659.821C82.4622 660.084 83.262 660.562 83.8037 661.256C84.3538 661.941 84.6289 662.817 84.6289 663.884C84.6289 665.475 84.0449 666.778 82.877 667.794C81.709 668.81 80.194 669.317 78.332 669.317C76.6055 669.317 75.2428 668.89 74.2441 668.035C73.2454 667.18 72.7461 666.021 72.7461 664.557V664.188H76.1484C76.1654 664.942 76.3812 665.538 76.7959 665.979C77.2191 666.419 77.7861 666.639 78.4971 666.639C79.2757 666.639 79.8893 666.397 80.3379 665.915C80.7865 665.424 81.0107 664.764 81.0107 663.935C81.0107 663.029 80.7568 662.386 80.249 662.005C79.7412 661.624 78.8271 661.434 77.5068 661.434H76.1484V658.412H77.5576C78.8441 658.412 79.7412 658.226 80.249 657.854C80.7568 657.473 81.0107 656.829 81.0107 655.924C81.0107 655.094 80.7865 654.443 80.3379 653.969C79.8978 653.486 79.2926 653.245 78.5225 653.245C77.8031 653.245 77.2275 653.469 76.7959 653.918C76.3643 654.367 76.14 654.963 76.123 655.708H72.6699Z" fill="#5B5B5B"/>
<path d="M113.043 916.441C124.187 923.611 124.361 939.76 113.565 947.21L113.044 947.559L65.0098 978.46L65.0088 978.46C52.6972 986.38 36.5002 977.541 36.5 962.902L36.5 901.098C36.5003 886.687 52.1957 877.897 64.4297 885.181L65.0088 885.54L113.043 916.441Z" fill="#F6F6F6" stroke="#CDCDCD" stroke-width="3"/>
<path d="M70.9677 931.021V939.781C69.9352 940.298 68.8265 940.683 67.6416 940.937C66.4567 941.19 65.1448 941.317 63.706 941.317C60.5407 941.317 58.0947 940.501 56.3681 938.867C54.6416 937.225 53.7783 934.902 53.7783 931.897C53.7783 928.791 54.6458 926.362 56.3808 924.61C58.1158 922.85 60.5237 921.97 63.6045 921.97C65.8811 921.97 67.6839 922.49 69.0127 923.531C70.3499 924.572 71.0185 925.965 71.0185 927.708V928.051H67.248C67.1972 926.9 66.8418 926.024 66.1816 925.423C65.5214 924.822 64.5862 924.521 63.3759 924.521C61.6748 924.521 60.3291 925.169 59.3388 926.464C58.3571 927.759 57.8662 929.528 57.8662 931.771C57.8662 933.971 58.3824 935.638 59.415 936.772C60.456 937.907 61.9837 938.474 63.998 938.474C64.5227 938.474 65.039 938.444 65.5468 938.385C66.0631 938.317 66.5667 938.22 67.0576 938.093L67.0703 934.005H63.5029V931.021H70.9677ZM72.543 941V937.204L73.6094 936.239C78.7214 931.669 81.2773 928.698 81.2773 927.327C81.2773 926.709 81.0742 926.201 80.668 925.804C80.2702 925.397 79.7624 925.194 79.1445 925.194C78.3659 925.194 77.7692 925.427 77.3545 925.893C76.9482 926.35 76.7282 927.035 76.6943 927.949H73.2412V927.746C73.2412 926.163 73.766 924.911 74.8154 923.988C75.8649 923.057 77.291 922.592 79.0938 922.592C80.8796 922.592 82.3057 923.032 83.3721 923.912C84.4385 924.784 84.9717 925.948 84.9717 927.403C84.9717 928.774 84.4004 930.209 83.2578 931.707C82.1237 933.197 79.9359 935.27 76.6943 937.928H85.0732V941H72.543Z" fill="#5B5B5B"/>
<path d="M113.043 1188.44C124.187 1195.61 124.361 1211.76 113.565 1219.21L113.044 1219.56L65.0098 1250.46L65.0088 1250.46C52.6972 1258.38 36.5002 1249.54 36.5 1234.9L36.5 1173.1C36.5003 1158.69 52.1957 1149.9 64.4297 1157.18L65.0088 1157.54L113.043 1188.44Z" fill="#F6F6F6" stroke="#CDCDCD" stroke-width="3"/>
<path d="M70.9677 1203.02V1211.78C69.9352 1212.3 68.8265 1212.68 67.6416 1212.94C66.4567 1213.19 65.1448 1213.32 63.706 1213.32C60.5407 1213.32 58.0947 1212.5 56.3681 1210.87C54.6416 1209.23 53.7783 1206.9 53.7783 1203.9C53.7783 1200.79 54.6458 1198.36 56.3808 1196.61C58.1158 1194.85 60.5237 1193.97 63.6045 1193.97C65.8811 1193.97 67.6839 1194.49 69.0127 1195.53C70.3499 1196.57 71.0185 1197.96 71.0185 1199.71V1200.05H67.248C67.1972 1198.9 66.8418 1198.02 66.1816 1197.42C65.5214 1196.82 64.5862 1196.52 63.3759 1196.52C61.6748 1196.52 60.3291 1197.17 59.3388 1198.46C58.3571 1199.76 57.8662 1201.53 57.8662 1203.77C57.8662 1205.97 58.3824 1207.64 59.415 1208.77C60.456 1209.91 61.9837 1210.47 63.998 1210.47C64.5227 1210.47 65.039 1210.44 65.5468 1210.38C66.0631 1210.32 66.5667 1210.22 67.0576 1210.09L67.0703 1206H63.5029V1203.02H70.9677ZM78.332 1213V1198.96C77.5026 1199.53 76.7536 1200 76.085 1200.37C75.4163 1200.73 74.79 1201.02 74.2061 1201.22V1197.59C75.0947 1197.21 75.9072 1196.8 76.6436 1196.36C77.3799 1195.91 78.057 1195.42 78.6748 1194.88H82.1914V1213H78.332Z" fill="#5B5B5B"/>
<path d="M123.572 276.423L313.288 178.934H2286.56V568.05H2150.45H2058.71H1967.34H1929.4H1842.08H1813.99H1675.23H1605.85H1536.47V691.279L1350.19 868.043L1266.25 948.432L1192.2 1018.89L1163.91 1044.81V1336.36H123.572V431.906V276.423Z" fill="white" stroke="#CDCDCD" stroke-width="4"/>
<path d="M1297.5 325.868C1261.31 315.578 1221.01 309.869 1178.53 309.869C1104.39 309.869 1035.08 327.315 981.65 356.214M841.273 419.317H905.036C923.255 395.022 949.591 373.556 981.65 356.214M981.65 356.214V327.361" stroke="#8FA9C0" stroke-width="3"/>
<path d="M1062.67 326H548.692L480.492 385.597L480 1150H1162" stroke="#CDCDCD" stroke-width="3"/>
<path d="M1297 325.861L1336.55 325.861" stroke="#CDCDCD" stroke-width="3"/>
<path d="M1754.71 304.873H1860.49V355.848H1928.7V392.829H1954.4V410.82H2192.65V312.869H2236.15V373.839H2286.56V410.82H2286.56V447.803H1954.4V429.811H1860.49V355.848H1826.88V441.806H1796.23V474.788H1745.81V441.806H1650.91V355.848H1455.18V327.861H1333.58V311.869H1376.09V299.875H1754.71V304.873ZM2068.09 356.848H1950.45V324.863H2068.09V356.848ZM2286.56 345.853H2243.06V312.869H2286.56V345.853ZM2068.09 324.862H2013.72V295.877H2068.09V324.862Z" fill="#DDE5ED"/>
<path d="M1754.71 304.873H1752.71V306.873H1754.71V304.873ZM1860.49 304.873H1862.49V302.873H1860.49V304.873ZM1860.49 355.848H1858.49V357.848H1860.49V355.848ZM1928.7 355.848H1930.7V353.848H1928.7V355.848ZM1928.7 392.829H1926.7V394.829H1928.7V392.829ZM1954.4 392.829H1956.4V390.829H1954.4V392.829ZM1954.4 410.82H1952.4V412.82H1954.4V410.82ZM2192.65 410.82V412.82H2194.65V410.82H2192.65ZM2192.65 312.869V310.869H2190.65V312.869H2192.65ZM2236.15 312.869H2238.15V310.869H2236.15V312.869ZM2236.15 373.839H2234.15V375.839H2236.15V373.839ZM2286.56 373.839H2288.56V371.839H2286.56V373.839ZM2286.56 410.82V412.82H2288.56V410.82H2286.56ZM2286.56 410.82V408.82H2284.56V410.82H2286.56ZM2286.56 447.803V449.803H2288.56V447.803H2286.56ZM1954.4 447.803H1952.4V449.803H1954.4V447.803ZM1954.4 429.811H1956.4V427.811H1954.4V429.811ZM1860.49 429.811H1858.49V431.811H1860.49V429.811ZM1860.49 355.848H1862.49V353.848H1860.49V355.848ZM1826.88 355.848V353.848H1824.88V355.848H1826.88ZM1826.88 441.806V443.806H1828.88V441.806H1826.88ZM1796.23 441.806V439.806H1794.23V441.806H1796.23ZM1796.23 474.788V476.788H1798.23V474.788H1796.23ZM1745.81 474.788H1743.81V476.788H1745.81V474.788ZM1745.81 441.806H1747.81V439.806H1745.81V441.806ZM1650.91 441.806H1648.91V443.806H1650.91V441.806ZM1650.91 355.848H1652.91V353.848H1650.91V355.848ZM1455.18 355.848H1453.18V357.848H1455.18V355.848ZM1455.18 327.861H1457.18V325.861H1455.18V327.861ZM1333.58 327.861H1331.58V329.861H1333.58V327.861ZM1333.58 311.869V309.869H1331.58V311.869H1333.58ZM1376.09 311.869V313.869H1378.09V311.869H1376.09ZM1376.09 299.875V297.875H1374.09V299.875H1376.09ZM1754.71 299.875H1756.71V297.875H1754.71V299.875ZM2068.09 356.848V358.848H2070.09V356.848H2068.09ZM1950.45 356.848H1948.45V358.848H1950.45V356.848ZM1950.45 324.863V322.863H1948.45V324.863H1950.45ZM2068.09 324.863H2070.09V322.863H2068.09V324.863ZM2286.56 345.853V347.853H2288.56V345.853H2286.56ZM2243.06 345.853H2241.06V347.853H2243.06V345.853ZM2243.06 312.869V310.869H2241.06V312.869H2243.06ZM2286.56 312.869H2288.56V310.869H2286.56V312.869ZM2068.09 324.862V326.862H2070.09V324.862H2068.09ZM2013.72 324.862H2011.72V326.862H2013.72V324.862ZM2013.72 295.877V293.877H2011.72V295.877H2013.72ZM2068.09 295.877H2070.09V293.877H2068.09V295.877ZM1754.71 304.873V306.873H1860.49V304.873V302.873H1754.71V304.873ZM1860.49 304.873H1858.49V355.848H1860.49H1862.49V304.873H1860.49ZM1860.49 355.848V357.848H1928.7V355.848V353.848H1860.49V355.848ZM1928.7 355.848H1926.7V392.829H1928.7H1930.7V355.848H1928.7ZM1928.7 392.829V394.829H1954.4V392.829V390.829H1928.7V392.829ZM1954.4 392.829H1952.4V410.82H1954.4H1956.4V392.829H1954.4ZM1954.4 410.82V412.82H2192.65V410.82V408.82H1954.4V410.82ZM2192.65 410.82H2194.65V312.869H2192.65H2190.65V410.82H2192.65ZM2192.65 312.869V314.869H2236.15V312.869V310.869H2192.65V312.869ZM2236.15 312.869H2234.15V373.839H2236.15H2238.15V312.869H2236.15ZM2236.15 373.839V375.839H2286.56V373.839V371.839H2236.15V373.839ZM2286.56 373.839H2284.56V410.82H2286.56H2288.56V373.839H2286.56ZM2286.56 410.82V408.82H2286.56V410.82V412.82H2286.56V410.82ZM2286.56 410.82H2284.56V447.803H2286.56H2288.56V410.82H2286.56ZM2286.56 447.803V445.803H1954.4V447.803V449.803H2286.56V447.803ZM1954.4 447.803H1956.4V429.811H1954.4H1952.4V447.803H1954.4ZM1954.4 429.811V427.811H1860.49V429.811V431.811H1954.4V429.811ZM1860.49 429.811H1862.49V355.848H1860.49H1858.49V429.811H1860.49ZM1860.49 355.848V353.848H1826.88V355.848V357.848H1860.49V355.848ZM1826.88 355.848H1824.88V441.806H1826.88H1828.88V355.848H1826.88ZM1826.88 441.806V439.806H1796.23V441.806V443.806H1826.88V441.806ZM1796.23 441.806H1794.23V474.788H1796.23H1798.23V441.806H1796.23ZM1796.23 474.788V472.788H1745.81V474.788V476.788H1796.23V474.788ZM1745.81 474.788H1747.81V441.806H1745.81H1743.81V474.788H1745.81ZM1745.81 441.806V439.806H1650.91V441.806V443.806H1745.81V441.806ZM1650.91 441.806H1652.91V355.848H1650.91H1648.91V441.806H1650.91ZM1650.91 355.848V353.848H1455.18V355.848V357.848H1650.91V355.848ZM1455.18 355.848H1457.18V327.861H1455.18H1453.18V355.848H1455.18ZM1455.18 327.861V325.861H1333.58V327.861V329.861H1455.18V327.861ZM1333.58 327.861H1335.58V311.869H1333.58H1331.58V327.861H1333.58ZM1333.58 311.869V313.869H1376.09V311.869V309.869H1333.58V311.869ZM1376.09 311.869H1378.09V299.875H1376.09H1374.09V311.869H1376.09ZM1376.09 299.875V301.875H1754.71V299.875V297.875H1376.09V299.875ZM1754.71 299.875H1752.71V304.873H1754.71H1756.71V299.875H1754.71ZM2068.09 356.848V354.848H1950.45V356.848V358.848H2068.09V356.848ZM1950.45 356.848H1952.45V324.863H1950.45H1948.45V356.848H1950.45ZM1950.45 324.863V326.863H2068.09V324.863V322.863H1950.45V324.863ZM2068.09 324.863H2066.09V356.848H2068.09H2070.09V324.863H2068.09ZM2286.56 345.853V343.853H2243.06V345.853V347.853H2286.56V345.853ZM2243.06 345.853H2245.06V312.869H2243.06H2241.06V345.853H2243.06ZM2243.06 312.869V314.869H2286.56V312.869V310.869H2243.06V312.869ZM2286.56 312.869H2284.56V345.853H2286.56H2288.56V312.869H2286.56ZM2068.09 324.862V322.862H2013.72V324.862V326.862H2068.09V324.862ZM2013.72 324.862H2015.72V295.877H2013.72H2011.72V324.862H2013.72ZM2013.72 295.877V297.877H2068.09V295.877V293.877H2013.72V295.877ZM2068.09 295.877H2066.09V324.862H2068.09H2070.09V295.877H2068.09Z" fill="#B3C5D6" mask="url(#path-113-inside-7_821_37031)"/>
<path d="M935 1148.5H1162L1161 1044L1534 690V565.5L2284.5 565V448H1954.5V429.5H1860.5V442.5H1795.5V474.5H1746V442.5H1651V355H1456V328H1333.5V325H1295.5L1267 318.5L1237.5 313.5L1198 310H1164L1120.5 313.5L1070.26 323.028C1065.09 324.008 1060 325.358 1055.03 327.066L1013 341.5L983 355.5L957.5 371.5L932.5 390L914.5 408L905.5 420.5H843V479H873.5V541.993L894 577.5V767.836H935V1148.5Z" fill="#F6F6F6" stroke="#6F6F6F" stroke-width="2" stroke-dasharray="4 4"/>
<path d="M669.26 767.643H892.677V665.796H767.129V597.813H870.063L857.583 578.207L882.544 562.93L872.411 547.653V479.924H841.766V418.815C834.846 424.587 819.622 443.463 814.086 472.795C807.166 509.46 755.025 539.729 712.263 570.568C697.702 581.069 682.108 600 669.05 619.826C646.012 654.805 640.592 697.242 640.592 739.126H669.26V767.643Z" fill="#B3C5D6"/>
<path d="M841.765 418.815C834.846 424.587 819.622 443.463 814.086 472.795C807.166 509.46 755.025 539.729 712.263 570.568C697.702 581.069 682.108 600 669.05 619.826C646.012 654.805 640.592 697.242 640.592 739.126V739.126H669.26V767.643H892.677V665.796M841.765 418.815V479.924H872.411V547.653L882.544 562.93M841.765 418.815H890.205M892.677 578.207L882.544 562.93M882.544 562.93L857.583 578.207L870.063 597.813M882.544 617.418L870.063 597.813M870.063 597.813H767.129V665.796H892.677M892.677 665.796V652.556" stroke="#8FA9C0" stroke-width="2"/>
<path fill-rule="evenodd" clip-rule="evenodd" d="M1016.34 674.313C1016.34 674.58 1016.61 674.58 1016.87 674.58C1016.87 674.846 1016.87 674.846 1017.13 674.846C1032.67 682.045 1048.73 691.376 1057.94 703.372C1064.78 712.17 1066.89 720.968 1067.15 730.832C1067.15 735.897 1066.63 740.963 1066.1 746.028C1065.31 760.691 1064.26 775.087 1063.47 789.483C1063.47 789.75 1063.47 789.75 1063.47 790.017C1063.47 790.283 1063.47 790.283 1063.47 790.283C1061.36 825.207 1098.48 854 1146.66 854C1179.31 854 1209.58 840.404 1225.12 819.609C1225.38 819.076 1225.91 818.543 1226.43 818.009C1283.83 744.428 1339.9 672.714 1394.4 603.132C1415.46 575.672 1426.26 545.813 1426 515.155C1425.47 417.047 1311.73 340 1171.67 340C1044.51 340 933.148 403.717 907.084 489.295C902.345 520.649 901.36 518.652 902.345 541.548C908.137 595.134 949.208 644.454 1016.34 674.313Z" fill="#EDEDED"/>
<rect x="1800" y="240" width="62" height="62" rx="2" fill="#2D2D2D"/>
<path d="M1818.75 253.055C1821.83 253.055 1824.54 255.067 1825.44 258.012C1826.34 260.957 1825.21 264.143 1822.65 265.862C1822.43 266.012 1822.29 266.256 1822.27 266.524C1822.25 266.793 1822.36 267.055 1822.55 267.236C1823.29 267.904 1823.83 268.757 1824.13 269.705L1827.46 280.364C1827.54 280.63 1827.49 280.919 1827.33 281.144C1827.16 281.368 1826.9 281.5 1826.62 281.5H1824.25C1823.8 281.497 1823.43 281.826 1823.37 282.267L1822.25 291.235C1822.19 291.675 1821.82 292.003 1821.37 292H1816.12C1815.68 292.004 1815.31 291.675 1815.25 291.235L1814.14 282.267C1814.09 281.826 1813.71 281.497 1813.27 281.5H1810.87C1810.6 281.499 1810.34 281.367 1810.17 281.143C1810.01 280.918 1809.96 280.63 1810.04 280.364L1813.37 269.705C1813.66 268.757 1814.21 267.904 1814.94 267.236C1815.14 267.055 1815.25 266.793 1815.23 266.524C1815.21 266.256 1815.06 266.012 1814.84 265.862C1812.29 264.143 1811.15 260.957 1812.05 258.012C1812.95 255.067 1815.67 253.055 1818.75 253.055ZM1819.34 258.479C1819.01 258.174 1818.49 258.174 1818.16 258.479C1817.48 259.093 1816.71 259.591 1815.87 259.953C1815.47 260.127 1815.26 260.565 1815.38 260.983C1815.79 262.505 1817.17 263.562 1818.74 263.562C1820.32 263.561 1821.7 262.504 1822.11 260.983C1822.22 260.565 1822.01 260.127 1821.62 259.953C1820.78 259.59 1820.01 259.093 1819.34 258.479Z" fill="white"/>
<path d="M1831 250C1830.03 250 1829.25 250.784 1829.25 251.75V290.25C1829.25 291.216 1830.03 292 1831 292C1831.97 292 1832.75 291.216 1832.75 290.25V251.75C1832.75 250.784 1831.97 250 1831 250Z" fill="white"/>
<path d="M1843.25 253.022C1846.23 253.022 1848.89 254.916 1849.87 257.738C1850.84 260.56 1849.92 263.689 1847.57 265.531C1847.34 265.71 1847.22 265.99 1847.24 266.279C1847.26 266.568 1847.42 266.828 1847.67 266.975C1850.35 268.533 1852 271.399 1852 274.5V278.875C1852 279.358 1851.61 279.75 1851.12 279.75H1848.77C1848.32 279.747 1847.94 280.086 1847.89 280.532L1846.75 291.22C1846.7 291.666 1846.32 292.003 1845.87 292H1840.62C1840.18 292.003 1839.8 291.666 1839.75 291.22L1838.62 280.532C1838.57 280.086 1838.19 279.748 1837.74 279.75H1835.37C1834.89 279.75 1834.5 279.358 1834.5 278.875V274.5C1834.5 271.399 1836.15 268.533 1838.83 266.975C1839.08 266.828 1839.24 266.568 1839.26 266.279C1839.28 265.99 1839.16 265.71 1838.93 265.531C1836.58 263.689 1835.66 260.56 1836.63 257.738C1837.61 254.916 1840.26 253.022 1843.25 253.022ZM1841.07 258.697C1840.83 258.585 1840.55 258.586 1840.31 258.701C1840.07 258.816 1839.9 259.032 1839.84 259.289C1839.78 259.542 1839.75 259.802 1839.75 260.062C1839.75 261.995 1841.32 263.562 1843.25 263.562C1845.18 263.562 1846.75 261.995 1846.75 260.062C1846.75 259.925 1846.69 259.793 1846.59 259.698C1846.49 259.605 1846.35 259.56 1846.21 259.574C1845.91 259.607 1845.6 259.624 1845.3 259.625C1843.84 259.626 1842.39 259.309 1841.07 258.697Z" fill="white"/>
<path d="M1986.04 381.334H2028.54V392.329H2066.11V410.82V356.347" stroke="#CDCDCD" stroke-width="3"/>
<path d="M1953.41 411.819V381.334H1973.68" stroke="#CDCDCD" stroke-width="3"/>
<path d="M1552.8 225.911V234.262H1597.4L1611.12 250.367V262.893" stroke="#CDCDCD" stroke-width="3"/>
<path d="M1552.8 309.869V301.518H1597.4L1611.12 285.413V272.887" stroke="#CDCDCD" stroke-width="3"/>
<path d="M480.443 702.676H712.757" stroke="#CDCDCD" stroke-width="3"/>
<path d="M822.49 766.644L533.828 766.644L533.828 757.648" stroke="#CDCDCD" stroke-width="3"/>
<path d="M1552.36 754.462C1552.4 773.579 1568.39 789.373 1587.99 789.532C1607.4 789.688 1623.05 774.15 1622.81 755.032C1622.57 736.179 1606.58 720.65 1587.37 720.495C1568.16 720.339 1552.32 735.345 1552.36 754.462ZM1552.36 754.462C1540.04 791.002 1513.05 816.007 1471.41 829.211M1450.94 890.112C1489.74 941.404 1458.39 1060.81 1398.89 1082.77M1599.19 1017.43C1553.21 1039.62 1459.75 1102.17 1471.36 1155.36M1698.89 902.472C1655.99 903.984 1632.5 928.752 1626.5 974.901M1735.2 753.551C1758.85 756.663 1772.94 767.663 1775.89 787.334M1802 823.389C1763.77 822.017 1743.07 838.842 1737.75 872.253M1573.84 639.406C1593.41 667.973 1592.8 696.377 1570.06 725.399M1592.4 649.114C1643.92 663.071 1680.19 690.181 1702.58 730.188M1838.74 815.455C1867.97 801.088 1899.61 800.282 1934.23 816.227M1984.69 816.635C2013.34 802.264 2045.17 801.459 2079.98 817.406M2131.03 817.819C2159.28 803.444 2190.92 802.903 2226.51 818.591M2285.69 796.236C2285.29 773.664 2295.68 761.004 2317.24 758.523M2345.75 736.186C2366.49 691.483 2399.3 664.932 2445.18 656.541M1590.26 943.544C1610.45 943.707 1626.81 960.301 1627.23 981.014C1627.45 1001.99 1611.21 1018.85 1590.83 1018.69C1570.26 1018.52 1553.7 1001.39 1553.68 980.419C1553.64 959.975 1570.08 943.381 1590.26 943.544ZM1700.43 830.532C1720.03 830.691 1736.6 846.755 1737.41 866.675C1738.03 886.593 1722.57 902.664 1702.58 902.502C1682.59 902.34 1665.83 886.009 1665.41 866.093C1664.98 846.176 1680.83 830.374 1700.43 830.532ZM1810.3 754.689C1829.91 754.848 1846.67 770.648 1847.87 790.04C1849.08 809.697 1833.81 825.77 1813.82 825.608C1793.83 825.446 1776.88 809.379 1776.06 789.459C1775.25 770.071 1790.51 754.529 1810.3 754.689ZM1954.7 755.857C1974.3 756.015 1992.03 771.824 1993.63 791.219C1995.22 810.879 1980.34 826.955 1960.15 826.792C1940.16 826.63 1922.82 810.559 1921.43 790.635C1920.22 771.243 1935.1 755.433 1954.7 755.857ZM2099.29 757.026C2119.08 757.186 2136.82 772.995 2138.99 792.394C2141.16 812.059 2126.87 828.14 2106.68 827.976C2086.69 827.815 2068.96 811.741 2066.99 791.812C2065.2 772.415 2079.49 756.866 2099.29 757.026ZM2243.88 758.195C2263.48 758.354 2281.79 774.167 2284.55 793.571C2287.31 813.241 2273.4 829.325 2253.21 829.161C2233.42 829.001 2214.91 812.921 2212.55 792.989C2209.98 773.586 2224.08 758.035 2243.88 758.195ZM1735.17 684.253C1754.77 684.412 1771.14 699.678 1771.96 718.801C1772.78 737.924 1757.52 753.466 1737.73 753.306C1717.93 753.146 1701.56 737.348 1700.93 718.227C1700.31 699.105 1715.56 684.095 1735.17 684.253ZM1877.42 685.669C1897.03 685.828 1913.98 701.099 1915.19 720.225C1916.59 739.353 1901.72 754.898 1881.92 754.737C1862.32 754.579 1845.37 738.777 1844.16 719.651C1843.15 700.526 1858.02 685.512 1877.42 685.669ZM2020.46 686.826C2039.87 686.983 2057.02 702.255 2058.81 721.386C2060.6 740.517 2046.31 756.067 2026.71 755.908C2007.1 755.75 1989.96 739.946 1988.17 720.815C1986.76 701.687 2001.25 686.671 2020.46 686.826ZM2162.91 687.978C2182.32 688.135 2200.06 703.412 2202.43 722.548C2204.8 741.684 2190.9 757.236 2171.3 757.078C2151.5 756.917 2133.77 741.109 2131.59 721.975C2129.61 702.842 2143.51 687.821 2162.91 687.978ZM2305.76 689.133C2325.16 689.29 2343.29 704.836 2346.24 723.711C2349.2 742.851 2335.49 758.405 2315.88 758.247C2296.09 758.087 2277.97 742.275 2275.4 723.138C2272.64 703.999 2286.35 688.976 2305.76 689.133ZM1598.35 583.316C1617.37 583.47 1633.17 598.201 1633.42 616.523C1633.66 634.845 1618.4 649.59 1599 649.433C1579.78 649.277 1564.18 634.283 1564.13 615.962C1563.89 597.641 1579.14 583.161 1598.35 583.316ZM1731.49 584.393C1750.71 584.548 1766.7 599.281 1767.52 617.607C1768.35 635.934 1753.29 650.946 1733.88 650.789C1714.47 650.367 1698.48 635.369 1697.66 617.042C1697.22 598.719 1712.28 584.238 1731.49 584.393ZM1871.23 585.523C1890.25 585.677 1907.02 600.415 1908.23 618.745C1909.44 637.075 1894.97 651.826 1875.36 651.668C1856.15 651.512 1839.58 636.51 1838.36 618.18C1837.34 599.852 1852.01 585.368 1871.23 585.523ZM2011.35 586.656C2030.37 586.81 2047.14 601.548 2048.94 619.883C2050.73 638.217 2036.64 652.972 2017.43 652.817C1998.22 652.661 1981.25 637.656 1979.85 619.324C1978.24 601.257 1992.53 586.504 2011.35 586.656ZM2151.09 588.052C2170.11 588.205 2187.27 602.947 2189.64 621.286C2192.22 639.627 2178.12 654.381 2159.1 654.228C2139.7 654.071 2122.35 638.797 2120.36 620.726C2118.17 602.388 2132.07 587.898 2151.09 588.052ZM2290.82 589.182C2309.84 589.335 2327.78 604.083 2330.54 622.426C2333.31 640.768 2319.8 655.527 2300.59 655.372C2281.18 655.215 2263.44 640.203 2260.87 621.862C2258.49 603.523 2272 589.029 2290.82 589.182ZM2433.47 590.335C2452.69 590.491 2470.81 605.24 2474.16 623.587C2477.51 641.934 2464.58 656.698 2444.98 656.539C2425.77 656.384 2407.64 641.369 2404.49 623.024C2401.53 604.68 2414.26 590.18 2433.47 590.335ZM1477.24 828.728C1497.04 828.888 1512.82 844.946 1512.67 864.857C1512.51 884.769 1496.27 900.834 1476.28 900.672C1456.1 900.509 1440.31 884.185 1440.66 864.275C1441.02 844.365 1457.44 828.567 1477.24 828.728Z" stroke="#939393" stroke-width="0.4998" stroke-miterlimit="22.9256"/>
<rect x="525.92" y="1150.46" width="62" height="62" rx="2" fill="#2D2D2D"/>
<path d="M544.669 1163.51C547.748 1163.51 550.465 1165.52 551.364 1168.47C552.263 1171.41 551.131 1174.6 548.576 1176.32C548.353 1176.47 548.211 1176.71 548.191 1176.98C548.171 1177.25 548.276 1177.51 548.475 1177.69C549.211 1178.36 549.754 1179.21 550.049 1180.16L553.38 1190.82C553.462 1191.08 553.414 1191.37 553.25 1191.6C553.085 1191.82 552.824 1191.95 552.546 1191.96H550.167C549.723 1191.95 549.347 1192.28 549.292 1192.72L548.171 1201.69C548.115 1202.13 547.739 1202.46 547.296 1202.46H542.046C541.602 1202.46 541.226 1202.13 541.171 1201.69L540.062 1192.72C540.007 1192.28 539.631 1191.95 539.187 1191.96H536.796C536.518 1191.95 536.257 1191.82 536.092 1191.6C535.928 1191.37 535.88 1191.08 535.963 1190.82L539.288 1180.16C539.583 1179.21 540.127 1178.36 540.862 1177.69C541.061 1177.51 541.166 1177.25 541.146 1176.98C541.126 1176.71 540.984 1176.47 540.76 1176.32C538.206 1174.6 537.075 1171.41 537.973 1168.47C538.872 1165.52 541.59 1163.51 544.669 1163.51ZM545.261 1168.93C544.927 1168.63 544.415 1168.63 544.081 1168.93C543.404 1169.55 542.629 1170.05 541.79 1170.41C541.393 1170.58 541.183 1171.02 541.297 1171.44C541.708 1172.96 543.088 1174.02 544.664 1174.02C546.239 1174.02 547.619 1172.96 548.03 1171.44C548.143 1171.02 547.934 1170.58 547.537 1170.41C546.703 1170.05 545.933 1169.55 545.261 1168.93Z" fill="white"/>
<path d="M556.92 1160.46C555.953 1160.46 555.17 1161.24 555.17 1162.21V1200.71C555.17 1201.67 555.953 1202.46 556.92 1202.46C557.886 1202.46 558.67 1201.67 558.67 1200.71V1162.21C558.67 1161.24 557.886 1160.46 556.92 1160.46Z" fill="white"/>
<path d="M569.17 1163.48C572.155 1163.48 574.812 1165.37 575.786 1168.19C576.76 1171.02 575.838 1174.14 573.489 1175.99C573.261 1176.17 573.137 1176.45 573.156 1176.73C573.176 1177.02 573.337 1177.28 573.587 1177.43C576.267 1178.99 577.917 1181.85 577.92 1184.96V1189.33C577.92 1189.81 577.528 1190.21 577.045 1190.21H574.689C574.24 1190.2 573.862 1190.54 573.814 1190.99L572.67 1201.67C572.621 1202.12 572.243 1202.46 571.795 1202.46H566.545C566.096 1202.46 565.718 1202.12 565.67 1201.67L564.536 1190.99C564.489 1190.54 564.11 1190.2 563.661 1190.21H561.295C560.812 1190.21 560.42 1189.81 560.42 1189.33V1184.96C560.422 1181.85 562.073 1178.99 564.753 1177.43C565.003 1177.28 565.164 1177.02 565.184 1176.73C565.203 1176.45 565.079 1176.17 564.851 1175.99C562.501 1174.14 561.58 1171.02 562.554 1168.19C563.528 1165.37 566.184 1163.48 569.17 1163.48ZM566.986 1169.15C566.747 1169.04 566.47 1169.04 566.232 1169.16C565.995 1169.27 565.821 1169.49 565.761 1169.74C565.7 1170 565.67 1170.26 565.67 1170.52C565.67 1172.45 567.237 1174.02 569.17 1174.02C571.103 1174.02 572.67 1172.45 572.67 1170.52C572.672 1170.38 572.616 1170.25 572.516 1170.15C572.412 1170.06 572.274 1170.02 572.136 1170.03C571.831 1170.06 571.525 1170.08 571.219 1170.08C569.757 1170.08 568.313 1169.76 566.986 1169.15Z" fill="white"/>
<rect x="505.16" y="525.763" width="62" height="62" rx="2" fill="#2D2D2D"/>
<path d="M523.909 538.817C526.988 538.817 529.706 540.829 530.604 543.774C531.503 546.72 530.371 549.906 527.816 551.625C527.593 551.775 527.451 552.019 527.431 552.287C527.411 552.555 527.517 552.818 527.715 552.999C528.451 553.667 528.994 554.519 529.29 555.468L532.62 566.127C532.703 566.393 532.655 566.682 532.49 566.906C532.325 567.13 532.064 567.262 531.786 567.263H529.407C528.963 567.259 528.587 567.589 528.532 568.029L527.411 576.998C527.355 577.438 526.979 577.766 526.536 577.763H521.286C520.843 577.766 520.467 577.438 520.411 576.998L519.302 568.029C519.247 567.589 518.871 567.259 518.427 567.263H516.036C515.758 567.262 515.497 567.129 515.333 566.905C515.168 566.681 515.12 566.392 515.203 566.127L518.528 555.468C518.824 554.519 519.367 553.667 520.102 552.999C520.301 552.818 520.406 552.555 520.386 552.287C520.367 552.019 520.224 551.775 520.001 551.625C517.446 549.906 516.315 546.719 517.214 543.774C518.112 540.829 520.83 538.817 523.909 538.817ZM524.502 544.242C524.167 543.936 523.655 543.936 523.321 544.242C522.644 544.856 521.869 545.354 521.03 545.716C520.633 545.89 520.423 546.328 520.537 546.746C520.948 548.267 522.328 549.324 523.904 549.324C525.48 549.324 526.859 548.267 527.27 546.746C527.384 546.328 527.174 545.89 526.777 545.716C525.943 545.353 525.174 544.855 524.502 544.242Z" fill="white"/>
<path d="M536.16 535.763C535.194 535.763 534.41 536.546 534.41 537.513V576.013C534.41 576.979 535.194 577.763 536.16 577.763C537.127 577.763 537.91 576.979 537.91 576.013V537.513C537.91 536.546 537.127 535.763 536.16 535.763Z" fill="white"/>
<path d="M548.41 538.785C551.396 538.785 554.052 540.679 555.026 543.501C556.001 546.323 555.079 549.452 552.729 551.294C552.502 551.473 552.377 551.753 552.396 552.042C552.416 552.331 552.577 552.591 552.827 552.737C555.507 554.296 557.158 557.162 557.16 560.263V564.638C557.16 565.121 556.768 565.513 556.285 565.513H553.93C553.48 565.51 553.102 565.848 553.055 566.295L551.91 576.982C551.862 577.428 551.484 577.765 551.035 577.763H545.785C545.337 577.765 544.959 577.428 544.91 576.982L543.776 566.295C543.729 565.848 543.351 565.51 542.901 565.513H540.535C540.052 565.513 539.66 565.121 539.66 564.638V560.263C539.663 557.162 541.313 554.296 543.993 552.737C544.243 552.591 544.404 552.331 544.424 552.042C544.443 551.753 544.319 551.473 544.091 551.294C541.742 549.452 540.82 546.323 541.794 543.501C542.768 540.679 545.425 538.785 548.41 538.785ZM546.227 544.46C545.988 544.347 545.71 544.349 545.473 544.464C545.235 544.579 545.061 544.795 545.001 545.052C544.94 545.305 544.91 545.565 544.91 545.825C544.91 547.758 546.477 549.325 548.41 549.325C550.343 549.325 551.91 547.758 551.91 545.825C551.912 545.688 551.856 545.555 551.756 545.461C551.652 545.368 551.514 545.323 551.376 545.337C551.072 545.37 550.765 545.387 550.459 545.388C548.998 545.389 547.554 545.072 546.227 544.46Z" fill="white"/>
<mask id="path-52-inside-1_821_37031" fill="white">
<path d="M734.472 1150H815.534V1223.86H734.472V1248.76H1061.69V1150H1163.51V1336.36H1061.69V1336.36H651.431V1248.76H651.432V1150H734.472V1150Z"/>
</mask>
<path d="M734.472 1150H815.534V1223.86H734.472V1248.76H1061.69V1150H1163.51V1336.36H1061.69V1336.36H651.431V1248.76H651.432V1150H734.472V1150Z" fill="#DDE5ED"/>
<path d="M734.472 1150H732.472V1152H734.472V1150ZM815.534 1150H817.534V1148H815.534V1150ZM815.534 1223.86V1225.86H817.534V1223.86H815.534ZM734.472 1223.86V1221.86H732.472V1223.86H734.472ZM734.472 1248.76H732.472V1250.76H734.472V1248.76ZM1061.69 1248.76V1250.76H1063.69V1248.76H1061.69ZM1061.69 1150V1148H1059.69V1150H1061.69ZM1163.51 1150H1165.51V1148H1163.51V1150ZM1163.51 1336.36V1338.36H1165.51V1336.36H1163.51ZM1061.69 1336.36V1334.36H1059.69V1336.36H1061.69ZM1061.69 1336.36V1338.36H1063.69V1336.36H1061.69ZM651.431 1336.36H649.431V1338.36H651.431V1336.36ZM651.431 1248.76V1246.76H649.431V1248.76H651.431ZM651.432 1248.76V1250.76H653.432V1248.76H651.432ZM651.432 1150V1148H649.432V1150H651.432ZM734.472 1150H736.472V1148H734.472V1150ZM734.472 1150V1152H815.534V1150V1148H734.472V1150ZM815.534 1150H813.534V1223.86H815.534H817.534V1150H815.534ZM815.534 1223.86V1221.86H734.472V1223.86V1225.86H815.534V1223.86ZM734.472 1223.86H732.472V1248.76H734.472H736.472V1223.86H734.472ZM734.472 1248.76V1250.76H1061.69V1248.76V1246.76H734.472V1248.76ZM1061.69 1248.76H1063.69V1150H1061.69H1059.69V1248.76H1061.69ZM1061.69 1150V1152H1163.51V1150V1148H1061.69V1150ZM1163.51 1150H1161.51V1336.36H1163.51H1165.51V1150H1163.51ZM1163.51 1336.36V1334.36H1061.69V1336.36V1338.36H1163.51V1336.36ZM1061.69 1336.36H1059.69V1336.36H1061.69H1063.69V1336.36H1061.69ZM1061.69 1336.36V1334.36H651.431V1336.36V1338.36H1061.69V1336.36ZM651.431 1336.36H653.431V1248.76H651.431H649.431V1336.36H651.431ZM651.431 1248.76V1250.76H651.432V1248.76V1246.76H651.431V1248.76ZM651.432 1248.76H653.432V1150H651.432H649.432V1248.76H651.432ZM651.432 1150V1152H734.472V1150V1148H651.432V1150ZM734.472 1150H732.472V1150H734.472H736.472V1150H734.472Z" fill="#B3C5D6" mask="url(#path-52-inside-1_821_37031)"/>
<mask id="path-54-inside-2_821_37031" fill="white">
<path d="M653.409 1291.7H515.009V1255.63H620.786V1150H653.409V1291.7Z"/>
</mask>
<path d="M653.409 1291.7H515.009V1255.63H620.786V1150H653.409V1291.7Z" fill="#DDE5ED"/>
<path d="M653.409 1291.7V1293.7H655.409V1291.7H653.409ZM515.009 1291.7H513.009V1293.7H515.009V1291.7ZM515.009 1255.63V1253.63H513.009V1255.63H515.009ZM620.786 1255.63V1257.63H622.786V1255.63H620.786ZM620.786 1150V1148H618.786V1150H620.786ZM653.409 1150H655.409V1148H653.409V1150ZM653.409 1291.7V1289.7H515.009V1291.7V1293.7H653.409V1291.7ZM515.009 1291.7H517.009V1255.63H515.009H513.009V1291.7H515.009ZM515.009 1255.63V1257.63H620.786V1255.63V1253.63H515.009V1255.63ZM620.786 1255.63H622.786V1150H620.786H618.786V1255.63H620.786ZM620.786 1150V1152H653.409V1150V1148H620.786V1150ZM653.409 1150H651.409V1291.7H653.409H655.409V1150H653.409Z" fill="#B3C5D6" mask="url(#path-54-inside-2_821_37031)"/>
<rect x="492.964" y="1256" width="35" height="91" transform="rotate(-180 492.964 1256)" fill="#DDE5ED" stroke="#B3C5D6" stroke-width="2"/>
<mask id="path-57-inside-3_821_37031" fill="white">
<path d="M1002.38 1204.1H972.719V1223.86H879.793V1204.1H850.14V1150H1002.38V1204.1Z"/>
</mask>
<path d="M1002.38 1204.1H972.719V1223.86H879.793V1204.1H850.14V1150H1002.38V1204.1Z" fill="#DDE5ED"/>
<path d="M1002.38 1204.1V1206.1H1004.38V1204.1H1002.38ZM972.719 1204.1V1202.1H970.719V1204.1H972.719ZM972.719 1223.86V1225.86H974.719V1223.86H972.719ZM879.793 1223.86H877.793V1225.86H879.793V1223.86ZM879.793 1204.1H881.793V1202.1H879.793V1204.1ZM850.14 1204.1H848.14V1206.1H850.14V1204.1ZM850.14 1150V1148H848.14V1150H850.14ZM1002.38 1150H1004.38V1148H1002.38V1150ZM1002.38 1204.1V1202.1H972.719V1204.1V1206.1H1002.38V1204.1ZM972.719 1204.1H970.719V1223.86H972.719H974.719V1204.1H972.719ZM972.719 1223.86V1221.86H879.793V1223.86V1225.86H972.719V1223.86ZM879.793 1223.86H881.793V1204.1H879.793H877.793V1223.86H879.793ZM879.793 1204.1V1202.1H850.14V1204.1V1206.1H879.793V1204.1ZM850.14 1204.1H852.14V1150H850.14H848.14V1204.1H850.14ZM850.14 1150V1152H1002.38V1150V1148H850.14V1150ZM1002.38 1150H1000.38V1204.1H1002.38H1004.38V1150H1002.38Z" fill="#B3C5D6" mask="url(#path-57-inside-3_821_37031)"/>
<line x1="621.964" y1="1257.5" x2="456.964" y2="1257.5" stroke="#CDCDCD" stroke-width="3"/>
<line x1="493.964" y1="1165.5" x2="438.964" y2="1165.5" stroke="#CDCDCD" stroke-width="3"/>
<mask id="path-97-inside-4_821_37031" fill="white">
<path d="M1247.66 963.547L1349.27 1071.36L1289.87 1128.59L1188.26 1020.78L1247.66 963.547Z"/>
</mask>
<path d="M1247.66 963.547L1349.27 1071.36L1289.87 1128.59L1188.26 1020.78L1247.66 963.547Z" fill="white"/>
<path d="M1349.27 1071.36L1350.65 1072.82L1352.09 1071.43L1350.71 1069.98L1349.27 1071.36ZM1289.87 1128.59L1288.43 1129.98L1289.8 1131.44L1291.24 1130.05L1289.87 1128.59ZM1247.66 963.547L1246.22 964.934L1347.83 1072.75L1349.27 1071.36L1350.71 1069.98L1249.1 962.159L1247.66 963.547ZM1349.27 1071.36L1347.9 1069.91L1288.5 1127.14L1289.87 1128.59L1291.24 1130.05L1350.65 1072.82L1349.27 1071.36ZM1289.87 1128.59L1291.31 1127.2L1189.7 1019.39L1188.26 1020.78L1186.82 1022.16L1288.43 1129.98L1289.87 1128.59Z" fill="#CDCDCD" mask="url(#path-97-inside-4_821_37031)"/>
<path d="M1311.01 1122L1311.89 1202H1164.9L1164.91 1122H1311.01Z" fill="white" stroke="#CDCDCD" stroke-width="2"/>
<path d="M1279.03 1122.32L1340.43 1058.63C1346.94 1051.88 1357.61 1051.5 1364.55 1057.78L1507.21 1186.96C1513.38 1192.55 1509.41 1202.82 1501.08 1202.82L1431.06 1202.82L1431.06 1411.36L1316.51 1411.36L1316.51 1202.82L1288.22 1202.82C1281.64 1202.82 1276.31 1197.49 1276.31 1190.9L1276.31 1129.04C1276.31 1126.54 1277.29 1124.13 1279.03 1122.32Z" fill="white"/>
<path d="M1316.51 1202.82L1288.22 1202.82C1281.64 1202.82 1276.31 1197.49 1276.31 1190.9L1276.31 1129.04C1276.31 1126.54 1277.29 1124.13 1279.03 1122.32L1340.43 1058.63C1346.94 1051.88 1357.61 1051.5 1364.55 1057.78L1507.21 1186.96C1513.38 1192.55 1509.41 1202.82 1501.08 1202.82L1431.06 1202.82M1316.51 1202.82L1316.51 1411.36L1431.06 1411.36L1431.06 1202.82M1316.51 1202.82L1431.06 1202.82" stroke="#CDCDCD" stroke-width="2"/>
<mask id="path-103-inside-5_821_37031" fill="white">
<path d="M893.668 668.689V750.649H805.686V703.522H766.143V668.689H893.668Z"/>
</mask>
<path d="M893.668 668.689V750.649H805.686V703.522H766.143V668.689H893.668Z" fill="#DDE5ED"/>
<path d="M893.668 668.689H895.668V666.689H893.668V668.689ZM893.668 750.649V752.649H895.668V750.649H893.668ZM805.686 750.649H803.686V752.649H805.686V750.649ZM805.686 703.522H807.686V701.522H805.686V703.522ZM766.143 703.522H764.143V705.522H766.143V703.522ZM766.143 668.689V666.689H764.143V668.689H766.143ZM893.668 668.689H891.668V750.649H893.668H895.668V668.689H893.668ZM893.668 750.649V748.649H805.686V750.649V752.649H893.668V750.649ZM805.686 750.649H807.686V703.522H805.686H803.686V750.649H805.686ZM805.686 703.522V701.522H766.143V703.522V705.522H805.686V703.522ZM766.143 703.522H768.143V668.689H766.143H764.143V703.522H766.143ZM766.143 668.689V670.689H893.668V668.689V666.689H766.143V668.689Z" fill="#B3C5D6" mask="url(#path-103-inside-5_821_37031)"/>
<rect x="851.158" y="503.773" width="62" height="62" rx="2" fill="#2D2D2D"/>
<path d="M869.908 520.494H870.783C871.266 520.494 871.658 520.87 871.658 521.334V522.174C871.658 523.101 872.441 523.854 873.408 523.854C874.374 523.854 875.158 523.101 875.158 522.174V521.334C875.158 520.87 875.55 520.494 876.033 520.494H876.908C877.262 520.494 877.582 520.29 877.718 519.975C877.853 519.661 877.778 519.299 877.527 519.059L874.027 515.699C873.863 515.541 873.64 515.452 873.408 515.452C873.175 515.452 872.952 515.541 872.788 515.699L869.288 519.059C869.037 519.299 868.962 519.661 869.098 519.975C869.234 520.29 869.553 520.494 869.908 520.494Z" fill="white"/>
<path d="M890.288 523.609C890.452 523.767 890.675 523.856 890.908 523.856C891.14 523.856 891.363 523.767 891.527 523.609L895.027 520.249C895.278 520.009 895.353 519.647 895.218 519.332C895.082 519.018 894.762 518.813 894.408 518.814H893.533C893.05 518.814 892.658 518.438 892.658 517.974V517.134C892.658 516.206 891.874 515.454 890.908 515.454C889.941 515.454 889.158 516.206 889.158 517.134V517.974C889.158 518.438 888.766 518.814 888.283 518.814H887.408C887.053 518.813 886.734 519.018 886.598 519.332C886.462 519.647 886.537 520.009 886.788 520.249L890.288 523.609Z" fill="white"/>
<path d="M896.158 525.533C897.608 525.533 898.783 526.661 898.783 528.053V553.253C898.783 554.645 897.608 555.773 896.158 555.773H868.158C866.708 555.773 865.533 554.645 865.533 553.253V528.053C865.533 526.661 866.709 525.533 868.158 525.533H896.158ZM874.283 537.293C871.384 537.293 869.033 539.55 869.033 542.333V544.854C869.033 545.317 869.425 545.693 869.908 545.693H870.536C870.98 545.69 871.356 546.006 871.411 546.429L872.096 551.679C872.152 552.101 872.527 552.416 872.971 552.413H875.582C876.025 552.416 876.401 552.101 876.457 551.679L877.141 546.429C877.196 546.006 877.572 545.69 878.016 545.693H878.658C879.141 545.693 879.533 545.317 879.533 544.854V542.333C879.533 539.55 877.183 537.293 874.283 537.293ZM890.033 537.293C887.134 537.293 884.783 539.55 884.783 542.333V544.854C884.783 545.317 885.175 545.693 885.658 545.693H886.272C886.716 545.69 887.092 546.006 887.147 546.429L887.832 551.679C887.888 552.101 888.264 552.416 888.707 552.413H891.332C891.775 552.416 892.151 552.101 892.207 551.679L892.891 546.429C892.946 546.006 893.322 545.69 893.766 545.693H894.408C894.891 545.693 895.283 545.317 895.283 544.854V542.333C895.283 539.55 892.933 537.293 890.033 537.293ZM874.283 528.053C872.11 528.056 870.349 529.747 870.346 531.833C870.346 533.921 872.109 535.613 874.283 535.613C876.458 535.613 878.221 533.921 878.221 531.833C878.221 529.745 876.458 528.053 874.283 528.053ZM890.033 528.053C887.86 528.056 886.099 529.747 886.096 531.833C886.096 533.921 887.859 535.613 890.033 535.613C892.208 535.613 893.971 533.921 893.971 531.833C893.971 529.745 892.208 528.053 890.033 528.053Z" fill="white"/>
<path d="M479.951 585.233V521.265" stroke="white" stroke-width="3"/>
<mask id="path-110-inside-6_821_37031" fill="white">
<path d="M478.469 503.773H598.086V604.724H478.469V503.773Z"/>
</mask>
<path d="M598.086 503.773H601.086V500.773H598.086V503.773ZM598.086 604.724V607.724H601.086V604.724H598.086ZM478.469 503.773V506.773H598.086V503.773V500.773H478.469V503.773ZM598.086 503.773H595.086V604.724H598.086H601.086V503.773H598.086ZM598.086 604.724V601.724H478.469V604.724V607.724H598.086V604.724Z" fill="#CDCDCD" mask="url(#path-110-inside-6_821_37031)"/>
<rect x="481.436" y="463.793" width="30.6456" height="39.9803" fill="#8FA9C0"/>
<mask id="path-113-inside-7_821_37031" fill="white">
<path d="M1754.71 304.873H1860.49V355.848H1928.7V392.829H1954.4V410.82H2192.65V312.869H2236.15V373.839H2286.56V410.82H2286.56V447.803H1954.4V429.811H1860.49V355.848H1826.88V441.806H1796.23V474.788H1745.81V441.806H1650.91V355.848H1455.18V327.861H1333.58V311.869H1376.09V299.875H1754.71V304.873ZM2068.09 356.848H1950.45V324.863H2068.09V356.848ZM2286.56 345.853H2243.06V312.869H2286.56V345.853ZM2068.09 324.862H2013.72V295.877H2068.09V324.862Z"/>
</mask>
<rect x="2236.1" y="460.8" width="45.294" height="101.18" fill="#d9d9d9"/>
<path d="m1833.2 502.05v59.714l395.16 0.47322v-80.567h-206.24v47.393h-56.382v-32.701l-17.31-14.692h-96.435z" fill="#ededed" stroke="#f6f6f6" stroke-width="3.1577"/>
<path d="M1379.8 246.901V222.271H1490.22V199.924H1552.8V212.607" stroke="#CDCDCD" stroke-width="3"/>
<path d="M1650.91 376.836H1627.19V437.306" stroke="#E49D68" stroke-width="3"/>
<rect x="1963.3" y="481.784" width="62" height="62" rx="2" fill="#2D2D2D"/>
<path d="M2015.3 504.034C2015.3 503.068 2014.52 502.284 2013.55 502.284H2002.17C2000.72 502.284 1999.55 503.459 1999.55 504.909V508.409C1999.55 508.892 1999.16 509.284 1998.67 509.284H1995.17C1993.72 509.284 1992.55 510.459 1992.55 511.909V515.409C1992.55 515.892 1992.16 516.284 1991.67 516.284H1988.17C1986.72 516.284 1985.55 517.459 1985.55 518.909V522.409C1985.55 522.892 1985.16 523.284 1984.67 523.284H1981.17C1979.72 523.284 1978.55 524.459 1978.55 525.909V532.034C1978.55 533.001 1979.33 533.784 1980.3 533.784H2013.55C2014.52 533.784 2015.3 533.001 2015.3 532.034V504.034Z" fill="white"/>
<path d="M1994.12 502.029C1994.37 502.275 1994.75 502.347 1995.07 502.212C1995.4 502.076 1995.61 501.761 1995.61 501.409V492.659C1995.61 492.176 1995.22 491.784 1994.74 491.784H1985.99C1985.63 491.786 1985.32 492.001 1985.18 492.327C1985.05 492.654 1985.12 493.029 1985.37 493.279L1987.27 495.177C1987.43 495.342 1987.52 495.564 1987.52 495.797C1987.52 496.029 1987.43 496.252 1987.27 496.416L1974.07 509.615C1973.04 510.64 1973.04 512.303 1974.07 513.328C1975.09 514.354 1976.75 514.354 1977.78 513.328L1990.97 500.128C1991.14 499.964 1991.36 499.871 1991.59 499.871C1991.83 499.871 1992.05 499.964 1992.21 500.128L1994.12 502.029Z" fill="white"/>
<path d="M1395.86 89.4785V178.435H1450.73V89.4785H1395.86Z" fill="white" stroke="#CDCDCD" stroke-width="3"/>
<path d="M2038 89V178H2090V89H2038Z" fill="#F6F6F6" stroke="#CDCDCD" stroke-width="3"/>
<path d="M2134 89V178H2186V89H2134Z" fill="#F6F6F6" stroke="#CDCDCD" stroke-width="3"/>
<path d="M2154.61 134.021V142.781C2153.58 143.298 2152.47 143.683 2151.29 143.937C2150.1 144.19 2148.79 144.317 2147.35 144.317C2144.18 144.317 2141.74 143.501 2140.01 141.867C2138.29 140.225 2137.42 137.902 2137.42 134.897C2137.42 131.791 2138.29 129.362 2140.02 127.61C2141.76 125.85 2144.17 124.97 2147.25 124.97C2149.52 124.97 2151.33 125.49 2152.66 126.531C2153.99 127.572 2154.66 128.965 2154.66 130.708V131.051H2150.89C2150.84 129.9 2150.49 129.024 2149.83 128.423C2149.16 127.822 2148.23 127.521 2147.02 127.521C2145.32 127.521 2143.97 128.169 2142.98 129.464C2142 130.759 2141.51 132.528 2141.51 134.771C2141.51 136.971 2142.03 138.638 2143.06 139.772C2144.1 140.907 2145.63 141.474 2147.64 141.474C2148.17 141.474 2148.68 141.444 2149.19 141.385C2149.71 141.317 2150.21 141.22 2150.7 141.093L2150.71 137.005H2147.15V134.021H2154.61ZM2161.98 144V129.959C2161.15 130.535 2160.4 131.004 2159.73 131.368C2159.06 131.732 2158.43 132.016 2157.85 132.219V128.588C2158.74 128.207 2159.55 127.797 2160.29 127.356C2161.02 126.908 2161.7 126.417 2162.32 125.884H2165.83V144H2161.98ZM2178.25 134.923C2178.25 132.739 2178.04 131.093 2177.63 129.984C2177.22 128.876 2176.61 128.321 2175.8 128.321C2174.99 128.321 2174.38 128.871 2173.97 129.972C2173.57 131.063 2173.36 132.714 2173.36 134.923C2173.36 137.157 2173.56 138.82 2173.96 139.912C2174.37 141.004 2174.98 141.55 2175.8 141.55C2176.61 141.55 2177.22 140.995 2177.63 139.887C2178.04 138.778 2178.25 137.123 2178.25 134.923ZM2175.8 125.592C2177.88 125.592 2179.46 126.383 2180.52 127.966C2181.59 129.54 2182.12 131.859 2182.12 134.923C2182.12 137.987 2181.59 140.314 2180.51 141.905C2179.45 143.496 2177.88 144.292 2175.8 144.292C2173.73 144.292 2172.16 143.501 2171.09 141.918C2170.03 140.327 2169.49 137.995 2169.49 134.923C2169.49 131.842 2170.02 129.519 2171.08 127.953C2172.15 126.379 2173.72 125.592 2175.8 125.592Z" fill="#5B5B5B"/>
<path d="M2230 89V178H2282V89H2230Z" fill="#F6F6F6" stroke="#CDCDCD" stroke-width="3"/>
<path d="M2251.61 134.021V142.781C2250.58 143.298 2249.47 143.683 2248.29 143.937C2247.1 144.19 2245.79 144.317 2244.35 144.317C2241.18 144.317 2238.74 143.501 2237.01 141.867C2235.29 140.225 2234.42 137.902 2234.42 134.897C2234.42 131.791 2235.29 129.362 2237.02 127.61C2238.76 125.85 2241.17 124.97 2244.25 124.97C2246.52 124.97 2248.33 125.49 2249.66 126.531C2250.99 127.572 2251.66 128.965 2251.66 130.708V131.051H2247.89C2247.84 129.9 2247.49 129.024 2246.83 128.423C2246.16 127.822 2245.23 127.521 2244.02 127.521C2242.32 127.521 2240.97 128.169 2239.98 129.464C2239 130.759 2238.51 132.528 2238.51 134.771C2238.51 136.971 2239.03 138.638 2240.06 139.772C2241.1 140.907 2242.63 141.474 2244.64 141.474C2245.17 141.474 2245.68 141.444 2246.19 141.385C2246.71 141.317 2247.21 141.22 2247.7 141.093L2247.71 137.005H2244.15V134.021H2251.61ZM2258.98 144V129.959C2258.15 130.535 2257.4 131.004 2256.73 131.368C2256.06 131.732 2255.43 132.016 2254.85 132.219V128.588C2255.74 128.207 2256.55 127.797 2257.29 127.356C2258.02 126.908 2258.7 126.417 2259.32 125.884H2262.83V144H2258.98ZM2272.33 144V129.959C2271.5 130.535 2270.75 131.004 2270.08 131.368C2269.42 131.732 2268.79 132.016 2268.21 132.219V128.588C2269.09 128.207 2269.91 127.797 2270.64 127.356C2271.38 126.908 2272.06 126.417 2272.67 125.884H2276.19V144H2272.33Z" fill="#5B5B5B"/>
<path d="M1762.62 161.76V178.751H1796.23V161.76L1800.71 156.421C1806.76 149.217 1810.07 140.12 1810.07 130.715V79.0856C1810.07 65.483 1805.02 50.8797 1792.03 46.8517C1782.69 43.9551 1773.43 44.758 1765.5 47.1916C1752.04 51.3188 1746.4 65.836 1746.56 79.9142L1747.12 129.815C1747.23 139.759 1751.05 149.304 1757.82 156.589L1762.62 161.76Z" fill="#F6F6F6" stroke="#CDCDCD" stroke-width="3"/>
<path d="M1914.36 161.76V178.751H1947.98V161.76L1952.46 156.421C1958.5 149.217 1961.82 140.12 1961.82 130.715V79.0856C1961.82 65.483 1956.77 50.8797 1943.77 46.8517C1934.43 43.9551 1925.18 44.758 1917.24 47.1916C1903.78 51.3188 1898.14 65.836 1898.3 79.9142L1898.87 129.815C1898.98 139.759 1902.79 149.304 1909.56 156.589L1914.36 161.76Z" fill="#F6F6F6" stroke="#CDCDCD" stroke-width="3"/>
<path d="M1197.16 151.947V177.934H1240.16V151.947L1272.72 110.303C1282.99 97.1729 1273.63 77.9834 1256.97 77.9834H1179.24C1162.42 77.9834 1153.12 97.4807 1163.69 110.559L1197.16 151.947Z" fill="#F6F6F6" stroke="#CDCDCD" stroke-width="3"/>
<path d="M1218.97 113.021V121.781C1217.94 122.298 1216.83 122.683 1215.64 122.937C1214.46 123.19 1213.14 123.317 1211.71 123.317C1208.54 123.317 1206.09 122.501 1204.37 120.867C1202.64 119.225 1201.78 116.902 1201.78 113.897C1201.78 110.791 1202.65 108.362 1204.38 106.61C1206.12 104.85 1208.52 103.97 1211.6 103.97C1213.88 103.97 1215.68 104.49 1217.01 105.531C1218.35 106.572 1219.02 107.965 1219.02 109.708V110.051H1215.25C1215.2 108.9 1214.84 108.024 1214.18 107.423C1213.52 106.822 1212.59 106.521 1211.38 106.521C1209.67 106.521 1208.33 107.169 1207.34 108.464C1206.36 109.759 1205.87 111.528 1205.87 113.771C1205.87 115.971 1206.38 117.638 1207.42 118.772C1208.46 119.907 1209.98 120.474 1212 120.474C1212.52 120.474 1213.04 120.444 1213.55 120.385C1214.06 120.317 1214.57 120.22 1215.06 120.093L1215.07 116.005H1211.5V113.021H1218.97ZM1229.3 117.198C1229.3 116.242 1229.09 115.484 1228.66 114.926C1228.23 114.367 1227.66 114.088 1226.94 114.088C1226.21 114.088 1225.64 114.367 1225.21 114.926C1224.8 115.476 1224.59 116.233 1224.59 117.198C1224.59 118.146 1224.8 118.908 1225.23 119.483C1225.66 120.059 1226.22 120.347 1226.9 120.347C1227.64 120.347 1228.22 120.067 1228.66 119.509C1229.09 118.942 1229.3 118.172 1229.3 117.198ZM1224.64 112.501C1225.17 112.052 1225.7 111.718 1226.23 111.498C1226.76 111.278 1227.31 111.168 1227.87 111.168C1229.48 111.168 1230.77 111.688 1231.74 112.729C1232.71 113.771 1233.2 115.159 1233.2 116.894C1233.2 118.823 1232.62 120.376 1231.47 121.553C1230.33 122.729 1228.82 123.317 1226.94 123.317C1224.81 123.317 1223.2 122.628 1222.13 121.248C1221.06 119.86 1220.52 117.799 1220.52 115.065C1220.52 111.621 1221.1 109.018 1222.26 107.258C1223.42 105.497 1225.13 104.617 1227.4 104.617C1229.01 104.617 1230.26 105.023 1231.16 105.836C1232.05 106.648 1232.51 107.783 1232.53 109.238H1229.2C1229.12 108.637 1228.91 108.163 1228.55 107.816C1228.21 107.469 1227.76 107.296 1227.22 107.296C1226.36 107.296 1225.71 107.715 1225.28 108.553C1224.86 109.391 1224.64 110.652 1224.64 112.336V112.501Z" fill="#5B5B5B"/>
<path d="M490.826 152.947V178.934H533.829V152.947L566.39 111.303C576.656 98.1729 567.301 78.9834 550.634 78.9834H472.911C456.092 78.9834 446.784 98.4807 457.359 111.559L490.826 152.947Z" fill="#F6F6F6" stroke="#CDCDCD" stroke-width="3"/>
<path d="M512.968 113.021V121.781C511.935 122.298 510.826 122.683 509.642 122.937C508.457 123.19 507.145 123.317 505.706 123.317C502.541 123.317 500.095 122.501 498.368 120.867C496.642 119.225 495.778 116.902 495.778 113.897C495.778 110.791 496.646 108.362 498.381 106.61C500.116 104.85 502.524 103.97 505.604 103.97C507.881 103.97 509.684 104.49 511.013 105.531C512.35 106.572 513.019 107.965 513.019 109.708V110.051H509.248C509.197 108.9 508.842 108.024 508.182 107.423C507.521 106.822 506.586 106.521 505.376 106.521C503.675 106.521 502.329 107.169 501.339 108.464C500.357 109.759 499.866 111.528 499.866 113.771C499.866 115.971 500.382 117.638 501.415 118.772C502.456 119.907 503.984 120.474 505.998 120.474C506.523 120.474 507.039 120.444 507.547 120.385C508.063 120.317 508.567 120.22 509.058 120.093L509.07 116.005H505.503V113.021H512.968ZM514.594 118.455H518.517C518.534 119.064 518.715 119.543 519.062 119.89C519.418 120.228 519.896 120.397 520.497 120.397C521.318 120.397 521.97 120.08 522.452 119.445C522.935 118.811 523.176 117.943 523.176 116.843C523.176 115.895 522.956 115.129 522.516 114.545C522.076 113.961 521.504 113.669 520.802 113.669C520.252 113.669 519.773 113.83 519.367 114.151C518.969 114.473 518.669 114.934 518.466 115.535H514.645L515.063 104.884H525.905V107.816H518.491L518.237 112.234C518.728 111.803 519.24 111.49 519.773 111.295C520.315 111.092 520.912 110.99 521.563 110.99C523.172 110.99 524.483 111.519 525.499 112.577C526.515 113.635 527.022 115.002 527.022 116.678C527.022 118.65 526.396 120.249 525.144 121.477C523.899 122.704 522.27 123.317 520.256 123.317C518.538 123.317 517.162 122.882 516.13 122.01C515.106 121.13 514.594 119.962 514.594 118.506V118.455Z" fill="#5B5B5B"/>
<rect x="465.553" y="191.003" width="25.8326" height="25.8326" rx="1" fill="#DDE5ED" stroke="#B3C5D6" stroke-width="2"/>
<rect x="141.303" y="629.787" width="25.8326" height="25.8326" rx="1" fill="#DDE5ED" stroke="#B3C5D6" stroke-width="2"/>
<rect x="141.301" y="408.896" width="25.8326" height="25.8326" rx="1" fill="#DDE5ED" stroke="#B3C5D6" stroke-width="2"/>
<rect x="141.303" y="887.659" width="25.8326" height="25.8326" rx="1" fill="#DDE5ED" stroke="#B3C5D6" stroke-width="2"/>
<rect x="1236.64" y="187.005" width="25.8326" height="25.8326" rx="1" fill="#DDE5ED" stroke="#B3C5D6" stroke-width="2"/>
<rect x="1732.9" y="191.003" width="25.8326" height="25.8326" rx="1" fill="#DDE5ED" stroke="#B3C5D6" stroke-width="2"/>
<rect x="1885.14" y="191.003" width="25.8326" height="25.8326" rx="1" fill="#DDE5ED" stroke="#B3C5D6" stroke-width="2"/>
<rect x="2011.67" y="191.003" width="25.8326" height="25.8326" rx="1" fill="#DDE5ED" stroke="#B3C5D6" stroke-width="2"/>
<rect x="2107.57" y="191.003" width="25.8326" height="25.8326" rx="1" fill="#DDE5ED" stroke="#B3C5D6" stroke-width="2"/>
<rect x="2203.46" y="191.003" width="25.8326" height="25.8326" rx="1" fill="#DDE5ED" stroke="#B3C5D6" stroke-width="2"/>
<rect x="1974.17" y="366.841" width="62" height="62" rx="2" fill="#2D2D2D"/>
<path d="M1992.92 379.896C1996 379.896 1998.72 381.908 1999.62 384.853C2000.51 387.798 1999.38 390.984 1996.83 392.703C1996.6 392.853 1996.46 393.097 1996.44 393.365C1996.42 393.633 1996.53 393.896 1996.73 394.077C1997.46 394.745 1998.01 395.598 1998.3 396.546L2001.63 407.205C2001.71 407.471 2001.67 407.76 2001.5 407.984C2001.34 408.208 2001.08 408.341 2000.8 408.341H1998.42C1997.97 408.338 1997.6 408.667 1997.54 409.107L1996.42 418.076C1996.37 418.516 1995.99 418.844 1995.55 418.841H1990.3C1989.85 418.844 1989.48 418.516 1989.42 418.076L1988.31 409.107C1988.26 408.667 1987.88 408.337 1987.44 408.341H1985.05C1984.77 408.34 1984.51 408.207 1984.34 407.983C1984.18 407.759 1984.13 407.47 1984.21 407.205L1987.54 396.546C1987.84 395.598 1988.38 394.745 1989.11 394.077C1989.31 393.896 1989.42 393.633 1989.4 393.365C1989.38 393.097 1989.24 392.853 1989.01 392.703C1986.46 390.984 1985.33 387.798 1986.23 384.853C1987.12 381.908 1989.84 379.896 1992.92 379.896ZM1993.51 385.32C1993.18 385.014 1992.67 385.014 1992.33 385.32C1991.66 385.934 1990.88 386.432 1990.04 386.794C1989.64 386.968 1989.43 387.406 1989.55 387.824C1989.96 389.345 1991.34 390.402 1992.92 390.402C1994.49 390.402 1995.87 389.345 1996.28 387.824C1996.4 387.406 1996.19 386.968 1995.79 386.794C1994.95 386.431 1994.19 385.933 1993.51 385.32Z" fill="white"/>
<path d="M2005.17 376.841C2004.21 376.841 2003.42 377.624 2003.42 378.591V417.091C2003.42 418.057 2004.21 418.841 2005.17 418.841C2006.14 418.841 2006.92 418.057 2006.92 417.091V378.591C2006.92 377.624 2006.14 376.841 2005.17 376.841Z" fill="white"/>
<path d="M2017.42 379.863C2020.41 379.863 2023.06 381.757 2024.04 384.579C2025.01 387.401 2024.09 390.53 2021.74 392.372C2021.51 392.551 2021.39 392.831 2021.41 393.12C2021.43 393.409 2021.59 393.669 2021.84 393.815C2024.52 395.374 2026.17 398.24 2026.17 401.341V405.716C2026.17 406.199 2025.78 406.591 2025.3 406.591H2022.94C2022.49 406.588 2022.11 406.926 2022.07 407.373L2020.92 418.061C2020.87 418.506 2020.5 418.843 2020.05 418.841H2014.8C2014.35 418.843 2013.97 418.506 2013.92 418.061L2012.79 407.373C2012.74 406.926 2012.36 406.588 2011.91 406.591H2009.55C2009.06 406.591 2008.67 406.199 2008.67 405.716V401.341C2008.67 398.24 2010.32 395.374 2013 393.815C2013.25 393.669 2013.42 393.409 2013.44 393.12C2013.46 392.831 2013.33 392.551 2013.1 392.372C2010.75 390.53 2009.83 387.401 2010.81 384.579C2011.78 381.757 2014.44 379.863 2017.42 379.863ZM2015.24 385.538C2015 385.425 2014.72 385.427 2014.48 385.542C2014.25 385.657 2014.07 385.873 2014.01 386.13C2013.95 386.383 2013.92 386.643 2013.92 386.903C2013.92 388.836 2015.49 390.403 2017.42 390.403C2019.35 390.403 2020.92 388.836 2020.92 386.903C2020.92 386.766 2020.87 386.633 2020.77 386.539C2020.66 386.446 2020.53 386.401 2020.39 386.415C2020.08 386.448 2019.78 386.465 2019.47 386.466C2018.01 386.467 2016.57 386.15 2015.24 385.538Z" fill="white"/>
<rect x="1862" y="435" width="62" height="62" rx="2" fill="#2D2D2D"/>
<path d="M1880.75 448.055C1883.83 448.055 1886.54 450.067 1887.44 453.012C1888.34 455.957 1887.21 459.143 1884.65 460.862C1884.43 461.012 1884.29 461.256 1884.27 461.524C1884.25 461.793 1884.36 462.055 1884.55 462.236C1885.29 462.904 1885.83 463.757 1886.13 464.705L1889.46 475.364C1889.54 475.63 1889.49 475.919 1889.33 476.144C1889.16 476.368 1888.9 476.5 1888.62 476.5H1886.25C1885.8 476.497 1885.43 476.826 1885.37 477.267L1884.25 486.235C1884.19 486.675 1883.82 487.003 1883.37 487H1878.12C1877.68 487.004 1877.31 486.675 1877.25 486.235L1876.14 477.267C1876.09 476.826 1875.71 476.497 1875.27 476.5H1872.87C1872.6 476.499 1872.34 476.367 1872.17 476.143C1872.01 475.918 1871.96 475.63 1872.04 475.364L1875.37 464.705C1875.66 463.757 1876.21 462.904 1876.94 462.236C1877.14 462.055 1877.25 461.793 1877.23 461.524C1877.21 461.256 1877.06 461.012 1876.84 460.862C1874.29 459.143 1873.15 455.957 1874.05 453.012C1874.95 450.067 1877.67 448.055 1880.75 448.055ZM1881.34 453.479C1881.01 453.174 1880.49 453.174 1880.16 453.479C1879.48 454.093 1878.71 454.591 1877.87 454.953C1877.47 455.127 1877.26 455.565 1877.38 455.983C1877.79 457.505 1879.17 458.562 1880.74 458.562C1882.32 458.561 1883.7 457.504 1884.11 455.983C1884.22 455.565 1884.01 455.127 1883.62 454.953C1882.78 454.59 1882.01 454.093 1881.34 453.479Z" fill="white"/>
<path d="M1893 445C1892.03 445 1891.25 445.784 1891.25 446.75V485.25C1891.25 486.216 1892.03 487 1893 487C1893.97 487 1894.75 486.216 1894.75 485.25V446.75C1894.75 445.784 1893.97 445 1893 445Z" fill="white"/>
<path d="M1905.25 448.022C1908.23 448.022 1910.89 449.916 1911.87 452.738C1912.84 455.56 1911.92 458.689 1909.57 460.531C1909.34 460.71 1909.22 460.99 1909.24 461.279C1909.26 461.568 1909.42 461.828 1909.67 461.975C1912.35 463.533 1914 466.399 1914 469.5V473.875C1914 474.358 1913.61 474.75 1913.12 474.75H1910.77C1910.32 474.747 1909.94 475.086 1909.89 475.532L1908.75 486.22C1908.7 486.666 1908.32 487.003 1907.87 487H1902.62C1902.18 487.003 1901.8 486.666 1901.75 486.22L1900.62 475.532C1900.57 475.086 1900.19 474.748 1899.74 474.75H1897.37C1896.89 474.75 1896.5 474.358 1896.5 473.875V469.5C1896.5 466.399 1898.15 463.533 1900.83 461.975C1901.08 461.828 1901.24 461.568 1901.26 461.279C1901.28 460.99 1901.16 460.71 1900.93 460.531C1898.58 458.689 1897.66 455.56 1898.63 452.738C1899.61 449.916 1902.26 448.022 1905.25 448.022ZM1903.07 453.697C1902.83 453.585 1902.55 453.586 1902.31 453.701C1902.07 453.816 1901.9 454.032 1901.84 454.289C1901.78 454.542 1901.75 454.802 1901.75 455.062C1901.75 456.995 1903.32 458.562 1905.25 458.562C1907.18 458.562 1908.75 456.995 1908.75 455.062C1908.75 454.925 1908.69 454.793 1908.59 454.698C1908.49 454.605 1908.35 454.56 1908.21 454.574C1907.91 454.607 1907.6 454.624 1907.3 454.625C1905.84 454.626 1904.39 454.309 1903.07 453.697Z" fill="white"/>
<path d="M745.381 702.676H878.838M783.298 324.862H861.79" stroke="#CDCDCD" stroke-width="3"/>
<rect x="800.742" y="699.677" width="62" height="62" rx="2" fill="#2D2D2D"/>
<path d="M852.742 721.927C852.742 720.96 851.959 720.177 850.992 720.177H839.617C838.167 720.177 836.992 721.352 836.992 722.802V726.302C836.992 726.785 836.6 727.177 836.117 727.177H832.617C831.167 727.177 829.992 728.352 829.992 729.802V733.302C829.992 733.785 829.6 734.177 829.117 734.177H825.617C824.167 734.177 822.992 735.352 822.992 736.802V740.302C822.992 740.785 822.6 741.177 822.117 741.177H818.617C817.167 741.177 815.992 742.352 815.992 743.802V749.927C815.992 750.893 816.776 751.677 817.742 751.677H850.992C851.959 751.677 852.742 750.893 852.742 749.927V721.927Z" fill="white"/>
<path d="M831.567 719.921C831.818 720.167 832.192 720.239 832.516 720.104C832.84 719.969 833.052 719.653 833.055 719.302V710.552C833.055 710.069 832.663 709.677 832.18 709.677H823.43C823.076 709.679 822.759 709.893 822.625 710.22C822.491 710.547 822.567 710.922 822.817 711.171L824.711 713.07C824.875 713.234 824.968 713.457 824.968 713.69C824.968 713.922 824.875 714.145 824.711 714.309L811.51 727.508C810.485 728.533 810.485 730.196 811.51 731.221C812.536 732.246 814.198 732.246 815.224 731.221L828.417 718.021C828.581 717.856 828.804 717.764 829.037 717.764C829.269 717.764 829.492 717.856 829.656 718.021L831.567 719.921Z" fill="white"/>
<rect x="918" y="504" width="61.2912" height="61.9694" rx="2" fill="#2D2D2D"/>
<path d="M958.465 528.075C958.807 528.417 958.807 528.971 958.465 529.312L956.255 531.521C956.004 531.771 955.929 532.148 956.065 532.475C956.201 532.803 956.52 533.016 956.875 533.015H965.625C966.108 533.015 966.5 532.623 966.5 532.14V523.39C966.5 523.036 966.286 522.717 965.959 522.582C965.632 522.449 965.257 522.524 965.005 522.771L962.797 524.981C962.455 525.323 961.901 525.323 961.559 524.981L953.172 516.593C952.622 516.025 951.809 515.797 951.044 515.997C950.279 516.198 949.682 516.795 949.482 517.56C949.282 518.325 949.511 519.138 950.079 519.687L958.465 528.075Z" fill="white"/>
<path d="M970 547.891C970 544.508 967.258 541.766 963.875 541.766H957.974C957.733 541.765 957.502 541.665 957.337 541.489L945.25 528.597C944.753 528.067 944.06 527.766 943.333 527.766H934.125C930.742 527.766 928 530.508 928 533.891C928 537.273 930.742 540.016 934.125 540.016H939.151C939.392 540.016 939.623 540.116 939.788 540.292L951.877 553.184C952.373 553.714 953.066 554.015 953.792 554.016H963.875C967.258 554.016 970 551.273 970 547.891Z" fill="white"/>
<rect x="1099" y="1085" width="61.2912" height="61.9694" rx="2" fill="#2D2D2D"/>
<path d="M1139.47 1109.07C1139.81 1109.42 1139.81 1109.97 1139.47 1110.31L1137.26 1112.52C1137 1112.77 1136.93 1113.15 1137.06 1113.48C1137.2 1113.8 1137.52 1114.02 1137.87 1114.02H1146.62C1147.11 1114.02 1147.5 1113.62 1147.5 1113.14V1104.39C1147.5 1104.04 1147.29 1103.72 1146.96 1103.58C1146.63 1103.45 1146.26 1103.52 1146.01 1103.77L1143.8 1105.98C1143.46 1106.32 1142.9 1106.32 1142.56 1105.98L1134.17 1097.59C1133.62 1097.02 1132.81 1096.8 1132.04 1097C1131.28 1097.2 1130.68 1097.8 1130.48 1098.56C1130.28 1099.32 1130.51 1100.14 1131.08 1100.69L1139.47 1109.07Z" fill="white"/>
<path d="M1151 1128.89C1151 1125.51 1148.26 1122.77 1144.88 1122.77H1138.97C1138.73 1122.77 1138.5 1122.67 1138.34 1122.49L1126.25 1109.6C1125.75 1109.07 1125.06 1108.77 1124.33 1108.77H1115.12C1111.74 1108.77 1109 1111.51 1109 1114.89C1109 1118.27 1111.74 1121.02 1115.12 1121.02H1120.15C1120.39 1121.02 1120.62 1121.12 1120.79 1121.29L1132.88 1134.18C1133.37 1134.71 1134.07 1135.02 1134.79 1135.02H1144.88C1148.26 1135.02 1151 1132.27 1151 1128.89Z" fill="white"/>
<line x1="1551.5" y1="300" x2="1551.5" y2="180" stroke="#CDCDCD" stroke-width="7"/>
<path d="M1779.97 104.021V112.781C1778.94 113.298 1777.83 113.683 1776.64 113.937C1775.46 114.19 1774.14 114.317 1772.71 114.317C1769.54 114.317 1767.09 113.501 1765.37 111.867C1763.64 110.225 1762.78 107.902 1762.78 104.897C1762.78 101.791 1763.65 99.3623 1765.38 97.6104C1767.12 95.8499 1769.52 94.9697 1772.6 94.9697C1774.88 94.9697 1776.68 95.4902 1778.01 96.5312C1779.35 97.5723 1780.02 98.9645 1780.02 100.708V101.051H1776.25C1776.2 99.8997 1775.84 99.0238 1775.18 98.4229C1774.52 97.8219 1773.59 97.5215 1772.38 97.5215C1770.67 97.5215 1769.33 98.1689 1768.34 99.4639C1767.36 100.759 1766.87 102.528 1766.87 104.771C1766.87 106.971 1767.38 108.638 1768.42 109.772C1769.46 110.907 1770.98 111.474 1773 111.474C1773.52 111.474 1774.04 111.444 1774.55 111.385C1775.06 111.317 1775.57 111.22 1776.06 111.093L1776.07 107.005H1772.5V104.021H1779.97ZM1783.13 114L1789.78 98.9688H1781.4V95.8838H1793.5V99.3369L1787.45 114H1783.13Z" fill="#5B5B5B"/>
<path d="M1932.97 104.021V112.781C1931.94 113.298 1930.83 113.683 1929.64 113.937C1928.46 114.19 1927.14 114.317 1925.71 114.317C1922.54 114.317 1920.09 113.501 1918.37 111.867C1916.64 110.225 1915.78 107.902 1915.78 104.897C1915.78 101.791 1916.65 99.3623 1918.38 97.6104C1920.12 95.8499 1922.52 94.9697 1925.6 94.9697C1927.88 94.9697 1929.68 95.4902 1931.01 96.5312C1932.35 97.5723 1933.02 98.9645 1933.02 100.708V101.051H1929.25C1929.2 99.8997 1928.84 99.0238 1928.18 98.4229C1927.52 97.8219 1926.59 97.5215 1925.38 97.5215C1923.67 97.5215 1922.33 98.1689 1921.34 99.4639C1920.36 100.759 1919.87 102.528 1919.87 104.771C1919.87 106.971 1920.38 108.638 1921.42 109.772C1922.46 110.907 1923.98 111.474 1926 111.474C1926.52 111.474 1927.04 111.444 1927.55 111.385C1928.06 111.317 1928.57 111.22 1929.06 111.093L1929.07 107.005H1925.5V104.021H1932.97ZM1937.87 104.428C1936.81 104.182 1936.01 103.734 1935.47 103.082C1934.94 102.43 1934.67 101.588 1934.67 100.556C1934.67 98.973 1935.2 97.7458 1936.27 96.874C1937.34 96.0023 1938.85 95.5664 1940.8 95.5664C1942.77 95.5664 1944.28 95.998 1945.33 96.8613C1946.39 97.7246 1946.92 98.9561 1946.92 100.556C1946.92 101.563 1946.65 102.392 1946.11 103.044C1945.58 103.687 1944.78 104.148 1943.72 104.428C1944.91 104.885 1945.77 105.469 1946.3 106.18C1946.83 106.891 1947.1 107.809 1947.1 108.935C1947.1 110.458 1946.5 111.736 1945.3 112.769C1944.1 113.801 1942.6 114.317 1940.8 114.317C1938.98 114.317 1937.48 113.797 1936.28 112.756C1935.09 111.715 1934.49 110.395 1934.49 108.795C1934.49 107.779 1934.75 106.929 1935.28 106.243C1935.81 105.549 1936.68 104.944 1937.87 104.428ZM1938.2 108.77C1938.2 109.48 1938.45 110.098 1938.96 110.623C1939.47 111.139 1940.07 111.397 1940.78 111.397C1941.54 111.397 1942.16 111.144 1942.66 110.636C1943.15 110.119 1943.4 109.472 1943.4 108.693C1943.4 107.949 1943.15 107.318 1942.63 106.802C1942.12 106.277 1941.5 106.015 1940.78 106.015C1940.07 106.015 1939.46 106.285 1938.95 106.827C1938.45 107.36 1938.2 108.008 1938.2 108.77ZM1938.49 100.657C1938.49 101.36 1938.7 101.931 1939.13 102.371C1939.55 102.811 1940.1 103.031 1940.78 103.031C1941.47 103.031 1942.03 102.811 1942.46 102.371C1942.9 101.931 1943.12 101.36 1943.12 100.657C1943.12 100.014 1942.9 99.4766 1942.45 99.0449C1942 98.6133 1941.44 98.3975 1940.78 98.3975C1940.13 98.3975 1939.59 98.6133 1939.15 99.0449C1938.71 99.4766 1938.49 100.014 1938.49 100.657Z" fill="#5B5B5B"/>
<path d="M2068.97 133.021V141.781C2067.94 142.298 2066.83 142.683 2065.64 142.937C2064.46 143.19 2063.14 143.317 2061.71 143.317C2058.54 143.317 2056.09 142.501 2054.37 140.867C2052.64 139.225 2051.78 136.902 2051.78 133.897C2051.78 130.791 2052.65 128.362 2054.38 126.61C2056.12 124.85 2058.52 123.97 2061.6 123.97C2063.88 123.97 2065.68 124.49 2067.01 125.531C2068.35 126.572 2069.02 127.965 2069.02 129.708V130.051H2065.25C2065.2 128.9 2064.84 128.024 2064.18 127.423C2063.52 126.822 2062.59 126.521 2061.38 126.521C2059.67 126.521 2058.33 127.169 2057.34 128.464C2056.36 129.759 2055.87 131.528 2055.87 133.771C2055.87 135.971 2056.38 137.638 2057.42 138.772C2058.46 139.907 2059.98 140.474 2062 140.474C2062.52 140.474 2063.04 140.444 2063.55 140.385C2064.06 140.317 2064.57 140.22 2065.06 140.093L2065.07 136.005H2061.5V133.021H2068.97ZM2074.29 130.724C2074.29 131.68 2074.5 132.438 2074.92 132.996C2075.35 133.546 2075.92 133.821 2076.65 133.821C2077.37 133.821 2077.94 133.546 2078.35 132.996C2078.77 132.446 2078.99 131.688 2078.99 130.724C2078.99 129.784 2078.77 129.027 2078.34 128.451C2077.91 127.876 2077.36 127.588 2076.67 127.588C2075.94 127.588 2075.35 127.867 2074.92 128.426C2074.5 128.984 2074.29 129.75 2074.29 130.724ZM2078.93 135.408C2078.42 135.848 2077.89 136.178 2077.35 136.398C2076.81 136.618 2076.27 136.729 2075.71 136.729C2074.1 136.729 2072.81 136.212 2071.84 135.18C2070.86 134.147 2070.38 132.768 2070.38 131.041C2070.38 129.103 2070.95 127.55 2072.09 126.382C2073.24 125.205 2074.76 124.617 2076.65 124.617C2078.77 124.617 2080.37 125.311 2081.45 126.699C2082.53 128.079 2083.07 130.131 2083.07 132.856C2083.07 136.301 2082.49 138.908 2081.32 140.677C2080.16 142.437 2078.45 143.317 2076.18 143.317C2074.58 143.317 2073.33 142.911 2072.43 142.099C2071.54 141.278 2071.08 140.131 2071.06 138.658H2074.38C2074.46 139.268 2074.68 139.746 2075.02 140.093C2075.37 140.44 2075.82 140.613 2076.36 140.613C2077.21 140.613 2077.86 140.19 2078.29 139.344C2078.72 138.489 2078.93 137.228 2078.93 135.561V135.408Z" fill="#5B5B5B"/>
<defs>
<filter id="filter0_d_821_37031" x="1579" y="387" width="256" height="76" filterUnits="userSpaceOnUse" color-interpolation-filters="sRGB">
<feFlood flood-opacity="0" result="BackgroundImageFix"/>
<feColorMatrix in="SourceAlpha" type="matrix" values="0 0 0 0 0 0 0 0 0 0 0 0 0 0 0 0 0 0 127 0" result="hardAlpha"/>
<feMorphology radius="2" operator="erode" in="SourceAlpha" result="effect1_dropShadow_821_37031"/>
<feOffset dy="8"/>
<feGaussianBlur stdDeviation="8"/>
<feColorMatrix type="matrix" values="0 0 0 0 0.105882 0 0 0 0 0.129412 0 0 0 0 0.172549 0 0 0 0.15 0"/>
<feBlend mode="normal" in2="BackgroundImageFix" result="effect1_dropShadow_821_37031"/>
<feBlend mode="normal" in="SourceGraphic" in2="effect1_dropShadow_821_37031" result="shape"/>
</filter>
<filter id="filter1_d_821_37031" x="367" y="1205" width="207" height="76" filterUnits="userSpaceOnUse" color-interpolation-filters="sRGB">
<feFlood flood-opacity="0" result="BackgroundImageFix"/>
<feColorMatrix in="SourceAlpha" type="matrix" values="0 0 0 0 0 0 0 0 0 0 0 0 0 0 0 0 0 0 127 0" result="hardAlpha"/>
<feMorphology radius="2" operator="erode" in="SourceAlpha" result="effect1_dropShadow_821_37031"/>
<feOffset dy="8"/>
<feGaussianBlur stdDeviation="8"/>
<feColorMatrix type="matrix" values="0 0 0 0 0.105882 0 0 0 0 0.129412 0 0 0 0 0.172549 0 0 0 0.15 0"/>
<feBlend mode="normal" in2="BackgroundImageFix" result="effect1_dropShadow_821_37031"/>
<feBlend mode="normal" in="SourceGraphic" in2="effect1_dropShadow_821_37031" result="shape"/>
</filter>
</defs>
<rect x="141.301" y="1157.61" width="25.8326" height="25.8326" rx="1" fill="#DDE5ED" stroke="#B3C5D6" stroke-width="2"/>
<path d="M208.524 661.447H211.747C213.867 661.447 215.371 661.104 216.259 660.416C217.147 659.729 217.591 658.59 217.591 657C217.591 655.424 217.14 654.3 216.237 653.627C215.349 652.939 213.853 652.596 211.747 652.596H208.524V661.447ZM202.101 679V647.311H211.489C215.987 647.311 219.245 648.077 221.265 649.609C223.284 651.128 224.294 653.577 224.294 656.957C224.294 660.194 223.363 662.643 221.501 664.305C219.639 665.952 216.882 666.775 213.229 666.775H208.524V679H202.101ZM220.987 679L232.481 647.311H240.473L251.516 679H244.62L242.364 672.189H229.839L227.368 679H220.987ZM231.557 666.99H240.71L236.348 653.562L231.557 666.99ZM251.754 668.709H258.393C258.393 670.814 258.909 672.397 259.94 673.457C260.985 674.517 262.554 675.047 264.645 675.047C266.321 675.047 267.681 674.639 268.727 673.822C269.787 672.992 270.317 671.946 270.317 670.686C270.317 668.695 267.832 666.854 262.862 665.164C262.532 665.049 262.296 664.971 262.153 664.928C261.995 664.87 261.78 664.799 261.508 664.713C258.73 663.796 256.724 662.88 255.493 661.963C254.605 661.304 253.917 660.466 253.43 659.449C252.958 658.418 252.721 657.279 252.721 656.033C252.721 653.183 253.795 650.927 255.944 649.266C258.107 647.59 261.05 646.752 264.774 646.752C268.254 646.752 270.947 647.561 272.852 649.18C274.771 650.798 275.731 653.068 275.731 655.99V656.162H269.844C269.701 654.515 269.157 653.262 268.211 652.402C267.28 651.543 265.991 651.113 264.344 651.113C262.754 651.113 261.487 651.479 260.541 652.209C259.61 652.939 259.145 653.921 259.145 655.152C259.145 657.072 261.752 658.876 266.965 660.566C267.152 660.624 267.288 660.667 267.374 660.695C271.355 662.013 273.969 663.331 275.215 664.648C276.476 665.966 277.106 667.785 277.106 670.105C277.106 673.056 275.974 675.369 273.711 677.045C271.463 678.706 268.326 679.537 264.301 679.537C260.119 679.537 256.982 678.671 254.891 676.938C252.8 675.204 251.754 672.605 251.754 669.139V668.709ZM278.955 668.709H285.594C285.594 670.814 286.11 672.397 287.141 673.457C288.186 674.517 289.755 675.047 291.846 675.047C293.522 675.047 294.882 674.639 295.928 673.822C296.988 672.992 297.518 671.946 297.518 670.686C297.518 668.695 295.033 666.854 290.063 665.164C289.733 665.049 289.497 664.971 289.354 664.928C289.196 664.87 288.981 664.799 288.709 664.713C285.931 663.796 283.925 662.88 282.694 661.963C281.806 661.304 281.118 660.466 280.631 659.449C280.158 658.418 279.922 657.279 279.922 656.033C279.922 653.183 280.996 650.927 283.145 649.266C285.308 647.59 288.251 646.752 291.975 646.752C295.455 646.752 298.148 647.561 300.053 649.18C301.972 650.798 302.932 653.068 302.932 655.99V656.162H297.045C296.902 654.515 296.358 653.262 295.412 652.402C294.481 651.543 293.192 651.113 291.545 651.113C289.955 651.113 288.688 651.479 287.742 652.209C286.811 652.939 286.346 653.921 286.346 655.152C286.346 657.072 288.953 658.876 294.166 660.566C294.352 660.624 294.489 660.667 294.574 660.695C298.556 662.013 301.17 663.331 302.416 664.648C303.677 665.966 304.307 667.785 304.307 670.105C304.307 673.056 303.175 675.369 300.912 677.045C298.664 678.706 295.527 679.537 291.502 679.537C287.32 679.537 284.183 678.671 282.092 676.938C280.001 675.204 278.955 672.605 278.955 669.139V668.709ZM307.424 679V647.311H328.457V652.553H314.299V660.029H327.576V665.186H314.299V673.715H328.951V679H307.424ZM332.047 679V647.311H341.822L353.746 672.791V647.311H359.826V679H350.437L338.127 652.768V679H332.047ZM392.183 662.113V676.938C390.436 677.811 388.559 678.463 386.554 678.893C384.549 679.322 382.329 679.537 379.894 679.537C374.537 679.537 370.398 678.155 367.476 675.391C364.554 672.612 363.093 668.68 363.093 663.596C363.093 658.339 364.561 654.229 367.498 651.264C370.434 648.285 374.509 646.795 379.722 646.795C383.575 646.795 386.626 647.676 388.875 649.438C391.138 651.199 392.269 653.555 392.269 656.506V657.086H385.888C385.802 655.138 385.201 653.656 384.084 652.639C382.966 651.622 381.384 651.113 379.335 651.113C376.457 651.113 374.179 652.209 372.503 654.4C370.842 656.592 370.011 659.585 370.011 663.381C370.011 667.105 370.885 669.926 372.632 671.846C374.394 673.765 376.979 674.725 380.388 674.725C381.276 674.725 382.15 674.674 383.009 674.574C383.883 674.46 384.735 674.295 385.566 674.08L385.587 667.162H379.55V662.113H392.183ZM396.331 679V647.311H417.365V652.553H403.206V660.029H416.484V665.186H403.206V673.715H417.859V679H396.331ZM427.614 661.082H431.61C434.117 661.082 435.836 660.76 436.767 660.115C437.698 659.471 438.163 658.346 438.163 656.742C438.163 655.038 437.719 653.856 436.831 653.197C435.957 652.538 434.217 652.209 431.61 652.209H427.614V661.082ZM420.954 679V647.311H434.124C437.805 647.311 440.512 647.955 442.245 649.244C443.978 650.533 444.845 652.546 444.845 655.281C444.845 657.53 444.358 659.27 443.384 660.502C442.41 661.734 440.849 662.607 438.7 663.123C440.433 663.309 441.694 663.839 442.481 664.713C443.284 665.572 443.814 667.033 444.071 669.096L444.63 673.672C444.802 674.947 445.017 676.014 445.274 676.873C445.532 677.732 445.862 678.441 446.263 679H438.915C438.686 678.556 438.5 678.048 438.356 677.475C438.228 676.902 438.12 676.121 438.034 675.133L437.583 670.342C437.411 668.408 437.103 667.241 436.659 666.84C436.23 666.439 435.162 666.238 433.458 666.238H427.614V679H420.954ZM267.202 728L278.697 696.311H286.689L297.732 728H290.835L288.579 721.189H276.054L273.583 728H267.202ZM277.773 715.99H286.925L282.564 702.562L277.773 715.99ZM305.855 710.082H309.851C312.357 710.082 314.076 709.76 315.007 709.115C315.938 708.471 316.403 707.346 316.403 705.742C316.403 704.038 315.959 702.856 315.071 702.197C314.198 701.538 312.457 701.209 309.851 701.209H305.855V710.082ZM299.194 728V696.311H312.364C316.045 696.311 318.752 696.955 320.485 698.244C322.219 699.533 323.085 701.546 323.085 704.281C323.085 706.53 322.598 708.27 321.624 709.502C320.65 710.734 319.089 711.607 316.941 712.123C318.674 712.309 319.934 712.839 320.722 713.713C321.524 714.572 322.054 716.033 322.312 718.096L322.87 722.672C323.042 723.947 323.257 725.014 323.515 725.873C323.773 726.732 324.102 727.441 324.503 728H317.155C316.926 727.556 316.74 727.048 316.597 726.475C316.468 725.902 316.36 725.121 316.275 724.133L315.823 719.342C315.651 717.408 315.344 716.241 314.9 715.84C314.47 715.439 313.403 715.238 311.698 715.238H305.855V728H299.194ZM326.481 728V696.311H347.515V701.553H333.356V709.029H346.634V714.186H333.356V722.715H348.009V728H326.481ZM348.204 728L359.698 696.311H367.69L378.733 728H371.837L369.581 721.189H357.055L354.585 728H348.204ZM358.774 715.99H367.926L363.565 702.562L358.774 715.99Z" fill="#D2D2D2"/>
<path d="M1040.18 882.447H1043.4C1045.52 882.447 1047.02 882.104 1047.91 881.416C1048.8 880.729 1049.24 879.59 1049.24 878C1049.24 876.424 1048.79 875.3 1047.89 874.627C1047 873.939 1045.51 873.596 1043.4 873.596H1040.18V882.447ZM1033.75 900V868.311H1043.14C1047.64 868.311 1050.9 869.077 1052.92 870.609C1054.94 872.128 1055.95 874.577 1055.95 877.957C1055.95 881.194 1055.02 883.643 1053.15 885.305C1051.29 886.952 1048.54 887.775 1044.88 887.775H1040.18V900H1033.75ZM1058.51 868.311H1065.25V888.291C1065.25 890.64 1065.83 892.395 1066.99 893.555C1068.17 894.715 1069.94 895.295 1072.32 895.295C1074.68 895.295 1076.42 894.708 1077.52 893.533C1078.64 892.344 1079.2 890.497 1079.2 887.99V868.311H1085.71V887.818C1085.71 892.087 1084.58 895.266 1082.33 897.357C1080.1 899.449 1076.69 900.494 1072.11 900.494C1067.48 900.494 1064.06 899.463 1061.84 897.4C1059.62 895.324 1058.51 892.13 1058.51 887.818V868.311ZM1096.38 881.158H1100.83C1102.91 881.158 1104.35 880.872 1105.15 880.299C1105.97 879.712 1106.38 878.709 1106.38 877.291C1106.38 875.773 1105.97 874.706 1105.17 874.09C1104.38 873.474 1102.94 873.166 1100.83 873.166H1096.38V881.158ZM1096.38 894.93H1100.83C1103.6 894.93 1105.4 894.615 1106.25 893.984C1107.11 893.34 1107.54 892.165 1107.54 890.461C1107.54 888.799 1107.08 887.646 1106.16 887.002C1105.24 886.343 1103.47 886.014 1100.83 886.014H1096.38V894.93ZM1089.92 900V868.311H1100.79C1104.99 868.311 1108.04 868.962 1109.96 870.266C1111.88 871.555 1112.84 873.603 1112.84 876.41C1112.84 878.186 1112.41 879.64 1111.55 880.771C1110.71 881.903 1109.41 882.741 1107.66 883.285C1109.81 883.858 1111.43 884.811 1112.52 886.143C1113.62 887.46 1114.17 889.143 1114.17 891.191C1114.17 892.466 1113.98 893.612 1113.59 894.629C1113.22 895.646 1112.66 896.527 1111.92 897.271C1110.93 898.26 1109.68 898.962 1108.16 899.377C1106.65 899.792 1104.21 900 1100.83 900H1089.92ZM1117.29 900V868.311H1124.04V894.629H1138.32V900H1117.29ZM1140.54 900V868.311H1147.28V900H1140.54ZM1177.73 890.504C1177.5 893.77 1176.28 896.262 1174.08 897.98C1171.87 899.685 1168.78 900.537 1164.8 900.537C1160.07 900.537 1156.49 899.162 1154.05 896.412C1151.62 893.662 1150.4 889.623 1150.4 884.295C1150.4 878.981 1151.66 874.906 1154.16 872.07C1156.67 869.22 1160.26 867.795 1164.93 867.795C1168.74 867.795 1171.75 868.654 1173.97 870.373C1176.2 872.077 1177.4 874.441 1177.56 877.463H1171.31C1171.23 875.945 1170.65 874.734 1169.54 873.832C1168.44 872.915 1166.99 872.457 1165.18 872.457C1162.55 872.457 1160.56 873.445 1159.21 875.422C1157.88 877.384 1157.21 880.299 1157.21 884.166C1157.21 888.148 1157.87 891.105 1159.19 893.039C1160.51 894.958 1162.52 895.918 1165.23 895.918C1166.97 895.918 1168.4 895.424 1169.5 894.436C1170.62 893.447 1171.23 892.137 1171.35 890.504H1177.73ZM1048.3 949L1059.8 917.311H1067.79L1078.83 949H1071.93L1069.68 942.189H1057.15L1054.68 949H1048.3ZM1058.87 936.99H1068.02L1063.66 923.562L1058.87 936.99ZM1086.95 931.082H1090.95C1093.46 931.082 1095.18 930.76 1096.11 930.115C1097.04 929.471 1097.5 928.346 1097.5 926.742C1097.5 925.038 1097.06 923.856 1096.17 923.197C1095.3 922.538 1093.56 922.209 1090.95 922.209H1086.95V931.082ZM1080.29 949V917.311H1093.46C1097.14 917.311 1099.85 917.955 1101.59 919.244C1103.32 920.533 1104.18 922.546 1104.18 925.281C1104.18 927.53 1103.7 929.27 1102.72 930.502C1101.75 931.734 1100.19 932.607 1098.04 933.123C1099.77 933.309 1101.03 933.839 1101.82 934.713C1102.62 935.572 1103.15 937.033 1103.41 939.096L1103.97 943.672C1104.14 944.947 1104.36 946.014 1104.61 946.873C1104.87 947.732 1105.2 948.441 1105.6 949H1098.25C1098.03 948.556 1097.84 948.048 1097.7 947.475C1097.57 946.902 1097.46 946.121 1097.37 945.133L1096.92 940.342C1096.75 938.408 1096.44 937.241 1096 936.84C1095.57 936.439 1094.5 936.238 1092.8 936.238H1086.95V949H1080.29ZM1107.58 949V917.311H1128.61V922.553H1114.46V930.029H1127.73V935.186H1114.46V943.715H1129.11V949H1107.58ZM1129.3 949L1140.8 917.311H1148.79L1159.83 949H1152.94L1150.68 942.189H1138.15L1135.68 949H1129.3ZM1139.87 936.99H1149.03L1144.66 923.562L1139.87 936.99Z" fill="#D2D2D2"/>

</svg>
