<svg width="2475" height="1462" viewBox="0 0 2475 1462" fill="none" xmlns="http://www.w3.org/2000/svg">
<path d="M113.043 372.441C124.187 379.611 124.361 395.76 113.565 403.21L113.044 403.559L65.0098 434.46L65.0088 434.46C52.6972 442.38 36.5002 433.541 36.5 418.902L36.5 357.098C36.5003 342.687 52.1957 333.897 64.4297 341.181L65.0088 341.54L113.043 372.441Z" fill="white" stroke="#CDCDCD" stroke-width="3"/>
<path d="M113.043 644.441C124.187 651.611 124.361 667.76 113.565 675.21L113.044 675.559L65.0098 706.46L65.0088 706.46C52.6972 714.38 36.5002 705.541 36.5 690.902L36.5 629.098C36.5003 614.687 52.1957 605.897 64.4297 613.181L65.0088 613.54L113.043 644.441Z" fill="white" stroke="#CDCDCD" stroke-width="3"/>
<path d="M113.043 916.441C124.187 923.611 124.361 939.76 113.565 947.21L113.044 947.559L65.0098 978.46L65.0088 978.46C52.6972 986.38 36.5002 977.541 36.5 962.902L36.5 901.098C36.5003 886.687 52.1957 877.897 64.4297 885.181L65.0088 885.54L113.043 916.441Z" fill="white" stroke="#CDCDCD" stroke-width="3"/>
<path d="M113.043 1188.44C124.187 1195.61 124.361 1211.76 113.565 1219.21L113.044 1219.56L65.0098 1250.46L65.0088 1250.46C52.6972 1258.38 36.5002 1249.54 36.5 1234.9L36.5 1173.1C36.5003 1158.69 52.1957 1149.9 64.4297 1157.18L65.0088 1157.54L113.043 1188.44Z" fill="white" stroke="#CDCDCD" stroke-width="3"/>
<path d="M123.572 276.423L313.288 178.934H2286.56V568.05H2150.45H2058.71H1967.34H1929.4H1842.08H1813.99H1675.23H1605.85H1536.47V691.279L1350.19 868.043L1266.25 948.432L1192.2 1018.89L1163.91 1044.81V1336.36H123.572V431.906V276.423Z" fill="white" stroke="#CDCDCD" stroke-width="4"/>
<path d="M669.26 767.643H892.677V665.796H767.129V597.813H870.063L857.583 578.207L882.544 562.93L872.411 547.653V479.924H841.766V418.815C834.846 424.587 819.622 443.463 814.086 472.795C807.166 509.46 755.025 539.729 712.263 570.568C697.702 581.069 682.108 600 669.05 619.826C646.012 654.805 640.592 697.242 640.592 739.126H669.26V767.643Z" fill="#B3C5D6"/>
<path d="M841.765 418.815C834.846 424.587 819.622 443.463 814.086 472.795C807.166 509.46 755.025 539.729 712.263 570.568C697.702 581.069 682.108 600 669.05 619.826C646.012 654.805 640.592 697.242 640.592 739.126V739.126H669.26V767.643H892.677V665.796M841.765 418.815V479.924H872.411V547.653L882.544 562.93M841.765 418.815H890.205M892.677 578.207L882.544 562.93M882.544 562.93L857.583 578.207L870.063 597.813M882.544 617.418L870.063 597.813M870.063 597.813H767.129V665.796H892.677M892.677 665.796V652.556" stroke="#8FA9C0" stroke-width="2"/>
<path d="M1297.5 325.868C1261.31 315.578 1221.01 309.869 1178.53 309.869C1104.39 309.869 1035.08 327.315 981.65 356.214M841.273 419.317H905.036C923.255 395.022 949.591 373.556 981.65 356.214M981.65 356.214V327.361" stroke="#8FA9C0" stroke-width="3"/>
<path fill-rule="evenodd" clip-rule="evenodd" d="M1016.34 674.313C1016.34 674.58 1016.61 674.58 1016.87 674.58C1016.87 674.846 1016.87 674.846 1017.13 674.846C1032.67 682.045 1048.73 691.376 1057.94 703.372C1064.78 712.17 1066.89 720.968 1067.15 730.832C1067.15 735.897 1066.63 740.963 1066.1 746.028C1065.31 760.691 1064.26 775.087 1063.47 789.483C1063.47 789.75 1063.47 789.75 1063.47 790.017C1063.47 790.283 1063.47 790.283 1063.47 790.283C1061.36 825.207 1098.48 854 1146.66 854C1179.31 854 1209.58 840.404 1225.12 819.609C1225.38 819.076 1225.91 818.543 1226.43 818.009C1283.83 744.428 1339.9 672.714 1394.4 603.132C1415.46 575.672 1426.26 545.813 1426 515.155C1425.47 417.047 1311.73 340 1171.67 340C1044.51 340 933.148 403.717 907.084 489.295C902.345 520.649 901.36 518.652 902.345 541.548C908.137 595.134 949.208 644.454 1016.34 674.313Z" fill="#F6F6F6"/>
<path d="M1986.04 381.334H2028.54V392.329H2066.11V410.82V356.347" stroke="#CDCDCD" stroke-width="3"/>
<path d="M1953.41 411.819V381.334H1973.68" stroke="#CDCDCD" stroke-width="3"/>
<path d="M1552.8 225.911V234.262H1597.4L1611.12 250.367V262.893" stroke="#CDCDCD" stroke-width="3"/>
<path d="M1552.8 309.869V301.518H1597.4L1611.12 285.413V272.887" stroke="#CDCDCD" stroke-width="3"/>
<path d="M1297 325.861L1336.55 325.861" stroke="#CDCDCD" stroke-width="3"/>
<path d="M542.727 740.157H680.138" stroke="#CDCDCD" stroke-width="3"/>
<path d="M480.443 702.676H712.757" stroke="#CDCDCD" stroke-width="3"/>
<path d="M822.49 766.644L533.828 766.644L533.828 757.648" stroke="#CDCDCD" stroke-width="3"/>
<path d="M1552.36 754.462C1552.4 773.579 1568.39 789.373 1587.99 789.532C1607.4 789.688 1623.05 774.15 1622.81 755.032C1622.57 736.179 1606.58 720.65 1587.37 720.495C1568.16 720.339 1552.32 735.345 1552.36 754.462ZM1552.36 754.462C1540.04 791.002 1513.05 816.007 1471.41 829.211M1450.94 890.112C1489.74 941.404 1458.39 1060.81 1398.89 1082.77M1599.19 1017.43C1553.21 1039.62 1459.75 1102.17 1471.36 1155.36M1698.89 902.472C1655.99 903.984 1632.5 928.752 1626.5 974.901M1735.2 753.551C1758.85 756.663 1772.94 767.663 1775.89 787.334M1802 823.389C1763.77 822.017 1743.07 838.842 1737.75 872.253M1573.84 639.406C1593.41 667.973 1592.8 696.377 1570.06 725.399M1592.4 649.114C1643.92 663.071 1680.19 690.181 1702.58 730.188M1838.74 815.455C1867.97 801.088 1899.61 800.282 1934.23 816.227M1984.69 816.635C2013.34 802.264 2045.17 801.459 2079.98 817.406M2131.03 817.819C2159.28 803.444 2190.92 802.903 2226.51 818.591M2285.69 796.236C2285.29 773.664 2295.68 761.004 2317.24 758.523M2345.75 736.186C2366.49 691.483 2399.3 664.932 2445.18 656.541M1590.26 943.544C1610.45 943.707 1626.81 960.301 1627.23 981.014C1627.45 1001.99 1611.21 1018.85 1590.83 1018.69C1570.26 1018.52 1553.7 1001.39 1553.68 980.419C1553.64 959.975 1570.08 943.381 1590.26 943.544ZM1700.43 830.532C1720.03 830.691 1736.6 846.755 1737.41 866.675C1738.03 886.593 1722.57 902.664 1702.58 902.502C1682.59 902.34 1665.83 886.009 1665.41 866.093C1664.98 846.176 1680.83 830.374 1700.43 830.532ZM1810.3 754.689C1829.91 754.848 1846.67 770.648 1847.87 790.04C1849.08 809.697 1833.81 825.77 1813.82 825.608C1793.83 825.446 1776.88 809.379 1776.06 789.459C1775.25 770.071 1790.51 754.529 1810.3 754.689ZM1954.7 755.857C1974.3 756.015 1992.03 771.824 1993.63 791.219C1995.22 810.879 1980.34 826.955 1960.15 826.792C1940.16 826.63 1922.82 810.559 1921.43 790.635C1920.22 771.243 1935.1 755.433 1954.7 755.857ZM2099.29 757.026C2119.08 757.186 2136.82 772.995 2138.99 792.394C2141.16 812.059 2126.87 828.14 2106.68 827.976C2086.69 827.815 2068.96 811.741 2066.99 791.812C2065.2 772.415 2079.49 756.866 2099.29 757.026ZM2243.88 758.195C2263.48 758.354 2281.79 774.167 2284.55 793.571C2287.31 813.241 2273.4 829.325 2253.21 829.161C2233.42 829.001 2214.91 812.921 2212.55 792.989C2209.98 773.586 2224.08 758.035 2243.88 758.195ZM1735.17 684.253C1754.77 684.412 1771.14 699.678 1771.96 718.801C1772.78 737.924 1757.52 753.466 1737.73 753.306C1717.93 753.146 1701.56 737.348 1700.93 718.227C1700.31 699.105 1715.56 684.095 1735.17 684.253ZM1877.42 685.669C1897.03 685.828 1913.98 701.099 1915.19 720.225C1916.59 739.353 1901.72 754.898 1881.92 754.737C1862.32 754.579 1845.37 738.777 1844.16 719.651C1843.15 700.526 1858.02 685.512 1877.42 685.669ZM2020.46 686.826C2039.87 686.983 2057.02 702.255 2058.81 721.386C2060.6 740.517 2046.31 756.067 2026.71 755.908C2007.1 755.75 1989.96 739.946 1988.17 720.815C1986.76 701.687 2001.25 686.671 2020.46 686.826ZM2162.91 687.978C2182.32 688.135 2200.06 703.412 2202.43 722.548C2204.8 741.684 2190.9 757.236 2171.3 757.078C2151.5 756.917 2133.77 741.109 2131.59 721.975C2129.61 702.842 2143.51 687.821 2162.91 687.978ZM2305.76 689.133C2325.16 689.29 2343.29 704.836 2346.24 723.711C2349.2 742.851 2335.49 758.405 2315.88 758.247C2296.09 758.087 2277.97 742.275 2275.4 723.138C2272.64 703.999 2286.35 688.976 2305.76 689.133ZM1598.35 583.316C1617.37 583.47 1633.17 598.201 1633.42 616.523C1633.66 634.845 1618.4 649.59 1599 649.433C1579.78 649.277 1564.18 634.283 1564.13 615.962C1563.89 597.641 1579.14 583.161 1598.35 583.316ZM1731.49 584.393C1750.71 584.548 1766.7 599.281 1767.52 617.607C1768.35 635.934 1753.29 650.946 1733.88 650.789C1714.47 650.367 1698.48 635.369 1697.66 617.042C1697.22 598.719 1712.28 584.238 1731.49 584.393ZM1871.23 585.523C1890.25 585.677 1907.02 600.415 1908.23 618.745C1909.44 637.075 1894.97 651.826 1875.36 651.668C1856.15 651.512 1839.58 636.51 1838.36 618.18C1837.34 599.852 1852.01 585.368 1871.23 585.523ZM2011.35 586.656C2030.37 586.81 2047.14 601.548 2048.94 619.883C2050.73 638.217 2036.64 652.972 2017.43 652.817C1998.22 652.661 1981.25 637.656 1979.85 619.324C1978.24 601.257 1992.53 586.504 2011.35 586.656ZM2151.09 588.052C2170.11 588.205 2187.27 602.947 2189.64 621.286C2192.22 639.627 2178.12 654.381 2159.1 654.228C2139.7 654.071 2122.35 638.797 2120.36 620.726C2118.17 602.388 2132.07 587.898 2151.09 588.052ZM2290.82 589.182C2309.84 589.335 2327.78 604.083 2330.54 622.426C2333.31 640.768 2319.8 655.527 2300.59 655.372C2281.18 655.215 2263.44 640.203 2260.87 621.862C2258.49 603.523 2272 589.029 2290.82 589.182ZM2433.47 590.335C2452.69 590.491 2470.81 605.24 2474.16 623.587C2477.51 641.934 2464.58 656.698 2444.98 656.539C2425.77 656.384 2407.64 641.369 2404.49 623.024C2401.53 604.68 2414.26 590.18 2433.47 590.335ZM1477.24 828.728C1497.04 828.888 1512.82 844.946 1512.67 864.857C1512.51 884.769 1496.27 900.834 1476.28 900.672C1456.1 900.509 1440.31 884.185 1440.66 864.275C1441.02 844.365 1457.44 828.567 1477.24 828.728Z" stroke="#939393" stroke-width="0.4998" stroke-miterlimit="22.9256"/>
<rect x="525.92" y="1150.46" width="62" height="62" rx="2" fill="#2D2D2D"/>
<path d="M544.669 1163.51C547.748 1163.51 550.465 1165.52 551.364 1168.47C552.263 1171.41 551.131 1174.6 548.576 1176.32C548.353 1176.47 548.211 1176.71 548.191 1176.98C548.171 1177.25 548.276 1177.51 548.475 1177.69C549.211 1178.36 549.754 1179.21 550.049 1180.16L553.38 1190.82C553.462 1191.08 553.414 1191.37 553.25 1191.6C553.085 1191.82 552.824 1191.95 552.546 1191.96H550.167C549.723 1191.95 549.347 1192.28 549.292 1192.72L548.171 1201.69C548.115 1202.13 547.739 1202.46 547.296 1202.46H542.046C541.602 1202.46 541.226 1202.13 541.171 1201.69L540.062 1192.72C540.007 1192.28 539.631 1191.95 539.187 1191.96H536.796C536.518 1191.95 536.257 1191.82 536.092 1191.6C535.928 1191.37 535.88 1191.08 535.963 1190.82L539.288 1180.16C539.583 1179.21 540.127 1178.36 540.862 1177.69C541.061 1177.51 541.166 1177.25 541.146 1176.98C541.126 1176.71 540.984 1176.47 540.76 1176.32C538.206 1174.6 537.075 1171.41 537.973 1168.47C538.872 1165.52 541.59 1163.51 544.669 1163.51ZM545.261 1168.93C544.927 1168.63 544.415 1168.63 544.081 1168.93C543.404 1169.55 542.629 1170.05 541.79 1170.41C541.393 1170.58 541.183 1171.02 541.297 1171.44C541.708 1172.96 543.088 1174.02 544.664 1174.02C546.239 1174.02 547.619 1172.96 548.03 1171.44C548.143 1171.02 547.934 1170.58 547.537 1170.41C546.703 1170.05 545.933 1169.55 545.261 1168.93Z" fill="white"/>
<path d="M556.92 1160.46C555.953 1160.46 555.17 1161.24 555.17 1162.21V1200.71C555.17 1201.67 555.953 1202.46 556.92 1202.46C557.886 1202.46 558.67 1201.67 558.67 1200.71V1162.21C558.67 1161.24 557.886 1160.46 556.92 1160.46Z" fill="white"/>
<path d="M569.17 1163.48C572.155 1163.48 574.812 1165.37 575.786 1168.19C576.76 1171.02 575.838 1174.14 573.489 1175.99C573.261 1176.17 573.137 1176.45 573.156 1176.73C573.176 1177.02 573.337 1177.28 573.587 1177.43C576.267 1178.99 577.917 1181.85 577.92 1184.96V1189.33C577.92 1189.81 577.528 1190.21 577.045 1190.21H574.689C574.24 1190.2 573.862 1190.54 573.814 1190.99L572.67 1201.67C572.621 1202.12 572.243 1202.46 571.795 1202.46H566.545C566.096 1202.46 565.718 1202.12 565.67 1201.67L564.536 1190.99C564.489 1190.54 564.11 1190.2 563.661 1190.21H561.295C560.812 1190.21 560.42 1189.81 560.42 1189.33V1184.96C560.422 1181.85 562.073 1178.99 564.753 1177.43C565.003 1177.28 565.164 1177.02 565.184 1176.73C565.203 1176.45 565.079 1176.17 564.851 1175.99C562.501 1174.14 561.58 1171.02 562.554 1168.19C563.528 1165.37 566.184 1163.48 569.17 1163.48ZM566.986 1169.15C566.747 1169.04 566.47 1169.04 566.232 1169.16C565.995 1169.27 565.821 1169.49 565.761 1169.74C565.7 1170 565.67 1170.26 565.67 1170.52C565.67 1172.45 567.237 1174.02 569.17 1174.02C571.103 1174.02 572.67 1172.45 572.67 1170.52C572.672 1170.38 572.616 1170.25 572.516 1170.15C572.412 1170.06 572.274 1170.02 572.136 1170.03C571.831 1170.06 571.525 1170.08 571.219 1170.08C569.757 1170.08 568.313 1169.76 566.986 1169.15Z" fill="white"/>
<rect x="505.16" y="525.763" width="62" height="62" rx="2" fill="#2D2D2D"/>
<path d="M523.909 538.817C526.988 538.817 529.706 540.829 530.604 543.774C531.503 546.72 530.371 549.906 527.816 551.625C527.593 551.775 527.451 552.019 527.431 552.287C527.411 552.555 527.517 552.818 527.715 552.999C528.451 553.667 528.994 554.519 529.29 555.468L532.62 566.127C532.703 566.393 532.655 566.682 532.49 566.906C532.325 567.13 532.064 567.262 531.786 567.263H529.407C528.963 567.259 528.587 567.589 528.532 568.029L527.411 576.998C527.355 577.438 526.979 577.766 526.536 577.763H521.286C520.843 577.766 520.467 577.438 520.411 576.998L519.302 568.029C519.247 567.589 518.871 567.259 518.427 567.263H516.036C515.758 567.262 515.497 567.129 515.333 566.905C515.168 566.681 515.12 566.392 515.203 566.127L518.528 555.468C518.824 554.519 519.367 553.667 520.102 552.999C520.301 552.818 520.406 552.555 520.386 552.287C520.367 552.019 520.224 551.775 520.001 551.625C517.446 549.906 516.315 546.719 517.214 543.774C518.112 540.829 520.83 538.817 523.909 538.817ZM524.502 544.242C524.167 543.936 523.655 543.936 523.321 544.242C522.644 544.856 521.869 545.354 521.03 545.716C520.633 545.89 520.423 546.328 520.537 546.746C520.948 548.267 522.328 549.324 523.904 549.324C525.48 549.324 526.859 548.267 527.27 546.746C527.384 546.328 527.174 545.89 526.777 545.716C525.943 545.353 525.174 544.855 524.502 544.242Z" fill="white"/>
<path d="M536.16 535.763C535.194 535.763 534.41 536.546 534.41 537.513V576.013C534.41 576.979 535.194 577.763 536.16 577.763C537.127 577.763 537.91 576.979 537.91 576.013V537.513C537.91 536.546 537.127 535.763 536.16 535.763Z" fill="white"/>
<path d="M548.41 538.785C551.396 538.785 554.052 540.679 555.026 543.501C556.001 546.323 555.079 549.452 552.729 551.294C552.502 551.473 552.377 551.753 552.396 552.042C552.416 552.331 552.577 552.591 552.827 552.737C555.507 554.296 557.158 557.162 557.16 560.263V564.638C557.16 565.121 556.768 565.513 556.285 565.513H553.93C553.48 565.51 553.102 565.848 553.055 566.295L551.91 576.982C551.862 577.428 551.484 577.765 551.035 577.763H545.785C545.337 577.765 544.959 577.428 544.91 576.982L543.776 566.295C543.729 565.848 543.351 565.51 542.901 565.513H540.535C540.052 565.513 539.66 565.121 539.66 564.638V560.263C539.663 557.162 541.313 554.296 543.993 552.737C544.243 552.591 544.404 552.331 544.424 552.042C544.443 551.753 544.319 551.473 544.091 551.294C541.742 549.452 540.82 546.323 541.794 543.501C542.768 540.679 545.425 538.785 548.41 538.785ZM546.227 544.46C545.988 544.347 545.71 544.349 545.473 544.464C545.235 544.579 545.061 544.795 545.001 545.052C544.94 545.305 544.91 545.565 544.91 545.825C544.91 547.758 546.477 549.325 548.41 549.325C550.343 549.325 551.91 547.758 551.91 545.825C551.912 545.688 551.856 545.555 551.756 545.461C551.652 545.368 551.514 545.323 551.376 545.337C551.072 545.37 550.765 545.387 550.459 545.388C548.998 545.389 547.554 545.072 546.227 544.46Z" fill="white"/>
<path d="M246.865 347.265C250.945 353.747 256.969 358.739 264.057 361.509C271.145 364.28 278.923 364.684 286.254 362.663C293.586 360.641 300.084 356.3 304.799 350.275C309.514 344.25 312.198 336.857 312.458 329.179C312.718 321.5 310.54 313.939 306.244 307.602C301.947 301.265 295.757 296.485 288.579 293.962C281.402 291.439 273.614 291.304 266.356 293.578C259.098 295.853 252.75 300.416 248.242 306.601L259.701 315.14C262.406 311.429 266.215 308.691 270.57 307.326C274.925 305.962 279.597 306.042 283.904 307.556C288.21 309.071 291.924 311.939 294.502 315.741C297.08 319.543 298.387 324.079 298.231 328.686C298.075 333.294 296.465 337.729 293.636 341.344C290.807 344.959 286.908 347.564 282.509 348.777C278.11 349.99 273.443 349.747 269.19 348.085C264.938 346.423 261.323 343.428 258.876 339.538L246.865 347.265Z" fill="#D9D9D9"/>
<path d="M246.725 347.096C250.788 353.589 256.8 358.596 263.88 361.385C270.961 364.175 278.738 364.599 286.075 362.597C293.411 360.595 299.921 356.271 304.651 350.258C309.382 344.246 312.085 336.86 312.364 329.182C312.644 321.504 310.486 313.938 306.205 307.589C301.925 301.241 295.747 296.445 288.576 293.903C281.405 291.361 273.618 291.206 266.354 293.461C259.09 295.716 252.73 300.263 248.206 306.436L249.961 307.751C254.208 301.957 260.177 297.689 266.995 295.572C273.813 293.456 281.123 293.601 287.853 295.987C294.584 298.373 300.382 302.875 304.4 308.834C308.418 314.792 310.444 321.894 310.181 329.101C309.919 336.307 307.382 343.24 302.942 348.883C298.501 354.527 292.391 358.585 285.505 360.464C278.619 362.344 271.319 361.945 264.673 359.327C258.027 356.709 252.385 352.009 248.571 345.915L246.725 347.096Z" fill="#B3C5D6"/>
<ellipse cx="245.167" cy="288.88" rx="35.5885" ry="35.9823" fill="#D9D9D9"/>
<mask id="path-52-inside-1_821_37031" fill="white">
<path d="M734.472 1150H815.534V1223.86H734.472V1248.76H1061.69V1150H1163.51V1336.36H1061.69V1336.36H651.431V1248.76H651.432V1150H734.472V1150Z"/>
</mask>
<path d="M734.472 1150H815.534V1223.86H734.472V1248.76H1061.69V1150H1163.51V1336.36H1061.69V1336.36H651.431V1248.76H651.432V1150H734.472V1150Z" fill="#DDE5ED"/>
<path d="M734.472 1150H732.472V1152H734.472V1150ZM815.534 1150H817.534V1148H815.534V1150ZM815.534 1223.86V1225.86H817.534V1223.86H815.534ZM734.472 1223.86V1221.86H732.472V1223.86H734.472ZM734.472 1248.76H732.472V1250.76H734.472V1248.76ZM1061.69 1248.76V1250.76H1063.69V1248.76H1061.69ZM1061.69 1150V1148H1059.69V1150H1061.69ZM1163.51 1150H1165.51V1148H1163.51V1150ZM1163.51 1336.36V1338.36H1165.51V1336.36H1163.51ZM1061.69 1336.36V1334.36H1059.69V1336.36H1061.69ZM1061.69 1336.36V1338.36H1063.69V1336.36H1061.69ZM651.431 1336.36H649.431V1338.36H651.431V1336.36ZM651.431 1248.76V1246.76H649.431V1248.76H651.431ZM651.432 1248.76V1250.76H653.432V1248.76H651.432ZM651.432 1150V1148H649.432V1150H651.432ZM734.472 1150H736.472V1148H734.472V1150ZM734.472 1150V1152H815.534V1150V1148H734.472V1150ZM815.534 1150H813.534V1223.86H815.534H817.534V1150H815.534ZM815.534 1223.86V1221.86H734.472V1223.86V1225.86H815.534V1223.86ZM734.472 1223.86H732.472V1248.76H734.472H736.472V1223.86H734.472ZM734.472 1248.76V1250.76H1061.69V1248.76V1246.76H734.472V1248.76ZM1061.69 1248.76H1063.69V1150H1061.69H1059.69V1248.76H1061.69ZM1061.69 1150V1152H1163.51V1150V1148H1061.69V1150ZM1163.51 1150H1161.51V1336.36H1163.51H1165.51V1150H1163.51ZM1163.51 1336.36V1334.36H1061.69V1336.36V1338.36H1163.51V1336.36ZM1061.69 1336.36H1059.69V1336.36H1061.69H1063.69V1336.36H1061.69ZM1061.69 1336.36V1334.36H651.431V1336.36V1338.36H1061.69V1336.36ZM651.431 1336.36H653.431V1248.76H651.431H649.431V1336.36H651.431ZM651.431 1248.76V1250.76H651.432V1248.76V1246.76H651.431V1248.76ZM651.432 1248.76H653.432V1150H651.432H649.432V1248.76H651.432ZM651.432 1150V1152H734.472V1150V1148H651.432V1150ZM734.472 1150H732.472V1150H734.472H736.472V1150H734.472Z" fill="#B3C5D6" mask="url(#path-52-inside-1_821_37031)"/>
<mask id="path-54-inside-2_821_37031" fill="white">
<path d="M653.409 1291.7H515.009V1255.63H620.786V1150H653.409V1291.7Z"/>
</mask>
<path d="M653.409 1291.7H515.009V1255.63H620.786V1150H653.409V1291.7Z" fill="#DDE5ED"/>
<path d="M653.409 1291.7V1293.7H655.409V1291.7H653.409ZM515.009 1291.7H513.009V1293.7H515.009V1291.7ZM515.009 1255.63V1253.63H513.009V1255.63H515.009ZM620.786 1255.63V1257.63H622.786V1255.63H620.786ZM620.786 1150V1148H618.786V1150H620.786ZM653.409 1150H655.409V1148H653.409V1150ZM653.409 1291.7V1289.7H515.009V1291.7V1293.7H653.409V1291.7ZM515.009 1291.7H517.009V1255.63H515.009H513.009V1291.7H515.009ZM515.009 1255.63V1257.63H620.786V1255.63V1253.63H515.009V1255.63ZM620.786 1255.63H622.786V1150H620.786H618.786V1255.63H620.786ZM620.786 1150V1152H653.409V1150V1148H620.786V1150ZM653.409 1150H651.409V1291.7H653.409H655.409V1150H653.409Z" fill="#B3C5D6" mask="url(#path-54-inside-2_821_37031)"/>
<rect x="492.964" y="1256" width="35" height="91" transform="rotate(-180 492.964 1256)" fill="#DDE5ED" stroke="#B3C5D6" stroke-width="2"/>
<mask id="path-57-inside-3_821_37031" fill="white">
<path d="M1002.38 1204.1H972.719V1223.86H879.793V1204.1H850.14V1150H1002.38V1204.1Z"/>
</mask>
<path d="M1002.38 1204.1H972.719V1223.86H879.793V1204.1H850.14V1150H1002.38V1204.1Z" fill="#DDE5ED"/>
<path d="M1002.38 1204.1V1206.1H1004.38V1204.1H1002.38ZM972.719 1204.1V1202.1H970.719V1204.1H972.719ZM972.719 1223.86V1225.86H974.719V1223.86H972.719ZM879.793 1223.86H877.793V1225.86H879.793V1223.86ZM879.793 1204.1H881.793V1202.1H879.793V1204.1ZM850.14 1204.1H848.14V1206.1H850.14V1204.1ZM850.14 1150V1148H848.14V1150H850.14ZM1002.38 1150H1004.38V1148H1002.38V1150ZM1002.38 1204.1V1202.1H972.719V1204.1V1206.1H1002.38V1204.1ZM972.719 1204.1H970.719V1223.86H972.719H974.719V1204.1H972.719ZM972.719 1223.86V1221.86H879.793V1223.86V1225.86H972.719V1223.86ZM879.793 1223.86H881.793V1204.1H879.793H877.793V1223.86H879.793ZM879.793 1204.1V1202.1H850.14V1204.1V1206.1H879.793V1204.1ZM850.14 1204.1H852.14V1150H850.14H848.14V1204.1H850.14ZM850.14 1150V1152H1002.38V1150V1148H850.14V1150ZM1002.38 1150H1000.38V1204.1H1002.38H1004.38V1150H1002.38Z" fill="#B3C5D6" mask="url(#path-57-inside-3_821_37031)"/>
<path d="M1062.67 326H548.692L480.492 385.597L480 1150H1162" stroke="#CDCDCD" stroke-width="3"/>
<line x1="621.964" y1="1257.5" x2="456.964" y2="1257.5" stroke="#CDCDCD" stroke-width="3"/>
<line x1="479.457" y1="773.142" x2="124.561" y2="773.142" stroke="#CDCDCD" stroke-width="3"/>
<line x1="493.964" y1="1165.5" x2="438.964" y2="1165.5" stroke="#CDCDCD" stroke-width="3"/>
<rect x="157.195" y="746.654" width="59.2912" height="49.9744" rx="1" fill="#DDE5ED" stroke="#B3C5D6" stroke-width="2"/>
<rect x="234.305" y="746.654" width="59.2912" height="49.9744" rx="1" fill="#DDE5ED" stroke="#B3C5D6" stroke-width="2"/>
<rect x="311.412" y="746.654" width="59.2912" height="49.9744" rx="1" fill="#DDE5ED" stroke="#B3C5D6" stroke-width="2"/>
<rect x="388.521" y="746.654" width="59.2912" height="49.9744" rx="1" fill="#DDE5ED" stroke="#B3C5D6" stroke-width="2"/>
<rect x="478" y="768" width="457" height="382" fill="#F3F8FC"/>
<rect x="820.514" y="909.57" width="62" height="62" rx="2" fill="#084983"/>
<path d="M839.727 958.508C839.727 959.474 840.479 960.258 841.407 960.258C842.334 960.258 843.087 959.474 843.087 958.508V929.633C843.087 929.15 843.463 928.758 843.927 928.758H859.887C860.35 928.758 860.727 929.15 860.727 929.633V958.508C860.727 959.474 861.479 960.258 862.407 960.258C863.334 960.258 864.087 959.474 864.087 958.508V925.695C864.085 923.038 862.017 920.885 859.467 920.883H844.347C841.796 920.886 839.729 923.039 839.727 925.695V958.508Z" fill="white"/>
<path d="M836.393 942.758H833.9C832.972 942.758 832.22 943.541 832.22 944.508C832.22 945.474 832.972 946.258 833.9 946.258H836.393C837.321 946.258 838.073 945.474 838.073 944.508C838.073 943.541 837.321 942.758 836.393 942.758Z" fill="white"/>
<path d="M835.318 939.291C836.032 939.91 837.091 939.808 837.685 939.065C838.279 938.322 838.182 937.218 837.468 936.599L834.948 934.412C834.235 933.793 833.175 933.894 832.581 934.638C831.987 935.381 832.085 936.485 832.798 937.103L835.318 939.291Z" fill="white"/>
<path d="M835.318 949.724L832.798 951.912C832.085 952.531 831.987 953.634 832.581 954.378C833.175 955.121 834.235 955.222 834.948 954.603L837.468 952.416C838.182 951.797 838.279 950.693 837.685 949.95C837.091 949.207 836.032 949.106 835.318 949.724Z" fill="white"/>
<path d="M866.633 944.508C866.633 945.474 867.385 946.258 868.313 946.258H870.806C871.734 946.258 872.486 945.474 872.486 944.508C872.486 943.541 871.734 942.758 870.806 942.758H868.313C867.385 942.758 866.633 943.541 866.633 944.508Z" fill="white"/>
<path d="M869.389 939.291L871.909 937.103C872.37 936.703 872.592 936.077 872.49 935.461C872.388 934.844 871.978 934.331 871.415 934.115C870.851 933.899 870.22 934.012 869.758 934.412L867.238 936.599C866.525 937.218 866.428 938.322 867.022 939.065C867.616 939.808 868.675 939.91 869.389 939.291Z" fill="white"/>
<path d="M869.389 949.724C868.675 949.106 867.616 949.207 867.022 949.95C866.428 950.693 866.525 951.797 867.238 952.416L869.758 954.603C870.472 955.222 871.532 955.121 872.126 954.378C872.719 953.634 872.622 952.531 871.909 951.912L869.389 949.724Z" fill="white"/>
<path d="M851.906 941.445C848.659 941.445 846.026 944.188 846.026 947.57V951.07C846.026 951.554 846.402 951.945 846.866 951.945H847.883C848.313 951.943 848.675 952.279 848.723 952.724L849.395 959.043C849.443 959.488 849.805 959.823 850.235 959.82H853.595C854.024 959.823 854.387 959.488 854.435 959.043L855.107 952.724C855.154 952.279 855.517 951.943 855.947 951.945H856.955C857.419 951.945 857.795 951.554 857.795 951.07V947.57C857.795 945.944 857.174 944.385 856.07 943.236C854.965 942.087 853.467 941.443 851.906 941.445Z" fill="white"/>
<ellipse cx="851.906" cy="935.32" rx="4.2" ry="4.375" fill="white"/>
<rect x="525.92" y="1011.53" width="9.88568" height="28.9857" fill="#8FA9C0"/>
<rect x="525.92" y="930.564" width="9.88568" height="28.9857" fill="#8FA9C0"/>
<rect x="525.92" y="845.604" width="9.88568" height="28.9857" fill="#8FA9C0"/>
<path d="M785.914 1075.49V1085.49H576.339V1104.48H566.453V1075.49H785.914Z" fill="#8FA9C0"/>
<path d="M785.914 1059.5V1049.51H576.339V1030.52H566.453V1059.5H785.914Z" fill="#8FA9C0"/>
<path d="M785.914 993.533V1003.53H576.339V1022.52H566.453V993.533H785.914Z" fill="#8FA9C0"/>
<path d="M785.914 977.541V967.546H576.339V948.556H566.453V977.541H785.914Z" fill="#8FA9C0"/>
<path d="M785.914 911.58V921.575H576.339V940.565H566.453V911.58H785.914Z" fill="#8FA9C0"/>
<path d="M785.914 809.619V799.624H576.339V780.633H566.453V809.619H785.914Z" fill="#8FA9C0"/>
<path d="M785.914 893.588V883.593H576.339V864.603H566.453V893.588H785.914Z" fill="#8FA9C0"/>
<path d="M785.914 827.611V837.606H576.339V856.597H566.453V827.611H785.914Z" fill="#8FA9C0"/>
<rect x="720.68" y="1072.49" width="28.6456" height="15.9911" rx="1" fill="#DDE5ED" stroke="#B3C5D6" stroke-width="2"/>
<rect x="720.68" y="1046.51" width="28.6456" height="15.9911" rx="1" fill="#DDE5ED" stroke="#B3C5D6" stroke-width="2"/>
<rect x="720.68" y="990.533" width="28.6456" height="15.9911" rx="1" fill="#DDE5ED" stroke="#B3C5D6" stroke-width="2"/>
<rect x="720.68" y="964.549" width="28.6456" height="15.9911" rx="1" fill="#DDE5ED" stroke="#B3C5D6" stroke-width="2"/>
<rect x="720.68" y="908.58" width="28.6456" height="15.9911" rx="1" fill="#DDE5ED" stroke="#B3C5D6" stroke-width="2"/>
<rect x="720.68" y="880.588" width="28.6456" height="15.9911" rx="1" fill="#DDE5ED" stroke="#B3C5D6" stroke-width="2"/>
<rect x="720.68" y="824.619" width="28.6456" height="15.9911" rx="1" fill="#DDE5ED" stroke="#B3C5D6" stroke-width="2"/>
<mask id="path-96-inside-4_821_37031" fill="white">
<path d="M1247.66 963.547L1349.27 1071.36L1289.87 1128.59L1188.26 1020.78L1247.66 963.547Z"/>
</mask>
<path d="M1247.66 963.547L1349.27 1071.36L1289.87 1128.59L1188.26 1020.78L1247.66 963.547Z" fill="white"/>
<path d="M1349.27 1071.36L1350.65 1072.82L1352.09 1071.43L1350.71 1069.98L1349.27 1071.36ZM1289.87 1128.59L1288.43 1129.98L1289.8 1131.44L1291.24 1130.05L1289.87 1128.59ZM1247.66 963.547L1246.22 964.934L1347.83 1072.75L1349.27 1071.36L1350.71 1069.98L1249.1 962.159L1247.66 963.547ZM1349.27 1071.36L1347.9 1069.91L1288.5 1127.14L1289.87 1128.59L1291.24 1130.05L1350.65 1072.82L1349.27 1071.36ZM1289.87 1128.59L1291.31 1127.2L1189.7 1019.39L1188.26 1020.78L1186.82 1022.16L1288.43 1129.98L1289.87 1128.59Z" fill="#CDCDCD" mask="url(#path-96-inside-4_821_37031)"/>
<path d="M1311.01 1122L1311.89 1202H1164.9L1164.91 1122H1311.01Z" fill="white" stroke="#CDCDCD" stroke-width="2"/>
<path d="M1279.03 1122.32L1340.43 1058.63C1346.94 1051.88 1357.61 1051.5 1364.55 1057.78L1507.21 1186.96C1513.38 1192.55 1509.41 1202.82 1501.08 1202.82L1431.06 1202.82L1431.06 1411.36L1316.51 1411.36L1316.51 1202.82L1288.22 1202.82C1281.64 1202.82 1276.31 1197.49 1276.31 1190.9L1276.31 1129.04C1276.31 1126.54 1277.29 1124.13 1279.03 1122.32Z" fill="white"/>
<path d="M1316.51 1202.82L1288.22 1202.82C1281.64 1202.82 1276.31 1197.49 1276.31 1190.9L1276.31 1129.04C1276.31 1126.54 1277.29 1124.13 1279.03 1122.32L1340.43 1058.63C1346.94 1051.88 1357.61 1051.5 1364.55 1057.78L1507.21 1186.96C1513.38 1192.55 1509.41 1202.82 1501.08 1202.82L1431.06 1202.82M1316.51 1202.82L1316.51 1411.36L1431.06 1411.36L1431.06 1202.82M1316.51 1202.82L1431.06 1202.82" stroke="#CDCDCD" stroke-width="2"/>
<rect x="720.68" y="796.63" width="28.6456" height="15.9911" rx="1" fill="#DDE5ED" stroke="#B3C5D6" stroke-width="2"/>
<rect x="669.273" y="739.658" width="45.4513" height="25.9862" rx="1" fill="#DDE5ED" stroke="#B3C5D6" stroke-width="2"/>
<rect x="732.543" y="739.658" width="45.4513" height="25.9862" rx="1" fill="#DDE5ED" stroke="#B3C5D6" stroke-width="2"/>
<mask id="path-104-inside-5_821_37031" fill="white">
<path d="M893.668 668.689V750.649H805.686V703.522H766.143V668.689H893.668Z"/>
</mask>
<path d="M893.668 668.689V750.649H805.686V703.522H766.143V668.689H893.668Z" fill="#DDE5ED"/>
<path d="M893.668 668.689H895.668V666.689H893.668V668.689ZM893.668 750.649V752.649H895.668V750.649H893.668ZM805.686 750.649H803.686V752.649H805.686V750.649ZM805.686 703.522H807.686V701.522H805.686V703.522ZM766.143 703.522H764.143V705.522H766.143V703.522ZM766.143 668.689V666.689H764.143V668.689H766.143ZM893.668 668.689H891.668V750.649H893.668H895.668V668.689H893.668ZM893.668 750.649V748.649H805.686V750.649V752.649H893.668V750.649ZM805.686 750.649H807.686V703.522H805.686H803.686V750.649H805.686ZM805.686 703.522V701.522H766.143V703.522V705.522H805.686V703.522ZM766.143 703.522H768.143V668.689H766.143H764.143V703.522H766.143ZM766.143 668.689V670.689H893.668V668.689V666.689H766.143V668.689Z" fill="#B3C5D6" mask="url(#path-104-inside-5_821_37031)"/>
<rect x="851.158" y="503.773" width="62" height="62" rx="2" fill="#2D2D2D"/>
<path d="M869.908 520.494H870.783C871.266 520.494 871.658 520.87 871.658 521.334V522.174C871.658 523.101 872.441 523.854 873.408 523.854C874.374 523.854 875.158 523.101 875.158 522.174V521.334C875.158 520.87 875.55 520.494 876.033 520.494H876.908C877.262 520.494 877.582 520.29 877.718 519.975C877.853 519.661 877.778 519.299 877.527 519.059L874.027 515.699C873.863 515.541 873.64 515.452 873.408 515.452C873.175 515.452 872.952 515.541 872.788 515.699L869.288 519.059C869.037 519.299 868.962 519.661 869.098 519.975C869.234 520.29 869.553 520.494 869.908 520.494Z" fill="white"/>
<path d="M890.288 523.609C890.452 523.767 890.675 523.856 890.908 523.856C891.14 523.856 891.363 523.767 891.527 523.609L895.027 520.249C895.278 520.009 895.353 519.647 895.218 519.332C895.082 519.018 894.762 518.813 894.408 518.814H893.533C893.05 518.814 892.658 518.438 892.658 517.974V517.134C892.658 516.206 891.874 515.454 890.908 515.454C889.941 515.454 889.158 516.206 889.158 517.134V517.974C889.158 518.438 888.766 518.814 888.283 518.814H887.408C887.053 518.813 886.734 519.018 886.598 519.332C886.462 519.647 886.537 520.009 886.788 520.249L890.288 523.609Z" fill="white"/>
<path d="M896.158 525.533C897.608 525.533 898.783 526.661 898.783 528.053V553.253C898.783 554.645 897.608 555.773 896.158 555.773H868.158C866.708 555.773 865.533 554.645 865.533 553.253V528.053C865.533 526.661 866.709 525.533 868.158 525.533H896.158ZM874.283 537.293C871.384 537.293 869.033 539.55 869.033 542.333V544.854C869.033 545.317 869.425 545.693 869.908 545.693H870.536C870.98 545.69 871.356 546.006 871.411 546.429L872.096 551.679C872.152 552.101 872.527 552.416 872.971 552.413H875.582C876.025 552.416 876.401 552.101 876.457 551.679L877.141 546.429C877.196 546.006 877.572 545.69 878.016 545.693H878.658C879.141 545.693 879.533 545.317 879.533 544.854V542.333C879.533 539.55 877.183 537.293 874.283 537.293ZM890.033 537.293C887.134 537.293 884.783 539.55 884.783 542.333V544.854C884.783 545.317 885.175 545.693 885.658 545.693H886.272C886.716 545.69 887.092 546.006 887.147 546.429L887.832 551.679C887.888 552.101 888.264 552.416 888.707 552.413H891.332C891.775 552.416 892.151 552.101 892.207 551.679L892.891 546.429C892.946 546.006 893.322 545.69 893.766 545.693H894.408C894.891 545.693 895.283 545.317 895.283 544.854V542.333C895.283 539.55 892.933 537.293 890.033 537.293ZM874.283 528.053C872.11 528.056 870.349 529.747 870.346 531.833C870.346 533.921 872.109 535.613 874.283 535.613C876.458 535.613 878.221 533.921 878.221 531.833C878.221 529.745 876.458 528.053 874.283 528.053ZM890.033 528.053C887.86 528.056 886.099 529.747 886.096 531.833C886.096 533.921 887.859 535.613 890.033 535.613C892.208 535.613 893.971 533.921 893.971 531.833C893.971 529.745 892.208 528.053 890.033 528.053Z" fill="white"/>
<path d="M479.951 585.233V521.265" stroke="white" stroke-width="3"/>
<mask id="path-111-inside-6_821_37031" fill="white">
<path d="M478.469 503.773H598.086V604.724H478.469V503.773Z"/>
</mask>
<path d="M598.086 503.773H601.086V500.773H598.086V503.773ZM598.086 604.724V607.724H601.086V604.724H598.086ZM478.469 503.773V506.773H598.086V503.773V500.773H478.469V503.773ZM598.086 503.773H595.086V604.724H598.086H601.086V503.773H598.086ZM598.086 604.724V601.724H478.469V604.724V607.724H598.086V604.724Z" fill="#CDCDCD" mask="url(#path-111-inside-6_821_37031)"/>
<rect x="481.436" y="463.793" width="30.6456" height="39.9803" fill="#8FA9C0"/>
<rect x="503.184" y="435.808" width="62" height="62" rx="2" fill="#2D2D2D"/>
<path d="M555.184 458.058C555.184 457.091 554.4 456.308 553.434 456.308H542.059C540.609 456.308 539.434 457.483 539.434 458.933V462.433C539.434 462.916 539.042 463.308 538.559 463.308H535.059C533.609 463.308 532.434 464.483 532.434 465.933V469.433C532.434 469.916 532.042 470.308 531.559 470.308H528.059C526.609 470.308 525.434 471.483 525.434 472.933V476.433C525.434 476.916 525.042 477.308 524.559 477.308H521.059C519.609 477.308 518.434 478.483 518.434 479.933V486.058C518.434 487.024 519.217 487.808 520.184 487.808H553.434C554.4 487.808 555.184 487.024 555.184 486.058V458.058Z" fill="white"/>
<path d="M534.008 456.052C534.259 456.298 534.633 456.37 534.957 456.235C535.282 456.1 535.494 455.784 535.496 455.433V446.683C535.496 446.199 535.104 445.808 534.621 445.808H525.871C525.518 445.81 525.201 446.024 525.067 446.351C524.933 446.678 525.008 447.053 525.258 447.302L527.152 449.201C527.317 449.365 527.409 449.588 527.409 449.82C527.409 450.053 527.317 450.276 527.152 450.44L513.952 463.638C512.926 464.664 512.926 466.326 513.952 467.352C514.977 468.377 516.64 468.377 517.665 467.352L530.858 454.152C531.023 453.987 531.246 453.895 531.478 453.895C531.71 453.895 531.933 453.987 532.097 454.152L534.008 456.052Z" fill="white"/>
<mask id="path-117-inside-7_821_37031" fill="white">
<path d="M1754.71 304.873H1860.49V355.848H1928.7V392.829H1954.4V410.82H2192.65V312.869H2236.15V373.839H2286.56V410.82H2286.56V447.803H1954.4V429.811H1860.49V355.848H1826.88V441.806H1796.23V474.788H1745.81V441.806H1650.91V355.848H1455.18V327.861H1333.58V311.869H1376.09V299.875H1754.71V304.873ZM2068.09 356.848H1950.45V324.863H2068.09V356.848ZM2286.56 345.853H2243.06V312.869H2286.56V345.853ZM2068.09 324.862H2013.72V295.877H2068.09V324.862Z"/>
</mask>
<path d="M1754.71 304.873H1860.49V355.848H1928.7V392.829H1954.4V410.82H2192.65V312.869H2236.15V373.839H2286.56V410.82H2286.56V447.803H1954.4V429.811H1860.49V355.848H1826.88V441.806H1796.23V474.788H1745.81V441.806H1650.91V355.848H1455.18V327.861H1333.58V311.869H1376.09V299.875H1754.71V304.873ZM2068.09 356.848H1950.45V324.863H2068.09V356.848ZM2286.56 345.853H2243.06V312.869H2286.56V345.853ZM2068.09 324.862H2013.72V295.877H2068.09V324.862Z" fill="#DDE5ED"/>
<path d="M1754.71 304.873H1752.71V306.873H1754.71V304.873ZM1860.49 304.873H1862.49V302.873H1860.49V304.873ZM1860.49 355.848H1858.49V357.848H1860.49V355.848ZM1928.7 355.848H1930.7V353.848H1928.7V355.848ZM1928.7 392.829H1926.7V394.829H1928.7V392.829ZM1954.4 392.829H1956.4V390.829H1954.4V392.829ZM1954.4 410.82H1952.4V412.82H1954.4V410.82ZM2192.65 410.82V412.82H2194.65V410.82H2192.65ZM2192.65 312.869V310.869H2190.65V312.869H2192.65ZM2236.15 312.869H2238.15V310.869H2236.15V312.869ZM2236.15 373.839H2234.15V375.839H2236.15V373.839ZM2286.56 373.839H2288.56V371.839H2286.56V373.839ZM2286.56 410.82V412.82H2288.56V410.82H2286.56ZM2286.56 410.82V408.82H2284.56V410.82H2286.56ZM2286.56 447.803V449.803H2288.56V447.803H2286.56ZM1954.4 447.803H1952.4V449.803H1954.4V447.803ZM1954.4 429.811H1956.4V427.811H1954.4V429.811ZM1860.49 429.811H1858.49V431.811H1860.49V429.811ZM1860.49 355.848H1862.49V353.848H1860.49V355.848ZM1826.88 355.848V353.848H1824.88V355.848H1826.88ZM1826.88 441.806V443.806H1828.88V441.806H1826.88ZM1796.23 441.806V439.806H1794.23V441.806H1796.23ZM1796.23 474.788V476.788H1798.23V474.788H1796.23ZM1745.81 474.788H1743.81V476.788H1745.81V474.788ZM1745.81 441.806H1747.81V439.806H1745.81V441.806ZM1650.91 441.806H1648.91V443.806H1650.91V441.806ZM1650.91 355.848H1652.91V353.848H1650.91V355.848ZM1455.18 355.848H1453.18V357.848H1455.18V355.848ZM1455.18 327.861H1457.18V325.861H1455.18V327.861ZM1333.58 327.861H1331.58V329.861H1333.58V327.861ZM1333.58 311.869V309.869H1331.58V311.869H1333.58ZM1376.09 311.869V313.869H1378.09V311.869H1376.09ZM1376.09 299.875V297.875H1374.09V299.875H1376.09ZM1754.71 299.875H1756.71V297.875H1754.71V299.875ZM2068.09 356.848V358.848H2070.09V356.848H2068.09ZM1950.45 356.848H1948.45V358.848H1950.45V356.848ZM1950.45 324.863V322.863H1948.45V324.863H1950.45ZM2068.09 324.863H2070.09V322.863H2068.09V324.863ZM2286.56 345.853V347.853H2288.56V345.853H2286.56ZM2243.06 345.853H2241.06V347.853H2243.06V345.853ZM2243.06 312.869V310.869H2241.06V312.869H2243.06ZM2286.56 312.869H2288.56V310.869H2286.56V312.869ZM2068.09 324.862V326.862H2070.09V324.862H2068.09ZM2013.72 324.862H2011.72V326.862H2013.72V324.862ZM2013.72 295.877V293.877H2011.72V295.877H2013.72ZM2068.09 295.877H2070.09V293.877H2068.09V295.877ZM1754.71 304.873V306.873H1860.49V304.873V302.873H1754.71V304.873ZM1860.49 304.873H1858.49V355.848H1860.49H1862.49V304.873H1860.49ZM1860.49 355.848V357.848H1928.7V355.848V353.848H1860.49V355.848ZM1928.7 355.848H1926.7V392.829H1928.7H1930.7V355.848H1928.7ZM1928.7 392.829V394.829H1954.4V392.829V390.829H1928.7V392.829ZM1954.4 392.829H1952.4V410.82H1954.4H1956.4V392.829H1954.4ZM1954.4 410.82V412.82H2192.65V410.82V408.82H1954.4V410.82ZM2192.65 410.82H2194.65V312.869H2192.65H2190.65V410.82H2192.65ZM2192.65 312.869V314.869H2236.15V312.869V310.869H2192.65V312.869ZM2236.15 312.869H2234.15V373.839H2236.15H2238.15V312.869H2236.15ZM2236.15 373.839V375.839H2286.56V373.839V371.839H2236.15V373.839ZM2286.56 373.839H2284.56V410.82H2286.56H2288.56V373.839H2286.56ZM2286.56 410.82V408.82H2286.56V410.82V412.82H2286.56V410.82ZM2286.56 410.82H2284.56V447.803H2286.56H2288.56V410.82H2286.56ZM2286.56 447.803V445.803H1954.4V447.803V449.803H2286.56V447.803ZM1954.4 447.803H1956.4V429.811H1954.4H1952.4V447.803H1954.4ZM1954.4 429.811V427.811H1860.49V429.811V431.811H1954.4V429.811ZM1860.49 429.811H1862.49V355.848H1860.49H1858.49V429.811H1860.49ZM1860.49 355.848V353.848H1826.88V355.848V357.848H1860.49V355.848ZM1826.88 355.848H1824.88V441.806H1826.88H1828.88V355.848H1826.88ZM1826.88 441.806V439.806H1796.23V441.806V443.806H1826.88V441.806ZM1796.23 441.806H1794.23V474.788H1796.23H1798.23V441.806H1796.23ZM1796.23 474.788V472.788H1745.81V474.788V476.788H1796.23V474.788ZM1745.81 474.788H1747.81V441.806H1745.81H1743.81V474.788H1745.81ZM1745.81 441.806V439.806H1650.91V441.806V443.806H1745.81V441.806ZM1650.91 441.806H1652.91V355.848H1650.91H1648.91V441.806H1650.91ZM1650.91 355.848V353.848H1455.18V355.848V357.848H1650.91V355.848ZM1455.18 355.848H1457.18V327.861H1455.18H1453.18V355.848H1455.18ZM1455.18 327.861V325.861H1333.58V327.861V329.861H1455.18V327.861ZM1333.58 327.861H1335.58V311.869H1333.58H1331.58V327.861H1333.58ZM1333.58 311.869V313.869H1376.09V311.869V309.869H1333.58V311.869ZM1376.09 311.869H1378.09V299.875H1376.09H1374.09V311.869H1376.09ZM1376.09 299.875V301.875H1754.71V299.875V297.875H1376.09V299.875ZM1754.71 299.875H1752.71V304.873H1754.71H1756.71V299.875H1754.71ZM2068.09 356.848V354.848H1950.45V356.848V358.848H2068.09V356.848ZM1950.45 356.848H1952.45V324.863H1950.45H1948.45V356.848H1950.45ZM1950.45 324.863V326.863H2068.09V324.863V322.863H1950.45V324.863ZM2068.09 324.863H2066.09V356.848H2068.09H2070.09V324.863H2068.09ZM2286.56 345.853V343.853H2243.06V345.853V347.853H2286.56V345.853ZM2243.06 345.853H2245.06V312.869H2243.06H2241.06V345.853H2243.06ZM2243.06 312.869V314.869H2286.56V312.869V310.869H2243.06V312.869ZM2286.56 312.869H2284.56V345.853H2286.56H2288.56V312.869H2286.56ZM2068.09 324.862V322.862H2013.72V324.862V326.862H2068.09V324.862ZM2013.72 324.862H2015.72V295.877H2013.72H2011.72V324.862H2013.72ZM2013.72 295.877V297.877H2068.09V295.877V293.877H2013.72V295.877ZM2068.09 295.877H2066.09V324.862H2068.09H2070.09V295.877H2068.09Z" fill="#B3C5D6" mask="url(#path-117-inside-7_821_37031)"/>
<rect x="2236.14" y="460.795" width="50.417" height="104.948" fill="#D9D9D9"/>
<path d="M1833.3 503.274V566.243L2228.24 566.742V481.784H2022.12V531.76H1965.77V497.277L1948.47 481.784H1852.09L1833.3 503.274Z" fill="#F6F6F6" stroke="#F6F6F6" stroke-width="3"/>
<path d="M1379.8 246.901V222.271H1490.22V199.924H1552.8V212.607" stroke="#CDCDCD" stroke-width="3"/>
<path d="M1650.91 376.836H1627.19V437.306" stroke="#E49D68" stroke-width="3"/>
<path d="M1635.59 454.798H1628.43C1624.15 454.798 1620.06 456.508 1617.05 459.547L1610.06 466.614C1607.1 469.61 1605.44 473.653 1605.44 477.866V499.697C1605.44 503.91 1607.1 507.952 1610.06 510.948L1617.05 518.016C1620.06 521.054 1624.15 522.764 1628.43 522.764H1635.59H1637.03C1641.75 522.764 1646.24 520.672 1649.28 517.05L1658.33 506.272" stroke="#E49D68" stroke-width="3"/>
<rect x="1963.3" y="481.784" width="62" height="62" rx="2" fill="#2D2D2D"/>
<path d="M2015.3 504.034C2015.3 503.068 2014.52 502.284 2013.55 502.284H2002.17C2000.72 502.284 1999.55 503.459 1999.55 504.909V508.409C1999.55 508.892 1999.16 509.284 1998.67 509.284H1995.17C1993.72 509.284 1992.55 510.459 1992.55 511.909V515.409C1992.55 515.892 1992.16 516.284 1991.67 516.284H1988.17C1986.72 516.284 1985.55 517.459 1985.55 518.909V522.409C1985.55 522.892 1985.16 523.284 1984.67 523.284H1981.17C1979.72 523.284 1978.55 524.459 1978.55 525.909V532.034C1978.55 533.001 1979.33 533.784 1980.3 533.784H2013.55C2014.52 533.784 2015.3 533.001 2015.3 532.034V504.034Z" fill="white"/>
<path d="M1994.12 502.029C1994.37 502.275 1994.75 502.347 1995.07 502.212C1995.4 502.076 1995.61 501.761 1995.61 501.409V492.659C1995.61 492.176 1995.22 491.784 1994.74 491.784H1985.99C1985.63 491.786 1985.32 492.001 1985.18 492.327C1985.05 492.654 1985.12 493.029 1985.37 493.279L1987.27 495.177C1987.43 495.342 1987.52 495.564 1987.52 495.797C1987.52 496.029 1987.43 496.252 1987.27 496.416L1974.07 509.615C1973.04 510.64 1973.04 512.303 1974.07 513.328C1975.09 514.354 1976.75 514.354 1977.78 513.328L1990.97 500.128C1991.14 499.964 1991.36 499.871 1991.59 499.871C1991.83 499.871 1992.05 499.964 1992.21 500.128L1994.12 502.029Z" fill="white"/>
<path d="M1395.86 89.4785V178.435H1450.73V89.4785H1395.86Z" fill="white" stroke="#CDCDCD" stroke-width="3"/>
<path d="M2038.43 88.9785V177.935H2069.08V88.9785H2038.43Z" fill="white" stroke="#CDCDCD" stroke-width="3"/>
<path d="M2134.32 88.9785V177.935H2164.97V88.9785H2134.32Z" fill="white" stroke="#CDCDCD" stroke-width="3"/>
<path d="M2230.21 88.9785V177.935H2260.86V88.9785H2230.21Z" fill="white" stroke="#CDCDCD" stroke-width="3"/>
<path d="M1762.62 161.76V178.751H1796.23V161.76L1800.71 156.421C1806.76 149.217 1810.07 140.12 1810.07 130.715V79.0856C1810.07 65.483 1805.02 50.8797 1792.03 46.8517C1782.69 43.9551 1773.43 44.758 1765.5 47.1916C1752.04 51.3188 1746.4 65.836 1746.56 79.9142L1747.12 129.815C1747.23 139.759 1751.05 149.304 1757.82 156.589L1762.62 161.76Z" fill="white" stroke="#CDCDCD" stroke-width="3"/>
<path d="M1914.36 161.76V178.751H1947.98V161.76L1952.46 156.421C1958.5 149.217 1961.82 140.12 1961.82 130.715V79.0856C1961.82 65.483 1956.77 50.8797 1943.77 46.8517C1934.43 43.9551 1925.18 44.758 1917.24 47.1916C1903.78 51.3188 1898.14 65.836 1898.3 79.9142L1898.87 129.815C1898.98 139.759 1902.79 149.304 1909.56 156.589L1914.36 161.76Z" fill="white" stroke="#CDCDCD" stroke-width="3"/>
<path d="M1197.16 151.947V177.934H1240.16V151.947L1272.72 110.303C1282.99 97.1729 1273.63 77.9834 1256.97 77.9834H1179.24C1162.42 77.9834 1153.12 97.4807 1163.69 110.559L1197.16 151.947Z" fill="white" stroke="#CDCDCD" stroke-width="3"/>
<path d="M490.826 152.947V178.934H533.829V152.947L566.39 111.303C576.656 98.1729 567.301 78.9834 550.634 78.9834H472.911C456.092 78.9834 446.784 98.4807 457.359 111.559L490.826 152.947Z" fill="white" stroke="#CDCDCD" stroke-width="3"/>
<rect x="465.553" y="191.003" width="25.8326" height="25.8326" rx="1" fill="#DDE5ED" stroke="#B3C5D6" stroke-width="2"/>
<rect x="141.303" y="629.787" width="25.8326" height="25.8326" rx="1" fill="#DDE5ED" stroke="#B3C5D6" stroke-width="2"/>
<rect x="141.301" y="408.896" width="25.8326" height="25.8326" rx="1" fill="#DDE5ED" stroke="#B3C5D6" stroke-width="2"/>
<rect x="141.303" y="887.659" width="25.8326" height="25.8326" rx="1" fill="#DDE5ED" stroke="#B3C5D6" stroke-width="2"/>
<rect x="1236.64" y="187.005" width="25.8326" height="25.8326" rx="1" fill="#DDE5ED" stroke="#B3C5D6" stroke-width="2"/>
<rect x="1732.9" y="191.003" width="25.8326" height="25.8326" rx="1" fill="#DDE5ED" stroke="#B3C5D6" stroke-width="2"/>
<rect x="1885.14" y="191.003" width="25.8326" height="25.8326" rx="1" fill="#DDE5ED" stroke="#B3C5D6" stroke-width="2"/>
<rect x="2011.67" y="191.003" width="25.8326" height="25.8326" rx="1" fill="#DDE5ED" stroke="#B3C5D6" stroke-width="2"/>
<rect x="2107.57" y="191.003" width="25.8326" height="25.8326" rx="1" fill="#DDE5ED" stroke="#B3C5D6" stroke-width="2"/>
<rect x="2203.46" y="191.003" width="25.8326" height="25.8326" rx="1" fill="#DDE5ED" stroke="#B3C5D6" stroke-width="2"/>
<rect x="1974.17" y="366.841" width="62" height="62" rx="2" fill="#2D2D2D"/>
<path d="M1992.92 379.896C1996 379.896 1998.72 381.908 1999.62 384.853C2000.51 387.798 1999.38 390.984 1996.83 392.703C1996.6 392.853 1996.46 393.097 1996.44 393.365C1996.42 393.633 1996.53 393.896 1996.73 394.077C1997.46 394.745 1998.01 395.598 1998.3 396.546L2001.63 407.205C2001.71 407.471 2001.67 407.76 2001.5 407.984C2001.34 408.208 2001.08 408.341 2000.8 408.341H1998.42C1997.97 408.338 1997.6 408.667 1997.54 409.107L1996.42 418.076C1996.37 418.516 1995.99 418.844 1995.55 418.841H1990.3C1989.85 418.844 1989.48 418.516 1989.42 418.076L1988.31 409.107C1988.26 408.667 1987.88 408.337 1987.44 408.341H1985.05C1984.77 408.34 1984.51 408.207 1984.34 407.983C1984.18 407.759 1984.13 407.47 1984.21 407.205L1987.54 396.546C1987.84 395.598 1988.38 394.745 1989.11 394.077C1989.31 393.896 1989.42 393.633 1989.4 393.365C1989.38 393.097 1989.24 392.853 1989.01 392.703C1986.46 390.984 1985.33 387.798 1986.23 384.853C1987.12 381.908 1989.84 379.896 1992.92 379.896ZM1993.51 385.32C1993.18 385.014 1992.67 385.014 1992.33 385.32C1991.66 385.934 1990.88 386.432 1990.04 386.794C1989.64 386.968 1989.43 387.406 1989.55 387.824C1989.96 389.345 1991.34 390.402 1992.92 390.402C1994.49 390.402 1995.87 389.345 1996.28 387.824C1996.4 387.406 1996.19 386.968 1995.79 386.794C1994.95 386.431 1994.19 385.933 1993.51 385.32Z" fill="white"/>
<path d="M2005.17 376.841C2004.21 376.841 2003.42 377.624 2003.42 378.591V417.091C2003.42 418.057 2004.21 418.841 2005.17 418.841C2006.14 418.841 2006.92 418.057 2006.92 417.091V378.591C2006.92 377.624 2006.14 376.841 2005.17 376.841Z" fill="white"/>
<path d="M2017.42 379.863C2020.41 379.863 2023.06 381.757 2024.04 384.579C2025.01 387.401 2024.09 390.53 2021.74 392.372C2021.51 392.551 2021.39 392.831 2021.41 393.12C2021.43 393.409 2021.59 393.669 2021.84 393.815C2024.52 395.374 2026.17 398.24 2026.17 401.341V405.716C2026.17 406.199 2025.78 406.591 2025.3 406.591H2022.94C2022.49 406.588 2022.11 406.926 2022.07 407.373L2020.92 418.061C2020.87 418.506 2020.5 418.843 2020.05 418.841H2014.8C2014.35 418.843 2013.97 418.506 2013.92 418.061L2012.79 407.373C2012.74 406.926 2012.36 406.588 2011.91 406.591H2009.55C2009.06 406.591 2008.67 406.199 2008.67 405.716V401.341C2008.67 398.24 2010.32 395.374 2013 393.815C2013.25 393.669 2013.42 393.409 2013.44 393.12C2013.46 392.831 2013.33 392.551 2013.1 392.372C2010.75 390.53 2009.83 387.401 2010.81 384.579C2011.78 381.757 2014.44 379.863 2017.42 379.863ZM2015.24 385.538C2015 385.425 2014.72 385.427 2014.48 385.542C2014.25 385.657 2014.07 385.873 2014.01 386.13C2013.95 386.383 2013.92 386.643 2013.92 386.903C2013.92 388.836 2015.49 390.403 2017.42 390.403C2019.35 390.403 2020.92 388.836 2020.92 386.903C2020.92 386.766 2020.87 386.633 2020.77 386.539C2020.66 386.446 2020.53 386.401 2020.39 386.415C2020.08 386.448 2019.78 386.465 2019.47 386.466C2018.01 386.467 2016.57 386.15 2015.24 385.538Z" fill="white"/>
<rect x="1810.07" y="410.819" width="62" height="62" rx="2" fill="#2D2D2D"/>
<path d="M1828.82 423.874C1831.9 423.874 1834.61 425.886 1835.51 428.831C1836.41 431.776 1835.28 434.963 1832.72 436.682C1832.5 436.831 1832.36 437.076 1832.34 437.344C1832.32 437.612 1832.42 437.875 1832.62 438.056C1833.36 438.724 1833.9 439.576 1834.2 440.524L1837.53 451.184C1837.61 451.449 1837.56 451.739 1837.4 451.963C1837.23 452.187 1836.97 452.319 1836.69 452.319H1834.32C1833.87 452.316 1833.5 452.646 1833.44 453.086L1832.32 462.055C1832.26 462.494 1831.89 462.823 1831.44 462.819H1826.19C1825.75 462.823 1825.37 462.494 1825.32 462.055L1824.21 453.086C1824.16 452.646 1823.78 452.316 1823.34 452.319H1820.94C1820.67 452.319 1820.41 452.186 1820.24 451.962C1820.08 451.738 1820.03 451.449 1820.11 451.184L1823.44 440.524C1823.73 439.576 1824.28 438.724 1825.01 438.056C1825.21 437.875 1825.31 437.612 1825.29 437.344C1825.27 437.076 1825.13 436.831 1824.91 436.682C1822.35 434.963 1821.22 431.776 1822.12 428.831C1823.02 425.886 1825.74 423.874 1828.82 423.874ZM1829.41 429.299C1829.08 428.993 1828.56 428.993 1828.23 429.299C1827.55 429.913 1826.78 430.411 1825.94 430.772C1825.54 430.946 1825.33 431.384 1825.44 431.803C1825.86 433.324 1827.24 434.381 1828.81 434.381C1830.39 434.381 1831.77 433.324 1832.18 431.803C1832.29 431.384 1832.08 430.946 1831.69 430.772C1830.85 430.41 1830.08 429.912 1829.41 429.299Z" fill="white"/>
<path d="M1841.07 420.819C1840.1 420.819 1839.32 421.603 1839.32 422.569V461.069C1839.32 462.036 1840.1 462.819 1841.07 462.819C1842.03 462.819 1842.82 462.036 1842.82 461.069V422.569C1842.82 421.603 1842.03 420.819 1841.07 420.819Z" fill="white"/>
<path d="M1853.32 423.842C1856.3 423.842 1858.96 425.736 1859.93 428.558C1860.91 431.379 1859.99 434.509 1857.64 436.351C1857.41 436.529 1857.29 436.81 1857.3 437.099C1857.32 437.387 1857.49 437.648 1857.74 437.794C1860.42 439.353 1862.07 442.219 1862.07 445.319V449.694C1862.07 450.178 1861.68 450.569 1861.19 450.569H1858.84C1858.39 450.567 1858.01 450.905 1857.96 451.352L1856.82 462.039C1856.77 462.485 1856.39 462.822 1855.94 462.819H1850.69C1850.24 462.822 1849.87 462.485 1849.82 462.039L1848.68 451.352C1848.64 450.905 1848.26 450.567 1847.81 450.569H1845.44C1844.96 450.569 1844.57 450.178 1844.57 449.694V445.319C1844.57 442.219 1846.22 439.353 1848.9 437.794C1849.15 437.648 1849.31 437.387 1849.33 437.099C1849.35 436.81 1849.23 436.529 1849 436.351C1846.65 434.509 1845.73 431.379 1846.7 428.558C1847.68 425.736 1850.33 423.842 1853.32 423.842ZM1851.13 429.517C1850.9 429.404 1850.62 429.406 1850.38 429.521C1850.14 429.635 1849.97 429.851 1849.91 430.108C1849.85 430.362 1849.82 430.621 1849.82 430.882C1849.82 432.815 1851.39 434.382 1853.32 434.382C1855.25 434.382 1856.82 432.815 1856.82 430.882C1856.82 430.744 1856.76 430.612 1856.66 430.518C1856.56 430.425 1856.42 430.38 1856.28 430.394C1855.98 430.426 1855.67 430.443 1855.37 430.444C1853.91 430.445 1852.46 430.129 1851.13 429.517Z" fill="white"/>
<path d="M745.381 702.676H878.838M783.298 324.862H861.79" stroke="#CDCDCD" stroke-width="3"/>
<rect x="800.742" y="699.677" width="62" height="62" rx="2" fill="#2D2D2D"/>
<path d="M852.742 721.927C852.742 720.96 851.959 720.177 850.992 720.177H839.617C838.167 720.177 836.992 721.352 836.992 722.802V726.302C836.992 726.785 836.6 727.177 836.117 727.177H832.617C831.167 727.177 829.992 728.352 829.992 729.802V733.302C829.992 733.785 829.6 734.177 829.117 734.177H825.617C824.167 734.177 822.992 735.352 822.992 736.802V740.302C822.992 740.785 822.6 741.177 822.117 741.177H818.617C817.167 741.177 815.992 742.352 815.992 743.802V749.927C815.992 750.893 816.776 751.677 817.742 751.677H850.992C851.959 751.677 852.742 750.893 852.742 749.927V721.927Z" fill="white"/>
<path d="M831.567 719.921C831.818 720.167 832.192 720.239 832.516 720.104C832.84 719.969 833.052 719.653 833.055 719.302V710.552C833.055 710.069 832.663 709.677 832.18 709.677H823.43C823.076 709.679 822.759 709.893 822.625 710.22C822.491 710.547 822.567 710.922 822.817 711.171L824.711 713.07C824.875 713.234 824.968 713.457 824.968 713.69C824.968 713.922 824.875 714.145 824.711 714.309L811.51 727.508C810.485 728.533 810.485 730.196 811.51 731.221C812.536 732.246 814.198 732.246 815.224 731.221L828.417 718.021C828.581 717.856 828.804 717.764 829.037 717.764C829.269 717.764 829.492 717.856 829.656 718.021L831.567 719.921Z" fill="white"/>
<rect x="141.301" y="987.61" width="25.8326" height="25.8326" rx="1" fill="#DDE5ED" stroke="#B3C5D6" stroke-width="2"/>
<rect x="255.051" y="492.781" width="62" height="62.0019" rx="2" fill="#084983"/>
<path d="M286.052 502.781L285.373 504.883H283.179L284.954 506.182L284.276 508.283L286.052 506.984L287.827 508.283L287.149 506.182L288.925 504.883H286.731L286.052 502.781Z" fill="white"/>
<path d="M286.731 541.383L286.052 539.281L285.373 541.383H283.179L284.954 542.682L284.276 544.783L286.052 543.484L287.827 544.783L287.149 542.682L288.925 541.383H286.731Z" fill="white"/>
<path d="M267.924 525.234L269.699 526.533L269.022 524.432L270.797 523.133H268.603L267.924 521.031L267.245 523.133H265.051L266.826 524.432L266.148 526.533L267.924 525.234Z" fill="white"/>
<path d="M276.986 505.227L276.308 507.327H274.113L275.889 508.627L275.211 510.728L276.986 509.429L278.762 510.728L278.084 508.627L279.859 507.327H277.665L276.986 505.227Z" fill="white"/>
<path d="M270.354 511.906L269.675 514.008H267.479L269.256 515.307L268.577 517.408L270.354 516.109L272.129 517.408L271.45 515.307L273.227 514.008H271.031L270.354 511.906Z" fill="white"/>
<path d="M271.031 532.258L270.354 530.156L269.675 532.258H267.479L269.256 533.557L268.577 535.658L270.354 534.359L272.129 535.658L271.45 533.557L273.227 532.258H271.031Z" fill="white"/>
<path d="M277.665 538.938L276.986 536.836L276.308 538.938H274.113L275.889 540.237L275.211 542.339L276.986 541.039L278.762 542.339L278.084 540.237L279.859 538.938H277.665Z" fill="white"/>
<path d="M307.051 523.133H304.857L304.178 521.031L303.499 523.133H301.305L303.08 524.432L302.402 526.533L304.178 525.234L305.953 526.533L305.275 524.432L307.051 523.133Z" fill="white"/>
<path d="M295.114 505.227L294.436 507.327H292.241L294.017 508.627L293.339 510.728L295.114 509.429L296.89 510.728L296.212 508.627L297.987 507.327H295.793L295.114 505.227Z" fill="white"/>
<path d="M300.65 515.307L299.972 517.408L301.747 516.109L303.524 517.408L302.845 515.307L304.621 514.008H302.426L301.747 511.906L301.069 514.008H298.874L300.65 515.307Z" fill="white"/>
<path d="M302.426 532.258L301.747 530.156L301.069 532.258H298.874L300.65 533.557L299.972 535.658L301.747 534.359L303.524 535.658L302.845 533.557L304.621 532.258H302.426Z" fill="white"/>
<path d="M295.793 538.938L295.114 536.836L294.436 538.938H292.241L294.017 540.237L293.339 542.339L295.114 541.039L296.89 542.339L296.212 540.237L297.987 538.938H295.793Z" fill="white"/>
<rect x="255.051" y="688.781" width="62" height="62" rx="2" fill="#084983"/>
<path d="M285.525 708.534C285.284 708.534 285.088 708.73 285.088 708.972V710.284C285.084 712.7 287.04 714.662 289.456 714.666C291.872 714.67 293.834 712.714 293.838 710.298V708.972C293.838 708.73 293.642 708.534 293.4 708.534H285.525Z" fill="white"/>
<path d="M280.801 705.034C280.801 706.001 281.584 706.784 282.551 706.784H293.695C294.072 706.785 294.407 706.544 294.526 706.186L295.104 704.457C295.257 703.994 295.211 703.489 294.977 703.061C294.742 702.634 294.339 702.324 293.866 702.206L285.053 700.007C284.59 699.893 284.102 700.038 283.776 700.385C283.446 700.735 283.335 701.239 283.489 701.695L284.014 703.288H282.551C281.586 703.288 280.803 704.069 280.801 705.034Z" fill="white"/>
<path d="M307.051 737.847C307.051 736.88 306.267 736.097 305.301 736.097H295.676C295.193 736.097 294.801 735.705 294.801 735.222V724.722C294.801 724.239 295.193 723.847 295.676 723.847C296.159 723.847 296.551 724.239 296.551 724.722V732.159C296.551 733.367 297.53 734.347 298.738 734.347C299.946 734.347 300.926 733.367 300.926 732.159V725.159C300.921 721.295 297.79 718.164 293.926 718.159H291.896C291.536 718.154 291.21 718.369 291.073 718.702L289.953 721.519C289.884 721.683 289.728 721.792 289.551 721.799C289.372 721.796 289.213 721.686 289.148 721.519L288.011 718.702C287.881 718.372 287.561 718.156 287.206 718.159H284.159C283.228 718.158 282.334 718.527 281.676 719.187L271.886 728.987C271.076 729.844 271.095 731.19 271.929 732.024C272.763 732.858 274.109 732.877 274.966 732.067L283.541 723.506C283.666 723.38 283.855 723.342 284.019 723.41C284.182 723.478 284.289 723.638 284.289 723.815V735.217C284.289 735.7 283.897 736.092 283.414 736.092H266.801C265.834 736.092 265.051 736.875 265.051 737.842C265.051 738.808 265.834 739.592 266.801 739.592H305.301C306.265 739.592 307.048 738.811 307.051 737.847Z" fill="white"/>
<rect x="1092.37" y="510.771" width="61.2912" height="61.9694" rx="2" fill="#2D2D2D"/>
<path d="M1132.83 534.845C1133.17 535.187 1133.17 535.741 1132.83 536.083L1130.62 538.291C1130.37 538.541 1130.3 538.918 1130.43 539.246C1130.57 539.573 1130.89 539.786 1131.24 539.786H1139.99C1140.48 539.786 1140.87 539.394 1140.87 538.911V530.161C1140.87 529.807 1140.65 529.487 1140.33 529.352C1140 529.22 1139.62 529.294 1139.37 529.541L1137.16 531.751C1136.82 532.093 1136.27 532.093 1135.93 531.751L1127.54 523.364C1126.99 522.795 1126.18 522.567 1125.41 522.768C1124.65 522.968 1124.05 523.566 1123.85 524.331C1123.65 525.095 1123.88 525.909 1124.45 526.458L1132.83 534.845Z" fill="white"/>
<path d="M1144.37 554.661C1144.37 551.278 1141.62 548.536 1138.24 548.536H1132.34C1132.1 548.536 1131.87 548.436 1131.7 548.26L1119.62 535.367C1119.12 534.837 1118.43 534.536 1117.7 534.536H1108.49C1105.11 534.536 1102.37 537.278 1102.37 540.661C1102.37 544.044 1105.11 546.786 1108.49 546.786H1113.52C1113.76 546.786 1113.99 546.887 1114.16 547.063L1126.24 559.955C1126.74 560.485 1127.43 560.786 1128.16 560.786H1138.24C1141.62 560.786 1144.37 558.044 1144.37 554.661Z" fill="white"/>
<rect x="1447" y="475" width="204" height="92" fill="#F3F8FC"/>
<rect x="1518" y="490" width="62" height="62" rx="2" fill="#084983"/>
<path d="M1568.15 533.218H1529.75C1528.78 533.218 1528 534.001 1528 534.968C1528 535.934 1528.78 536.718 1529.75 536.718H1568.15C1569.11 536.718 1569.9 535.934 1569.9 534.968C1569.9 534.001 1569.11 533.218 1568.15 533.218Z" fill="white"/>
<path d="M1556.79 505.281C1557.76 505.281 1558.54 506.065 1558.54 507.031V507.906C1558.54 508.389 1558.94 508.781 1559.42 508.781H1561.27C1566.09 508.781 1570 512.689 1570 517.509C1570 522.329 1566.09 526.235 1561.27 526.235H1554.92C1554.69 526.236 1554.47 526.33 1554.3 526.496C1551.98 528.892 1548.84 530.343 1545.51 530.57C1541.65 530.828 1537.86 529.477 1535.04 526.836C1532.22 524.195 1530.61 520.501 1530.61 516.635V507.031C1530.61 506.065 1531.4 505.281 1532.36 505.281H1556.79ZM1559.42 512.269C1558.94 512.269 1558.55 512.661 1558.55 513.144V516.157C1558.55 518.004 1558.2 519.834 1557.52 521.553C1557.42 521.821 1557.45 522.124 1557.61 522.362C1557.78 522.6 1558.05 522.743 1558.33 522.744H1561.27C1564.16 522.744 1566.51 520.4 1566.51 517.509C1566.51 514.617 1564.16 512.273 1561.27 512.272L1559.42 512.269Z" fill="white"/>
<path d="M549 233V324L547.864 323.995L478 384.694V401H318V233H549Z" fill="#F3F8FC"/>
<rect x="402" y="279" width="62" height="62" rx="2" fill="#084983"/>
<path d="M452.147 322.218H413.75C412.784 322.218 412 323.001 412 323.968C412 324.934 412.784 325.718 413.75 325.718H452.147C453.113 325.718 453.897 324.934 453.897 323.968C453.897 323.001 453.113 322.218 452.147 322.218Z" fill="white"/>
<path d="M440.794 294.281C441.76 294.281 442.544 295.065 442.544 296.031V296.906C442.544 297.389 442.936 297.781 443.419 297.781H445.272C450.092 297.781 454 301.689 454 306.509C454 311.329 450.092 315.235 445.272 315.235H438.925C438.691 315.236 438.468 315.33 438.304 315.496C435.976 317.892 432.845 319.343 429.512 319.57C425.654 319.828 421.863 318.477 419.039 315.836C416.215 313.195 414.612 309.501 414.612 305.635V296.031C414.612 295.065 415.396 294.281 416.362 294.281H440.794ZM443.421 301.269C442.938 301.269 442.546 301.661 442.546 302.144V305.157C442.546 307.004 442.199 308.834 441.522 310.553C441.418 310.821 441.452 311.124 441.614 311.362C441.776 311.6 442.046 311.743 442.334 311.744H445.272C448.164 311.744 450.509 309.4 450.509 306.509C450.509 303.617 448.164 301.273 445.272 301.272L443.421 301.269Z" fill="white"/>
<rect x="2185.72" y="235.906" width="62" height="62" rx="2" fill="#084983"/>
<path d="M2235.87 279.124H2197.47C2196.51 279.124 2195.72 279.908 2195.72 280.874C2195.72 281.841 2196.51 282.624 2197.47 282.624H2235.87C2236.84 282.624 2237.62 281.841 2237.62 280.874C2237.62 279.908 2236.84 279.124 2235.87 279.124Z" fill="white"/>
<path d="M2224.52 251.188C2225.49 251.188 2226.27 251.971 2226.27 252.938V253.812C2226.27 254.296 2226.66 254.687 2227.14 254.688H2229C2233.82 254.688 2237.72 258.595 2237.72 263.415C2237.72 268.235 2233.82 272.142 2229 272.142H2222.65C2222.42 272.142 2222.19 272.236 2222.03 272.402C2219.7 274.798 2216.57 276.249 2213.24 276.477C2209.38 276.735 2205.59 275.383 2202.76 272.742C2199.94 270.101 2198.34 266.407 2198.34 262.541V252.938C2198.34 251.971 2199.12 251.188 2200.09 251.188H2224.52ZM2227.15 258.175C2226.66 258.175 2226.27 258.567 2226.27 259.05V262.063C2226.27 263.91 2225.92 265.741 2225.25 267.459C2225.14 267.728 2225.18 268.03 2225.34 268.269C2225.5 268.507 2225.77 268.649 2226.06 268.65H2229C2231.89 268.65 2234.23 266.307 2234.23 263.415C2234.23 260.523 2231.89 258.179 2229 258.179L2227.15 258.175Z" fill="white"/>
<rect x="1766.57" y="235.906" width="62" height="62" rx="2" fill="#084983"/>
<path d="M1816.72 279.124H1778.32C1777.36 279.124 1776.57 279.908 1776.57 280.874C1776.57 281.841 1777.36 282.624 1778.32 282.624H1816.72C1817.69 282.624 1818.47 281.841 1818.47 280.874C1818.47 279.908 1817.69 279.124 1816.72 279.124Z" fill="white"/>
<path d="M1805.37 251.188C1806.33 251.188 1807.12 251.971 1807.12 252.938V253.812C1807.12 254.296 1807.51 254.687 1807.99 254.688H1809.84C1814.66 254.688 1818.57 258.595 1818.57 263.415C1818.57 268.235 1814.66 272.142 1809.84 272.142H1803.5C1803.26 272.142 1803.04 272.236 1802.88 272.402C1800.55 274.798 1797.42 276.249 1794.08 276.477C1790.23 276.735 1786.43 275.383 1783.61 272.742C1780.79 270.101 1779.18 266.407 1779.18 262.541V252.938C1779.18 251.971 1779.97 251.188 1780.93 251.188H1805.37ZM1807.99 258.175C1807.51 258.175 1807.12 258.567 1807.12 259.05V262.063C1807.12 263.91 1806.77 265.741 1806.09 267.459C1805.99 267.728 1806.02 268.03 1806.19 268.269C1806.35 268.507 1806.62 268.649 1806.91 268.65H1809.84C1812.74 268.65 1815.08 266.307 1815.08 263.415C1815.08 260.523 1812.74 258.179 1809.84 258.179L1807.99 258.175Z" fill="white"/>
<rect x="197" y="1137" width="260" height="196" fill="#F3F8FC"/>
<rect x="295" y="1204" width="62" height="62" rx="2" fill="#084983"/>
<path d="M332.125 1214C331.4 1214 330.812 1214.59 330.812 1215.31V1254.25C330.812 1255.22 331.596 1256 332.562 1256C333.529 1256 334.312 1255.22 334.312 1254.25V1240.25C334.312 1239.77 334.704 1239.38 335.187 1239.38H338.25C338.831 1239.38 339.389 1239.15 339.8 1238.74C340.211 1238.33 340.441 1237.77 340.437 1237.19V1237.18C340.325 1224.6 336.206 1214 332.125 1214Z" fill="white"/>
<path d="M323.812 1214C322.846 1214 322.062 1214.78 322.062 1215.75V1224.5C322.064 1225.42 321.705 1226.3 321.063 1226.95C320.938 1227.08 320.75 1227.11 320.586 1227.05C320.422 1226.98 320.314 1226.82 320.312 1226.64V1215.75C320.312 1214.78 319.529 1214 318.562 1214C317.596 1214 316.812 1214.78 316.812 1215.75V1226.64C316.811 1226.82 316.703 1226.98 316.539 1227.04C316.375 1227.11 316.187 1227.07 316.062 1226.95C315.421 1226.29 315.062 1225.42 315.062 1224.5V1215.75C315.062 1214.78 314.279 1214 313.312 1214C312.346 1214 311.562 1214.78 311.562 1215.75V1224.5C311.567 1227.47 313.435 1230.11 316.23 1231.1C316.579 1231.22 316.812 1231.55 316.812 1231.93V1254.25C316.812 1255.22 317.596 1256 318.562 1256C319.529 1256 320.312 1255.22 320.312 1254.25V1231.93C320.313 1231.55 320.546 1231.22 320.895 1231.1C323.69 1230.11 325.558 1227.47 325.562 1224.5V1215.75C325.562 1214.78 324.779 1214 323.812 1214Z" fill="white"/>
<rect x="1447" y="374" width="204" height="92" fill="#F3F8FC"/>
<rect x="1518" y="389" width="62" height="62" rx="2" fill="#084983"/>
<path d="M1555.12 399C1554.4 399 1553.81 399.588 1553.81 400.312V439.25C1553.81 440.216 1554.6 441 1555.56 441C1556.53 441 1557.31 440.216 1557.31 439.25V425.25C1557.31 424.767 1557.7 424.375 1558.19 424.375H1561.25C1561.83 424.378 1562.39 424.149 1562.8 423.738C1563.21 423.327 1563.44 422.769 1563.44 422.188V422.175C1563.33 409.596 1559.21 399 1555.12 399Z" fill="white"/>
<path d="M1546.81 399C1545.85 399 1545.06 399.784 1545.06 400.75V409.5C1545.06 410.416 1544.71 411.296 1544.06 411.95C1543.94 412.076 1543.75 412.114 1543.59 412.047C1543.42 411.98 1543.31 411.821 1543.31 411.644V400.75C1543.31 399.784 1542.53 399 1541.56 399C1540.6 399 1539.81 399.784 1539.81 400.75V411.64C1539.81 411.818 1539.7 411.977 1539.54 412.044C1539.38 412.11 1539.19 412.072 1539.06 411.946C1538.42 411.294 1538.06 410.415 1538.06 409.5V400.75C1538.06 399.784 1537.28 399 1536.31 399C1535.35 399 1534.56 399.784 1534.56 400.75V409.5C1534.57 412.466 1536.44 415.108 1539.23 416.101C1539.58 416.225 1539.81 416.555 1539.81 416.925V439.25C1539.81 440.216 1540.6 441 1541.56 441C1542.53 441 1543.31 440.216 1543.31 439.25V416.925C1543.31 416.555 1543.55 416.225 1543.9 416.101C1546.69 415.108 1548.56 412.466 1548.56 409.5V400.75C1548.56 399.784 1547.78 399 1546.81 399Z" fill="white"/>
<rect x="1439" y="490" width="62" height="62" rx="2" fill="#2D2D2D"/>
<path d="M1457.75 506.72H1458.62C1459.11 506.72 1459.5 507.096 1459.5 507.56V508.4C1459.5 509.328 1460.28 510.08 1461.25 510.08C1462.22 510.08 1463 509.328 1463 508.4V507.56C1463 507.096 1463.39 506.72 1463.87 506.72H1464.75C1465.1 506.721 1465.42 506.516 1465.56 506.202C1465.7 505.888 1465.62 505.526 1465.37 505.285L1461.87 501.925C1461.7 501.768 1461.48 501.679 1461.25 501.679C1461.02 501.679 1460.79 501.768 1460.63 501.925L1457.13 505.285C1456.88 505.526 1456.8 505.888 1456.94 506.202C1457.08 506.516 1457.4 506.721 1457.75 506.72Z" fill="white"/>
<path d="M1478.13 509.835C1478.29 509.993 1478.52 510.082 1478.75 510.082C1478.98 510.082 1479.2 509.993 1479.37 509.835L1482.87 506.475C1483.12 506.235 1483.2 505.873 1483.06 505.559C1482.92 505.245 1482.6 505.04 1482.25 505.041H1481.37C1480.89 505.041 1480.5 504.665 1480.5 504.201V503.361C1480.5 502.433 1479.72 501.681 1478.75 501.681C1477.78 501.681 1477 502.433 1477 503.361V504.201C1477 504.665 1476.61 505.041 1476.12 505.041H1475.25C1474.9 505.04 1474.58 505.245 1474.44 505.559C1474.3 505.873 1474.38 506.235 1474.63 506.475L1478.13 509.835Z" fill="white"/>
<path d="M1484 511.76C1485.45 511.76 1486.62 512.888 1486.62 514.279V539.479C1486.62 540.871 1485.45 542 1484 542H1456C1454.55 542 1453.38 540.871 1453.38 539.479V514.279C1453.38 512.888 1454.55 511.76 1456 511.76H1484ZM1462.12 523.52C1459.23 523.52 1456.88 525.776 1456.88 528.56V531.08C1456.88 531.544 1457.27 531.92 1457.75 531.92H1458.38C1458.82 531.917 1459.2 532.233 1459.25 532.655L1459.94 537.905C1459.99 538.327 1460.37 538.643 1460.81 538.64H1463.42C1463.87 538.643 1464.24 538.327 1464.3 537.905L1464.98 532.655C1465.04 532.233 1465.41 531.917 1465.86 531.92H1466.5C1466.98 531.92 1467.37 531.544 1467.38 531.08V528.56C1467.37 525.776 1465.02 523.52 1462.12 523.52ZM1477.88 523.52C1474.98 523.52 1472.63 525.776 1472.62 528.56V531.08C1472.63 531.544 1473.02 531.92 1473.5 531.92H1474.11C1474.56 531.917 1474.93 532.233 1474.99 532.655L1475.67 537.905C1475.73 538.327 1476.11 538.643 1476.55 538.64H1479.17C1479.62 538.643 1479.99 538.327 1480.05 537.905L1480.73 532.655C1480.79 532.233 1481.16 531.917 1481.61 531.92H1482.25C1482.73 531.92 1483.12 531.544 1483.12 531.08V528.56C1483.12 525.776 1480.77 523.52 1477.88 523.52ZM1462.12 514.279C1459.95 514.282 1458.19 515.973 1458.19 518.06C1458.19 520.147 1459.95 521.84 1462.12 521.84C1464.3 521.84 1466.06 520.147 1466.06 518.06C1466.06 515.972 1464.3 514.279 1462.12 514.279ZM1477.88 514.279C1475.7 514.282 1473.94 515.973 1473.94 518.06C1473.94 520.147 1475.7 521.84 1477.88 521.84C1480.05 521.84 1481.81 520.147 1481.81 518.06C1481.81 515.972 1480.05 514.279 1477.88 514.279Z" fill="white"/>
</svg>
