<svg version="1.2" xmlns="http://www.w3.org/2000/svg" viewBox="0 0 2475 1462" width="2475" height="1462"><defs><clipPath clipPathUnits="userSpaceOnUse" id="cp1"><path d="m893.67 668.69v81.96h-87.98v-47.13h-39.55v-34.83z"/></clipPath></defs><style>.a{fill:#b3c5d6}.b{fill:none;stroke:#8fa9c0;stroke-width:2}.c{fill:#dde5ed}.d{fill:#2d2d2d}.e{fill:#fff}.f{fill:none;stroke:#fff;stroke-width:3}.g{fill:none;stroke:#cdcdcd;stroke-width:3}.h{fill:#dde5ed;stroke:#b3c5d6;stroke-width:2}</style><path class="a" d="m669.3 767.6h223.4v-101.8h-125.6v-68h103l-12.5-19.6 24.9-15.3-10.1-15.2v-67.8h-30.6v-61.1c-7 5.8-22.2 24.7-27.7 54-6.9 36.7-59.1 66.9-101.8 97.8-14.6 10.5-30.2 29.4-43.3 49.2-23 35-28.4 77.4-28.4 119.3h28.7z"/><path class="b" d="m841.8 418.8c-7 5.8-22.2 24.7-27.7 54-6.9 36.7-59.1 66.9-101.8 97.8-14.6 10.5-30.2 29.4-43.3 49.2-23 35-28.4 77.4-28.4 119.3h28.7v28.5h223.4v-101.8m-50.9-247v61.1h30.6v67.8l10.1 15.2m-40.7-144.1h48.4m2.5 159.4l-10.2-15.3m0 0l-24.9 15.3 12.5 19.6m0 0h-103v68h125.6m-10.2-48.4l-12.4-19.6m22.6 68v-13.2"/><path class="c" d="m893.7 668.7v81.9h-88v-47.1h-39.6v-34.8z"/><g clip-path="url(#cp1)"><path class="a" d="m893.7 668.7h2v-2h-2zm0 81.9v2h2v-2zm-88 0h-2v2h2zm0-47.1h2v-2h-2zm-39.6 0h-2v2h2zm0-34.8v-2h-2v2zm127.6 0h-2v81.9h2 2v-81.9zm0 81.9v-2h-88v2 2h88zm-88 0h2v-47.1h-2-2v47.1zm0-47.1v-2h-39.6v2 2h39.6zm-39.6 0h2v-34.8h-2-2v34.8zm0-34.8v2h127.6v-2-2h-127.6z"/></g><path fill-rule="evenodd" class="d" d="m853.2 503.8h58c1.1 0 2 0.9 2 2v58c0 1.1-0.9 2-2 2h-58c-1.1 0-2-0.9-2-2v-58c0-1.1 0.9-2 2-2z"/><path class="e" d="m869.9 520.5h0.9c0.5 0 0.9 0.4 0.9 0.8v0.9c0 0.9 0.7 1.7 1.7 1.7 1 0 1.8-0.8 1.8-1.7v-0.9c0-0.4 0.3-0.8 0.8-0.8h0.9c0.4 0 0.7-0.2 0.8-0.5 0.2-0.3 0.1-0.7-0.2-0.9l-3.5-3.4q-0.2-0.2-0.6-0.2-0.4 0-0.6 0.2l-3.5 3.4c-0.3 0.2-0.3 0.6-0.2 0.9 0.1 0.3 0.5 0.5 0.8 0.5z"/><path class="e" d="m890.3 523.6q0.2 0.3 0.6 0.3 0.4 0 0.6-0.3l3.5-3.4c0.3-0.2 0.4-0.6 0.2-0.9-0.1-0.3-0.4-0.5-0.8-0.5h-0.9c-0.4 0-0.8-0.4-0.8-0.8v-0.9c0-0.9-0.8-1.6-1.8-1.6-1 0-1.7 0.7-1.7 1.6v0.9c0 0.4-0.4 0.8-0.9 0.8h-0.9c-0.3 0-0.7 0.2-0.8 0.5-0.1 0.3-0.1 0.7 0.2 0.9z"/><path class="e" d="m896.2 525.5c1.4 0 2.6 1.2 2.6 2.6v25.2c0 1.3-1.2 2.5-2.6 2.5h-28c-1.5 0-2.7-1.2-2.7-2.5v-25.2c0-1.4 1.2-2.6 2.7-2.6zm-21.9 11.8c-2.9 0-5.3 2.2-5.3 5v2.6c0 0.4 0.4 0.8 0.9 0.8h0.6c0.5 0 0.9 0.3 0.9 0.7l0.7 5.3c0.1 0.4 0.4 0.7 0.9 0.7h2.6c0.4 0 0.8-0.3 0.9-0.7l0.6-5.3c0.1-0.4 0.5-0.7 0.9-0.7h0.7c0.4 0 0.8-0.4 0.8-0.8v-2.6c0-2.8-2.3-5-5.2-5zm15.7 0c-2.9 0-5.2 2.2-5.2 5v2.6c0 0.4 0.4 0.8 0.9 0.8h0.6c0.4 0 0.8 0.3 0.8 0.7l0.7 5.3c0.1 0.4 0.5 0.7 0.9 0.7h2.6c0.5 0 0.9-0.3 0.9-0.7l0.7-5.3c0-0.4 0.4-0.7 0.9-0.7h0.6c0.5 0 0.9-0.4 0.9-0.8v-2.6c0-2.8-2.4-5-5.3-5zm-15.7-9.2c-2.2 0-4 1.6-4 3.7 0 2.1 1.8 3.8 4 3.8 2.2 0 3.9-1.7 3.9-3.8 0-2.1-1.7-3.7-3.9-3.7zm15.7 0c-2.1 0-3.9 1.6-3.9 3.7 0 2.1 1.8 3.8 3.9 3.8 2.2 0 4-1.7 4-3.8 0-2.1-1.8-3.7-4-3.7z"/><path class="f" d="m480 585.2v-63.9"/><path fill-rule="evenodd" class="d" d="m802.7 699.7h58c1.1 0 2 0.9 2 2v58c0 1.1-0.9 2-2 2h-58c-1.1 0-2-0.9-2-2v-58c0-1.1 0.9-2 2-2z"/><path class="e" d="m852.7 721.9c0-0.9-0.7-1.7-1.7-1.7h-11.4c-1.4 0-2.6 1.2-2.6 2.6v3.5c0 0.5-0.4 0.9-0.9 0.9h-3.5c-1.4 0-2.6 1.2-2.6 2.6v3.5c0 0.5-0.4 0.9-0.9 0.9h-3.5c-1.4 0-2.6 1.2-2.6 2.6v3.5c0 0.5-0.4 0.9-0.9 0.9h-3.5c-1.4 0-2.6 1.2-2.6 2.6v6.1c0 1 0.8 1.8 1.7 1.8h33.3c1 0 1.7-0.8 1.7-1.8z"/><path class="e" d="m831.6 719.9c0.2 0.3 0.6 0.3 0.9 0.2 0.3-0.1 0.6-0.4 0.6-0.8v-8.7c0-0.5-0.4-0.9-0.9-0.9h-8.8c-0.3 0-0.6 0.2-0.8 0.5-0.1 0.3 0 0.7 0.2 1l1.9 1.9q0.3 0.2 0.3 0.6 0 0.4-0.3 0.6l-13.2 13.2c-1 1-1 2.7 0 3.7 1 1 2.7 1 3.7 0l13.2-13.2q0.3-0.2 0.6-0.2 0.4 0 0.7 0.2z"/><path class="g" d="m480.4 702.7h232.4"/><path class="g" d="m745.4 702.7h133.4m-95.5-377.8h78.5"/><path class="g" d="m542.7 740.2h137.4"/><path class="g" d="m822.5 766.6h-288.7v-9"/>
<rect x="525.92" y="1011.53" width="9.88568" height="28.9857" fill="#8FA9C0"/>
<rect x="525.92" y="930.564" width="9.88568" height="28.9857" fill="#8FA9C0"/>
<rect x="525.92" y="845.604" width="9.88568" height="28.9857" fill="#8FA9C0"/>
<path d="M785.914 1075.49V1085.49H576.339V1104.48H566.453V1075.49H785.914Z" fill="#8FA9C0"/>
<path d="M785.914 1059.5V1049.51H576.339V1030.52H566.453V1059.5H785.914Z" fill="#8FA9C0"/>
<path d="M785.914 993.533V1003.53H576.339V1022.52H566.453V993.533H785.914Z" fill="#8FA9C0"/>
<path d="M785.914 977.541V967.546H576.339V948.556H566.453V977.541H785.914Z" fill="#8FA9C0"/>
<path d="M785.914 911.58V921.575H576.339V940.565H566.453V911.58H785.914Z" fill="#8FA9C0"/>
<path d="M785.914 809.619V799.624H576.339V780.633H566.453V809.619H785.914Z" fill="#8FA9C0"/>
<path d="M785.914 893.588V883.593H576.339V864.603H566.453V893.588H785.914Z" fill="#8FA9C0"/>
<path d="M785.914 827.611V837.606H576.339V856.597H566.453V827.611H785.914Z" fill="#8FA9C0"/>
<rect x="720.68" y="1072.49" width="28.6456" height="15.9911" rx="1" fill="#DDE5ED" stroke="#B3C5D6" stroke-width="2"/>
<rect x="720.68" y="1046.51" width="28.6456" height="15.9911" rx="1" fill="#DDE5ED" stroke="#B3C5D6" stroke-width="2"/>
<rect x="720.68" y="990.533" width="28.6456" height="15.9911" rx="1" fill="#DDE5ED" stroke="#B3C5D6" stroke-width="2"/>
<rect x="720.68" y="964.549" width="28.6456" height="15.9911" rx="1" fill="#DDE5ED" stroke="#B3C5D6" stroke-width="2"/>
<rect x="720.68" y="908.58" width="28.6456" height="15.9911" rx="1" fill="#DDE5ED" stroke="#B3C5D6" stroke-width="2"/>
<rect x="720.68" y="880.588" width="28.6456" height="15.9911" rx="1" fill="#DDE5ED" stroke="#B3C5D6" stroke-width="2"/>
<rect x="720.68" y="824.619" width="28.6456" height="15.9911" rx="1" fill="#DDE5ED" stroke="#B3C5D6" stroke-width="2"/>
<rect x="720.68" y="796.63" width="28.6456" height="15.9911" rx="1" fill="#DDE5ED" stroke="#B3C5D6" stroke-width="2"/>
<rect x="1439" y="490" width="62" height="62" rx="2" fill="#2D2D2D"/>
<path d="M1457.75 506.72H1458.62C1459.11 506.72 1459.5 507.096 1459.5 507.56V508.4C1459.5 509.328 1460.28 510.08 1461.25 510.08C1462.22 510.08 1463 509.328 1463 508.4V507.56C1463 507.096 1463.39 506.72 1463.87 506.72H1464.75C1465.1 506.721 1465.42 506.516 1465.56 506.202C1465.7 505.888 1465.62 505.526 1465.37 505.285L1461.87 501.925C1461.7 501.768 1461.48 501.679 1461.25 501.679C1461.02 501.679 1460.79 501.768 1460.63 501.925L1457.13 505.285C1456.88 505.526 1456.8 505.888 1456.94 506.202C1457.08 506.516 1457.4 506.721 1457.75 506.72Z" fill="white"/>
<path d="M1478.13 509.835C1478.29 509.993 1478.52 510.082 1478.75 510.082C1478.98 510.082 1479.2 509.993 1479.37 509.835L1482.87 506.475C1483.12 506.235 1483.2 505.873 1483.06 505.559C1482.92 505.245 1482.6 505.04 1482.25 505.041H1481.37C1480.89 505.041 1480.5 504.665 1480.5 504.201V503.361C1480.5 502.433 1479.72 501.681 1478.75 501.681C1477.78 501.681 1477 502.433 1477 503.361V504.201C1477 504.665 1476.61 505.041 1476.12 505.041H1475.25C1474.9 505.04 1474.58 505.245 1474.44 505.559C1474.3 505.873 1474.38 506.235 1474.63 506.475L1478.13 509.835Z" fill="white"/>
<path d="M1484 511.76C1485.45 511.76 1486.62 512.888 1486.62 514.279V539.479C1486.62 540.871 1485.45 542 1484 542H1456C1454.55 542 1453.38 540.871 1453.38 539.479V514.279C1453.38 512.888 1454.55 511.76 1456 511.76H1484ZM1462.12 523.52C1459.23 523.52 1456.88 525.776 1456.88 528.56V531.08C1456.88 531.544 1457.27 531.92 1457.75 531.92H1458.38C1458.82 531.917 1459.2 532.233 1459.25 532.655L1459.94 537.905C1459.99 538.327 1460.37 538.643 1460.81 538.64H1463.42C1463.87 538.643 1464.24 538.327 1464.3 537.905L1464.98 532.655C1465.04 532.233 1465.41 531.917 1465.86 531.92H1466.5C1466.98 531.92 1467.37 531.544 1467.38 531.08V528.56C1467.37 525.776 1465.02 523.52 1462.12 523.52ZM1477.88 523.52C1474.98 523.52 1472.63 525.776 1472.62 528.56V531.08C1472.63 531.544 1473.02 531.92 1473.5 531.92H1474.11C1474.56 531.917 1474.93 532.233 1474.99 532.655L1475.67 537.905C1475.73 538.327 1476.11 538.643 1476.55 538.64H1479.17C1479.62 538.643 1479.99 538.327 1480.05 537.905L1480.73 532.655C1480.79 532.233 1481.16 531.917 1481.61 531.92H1482.25C1482.73 531.92 1483.12 531.544 1483.12 531.08V528.56C1483.12 525.776 1480.77 523.52 1477.88 523.52ZM1462.12 514.279C1459.95 514.282 1458.19 515.973 1458.19 518.06C1458.19 520.147 1459.95 521.84 1462.12 521.84C1464.3 521.84 1466.06 520.147 1466.06 518.06C1466.06 515.972 1464.3 514.279 1462.12 514.279ZM1477.88 514.279C1475.7 514.282 1473.94 515.973 1473.94 518.06C1473.94 520.147 1475.7 521.84 1477.88 521.84C1480.05 521.84 1481.81 520.147 1481.81 518.06C1481.81 515.972 1480.05 514.279 1477.88 514.279Z" fill="white"/>
<path d="M238.287 352.368C242.367 358.85 248.391 363.841 255.479 366.612C262.567 369.382 270.345 369.787 277.676 367.765C285.007 365.744 291.506 361.403 296.221 355.378C300.936 349.352 303.62 341.96 303.88 334.281C304.14 326.603 301.962 319.042 297.665 312.705C293.369 306.368 287.179 301.588 280.001 299.065C272.824 296.541 265.036 296.407 257.778 298.681C250.519 300.955 244.172 305.519 239.663 311.704L251.123 320.242C253.828 316.532 257.637 313.793 261.992 312.429C266.347 311.064 271.019 311.145 275.326 312.659C279.632 314.173 283.346 317.041 285.924 320.843C288.502 324.645 289.809 329.182 289.653 333.789C289.497 338.396 287.887 342.832 285.058 346.447C282.229 350.062 278.329 352.666 273.931 353.879C269.532 355.092 264.865 354.85 260.612 353.187C256.36 351.525 252.745 348.53 250.297 344.641L238.287 352.368Z" fill="#D9D9D9"/>
<path d="M238.147 352.199C242.21 358.691 248.222 363.699 255.302 366.488C262.383 369.277 270.16 369.702 277.496 367.699C284.833 365.697 291.343 361.373 296.073 355.361C300.804 349.348 303.507 341.962 303.786 334.285C304.066 326.607 301.907 319.04 297.627 312.692C293.347 306.344 287.169 301.548 279.998 299.005C272.827 296.463 265.04 296.308 257.776 298.563C250.511 300.818 244.152 305.365 239.628 311.538L241.383 312.853C245.63 307.059 251.599 302.792 258.417 300.675C265.235 298.558 272.545 298.703 279.275 301.09C286.006 303.476 291.804 307.978 295.822 313.936C299.84 319.895 301.866 326.997 301.603 334.203C301.341 341.41 298.804 348.342 294.363 353.986C289.923 359.629 283.813 363.688 276.927 365.567C270.041 367.446 262.741 367.048 256.095 364.43C249.449 361.812 243.807 357.112 239.993 351.018L238.147 352.199Z" fill="#B3C5D6"/>
<ellipse cx="236.588" cy="293.982" rx="35.5885" ry="35.9823" fill="#D9D9D9"/>
<path d="M495.346 741V722.274H499.333V737.826H507.775V741H495.346ZM512.219 731.567C512.219 733.844 512.621 735.575 513.425 736.76C514.229 737.936 515.406 738.524 516.955 738.524C518.512 738.524 519.693 737.936 520.497 736.76C521.301 735.575 521.703 733.844 521.703 731.567C521.703 729.333 521.296 727.632 520.484 726.464C519.671 725.287 518.495 724.699 516.955 724.699C515.423 724.699 514.251 725.287 513.438 726.464C512.626 727.64 512.219 729.341 512.219 731.567ZM508.03 731.542C508.03 728.588 508.83 726.261 510.429 724.56C512.037 722.85 514.221 721.995 516.98 721.995C519.731 721.995 521.902 722.85 523.493 724.56C525.092 726.261 525.892 728.588 525.892 731.542C525.892 734.597 525.105 736.993 523.531 738.728C521.957 740.454 519.773 741.317 516.98 741.317C514.179 741.317 511.987 740.454 510.404 738.728C508.821 737.001 508.03 734.606 508.03 731.542ZM527.848 722.274H531.835V734.081C531.835 735.469 532.177 736.506 532.863 737.191C533.557 737.877 534.606 738.22 536.011 738.22C537.408 738.22 538.432 737.873 539.084 737.179C539.744 736.476 540.074 735.384 540.074 733.903V722.274H543.921V733.802C543.921 736.324 543.256 738.203 541.927 739.438C540.607 740.674 538.593 741.292 535.884 741.292C533.151 741.292 531.128 740.683 529.816 739.464C528.504 738.237 527.848 736.349 527.848 733.802V722.274ZM546.41 741V722.274H552.186L559.232 737.331V722.274H562.825V741H557.277L550.003 725.499V741H546.41ZM581.945 731.021V739.781C580.912 740.298 579.804 740.683 578.619 740.937C577.434 741.19 576.122 741.317 574.683 741.317C571.518 741.317 569.072 740.501 567.345 738.867C565.619 737.225 564.756 734.902 564.756 731.897C564.756 728.791 565.623 726.362 567.358 724.61C569.093 722.85 571.501 721.97 574.582 721.97C576.858 721.97 578.661 722.49 579.99 723.531C581.327 724.572 581.996 725.965 581.996 727.708V728.051H578.225C578.174 726.9 577.819 726.024 577.159 725.423C576.499 724.822 575.563 724.521 574.353 724.521C572.652 724.521 571.306 725.169 570.316 726.464C569.334 727.759 568.843 729.528 568.843 731.771C568.843 733.971 569.36 735.638 570.392 736.772C571.433 737.907 572.961 738.474 574.975 738.474C575.5 738.474 576.016 738.444 576.524 738.385C577.04 738.317 577.544 738.22 578.035 738.093L578.048 734.005H574.48V731.021H581.945ZM584.396 741V722.274H596.825V725.372H588.459V729.79H596.304V732.837H588.459V737.877H597.117V741H584.396ZM603.403 741L610.195 722.274H614.918L621.443 741H617.368L616.035 736.976H608.634L607.174 741H603.403ZM609.649 733.903H615.057L612.48 725.969L609.649 733.903ZM637.301 735.389C637.165 737.318 636.446 738.791 635.142 739.807C633.839 740.814 632.011 741.317 629.658 741.317C626.865 741.317 624.749 740.505 623.31 738.88C621.872 737.255 621.152 734.868 621.152 731.72C621.152 728.58 621.893 726.172 623.374 724.496C624.855 722.812 626.975 721.97 629.734 721.97C631.986 721.97 633.767 722.478 635.079 723.493C636.399 724.5 637.106 725.897 637.199 727.683H633.505C633.462 726.785 633.115 726.07 632.464 725.537C631.812 724.995 630.953 724.725 629.887 724.725C628.329 724.725 627.153 725.309 626.357 726.477C625.57 727.636 625.177 729.358 625.177 731.644C625.177 733.996 625.566 735.744 626.345 736.887C627.123 738.021 628.312 738.588 629.912 738.588C630.945 738.588 631.787 738.296 632.438 737.712C633.098 737.128 633.462 736.354 633.53 735.389H637.301ZM654.39 735.389C654.254 737.318 653.535 738.791 652.231 739.807C650.928 740.814 649.1 741.317 646.747 741.317C643.954 741.317 641.838 740.505 640.399 738.88C638.96 737.255 638.241 734.868 638.241 731.72C638.241 728.58 638.982 726.172 640.463 724.496C641.944 722.812 644.064 721.97 646.823 721.97C649.074 721.97 650.856 722.478 652.168 723.493C653.488 724.5 654.195 725.897 654.288 727.683H650.594C650.551 726.785 650.204 726.07 649.553 725.537C648.901 724.995 648.042 724.725 646.975 724.725C645.418 724.725 644.242 725.309 643.446 726.477C642.659 727.636 642.266 729.358 642.266 731.644C642.266 733.996 642.655 735.744 643.433 736.887C644.212 738.021 645.401 738.588 647.001 738.588C648.033 738.588 648.876 738.296 649.527 737.712C650.187 737.128 650.551 736.354 650.619 735.389H654.39ZM656.054 741V722.274H668.482V725.372H660.116V729.79H667.962V732.837H660.116V737.877H668.774V741H656.054ZM669.88 734.919H673.803C673.803 736.163 674.107 737.098 674.717 737.725C675.335 738.351 676.261 738.664 677.497 738.664C678.487 738.664 679.291 738.423 679.909 737.94C680.535 737.45 680.849 736.832 680.849 736.087C680.849 734.91 679.38 733.823 676.443 732.824C676.249 732.757 676.109 732.71 676.024 732.685C675.931 732.651 675.804 732.608 675.644 732.558C674.002 732.016 672.817 731.474 672.089 730.933C671.564 730.543 671.158 730.048 670.87 729.447C670.591 728.838 670.451 728.165 670.451 727.429C670.451 725.744 671.086 724.411 672.355 723.43C673.633 722.439 675.373 721.944 677.573 721.944C679.63 721.944 681.221 722.423 682.347 723.379C683.481 724.335 684.048 725.677 684.048 727.403V727.505H680.569C680.485 726.532 680.163 725.791 679.604 725.283C679.054 724.775 678.293 724.521 677.319 724.521C676.38 724.521 675.631 724.737 675.072 725.169C674.522 725.601 674.247 726.18 674.247 726.908C674.247 728.042 675.787 729.109 678.868 730.107C678.978 730.141 679.059 730.167 679.109 730.184C681.462 730.962 683.007 731.741 683.743 732.52C684.488 733.298 684.86 734.373 684.86 735.744C684.86 737.488 684.192 738.854 682.854 739.845C681.526 740.826 679.672 741.317 677.294 741.317C674.823 741.317 672.969 740.805 671.733 739.781C670.498 738.757 669.88 737.221 669.88 735.173V734.919ZM685.953 734.919H689.876C689.876 736.163 690.181 737.098 690.79 737.725C691.408 738.351 692.335 738.664 693.57 738.664C694.561 738.664 695.365 738.423 695.982 737.94C696.609 737.45 696.922 736.832 696.922 736.087C696.922 734.91 695.453 733.823 692.517 732.824C692.322 732.757 692.182 732.71 692.098 732.685C692.005 732.651 691.878 732.608 691.717 732.558C690.075 732.016 688.89 731.474 688.162 730.933C687.637 730.543 687.231 730.048 686.943 729.447C686.664 728.838 686.524 728.165 686.524 727.429C686.524 725.744 687.159 724.411 688.429 723.43C689.707 722.439 691.446 721.944 693.646 721.944C695.703 721.944 697.294 722.423 698.42 723.379C699.554 724.335 700.121 725.677 700.121 727.403V727.505H696.643C696.558 726.532 696.236 725.791 695.678 725.283C695.128 724.775 694.366 724.521 693.393 724.521C692.453 724.521 691.704 724.737 691.146 725.169C690.595 725.601 690.32 726.18 690.32 726.908C690.32 728.042 691.861 729.109 694.941 730.107C695.051 730.141 695.132 730.167 695.183 730.184C697.535 730.962 699.08 731.741 699.816 732.52C700.561 733.298 700.934 734.373 700.934 735.744C700.934 737.488 700.265 738.854 698.928 739.845C697.599 740.826 695.745 741.317 693.367 741.317C690.896 741.317 689.042 740.805 687.807 739.781C686.571 738.757 685.953 737.221 685.953 735.173V734.919Z" fill="#5B5B5B"/>
<path d="M752.707 732.707C753.098 732.317 753.098 731.683 752.707 731.293L746.343 724.929C745.953 724.538 745.319 724.538 744.929 724.929C744.538 725.319 744.538 725.953 744.929 726.343L750.586 732L744.929 737.657C744.538 738.047 744.538 738.681 744.929 739.071C745.319 739.462 745.953 739.462 746.343 739.071L752.707 732.707ZM720 732L720 733L752 733L752 732L752 731L720 731L720 732Z" fill="#2D2D2D"/>
</svg>