<svg version="1.2" xmlns="http://www.w3.org/2000/svg" viewBox="0 0 2650 1469" width="2650" height="1469"><style>.a{fill:none;stroke:#00a930;stroke-width:2.3}.b{fill:#00a930}</style><path class="a" d="m1320.3 286.1v231.4l-29.8 52.3"/><path class="b" d="m1287.7 562.7l9.9 5.7c1.4 0.8 1.3 2.8-0.2 3.5l-9.2 4.4c-1.3 0.6-2.7-0.3-2.8-1.7l-0.7-10.1c-0.1-1.5 1.6-2.6 3-1.8z"/><path class="b" d="m1825.7 479.2h11.4c1.6 0 2.6 1.8 1.6 3.1l-5.8 8.4c-0.8 1.2-2.5 1.2-3.2 0l-5.6-8.4c-0.9-1.3 0-3.1 1.6-3.1z"/><path class="b" d="m2033.7 479.2h11.4c1.6 0 2.6 1.8 1.7 3.1l-5.8 8.4c-0.8 1.2-2.5 1.2-3.3 0l-5.6-8.4c-0.9-1.3 0.1-3.1 1.6-3.1z"/><path class="b" d="m2272.6 479.2h11.4c1.6 0 2.6 1.8 1.7 3.1l-5.8 8.4c-0.8 1.2-2.5 1.2-3.3 0l-5.6-8.4c-0.9-1.3 0-3.1 1.6-3.1z"/><path class="a" d="m1831.9 432.4v51.3m0-51.3h-335.9m335.9 0h207.6m0 0h238.9v51.3m-238.9-51.3v51.3"/><path class="a" d="m1606 1419.8v-292.6l-255.3-255.3-40.3-40.3 184.1-184.2v-310-36.4"/><path class="b" d="m1499.8 305h-11.4c-1.7 0-2.6-1.8-1.7-3.1l5.8-8.4c0.8-1.2 2.5-1.1 3.3 0l5.6 8.4c0.9 1.4-0.1 3.1-1.6 3.1z"/><path class="a" d="m1699.3 742.8l-179.9-207.3-24.2-26.8"/><path class="b" d="m1692.4 744.9l8.7-7.4c1.2-1.1 3.1-0.3 3.3 1.3l1 10.2c0.2 1.3-1.1 2.5-2.5 2.1l-9.7-2.8c-1.5-0.4-2-2.4-0.8-3.4z"/><path class="b" d="m683.5 101h-11.4c-1.6 0-2.5-1.8-1.6-3.2l5.8-8.4c0.8-1.1 2.5-1.1 3.3 0.1l5.6 8.4c0.9 1.3-0.1 3.1-1.7 3.1z"/><path class="a" d="m677.3 184.6v-87.6"/><path class="b" d="m1619.2 101h-11.4c-1.6 0-2.6-1.8-1.6-3.2l5.8-8.4c0.8-1.1 2.5-1.1 3.3 0.1l5.6 8.4c0.8 1.3-0.1 3.1-1.7 3.1z"/><path class="a" d="m1613 184.6v-87.6"/><path class="b" d="m115.9 362.5v11.4c0 1.6-1.8 2.5-3.1 1.6l-8.4-5.8c-1.2-0.8-1.1-2.5 0-3.3l8.4-5.6c1.3-0.8 3.1 0.1 3.1 1.7z"/><path class="a" d="m199.5 368.7h-87.6"/><path class="b" d="m115.9 636.2v11.4c0 1.6-1.8 2.6-3.1 1.7l-8.4-5.8c-1.2-0.8-1.1-2.6 0-3.3l8.4-5.6c1.3-0.9 3.1 0 3.1 1.6z"/><path class="a" d="m199.5 642.5h-87.6"/><path class="b" d="m115.9 913.9v11.4c0 1.6-1.8 2.6-3.1 1.7l-8.4-5.8c-1.2-0.8-1.1-2.5 0-3.3l8.4-5.6c1.3-0.9 3.1 0 3.1 1.6z"/><path class="a" d="m199.5 920.2h-87.6"/><path class="b" d="m117.9 1181.7v11.4c0 1.6-1.8 2.5-3.1 1.6l-8.4-5.8c-1.2-0.8-1.2-2.5 0-3.3l8.4-5.6c1.3-0.9 3.1 0.1 3.1 1.7z"/><path class="a" d="m201.5 1187.9h-87.6"/><path class="b" d="m1451 101h-11.4c-1.6 0-2.6-1.8-1.7-3.2l5.8-8.4c0.8-1.1 2.6-1.1 3.3 0.1l5.6 8.4c0.9 1.3 0 3.1-1.6 3.1z"/><path class="a" d="m1444.7 184.6v-87.6"/></svg>