<svg width="2475" height="1469" viewBox="0 0 2475 1469" fill="none" xmlns="http://www.w3.org/2000/svg">
<g clip-path="url(#clip0_821_37464)">
<rect x="429" y="730" width="62" height="62" rx="2" fill="#2D2D2D"/>
<path d="M447.749 743.055C450.828 743.055 453.545 745.067 454.444 748.012C455.343 750.957 454.211 754.143 451.656 755.862C451.433 756.012 451.291 756.256 451.271 756.524C451.251 756.793 451.356 757.055 451.555 757.236C452.291 757.904 452.834 758.757 453.13 759.705L456.46 770.364C456.543 770.63 456.495 770.919 456.33 771.144C456.165 771.368 455.904 771.5 455.626 771.5H453.247C452.803 771.497 452.427 771.826 452.372 772.267L451.251 781.235C451.195 781.675 450.819 782.003 450.376 782H445.126C444.682 782.004 444.306 781.675 444.251 781.235L443.142 772.267C443.087 771.826 442.711 771.497 442.267 771.5H439.876C439.598 771.499 439.337 771.367 439.173 771.143C439.008 770.918 438.96 770.63 439.043 770.364L442.368 759.705C442.664 758.757 443.207 757.904 443.942 757.236C444.141 757.055 444.246 756.793 444.226 756.524C444.206 756.256 444.064 756.012 443.84 755.862C441.286 754.143 440.155 750.957 441.053 748.012C441.952 745.067 444.67 743.055 447.749 743.055ZM448.341 748.479C448.007 748.174 447.495 748.174 447.161 748.479C446.484 749.093 445.709 749.591 444.87 749.953C444.473 750.127 444.263 750.565 444.377 750.983C444.788 752.505 446.168 753.562 447.744 753.562C449.319 753.561 450.699 752.504 451.11 750.983C451.224 750.565 451.014 750.127 450.617 749.953C449.783 749.59 449.014 749.093 448.341 748.479Z" fill="white"/>
<path d="M460 740C459.034 740 458.25 740.784 458.25 741.75V780.25C458.25 781.216 459.034 782 460 782C460.966 782 461.75 781.216 461.75 780.25V741.75C461.75 740.784 460.966 740 460 740Z" fill="white"/>
<path d="M472.25 743.022C475.235 743.022 477.892 744.916 478.866 747.738C479.84 750.56 478.919 753.689 476.569 755.531C476.341 755.71 476.217 755.99 476.236 756.279C476.256 756.568 476.417 756.828 476.667 756.975C479.347 758.533 480.997 761.399 481 764.5V768.875C481 769.358 480.608 769.75 480.125 769.75H477.77C477.32 769.747 476.942 770.086 476.895 770.532L475.75 781.22C475.701 781.666 475.324 782.003 474.875 782H469.625C469.176 782.003 468.799 781.666 468.75 781.22L467.616 770.532C467.569 770.086 467.19 769.748 466.741 769.75H464.375C463.892 769.75 463.5 769.358 463.5 768.875V764.5C463.503 761.399 465.153 758.533 467.833 756.975C468.083 756.828 468.244 756.568 468.264 756.279C468.283 755.99 468.159 755.71 467.931 755.531C465.581 753.689 464.66 750.56 465.634 747.738C466.608 744.916 469.265 743.022 472.25 743.022ZM470.066 748.697C469.828 748.585 469.55 748.586 469.312 748.701C469.075 748.816 468.901 749.032 468.841 749.289C468.78 749.542 468.75 749.802 468.75 750.062C468.75 751.995 470.317 753.562 472.25 753.562C474.183 753.562 475.75 751.995 475.75 750.062C475.752 749.925 475.696 749.793 475.596 749.698C475.492 749.605 475.354 749.56 475.216 749.574C474.911 749.607 474.605 749.624 474.299 749.625C472.837 749.626 471.393 749.309 470.066 748.697Z" fill="white"/>

</g>

</svg>
