<svg width="2650" height="1469" viewBox="0 0 2650 1469" fill="none" xmlns="http://www.w3.org/2000/svg">
<path d="M913 1147V1194H987V1147" stroke="#8fa9c0" stroke-width="4"/>
<path d="M915 1147H985.849L986 1192H915V1147Z" fill="#C4D3E8"/>
<rect x="913" y="459" width="62" height="62" rx="2" fill="#2D2D2D"/>
<path d="M931.75 475.72H932.625C933.108 475.72 933.5 476.096 933.5 476.56V477.4C933.5 478.328 934.283 479.08 935.25 479.08C936.216 479.08 937 478.328 937 477.4V476.56C937 476.096 937.391 475.72 937.875 475.72H938.75C939.104 475.721 939.424 475.516 939.56 475.202C939.695 474.888 939.62 474.526 939.369 474.285L935.869 470.925C935.705 470.768 935.482 470.679 935.25 470.679C935.017 470.679 934.794 470.768 934.63 470.925L931.13 474.285C930.879 474.526 930.804 474.888 930.94 475.202C931.075 475.516 931.395 475.721 931.75 475.72Z" fill="white"/>
<path d="M952.13 478.835C952.294 478.993 952.517 479.082 952.75 479.082C952.982 479.082 953.205 478.993 953.369 478.835L956.869 475.475C957.12 475.235 957.195 474.873 957.06 474.559C956.924 474.245 956.604 474.04 956.25 474.041H955.375C954.891 474.041 954.5 473.665 954.5 473.201V472.361C954.5 471.433 953.716 470.681 952.75 470.681C951.783 470.681 951 471.433 951 472.361V473.201C951 473.665 950.608 474.041 950.125 474.041H949.25C948.895 474.04 948.575 474.245 948.44 474.559C948.304 474.873 948.379 475.235 948.63 475.475L952.13 478.835Z" fill="white"/>
<path d="M958 480.76C959.45 480.76 960.625 481.888 960.625 483.279V508.479C960.625 509.871 959.45 511 958 511H930C928.55 511 927.375 509.871 927.375 508.479V483.279C927.375 481.888 928.55 480.76 930 480.76H958ZM936.125 492.52C933.226 492.52 930.875 494.776 930.875 497.56V500.08C930.875 500.544 931.267 500.92 931.75 500.92H932.378C932.822 500.917 933.198 501.233 933.253 501.655L933.938 506.905C933.993 507.327 934.369 507.643 934.812 507.64H937.424C937.867 507.643 938.243 507.327 938.299 506.905L938.982 501.655C939.038 501.233 939.414 500.917 939.857 500.92H940.5C940.983 500.92 941.375 500.544 941.375 500.08V497.56C941.375 494.776 939.024 492.52 936.125 492.52ZM951.875 492.52C948.976 492.52 946.625 494.776 946.625 497.56V500.08C946.625 500.544 947.017 500.92 947.5 500.92H948.114C948.558 500.917 948.934 501.233 948.989 501.655L949.674 506.905C949.73 507.327 950.106 507.643 950.549 507.64H953.174C953.617 507.643 953.993 507.327 954.049 506.905L954.732 501.655C954.788 501.233 955.164 500.917 955.607 500.92H956.25C956.733 500.92 957.125 500.544 957.125 500.08V497.56C957.125 494.776 954.774 492.52 951.875 492.52ZM936.125 483.279C933.952 483.282 932.191 484.973 932.188 487.06C932.188 489.147 933.95 490.84 936.125 490.84C938.3 490.84 940.062 489.147 940.062 487.06C940.062 484.972 938.3 483.279 936.125 483.279ZM951.875 483.279C949.702 483.282 947.941 484.973 947.938 487.06C947.938 489.147 949.7 490.84 951.875 490.84C954.05 490.84 955.812 489.147 955.812 487.06C955.812 484.972 954.05 483.279 951.875 483.279Z" fill="white"/>
<path d="M388 169L436 207.384V376H419.219" stroke="#CDCDCD" stroke-width="2"/>
<path d="M466 287H498V311C498 311.552 497.552 312 497 312H467C466.448 312 466 311.552 466 311V287Z" fill="#B3C5D6"/>
<path d="M470 287H494V307C494 307.552 493.552 308 493 308H471C470.448 308 470 307.552 470 307V287Z" fill="white"/>
<path d="M508 287H540V311C540 311.552 539.552 312 539 312H509C508.448 312 508 311.552 508 311V287Z" fill="#B3C5D6"/>
<path d="M512 287H536V307C536 307.552 535.552 308 535 308H513C512.448 308 512 307.552 512 307V287Z" fill="white"/>
<path d="M549 287H581V311C581 311.552 580.552 312 580 312H550C549.448 312 549 311.552 549 311V287Z" fill="#B3C5D6"/>
<path d="M553 287H577V307C577 307.552 576.552 308 576 308H554C553.448 308 553 307.552 553 307V287Z" fill="white"/>
<path d="M591 287H623V311C623 311.552 622.552 312 622 312H592C591.448 312 591 311.552 591 311V287Z" fill="#B3C5D6"/>
<path d="M595 287H619V307C619 307.552 618.552 308 618 308H596C595.448 308 595 307.552 595 307V287Z" fill="white"/>
<path d="M633 287H665V311C665 311.552 664.552 312 664 312H634C633.448 312 633 311.552 633 311V287Z" fill="#B3C5D6"/>
<path d="M637 287H661V307C661 307.552 660.552 308 660 308H638C637.448 308 637 307.552 637 307V287Z" fill="white"/>
<path d="M438 333H562V403H438C437.448 403 437 402.552 437 402V334C437 333.448 437.448 333 438 333Z" fill="#B3C5D6" stroke="#8FA9C0" stroke-width="2"/>
<rect x="549" y="353" width="62" height="62" rx="2" fill="#2D2D2D"/>
<path d="M601 375.25C601 374.284 600.216 373.5 599.25 373.5H587.875C586.425 373.5 585.25 374.675 585.25 376.125V379.625C585.25 380.108 584.858 380.5 584.375 380.5H580.875C579.425 380.5 578.25 381.675 578.25 383.125V386.625C578.25 387.108 577.858 387.5 577.375 387.5H573.875C572.425 387.5 571.25 388.675 571.25 390.125V393.625C571.25 394.108 570.858 394.5 570.375 394.5H566.875C565.425 394.5 564.25 395.675 564.25 397.125V403.25C564.25 404.216 565.034 405 566 405H599.25C600.216 405 601 404.216 601 403.25V375.25Z" fill="white"/>
<path d="M579.825 373.245C580.076 373.49 580.449 373.562 580.774 373.427C581.098 373.292 581.31 372.976 581.312 372.625V363.875C581.312 363.392 580.921 363 580.437 363H571.687C571.334 363.002 571.017 363.216 570.883 363.543C570.749 363.87 570.825 364.245 571.075 364.494L572.968 366.393C573.133 366.557 573.225 366.78 573.225 367.013C573.225 367.245 573.133 367.468 572.968 367.632L559.768 380.831C558.743 381.856 558.743 383.519 559.768 384.544C560.794 385.57 562.456 385.57 563.482 384.544L576.675 371.344C576.839 371.179 577.062 371.087 577.294 371.087C577.527 371.087 577.75 371.179 577.914 371.344L579.825 373.245Z" fill="white"/>
<rect x="332" y="352" width="60" height="50" rx="1" fill="#B3C5D6" stroke="#8FA9C0" stroke-width="2"/>
<rect x="623" y="352" width="60" height="50" rx="1" fill="#B3C5D6" stroke="#8FA9C0" stroke-width="2"/>
</svg>
