<svg version="1.2" xmlns="http://www.w3.org/2000/svg" viewBox="0 0 2475 1462" width="2475" height="1462"><style>.a{fill:#00a930}.b{fill:none;stroke:#00a930;stroke-width:6.3}</style><path class="a" d="m188.4 891.7v11.4c0 1.6-1.8 2.6-3.1 1.7l-8.4-5.9c-1.2-0.8-1.2-2.5 0-3.3l8.4-5.6c1.4-0.9 3.1 0.1 3.1 1.7z"/><path class="a" d="m188.4 995.7v11.5c0 1.6-1.8 2.5-3.1 1.6l-8.4-5.8c-1.2-0.8-1.2-2.5 0-3.3l8.4-5.7c1.4-0.8 3.1 0.1 3.1 1.7z"/><path class="a" d="m1012.1 743.1l-1.9-2.3-1.1 0.9v1.4zm0 153.6v3h3v-3zm-508.2-0.1h-3v3h3zm0-57h3v-3h-3zm-230.1 0v-3h-3v3zm0 0h-3v57h3 3v-57zm-92 54c-1.7 0-3 1.3-3 3 0 1.6 1.3 3 3 3zm92 107v3h3v-3zm-92-3c-1.7 0-3 1.4-3 3 0 1.7 1.3 3 3 3zm982.6-378.3l-1.9-2.3-152.3 123.8 1.9 2.3 1.9 2.4 152.3-123.8zm-152.3 123.8h-3v153.5h3 3v-153.5zm0 153.5v-3h-508.2v3 3h508.2zm-508.2 0h3v-57.1h-3-3v57.1zm0-57.1v-3h-230.1v3 3h230.1zm-230.1 57v-3h-92v3 3h92zm0 0h-3v104.1h3 3v-104.1zm0 0h3zm0 104.1v-3h-92v3 3h92z"/><path class="a" d="m849.7 1017.7v11.5c0 1.6-1.8 2.5-3.1 1.6l-8.5-5.8c-1.1-0.8-1.1-2.5 0.1-3.3l8.4-5.7c1.3-0.8 3.1 0.1 3.1 1.7z"/><path class="b" d="m1303.9 1162h-214.1v-139h-243.1"/></svg>