<svg version="1.2" xmlns="http://www.w3.org/2000/svg" viewBox="0 0 2650 1469" width="2650" height="1469"><style>.a{fill:none;stroke:#002bff;stroke-width:2.3}.b{fill:#002bff;stroke:#002bff;stroke-width:.4}</style><path class="a" d="m1320.2 281.5v232.2l-30 52.4"/><path class="b" d="m1287.4 559l9.9 5.7c1.4 0.9 1.4 2.9-0.1 3.6l-9.3 4.4c-1.2 0.6-2.7-0.3-2.8-1.7l-0.7-10.1c-0.1-1.6 1.7-2.7 3-1.9z"/><path class="b" d="m1827.3 475.3h11.5c1.6 0 2.5 1.8 1.6 3.1l-5.8 8.4c-0.8 1.2-2.5 1.2-3.3 0l-5.6-8.4c-0.9-1.4 0-3.1 1.6-3.1z"/><path class="b" d="m2036.1 475.3h11.4c1.6 0 2.6 1.8 1.7 3.1l-5.8 8.4c-0.8 1.2-2.6 1.2-3.4 0l-5.6-8.4c-0.9-1.4 0.1-3.1 1.7-3.1z"/><path class="b" d="m2275.8 475.3h11.5c1.6 0 2.5 1.8 1.6 3.1l-5.8 8.4c-0.8 1.2-2.5 1.2-3.3 0l-5.6-8.4c-0.9-1.4 0-3.1 1.6-3.1z"/><path class="a" d="m1833.6 428.3v51.4m0-51.4h-337.1m337.1 0h208.3m0 0h239.7v51.4m-239.7-51.4v51.4"/><path class="a" d="m1606.8 1419.2v-293.7l-256.2-256.2-40.4-40.4 184.8-184.8v-311.2-36.4"/><path class="b" d="m1501.1 300.4h-12.2c-1.6 0-2.6-1.8-1.6-3.1l6.2-8.6c0.8-1.1 2.5-1.1 3.3 0.1l6 8.5c0.9 1.3-0.1 3.1-1.7 3.1z"/><path class="a" d="m1700.5 739.8l-180.6-208-24.2-26.9"/><path class="b" d="m1620 95.7h-12.2c-1.7 0-2.6-1.9-1.6-3.2l6.2-8.5c0.8-1.2 2.4-1.1 3.2 0l6 8.5c0.9 1.4 0 3.2-1.6 3.2z"/><path class="a" d="m1613.8 179.6v-87.9"/><path class="b" d="m2334.2 87.7h-12.2c-1.7 0-2.6-1.9-1.7-3.2l6.3-8.5c0.8-1.1 2.4-1.1 3.2 0l6 8.5c0.9 1.4 0 3.2-1.6 3.2z"/><path class="a" d="m2328 171.6v-87.9"/><path class="b" d="m2226.3 87.7h-12.2c-1.7 0-2.6-1.9-1.6-3.2l6.2-8.5c0.8-1.1 2.4-1.1 3.2 0l6 8.5c1 1.4 0 3.2-1.6 3.2z"/><path class="a" d="m2220.1 171.6v-87.9"/><path class="b" d="m2118.4 87.7h-12.2c-1.6 0-2.6-1.9-1.6-3.2l6.2-8.5c0.8-1.1 2.5-1.1 3.3 0l6 8.5c0.9 1.4-0.1 3.2-1.7 3.2z"/><path class="a" d="m2112.3 171.6v-87.9"/><path class="b" d="m2010.5 87.7h-12.2c-1.6 0-2.5-1.9-1.6-3.2l6.2-8.5c0.8-1.1 2.5-1.1 3.3 0l6 8.5c0.9 1.4 0 3.2-1.7 3.2z"/><path class="a" d="m2004.4 171.6v-87.9"/><path class="b" d="m2440.1 88.7h-12.3c-1.6 0-2.5-1.9-1.6-3.2l6.2-8.5c0.8-1.1 2.5-1.1 3.3 0l6 8.5c0.9 1.4 0 3.2-1.6 3.2z"/><path class="a" d="m2433.9 172.6v-87.9"/></svg>