<svg version="1.2" xmlns="http://www.w3.org/2000/svg" viewBox="0 0 2475 1462" width="2475" height="1462"><style>.a{fill:#002bff;stroke:#002bff;stroke-width:.4}.b{fill:#002bff}</style><path class="a" d="m206.3 642.8v11.3c0 1.7-1.8 2.6-3.2 1.7l-8.4-5.8c-1.1-0.8-1.1-2.5 0.1-3.3l8.4-5.6c1.3-0.9 3.1 0.1 3.1 1.7z"/><path class="a" d="m1225.5 241h-11.4c-1.6 0-2.6-1.8-1.7-3.1l5.8-8.4c0.8-1.2 2.6-1.2 3.3 0l5.6 8.4c0.9 1.3 0 3.1-1.6 3.1z"/><path class="a" d="m1750.9 210.2h-11.4c-1.6 0-2.6-1.8-1.7-3.2l5.8-8.4c0.8-1.1 2.6-1.1 3.3 0.1l5.6 8.4c0.9 1.3 0 3.1-1.6 3.1z"/><path class="a" d="m1936 210.2h-11.4c-1.6 0-2.6-1.8-1.7-3.2l5.8-8.4c0.8-1.1 2.5-1.1 3.3 0.1l5.6 8.4c0.9 1.3-0.1 3.1-1.6 3.1z"/><path class="a" d="m2028.5 210.2h-11.4c-1.6 0-2.5-1.8-1.6-3.2l5.8-8.4c0.8-1.1 2.5-1.1 3.3 0.1l5.6 8.4c0.8 1.3-0.1 3.1-1.7 3.1z"/><path class="a" d="m2125 210.2h-11.4c-1.6 0-2.5-1.8-1.6-3.2l5.8-8.4c0.8-1.1 2.5-1.1 3.3 0.1l5.6 8.4c0.9 1.3-0.1 3.1-1.7 3.1z"/><path class="a" d="m2217.6 210.2h-11.4c-1.6 0-2.6-1.8-1.7-3.2l5.8-8.4c0.8-1.1 2.5-1.1 3.3 0.1l5.6 8.4c0.9 1.3 0 3.1-1.6 3.1z"/><path class="a" d="m207.3 417.9v11.4c0 1.6-1.8 2.5-3.2 1.6l-8.4-5.8c-1.1-0.8-1.1-2.5 0.1-3.3l8.4-5.6c1.3-0.9 3.1 0.1 3.1 1.7z"/><path class="a" d="m486.1 241h-11.4c-1.6 0-2.5-1.8-1.6-3.1l5.8-8.4c0.8-1.2 2.5-1.2 3.3 0l5.6 8.4c0.9 1.3-0.1 3.1-1.7 3.1z"/><path class="b" d="m1015.6 738.8l-1.9-2.3-1.1 0.9v1.4zm0 152.8v3h3v-3zm-505.5-0.1h-3v3h3zm0-56.7h3v-3h-3zm-228.9-0.1h-3v3h3zm-73.9-189.2c-1.7 0-3 1.3-3 3 0 1.6 1.3 3 3 3zm73.9-222.9l2.6 1.4 82.8-145.2-2.6-1.5-2.6-1.5-82.8 145.3zm0 225.9h3v-225.9h-3-3v225.9zm82.8-371.2v-3h-1.7l-0.9 1.5zm0 0v3h116.9v-3-3h-116.9zm119.9-37.8c0-1.6-1.3-3-3-3-1.6 0-3 1.4-3 3zm735.9 37.8v3h0.1 0.2zm3-37.8c0-1.6-1.4-3-3-3-1.7 0-3 1.4-3 3zm219.9 16.9v-3h-0.1-0.2zm0 0v3h302v-3-2.9h-302zm305-47.3c0-1.7-1.3-3-3-3-1.6 0-3 1.3-3 3zm186.1 0c0-1.7-1.3-3-3-3-1.6 0-3 1.3-3 3zm-2.9 47.3v2.9h92.5v-2.9-3h-92.5zm95.5-47.3c0-1.6-1.3-3-3-3-1.6 0-3 1.4-3 3zm96.5 0c0-1.6-1.3-3-2.9-3-1.7 0-3 1.4-3 3zm89.5 47.3v3h3v-3zm3-47.3c0-1.6-1.3-3-3-3-1.6 0-3 1.4-3 3zm-1048.3 406.5l-1.8-2.3-151.5 123.2 1.9 2.3 1.9 2.3 151.4-123.2zm-151.4 123.2h-3v152.7h3 3v-152.7zm0 152.7v-3h-505.5v3 2.9l505.5 0.1zm-505.5-0.1h3v-56.7h-3-3v56.7zm0-56.7v-3h-228.9v3 3h228.9zm-228.9 0h3v-186.3h-3-3v186.3zm0-186.3v-3h-73.9v3 3h73.9zm0.1-225.9v3h1.7l0.9-1.5zm-74 0v3h74v-3-3h-74zm73.9 0v-3h-73.9v3 3h73.9zm0 0h3v-3h-3zm199.7-145.3v3h738.9v-3-3h-738.9zm0 0h3v-37.8h-3-3v37.8zm738.9 0h3v-37.8h-3-3v37.8zm-738.9 0v3zm738.9 0l0.3 3 222.9-20.9-0.3-3-0.3-2.9-222.9 20.9zm524.9-20.9h3v-47.3h-3-3v47.3zm0 0v2.9h186.1v-2.9-3h-186.1zm0 0v3zm186.1 0h3v-47.3h-3-3v47.3zm92.6 0h2.9v-47.3h-2.9-3v47.3zm0 0v2.9h96.5v-2.9-3h-96.5zm96.5 0h3v-47.3h-3-3v47.3zm-96.5 0v3zm96.5 0v2.9h92.6v-2.9-3h-92.6zm92.6 0h2.9v-47.3h-2.9-3v47.3z"/></svg>