<svg width="36" height="36" viewBox="0 0 36 36" fill="none" xmlns="http://www.w3.org/2000/svg">
<path d="M17.9999 0.937988C14.6299 0.937988 11.33 1.93799 8.51996 3.81299C5.70996 5.68799 3.52993 8.353 2.23993 11.47C0.939932 14.588 0.609961 18.019 1.26996 21.329C1.91996 24.639 3.54987 27.679 5.92987 30.065C8.31987 32.451 11.3599 34.076 14.6699 34.735C17.9799 35.393 21.41 35.055 24.53 33.764C27.65 32.472 30.3099 30.285 32.1899 27.479C34.0599 24.674 35.06 21.375 35.06 18C35.06 13.476 33.26 9.13901 30.06 5.94101C26.86 2.74201 22.5199 0.942988 17.9999 0.937988ZM17.9999 8.81201C18.3899 8.81201 18.77 8.92801 19.09 9.14401C19.42 9.36101 19.67 9.66802 19.82 10.028C19.97 10.388 20.0099 10.783 19.9299 11.165C19.8499 11.547 19.6698 11.898 19.3898 12.173C19.1198 12.449 18.7698 12.636 18.3798 12.712C17.9998 12.788 17.6099 12.749 17.2499 12.6C16.8899 12.451 16.58 12.199 16.36 11.875C16.15 11.551 16.03 11.171 16.03 10.781C16.03 10.523 16.0799 10.267 16.1799 10.028C16.2799 9.78902 16.42 9.57201 16.61 9.38901C16.79 9.20601 17.0099 9.06101 17.2499 8.96201C17.4899 8.86301 17.7399 8.81201 17.9999 8.81201ZM19.31 27.188H17.9999C17.8299 27.188 17.6599 27.154 17.4999 27.088C17.3399 27.022 17.19 26.925 17.07 26.803C16.95 26.681 16.85 26.537 16.79 26.377C16.72 26.218 16.6899 26.047 16.6899 25.875V18C16.3399 18 16.01 17.862 15.76 17.616C15.51 17.369 15.3798 17.036 15.3798 16.688C15.3798 16.339 15.51 16.006 15.76 15.759C16.01 15.513 16.3399 15.375 16.6899 15.375H17.9999C18.1699 15.375 18.3399 15.409 18.4999 15.475C18.6599 15.541 18.8099 15.637 18.9299 15.759C19.0499 15.881 19.1499 16.026 19.2099 16.185C19.2799 16.344 19.31 16.515 19.31 16.688V24.562C19.66 24.562 19.9899 24.701 20.2399 24.947C20.4899 25.193 20.6298 25.527 20.6298 25.875C20.6298 26.223 20.4899 26.557 20.2399 26.803C19.9899 27.049 19.66 27.188 19.31 27.188Z" fill="white"/>
</svg>
