<?xml version="1.0" encoding="UTF-8"?>
<svg width="36" height="36" fill="none" version="1.1" viewBox="0 0 36 36" xmlns="http://www.w3.org/2000/svg">
 <path d="m18 2.7793c-3.0063 0-5.9501 0.89209-8.4569 2.5647-2.5068 1.6727-4.4515 4.0501-5.6023 6.8307-1.1597 2.7815-1.4541 5.8423-0.8653 8.7951 0.57986 2.9528 2.0339 5.6647 4.157 7.7933 2.1321 2.1285 4.844 3.5782 7.7969 4.166 2.9528 0.58699 6.0127 0.28547 8.796-0.86621 2.7833-1.1526 5.1562-3.1036 6.8333-5.6068 1.6682-2.5023 2.5604-5.4453 2.5604-8.4561 0-4.0358-1.6058-7.9048-4.4604-10.758-2.8547-2.8538-6.7264-4.4587-10.759-4.4631zm0 7.0243c0.34791 0 0.687 0.10348 0.97246 0.29617 0.29439 0.19358 0.51741 0.46746 0.65122 0.78859 0.13381 0.32115 0.16941 0.67352 0.09804 1.0143-0.07137 0.34078-0.23203 0.6539-0.48182 0.89922-0.24086 0.24622-0.55309 0.41304-0.90101 0.48083-0.33899 0.0678-0.68682 0.03301-1.008-0.09991s-0.59761-0.35773-0.79387-0.64676c-0.18734-0.28904-0.29439-0.62803-0.29439-0.97594 0-0.23016 0.04452-0.45853 0.13372-0.67174 0.08921-0.21319 0.21419-0.40678 0.38369-0.57003 0.16058-0.16325 0.35674-0.2926 0.57084-0.38092 0.2141-0.088316 0.43712-0.13381 0.66906-0.13381zm1.1687 16.393h-1.1687c-0.15165 0-0.30331-0.03033-0.44604-0.08921-0.14273-0.05888-0.27646-0.14541-0.38351-0.25424-0.10705-0.10884-0.19626-0.2373-0.24978-0.38003-0.06245-0.14184-0.0893-0.29439-0.0893-0.44783v-7.0252c-0.31223 0-0.60653-0.12311-0.82955-0.34256-0.22302-0.22034-0.33917-0.51741-0.33917-0.82786 0-0.31134 0.11615-0.6084 0.33917-0.82875 0.22302-0.21945 0.51732-0.34256 0.82955-0.34256h1.1686c0.15166 0 0.30331 0.03033 0.44604 0.08921 0.14273 0.05888 0.27655 0.14452 0.3836 0.25335 0.10705 0.10884 0.19626 0.23819 0.24978 0.38003 0.06245 0.14184 0.0893 0.29439 0.0893 0.44872v7.0243c0.31223 0 0.60653 0.124 0.82955 0.34345s0.34782 0.51741 0.34782 0.82786c0 0.31045-0.1248 0.6084-0.34782 0.82786-0.22302 0.21945-0.51732 0.34345-0.82955 0.34345z" fill="#fff" stroke-width=".89208"/>
</svg>
