<svg width="42" height="42" viewBox="0 0 42 42" fill="none" xmlns="http://www.w3.org/2000/svg">
<path d="M30.625 21C33.5244 21 35.875 23.3505 35.875 26.25V34.3368C35.8753 34.5597 36.0433 34.7467 36.2649 34.7709C36.4865 34.7951 36.6909 34.6488 36.7395 34.4312L41.979 10.6873C42.0524 10.3449 41.9147 9.99178 41.629 9.7895C41.3445 9.58822 40.9685 9.57247 40.6682 9.74925L38.6347 10.9742C37.7729 11.4954 36.6811 11.4414 35.875 10.8377C35.8977 10.724 35.875 5.25 35.875 5.25C35.875 2.83375 33.9162 0.875 31.5 0.875C29.0837 0.875 27.125 2.83375 27.125 5.25V6.125C27.125 7.0915 27.9085 7.875 28.875 7.875C29.8415 7.875 30.625 7.0915 30.625 6.125V5.25C30.625 4.76675 31.0167 4.375 31.5 4.375C31.9832 4.375 32.375 4.76675 32.375 5.25C32.375 5.25 32.3522 10.724 32.375 10.8377C31.565 11.4413 30.4699 11.4932 29.6065 10.969L27.5747 9.744C27.276 9.56507 26.8997 9.58025 26.6164 9.78266C26.3331 9.98508 26.1967 10.3362 26.2692 10.6768L28.3692 20.6517C28.4108 20.8555 28.59 21.0018 28.798 21.0018L30.625 21Z" fill="white"/>
<path d="M9.27539 0C14.3977 0.000210927 18.5498 4.15308 18.5498 9.27539C18.5428 14.3947 14.3947 18.5428 9.27539 18.5498C4.15308 18.5498 0.000210923 14.3977 0 9.27539C0 4.15295 4.15295 0 9.27539 0ZM9.27539 13.5625C8.55052 13.5625 7.96289 14.1501 7.96289 14.875C7.96289 15.5999 8.55052 16.1875 9.27539 16.1875C10.0001 16.1873 10.5879 15.5997 10.5879 14.875C10.5879 14.1503 10.0001 13.5627 9.27539 13.5625ZM9.27539 3.0625C7.10197 3.06539 5.34078 4.82658 5.33789 7C5.33789 7.72487 5.92552 8.3125 6.65039 8.3125C7.37508 8.31229 7.96289 7.72474 7.96289 7C7.96334 6.31203 8.49451 5.74084 9.18066 5.69141C9.86697 5.64212 10.4755 6.13155 10.5742 6.8125C10.6729 7.49342 10.2286 8.1355 9.55664 8.2832C8.62926 8.48305 7.96628 9.30131 7.96289 10.25V11.0254C7.9631 11.7501 8.55065 12.3379 9.27539 12.3379C9.99996 12.3377 10.5877 11.75 10.5879 11.0254V10.7139C12.3976 10.0758 13.4836 8.22529 13.1592 6.33398C12.8346 4.44286 11.1941 3.06104 9.27539 3.0625Z" fill="white"/>
<path d="M12.25 24.0625C12.25 23.8209 12.0541 23.625 11.8125 23.625H9.625C8.17525 23.625 7 24.8003 7 26.25V39.375C7 40.8247 8.17525 42 9.625 42H11.8125C12.0541 42 12.25 41.8041 12.25 41.5625V24.0625Z" fill="white"/>
<path d="M33.25 39.375V26.25C33.25 24.8003 32.0747 23.625 30.625 23.625H28.4375C28.1959 23.625 28 23.8209 28 24.0625V41.5625C28 41.8041 28.1959 42 28.4375 42H30.625C32.0747 42 33.25 40.8247 33.25 39.375Z" fill="white"/>
<path d="M20.125 16.625C23.0245 16.625 25.375 18.9755 25.375 21.875V23.625H25.8125C26.0541 23.625 26.25 23.8209 26.25 24.0625V41.5625C26.25 41.8041 26.0541 42 25.8125 42H14.4375C14.1959 42 14 41.8041 14 41.5625V24.0625C14 23.8209 14.1959 23.625 14.4375 23.625H14.875V21.875C14.875 18.9755 17.2255 16.625 20.125 16.625ZM20.125 20.125C19.1756 20.1651 18.4151 20.9256 18.375 21.875V23.625H21.875V21.875C21.8391 20.9238 21.0762 20.1609 20.125 20.125Z" fill="white"/>
</svg>
