<svg width="42" height="36" viewBox="0 0 42 36" fill="none" xmlns="http://www.w3.org/2000/svg">
<path d="M39.375 0.9375H2.625C1.17525 0.9375 0 2.11275 0 3.5625V13.1875C0 14.6372 1.17525 15.8125 2.625 15.8125H6.51525C6.71251 15.813 6.88551 15.6809 6.937 15.4905C7.4305 13.6845 7.987 11.9415 8.61175 10.279C8.66228 10.1446 8.64368 9.99401 8.56196 9.87597C8.48024 9.75793 8.34581 9.6875 8.20225 9.6875H6.125C5.1585 9.6875 4.375 8.904 4.375 7.9375C4.375 6.971 5.1585 6.1875 6.125 6.1875H35.875C36.8415 6.1875 37.625 6.971 37.625 7.9375C37.625 8.904 36.8415 9.6875 35.875 9.6875H33.7872C33.6437 9.6875 33.5093 9.75793 33.4275 9.87597C33.3458 9.99401 33.3272 10.1446 33.3778 10.279C34.0008 11.9397 34.559 13.6845 35.0525 15.4905C35.1045 15.6806 35.2772 15.8124 35.4743 15.8125H39.375C40.8247 15.8125 42 14.6372 42 13.1875V3.5625C42 2.11275 40.8247 0.9375 39.375 0.9375Z" fill="white"/>
<path d="M29.4473 10.5625C29.6274 10.5629 29.7895 10.6732 29.8555 10.8408C32.6253 18.3115 34.0662 26.2093 34.1143 34.1768C34.1171 34.4106 34.0267 34.6364 33.8624 34.8027C33.698 34.9691 33.4732 35.0625 33.2393 35.0625H8.75006C8.51632 35.0625 8.29235 34.9689 8.12799 34.8027C7.96359 34.6364 7.87226 34.4106 7.87506 34.1768C7.92389 26.2093 9.36569 18.3118 12.1348 10.8408C12.2008 10.6733 12.3621 10.563 12.5421 10.5625H29.4473ZM21.2188 13.625C20.494 13.625 19.9063 14.2126 19.9063 14.9375V15.4766C19.907 15.6846 19.7606 15.8642 19.5567 15.9053C17.9729 16.2223 16.7856 17.5437 16.6397 19.1523C16.494 20.7608 17.4241 22.2734 18.9249 22.8701L22.5381 24.3154C22.998 24.501 23.2623 24.9868 23.168 25.4736C23.0737 25.9604 22.6473 26.3121 22.1514 26.3125H18.5938C17.869 26.3125 17.2813 26.9001 17.2813 27.625C17.2813 28.3499 17.869 28.9375 18.5938 28.9375H19.4688C19.7104 28.9375 19.9063 29.1334 19.9063 29.375V29.8174C19.9063 30.5422 20.494 31.1298 21.2188 31.1299C21.9437 31.1299 22.5313 30.5423 22.5313 29.8174V29.2783C22.5308 29.0705 22.6771 28.8907 22.8809 28.8496V28.8447C24.4647 28.5277 25.652 27.2063 25.7979 25.5977C25.9436 23.9892 25.0135 22.4766 23.5128 21.8799L19.8995 20.4346C19.4396 20.249 19.1753 19.7632 19.2696 19.2764C19.3639 18.7896 19.7903 18.4379 20.2862 18.4375H23.8438C24.5687 18.4375 25.1563 17.8499 25.1563 17.125C25.1563 16.4001 24.5687 15.8125 23.8438 15.8125H22.9688C22.7272 15.8125 22.5313 15.6166 22.5313 15.375V14.9375C22.5313 14.2126 21.9437 13.625 21.2188 13.625Z" fill="white"/>
</svg>
