<svg width="42" height="42" viewBox="0 0 42 42" fill="none" xmlns="http://www.w3.org/2000/svg">
<path d="M22.75 13.125H19.6875C19.4459 13.125 19.25 13.3209 19.25 13.5625V19.6875C19.25 19.9291 19.4459 20.125 19.6875 20.125H22.75C24.683 20.125 26.25 18.558 26.25 16.625C26.25 14.692 24.683 13.125 22.75 13.125Z" fill="white"/>
<path d="M21 0C32.5928 0.0125385 41.9875 9.40722 42 21C42 32.598 32.598 42 21 42C9.40202 42 0 32.598 0 21C0 9.40202 9.40202 0 21 0ZM17.5 9.625C16.5335 9.625 15.75 10.4085 15.75 11.375V32.375C15.75 33.3415 16.5335 34.125 17.5 34.125C18.4665 34.125 19.25 33.3415 19.25 32.375V24.0625C19.25 23.8209 19.4459 23.625 19.6875 23.625H22.75C26.616 23.625 29.75 20.491 29.75 16.625C29.75 12.759 26.616 9.625 22.75 9.625H17.5Z" fill="white"/>
</svg>
