<svg width="20" height="20" viewBox="0 0 20 20" fill="none" xmlns="http://www.w3.org/2000/svg">
<path d="M10.8332 6.25H9.37484C9.25978 6.25 9.1665 6.34327 9.1665 6.45833V9.375C9.1665 9.49006 9.25978 9.58333 9.37484 9.58333H10.8332C11.7536 9.58333 12.4998 8.83714 12.4998 7.91667C12.4998 6.99619 11.7536 6.25 10.8332 6.25Z" fill="#084983"/>
<path d="M10 0C15.5204 0.00597083 19.994 4.47963 20 10C20 15.5228 15.5228 20 10 20C4.47715 20 1.28852e-07 15.5228 0 10C0 4.47715 4.47715 0 10 0ZM8.33301 4.58301C7.87312 4.58323 7.50026 4.95614 7.5 5.41602V15.416C7.5 15.8761 7.87296 16.2498 8.33301 16.25C8.79325 16.25 9.16699 15.8763 9.16699 15.416V11.458C9.16708 11.3431 9.26003 11.25 9.375 11.25H10.833C12.674 11.25 14.167 9.75697 14.167 7.91602C14.1667 6.07529 12.6738 4.58301 10.833 4.58301H8.33301Z" fill="#084983"/>
</svg>
