<svg width="42" height="40" viewBox="0 0 42 40" fill="none" xmlns="http://www.w3.org/2000/svg">
<path d="M20.4751 8.75293C20.2335 8.75293 20.0376 8.94881 20.0376 9.19043V10.5029C20.0337 12.9192 21.9894 14.8811 24.4056 14.8849C26.8218 14.8888 28.7837 12.9332 28.7876 10.5169V9.19043C28.7876 8.94881 28.5917 8.75293 28.3501 8.75293H20.4751Z" fill="white"/>
<path d="M15.75 5.25319C15.75 6.21969 16.5335 7.00319 17.5 7.00319H28.644C29.0211 7.00366 29.3561 6.76247 29.4753 6.40469L30.0528 4.67569C30.2066 4.21313 30.1606 3.70734 29.9258 3.28015C29.6909 2.85296 29.2885 2.5431 28.8155 2.42519L20.0025 0.225439C19.5397 0.112197 19.0517 0.256584 18.725 0.603439C18.3949 0.954001 18.2846 1.45778 18.438 1.91419L18.963 3.50669H17.5C16.5349 3.50669 15.7519 4.28806 15.75 5.25319Z" fill="white"/>
<path d="M42 38.0655C42 37.099 41.2165 36.3155 40.25 36.3155H30.625C30.1418 36.3155 29.75 35.9238 29.75 35.4405V24.9405C29.75 24.4573 30.1418 24.0655 30.625 24.0655C31.1082 24.0655 31.5 24.4573 31.5 24.9405V32.378C31.5 33.5862 32.4794 34.5655 33.6875 34.5655C34.8956 34.5655 35.875 33.5862 35.875 32.378V25.378C35.8702 21.514 32.739 18.3828 28.875 18.378H26.845C26.4854 18.3726 26.1591 18.5878 26.0225 18.9205L24.9025 21.738C24.8337 21.9013 24.677 22.0103 24.5 22.018C24.3214 22.0152 24.1622 21.9045 24.0975 21.738L22.96 18.9205C22.8301 18.5903 22.5099 18.3745 22.155 18.378H19.1082C18.1768 18.3764 17.2831 18.7461 16.625 19.4053L6.8355 29.2053C6.02529 30.0624 6.04421 31.4086 6.8782 32.2426C7.71219 33.0766 9.0584 33.0955 9.9155 32.2853L18.4905 23.7243C18.6156 23.5988 18.8041 23.5612 18.9678 23.6291C19.1315 23.6969 19.2381 23.8568 19.2378 24.034V35.4353C19.2378 35.9185 18.846 36.3103 18.3628 36.3103H1.75C0.783502 36.3103 0 37.0938 0 38.0603C0 39.0268 0.783502 39.8103 1.75 39.8103H40.25C41.2145 39.8103 41.9971 39.03 42 38.0655Z" fill="white"/>
</svg>
