<svg width="42" height="42" viewBox="0 0 42 42" fill="none" xmlns="http://www.w3.org/2000/svg">
<circle cx="21" cy="5.6875" r="5.25" fill="white"/>
<path d="M28 17.0625C28 15.1295 26.433 13.5625 24.5 13.5625H23.8C23.5073 13.5627 23.2341 13.7091 23.072 13.9527L21.7262 15.9705C21.564 16.2139 21.2908 16.3601 20.9983 16.3601C20.7057 16.3601 20.4325 16.2139 20.2702 15.9705L18.9245 13.9527C18.7631 13.7101 18.4914 13.5638 18.2 13.5625H17.5C15.567 13.5625 14 15.1295 14 17.0625V18.8125C14 19.2957 14.3918 19.6875 14.875 19.6875H27.125C27.6082 19.6875 28 19.2957 28 18.8125V17.0625Z" fill="white"/>
<path d="M36.75 21.4375C39.1662 21.4375 41.125 23.3963 41.125 25.8125V40.6875C41.125 41.1707 40.7332 41.5625 40.25 41.5625H1.75C1.26675 41.5625 0.875 41.1707 0.875 40.6875V25.8125C0.875 23.3963 2.83375 21.4375 5.25 21.4375H36.75ZM18.9736 26.3047L17.4336 26.7666C17.2633 26.8144 17.1249 26.9388 17.0605 27.1035C17.0018 27.2565 17.0372 27.4304 17.1504 27.5488L19.2744 29.4873C19.3874 29.6057 19.4225 29.7783 19.3652 29.9316C19.2997 30.0962 19.1616 30.2212 18.9912 30.2695L16.9922 30.8682C16.8055 30.9303 16.5996 30.8873 16.4531 30.7559L15.3584 29.7168C15.1806 29.5625 14.926 29.5336 14.7178 29.6436L13.2285 30.3906C13.0855 30.4591 12.9796 30.5869 12.9395 30.7402C12.9018 30.8819 12.9422 31.0331 13.0449 31.1377L14.7598 33.2373L14.4863 35.9395C14.46 36.0835 14.5102 36.2313 14.6182 36.3301C14.7369 36.4331 14.894 36.4808 15.0498 36.46L16.7041 36.2617C16.9387 36.2399 17.1357 36.0755 17.1992 35.8486L17.54 34.377C17.591 34.1871 17.739 34.0381 17.9287 33.9863L19.9277 33.3867C20.0959 33.3332 20.2791 33.3609 20.4238 33.4619C20.5584 33.5572 20.6272 33.7213 20.5996 33.8838L19.8779 36.6709C19.8488 36.8331 19.918 36.9973 20.0537 37.0908C20.1986 37.1933 20.3827 37.222 20.5518 37.168L22.0898 36.7061C22.2488 36.6614 22.3813 36.55 22.4512 36.4004L24.2598 32.3086C24.3465 32.1432 24.4947 32.0181 24.6719 31.959L27.7148 31.0469C28.5756 30.7874 29.0631 29.8796 28.8047 29.0186C28.5467 28.1582 27.6409 27.6697 26.7803 27.9268L23.7383 28.8398C23.5571 28.8888 23.3641 28.865 23.2002 28.7734L19.4424 26.3623C19.3019 26.2757 19.1309 26.2548 18.9736 26.3047Z" fill="white"/>
</svg>
