<svg width="42" height="28" viewBox="0 0 42 28" fill="none" xmlns="http://www.w3.org/2000/svg">
<path d="M39.375 0C40.8247 0 42 1.17525 42 2.625V9.71289C42 10.5444 41.4144 11.2614 40.5996 11.4277C39.3764 11.6763 38.4971 12.7518 38.4971 14C38.4971 15.2482 39.3764 16.3237 40.5996 16.5723C41.4144 16.7386 42 17.4556 42 18.2871V25.375C42 26.8247 40.8247 28 39.375 28H2.625C1.92881 28 1.26084 27.7237 0.768555 27.2314C0.276272 26.7392 0 26.0712 0 25.375V18.2871C1.33833e-05 17.4556 0.585602 16.7386 1.40039 16.5723C2.62359 16.3237 3.50293 15.2482 3.50293 14C3.50293 12.7518 2.62359 11.6763 1.40039 11.4277C0.585602 11.2614 1.33833e-05 10.5444 0 9.71289V2.625C0 1.17525 1.17525 0 2.625 0H39.375ZM9.1875 22.3125C8.46263 22.3125 7.875 22.9001 7.875 23.625C7.875 24.3499 8.46263 24.9375 9.1875 24.9375C9.91237 24.9375 10.5 24.3499 10.5 23.625C10.5 22.9001 9.91237 22.3125 9.1875 22.3125ZM19.9326 8.75C19.7729 8.69316 19.5949 8.72059 19.46 8.82324L18.1191 9.81738C18.0905 9.83962 18.0645 9.86502 18.041 9.89258C17.8644 10.1017 17.8891 10.4143 18.0967 10.5928L23.0146 13.6357C23.1398 13.7133 23.2177 13.8489 23.2217 13.9961C23.2256 14.1435 23.1544 14.2831 23.0332 14.3672L21.1484 15.6816C20.8666 15.8786 20.4957 15.8925 20.2002 15.7168L18.4043 14.6455C18.2727 14.599 18.1259 14.6239 18.0176 14.7119L16.1982 16.3184C16.1725 16.3377 16.1486 16.3601 16.1279 16.3848C16.0616 16.4677 16.0313 16.5741 16.043 16.6797C16.0548 16.7854 16.1083 16.8829 16.1914 16.9492L20.5273 19.9941C20.7659 20.1627 21.0827 20.1723 21.3311 20.0186L33.1621 12.668H33.1641C33.7713 12.2817 34.1325 11.6062 34.1162 10.8867C34.1157 10.6614 34.0768 10.4378 34.001 10.2256C33.7671 9.55206 33.2027 9.04616 32.5078 8.88672C31.9785 8.76473 31.4219 8.8705 30.9746 9.17871L27.8613 11.3086C27.6267 11.468 27.3292 11.5035 27.0635 11.4043L19.9326 8.75ZM9.1875 15.8955C8.46263 15.8955 7.875 16.4831 7.875 17.208C7.87514 17.9328 8.46271 18.5205 9.1875 18.5205C9.91229 18.5205 10.4999 17.9328 10.5 17.208C10.5 16.4831 9.91237 15.8955 9.1875 15.8955ZM9.1875 9.47949C8.46271 9.47949 7.87514 10.0672 7.875 10.792C7.875 11.5169 8.46263 12.1045 9.1875 12.1045C9.91237 12.1045 10.5 11.5169 10.5 10.792C10.4999 10.0672 9.91229 9.47949 9.1875 9.47949ZM9.1875 3.0625C8.46263 3.0625 7.875 3.65013 7.875 4.375C7.875 5.09987 8.46263 5.6875 9.1875 5.6875C9.91237 5.6875 10.5 5.09987 10.5 4.375C10.5 3.65013 9.91237 3.0625 9.1875 3.0625Z" fill="white"/>
</svg>
