<svg width="42" height="42" viewBox="0 0 42 42" fill="none" xmlns="http://www.w3.org/2000/svg">
<path d="M40.6875 35.4378C40.6875 35.7859 40.5492 36.1198 40.3031 36.3659C40.0569 36.612 39.7231 36.7503 39.375 36.7503H15.75C15.4019 36.7503 15.0681 36.612 14.8219 36.3659C14.5758 36.1198 14.4375 35.7859 14.4375 35.4378C14.4375 35.0897 14.5758 34.7559 14.8219 34.5097C15.0681 34.2636 15.4019 34.1253 15.75 34.1253H39.375C39.7231 34.1253 40.0569 34.2636 40.3031 34.5097C40.5492 34.7559 40.6875 35.0897 40.6875 35.4378ZM36.75 30.8441C36.924 30.8441 37.091 30.7749 37.214 30.6518C37.3371 30.5288 37.4062 30.3619 37.4062 30.1878V24.3345C37.4033 23.0443 36.9793 21.7904 36.1985 20.7632C35.4178 19.736 34.3231 18.9919 33.0807 18.6438L25.3733 16.5028L20.2572 7.54976C20.1771 7.40957 20.0482 7.30382 19.895 7.25271L17.6851 6.51603C17.3892 6.41741 17.074 6.39051 16.7656 6.43757C16.4572 6.48463 16.1644 6.60429 15.9114 6.7867C15.6583 6.96911 15.4522 7.20904 15.31 7.48672C15.1679 7.76441 15.0938 8.07189 15.0938 8.38385V13.5452L10.9525 12.251L8.45403 7.5665C8.37493 7.41819 8.24194 7.30588 8.08248 7.25271L5.8726 6.51603C5.57665 6.41741 5.2615 6.39051 4.95311 6.43757C4.64473 6.48463 4.35194 6.60429 4.09887 6.7867C3.8458 6.96911 3.6397 7.20904 3.49755 7.48672C3.35539 7.76441 3.28126 8.07189 3.28125 8.38385V17.0184C3.2845 18.3065 3.70733 19.5584 4.48571 20.5846C5.2641 21.6108 6.35565 22.3555 7.59511 22.7059L36.5731 30.8198C36.6307 30.8359 36.6902 30.8441 36.75 30.8441Z" fill="white"/>
</svg>
