<svg width="42" height="42" viewBox="0 0 42 42" fill="none" xmlns="http://www.w3.org/2000/svg">
<path d="M35.4375 6.5625H6.5625C5.86655 6.5633 5.19933 6.84011 4.70722 7.33222C4.21511 7.82433 3.9383 8.49155 3.9375 9.1875V34.125C3.9375 34.3487 3.99469 34.5688 4.10364 34.7642C4.21259 34.9596 4.36969 35.1239 4.56001 35.2415C4.75033 35.3591 4.96755 35.4261 5.19106 35.4362C5.41457 35.4462 5.63693 35.399 5.83704 35.2989L10.5 32.9674L15.163 35.2989C15.3452 35.39 15.5462 35.4375 15.75 35.4375C15.9538 35.4375 16.1548 35.39 16.337 35.2989L21 32.9674L25.663 35.2989C25.8452 35.3901 26.0462 35.4375 26.25 35.4375C26.4538 35.4375 26.6548 35.3901 26.837 35.2989L31.5 32.9674L36.163 35.2989C36.3631 35.399 36.5854 35.4462 36.8089 35.4362C37.0324 35.4261 37.2497 35.3591 37.44 35.2415C37.6303 35.1239 37.7874 34.9596 37.8964 34.7642C38.0053 34.5688 38.0625 34.3487 38.0625 34.125V9.1875C38.0617 8.49155 37.7849 7.82433 37.2928 7.33222C36.8007 6.84011 36.1334 6.5633 35.4375 6.5625ZM29.5312 23.625H12.4688C12.1207 23.625 11.7868 23.4867 11.5407 23.2406C11.2945 22.9944 11.1562 22.6606 11.1562 22.3125C11.1562 21.9644 11.2945 21.6306 11.5407 21.3844C11.7868 21.1383 12.1207 21 12.4688 21H29.5312C29.8793 21 30.2132 21.1383 30.4593 21.3844C30.7055 21.6306 30.8438 21.9644 30.8438 22.3125C30.8438 22.6606 30.7055 22.9944 30.4593 23.2406C30.2132 23.4867 29.8793 23.625 29.5312 23.625ZM29.5312 18.375H12.4688C12.1207 18.375 11.7868 18.2367 11.5407 17.9906C11.2945 17.7444 11.1562 17.4106 11.1562 17.0625C11.1562 16.7144 11.2945 16.3806 11.5407 16.1344C11.7868 15.8883 12.1207 15.75 12.4688 15.75H29.5312C29.8793 15.75 30.2132 15.8883 30.4593 16.1344C30.7055 16.3806 30.8438 16.7144 30.8438 17.0625C30.8438 17.4106 30.7055 17.7444 30.4593 17.9906C30.2132 18.2367 29.8793 18.375 29.5312 18.375Z" fill="white"/>
</svg>
