<svg width="16" height="13" viewBox="0 0 16 13" fill="none" xmlns="http://www.w3.org/2000/svg">
<path d="M2.3173 5.43359V1.31108H0.868574V0.509943H4.82418V1.31108H3.37546V5.43359H2.3173ZM4.32534 5.43359L6.11121 0.509943H7.35297L9.06874 5.43359H7.99722L7.64672 4.37543H5.70063L5.31675 5.43359H4.32534ZM5.96767 3.56761H7.38969L6.71206 1.48132L5.96767 3.56761ZM10.082 5.43359H8.99717L10.6862 2.88999L9.10399 0.509943H10.3157L11.3472 2.21236L12.4287 0.509943H13.5303L11.928 2.86996L13.6171 5.43359H12.3953L11.2537 3.56761L10.082 5.43359ZM0.664952 12.4336V7.50994H3.81609V8.32443H1.71978V9.48608H3.67255V10.2872H1.71978V12.4336H0.664952ZM5.25333 9.64964H5.87421C6.26365 9.64964 6.53069 9.59957 6.67534 9.49943C6.81999 9.39929 6.89232 9.2246 6.89232 8.97536C6.89232 8.71053 6.82333 8.52694 6.68536 8.42457C6.54961 8.32221 6.27923 8.27102 5.87421 8.27102H5.25333V9.64964ZM4.21853 12.4336V7.50994H6.26476C6.83668 7.50994 7.25728 7.61009 7.52655 7.81037C7.79582 8.01065 7.93046 8.32332 7.93046 8.74837C7.93046 9.09775 7.85479 9.36813 7.70347 9.55952C7.55214 9.7509 7.30958 9.88665 6.97577 9.96676C7.24504 9.99569 7.44087 10.078 7.56327 10.2138C7.68789 10.3473 7.77023 10.5743 7.81029 10.8947L7.89708 11.6058C7.92378 11.8038 7.95716 11.9696 7.99722 12.1031C8.03728 12.2366 8.08846 12.3468 8.15077 12.4336H7.00915C6.97354 12.3646 6.94461 12.2856 6.92236 12.1966C6.90233 12.1076 6.88564 11.9863 6.87229 11.8327L6.80219 11.0884C6.77549 10.7879 6.72764 10.6066 6.65865 10.5442C6.59189 10.4819 6.4261 10.4508 6.16128 10.4508H5.25333V12.4336H4.21853ZM8.5265 12.4336V7.50994H11.7945V8.32443H9.59468V9.48608H11.6576V10.2872H9.59468V11.6124H11.8712V12.4336H8.5265ZM12.4272 12.4336V7.50994H15.6952V8.32443H13.4954V9.48608H15.5583V10.2872H13.4954V11.6124H15.772V12.4336H12.4272Z" fill="white"/>
</svg>
