<svg width="42" height="42" viewBox="0 0 42 42" fill="none" xmlns="http://www.w3.org/2000/svg">
<path d="M27.125 0C26.4001 0 25.8125 0.587626 25.8125 1.3125V40.25C25.8125 41.2165 26.596 42 27.5625 42C28.529 42 29.3125 41.2165 29.3125 40.25V26.25C29.3125 25.7668 29.7043 25.375 30.1875 25.375H33.25C33.8312 25.3783 34.3895 25.1489 34.8004 24.7379C35.2114 24.327 35.4408 23.7687 35.4375 23.1875V23.1753C35.3255 10.5962 31.206 0 27.125 0Z" fill="white"/>
<path d="M18.8125 0C17.846 0 17.0625 0.783502 17.0625 1.75V10.5C17.0641 11.4162 16.7052 12.2963 16.0632 12.95C15.9383 13.0757 15.75 13.114 15.5858 13.047C15.4217 12.9801 15.3139 12.821 15.3125 12.6438V1.75C15.3125 0.783502 14.529 0 13.5625 0C12.596 0 11.8125 0.783502 11.8125 1.75V12.6403C11.8111 12.8175 11.7033 12.9766 11.5392 13.0435C11.375 13.1105 11.1867 13.0722 11.0618 12.9465C10.4206 12.2936 10.0618 11.415 10.0625 10.5V1.75C10.0625 0.783502 9.279 0 8.3125 0C7.346 0 6.5625 0.783502 6.5625 1.75V10.5C6.56673 13.4656 8.43521 16.1083 11.2298 17.101C11.5789 17.2247 11.8123 17.5549 11.8125 17.9253V40.25C11.8125 41.2165 12.596 42 13.5625 42C14.529 42 15.3125 41.2165 15.3125 40.25V17.9253C15.3127 17.5549 15.5461 17.2247 15.8953 17.101C18.6898 16.1083 20.5583 13.4656 20.5625 10.5V1.75C20.5625 0.783502 19.779 0 18.8125 0Z" fill="white"/>
</svg>
