<svg width="20" height="20" viewBox="0 0 20 20" fill="none" xmlns="http://www.w3.org/2000/svg">
<path d="M12.9165 0C12.5713 0 12.2915 0.279822 12.2915 0.625V19.1667C12.2915 19.6269 12.6646 20 13.1248 20C13.5851 20 13.9582 19.6269 13.9582 19.1667V12.5C13.9582 12.2699 14.1447 12.0833 14.3748 12.0833H15.8332C16.1099 12.0849 16.3758 11.9757 16.5715 11.78C16.7672 11.5843 16.8764 11.3184 16.8748 11.0417V11.0358C16.8215 5.04583 14.8598 0 12.9165 0Z" fill="#084983"/>
<path d="M8.95833 0C8.4981 0 8.125 0.373096 8.125 0.833333V5C8.12579 5.43629 7.95486 5.85537 7.64917 6.16667C7.58965 6.22653 7.49999 6.24476 7.42182 6.21287C7.34366 6.18099 7.29233 6.10525 7.29167 6.02083V0.833333C7.29167 0.373096 6.91857 0 6.45833 0C5.9981 0 5.625 0.373096 5.625 0.833333V6.01917C5.62434 6.10358 5.57301 6.17932 5.49484 6.21121C5.41668 6.24309 5.32701 6.22487 5.2675 6.165C4.96221 5.85412 4.79132 5.43572 4.79167 5V0.833333C4.79167 0.373096 4.41857 0 3.95833 0C3.4981 0 3.125 0.373096 3.125 0.833333V5C3.12701 6.4122 4.01677 7.6706 5.3475 8.14333C5.51375 8.20224 5.6249 8.35945 5.625 8.53583V19.1667C5.625 19.6269 5.9981 20 6.45833 20C6.91857 20 7.29167 19.6269 7.29167 19.1667V8.53583C7.29177 8.35945 7.40292 8.20224 7.56917 8.14333C8.8999 7.6706 9.78965 6.4122 9.79167 5V0.833333C9.79167 0.373096 9.41857 0 8.95833 0Z" fill="#084983"/>
</svg>
