<svg width="41" height="41" viewBox="0 0 41 41" fill="none" xmlns="http://www.w3.org/2000/svg">
<path d="M7.72656 38.5078C7.72656 39.4743 8.47872 40.2578 9.40656 40.2578C10.3344 40.2578 11.0866 39.4743 11.0866 38.5078V9.63281C11.0866 9.14956 11.4626 8.75781 11.9266 8.75781H27.8866C28.3505 8.75781 28.7266 9.14956 28.7266 9.63281V38.5078C28.7266 39.4743 29.4787 40.2578 30.4066 40.2578C31.3344 40.2578 32.0866 39.4743 32.0866 38.5078V5.69531C32.0847 3.03824 30.0173 0.884743 27.4666 0.882812H12.3466C9.79616 0.885706 7.72934 3.03864 7.72656 5.69531L7.72656 38.5078Z" fill="white"/>
<path d="M4.39285 22.7578H1.89973C0.971888 22.7578 0.219727 23.5413 0.219727 24.5078C0.219727 25.4743 0.971888 26.2578 1.89973 26.2578H4.39285C5.32068 26.2578 6.07285 25.4743 6.07285 24.5078C6.07285 23.5413 5.32068 22.7578 4.39285 22.7578Z" fill="white"/>
<path d="M3.31803 19.291C4.03154 19.9095 5.09134 19.8085 5.68515 19.0652C6.27897 18.322 6.18194 17.218 5.46843 16.5995L2.94843 14.412C2.23493 13.7934 1.17513 13.8945 0.581313 14.6377C-0.012504 15.381 0.0845249 16.4849 0.798033 17.1035L3.31803 19.291Z" fill="white"/>
<path d="M3.31803 29.7245L0.798033 31.912C0.0845249 32.5305 -0.012504 33.6345 0.581313 34.3777C1.17513 35.121 2.23493 35.222 2.94843 34.6035L5.46843 32.416C6.18194 31.7974 6.27897 30.6935 5.68515 29.9502C5.09134 29.207 4.03154 29.1059 3.31803 29.7245Z" fill="white"/>
<path d="M34.6328 24.5078C34.6328 25.4743 35.385 26.2578 36.3128 26.2578H38.8059C39.7338 26.2578 40.4859 25.4743 40.4859 24.5078C40.4859 23.5413 39.7338 22.7578 38.8059 22.7578H36.3128C35.385 22.7578 34.6328 23.5413 34.6328 24.5078Z" fill="white"/>
<path d="M37.3889 19.2909L39.9089 17.1035C40.3704 16.7033 40.592 16.0771 40.4901 15.4606C40.3882 14.8442 39.9783 14.3312 39.4149 14.1149C38.8514 13.8986 38.22 14.0118 37.7585 14.412L35.2385 16.5995C34.525 17.218 34.4279 18.322 35.0217 19.0652C35.6156 19.8084 36.6754 19.9095 37.3889 19.2909Z" fill="white"/>
<path d="M37.3889 29.7245C36.6754 29.1059 35.6156 29.207 35.0217 29.9502C34.4279 30.6935 34.525 31.7974 35.2385 32.416L37.7585 34.6035C38.472 35.222 39.5318 35.121 40.1256 34.3777C40.7194 33.6345 40.6224 32.5305 39.9089 31.912L37.3889 29.7245Z" fill="white"/>
<path d="M19.9064 21.4453C16.6589 21.4453 14.0264 24.1876 14.0264 27.5703V31.0703C14.0264 31.5536 14.4024 31.9453 14.8664 31.9453H15.8828C16.3129 31.9426 16.6755 32.2788 16.7228 32.7241L17.3948 39.0433C17.4429 39.4879 17.8052 39.8231 18.2348 39.8203H21.5948C22.0243 39.8231 22.3867 39.4879 22.4348 39.0433L23.1068 32.7241C23.1541 32.2788 23.5167 31.9426 23.9468 31.9453H24.9548C25.4187 31.9453 25.7948 31.5536 25.7948 31.0703V27.5703C25.7948 25.9444 25.1741 24.3851 24.0696 23.2362C22.9651 22.0873 21.4673 21.443 19.9064 21.4453Z" fill="white"/>
<ellipse cx="19.9061" cy="15.3203" rx="4.2" ry="4.375" fill="white"/>
</svg>
