<svg width="42" height="40" viewBox="0 0 42 40" fill="none" xmlns="http://www.w3.org/2000/svg">
<path d="M26.5703 8.8033C26.3287 8.8033 26.1328 8.99918 26.1328 9.2408V10.5533C26.127 12.9696 28.0811 14.933 30.4973 14.9388C32.9136 14.9446 34.877 12.9906 34.8828 10.5743V9.2373C34.8828 8.99568 34.6869 8.7998 34.4453 8.7998L26.5703 8.8033Z" fill="white"/>
<path d="M23.5863 7.05335H34.7303C35.1074 7.05382 35.4424 6.81263 35.5616 6.45485L36.1391 4.72585C36.2929 4.26329 36.2469 3.7575 36.0121 3.33031C35.7772 2.90312 35.3748 2.59326 34.9018 2.47535L26.0923 0.268601C25.6295 0.154978 25.1413 0.299421 24.8148 0.646601C24.4847 0.997162 24.3744 1.50094 24.5278 1.95735L25.0528 3.54985H23.5811C22.9558 3.54985 22.3781 3.8834 22.0655 4.42485C21.7529 4.9663 21.7529 5.6334 22.0655 6.17485C22.3781 6.7163 22.9558 7.04985 23.5811 7.04985L23.5863 7.05335Z" fill="white"/>
<path d="M34.9648 18.4288H32.9348C32.5752 18.4234 32.2489 18.6386 32.1123 18.9713L30.9923 21.7888C30.9235 21.9521 30.7668 22.0611 30.5898 22.0688C30.4112 22.066 30.2521 21.9553 30.1873 21.7888L29.0498 18.9713C28.9199 18.6411 28.5997 18.4252 28.2448 18.4288H25.1998C24.2708 18.429 23.3799 18.7986 22.7236 19.4561L14.6841 27.5061C14.1078 28.0508 13.873 28.8657 14.0711 29.6335C14.2691 30.4014 14.8687 31.001 15.6366 31.1991C16.4045 31.3971 17.2193 31.1623 17.7641 30.5861L24.5891 23.7751C24.7142 23.6496 24.9027 23.612 25.0663 23.6799C25.23 23.7477 25.3366 23.9076 25.3363 24.0848V38.5538C25.3363 39.0371 25.7281 39.4288 26.2113 39.4288H34.9613C35.4446 39.4288 35.8363 39.0371 35.8363 38.5538V24.9913C35.8363 24.5081 36.2281 24.1163 36.7113 24.1163C37.1946 24.1163 37.5863 24.5081 37.5863 24.9913V35.0538C37.5863 36.2619 38.5657 37.2413 39.7738 37.2413C40.9819 37.2413 41.9613 36.2619 41.9613 35.0538V25.4288C41.9565 21.5662 38.8274 18.4356 34.9648 18.4288Z" fill="white"/>
<path d="M21.0352 33.3037H7.03516C6.55191 33.3037 6.16016 32.912 6.16016 32.4287V16.6787C6.16016 15.7122 5.37665 14.9287 4.41016 14.9287C1.99391 14.9287 0.0351563 16.8875 0.0351563 19.3037V29.8037C0.034732 31.883 1.49787 33.6754 3.53516 34.0912C3.53516 34.1455 3.53516 34.0475 3.53516 35.0537C3.53516 37.47 5.49391 39.4287 7.91016 39.4287H18.4102C20.8264 39.4287 22.7852 37.47 22.7852 35.0537C22.7852 34.0872 22.0017 33.3037 21.0352 33.3037Z" fill="white"/>
</svg>
