<svg width="20" height="20" viewBox="0 0 20 20" fill="none" xmlns="http://www.w3.org/2000/svg">
<path d="M9.74984 4.64453C9.63478 4.64453 9.54151 4.73781 9.54151 4.85286V5.47786C9.53967 6.62846 10.4709 7.56269 11.6215 7.56453C12.7721 7.56637 13.7063 6.63512 13.7082 5.48453V4.85286C13.7082 4.73781 13.6149 4.64453 13.4998 4.64453H9.74984Z" fill="#084983"/>
<path d="M7.5 2.97766C7.5 3.4379 7.8731 3.811 8.33333 3.811H13.64C13.8196 3.81122 13.9791 3.69637 14.0358 3.526L14.3108 2.70266C14.3841 2.4824 14.3622 2.24154 14.2504 2.03812C14.1385 1.8347 13.9469 1.68714 13.7217 1.631L9.525 0.583496C9.3046 0.529571 9.07224 0.598327 8.91667 0.763496C8.7595 0.93043 8.70697 1.17032 8.78 1.38766L9.03 2.146H8.33333C7.87375 2.146 7.50092 2.51808 7.5 2.97766Z" fill="#084983"/>
<path d="M20 18.6026C20 18.1423 19.6269 17.7693 19.1667 17.7693H14.5833C14.3532 17.7693 14.1667 17.5827 14.1667 17.3526V12.3526C14.1667 12.1225 14.3532 11.9359 14.5833 11.9359C14.8135 11.9359 15 12.1225 15 12.3526V15.8943C15 16.4696 15.4664 16.9359 16.0417 16.9359C16.617 16.9359 17.0833 16.4696 17.0833 15.8943V12.5609C17.081 10.7209 15.59 9.22988 13.75 9.22759H12.7833C12.6121 9.22502 12.4567 9.3275 12.3917 9.48592L11.8583 10.8276C11.8256 10.9053 11.7509 10.9572 11.6667 10.9609C11.5816 10.9596 11.5058 10.9069 11.475 10.8276L10.9333 9.48592C10.8715 9.32865 10.719 9.22588 10.55 9.22759H9.09917C8.65561 9.22679 8.23004 9.40284 7.91667 9.71675L3.255 14.3834C2.86918 14.7916 2.8782 15.4326 3.27533 15.8298C3.67247 16.2269 4.31352 16.2359 4.72167 15.8501L8.805 11.7734C8.86459 11.7137 8.95433 11.6958 9.03228 11.7281C9.11022 11.7604 9.16098 11.8365 9.16083 11.9209V17.3501C9.16083 17.5802 8.97429 17.7668 8.74417 17.7668H0.833333C0.373096 17.7668 0 18.1398 0 18.6001C0 19.0603 0.373096 19.4334 0.833333 19.4334H19.1667C19.6259 19.4334 19.9986 19.0618 20 18.6026Z" fill="#084983"/>
</svg>
