<svg width="42" height="42" viewBox="0 0 42 42" fill="none" xmlns="http://www.w3.org/2000/svg">
<path d="M38.5 0H3.5C1.567 0 0 1.567 0 3.5V19.25C0 21.183 1.567 22.75 3.5 22.75H5.25C6.2165 22.75 7 21.9665 7 21C7 20.0335 6.2165 19.25 5.25 19.25H4.375C3.89175 19.25 3.5 18.8582 3.5 18.375V4.375C3.5 3.89175 3.89175 3.5 4.375 3.5H37.625C38.1082 3.5 38.5 3.89175 38.5 4.375V18.375C38.5 18.8582 38.1082 19.25 37.625 19.25H22.75C21.7835 19.25 21 20.0335 21 21C21 21.9665 21.7835 22.75 22.75 22.75H38.5C40.433 22.75 42 21.183 42 19.25V3.5C42 1.567 40.433 0 38.5 0Z" fill="white"/>
<path d="M28.0001 16.6247H28.0578C28.5423 16.6089 28.9986 16.3928 29.3178 16.028L35.4428 9.02795C36.0793 8.30018 36.0052 7.19427 35.2774 6.55783C34.5497 5.92139 33.4438 5.99543 32.8073 6.7232L27.9073 12.3232L25.7373 10.1392C25.2979 9.68428 24.6473 9.50183 24.0354 9.66198C23.4236 9.82213 22.9457 10.3 22.7856 10.9118C22.6254 11.5237 22.8079 12.1743 23.2628 12.6137L26.7628 16.1137C27.0912 16.4413 27.5362 16.6251 28.0001 16.6247Z" fill="white"/>
<path d="M23.4312 29.75H18.3754V18.375C18.3754 15.9588 16.4167 14 14.0004 14C11.5842 14 9.62542 15.9588 9.62542 18.375V33.8363L7.71967 31.164C6.74754 29.4386 4.59843 28.7708 2.81967 29.6415C1.06721 30.5916 0.391719 32.7656 1.29717 34.5415L4.97217 41.5292C5.12216 41.8172 5.41926 41.9984 5.74392 42H30.6254C31.1087 42 31.5004 41.6082 31.5004 41.125V38.234C31.5494 33.6885 27.9735 29.9287 23.4312 29.75Z" fill="white"/>
</svg>
