<svg width="610" height="132" viewBox="0 0 610 132" fill="none" xmlns="http://www.w3.org/2000/svg">
<rect x="18.6503" y="115.25" width="21" height="18" rx="3" transform="rotate(-27.6327 18.6503 115.25)" stroke="#CDCDCD" stroke-width="2"/>
<rect x="35.9883" y="109.56" width="12" height="15" rx="1" transform="rotate(62.3673 35.9883 109.56)" fill="#DDE5ED"/>
<rect x="39.7558" y="104.044" width="21" height="18" rx="3" transform="rotate(-38.2143 39.7558 104.044)" stroke="#CDCDCD" stroke-width="2"/>
<rect x="55.7539" y="95.2656" width="12" height="15" rx="1" transform="rotate(51.7857 55.7539 95.2656)" fill="#DDE5ED"/>
<rect x="58.4463" y="89.1561" width="21" height="18" rx="3" transform="rotate(-48.7959 58.4463 89.1561)" stroke="#CDCDCD" stroke-width="2"/>
<rect x="72.5605" y="77.5898" width="12" height="15" rx="1" transform="rotate(41.2041 72.5605 77.5898)" fill="#DDE5ED"/>
<rect x="74.0813" y="71.0855" width="21" height="18" rx="3" transform="rotate(-59.3776 74.0813 71.0855)" stroke="#CDCDCD" stroke-width="2"/>
<rect x="85.832" y="57.124" width="12" height="15" rx="1" transform="rotate(30.6224 85.832 57.124)" fill="#DDE5ED"/>
<rect x="86.1339" y="50.4483" width="21" height="18" rx="3" transform="rotate(-69.9592 86.1339 50.4483)" stroke="#CDCDCD" stroke-width="2"/>
<rect x="95.1211" y="34.5664" width="12" height="15" rx="1" transform="rotate(20.0408 95.1211 34.5664)" fill="#DDE5ED"/>
<rect x="1.34974" y="-0.422138" width="21" height="18" rx="3" transform="matrix(-0.885939 -0.463801 -0.463801 0.885939 592.307 105.25)" stroke="#CDCDCD" stroke-width="2"/>
<rect width="11.9982" height="15.0022" rx="1" transform="matrix(-0.463869 0.88607 0.885809 0.463733 573.969 98.5596)" fill="#DDE5ED"/>
<rect x="1.40431" y="-0.167098" width="21" height="18" rx="3" transform="matrix(-0.785703 -0.618604 -0.618604 0.785703 571.201 94.0438)" stroke="#CDCDCD" stroke-width="2"/>
<rect width="11.9982" height="15.0022" rx="1" transform="matrix(-0.618696 0.785818 0.785587 0.618513 554.203 84.2656)" fill="#DDE5ED"/>
<rect x="1.41111" y="0.0936253" width="21" height="18" rx="3" transform="matrix(-0.658743 -0.752368 -0.752368 0.658743 552.511 79.1561)" stroke="#CDCDCD" stroke-width="2"/>
<rect width="11.9982" height="15.0022" rx="1" transform="matrix(-0.752479 0.65884 0.658646 0.752257 537.396 66.5898)" fill="#DDE5ED"/>
<rect x="1.36992" y="0.351164" width="21" height="18" rx="3" transform="matrix(-0.509378 -0.860543 -0.860543 0.509378 536.876 61.0855)" stroke="#CDCDCD" stroke-width="2"/>
<rect width="11.9982" height="15.0022" rx="1" transform="matrix(-0.860669 0.509453 0.509303 0.860416 524.125 46.124)" fill="#DDE5ED"/>
<rect x="1.28214" y="0.59676" width="21" height="18" rx="3" transform="matrix(-0.342689 -0.939449 -0.939449 0.342689 524.823 40.4483)" stroke="#CDCDCD" stroke-width="2"/>
<rect width="11.9982" height="15.0022" rx="1" transform="matrix(-0.939587 0.34274 0.342639 0.93931 514.836 23.5664)" fill="#DDE5ED"/>
</svg>
