<svg width="43" height="42" viewBox="0 0 43 42" fill="none" xmlns="http://www.w3.org/2000/svg">
<path d="M4.45703 0H39.457C41.39 0 42.957 1.567 42.957 3.5V19.25C42.957 21.183 41.39 22.75 39.457 22.75H37.707C36.7405 22.75 35.957 21.9665 35.957 21C35.957 20.0335 36.7405 19.25 37.707 19.25H38.582C39.0653 19.25 39.457 18.8582 39.457 18.375V4.375C39.457 3.89175 39.0653 3.5 38.582 3.5H5.33203C4.84878 3.5 4.45703 3.89175 4.45703 4.375V18.375C4.45703 18.8582 4.84878 19.25 5.33203 19.25H20.207C21.1735 19.25 21.957 20.0335 21.957 21C21.957 21.9665 21.1735 22.75 20.207 22.75H4.45703C2.52404 22.75 0.957031 21.183 0.957031 19.25V3.5C0.957031 1.567 2.52404 0 4.45703 0Z" fill="white"/>
<path d="M14.957 16.6247H14.8992C14.4147 16.6089 13.9584 16.3928 13.6392 16.028L7.51422 9.02795C6.87778 8.30018 6.95182 7.19427 7.67959 6.55783C8.40737 5.92139 9.51328 5.99543 10.1497 6.7232L15.0497 12.3232L17.2197 10.1392C17.6591 9.68428 18.3098 9.50183 18.9216 9.66198C19.5335 9.82213 20.0113 10.3 20.1714 10.9118C20.3316 11.5237 20.1491 12.1743 19.6942 12.6137L16.1942 16.1137C15.8658 16.4413 15.4208 16.6251 14.957 16.6247Z" fill="white"/>
<path d="M19.5259 29.75H24.5816V18.375C24.5816 15.9588 26.5404 14 28.9566 14C31.3729 14 33.3316 15.9588 33.3316 18.375V33.8363L35.2374 31.164C36.2095 29.4386 38.3586 28.7708 40.1374 29.6415C41.8898 30.5916 42.5653 32.7656 41.6599 34.5415L37.9849 41.5292C37.8349 41.8172 37.5378 41.9984 37.2131 42H12.3316C11.8484 42 11.4566 41.6082 11.4566 41.125V38.234C11.4076 33.6885 14.9836 29.9287 19.5259 29.75Z" fill="white"/>
</svg>
