<svg width="610" height="132" viewBox="0 0 610 132" fill="none" xmlns="http://www.w3.org/2000/svg">
<rect x="1.34974" y="-0.422138" width="21" height="18" rx="3" transform="matrix(-0.885939 -0.463801 -0.463801 0.885939 592.307 105.25)" stroke="#CDCDCD" stroke-width="2"/>
<rect width="11.9982" height="15.0022" rx="1" transform="matrix(-0.463869 0.88607 0.885809 0.463733 573.969 98.5596)" fill="#DDE5ED"/>
<rect x="1.40431" y="-0.167098" width="21" height="18" rx="3" transform="matrix(-0.785703 -0.618604 -0.618604 0.785703 571.201 94.0438)" stroke="#CDCDCD" stroke-width="2"/>
<rect width="11.9982" height="15.0022" rx="1" transform="matrix(-0.618696 0.785818 0.785587 0.618513 554.203 84.2656)" fill="#DDE5ED"/>
<rect x="1.41111" y="0.0936253" width="21" height="18" rx="3" transform="matrix(-0.658743 -0.752368 -0.752368 0.658743 552.511 79.1561)" stroke="#CDCDCD" stroke-width="2"/>
<rect width="11.9982" height="15.0022" rx="1" transform="matrix(-0.752479 0.65884 0.658646 0.752257 537.396 66.5898)" fill="#DDE5ED"/>
<rect x="1.36992" y="0.351164" width="21" height="18" rx="3" transform="matrix(-0.509378 -0.860543 -0.860543 0.509378 536.876 61.0855)" stroke="#CDCDCD" stroke-width="2"/>
<rect width="11.9982" height="15.0022" rx="1" transform="matrix(-0.860669 0.509453 0.509303 0.860416 524.125 46.124)" fill="#DDE5ED"/>
<rect x="1.28214" y="0.59676" width="21" height="18" rx="3" transform="matrix(-0.342689 -0.939449 -0.939449 0.342689 524.823 40.4483)" stroke="#CDCDCD" stroke-width="2"/>
<rect width="11.9982" height="15.0022" rx="1" transform="matrix(-0.939587 0.34274 0.342639 0.93931 514.836 23.5664)" fill="#DDE5ED"/>
</svg>
