<svg width="17" height="17" viewBox="0 0 17 17" fill="none" xmlns="http://www.w3.org/2000/svg">
<path d="M16.0407 0.977515C15.7161 0.653328 15.1903 0.653328 14.8656 0.977515L12.3632 3.47991C12.3321 3.51116 12.2897 3.52873 12.2456 3.52873C12.2015 3.52873 12.1591 3.51116 12.128 3.47991L11.2473 2.59925C11.1523 2.50404 11.0093 2.47545 10.8851 2.52682C10.7608 2.57819 10.6797 2.6994 10.6797 2.83387V6.00623C10.6797 6.18977 10.8285 6.33855 11.012 6.33855H14.1844C14.3188 6.33853 14.44 6.25746 14.4914 6.13318C14.5428 6.0089 14.5142 5.86591 14.419 5.77095L13.5377 4.88896C13.5067 4.85762 13.4893 4.81537 13.4891 4.77132C13.4893 4.72734 13.507 4.68525 13.5383 4.65434L16.0407 2.15195C16.3645 1.8274 16.3645 1.30206 16.0407 0.977515V0.977515Z" fill="white"/>
<path d="M0.909156 16.111C1.23378 16.4352 1.75963 16.4352 2.08425 16.111L4.58665 13.6086C4.61771 13.5774 4.65992 13.5599 4.70396 13.5599C4.74799 13.5599 4.79021 13.5774 4.82127 13.6086L5.70259 14.4893C5.76492 14.5518 5.84958 14.587 5.93787 14.587C5.98141 14.5868 6.02451 14.5782 6.06482 14.5617C6.1891 14.5104 6.27017 14.3892 6.27019 14.2547V11.0823C6.27019 10.8988 6.12141 10.75 5.93787 10.75H2.76551C2.63104 10.75 2.50983 10.8311 2.45846 10.9554C2.40709 11.0797 2.43568 11.2226 2.53089 11.3176L3.41155 12.2009C3.4428 12.2321 3.46037 12.2744 3.46037 12.3186C3.46037 12.3627 3.4428 12.405 3.41155 12.4362L0.909156 14.9359C0.584969 15.2606 0.584969 15.7864 0.909156 16.111Z" fill="white"/>
<path d="M10.8851 14.5617C10.9254 14.5782 10.9685 14.5868 11.012 14.587C11.1003 14.587 11.185 14.5518 11.2473 14.4893L12.1299 13.6086C12.161 13.5774 12.2032 13.5599 12.2473 13.5599C12.2913 13.5599 12.3335 13.5774 12.3646 13.6086L14.867 16.111C15.1915 16.4355 15.7176 16.4355 16.0421 16.111C16.3665 15.7865 16.3665 15.2604 16.0421 14.9359L13.5383 12.4335C13.5071 12.4024 13.4895 12.36 13.4895 12.3159C13.4895 12.2718 13.5071 12.2294 13.5383 12.1983L14.419 11.3176C14.5142 11.2226 14.5428 11.0797 14.4914 10.9554C14.44 10.8311 14.3188 10.75 14.1844 10.75H11.012C10.8285 10.75 10.6797 10.8988 10.6797 11.0823V14.2547C10.6797 14.3892 10.7608 14.5104 10.8851 14.5617Z" fill="white"/>
<path d="M6.26945 2.8341C6.26942 2.69963 6.18835 2.57842 6.06407 2.52705C5.93979 2.47568 5.79681 2.50427 5.70184 2.59948L4.81919 3.48014C4.78831 3.51168 4.74602 3.52946 4.70188 3.52946C4.65773 3.52946 4.61545 3.51168 4.58457 3.48014L2.0835 0.977745C1.75901 0.653252 1.2329 0.653252 0.908409 0.977745C0.583916 1.30224 0.583916 1.82835 0.908409 2.15284L3.4108 4.65523C3.44206 4.68641 3.45962 4.72873 3.45962 4.77288C3.45962 4.81702 3.44206 4.85935 3.4108 4.89052L2.53015 5.77118C2.43494 5.86614 2.40635 6.00913 2.45772 6.13341C2.50909 6.25769 2.63029 6.33876 2.76477 6.33878H5.93712C6.12066 6.33878 6.26945 6.19 6.26945 6.00646V2.8341Z" fill="white"/>
<ellipse cx="8.47447" cy="8.54478" rx="1.93346" ry="1.93346" fill="white"/>
</svg>
