<svg width="43" height="43" viewBox="0 0 43 43" fill="none" xmlns="http://www.w3.org/2000/svg">
<path fill-rule="evenodd" clip-rule="evenodd" d="M41.5098 25.5625H10.0098V21.625C10.0098 19.4504 8.24689 17.6875 6.07227 17.6875C3.89764 17.6875 2.13477 19.4504 2.13477 21.625V30.8125C2.13477 32.2622 3.31002 33.4375 4.75977 33.4375H38.8848C40.3345 33.4375 41.5098 32.2622 41.5098 30.8125V25.5625Z" stroke="white" stroke-width="2" stroke-linecap="round" stroke-linejoin="round"/>
<path d="M7.38477 33.4375V36.0625" stroke="white" stroke-width="1.5" stroke-linecap="round" stroke-linejoin="round"/>
<path d="M36.2598 33.4375V36.0625" stroke="white" stroke-width="1.5" stroke-linecap="round" stroke-linejoin="round"/>
<path d="M41.5098 25.5623C41.5098 10.6978 21.8293 19.1888 20.2613 13.0936C19.2723 9.25084 15.5789 6.74407 11.6426 7.244C7.70626 7.74393 4.75671 11.0944 4.75977 15.0623V17.9131" stroke="white" stroke-width="2" stroke-linecap="round" stroke-linejoin="round"/>
</svg>
