<svg width="17" height="17" viewBox="0 0 17 17" fill="none" xmlns="http://www.w3.org/2000/svg">
<path d="M3.91016 9.46875V13.7315C3.91016 13.8637 3.96268 13.9905 4.05616 14.084C4.14964 14.1775 4.27643 14.23 4.40864 14.23H13.3814C13.5136 14.23 13.6404 14.1775 13.7339 14.084C13.8273 13.9905 13.8799 13.8637 13.8799 13.7315V9.46885" stroke="white" stroke-width="1.13939" stroke-linecap="round" stroke-linejoin="round"/>
<path d="M4.28704 3.26367H13.5047C13.613 3.26367 13.7184 3.29896 13.8049 3.36419C13.8914 3.42943 13.9543 3.52105 13.984 3.62521L14.8777 6.75307H2.91406L3.80773 3.62521C3.83749 3.52105 3.90037 3.42943 3.98685 3.36419C4.07334 3.29896 4.17871 3.26367 4.28704 3.26367Z" stroke="white" stroke-width="1.13939" stroke-linecap="round" stroke-linejoin="round"/>
<path d="M6.90194 6.75391V7.75088C6.90194 8.2797 6.69187 8.78687 6.31793 9.1608C5.94399 9.53474 5.43683 9.74482 4.908 9.74482C4.37918 9.74482 3.87201 9.53474 3.49807 9.1608C3.12414 8.78687 2.91406 8.2797 2.91406 7.75088V6.75391" stroke="white" stroke-width="1.13939" stroke-linecap="round" stroke-linejoin="round"/>
<path d="M10.8883 6.75391V7.75088C10.8883 8.2797 10.6782 8.78687 10.3043 9.1608C9.93032 9.53474 9.42316 9.74482 8.89433 9.74482C8.3655 9.74482 7.85834 9.53474 7.4844 9.1608C7.11047 8.78687 6.90039 8.2797 6.90039 7.75088V6.75391" stroke="white" stroke-width="1.13939" stroke-linecap="round" stroke-linejoin="round"/>
<path d="M14.8766 6.75391V7.75088C14.8766 8.2797 14.6665 8.78687 14.2925 9.1608C13.9186 9.53474 13.4114 9.74482 12.8826 9.74482C12.3538 9.74482 11.8466 9.53474 11.4727 9.1608C11.0987 8.78687 10.8887 8.2797 10.8887 7.75088V6.75391" stroke="white" stroke-width="1.13939" stroke-linecap="round" stroke-linejoin="round"/>
</svg>
