<svg width="42" height="42" viewBox="0 0 42 42" fill="none" xmlns="http://www.w3.org/2000/svg">
<path d="M20.9998 8.04951C28.6996 7.94102 36.3769 13.3234 41.0057 18.4157C42.3205 19.8825 42.3232 22.1034 41.0116 23.573C36.4319 28.6129 28.8648 33.9488 21.2577 33.9489H20.7186C13.1376 33.9489 5.56848 28.6132 0.993979 23.5749C-0.319546 22.1061 -0.319669 19.8844 0.993979 18.4157C5.6227 13.3251 13.3 7.93938 20.9998 8.04951ZM20.9998 12.9489C16.5542 12.9491 12.9503 16.5531 12.95 20.9987C12.95 25.4445 16.5541 29.0494 20.9998 29.0495C25.4457 29.0495 29.0496 25.4446 29.0496 20.9987C29.0494 16.553 25.4456 12.9489 20.9998 12.9489Z" fill="white"/>
<circle cx="21" cy="20.999" r="3.5" fill="white"/>
</svg>
