<svg width="32" height="42" viewBox="0 0 32 42" fill="none" xmlns="http://www.w3.org/2000/svg">
<path d="M7.98369 40.9496C11.7801 41.7071 15.6605 40.1138 17.8292 36.9071C18.2053 36.3697 18.2522 35.668 17.951 35.0854C17.6497 34.5028 17.0501 34.1354 16.3942 34.1316C15.8329 34.1186 15.3025 34.3881 14.9819 34.8491C13.532 37.0827 10.8023 38.1198 8.23504 37.4126C5.66774 36.7053 3.85432 34.4165 3.75284 31.7555C3.65136 29.0945 5.28521 26.6743 7.79119 25.7736C8.50768 25.53 8.99242 24.8608 9.00044 24.1041C8.99765 23.5254 8.71258 22.9845 8.23677 22.6551C7.76097 22.3257 7.15433 22.2492 6.61169 22.4503C2.5406 23.9112 -0.0560398 27.9082 0.263864 32.2216C0.583768 36.535 3.74164 40.1053 7.98369 40.9496Z" fill="white"/>
<circle cx="14.25" cy="5.25" r="4.375" fill="white"/>
<path d="M11.625 28.875C11.625 30.3247 12.8003 31.5 14.25 31.5H22.125C22.4267 31.5 22.7071 31.6554 22.867 31.9112L26.892 38.1413C27.3738 38.9054 28.2146 39.3681 29.118 39.3662C30.0748 39.3676 30.9565 38.8483 31.4193 38.0109C31.882 37.1735 31.8525 36.1506 31.3423 35.3412L27.3173 29.1112C26.1989 27.3226 24.2345 26.2401 22.125 26.25H17.75C17.2668 26.25 16.875 25.8582 16.875 25.375V23.1875C16.875 22.9459 17.0709 22.75 17.3125 22.75H23C24.4497 22.75 25.625 21.5747 25.625 20.125C25.625 18.6753 24.4497 17.5 23 17.5H17.3125C17.0709 17.5 16.875 17.3041 16.875 17.0625V14.875C16.875 13.4253 15.6997 12.25 14.25 12.25C12.8003 12.25 11.625 13.4253 11.625 14.875L11.625 28.875Z" fill="white"/>
</svg>
