<?xml version="1.0" encoding="utf-8"?>
<svg width="24" height="24" viewBox="0 0 24 24" fill="none" xmlns="http://www.w3.org/2000/svg">
<path d="M23.25 20.25C23.25 20.4489 23.171 20.6396 23.0303 20.7803C22.8897 20.921 22.6989 21 22.5 21H9C8.80109 21 8.61032 20.921 8.46967 20.7803C8.32902 20.6397 8.25 20.4489 8.25 20.25C8.25 20.0511 8.32902 19.8603 8.46967 19.7196C8.61032 19.579 8.80109 19.5 9 19.5H22.5C22.6989 19.5 22.8897 19.579 23.0303 19.7196C23.171 19.8603 23.25 20.0511 23.25 20.25ZM21 17.625C21.0995 17.625 21.1948 17.5855 21.2652 17.5151C21.3355 17.4448 21.375 17.3494 21.375 17.25V13.9052C21.3733 13.168 21.131 12.4514 20.6849 11.8645C20.2387 11.2775 19.6132 10.8523 18.9033 10.6534L14.499 9.42995L11.5756 4.31394C11.5298 4.23383 11.4561 4.1734 11.3686 4.1442L10.1058 3.72324C9.93666 3.66688 9.75657 3.65151 9.58035 3.6784C9.40413 3.70529 9.23682 3.77367 9.09221 3.8779C8.9476 3.98214 8.82983 4.11924 8.7486 4.27792C8.66737 4.43659 8.62501 4.6123 8.625 4.79056V7.73989L6.25854 7.00037L4.83087 4.32351C4.78567 4.23876 4.70968 4.17458 4.61856 4.1442L3.35577 3.72324C3.18666 3.66688 3.00657 3.65151 2.83035 3.6784C2.65413 3.70529 2.48682 3.77367 2.34221 3.8779C2.1976 3.98214 2.07983 4.11924 1.9986 4.27792C1.91737 4.43659 1.87501 4.6123 1.875 4.79056V9.72461C1.87686 10.4606 2.11847 11.176 2.56326 11.7624C3.00805 12.3488 3.6318 12.7744 4.34006 12.9746L20.8989 17.6111C20.9318 17.6203 20.9658 17.625 21 17.625Z" fill="#084983"/>
</svg>
