<?xml version="1.0" encoding="utf-8"?>
<svg width="247" height="31" viewBox="0 0 247 31" fill="none" xmlns="http://www.w3.org/2000/svg">
<path d="M107.601 21.1782C107.553 20.2632 107.325 19.5568 106.921 19.0455C106.477 18.4803 105.818 18.1977 104.95 18.1977C104.082 18.1977 103.382 18.5207 102.864 19.1733C102.454 19.6846 102.205 20.3507 102.117 21.1782H107.601ZM104.835 27.1258C103.443 27.1258 102.346 26.6817 101.552 25.8004C100.751 24.9123 100.354 23.6945 100.354 22.1336C100.354 20.4785 100.778 19.1598 101.619 18.1776C102.46 17.1953 103.597 16.7109 105.017 16.7109C106.302 16.7109 107.345 17.1885 108.132 18.1506C108.926 19.106 109.316 20.3642 109.316 21.925L109.296 22.5171H102.11C102.178 23.4994 102.4 24.2462 102.783 24.7642C103.248 25.39 103.981 25.7062 104.99 25.7062C105.622 25.7062 106.174 25.5312 106.645 25.1747C107.116 24.8181 107.405 24.374 107.506 23.8223H109.148C108.906 24.8988 108.408 25.7196 107.675 26.2848C106.941 26.8499 105.993 27.1325 104.829 27.1325L104.835 27.1258ZM85.1291 26.8634V17.0136H86.7034V18.4736L87.0398 18.0295C87.7799 17.1482 88.668 16.7109 89.6974 16.7109C90.5855 16.7109 91.2852 16.9733 91.8032 17.4913C92.0387 17.7268 92.2204 17.9892 92.3482 18.2919L92.6173 17.9555C93.3238 17.128 94.1782 16.7109 95.1605 16.7109C96.1428 16.7109 96.9838 16.9934 97.5489 17.5519C98.1141 18.117 98.3899 18.9109 98.3899 19.947V26.8701H96.7348V20.5122C96.7348 19.7586 96.5801 19.1935 96.2773 18.81C95.9678 18.4265 95.5238 18.2314 94.9317 18.2314C94.2186 18.2314 93.6467 18.514 93.2228 19.0724C92.799 19.6308 92.5904 20.3911 92.5904 21.3397V26.8836H90.9353V20.1287C90.9353 19.5164 90.794 19.0455 90.5182 18.7225C90.2356 18.3996 89.8319 18.2381 89.3004 18.2381C88.5671 18.2381 87.9616 18.5543 87.4973 19.18C87.0264 19.8057 86.7909 20.6198 86.7909 21.6088V26.8903H85.1358L85.1291 26.8634ZM78.6635 25.6994C79.5314 25.6994 80.2244 25.3563 80.7357 24.6768C81.2538 23.9973 81.5094 23.0755 81.5094 21.925C81.5094 20.7746 81.2538 19.8528 80.7357 19.1733C80.2177 18.4938 79.5314 18.1506 78.6635 18.1506C77.7956 18.1506 77.1026 18.4938 76.5913 19.1733C76.0799 19.8596 75.8243 20.7746 75.8243 21.925C75.8243 23.0755 76.0799 23.9973 76.5913 24.6768C77.1026 25.3563 77.7956 25.6994 78.6635 25.6994ZM78.6635 27.1258C77.2977 27.1258 76.201 26.6481 75.3533 25.686C74.5056 24.7306 74.0885 23.4725 74.0885 21.9183C74.0885 20.3642 74.5123 19.0993 75.3533 18.1439C76.201 17.1885 77.2977 16.7109 78.6635 16.7109C80.0293 16.7109 81.1461 17.1885 81.9871 18.1439C82.8281 19.0993 83.2452 20.3574 83.2452 21.9183C83.2452 23.4792 82.8214 24.7306 81.9871 25.686C81.1461 26.6414 80.036 27.1258 78.6635 27.1258ZM68.6052 26.8634V17.0136H70.1795V18.6956C70.3208 18.4332 70.4688 18.191 70.6303 17.9757C71.256 17.128 72.0297 16.7109 72.938 16.7109C73.086 16.7109 73.2475 16.7378 73.4089 16.7916V18.487H73.0725C72.1777 18.4803 71.4847 18.7494 71.0003 19.2877C70.5159 19.8259 70.267 20.5862 70.267 21.5819V26.8634H68.6119H68.6052ZM64.676 21.1782C64.6289 20.2632 64.4002 19.5568 63.9965 19.0455C63.5525 18.4803 62.8931 18.1977 62.0252 18.1977C61.1573 18.1977 60.4576 18.5207 59.9395 19.1733C59.5291 19.6846 59.2802 20.3507 59.1927 21.1782H64.676ZM61.9108 27.1258C60.5181 27.1258 59.4215 26.6817 58.6276 25.8004C57.827 24.9123 57.43 23.6945 57.43 22.1336C57.43 20.4785 57.8539 19.1598 58.6949 18.1776C59.5359 17.1953 60.6729 16.7109 62.0925 16.7109C63.3775 16.7109 64.4204 17.1885 65.2075 18.1506C66.0014 19.106 66.3917 20.3642 66.3917 21.925L66.3715 22.5171H59.186C59.2533 23.4994 59.4753 24.2462 59.8588 24.7642C60.323 25.39 61.0564 25.7062 62.0656 25.7062C62.698 25.7062 63.2497 25.5312 63.7206 25.1747C64.1916 24.8181 64.4809 24.374 64.5818 23.8223H66.2235C65.9813 24.8988 65.4834 25.7196 64.75 26.2848C64.0167 26.8499 63.068 27.1325 61.9041 27.1325L61.9108 27.1258ZM53.4941 13.3401H55.3241V23.0755C55.3241 24.4077 54.9877 25.4303 54.3149 26.1569C53.6421 26.8836 52.6868 27.2401 51.4488 27.2401C50.2109 27.2401 49.2084 26.9037 48.5289 26.2309C47.8426 25.5581 47.5264 24.6297 47.5802 23.4523V22.5171H49.2959V23.4523C49.2959 24.1655 49.4775 24.7172 49.8274 25.1006C50.184 25.4841 50.6886 25.6793 51.3412 25.6793C51.9938 25.6793 52.5253 25.4438 52.9155 24.9728C53.299 24.5019 53.4941 23.8694 53.4941 23.0621V13.3334V13.3401ZM41.6327 26.8432C41.0676 26.9307 40.6504 26.9778 40.3948 26.9778C39.6681 26.9778 39.1568 26.8163 38.8608 26.5001C38.5648 26.1839 38.41 25.6322 38.41 24.8517V18.3525H37.051V17.0136H38.41V14.2619H40.0651V17.0136H41.626V18.3525H40.0651V24.8517C40.0651 25.0737 40.1526 25.2487 40.3275 25.3765C40.5024 25.5043 40.7379 25.5716 41.0339 25.5716H41.626V26.8499L41.6327 26.8432ZM27.5376 26.8634V17.0136H29.1119V18.4601L29.482 17.969C30.1952 17.128 31.0967 16.7109 32.1732 16.7109C33.2497 16.7109 34.0974 17.0069 34.6827 17.599C35.268 18.191 35.5641 19.0253 35.5641 20.1152V26.8701H33.909V20.6736C33.909 19.8057 33.7408 19.18 33.4111 18.7965C33.0747 18.413 32.5365 18.2179 31.7897 18.2179C30.9891 18.2179 30.3634 18.5207 29.8991 19.1262C29.4349 19.7317 29.1994 20.5525 29.1994 21.5819V26.8634H27.5443H27.5376ZM23.3932 13.32H25.0886V15.2038H23.3932V13.32ZM23.4134 26.8634V17.0136H25.0684V26.8634H23.4134ZM18.9056 22.9612V21.8914C18.5961 22.0394 18.2597 22.1403 17.883 22.1942L16.3624 22.4162C15.5618 22.5238 14.9832 22.7122 14.6132 22.9746C14.2431 23.237 14.0615 23.5936 14.0615 24.0444C14.0615 24.6028 14.2095 25.0266 14.5122 25.3227C14.8083 25.6187 15.2389 25.7734 15.7906 25.7734C16.6652 25.7734 17.3985 25.538 18.0041 25.0603C18.4145 24.7306 18.6903 24.3538 18.8249 23.93C18.8451 23.8492 18.8652 23.7281 18.8787 23.5532C18.8989 23.3716 18.9056 23.1764 18.9056 22.9612ZM15.4676 27.1258C14.5055 27.1258 13.7385 26.8701 13.1734 26.352C12.6082 25.834 12.3257 25.141 12.3257 24.2597C12.3257 23.3783 12.5948 22.6718 13.1263 22.1538C13.6578 21.6357 14.4315 21.3061 15.4474 21.1782L17.708 20.8957C17.8897 20.8822 18.0646 20.8486 18.2328 20.8015C18.4481 20.7476 18.6096 20.6333 18.7307 20.4718C18.8451 20.3036 18.9056 20.095 18.9056 19.8461V19.7586C18.9056 19.2271 18.7038 18.8167 18.3068 18.514C17.9099 18.2179 17.3514 18.0632 16.6383 18.0632C15.9251 18.0632 15.4273 18.2179 15.0438 18.5341C14.6603 18.8504 14.4315 19.3213 14.3508 19.947H12.8235C12.9043 18.8705 13.281 18.0632 13.9606 17.5182C14.6401 16.9733 15.6156 16.7041 16.8872 16.7041C18.0848 16.7041 18.9998 16.9665 19.6255 17.4846C20.2512 18.0026 20.5674 18.7562 20.5674 19.7519V25.1679C20.5674 25.3294 20.6145 25.464 20.7222 25.5649C20.8231 25.6658 20.9576 25.7196 21.1326 25.7196C21.1797 25.7196 21.2537 25.7196 21.3479 25.6994C21.4421 25.686 21.5497 25.6658 21.6574 25.6456V26.8432C21.4959 26.9037 21.3277 26.9576 21.146 26.9912C20.9644 27.0316 20.8164 27.045 20.6953 27.045C20.0695 27.045 19.612 26.8701 19.3295 26.527C19.1411 26.2982 19.0133 25.982 18.9325 25.5649C18.8114 25.7196 18.6701 25.8676 18.5087 26.0089C17.6811 26.749 16.6652 27.119 15.4676 27.119V27.1258ZM8.76655 17.2558C8.68582 16.4014 8.34942 15.742 7.75736 15.2778C7.1653 14.8136 6.36467 14.5781 5.3622 14.5781C4.35973 14.5781 3.54564 14.7799 3.00741 15.1769C2.4759 15.5738 2.20678 16.1592 2.20678 16.9262C2.20678 17.4509 2.3817 17.8412 2.73829 18.0968C3.09487 18.3525 3.80804 18.6149 4.88451 18.8638L7.2393 19.429C8.50416 19.7317 9.40571 20.1758 9.94395 20.7611C10.4889 21.3464 10.758 22.174 10.758 23.2437C10.758 24.4682 10.2938 25.4438 9.36534 26.1637C8.43688 26.8836 7.17875 27.2401 5.59095 27.2401C3.82822 27.2401 2.44226 26.823 1.45324 26.0022C0.484414 25.1881 0 24.0713 0 22.6517V22.5507H1.67527C1.70891 23.533 2.05876 24.2866 2.74502 24.8181C3.42454 25.3496 4.37319 25.6187 5.59095 25.6187C6.71452 25.6187 7.56897 25.4236 8.15431 25.0401C8.73291 24.6566 9.02894 24.0847 9.02894 23.3379C9.02894 22.6853 8.84056 22.2076 8.45707 21.8914C8.0803 21.5819 7.30658 21.2926 6.14937 21.0168L3.78785 20.4516C2.597 20.169 1.74927 19.7788 1.23795 19.2742C0.733349 18.7696 0.477688 18.0699 0.477688 17.1818C0.477688 15.8833 0.915006 14.8607 1.79637 14.1004C2.67774 13.3469 3.86859 12.9634 5.3622 12.9634C6.85581 12.9634 8.09375 13.3401 8.9953 14.1071C9.89685 14.8674 10.3813 15.917 10.4418 17.2626H8.76655V17.2558Z" fill="#5B5B5B"/>
<path d="M202.505 26.924C201.94 27.0115 201.523 27.0586 201.267 27.0586C200.54 27.0586 200.029 26.8971 199.733 26.5809C199.437 26.2647 199.282 25.713 199.282 24.9325V18.4333H197.923V17.0944H199.282V14.3427H200.937V17.0944H202.498V18.4333H200.937V24.9325C200.937 25.1545 201.025 25.3295 201.2 25.4573C201.375 25.5851 201.61 25.6524 201.906 25.6524H202.498V26.9307L202.505 26.924ZM192.837 26.9375V17.0877H194.411V18.7697C194.552 18.5073 194.7 18.2651 194.862 18.0498C195.488 17.2021 196.261 16.7849 197.17 16.7849C197.318 16.7849 197.479 16.8119 197.641 16.8657V18.5611H197.304C196.409 18.5544 195.716 18.8235 195.232 19.3618C194.748 19.9 194.499 20.6603 194.499 21.656V26.9375H192.844H192.837ZM186.142 25.7735C187.01 25.7735 187.703 25.4304 188.215 24.7509C188.733 24.0713 188.988 23.1496 188.988 21.9991C188.988 20.8486 188.733 19.9269 188.215 19.2474C187.697 18.5679 187.01 18.2247 186.142 18.2247C185.275 18.2247 184.582 18.5679 184.07 19.2474C183.559 19.9336 183.303 20.8486 183.303 21.9991C183.303 23.1496 183.559 24.0713 184.07 24.7509C184.582 25.4304 185.275 25.7735 186.142 25.7735ZM186.142 27.2066C184.777 27.2066 183.68 26.7289 182.832 25.7668C181.985 24.8114 181.567 23.5533 181.567 21.9991C181.567 20.445 181.991 19.1801 182.832 18.2247C183.68 17.2694 184.777 16.7917 186.142 16.7917C187.508 16.7917 188.625 17.2694 189.466 18.2247C190.307 19.1801 190.724 20.4382 190.724 21.9991C190.724 23.56 190.3 24.8114 189.466 25.7668C188.625 26.7222 187.515 27.2066 186.142 27.2066ZM175.802 25.7735C176.663 25.7735 177.322 25.4438 177.766 24.7912C178.217 24.1386 178.439 23.1832 178.439 21.9251C178.439 20.667 178.224 19.7722 177.793 19.1801C177.369 18.588 176.703 18.292 175.808 18.292C174.913 18.292 174.227 18.6284 173.81 19.2945C173.393 19.9673 173.184 21.0236 173.184 22.4768C173.184 23.5264 173.413 24.3405 173.864 24.9123C174.315 25.4842 174.961 25.7668 175.802 25.7668V25.7735ZM171.529 17.0877H173.104V18.4871L173.184 18.366C173.898 17.3165 174.833 16.7849 175.99 16.7849C177.275 16.7849 178.298 17.229 179.051 18.1171C179.805 19.0052 180.181 20.2028 180.181 21.7165C180.181 23.4255 179.805 24.7711 179.044 25.7466C178.291 26.7222 177.241 27.2066 175.896 27.2066C174.786 27.2066 173.904 26.7827 173.252 25.9283L173.198 25.8543V30.8464H171.543V17.0944L171.529 17.0877ZM165.609 26.9375V17.0877H167.183V18.7697C167.324 18.5073 167.472 18.2651 167.634 18.0498C168.259 17.2021 169.033 16.7849 169.941 16.7849C170.089 16.7849 170.251 16.8119 170.412 16.8657V18.5611H170.076C169.181 18.5544 168.488 18.8235 168.004 19.3618C167.519 19.9 167.27 20.6603 167.27 21.656V26.9375H165.615H165.609ZM161.235 13.394H162.931V15.2779H161.235V13.394ZM161.256 26.9375V17.0877H162.911V26.9375H161.256ZM153.741 15.399L151.567 21.4003H155.826L153.741 15.399ZM147.672 26.9375L152.778 13.4142H154.871L159.728 26.9375H157.764L156.385 23.0218H150.982L149.562 26.9375H147.679H147.672Z" fill="#5B5B5B"/>
<path d="M243.392 23.1829L242.753 25.1205H244.038L243.399 23.1829H243.392ZM241.118 26.9371L242.827 22.1064H243.998L245.707 26.9371H244.637L244.314 25.9548H242.477L242.161 26.9371H241.118ZM239.544 26.9371V22.1064H240.553V26.9371H239.544ZM236.557 26.9371V22.9609H235.097V22.1064H239.026V22.9609H237.566V26.9371H236.557ZM232.56 23.1829L231.921 25.1205H233.206L232.567 23.1829H232.56ZM230.279 26.9371L231.988 22.1064H233.159L234.868 26.9371H233.798L233.475 25.9548H231.645L231.329 26.9371H230.286H230.279ZM227.528 26.2172C227.938 26.2172 228.261 26.0692 228.49 25.7731C228.719 25.4771 228.84 25.0667 228.84 24.5419C228.84 24.0171 228.725 23.5866 228.49 23.2838C228.254 22.981 227.938 22.8263 227.528 22.8263C227.117 22.8263 226.794 22.9743 226.566 23.2838C226.33 23.5866 226.216 24.0037 226.216 24.5419C226.216 25.0802 226.33 25.4771 226.566 25.7731C226.794 26.0692 227.117 26.2172 227.528 26.2172ZM227.528 27.0716C226.815 27.0716 226.256 26.8429 225.832 26.3921C225.415 25.9346 225.207 25.3224 225.207 24.5487C225.207 23.7749 225.415 23.1291 225.832 22.6715C226.249 22.2073 226.815 21.9786 227.528 21.9786C228.241 21.9786 228.806 22.2073 229.223 22.6715C229.64 23.1358 229.849 23.7615 229.849 24.5487C229.849 25.3358 229.64 25.9346 229.223 26.3921C228.806 26.8429 228.241 27.0716 227.528 27.0716ZM221.573 24.219H222.744C223.006 24.219 223.202 24.1652 223.329 24.0575C223.457 23.9499 223.525 23.7884 223.525 23.5731C223.525 23.3578 223.464 23.2031 223.336 23.0954C223.215 22.9878 223.027 22.9339 222.778 22.9339H221.567V24.2123L221.573 24.219ZM220.564 26.9371V22.1064H223C223.464 22.1064 223.827 22.2275 224.11 22.4764C224.392 22.7254 224.534 23.0483 224.534 23.452C224.534 23.9162 224.379 24.2594 224.063 24.4746C223.982 24.5352 223.888 24.5823 223.78 24.6227C223.841 24.6496 223.895 24.6765 223.942 24.7034C224.218 24.8649 224.359 25.1407 224.372 25.5309L224.392 26.3248C224.392 26.4863 224.413 26.594 224.44 26.6612C224.466 26.7285 224.52 26.7823 224.601 26.8227V26.9505H223.491C223.464 26.8967 223.444 26.7958 223.424 26.6276C223.403 26.4594 223.39 26.2845 223.39 26.0961V25.652C223.377 25.4367 223.316 25.282 223.188 25.1878C223.067 25.0936 222.858 25.0533 222.576 25.0533H221.573V26.9573H220.564V26.9371ZM219.797 25.2484C219.737 25.8068 219.521 26.2508 219.145 26.5805C218.768 26.9102 218.29 27.0716 217.712 27.0716C217.032 27.0716 216.494 26.8429 216.097 26.3921C215.7 25.9346 215.498 25.3224 215.498 24.5487C215.498 23.7749 215.7 23.1291 216.097 22.6715C216.494 22.2073 217.039 21.9786 217.712 21.9786C218.283 21.9786 218.761 22.1333 219.138 22.4428C219.515 22.7523 219.737 23.1694 219.804 23.7009H218.795C218.761 23.4385 218.647 23.2367 218.458 23.082C218.27 22.9272 218.021 22.8532 217.725 22.8532C217.348 22.8532 217.059 23.0012 216.844 23.304C216.635 23.6067 216.527 24.0171 216.527 24.5487C216.527 25.0802 216.635 25.4704 216.844 25.7664C217.052 26.0557 217.348 26.2037 217.725 26.2037C218.021 26.2037 218.263 26.1163 218.458 25.9481C218.647 25.7731 218.761 25.5444 218.795 25.2551H219.804L219.797 25.2484ZM244.516 15.1766L243.877 17.1142H245.162L244.523 15.1766H244.516ZM242.242 18.9375L243.951 14.1068H245.121L246.83 18.9375H245.76L245.431 17.9552H243.601L243.285 18.9375H242.242ZM238.508 18.9375V14.1068H239.517V18.0831H241.919V18.9375H238.508ZM234.02 18.9375V14.1068H237.573V14.9613H235.029V15.9839H237.391V16.8182H235.029V18.0831H237.687V18.9375H234.02ZM230.952 18.9375V14.9613H229.492V14.1068H233.421V14.9613H231.961V18.9375H230.952ZM226.693 13.6157L225.933 12.6401H226.687L227.117 13.1918L227.541 12.6401H228.295L227.534 13.6157H226.693ZM228.039 15.5534C228.026 15.3246 227.925 15.1429 227.736 15.0084C227.555 14.8738 227.312 14.8065 227.016 14.8065C226.761 14.8065 226.559 14.8604 226.418 14.9747C226.27 15.0891 226.202 15.2439 226.202 15.4457C226.202 15.5937 226.276 15.7014 226.431 15.7821C226.579 15.8628 226.895 15.957 227.38 16.0647C228.079 16.2194 228.55 16.4078 228.786 16.6096C229.021 16.8115 229.142 17.1412 229.142 17.5919C229.142 18.0427 228.961 18.406 228.604 18.6684C228.248 18.9375 227.763 19.0721 227.158 19.0721C226.552 19.0721 226.068 18.9308 225.725 18.6482C225.381 18.3656 225.2 17.962 225.173 17.4439H226.148C226.162 17.6996 226.249 17.8947 226.424 18.0292C226.599 18.1705 226.841 18.2378 227.158 18.2378C227.474 18.2378 227.73 18.184 227.911 18.0831C228.093 17.9754 228.18 17.8341 228.18 17.6525C228.18 17.4708 228.113 17.3363 227.985 17.2488C227.857 17.1613 227.588 17.0739 227.171 16.9864C226.404 16.8115 225.893 16.6298 225.637 16.428C225.381 16.2329 225.254 15.9234 225.254 15.4995C225.254 15.0286 225.422 14.6585 225.765 14.3827C226.101 14.1068 226.566 13.9723 227.137 13.9723C227.676 13.9723 228.113 14.1136 228.456 14.4029C228.793 14.6854 228.981 15.0689 229.021 15.5534H228.039ZM222.468 15.1766L221.829 17.1142H223.114L222.475 15.1766H222.468ZM220.187 18.9375L221.896 14.1068H223.067L224.776 18.9375H223.706L223.377 17.9552H221.547L221.23 18.9375H220.187ZM215.781 18.9375V14.1068H216.79V16.105L218.64 14.1068H219.925L218.001 16.0781L220.06 18.9375H218.741L217.288 16.8115L216.797 17.3094V18.9308H215.787L215.781 18.9375Z" fill="#5B5B5B"/>
<path fill-rule="evenodd" clip-rule="evenodd" d="M139.983 1.88963L138.025 3.08721L137.339 2.80463L139.593 0.153809C137.359 1.3783 134.957 3.50434 133.464 5.5631L136.982 3.55816L133.639 7.52767L136.861 5.63038L133.1 9.65371L133.073 3.88784L135.495 2.3875C134.876 2.34713 134.257 2.33367 133.639 2.33367C125.922 2.33367 118.305 7.96499 115.096 14.7939L123.769 9.6268L114.275 18.8845L123.695 13.2666L114.504 22.3561L123.688 16.8526L115.412 25.4846L123.964 20.3108L117.66 27.6241L124.125 23.7219L119.846 29.4272C121.421 29.952 123.156 30.248 124.811 30.248C133.861 30.248 143.737 21.098 143.737 11.847C143.737 8.21392 141.86 5.35453 138.833 3.45052L139.99 1.89635L139.983 1.88963ZM125.451 8.58396L131.681 4.73556L126.016 10.9724L131.687 7.76988L126.096 13.8385L131.734 10.6158L125.975 16.8997L131.829 13.5559L125.901 19.7188L131.64 16.5903L125.43 22.9549L125.451 8.57723V8.58396Z" fill="#084983"/>
<path d="M209.064 26.8105V13.8726" stroke="#084983" stroke-miterlimit="22.93"/>
</svg>
