<?xml version="1.0" encoding="utf-8"?>
<svg width="28" height="28" viewBox="0 0 28 28" fill="none" xmlns="http://www.w3.org/2000/svg">
<path d="M26.25 2.625H1.75C0.783502 2.625 0 3.4085 0 4.375V10.7917C0 11.7582 0.783502 12.5417 1.75 12.5417H4.3435C4.47501 12.542 4.59034 12.4539 4.62467 12.327C4.95367 11.123 5.32467 9.961 5.74117 8.85267C5.77486 8.76308 5.76245 8.66267 5.70797 8.58398C5.65349 8.50529 5.56388 8.45833 5.46817 8.45833H4.08333C3.439 8.45833 2.91667 7.936 2.91667 7.29167C2.91667 6.64733 3.439 6.125 4.08333 6.125H23.9167C24.561 6.125 25.0833 6.64733 25.0833 7.29167C25.0833 7.936 24.561 8.45833 23.9167 8.45833H22.5248C22.4291 8.45833 22.3395 8.50529 22.285 8.58398C22.2305 8.66267 22.2181 8.76308 22.2518 8.85267C22.6672 9.95983 23.0393 11.123 23.3683 12.327C23.403 12.4537 23.5181 12.5416 23.6495 12.5417H26.25C27.2165 12.5417 28 11.7582 28 10.7917V4.375C28 3.4085 27.2165 2.625 26.25 2.625Z" fill="white"/>
<path fill-rule="evenodd" clip-rule="evenodd" d="M19.6315 9.04175C19.7516 9.042 19.8594 9.11553 19.9034 9.22725C21.7499 14.2078 22.711 19.473 22.743 24.7847C22.7449 24.9407 22.6843 25.0908 22.5747 25.2018C22.4651 25.3127 22.3156 25.3751 22.1597 25.3751H5.83338C5.67745 25.3751 5.528 25.3127 5.4184 25.2018C5.3088 25.0908 5.24817 24.9407 5.25004 24.7847C5.28257 19.473 6.2436 14.2079 8.08971 9.22725C8.13372 9.11553 8.24147 9.042 8.36154 9.04175H19.6315ZM15.0209 21.5192C15.0204 21.3804 15.1182 21.2606 15.2542 21.2333V21.2298C16.3101 21.0185 17.1012 20.1378 17.1984 19.0654C17.2957 17.993 16.676 16.9844 15.6754 16.5865L13.2662 15.6228C12.9597 15.4991 12.7837 15.1756 12.8466 14.851C12.9094 14.5264 13.1935 14.2919 13.5241 14.2917H15.8959C16.3791 14.2917 16.7709 13.8999 16.7709 13.4167C16.7709 12.9334 16.3791 12.5417 15.8959 12.5417H15.3126C15.1515 12.5417 15.0209 12.4111 15.0209 12.25V11.9583C15.0209 11.4751 14.6291 11.0833 14.1459 11.0833C13.6626 11.0833 13.2709 11.4751 13.2709 11.9583V12.3177C13.2714 12.4564 13.1736 12.5762 13.0376 12.6035C11.9817 12.8148 11.1906 13.6955 11.0933 14.7679C10.9961 15.8403 11.6158 16.849 12.6164 17.2468L15.0256 18.2105C15.3321 18.3342 15.5081 18.6578 15.4452 18.9823C15.3823 19.3069 15.0983 19.5414 14.7677 19.5417H12.3959C11.9126 19.5417 11.5209 19.9334 11.5209 20.4167C11.5209 20.8999 11.9126 21.2917 12.3959 21.2917H12.9792C13.1403 21.2917 13.2709 21.4223 13.2709 21.5833V21.8785C13.2709 22.3617 13.6626 22.7535 14.1459 22.7535C14.6291 22.7535 15.0209 22.3617 15.0209 21.8785V21.5192Z" fill="white"/>
</svg>
