<?xml version="1.0" encoding="utf-8"?>
<svg width="24" height="24" viewBox="0 0 24 24" fill="none" xmlns="http://www.w3.org/2000/svg">
<path d="M15 7.5H9C8.80109 7.5 8.61032 7.57902 8.46967 7.71967C8.32902 7.86032 8.25 8.05109 8.25 8.25C8.25 8.44891 8.32902 8.63968 8.46967 8.78033C8.61032 8.92098 8.80109 9 9 9H15C15.1989 9 15.3897 8.92098 15.5303 8.78033C15.671 8.63968 15.75 8.44891 15.75 8.25C15.75 8.05109 15.671 7.86032 15.5303 7.71967C15.3897 7.57902 15.1989 7.5 15 7.5Z" fill="#084983"/>
<path d="M20.9987 11.2366C20.9982 11.2129 20.9967 11.1891 20.9939 11.1652C20.9929 11.156 20.9918 11.147 20.9904 11.1379C20.9893 11.1305 20.9889 11.1232 20.9875 11.1158C20.9845 11.0989 20.98 11.0826 20.9759 11.0662C20.9748 11.0617 20.9744 11.0571 20.9732 11.0527L20.9701 11.0413L20.97 11.0409L18.8739 3.35531C18.7868 3.03813 18.5981 2.75825 18.3367 2.5586C18.0753 2.35895 17.7557 2.25054 17.4268 2.25H6.57246C6.24355 2.25054 5.92389 2.35895 5.66251 2.5586C5.40112 2.75825 5.21243 3.03813 5.12538 3.35531L3.0293 11.0408L3.02912 11.0415L3.02607 11.0527C3.02488 11.0571 3.02449 11.0616 3.02337 11.066C3.01921 11.0825 3.01479 11.0989 3.0117 11.1158C3.01037 11.1232 3.00994 11.1305 3.00881 11.1379C3.00744 11.147 3.00632 11.156 3.00529 11.1652C3.00254 11.1891 3.00095 11.2129 3.00053 11.2366C3.00041 11.2429 2.99996 11.2491 3 11.2554C3.00012 11.2864 3.00218 11.3174 3.00616 11.3481C3.00641 11.35 3.00687 11.3519 3.00714 11.3538C3.01119 11.382 3.01686 11.4101 3.02413 11.4377C3.02495 11.4409 3.0252 11.4442 3.02607 11.4473L5.12538 19.1446C5.21242 19.4618 5.4011 19.7417 5.66249 19.9414C5.92388 20.141 6.24354 20.2494 6.57246 20.25H7.4996L6.14958 22.05C6.03024 22.2092 5.979 22.4092 6.00714 22.6061C6.03528 22.803 6.1405 22.9807 6.29964 23.1C6.45878 23.2194 6.65881 23.2706 6.85572 23.2425C7.05264 23.2143 7.23031 23.1091 7.34966 22.95L9.37464 20.25H14.6246L16.6496 22.95C16.7689 23.1091 16.9466 23.2143 17.1435 23.2425C17.3404 23.2706 17.5405 23.2194 17.6996 23.1C17.8587 22.9807 17.964 22.803 17.9921 22.6061C18.0202 22.4092 17.969 22.2092 17.8497 22.05L16.4996 20.25H17.4268C17.7557 20.2494 18.0754 20.141 18.3368 19.9414C18.5981 19.7417 18.7868 19.4618 18.8739 19.1446L20.9732 11.4473C20.974 11.4442 20.9743 11.4409 20.9751 11.4377C20.9824 11.4101 20.988 11.382 20.9921 11.3538C20.9924 11.3519 20.9928 11.35 20.9931 11.3481C20.9971 11.3174 20.9991 11.2864 20.9992 11.2554C20.9993 11.2491 20.9988 11.2429 20.9987 11.2366ZM12.7496 18C12.7496 18.1989 12.6706 18.3897 12.5299 18.5303C12.3893 18.671 12.1985 18.75 11.9996 18.75C11.8007 18.75 11.6099 18.671 11.4693 18.5303C11.3286 18.3897 11.2496 18.1989 11.2496 18V14.25C11.2496 14.0511 11.3286 13.8603 11.4693 13.7197C11.6099 13.579 11.8007 13.5 11.9996 13.5C12.1985 13.5 12.3893 13.579 12.5299 13.7197C12.6706 13.8603 12.7496 14.0511 12.7496 14.25V18ZM11.9996 11.9877L4.68831 10.6584L6.5721 3.75H17.4268L19.3109 10.6584L11.9996 11.9877Z" fill="#084983"/>
</svg>
