<svg width="30" height="24" viewBox="0 0 30 24" fill="none" xmlns="http://www.w3.org/2000/svg">
<path d="M30 23C30 23.2652 29.8946 23.5196 29.7071 23.7071C29.5196 23.8946 29.2652 24 29 24H1C0.734783 24 0.48043 23.8946 0.292893 23.7071C0.105357 23.5196 0 23.2652 0 23C0 22.7348 0.105357 22.4804 0.292893 22.2929C0.48043 22.1054 0.734783 22 1 22H29C29.2652 22 29.5196 22.1054 29.7071 22.2929C29.8946 22.4804 30 22.7348 30 23ZM1.03784 9.27234C0.978512 9.06283 0.989196 8.83969 1.06827 8.63681C1.14735 8.43393 1.29049 8.26241 1.47595 8.14832L14.476 0.148315C14.6335 0.0513428 14.815 0 15 0C15.185 0 15.3665 0.0513428 15.524 0.148315L28.524 8.14832C28.7095 8.26243 28.8526 8.43394 28.9317 8.63681C29.0108 8.83967 29.0215 9.0628 28.9622 9.27231C28.9029 9.48181 28.7768 9.66624 28.6032 9.79758C28.4295 9.92892 28.2177 9.99999 28 10H25V18H27C27.2652 18 27.5196 18.1054 27.7071 18.2929C27.8946 18.4804 28 18.7348 28 19C28 19.2652 27.8946 19.5196 27.7071 19.7071C27.5196 19.8946 27.2652 20 27 20H3C2.73478 20 2.48043 19.8946 2.29289 19.7071C2.10536 19.5196 2 19.2652 2 19C2 18.7348 2.10536 18.4804 2.29289 18.2929C2.48043 18.1054 2.73478 18 3 18H5V10H2C1.78227 10 1.57048 9.92895 1.39682 9.79761C1.22316 9.66628 1.09712 9.48185 1.03784 9.27234ZM17 17C17 17.2652 17.1054 17.5196 17.2929 17.7071C17.4804 17.8946 17.7348 18 18 18C18.2652 18 18.5196 17.8946 18.7071 17.7071C18.8946 17.5196 19 17.2652 19 17V11C19 10.7348 18.8946 10.4804 18.7071 10.2929C18.5196 10.1054 18.2652 10 18 10C17.7348 10 17.4804 10.1054 17.2929 10.2929C17.1054 10.4804 17 10.7348 17 11V17ZM11 17C11 17.2652 11.1054 17.5196 11.2929 17.7071C11.4804 17.8946 11.7348 18 12 18C12.2652 18 12.5196 17.8946 12.7071 17.7071C12.8946 17.5196 13 17.2652 13 17V11C13 10.7348 12.8946 10.4804 12.7071 10.2929C12.5196 10.1054 12.2652 10 12 10C11.7348 10 11.4804 10.1054 11.2929 10.2929C11.1054 10.4804 11 10.7348 11 11V17Z" fill="white"/>
</svg>
