<svg width="28" height="28" viewBox="0 0 28 28" fill="none" xmlns="http://www.w3.org/2000/svg">
<path fill-rule="evenodd" clip-rule="evenodd" d="M2.57617 0H25.4258C26.8423 0 28.002 1.15967 28.002 2.57617V25.4238C28.002 26.8403 26.8423 28 25.4258 28H2.57617C1.15967 28 0 26.8403 0 25.4238V2.57617C0 1.15967 1.15967 0 2.57617 0ZM2.69865 1.31179H25.3013C26.0639 1.31179 26.6882 1.93608 26.6882 2.69865V25.3013C26.6882 26.0639 26.0639 26.6882 25.3013 26.6882H2.69865C1.93608 26.6882 1.31179 26.0639 1.31179 25.3013V2.69865C1.31179 1.93608 1.93608 1.31179 2.69865 1.31179Z" fill="#084983"/>
<path d="M20.25 7.125H7.75C7.40482 7.125 7.125 7.40482 7.125 7.75V20.25C7.125 20.5952 7.40482 20.875 7.75 20.875H20.25C20.5952 20.875 20.875 20.5952 20.875 20.25V7.75C20.875 7.40482 20.5952 7.125 20.25 7.125Z" stroke="#084983" stroke-width="1.875" stroke-linecap="round" stroke-linejoin="round"/>
<path d="M17.75 5.5625V7.125" stroke="#084983" stroke-width="1.875" stroke-linecap="round" stroke-linejoin="round"/>
<path d="M10.25 5.5625V7.125" stroke="#084983" stroke-width="1.875" stroke-linecap="round" stroke-linejoin="round"/>
<path d="M7.125 10.875H20.875" stroke="#084983" stroke-width="1.875" stroke-linecap="round" stroke-linejoin="round"/>
<path d="M10.875 14H13.0625L11.8125 15.5625C12.018 15.5625 12.2204 15.6132 12.4017 15.7101C12.5829 15.8069 12.7375 15.947 12.8517 16.1179C12.9659 16.2888 13.0363 16.4852 13.0565 16.6897C13.0766 16.8942 13.0461 17.1006 12.9675 17.2905C12.8889 17.4804 12.7647 17.648 12.6059 17.7785C12.447 17.9089 12.2585 17.9982 12.0569 18.0384C11.8554 18.0786 11.647 18.0684 11.4503 18.0089C11.2536 17.9493 11.0746 17.8422 10.9292 17.6969" stroke="#084983" stroke-width="1.875" stroke-linecap="round" stroke-linejoin="round"/>
<path d="M15.5625 14.9375L16.8125 14V18.0625" stroke="#084983" stroke-width="1.875" stroke-linecap="round" stroke-linejoin="round"/>
</svg>
