<svg width="28" height="28" viewBox="0 0 28 28" fill="none" xmlns="http://www.w3.org/2000/svg">
<path fill-rule="evenodd" clip-rule="evenodd" d="M2.57617 0H25.4258C26.8423 0 28.002 1.15967 28.002 2.57617V25.4238C28.002 26.8403 26.8423 28 25.4258 28H2.57617C1.15967 28 0 26.8403 0 25.4238V2.57617C0 1.15967 1.15967 0 2.57617 0ZM2.69865 1.31179H25.3013C26.0639 1.31179 26.6882 1.93608 26.6882 2.69865V25.3013C26.6882 26.0639 26.0639 26.6882 25.3013 26.6882H2.69865C1.93608 26.6882 1.31179 26.0639 1.31179 25.3013V2.69865C1.31179 1.93608 1.93608 1.31179 2.69865 1.31179Z" fill="#084983"/>
<path d="M21.5 20.25H6.5V7.75" stroke="#084983" stroke-width="1.875" stroke-linecap="round" stroke-linejoin="round"/>
<path d="M20.25 9L14 15.25L11.5 12.75L6.5 17.75" stroke="#084983" stroke-width="1.875" stroke-linecap="round" stroke-linejoin="round"/>
<path d="M20.25 12.125V9H17.125" stroke="#084983" stroke-width="1.875" stroke-linecap="round" stroke-linejoin="round"/>
</svg>
