<svg width="28" height="28" viewBox="0 0 28 28" fill="none" xmlns="http://www.w3.org/2000/svg">
<path fill-rule="evenodd" clip-rule="evenodd" d="M2.57617 0H25.4258C26.8423 0 28.002 1.15967 28.002 2.57617V25.4238C28.002 26.8403 26.8423 28 25.4258 28H2.57617C1.15967 28 0 26.8403 0 25.4238V2.57617C0 1.15967 1.15967 0 2.57617 0ZM2.69865 1.31179H25.3013C26.0639 1.31179 26.6882 1.93608 26.6882 2.69865V25.3013C26.6882 26.0639 26.0639 26.6882 25.3013 26.6882H2.69865C1.93608 26.6882 1.31179 26.0639 1.31179 25.3013V2.69865C1.31179 1.93608 1.93608 1.31179 2.69865 1.31179Z" fill="#084983"/>
<path d="M19.6256 21.5H8.375C8.20924 21.5 8.05027 21.4342 7.93306 21.3169C7.81585 21.1997 7.75 21.0408 7.75 20.875V7.125C7.75 6.95924 7.81585 6.80027 7.93306 6.68306C8.05027 6.56585 8.20924 6.5 8.375 6.5H15.8756L20.2506 10.875V20.875C20.2506 20.9571 20.2344 21.0383 20.203 21.1142C20.1716 21.19 20.1256 21.2589 20.0676 21.3169C20.0095 21.375 19.9406 21.421 19.8648 21.4524C19.789 21.4838 19.7077 21.5 19.6256 21.5Z" stroke="#084983" stroke-width="1.875" stroke-linecap="round" stroke-linejoin="round"/>
<path d="M15.5625 6.5V11.1875H20.2506" stroke="#084983" stroke-width="1.875" stroke-linecap="round" stroke-linejoin="round"/>
<path d="M13.6875 17.4375C14.723 17.4375 15.5625 16.598 15.5625 15.5625C15.5625 14.527 14.723 13.6875 13.6875 13.6875C12.652 13.6875 11.8125 14.527 11.8125 15.5625C11.8125 16.598 12.652 17.4375 13.6875 17.4375Z" stroke="#084983" stroke-width="1.875" stroke-linecap="round" stroke-linejoin="round"/>
<path d="M15.0137 16.8887L16.4846 18.3596" stroke="#084983" stroke-width="1.875" stroke-linecap="round" stroke-linejoin="round"/>
</svg>
