<svg width="32" height="32" viewBox="0 0 32 32" fill="none" xmlns="http://www.w3.org/2000/svg">
<path d="M16 22C19.3137 22 22 19.3137 22 16C22 12.6863 19.3137 10 16 10C12.6863 10 10 12.6863 10 16C10 19.3137 12.6863 22 16 22Z" stroke="#213859" stroke-width="2" stroke-linecap="round" stroke-linejoin="round"/>
<path d="M15.3584 5.51871L12.9997 3.75022C12.8732 3.65502 12.7258 3.59125 12.5698 3.56418C12.4138 3.53711 12.2535 3.54751 12.1023 3.59452C11.3718 3.82327 10.6631 4.1165 9.98448 4.47075C9.844 4.54443 9.72307 4.65046 9.63165 4.7801C9.54023 4.90973 9.48095 5.05924 9.4587 5.2163L9.04174 8.13516C8.8828 8.27605 8.7272 8.42258 8.57493 8.57476C8.42272 8.72698 8.27615 8.88263 8.13523 9.04169L8.13516 9.04174L5.21682 9.45907C5.06001 9.48124 4.91072 9.54036 4.78125 9.63155C4.65177 9.72274 4.54582 9.84339 4.47213 9.98356C4.11734 10.6619 3.82354 11.3704 3.59419 12.1007C3.54697 12.2521 3.53643 12.4126 3.56345 12.5689C3.59047 12.7252 3.65428 12.8729 3.7496 12.9996L5.51871 15.3584C5.50594 15.5704 5.49953 15.7841 5.49947 15.9993C5.49947 16.2146 5.50589 16.4283 5.51872 16.6404L5.51871 16.6405L3.75022 18.9992C3.65502 19.1258 3.59125 19.2731 3.56418 19.4291C3.53711 19.5852 3.54751 19.7454 3.59452 19.8966C3.82327 20.6271 4.1165 21.3359 4.47075 22.0145C4.54443 22.1549 4.65046 22.2759 4.7801 22.3673C4.90973 22.4587 5.05924 22.518 5.2163 22.5402L8.13516 22.9572C8.27604 23.1161 8.42258 23.2717 8.57476 23.424C8.72697 23.5762 8.88262 23.7228 9.04168 23.8637L9.04173 23.8638L9.45907 26.7821C9.48124 26.9389 9.54035 27.0882 9.63154 27.2177C9.72273 27.3472 9.84339 27.4531 9.98356 27.5268C10.6619 27.8816 11.3704 28.1754 12.1007 28.4047C12.2521 28.452 12.4126 28.4625 12.5689 28.4355C12.7252 28.4085 12.8728 28.3447 12.9996 28.2493L15.3584 26.4802C15.5704 26.493 15.7841 26.4994 15.9993 26.4995C16.2146 26.4995 16.4283 26.4931 16.6404 26.4802L16.6405 26.4802L18.9992 28.2487C19.1258 28.3439 19.2731 28.4077 19.4291 28.4348C19.5852 28.4618 19.7454 28.4514 19.8966 28.4044C20.6271 28.1757 21.3359 27.8824 22.0145 27.5282C22.1549 27.4545 22.2759 27.3485 22.3673 27.2188C22.4587 27.0892 22.518 26.9397 22.5402 26.7826L22.9572 23.8638C23.1161 23.7229 23.2717 23.5764 23.424 23.4242C23.5762 23.272 23.7228 23.1163 23.8637 22.9573L23.8638 22.9572L26.7821 22.5399C26.9389 22.5177 27.0882 22.4586 27.2177 22.3674C27.3472 22.2762 27.4531 22.1556 27.5268 22.0154C27.8816 21.3371 28.1754 20.6286 28.4047 19.8983C28.452 19.7468 28.4625 19.5863 28.4355 19.43C28.4085 19.2737 28.3447 19.1261 28.2493 18.9993L26.4802 16.6405C26.493 16.4285 26.4994 16.2149 26.4995 15.9996C26.4995 15.7843 26.4931 15.5706 26.4802 15.3585L26.4802 15.3584L28.2487 12.9997C28.3439 12.8732 28.4077 12.7258 28.4348 12.5698C28.4618 12.4138 28.4514 12.2535 28.4044 12.1023C28.1757 11.3718 27.8824 10.6631 27.5282 9.98448C27.4545 9.844 27.3485 9.72307 27.2188 9.63165C27.0892 9.54023 26.9397 9.48095 26.7826 9.4587L23.8638 9.04174C23.7229 8.8828 23.5764 8.7272 23.4242 8.57493C23.272 8.42272 23.1163 8.27615 22.9573 8.13523L22.9572 8.13516L22.5399 5.21682C22.5177 5.06001 22.4586 4.91072 22.3674 4.78125C22.2762 4.65177 22.1556 4.54582 22.0154 4.47213C21.3371 4.11734 20.6286 3.82354 19.8983 3.59419C19.7468 3.54697 19.5863 3.53643 19.43 3.56345C19.2737 3.59047 19.1261 3.65428 18.9993 3.7496L16.6405 5.51871C16.4285 5.50594 16.2149 5.49953 15.9996 5.49947C15.7843 5.49947 15.5706 5.50589 15.3585 5.51872L15.3584 5.51871Z" stroke="#213859" stroke-width="2" stroke-linecap="round" stroke-linejoin="round"/>
</svg>
