<svg width="28" height="28" viewBox="0 0 28 28" fill="none" xmlns="http://www.w3.org/2000/svg">
<path fill-rule="evenodd" clip-rule="evenodd" d="M2.57617 0H25.4258C26.8423 0 28.002 1.15967 28.002 2.57617V25.4238C28.002 26.8403 26.8423 28 25.4258 28H2.57617C1.15967 28 0 26.8403 0 25.4238V2.57617C0 1.15967 1.15967 0 2.57617 0ZM2.69865 1.31179H25.3013C26.0639 1.31179 26.6882 1.93608 26.6882 2.69865V25.3013C26.6882 26.0639 26.0639 26.6882 25.3013 26.6882H2.69865C1.93608 26.6882 1.31179 26.0639 1.31179 25.3013V2.69865C1.31179 1.93608 1.93608 1.31179 2.69865 1.31179Z" fill="#084983"/>
<path d="M20.875 10.25H7.125C6.77982 10.25 6.5 10.5298 6.5 10.875V13.375C6.5 13.7202 6.77982 14 7.125 14H20.875C21.2202 14 21.5 13.7202 21.5 13.375V10.875C21.5 10.5298 21.2202 10.25 20.875 10.25Z" stroke="#084983" stroke-width="1.875" stroke-linecap="round" stroke-linejoin="round"/>
<path d="M20.25 14V19.625C20.25 19.7908 20.1842 19.9497 20.0669 20.0669C19.9497 20.1842 19.7908 20.25 19.625 20.25H8.375C8.20924 20.25 8.05027 20.1842 7.93306 20.0669C7.81585 19.9497 7.75 19.7908 7.75 19.625V14" stroke="#084983" stroke-width="1.875" stroke-linecap="round" stroke-linejoin="round"/>
<path d="M14 10.25V20.25" stroke="#084983" stroke-width="1.875" stroke-linecap="round" stroke-linejoin="round"/>
<path d="M17.5355 9.36609C16.6517 10.25 14 10.25 14 10.25C14 10.25 14 7.59832 14.8839 6.71444C15.2356 6.36314 15.7124 6.16587 16.2095 6.16602C16.7066 6.16616 17.1833 6.36369 17.5348 6.71519C17.8863 7.06669 18.0838 7.54339 18.084 8.04048C18.0841 8.53758 17.8868 9.01439 17.5355 9.36609V9.36609Z" stroke="#084983" stroke-width="1.875" stroke-linecap="round" stroke-linejoin="round"/>
<path d="M10.4644 9.36609C11.3483 10.25 14 10.25 14 10.25C14 10.25 14 7.59832 13.1161 6.71444C12.7644 6.36314 12.2876 6.16587 11.7905 6.16602C11.2934 6.16616 10.8167 6.36369 10.4652 6.71519C10.1137 7.06669 9.91616 7.54339 9.91602 8.04048C9.91587 8.53758 10.1131 9.01439 10.4644 9.36609V9.36609Z" stroke="#084983" stroke-width="1.875" stroke-linecap="round" stroke-linejoin="round"/>
</svg>
