<svg width="32" height="32" viewBox="0 0 32 32" fill="none" xmlns="http://www.w3.org/2000/svg">
<path d="M16 22C19.3137 22 22 19.3137 22 16C22 12.6863 19.3137 10 16 10C12.6863 10 10 12.6863 10 16C10 19.3137 12.6863 22 16 22Z" stroke="white" stroke-width="2" stroke-linecap="round" stroke-linejoin="round"/>
<path d="M15.3584 5.51968L12.9997 3.7512C12.8732 3.65599 12.7258 3.59223 12.5698 3.56516C12.4138 3.53809 12.2535 3.54849 12.1023 3.59549C11.3718 3.82425 10.6631 4.11748 9.98448 4.47173C9.844 4.54541 9.72307 4.65144 9.63165 4.78107C9.54023 4.9107 9.48095 5.06022 9.4587 5.21728L9.04174 8.13614C8.8828 8.27703 8.7272 8.42356 8.57493 8.57574C8.42272 8.72796 8.27615 8.8836 8.13523 9.04267L8.13516 9.04272L5.21682 9.46005C5.06001 9.48222 4.91072 9.54133 4.78125 9.63252C4.65177 9.72371 4.54582 9.84437 4.47213 9.98454C4.11734 10.6628 3.82354 11.3713 3.59419 12.1017C3.54697 12.2531 3.53643 12.4136 3.56345 12.5699C3.59047 12.7262 3.65428 12.8738 3.7496 13.0006L5.51871 15.3594C5.50594 15.5714 5.49953 15.785 5.49947 16.0003C5.49947 16.2156 5.50589 16.4293 5.51872 16.6414L5.51871 16.6415L3.75022 19.0002C3.65502 19.1267 3.59125 19.2741 3.56418 19.4301C3.53711 19.5862 3.54751 19.7464 3.59452 19.8976C3.82327 20.6281 4.1165 21.3368 4.47075 22.0154C4.54443 22.1559 4.65046 22.2768 4.7801 22.3683C4.90973 22.4597 5.05924 22.519 5.2163 22.5412L8.13516 22.9582C8.27604 23.1171 8.42258 23.2727 8.57476 23.425C8.72697 23.5772 8.88262 23.7238 9.04168 23.8647L9.04173 23.8647L9.45907 26.7831C9.48124 26.9399 9.54035 27.0892 9.63154 27.2187C9.72273 27.3481 9.84339 27.4541 9.98356 27.5278C10.6619 27.8826 11.3704 28.1764 12.1007 28.4057C12.2521 28.4529 12.4126 28.4635 12.5689 28.4365C12.7252 28.4094 12.8728 28.3456 12.9996 28.2503L15.3584 26.4812C15.5704 26.494 15.7841 26.5004 15.9993 26.5004C16.2146 26.5004 16.4283 26.494 16.6404 26.4812L16.6405 26.4812L18.9992 28.2497C19.1258 28.3449 19.2731 28.4087 19.4291 28.4357C19.5852 28.4628 19.7454 28.4524 19.8966 28.4054C20.6271 28.1766 21.3359 27.8834 22.0145 27.5292C22.1549 27.4555 22.2759 27.3494 22.3673 27.2198C22.4587 27.0902 22.518 26.9407 22.5402 26.7836L22.9572 23.8648C23.1161 23.7239 23.2717 23.5773 23.424 23.4252C23.5762 23.2729 23.7228 23.1173 23.8637 22.9582L23.8638 22.9582L26.7821 22.5408C26.9389 22.5187 27.0882 22.4596 27.2177 22.3684C27.3472 22.2772 27.4531 22.1565 27.5268 22.0164C27.8816 21.3381 28.1754 20.6296 28.4047 19.8992C28.452 19.7478 28.4625 19.5873 28.4355 19.431C28.4085 19.2747 28.3447 19.1271 28.2493 19.0003L26.4802 16.6415C26.493 16.4295 26.4994 16.2158 26.4995 16.0006C26.4995 15.7853 26.4931 15.5716 26.4802 15.3595L26.4802 15.3594L28.2487 13.0007C28.3439 12.8742 28.4077 12.7268 28.4348 12.5708C28.4618 12.4147 28.4514 12.2545 28.4044 12.1033C28.1757 11.3728 27.8824 10.664 27.5282 9.98545C27.4545 9.84498 27.3485 9.72404 27.2188 9.63262C27.0892 9.54121 26.9397 9.48193 26.7826 9.45968L23.8638 9.04272C23.7229 8.88378 23.5764 8.72818 23.4242 8.57591C23.272 8.42369 23.1163 8.27712 22.9573 8.13621L22.9572 8.13614L22.5399 5.21779C22.5177 5.06099 22.4586 4.9117 22.3674 4.78222C22.2762 4.65275 22.1556 4.5468 22.0154 4.47311C21.3371 4.11832 20.6286 3.82451 19.8983 3.59517C19.7468 3.54794 19.5863 3.5374 19.43 3.56443C19.2737 3.59145 19.1261 3.65525 18.9993 3.75058L16.6405 5.51968C16.4285 5.50692 16.2149 5.50051 15.9996 5.50045C15.7843 5.50045 15.5706 5.50686 15.3585 5.51969L15.3584 5.51968Z" stroke="white" stroke-width="2" stroke-linecap="round" stroke-linejoin="round"/>
</svg>
