<svg width="28" height="28" viewBox="0 0 28 28" fill="none" xmlns="http://www.w3.org/2000/svg">
<path fill-rule="evenodd" clip-rule="evenodd" d="M2.57616 0H25.4258C26.8423 0 28.002 1.15967 28.002 2.57617V25.4238C28.002 26.8403 26.8423 28 25.4258 28H2.57616C1.15967 28 0 26.8403 0 25.4238V2.57617C0 1.15967 1.15967 0 2.57616 0ZM2.69865 1.31179H25.3013C26.0639 1.31179 26.6882 1.93608 26.6882 2.69865V25.3013C26.6882 26.0639 26.0639 26.6882 25.3013 26.6882H2.69865C1.93608 26.6882 1.31179 26.0639 1.31179 25.3013V2.69865C1.31179 1.93608 1.93608 1.31179 2.69865 1.31179Z" fill="#084983"/>
<path d="M9.41602 10.5615H18.5478" stroke="#084983" stroke-width="1.875" stroke-linecap="round" stroke-linejoin="round"/>
<path d="M14 14L9.25 10.4375C9.17238 10.3793 9.10938 10.3038 9.06598 10.217C9.02259 10.1302 9 10.0345 9 9.9375V7.125C9 6.95924 9.06585 6.80027 9.18306 6.68306C9.30027 6.56585 9.45924 6.5 9.625 6.5H18.375C18.5408 6.5 18.6997 6.56585 18.8169 6.68306C18.9342 6.80027 19 6.95924 19 7.125V9.90947C19 10.0061 18.9776 10.1014 18.9345 10.1879C18.8915 10.2744 18.829 10.3498 18.7519 10.4081L14 14Z" stroke="#084983" stroke-width="1.875" stroke-linecap="round" stroke-linejoin="round"/>
<path d="M14 14L9.25 17.5625C9.17238 17.6207 9.10938 17.6962 9.06598 17.783C9.02259 17.8698 9 17.9655 9 18.0625V20.875C9 21.0408 9.06585 21.1997 9.18306 21.3169C9.30027 21.4342 9.45924 21.5 9.625 21.5H18.375C18.5408 21.5 18.6997 21.4342 18.8169 21.3169C18.9342 21.1997 19 21.0408 19 20.875V18.0905C19 17.9939 18.9776 17.8986 18.9345 17.8121C18.8915 17.7256 18.829 17.6502 18.7519 17.5919L14 14Z" stroke="#084983" stroke-width="1.875" stroke-linecap="round" stroke-linejoin="round"/>
<path d="M14 17.1246V14" stroke="#084983" stroke-width="1.875" stroke-linecap="round" stroke-linejoin="round"/>
</svg>
