<svg width="28" height="28" viewBox="0 0 28 28" fill="none" xmlns="http://www.w3.org/2000/svg">
<path d="M10.564 22.5501C12.191 22.8747 13.8541 22.1919 14.7835 20.8176C14.9447 20.5873 14.9648 20.2865 14.8357 20.0368C14.7066 19.7871 14.4496 19.6297 14.1685 19.6281C13.9279 19.6225 13.7006 19.738 13.5633 19.9356C12.9419 20.8928 11.772 21.3373 10.6717 21.0342C9.57147 20.7311 8.79429 19.7502 8.7508 18.6098C8.70731 17.4693 9.40753 16.4321 10.4815 16.0461C10.7886 15.9417 10.9963 15.6549 10.9998 15.3306C10.9986 15.0825 10.8764 14.8507 10.6725 14.7096C10.4686 14.5684 10.2086 14.5356 9.97602 14.6218C8.23127 15.2479 7.11842 16.9609 7.25552 18.8095C7.39263 20.6581 8.746 22.1882 10.564 22.5501Z" fill="#084983"/>
<circle cx="13.25" cy="7.25" r="1.875" fill="#084983"/>
<path d="M12.125 17.375C12.125 17.9963 12.6287 18.5 13.25 18.5H16.625C16.7543 18.5 16.8745 18.5666 16.943 18.6762L18.668 21.3462C18.8745 21.6737 19.2348 21.8721 19.622 21.8712C20.032 21.8718 20.4099 21.6493 20.6083 21.2904C20.8066 20.9315 20.7939 20.4931 20.5752 20.1462L18.8502 17.4762C18.3709 16.7097 17.5291 16.2458 16.625 16.25H14.75C14.5429 16.25 14.375 16.0821 14.375 15.875V14.9375C14.375 14.8339 14.4589 14.75 14.5625 14.75H17C17.6213 14.75 18.125 14.2463 18.125 13.625C18.125 13.0037 17.6213 12.5 17 12.5H14.5625C14.4589 12.5 14.375 12.4161 14.375 12.3125V11.375C14.375 10.7537 13.8713 10.25 13.25 10.25C12.6287 10.25 12.125 10.7537 12.125 11.375L12.125 17.375Z" fill="#084983"/>
<path fill-rule="evenodd" clip-rule="evenodd" d="M25.3013 1.31179H2.69865C1.93608 1.31179 1.31179 1.93608 1.31179 2.69865V25.3013C1.31179 26.0639 1.93608 26.6882 2.69865 26.6882H25.3013C26.0639 26.6882 26.6882 26.0639 26.6882 25.3013V2.69865C26.6882 1.93608 26.0639 1.31179 25.3013 1.31179ZM25.6194 0H2.38058C1.07077 0 0 1.07077 0 2.38058V25.6194C0 26.9292 1.07077 28 2.38058 28H25.6194C26.9292 28 28 26.9292 28 25.6194V2.38058C28 1.07077 26.9292 0 25.6194 0Z" fill="#084983"/>
</svg>
