<svg width="28" height="28" viewBox="0 0 28 28" fill="none" xmlns="http://www.w3.org/2000/svg">
<path fill-rule="evenodd" clip-rule="evenodd" d="M2.57616 0H25.4258C26.8423 0 28.002 1.15967 28.002 2.57617V25.4238C28.002 26.8403 26.8423 28 25.4258 28H2.57616C1.15967 28 0 26.8403 0 25.4238V2.57617C0 1.15967 1.15967 0 2.57616 0ZM2.69865 1.31179H25.3013C26.0639 1.31179 26.6882 1.93608 26.6882 2.69865V25.3013C26.6882 26.0639 26.0639 26.6882 25.3013 26.6882H2.69865C1.93608 26.6882 1.31179 26.0639 1.31179 25.3013V2.69865C1.31179 1.93608 1.93608 1.31179 2.69865 1.31179Z" fill="#084983"/>
<path fill-rule="evenodd" clip-rule="evenodd" d="M18.1979 19.453H19.2222C19.4038 19.453 19.5872 19.3919 19.7131 19.3345C19.9132 19.2456 20.091 19.0937 20.2188 18.9214C20.254 18.8751 20.3114 18.7769 20.3337 18.725C20.3911 18.588 20.4541 18.412 20.4541 18.2231V12.0065C20.4541 11.8083 20.3911 11.6527 20.3262 11.5119C20.2244 11.2934 20.0929 11.1452 19.9021 11.0025C19.715 10.8618 19.4519 10.7617 19.1945 10.7617H18.1997V19.4549L18.1979 19.453ZM7.54677 12.0065V18.2231C7.54677 18.4528 7.65236 18.7436 7.77461 18.914C7.82833 18.9881 7.85797 19.0177 7.92095 19.0789C8.13212 19.29 8.44888 19.453 8.77674 19.453H9.8011V10.7599H8.80638C8.49148 10.7599 8.14509 10.9229 7.93392 11.1341C7.7246 11.3452 7.54492 11.7046 7.54492 12.0065H7.54677ZM12.1758 9.66142V10.7747H10.2438V19.4678H17.7737V10.7747H15.8268C15.8268 10.4987 15.8583 9.50212 15.7805 9.2928C15.7379 9.1761 15.6898 9.11868 15.6083 9.03532C15.5379 8.96308 15.4638 8.90936 15.3619 8.86676C15.2693 8.82786 15.1341 8.78711 15.0118 8.78711H12.9946C12.7834 8.78711 12.5352 8.89639 12.3981 9.03532C12.2351 9.19833 12.1795 9.34467 12.1795 9.66142H12.1758ZM12.826 9.49657C12.8371 9.49101 12.8334 9.48916 12.8594 9.4836C12.9631 9.46693 15.1174 9.48359 15.1544 9.4873C15.173 9.60029 15.16 10.3876 15.16 10.6247C15.16 10.6524 15.1619 10.6876 15.16 10.7154C15.16 10.7339 15.16 10.7377 15.1544 10.7562C15.1544 10.758 15.1507 10.7691 15.1507 10.7673C15.1507 10.7673 15.147 10.7747 15.1452 10.7765H12.826V9.49657Z" fill="#084983"/>
<path fill-rule="evenodd" clip-rule="evenodd" d="M4.45753 21.2329H23.5425C23.7944 21.2329 24 21.5478 24 21.935C24 22.3221 23.7944 22.637 23.5425 22.637H4.45753C4.20561 22.637 4 22.3221 4 21.935C4 21.5478 4.20561 21.2329 4.45753 21.2329Z" fill="#084983"/>
<path fill-rule="evenodd" clip-rule="evenodd" d="M21.1352 6.16144H6.86456V20.1264H5.70312V5H22.2948V20.1264H21.1352V6.16144Z" fill="#084983"/>
</svg>
