<svg width="28" height="28" viewBox="0 0 28 28" fill="none" xmlns="http://www.w3.org/2000/svg">
<path fill-rule="evenodd" clip-rule="evenodd" d="M2.57599 0H25.424C26.8404 0 28 1.15959 28 2.57599V25.424C28 26.8404 26.8404 28 25.424 28H2.57599C1.15959 28 0 26.8404 0 25.424V2.57599C0 1.15959 1.15959 0 2.57599 0ZM2.69846 1.31169H25.2996C26.0621 1.31169 26.6863 1.93594 26.6863 2.69846V25.2996C26.6863 26.0621 26.0621 26.6863 25.2996 26.6863H2.69846C1.93594 26.6863 1.3117 26.0621 1.3117 25.2996V2.69846C1.3117 1.93594 1.93594 1.31169 2.69846 1.31169Z" fill="#084983"/>
<path fill-rule="evenodd" clip-rule="evenodd" d="M7.97145 14.1734L7.96484 15.0135C9.25717 14.7032 11.0678 13.7212 12.4212 12.9438L8.48475 19.3147C8.14805 20.1482 8.45834 21.2045 9.00795 21.6303C9.75397 22.2245 10.8713 22.2509 11.8121 22.0198C12.7496 21.7013 13.6013 21.2474 14.4595 20.6086C16.2255 19.2949 17.81 17.6922 19.2393 16.4676V14.8534C17.4733 16.3619 15.9152 17.5057 14.0452 18.8608C13.6821 19.0919 12.8206 19.4913 12.5367 19.4368C12.0779 19.3477 12.2561 18.8872 12.4839 18.5257C14.1426 15.7496 15.6479 13.226 17.3132 10.4499C17.6053 9.88214 17.3578 9.31767 16.9765 9.02388C16.5276 8.66078 15.666 8.66903 15.0355 8.99748C14.4859 9.28136 14.4859 9.41505 14.0188 9.75175C12.9279 10.7685 11.6438 11.9139 10.3845 12.9785C9.60378 13.4752 8.87591 13.8895 7.97145 14.1734ZM17.9816 5C19.1106 5 20.0348 5.59088 20.0348 6.31874C20.0348 7.04661 19.1122 7.63418 17.9816 7.63418C16.8511 7.63418 15.9284 7.0433 15.9284 6.31874C15.9284 5.59418 16.8478 5 17.9816 5Z" fill="#084983"/>
</svg>
