<svg width="28" height="28" viewBox="0 0 28 28" fill="none" xmlns="http://www.w3.org/2000/svg">
<rect x="0.75" y="0.75" width="26.5" height="26.5" rx="2.25" stroke="#084983" stroke-width="1.5"/>
<path fill-rule="evenodd" clip-rule="evenodd" d="M10.0273 11.2499L5.8064 13.2802L7.07003 14.0749C10.529 13.5017 14.1294 12.4253 17.76 11.0284C19.6913 10.2862 21.6603 9.37885 23.6293 7.96052C24.3686 7.42816 24.9042 7.04735 24.9948 6.53054C25.0419 6.2663 24.7609 6.11864 24.5063 6.07978C24.3007 6.0487 24.1517 6.10698 23.9462 6.07007C23.6236 6.01372 23.2955 5.93601 22.7146 6.09144C21.8131 6.33236 19.9327 6.94438 18.0316 7.65548C15.1007 8.75129 12.6866 10.0414 10.0235 11.2479M7.54154 7.45342L5.20665 8.68911L9.60296 10.3134C9.95753 10.4436 10.0877 10.6884 10.0914 10.9623L15.1686 8.49094L7.54154 7.45342ZM4.35039 10.7428L3 11.448L5.57065 13.1248L7.75655 12.0426L4.35039 10.7408V10.7428ZM3.23009 20.9683H14.2878V22H3.23009V20.9683Z" fill="#084983"/>
</svg>
