<svg width="32" height="32" viewBox="0 0 32 32" fill="none" xmlns="http://www.w3.org/2000/svg">
<rect x="1.25" y="1.25" width="29.5" height="29.5" rx="3.75" stroke="#084983" stroke-width="1.5"/>
<path fill-rule="evenodd" clip-rule="evenodd" d="M27 23.4927H16.2179V24.5H27V23.4927ZM15.9476 16.9883C15.6773 16.9883 15.4566 17.2159 15.4566 17.4948C15.4566 17.7736 15.6773 18.0012 15.9476 18.0012C16.2179 18.0012 16.4386 17.7736 16.4386 17.4948C16.4386 17.2159 16.2179 16.9883 15.9476 16.9883ZM17.176 16.956C16.9057 16.956 16.685 17.1837 16.685 17.4625C16.685 17.7414 16.9057 17.969 17.176 17.969C17.4464 17.969 17.6671 17.7414 17.6671 17.4625C17.6671 17.1837 17.4464 16.956 17.176 16.956ZM21.8103 17.8438C21.6411 17.8438 21.5032 17.9861 21.5032 18.1606C21.5032 18.3351 21.6411 18.4773 21.8103 18.4773C21.9795 18.4773 22.1174 18.3351 22.1174 18.1606C22.1174 17.9861 21.9795 17.8438 21.8103 17.8438ZM10.7506 12.3086L6.27075 11.5328L6.85923 12.8929C9.94324 14.4066 13.4134 15.5979 17.0786 16.5463C19.0279 17.0528 21.0968 17.4473 23.4397 17.4303C24.3206 17.4246 24.9532 17.4227 25.3044 17.0604C25.4847 16.8745 25.3375 16.5956 25.1555 16.4192C25.0065 16.277 24.8557 16.2371 24.7104 16.093C24.4824 15.8634 24.2599 15.613 23.71 15.4063C22.8567 15.0857 21.0177 14.5052 19.1107 13.9912C16.1683 13.1983 13.5385 12.8587 10.7506 12.3086ZM10.7929 7.83955L8.25504 7.5L10.9124 11.3147C11.1276 11.622 11.1 11.8932 10.9565 12.1152L16.3614 13.0257L10.7947 7.83955H10.7929ZM6.46385 8.6609L5 8.45794L6.16225 11.2729L8.49779 11.6504L6.46201 8.65901L6.46385 8.6609Z" fill="#084983"/>
</svg>
