<svg width="28" height="28" viewBox="0 0 28 28" fill="none" xmlns="http://www.w3.org/2000/svg">
<path fill-rule="evenodd" clip-rule="evenodd" d="M2.57617 0H25.4258C26.8423 0 28.002 1.15967 28.002 2.57616V25.4238C28.002 26.8403 26.8423 28 25.4258 28H2.57617C1.15967 28 0 26.8403 0 25.4238V2.57616C0 1.15967 1.15967 0 2.57617 0ZM2.69865 1.31179H25.3013C26.0639 1.31179 26.6882 1.93608 26.6882 2.69865V25.3013C26.6882 26.0639 26.0639 26.6882 25.3013 26.6882H2.69865C1.93608 26.6882 1.31179 26.0639 1.31179 25.3013V2.69865C1.31179 1.93608 1.93608 1.31179 2.69865 1.31179Z" fill="#084983"/>
<path fill-rule="evenodd" clip-rule="evenodd" d="M10.9313 13.3572H14.4044C15.3428 13.3572 16.0244 13.1596 16.4511 12.7606C16.8778 12.3615 17.0912 11.7253 17.0912 10.8423C17.0912 10.0086 16.8818 9.37835 16.4629 8.95952C16.0441 8.53675 15.4198 8.32733 14.594 8.32733H10.9313V13.3572ZM10.9313 16.5082V22.6938H7.35352V5.30469H15.0879C16.9055 5.30469 18.2884 5.7808 19.2307 6.72711C20.177 7.67342 20.6492 9.06423 20.6492 10.9015C20.6492 12.7388 20.1889 14.0684 19.2663 15.0443C18.3477 16.0203 17.0339 16.5063 15.325 16.5063H10.9313V16.5082Z" fill="#084983"/>
</svg>
