<svg width="28" height="28" viewBox="0 0 28 28" fill="none" xmlns="http://www.w3.org/2000/svg">
<path fill-rule="evenodd" clip-rule="evenodd" d="M20.2657 12.3445V22H18.0159V20.7639H9.98736V22H7.73427V12.3445L6 11.8111V9.10348C6 8.68184 6.21699 8.44307 6.55797 8.44307H7.16815V11.784L7.73427 11.9991V8.06038C7.73427 7.43892 8.64464 7.32039 8.90894 6.92414C9.08841 6.65321 9.19935 6.37719 9.54522 6.32639C12.5488 5.8912 15.5524 5.8912 18.5576 6.32639C18.9034 6.37719 19.0242 6.64643 19.1922 6.92414C19.4255 7.30684 20.1972 7.41183 20.2657 8.06038V11.9991L20.8319 11.784V8.44307H21.442C21.783 8.44307 22 8.68184 22 9.10348V11.8111L20.2657 12.3445ZM8.4146 8.66321V15.6246H19.5838V8.66321H8.4146ZM9.04762 17.6278C8.70827 17.6278 8.54023 17.8022 8.54023 18.1544C8.54023 18.5066 8.70827 18.6827 9.04762 18.6827C9.38697 18.6827 9.5648 18.5049 9.5648 18.1544C9.5648 17.8039 9.39186 17.6278 9.04762 17.6278ZM10.2973 17.6278C9.93678 17.6278 9.75732 17.8022 9.75732 18.1544C9.75732 18.5066 9.93678 18.6827 10.2973 18.6827C10.6187 18.6827 10.7819 18.5049 10.7819 18.1544C10.7819 17.8039 10.6187 17.6278 10.2973 17.6278ZM17.7255 17.6278C17.3862 17.6278 17.2181 17.8022 17.2181 18.1544C17.2181 18.5066 17.3862 18.6827 17.7255 18.6827C18.0649 18.6827 18.2427 18.5049 18.2427 18.1544C18.2427 17.8039 18.0697 17.6278 17.7255 17.6278ZM18.9752 17.6278C18.6147 17.6278 18.4352 17.8022 18.4352 18.1544C18.4352 18.5066 18.6147 18.6827 18.9752 18.6827C19.2983 18.6827 19.4598 18.5049 19.4598 18.1544C19.4598 17.8039 19.2966 17.6278 18.9752 17.6278ZM10.2892 6.78021H17.7125C17.9343 6.78021 18.1171 6.97833 18.1171 7.21879V7.68954C18.1171 7.93168 17.9343 8.12811 17.7125 8.12811H10.2892C10.0673 8.12811 9.88457 7.92999 9.88457 7.68954V7.21879C9.88457 6.97833 10.0673 6.78021 10.2892 6.78021ZM8.64138 19.1315H19.357C19.5952 19.1315 19.791 19.3347 19.791 19.5802V19.8495C19.791 20.0967 19.5952 20.2999 19.357 20.2999H8.64138C8.40318 20.2999 8.2074 20.0984 8.2074 19.8495V19.5802C8.2074 19.333 8.40155 19.1315 8.64138 19.1315Z" fill="#084983"/>
<path fill-rule="evenodd" clip-rule="evenodd" d="M25.3013 1.31179H2.69865C1.93608 1.31179 1.31179 1.93608 1.31179 2.69865V25.3013C1.31179 26.0639 1.93608 26.6882 2.69865 26.6882H25.3013C26.0639 26.6882 26.6882 26.0639 26.6882 25.3013V2.69865C26.6882 1.93608 26.0639 1.31179 25.3013 1.31179ZM25.6194 0H2.38058C1.07077 0 0 1.07077 0 2.38058V25.6194C0 26.9292 1.07077 28 2.38058 28H25.6194C26.9292 28 28 26.9292 28 25.6194V2.38058C28 1.07077 26.9292 0 25.6194 0Z" fill="#084983"/>
</svg>
