<svg width="28" height="28" viewBox="0 0 28 28" fill="none" xmlns="http://www.w3.org/2000/svg">
<path fill-rule="evenodd" clip-rule="evenodd" d="M2.57617 0H25.4258C26.8423 0 28.002 1.15967 28.002 2.57617V25.4238C28.002 26.8403 26.8423 28 25.4258 28H2.57617C1.15967 28 0 26.8403 0 25.4238V2.57617C0 1.15967 1.15967 0 2.57617 0ZM2.69865 1.31179H25.3013C26.0639 1.31179 26.6882 1.93608 26.6882 2.69865V25.3013C26.6882 26.0639 26.0639 26.6882 25.3013 26.6882H2.69865C1.93608 26.6882 1.31179 26.0639 1.31179 25.3013V2.69865C1.31179 1.93608 1.93608 1.31179 2.69865 1.31179Z" fill="#084983"/>
<path fill-rule="evenodd" clip-rule="evenodd" d="M19.8942 21.9803H21.3318C21.5858 21.9803 21.8438 21.8937 22.021 21.8149C22.3026 21.6889 22.5527 21.4781 22.7319 21.234C22.7811 21.167 22.8619 21.0291 22.8934 20.9583C22.9741 20.7672 23.0628 20.5171 23.0628 20.2532V11.5234C23.0628 11.2438 22.9741 11.0272 22.8816 10.8283C22.7378 10.5211 22.5547 10.3123 22.2849 10.1115C22.021 9.91453 21.6547 9.77274 21.2904 9.77274H19.8942V21.9803ZM4.9375 11.5234V20.2532C4.9375 20.5762 5.0852 20.9839 5.25849 21.2241C5.33333 21.3265 5.37665 21.3698 5.46329 21.4565C5.76066 21.7538 6.20572 21.9823 6.66653 21.9823H8.1041V9.77471H6.70788C6.26479 9.77471 5.78035 10.0031 5.48299 10.3005C5.1876 10.5959 4.9375 11.102 4.9375 11.5254V11.5234ZM11.4361 8.2308V9.79244H8.99815V22H19.0178V9.79244H16.5602C16.5602 9.40449 16.6035 8.00433 16.4952 7.71091C16.4361 7.54746 16.3692 7.46672 16.253 7.34856C16.1525 7.24813 16.0482 7.17132 15.9064 7.11224C15.7764 7.0571 15.5854 7 15.4141 7H12.5803C12.2829 7 11.9363 7.1536 11.7414 7.34856C11.5129 7.577 11.4342 7.78377 11.4342 8.22883L11.4361 8.2308ZM13.0667 19.3553V17.6361H14.8075V19.3553H13.0667ZM13.175 17.1319C13.173 17.0926 13.1691 17.0512 13.1691 17.0059C13.1691 16.9626 13.1691 16.8996 13.1691 16.8129C13.1691 16.4959 13.2124 16.2399 13.301 16.0429C13.3916 15.846 13.5295 15.6885 13.7205 15.5703C13.8012 15.5211 13.9174 15.462 14.0651 15.3911C14.4176 15.2237 14.5929 15.0347 14.5929 14.8239C14.5929 14.6644 14.5417 14.5364 14.4373 14.4399C14.3349 14.3434 14.1951 14.2942 14.0198 14.2942C13.819 14.2942 13.6653 14.3572 13.559 14.4813C13.4527 14.6054 13.3995 14.7846 13.3995 15.015V15.0406H11.6587C11.6941 14.3671 11.9166 13.8492 12.3282 13.4888C12.7378 13.1284 13.3109 12.9472 14.0454 12.9472C14.7386 12.9472 15.2939 13.1126 15.7154 13.4474C16.1348 13.7822 16.3436 14.2194 16.3436 14.7629C16.3436 14.9579 16.318 15.1331 16.2668 15.2887C16.2156 15.4423 16.1388 15.5802 16.0364 15.7022C15.9162 15.846 15.6917 16.0095 15.3629 16.1906C15.227 16.2635 15.1266 16.3206 15.0596 16.36C14.9178 16.4447 14.8252 16.5293 14.78 16.6101C14.7347 16.6928 14.711 16.8129 14.711 16.9724C14.711 16.9882 14.711 17.0138 14.715 17.0512C14.7169 17.0866 14.7189 17.1142 14.7189 17.1378L13.177 17.1339L13.175 17.1319ZM12.3499 8.00039C12.3637 7.99251 12.3617 7.98858 12.3952 7.98267C12.5409 7.95904 15.5677 7.98267 15.6169 7.98858C15.6445 8.14612 15.6248 9.25483 15.6248 9.58567C15.6248 9.62505 15.6287 9.67428 15.6248 9.7117C15.6248 9.7373 15.6228 9.7432 15.6189 9.76684C15.6189 9.77077 15.613 9.78456 15.613 9.78062C15.613 9.77865 15.609 9.79047 15.6051 9.79441H12.3479V7.99842L12.3499 8.00039Z" fill="#084983"/>
</svg>
