<svg width="28" height="28" viewBox="0 0 28 28" fill="none" xmlns="http://www.w3.org/2000/svg">
<path d="M13.7754 9.17969C13.6718 9.17969 13.5879 9.26363 13.5879 9.36719V9.92969C13.5862 10.9652 14.4244 11.806 15.4599 11.8077C16.4954 11.8093 17.3362 10.9712 17.3379 9.93569V9.36719C17.3379 9.26363 17.2539 9.17969 17.1504 9.17969H13.7754Z" fill="#084983"/>
<path d="M11.75 7.6798C11.75 8.09401 12.0858 8.4298 12.5 8.4298H17.276C17.4376 8.43 17.5812 8.32663 17.6322 8.1733L17.8798 7.4323C17.9457 7.23406 17.926 7.01729 17.8253 6.83421C17.7247 6.65113 17.5522 6.51833 17.3495 6.4678L13.5725 5.52505C13.3741 5.47652 13.165 5.5384 13.025 5.68705C12.8835 5.83729 12.8363 6.05319 12.902 6.2488L13.127 6.9313H12.5C12.0864 6.9313 11.7508 7.26617 11.75 7.6798Z" fill="#084983"/>
<path d="M23 21.7422C23 21.328 22.6642 20.9922 22.25 20.9922H18.125C17.9179 20.9922 17.75 20.8243 17.75 20.6172V16.1172C17.75 15.9101 17.9179 15.7422 18.125 15.7422C18.3321 15.7422 18.5 15.9101 18.5 16.1172V19.3047C18.5 19.8225 18.9197 20.2422 19.4375 20.2422C19.9553 20.2422 20.375 19.8225 20.375 19.3047V16.3047C20.3729 14.6487 19.031 13.3068 17.375 13.3047H16.505C16.3509 13.3024 16.2111 13.3947 16.1525 13.5372L15.6725 14.7447C15.643 14.8147 15.5759 14.8614 15.5 14.8647C15.4234 14.8635 15.3552 14.8161 15.3275 14.7447L14.84 13.5372C14.7843 13.3957 14.6471 13.3032 14.495 13.3047H13.1892C12.7901 13.304 12.407 13.4625 12.125 13.745L7.9295 17.945C7.58227 18.3123 7.59038 18.8893 7.9478 19.2467C8.30522 19.6041 8.88217 19.6122 9.2495 19.265L12.9245 15.596C12.9781 15.5422 13.0589 15.5261 13.129 15.5552C13.1992 15.5843 13.2449 15.6528 13.2448 15.7287V20.615C13.2448 20.8221 13.0769 20.99 12.8698 20.99H5.75C5.33579 20.99 5 21.3258 5 21.74C5 22.1542 5.33579 22.49 5.75 22.49H22.25C22.6633 22.49 22.9988 22.1556 23 21.7422Z" fill="#084983"/>
<path fill-rule="evenodd" clip-rule="evenodd" d="M25.3013 1.31179H2.69865C1.93608 1.31179 1.31179 1.93608 1.31179 2.69865V25.3013C1.31179 26.0639 1.93608 26.6882 2.69865 26.6882H25.3013C26.0639 26.6882 26.6882 26.0639 26.6882 25.3013V2.69865C26.6882 1.93608 26.0639 1.31179 25.3013 1.31179ZM25.6194 0H2.38058C1.07077 0 0 1.07077 0 2.38058V25.6194C0 26.9292 1.07077 28 2.38058 28H25.6194C26.9292 28 28 26.9292 28 25.6194V2.38058C28 1.07077 26.9292 0 25.6194 0Z" fill="#084983"/>
</svg>
