<svg width="28" height="28" viewBox="0 0 28 28" fill="none" xmlns="http://www.w3.org/2000/svg">
<path d="M11.0918 12.6632C11.0339 12.702 10.9577 12.7047 10.897 12.6701L10.0597 12.1897L9.91591 12.2021L9.1526 12.8508C9.14205 12.8583 9.13262 12.8672 9.12457 12.8771C9.06735 12.9454 9.07828 13.0454 9.149 13.1008L10.7949 14.6515C10.893 14.7182 11.023 14.7217 11.1248 14.6605L16.1209 11.4067C16.4382 11.1872 16.5773 10.7987 16.468 10.4375C16.3765 10.2099 16.1858 10.0326 15.9465 9.95264C15.7072 9.87265 15.4435 9.89804 15.2253 10.0221L13.8662 10.9151C13.818 10.9468 13.7569 10.9541 13.7023 10.9345L10.6864 9.85868C10.6215 9.83527 10.5487 9.84518 10.4931 9.88499L9.9425 10.2782C9.93037 10.2867 9.91948 10.2967 9.91016 10.308C9.83722 10.3906 9.84751 10.5145 9.93316 10.5849L11.9528 11.7895C12.0044 11.8201 12.0364 11.8736 12.038 11.9318C12.0396 11.9901 12.0105 12.0451 11.9608 12.0782L11.0918 12.6632Z" fill="#084983"/>
<path fill-rule="evenodd" clip-rule="evenodd" d="M7.17188 17.0206H11.7086C11.7589 17.0207 11.8068 17.0415 11.8402 17.0777C11.8735 17.114 11.8892 17.1622 11.8833 17.2103C11.8457 17.5465 11.838 17.8851 11.8603 18.2225C11.8643 18.2695 11.8477 18.316 11.8145 18.3507C11.7814 18.3855 11.7346 18.4052 11.6856 18.4053H6.68097C5.9597 18.4053 5.375 17.8421 5.375 17.1473V6.87903C5.3969 6.20434 5.98116 5.67378 6.68169 5.69241H18.4433C19.1444 5.673 19.7295 6.20379 19.7514 6.87903V11.9703C19.7525 12.0226 19.7286 12.0725 19.6865 12.1056C19.6444 12.1387 19.5888 12.1514 19.5358 12.1399C19.2526 12.081 18.7703 11.9917 18.4663 11.9557C18.3773 11.9448 18.311 11.8711 18.3125 11.7847V9.15395C18.3125 8.96277 18.1516 8.8078 17.9531 8.8078H7.17188C6.9734 8.8078 6.8125 8.96277 6.8125 9.15395V16.6745C6.8125 16.8657 6.9734 17.0206 7.17188 17.0206ZM11.9305 7.06513C11.8395 6.85317 11.6248 6.71495 11.3866 6.71495C11.0618 6.71495 10.7984 6.96838 10.798 7.28126C10.7977 7.51065 10.9409 7.71761 11.1609 7.80559C11.3808 7.89357 11.6341 7.84523 11.8026 7.68312C11.9711 7.52102 12.0216 7.27709 11.9305 7.06513ZM9.32812 6.71495C9.56634 6.71467 9.78126 6.85271 9.87255 7.06465C9.96385 7.27658 9.91353 7.52063 9.74509 7.68288C9.57664 7.84513 9.32327 7.89359 9.10324 7.80566C8.88321 7.71772 8.7399 7.51071 8.74019 7.28126C8.74019 6.96849 9.00342 6.71495 9.32812 6.71495ZM7.81405 7.06465C7.72276 6.85271 7.50784 6.71467 7.26962 6.71495C6.94508 6.71533 6.68208 6.96865 6.68169 7.28126C6.6814 7.51071 6.82471 7.71772 7.04474 7.80566C7.26477 7.89359 7.51814 7.84513 7.68659 7.68288C7.85503 7.52063 7.90535 7.27658 7.81405 7.06465Z" fill="#084983"/>
<path d="M21.9517 18.0153C21.569 17.9145 21.174 18.1314 21.0691 18.4999C20.6041 20.1436 18.913 21.1733 17.172 20.8728C15.431 20.5722 14.2164 19.0409 14.373 17.344C14.5296 15.647 16.0056 14.3461 17.7743 14.346C18.1713 14.346 18.4931 14.0361 18.4931 13.6537C18.4931 13.2714 18.1713 12.9614 17.7743 12.9614C15.2617 12.9621 13.1653 14.8105 12.9431 17.2212C12.7208 19.6319 14.4462 21.8071 16.9194 22.2342C19.3926 22.6613 21.7951 21.199 22.4562 18.864C22.5598 18.4955 22.3341 18.1158 21.9517 18.0153Z" fill="#084983"/>
<path d="M17.6467 17.5309L16.7317 16.6476C16.4497 16.3852 16.0014 16.3889 15.7242 16.656C15.4469 16.923 15.443 17.3548 15.7154 17.6265L16.8992 18.7667C17.1307 18.9902 17.4451 19.1158 17.7729 19.1158C18.1007 19.1158 18.415 18.9902 18.6465 18.7667L22.4142 15.1383C22.5959 14.9635 22.6669 14.7085 22.6005 14.4695C22.5341 14.2306 22.3404 14.0438 22.0923 13.9797C21.8443 13.9156 21.5795 13.9838 21.3979 14.1587L17.9012 17.5309C17.8306 17.598 17.7172 17.598 17.6467 17.5309Z" fill="#084983"/>
<path fill-rule="evenodd" clip-rule="evenodd" d="M25.3013 1.31179H2.69865C1.93608 1.31179 1.31179 1.93608 1.31179 2.69865V25.3013C1.31179 26.0639 1.93608 26.6882 2.69865 26.6882H25.3013C26.0639 26.6882 26.6882 26.0639 26.6882 25.3013V2.69865C26.6882 1.93608 26.0639 1.31179 25.3013 1.31179ZM25.6194 0H2.38058C1.07077 0 0 1.07077 0 2.38058V25.6194C0 26.9292 1.07077 28 2.38058 28H25.6194C26.9292 28 28 26.9292 28 25.6194V2.38058C28 1.07077 26.9292 0 25.6194 0Z" fill="#084983"/>
</svg>
