<svg width="28" height="28" viewBox="0 0 28 28" fill="none" xmlns="http://www.w3.org/2000/svg">
<path fill-rule="evenodd" clip-rule="evenodd" d="M2.57617 0H25.4258C26.8423 0 28.002 1.15967 28.002 2.57617V25.4238C28.002 26.8403 26.8423 28 25.4258 28H2.57617C1.15967 28 0 26.8403 0 25.4238V2.57617C0 1.15967 1.15967 0 2.57617 0ZM2.69865 1.31179H25.3013C26.0639 1.31179 26.6882 1.93608 26.6882 2.69865V25.3013C26.6882 26.0639 26.0639 26.6882 25.3013 26.6882H2.69865C1.93608 26.6882 1.31179 26.0639 1.31179 25.3013V2.69865C1.31179 1.93608 1.93608 1.31179 2.69865 1.31179Z" fill="#084983"/>
<path d="M11.2786 13.5962C10.7968 12.3944 10.7447 11.0632 11.1311 9.82746C11.5176 8.59175 12.3188 7.52735 13.3994 6.81419C14.48 6.10103 15.7737 5.78285 17.0618 5.91343C18.35 6.04401 19.5535 6.61534 20.469 7.53085C21.3845 8.44636 21.9558 9.64989 22.0864 10.938C22.217 12.2261 21.8988 13.5198 21.1856 14.6005C20.4725 15.6811 19.4081 16.4823 18.1724 16.8687C16.9367 17.2551 15.6054 17.203 14.4037 16.7212L14.4037 16.7211L13.375 17.7498H11.5V19.6248H9.625V21.4998H6.5V18.3748L11.2787 13.5961L11.2786 13.5962Z" stroke="#084983" stroke-width="1.875" stroke-linecap="round" stroke-linejoin="round"/>
<path opacity="0.5" d="M18.0625 10.25C18.2351 10.25 18.375 10.1101 18.375 9.9375C18.375 9.76491 18.2351 9.625 18.0625 9.625C17.8899 9.625 17.75 9.76491 17.75 9.9375C17.75 10.1101 17.8899 10.25 18.0625 10.25Z" stroke="#084983" stroke-width="1.875" stroke-linecap="round" stroke-linejoin="round"/>
<path d="M18.0625 11.1875C18.7529 11.1875 19.3125 10.6279 19.3125 9.9375C19.3125 9.24714 18.7529 8.6875 18.0625 8.6875C17.3721 8.6875 16.8125 9.24714 16.8125 9.9375C16.8125 10.6279 17.3721 11.1875 18.0625 11.1875Z" fill="#084983"/>
</svg>
