<svg width="28" height="28" viewBox="0 0 28 28" fill="none" xmlns="http://www.w3.org/2000/svg">
<path fill-rule="evenodd" clip-rule="evenodd" d="M2.57617 0H25.4258C26.8423 0 28.002 1.15967 28.002 2.57617V25.4238C28.002 26.8403 26.8423 28 25.4258 28H2.57617C1.15967 28 0 26.8403 0 25.4238V2.57617C0 1.15967 1.15967 0 2.57617 0ZM2.69865 1.31179H25.3013C26.0639 1.31179 26.6882 1.93608 26.6882 2.69865V25.3013C26.6882 26.0639 26.0639 26.6882 25.3013 26.6882H2.69865C1.93608 26.6882 1.31179 26.0639 1.31179 25.3013V2.69865C1.31179 1.93608 1.93608 1.31179 2.69865 1.31179Z" fill="#084983"/>
<path d="M19.625 8.375V6.8125" stroke="#084983" stroke-width="1.875" stroke-linecap="round" stroke-linejoin="round"/>
<path d="M19.6247 8.37542L18.1387 7.89258" stroke="#084983" stroke-width="1.875" stroke-linecap="round" stroke-linejoin="round"/>
<path d="M19.6254 8.375L18.707 9.63909" stroke="#084983" stroke-width="1.875" stroke-linecap="round" stroke-linejoin="round"/>
<path d="M19.625 8.375L20.5434 9.63909" stroke="#084983" stroke-width="1.875" stroke-linecap="round" stroke-linejoin="round"/>
<path d="M19.625 8.37542L21.111 7.89258" stroke="#084983" stroke-width="1.875" stroke-linecap="round" stroke-linejoin="round"/>
<path d="M6.41992 20.8743C7.18833 19.5442 8.29321 18.4398 9.62358 17.672C10.9539 16.9042 12.463 16.5 13.999 16.5C15.535 16.5 17.044 16.9043 18.3744 17.6721C19.7047 18.44 20.8096 19.5444 21.578 20.8744" stroke="#084983" stroke-width="1.875" stroke-linecap="round" stroke-linejoin="round"/>
<path d="M18.5794 13.5086C18.2053 14.3598 17.6012 15.0899 16.835 15.6166C16.0687 16.1433 15.1707 16.4458 14.242 16.4901C13.3132 16.5345 12.3905 16.3188 11.5776 15.8674C10.7647 15.4161 10.0938 14.7469 9.64037 13.9351C9.18695 13.1233 8.96898 12.2011 9.01096 11.2723C9.05294 10.3434 9.35321 9.44464 9.878 8.67707C10.4028 7.90951 11.1313 7.30355 11.9816 6.92735C12.8319 6.55115 13.7704 6.41961 14.6913 6.54752" stroke="#084983" stroke-width="1.875" stroke-linecap="round" stroke-linejoin="round"/>
</svg>
