<svg width="28" height="28" viewBox="0 0 28 28" fill="none" xmlns="http://www.w3.org/2000/svg">
<path fill-rule="evenodd" clip-rule="evenodd" d="M2.57617 0H25.4258C26.8423 0 28.002 1.15967 28.002 2.57617V25.4238C28.002 26.8403 26.8423 28 25.4258 28H2.57617C1.15967 28 0 26.8403 0 25.4238V2.57617C0 1.15967 1.15967 0 2.57617 0ZM2.69865 1.31179H25.3013C26.0639 1.31179 26.6882 1.93608 26.6882 2.69865V25.3013C26.6882 26.0639 26.0639 26.6882 25.3013 26.6882H2.69865C1.93608 26.6882 1.31179 26.0639 1.31179 25.3013V2.69865C1.31179 1.93608 1.93608 1.31179 2.69865 1.31179Z" fill="#084983"/>
<path d="M7.125 12.3333V7.75C7.125 7.58424 7.19085 7.42527 7.30806 7.30806C7.42527 7.19085 7.58424 7.125 7.75 7.125H20.25C20.4158 7.125 20.5747 7.19085 20.6919 7.30806C20.8092 7.42527 20.875 7.58424 20.875 7.75V12.3333C20.875 18.897 15.3042 21.0716 14.1919 21.4404C14.0675 21.4832 13.9325 21.4832 13.8081 21.4404C12.6958 21.0716 7.125 18.897 7.125 12.3333Z" stroke="#084983" stroke-width="1.875" stroke-linecap="round" stroke-linejoin="round"/>
<path d="M17.4375 11.5L12.8541 15.875L10.5625 13.6875" stroke="#084983" stroke-width="1.875" stroke-linecap="round" stroke-linejoin="round"/>
</svg>
