<svg width="28" height="28" viewBox="0 0 28 28" fill="none" xmlns="http://www.w3.org/2000/svg">
<path fill-rule="evenodd" clip-rule="evenodd" d="M2.57617 0H25.4258C26.8423 0 28.002 1.15967 28.002 2.57617V25.4238C28.002 26.8403 26.8423 28 25.4258 28H2.57617C1.15967 28 0 26.8403 0 25.4238V2.57617C0 1.15967 1.15967 0 2.57617 0ZM2.69865 1.31179H25.3013C26.0639 1.31179 26.6882 1.93608 26.6882 2.69865V25.3013C26.6882 26.0639 26.0639 26.6882 25.3013 26.6882H2.69865C1.93608 26.6882 1.31179 26.0639 1.31179 25.3013V2.69865C1.31179 1.93608 1.93608 1.31179 2.69865 1.31179Z" fill="#084983"/>
<path d="M8.25476 19.7452C7.53569 19.0262 8.01262 17.5165 7.64662 16.632C7.26722 15.715 5.875 14.9769 5.875 14C5.875 13.023 7.26722 12.285 7.64663 11.368C8.01263 10.4835 7.5357 8.97382 8.25476 8.25476C8.97382 7.53569 10.4835 8.01262 11.368 7.64662C12.285 7.26722 13.0231 5.875 14 5.875C14.977 5.875 15.715 7.26722 16.632 7.64663C17.5165 8.01263 19.0262 7.5357 19.7452 8.25476C20.4643 8.97382 19.9874 10.4835 20.3534 11.368C20.7328 12.285 22.125 13.0231 22.125 14C22.125 14.977 20.7328 15.715 20.3534 16.632C19.9874 17.5165 20.4643 19.0262 19.7452 19.7452C19.0262 20.4643 17.5165 19.9874 16.632 20.3534C15.715 20.7328 14.9769 22.125 14 22.125C13.023 22.125 12.285 20.7328 11.368 20.3534C10.4835 19.9874 8.97382 20.4643 8.25476 19.7452Z" stroke="#084983" stroke-width="1.875" stroke-linecap="round" stroke-linejoin="round"/>
<path d="M14 10.25V14.3125" stroke="#084983" stroke-width="1.875" stroke-linecap="round" stroke-linejoin="round"/>
<path d="M14 18.6875C14.6904 18.6875 15.25 18.1279 15.25 17.4375C15.25 16.7471 14.6904 16.1875 14 16.1875C13.3096 16.1875 12.75 16.7471 12.75 17.4375C12.75 18.1279 13.3096 18.6875 14 18.6875Z" fill="#084983"/>
</svg>
