<svg width="28" height="28" viewBox="0 0 28 28" fill="none" xmlns="http://www.w3.org/2000/svg">
<path fill-rule="evenodd" clip-rule="evenodd" d="M2.57616 0H25.4258C26.8423 0 28.002 1.15967 28.002 2.57617V25.4238C28.002 26.8403 26.8423 28 25.4258 28H2.57616C1.15967 28 0 26.8403 0 25.4238V2.57617C0 1.15967 1.15967 0 2.57616 0ZM2.69865 1.31179H25.3013C26.0639 1.31179 26.6882 1.93608 26.6882 2.69865V25.3013C26.6882 26.0639 26.0639 26.6882 25.3013 26.6882H2.69865C1.93608 26.6882 1.31179 26.0639 1.31179 25.3013V2.69865C1.31179 1.93608 1.93608 1.31179 2.69865 1.31179Z" fill="#084983"/>
<path d="M10.875 16.5C13.1187 16.5 14.9375 14.6812 14.9375 12.4375C14.9375 10.1938 13.1187 8.375 10.875 8.375C8.63134 8.375 6.8125 10.1938 6.8125 12.4375C6.8125 14.6812 8.63134 16.5 10.875 16.5Z" stroke="#084983" stroke-width="1.875" stroke-linecap="round" stroke-linejoin="round"/>
<path d="M16.1406 8.52628C16.6994 8.36885 17.2854 8.33299 17.8592 8.4211C18.433 8.50922 18.9812 8.71928 19.467 9.03713C19.9528 9.35497 20.3648 9.77323 20.6753 10.2637C20.9859 10.7542 21.1877 11.3055 21.2672 11.8806C21.3467 12.4557 21.302 13.0411 21.1362 13.5974C20.9704 14.1537 20.6873 14.6681 20.306 15.1058C19.9247 15.5435 19.454 15.8944 18.9256 16.1349C18.3972 16.3754 17.8235 16.4999 17.2429 16.5" stroke="#084983" stroke-width="1.875" stroke-linecap="round" stroke-linejoin="round"/>
<path d="M5.25 19.4216C5.88444 18.5191 6.72672 17.7825 7.70572 17.274C8.68472 16.7655 9.7717 16.5 10.8749 16.5C11.9781 16.5 13.0651 16.7654 14.0441 17.2738C15.0232 17.7822 15.8655 18.5187 16.5 19.4212" stroke="#084983" stroke-width="1.875" stroke-linecap="round" stroke-linejoin="round"/>
<path d="M17.2441 16.5C18.3475 16.4992 19.4347 16.7643 20.4139 17.2728C21.393 17.7813 22.2352 18.5182 22.8692 19.4212" stroke="#084983" stroke-width="1.875" stroke-linecap="round" stroke-linejoin="round"/>
</svg>
