<?xml version="1.0" encoding="UTF-8"?>
<svg width="29" height="242" version="1.2" viewBox="0 0 29 242" xmlns="http://www.w3.org/2000/svg">
 <path d="m15 0.1684v238.04" fill="#fff" stroke="#e1e8ef" stroke-dasharray="2,6" stroke-dashoffset="8.4" stroke-width="2"/>
 <path fill="#213859" d="m1 139v-4q0-0.2 0.1-0.4t0.2-0.4q0.2-0.1 0.4-0.2 0.2 0 0.5 0l8.8 1.8v-3.4l-1.7-1.7c-0.2-0.2-0.3-0.4-0.3-0.7v-3q0-0.2 0.1-0.5 0.1-0.2 0.3-0.3 0.2-0.2 0.5-0.2 0.2 0 0.5 0.1l4.6 1.8 4.6-1.8q0.3-0.1 0.5-0.1 0.3 0 0.5 0.2 0.2 0.1 0.3 0.3 0.1 0.3 0.1 0.5v3q0 0.4-0.3 0.7l-1.7 1.7v3.4l8.8-1.8q0.2 0 0.4 0 0.3 0.1 0.4 0.2 0.2 0.2 0.3 0.4t0.1 0.4v4q0 0.3-0.1 0.5-0.2 0.3-0.5 0.4l-9.4 4.7v5.4c0 1.1-0.4 2.1-1.2 2.8-0.7 0.8-1.8 1.2-2.8 1.2-1.1 0-2.1-0.4-2.8-1.2-0.8-0.7-1.2-1.7-1.2-2.8v-5.4l-9.5-4.7q-0.2-0.1-0.4-0.4-0.1-0.2-0.1-0.5z"/>
 <path fill="#dde5ed" d="m15 242c-1.7 0-3-1.3-3-3s1.3-3 3-3 3 1.3 3 3-1.3 3-3 3z" fill-rule="evenodd"/>
</svg>
