<svg width="24" height="16" viewBox="0 0 24 16" fill="none" xmlns="http://www.w3.org/2000/svg">
<path d="M16.4998 15.25C16.4998 15.449 16.4207 15.6397 16.2801 15.7804C16.1394 15.921 15.9487 16 15.7498 16H2.24976C2.05085 16 1.86009 15.921 1.71943 15.7804C1.57878 15.6397 1.49976 15.449 1.49976 15.25C1.49976 15.0511 1.57878 14.8604 1.71943 14.7197C1.86009 14.5791 2.05085 14.5 2.24976 14.5H15.7498C15.9487 14.5 16.1394 14.5791 16.2801 14.7197C16.4207 14.8604 16.4998 15.0511 16.4998 15.25ZM23.165 3.38756L21.4175 1.25186C20.9097 0.625481 20.1934 0.202792 19.3996 0.0610636C18.6057 -0.0806652 17.7874 0.068034 17.0942 0.479978L13.0816 2.84035L7.61832 1.01927C7.53121 0.99032 7.4365 0.994261 7.35209 1.03035L5.80521 1.69324C5.63164 1.76765 5.47959 1.88456 5.36308 2.03318C5.24657 2.18181 5.16935 2.35737 5.13853 2.54369C5.10771 2.73001 5.12429 2.92109 5.18674 3.09932C5.24919 3.27754 5.35549 3.43718 5.49586 3.56352L7.98838 5.8068L5.97587 6.95679L3.52244 5.90535C3.47577 5.88537 3.42553 5.87507 3.37476 5.87507C3.324 5.87507 3.27376 5.88537 3.22709 5.90535L1.6565 6.57845C1.4847 6.65207 1.33394 6.76734 1.21786 6.91384C1.10178 7.06035 1.02403 7.23346 0.991634 7.41755C0.95924 7.60164 0.973223 7.7909 1.03232 7.96822C1.09142 8.14555 1.19376 8.30536 1.33012 8.43321H1.33021L4.86415 11.7463C5.39218 12.2459 6.0682 12.5604 6.79045 12.6426C7.5127 12.7247 8.24209 12.5701 8.86885 12.2018L23.0633 3.94923C23.1102 3.92194 23.1506 3.8848 23.1818 3.84036C23.2129 3.79593 23.2341 3.74527 23.2437 3.69187C23.2534 3.63847 23.2514 3.5836 23.2378 3.53107C23.2242 3.47853 23.1993 3.42957 23.165 3.38756L23.165 3.38756Z" fill="#213859"/>
</svg>
