<svg width="15" height="14" viewBox="0 0 15 14" fill="none" xmlns="http://www.w3.org/2000/svg">
<path d="M0.9859 6.49991L0.9859 4.49991C0.9859 4.42593 1.00232 4.35287 1.03396 4.286C1.06561 4.21914 1.1117 4.16013 1.16891 4.11323C1.22613 4.06632 1.29303 4.0327 1.36481 4.01479C1.43658 3.99687 1.51144 3.9951 1.58398 4.00961L5.9859 4.89001L5.9859 3.20493L5.14392 2.35095C5.0517 2.25739 5 2.13128 5 1.99991L5 0.499909C4.99999 0.4182 5.02002 0.337734 5.05831 0.265555C5.0966 0.193376 5.15201 0.131682 5.21967 0.0858727C5.28733 0.040063 5.36518 0.0115348 5.44642 0.00278389C5.52766 -0.00596701 5.60981 0.0053264 5.68567 0.0356752L8 0.961396L10.3143 0.0356756C10.3902 0.00532778 10.4723 -0.00596467 10.5536 0.0027872C10.6348 0.0115381 10.7127 0.0400673 10.7803 0.0858761C10.848 0.131685 10.9034 0.193378 10.9417 0.265557C10.98 0.337736 11 0.4182 11 0.499909L11 1.99991C11 2.13251 10.9473 2.25968 10.8536 2.35346L10 3.20703L10 4.89002L14.4019 4.00961C14.4745 3.9951 14.5493 3.99687 14.6211 4.01479C14.6929 4.0327 14.7598 4.06633 14.817 4.11323C14.8742 4.16013 14.9203 4.21914 14.9519 4.28601C14.9836 4.35287 15 4.42593 15 4.49991L15 6.49991C15 6.59276 14.9742 6.68378 14.9253 6.76277C14.8765 6.84175 14.8067 6.90559 14.7236 6.94711L9.99927 9.3093L9.99298 12.0011C9.99283 12.5315 9.78197 13.0401 9.40678 13.4151C9.0316 13.7901 8.52283 14.0006 7.9924 14.0005C7.46197 14.0003 6.95332 13.7895 6.57836 13.4143C6.20339 13.0391 5.99283 12.5303 5.99298 11.9999L5.98663 9.3093L1.26227 6.94711C1.17922 6.90558 1.10938 6.84175 1.06056 6.76277C1.01175 6.68378 0.985897 6.59276 0.9859 6.49991Z" fill="#EDEDED"/>
</svg>
