<svg width="23" height="18" viewBox="0 0 23 18" fill="none" xmlns="http://www.w3.org/2000/svg">
<path d="M22.25 17.25C22.25 17.4489 22.171 17.6396 22.0303 17.7803C21.8897 17.921 21.6989 18 21.5 18H8C7.80109 18 7.61032 17.921 7.46967 17.7803C7.32902 17.6397 7.25 17.4489 7.25 17.25C7.25 17.0511 7.32902 16.8603 7.46967 16.7196C7.61032 16.579 7.80109 16.5 8 16.5H21.5C21.6989 16.5 21.8897 16.579 22.0303 16.7196C22.171 16.8603 22.25 17.0511 22.25 17.25ZM20 14.625C20.0995 14.625 20.1948 14.5855 20.2652 14.5151C20.3355 14.4448 20.375 14.3494 20.375 14.25V10.9052C20.3733 10.168 20.131 9.45142 19.6849 8.86447C19.2387 8.27753 18.6132 7.85228 17.9033 7.65337L13.499 6.42995L10.5756 1.31394C10.5298 1.23383 10.4561 1.1734 10.3686 1.1442L9.10577 0.723239C8.93666 0.666879 8.75657 0.651511 8.58035 0.678402C8.40413 0.705292 8.23682 0.773671 8.09221 0.877904C7.9476 0.982137 7.82983 1.11924 7.7486 1.27792C7.66737 1.43659 7.62501 1.6123 7.625 1.79056V4.73989L5.25854 4.00037L3.83087 1.32351C3.78567 1.23876 3.70968 1.17458 3.61856 1.1442L2.35577 0.723239C2.18666 0.66688 2.00657 0.651512 1.83035 0.678402C1.65413 0.705293 1.48682 0.773672 1.34221 0.877905C1.1976 0.982138 1.07983 1.11924 0.998599 1.27792C0.917368 1.43659 0.875005 1.6123 0.875 1.79056V6.72461C0.87686 7.46063 1.11847 8.176 1.56326 8.76242C2.00805 9.34884 2.6318 9.77437 3.34006 9.9746L19.8989 14.6111C19.9318 14.6203 19.9658 14.625 20 14.625Z" fill="#084983"/>
</svg>
