<svg width="21" height="20" viewBox="0 0 21 20" fill="none" xmlns="http://www.w3.org/2000/svg">
<path d="M16.5669 9.19197C16.4497 9.30914 16.2908 9.37496 16.125 9.37496C15.9593 9.37496 15.8003 9.30914 15.6831 9.19197L11.125 4.63387L11.125 16.875C11.125 17.0408 11.0592 17.1997 10.942 17.3169C10.8247 17.4342 10.6658 17.5 10.5 17.5C10.3343 17.5 10.1753 17.4342 10.0581 17.3169C9.94086 17.1997 9.87501 17.0408 9.87501 16.875L9.87501 4.63387L5.31695 9.19197C5.25891 9.25001 5.19 9.29604 5.11417 9.32745C5.03834 9.35886 4.95707 9.37502 4.87499 9.37501C4.79291 9.37501 4.71164 9.35884 4.63581 9.32743C4.55998 9.29601 4.49108 9.24997 4.43304 9.19193C4.37501 9.13389 4.32897 9.06499 4.29757 8.98916C4.26616 8.91333 4.25 8.83205 4.25 8.74997C4.25 8.66789 4.26617 8.58662 4.29759 8.51079C4.329 8.43496 4.37504 8.36607 4.43308 8.30803L10.0581 2.68303C10.0601 2.68099 10.0624 2.67931 10.0644 2.67731C10.0771 2.66496 10.0901 2.65299 10.1037 2.64175C10.1114 2.63548 10.1195 2.63 10.1273 2.62415C10.1358 2.61782 10.1441 2.61124 10.1529 2.60532C10.162 2.59924 10.1715 2.59395 10.1808 2.58838C10.189 2.58352 10.1969 2.57839 10.2054 2.57387C10.2148 2.56885 10.2244 2.56458 10.234 2.56006C10.2429 2.55584 10.2517 2.5514 10.2608 2.54761C10.2701 2.54379 10.2795 2.5407 10.2889 2.53734C10.2988 2.5338 10.3085 2.53002 10.3186 2.52697C10.3279 2.52414 10.3374 2.52207 10.3469 2.51968C10.3572 2.51709 10.3674 2.51419 10.3779 2.51211C10.3888 2.50995 10.3998 2.50866 10.4108 2.50709C10.42 2.50578 10.429 2.50402 10.4383 2.50311C10.4589 2.50109 10.4794 2.5 10.5 2.5C10.5206 2.5 10.5412 2.50109 10.5617 2.50311C10.571 2.50402 10.58 2.50578 10.5893 2.50709C10.6002 2.50866 10.6112 2.50995 10.6221 2.51211C10.6326 2.51419 10.6428 2.51709 10.6531 2.51968C10.6626 2.52207 10.6721 2.52414 10.6814 2.52697C10.6915 2.53002 10.7013 2.5338 10.7111 2.53734C10.7205 2.5407 10.73 2.54379 10.7392 2.54761C10.7483 2.5514 10.7571 2.55584 10.766 2.56006C10.7756 2.56458 10.7853 2.56885 10.7947 2.57387C10.8031 2.57839 10.8111 2.58352 10.8192 2.58838C10.8286 2.59395 10.838 2.59924 10.8471 2.60532C10.8559 2.61123 10.8642 2.61781 10.8727 2.62415C10.8806 2.63001 10.8887 2.63548 10.8963 2.64175C10.9102 2.65318 10.9234 2.66537 10.9363 2.67796C10.9381 2.67973 10.9402 2.68122 10.9419 2.68303L16.5669 8.30803C16.625 8.36607 16.671 8.43497 16.7024 8.5108C16.7339 8.58664 16.75 8.66792 16.75 8.75C16.75 8.83208 16.7339 8.91336 16.7024 8.98919C16.671 9.06503 16.625 9.13393 16.5669 9.19197Z" fill="#939393"/>
</svg>
