<svg width="16" height="14" viewBox="0 0 16 14" fill="none" xmlns="http://www.w3.org/2000/svg">
<path d="M8.80803 13.0669C8.69086 12.9497 8.62504 12.7908 8.62504 12.625C8.62504 12.4593 8.69086 12.3003 8.80803 12.1831L13.3661 7.62501H1.125C0.95924 7.62501 0.800269 7.55917 0.683058 7.44196C0.565848 7.32475 0.5 7.16578 0.5 7.00001C0.5 6.83425 0.565848 6.67528 0.683058 6.55807C0.800269 6.44086 0.95924 6.37501 1.125 6.37501H13.3661L8.80803 1.81695C8.74999 1.75891 8.70396 1.69 8.67255 1.61417C8.64114 1.53834 8.62498 1.45707 8.62499 1.37499C8.62499 1.29291 8.64116 1.21164 8.67257 1.13581C8.70399 1.05998 8.75003 0.991079 8.80807 0.933043C8.86611 0.875008 8.93501 0.828973 9.01084 0.797566C9.08667 0.76616 9.16795 0.749996 9.25003 0.75C9.33211 0.750004 9.41338 0.766174 9.48921 0.797587C9.56504 0.829 9.63393 0.875041 9.69197 0.933082L15.317 6.55808C15.319 6.5601 15.3207 6.56235 15.3227 6.56441C15.335 6.57708 15.347 6.59009 15.3582 6.60374C15.3645 6.61137 15.37 6.61946 15.3759 6.62732C15.3822 6.63579 15.3888 6.6441 15.3947 6.65292C15.4008 6.66199 15.406 6.67145 15.4116 6.6808C15.4165 6.68896 15.4216 6.69694 15.4261 6.70537C15.4311 6.71475 15.4354 6.72444 15.4399 6.73402C15.4442 6.74294 15.4486 6.75172 15.4524 6.76083C15.4562 6.77006 15.4593 6.77953 15.4627 6.78891C15.4662 6.79875 15.47 6.80852 15.473 6.81859C15.4759 6.82793 15.4779 6.83743 15.4803 6.84689C15.4829 6.85719 15.4858 6.86742 15.4879 6.87791C15.49 6.88882 15.4913 6.89981 15.4929 6.91075C15.4942 6.91999 15.496 6.92903 15.4969 6.93833C15.4989 6.95885 15.5 6.97942 15.5 7.00001C15.5 7.02061 15.4989 7.04118 15.4969 7.0617C15.496 7.07101 15.4942 7.08005 15.4929 7.08928C15.4913 7.10022 15.49 7.11121 15.4879 7.12212C15.4858 7.13261 15.4829 7.14284 15.4803 7.15314C15.4779 7.1626 15.4759 7.1721 15.473 7.18144C15.47 7.19151 15.4662 7.20128 15.4627 7.21112C15.4593 7.2205 15.4562 7.22997 15.4524 7.2392C15.4486 7.24831 15.4442 7.25709 15.4399 7.26601C15.4354 7.27559 15.4311 7.28528 15.4261 7.29466C15.4216 7.30309 15.4165 7.31107 15.4116 7.31923C15.406 7.32857 15.4008 7.33804 15.3947 7.34711C15.3888 7.35593 15.3822 7.36424 15.3759 7.37271C15.37 7.38057 15.3645 7.38866 15.3582 7.39629C15.3468 7.41021 15.3346 7.42345 15.322 7.43634C15.3203 7.43814 15.3188 7.44015 15.317 7.44195L9.69197 13.0669C9.63393 13.125 9.56503 13.171 9.48919 13.2024C9.41336 13.2339 9.33208 13.25 9.25 13.25C9.16792 13.25 9.08664 13.2339 9.01081 13.2024C8.93497 13.171 8.86607 13.125 8.80803 13.0669Z" fill="#2D2D2D"/>
</svg>
