<svg width="32" height="32" viewBox="0 0 32 32" fill="none" xmlns="http://www.w3.org/2000/svg">
<rect width="32" height="32" rx="16" fill="#084983"/>
<path d="M23.4998 22.875C23.4998 23.0408 23.4339 23.1997 23.3167 23.3169C23.1995 23.4341 23.0406 23.5 22.8748 23.5H11.6248C11.459 23.5 11.3001 23.4342 11.1829 23.3169C11.0656 23.1997 10.9998 23.0408 10.9998 22.875C10.9998 22.7092 11.0656 22.5503 11.1829 22.4331C11.3001 22.3158 11.459 22.25 11.6248 22.25H22.8748C23.0406 22.25 23.1995 22.3159 23.3167 22.4331C23.4339 22.5503 23.4998 22.7092 23.4998 22.875ZM22.2498 13.8125H18.0123L14.6676 10.1638C14.6384 10.1319 14.6028 10.1064 14.5631 10.0889C14.5235 10.0715 14.4806 10.0625 14.4373 10.0625H13.117C12.9684 10.0625 12.822 10.0978 12.6897 10.1655C12.5575 10.2332 12.4432 10.3313 12.3564 10.4518C12.2695 10.5723 12.2125 10.7118 12.1901 10.8586C12.1677 11.0055 12.1805 11.1555 12.2275 11.2965L13.0662 13.8125H11.1461L9.67739 12.05C9.64806 12.0148 9.61135 11.9864 9.56986 11.967C9.52837 11.9476 9.48311 11.9375 9.43729 11.9375H8.08979C7.94365 11.9375 7.79953 11.9717 7.66894 12.0373C7.53835 12.1029 7.42491 12.1981 7.33767 12.3154C7.25044 12.4327 7.19183 12.5687 7.16651 12.7126C7.1412 12.8566 7.14989 13.0044 7.19189 13.1444L8.29098 16.8082C8.46229 17.389 8.81759 17.8984 9.30341 18.2599C9.78923 18.6214 10.3793 18.8153 10.9848 18.8125H24.7498C24.8327 18.8125 24.9122 18.7796 24.9708 18.721C25.0294 18.6624 25.0623 18.5829 25.0623 18.5V16.625C25.0615 15.8793 24.7649 15.1645 24.2376 14.6372C23.7103 14.1099 22.9955 13.8133 22.2498 13.8125Z" fill="white"/>
</svg>
