<svg width="20" height="20" viewBox="0 0 20 20" fill="none" xmlns="http://www.w3.org/2000/svg">
<path d="M10 0.25C8.07164 0.25 6.18657 0.821828 4.58319 1.89317C2.97982 2.96451 1.73013 4.48726 0.992179 6.26884C0.254225 8.05042 0.061142 10.0108 0.437348 11.9021C0.813554 13.7934 1.74215 15.5307 3.10571 16.8943C4.46928 18.2579 6.20656 19.1865 8.09787 19.5627C9.98919 19.9389 11.9496 19.7458 13.7312 19.0078C15.5127 18.2699 17.0355 17.0202 18.1068 15.4168C19.1782 13.8134 19.75 11.9284 19.75 10C19.747 7.41506 18.7188 4.93684 16.891 3.10901C15.0632 1.28118 12.5849 0.252988 10 0.25ZM9.99991 4.75C10.2224 4.75 10.4399 4.81598 10.6249 4.9396C10.8099 5.06321 10.9541 5.23891 11.0393 5.44448C11.1244 5.65005 11.1467 5.87625 11.1033 6.09448C11.0599 6.31271 10.9527 6.51316 10.7954 6.6705C10.6381 6.82783 10.4376 6.93498 10.2194 6.97838C10.0012 7.02179 9.77496 6.99951 9.56939 6.91436C9.36382 6.82922 9.18812 6.68502 9.06451 6.50002C8.94089 6.31501 8.87491 6.0975 8.87491 5.875C8.87491 5.72726 8.90401 5.58097 8.96055 5.44448C9.01708 5.30799 9.09995 5.18397 9.20442 5.0795C9.30888 4.97504 9.4329 4.89217 9.56939 4.83563C9.70589 4.7791 9.85218 4.75 9.99991 4.75H9.99991ZM10.75 15.25H10C9.9015 15.2501 9.80394 15.2307 9.71292 15.193C9.62191 15.1554 9.5392 15.1001 9.46955 15.0305C9.39989 14.9608 9.34465 14.8781 9.30698 14.7871C9.26931 14.6961 9.24995 14.5985 9.25 14.5V10C9.05109 10 8.86033 9.92098 8.71967 9.78033C8.57902 9.63968 8.5 9.44891 8.5 9.25C8.5 9.05109 8.57902 8.86032 8.71967 8.71967C8.86033 8.57902 9.05109 8.5 9.25 8.5H10C10.0985 8.49994 10.1961 8.5193 10.2871 8.55697C10.3781 8.59465 10.4608 8.64989 10.5305 8.71954C10.6001 8.7892 10.6554 8.8719 10.693 8.96292C10.7307 9.05394 10.7501 9.15149 10.75 9.25V13.75C10.9489 13.75 11.1397 13.829 11.2803 13.9697C11.421 14.1103 11.5 14.3011 11.5 14.5C11.5 14.6989 11.421 14.8897 11.2803 15.0303C11.1397 15.171 10.9489 15.25 10.75 15.25Z" fill="#084983"/>
</svg>
